*
*
G04 PowerPCB (Build Number [351.51 ]) generated Gerber (RS-274-X) file*
G04 PC Version=2.1*
*
%IN "L6206Pd-2.pcb"*%
*
%MOIN*%
*
%FSLAX35Y35*%
*
*
*
*
G04 PC Standard Apertures*
*
*
G04 Thermal Relief Aperture macro.*
%AMTER*
1,1,$1,0,0*
1,0,$1-$2,0,0*
21,0,$3,$4,0,0,45*
21,0,$3,$4,0,0,135*
%
*
*
G04 Annular Aperture macro.*
%AMANN*
1,1,$1,0,0*
1,0,$2,0,0*
%
*
*
G04 Odd Aperture macro.*
%AMODD*
1,1,$1,0,0*
1,0,$1-0.005,0,0*
%
*
*
G04 PC Custom Aperture Macros*
*
*
*
*
*
*
G04 PC Aperture Table*
*
%ADD010C,0.02*%
%ADD011C,0.01*%
%ADD012C,0.012*%
%ADD014C,0.024*%
%ADD015C,0.008*%
%ADD016C,0.015*%
%ADD017C,0.007*%
%ADD018C,0.004*%
%ADD027C,0.03*%
%ADD028C,0.025*%
*
*
*
*
G04 PC Custom Flashes*
G04 Layer Name L6206Pd-2.pcb - flashes*
%LPD*%
*
*
G04 PC Circuitry*
G04 Layer Name L6206Pd-2.pcb - circuitry*
%LPD*%
*
G54D10*
G01X734295Y236644D02*
Y254144D01*
X651795Y236644D02*
Y254144D01*
X569295Y236644D02*
Y254144D01*
X486795Y236644D02*
Y254144D01*
X404295Y236644D02*
Y254144D01*
X321795Y236644D02*
Y254144D01*
X239295Y236644D02*
Y254144D01*
G54D11*
X277815Y703891D02*
X553405D01*
X553405D02*
Y908616D01*
X553405D02*
X277815D01*
Y703891*
X110545Y432209D02*
X464876D01*
X110545Y412524D02*
X819206D01*
X110545Y392839D02*
X819206D01*
X110545Y373154D02*
X819206D01*
X110545Y353469D02*
X819206D01*
X110545Y333784D02*
X819206D01*
X110545Y314099D02*
X819206D01*
X110545Y294414D02*
X819206D01*
X327080Y274729D02*
Y451894D01*
X464876D02*
Y274729D01*
X220295Y1016144D02*
Y956144D01*
X190295Y986144D02*
X250295D01*
X240295D02*
G75*
G03X240295I-20000D01*
G01X235295D02*
G03X235295I-15000D01*
G01X231475D02*
G03X231475I-11180D01*
G01X225295D02*
G03X225295I-5000D01*
G01X649795Y997644D02*
Y937644D01*
X619795Y967644D02*
X679795D01*
X669795D02*
G03X669795I-20000D01*
G01X664795D02*
G03X664795I-15000D01*
G01X660975D02*
G03X660975I-11180D01*
G01X654795D02*
G03X654795I-5000D01*
G01X13409Y17471D02*
Y47372D01*
X836638Y1182825D02*
Y1153672D01*
Y1182825D02*
X807063D01*
X606275Y145798D02*
X649582D01*
X653519D02*
X677141D01*
X665330Y133987D02*
Y157609D01*
X645645D02*
Y133987D01*
X614149Y141861*
Y149735*
X645645Y157609*
X665330D02*
Y161546D01*
X653519Y145798D02*
X651551D01*
X677141D02*
X679110D01*
X665330Y133987D02*
Y132018D01*
X257043Y227254D02*
X212161D01*
X257043Y226664D02*
X212161D01*
X256452Y226073D02*
X211571D01*
X256452Y225483D02*
X211571D01*
X256452Y224892D02*
X210980D01*
X255862Y224301D02*
X210980D01*
X255271Y223711D02*
X215704D01*
Y223120*
X217476Y223711D02*
X210389D01*
X215114Y223120D02*
X210980D01*
X212161Y222530D02*
X209799D01*
X211571Y221939D02*
X209799D01*
X210980D02*
X209799D01*
X213342Y223120D02*
X210389D01*
Y221349D02*
X209208D01*
Y220168D02*
X210980Y221939D01*
X208027Y216624D02*
X207437D01*
X208027Y216034D02*
X207437D01*
X209208Y220168D02*
X210389Y221349D01*
X208027Y215443D02*
X206846D01*
X208027Y214853D02*
X206846D01*
X208027Y214262D02*
X206846D01*
X208027Y213672D02*
X206256D01*
X208618Y213081D02*
X206256D01*
X208618Y212490D02*
X205665D01*
X208618Y211900D02*
X205665D01*
X209208Y211309D02*
X205665D01*
X209799Y210719D02*
X205075D01*
X209799Y210128D02*
X205075D01*
X210389Y209538D02*
X204484D01*
X210980Y208947D02*
X204484D01*
X212161Y208357D02*
X204484D01*
X212752Y207766D02*
X203893D01*
X213342Y207175D02*
X203303D01*
X213933Y206585D02*
X203303D01*
X214523Y205994D02*
X203303D01*
X215114Y205404D02*
X202712D01*
X215704Y204813D02*
X202712D01*
X216295Y204223D02*
X202122D01*
X217476Y203632D02*
X202122D01*
X218067Y203042D02*
X202122D01*
X218657Y202451D02*
X201531D01*
X219248Y201861D02*
X201531D01*
X219838Y201270D02*
X201531D01*
X219838Y200679D02*
X200941D01*
X235193Y215443D02*
X216295D01*
Y214853*
X234602D02*
X216886D01*
X234602Y214262D02*
X216886D01*
X234602Y213672D02*
X217476D01*
X234012Y213081D02*
X218657D01*
X234012Y212490D02*
X218657D01*
X233421Y211900D02*
X219838D01*
X233421Y211309D02*
X220429D01*
X233421Y210719D02*
X221019D01*
X232830Y210128D02*
X221610D01*
X232830Y209538D02*
X222201D01*
X232240Y208947D02*
X222791D01*
X232240Y208357D02*
X223382D01*
X231649Y207766D02*
X223972D01*
X231649Y207175D02*
X224563D01*
X231649Y206585D02*
X224563D01*
X231059Y205994D02*
X225744D01*
X231059Y205404D02*
X226334D01*
X230468Y204813D02*
X226925D01*
X230468Y204223D02*
X226925D01*
X230468Y203632D02*
X227515D01*
X229878Y203042D02*
X228106D01*
X229878Y202451D02*
X228106D01*
X229287Y201861D02*
X228106D01*
X229287Y201270D02*
X228106D01*
X229287Y200679D02*
X228106D01*
X228697Y200089D02*
X228106D01*
X228697Y199498D02*
X228106D01*
Y198908D02*
Y197727D01*
X227515Y195955D02*
X226925D01*
Y195364D02*
X226334D01*
X226925Y194774D02*
X225744D01*
X226334Y194183D02*
X225744D01*
X226334Y193593D02*
X225153D01*
X243460Y215443D02*
X252319D01*
X243460Y214853D02*
X251728D01*
X242870Y214262D02*
X251728D01*
X242870Y213672D02*
X251138D01*
X242279Y213081D02*
X251138D01*
X242279Y212490D02*
X250547D01*
X242279Y211900D02*
X250547D01*
X241689Y211309D02*
X250547D01*
X241689Y210719D02*
X249956D01*
X241098Y210128D02*
X249956D01*
X241098Y209538D02*
X249366D01*
X240508Y208947D02*
X249366D01*
X240508Y208357D02*
X249366D01*
X240508Y207766D02*
X248775D01*
X239917Y207175D02*
X248775D01*
X239917Y206585D02*
X248185D01*
X239326Y205994D02*
X248185D01*
Y205404*
X239326D02*
X247594D01*
Y204813*
X238736Y204223D02*
X247594D01*
X238736Y204813D02*
X247004D01*
X238736Y203632D02*
X247004D01*
Y203042*
X238145D02*
X246413D01*
Y202451*
X238145D02*
X245823D01*
X237555Y201861D02*
X246413D01*
X237555Y201270D02*
X246413D01*
X237555Y200679D02*
X245823D01*
X236964Y200089D02*
X245823D01*
X236964Y199498D02*
X245232D01*
X236374Y198908D02*
X245232D01*
X236374Y198317D02*
X245232D01*
X235783Y197727D02*
X244641D01*
X235783Y197136D02*
X244641D01*
X235783Y196546D02*
X244051D01*
X235193Y195955D02*
X244051D01*
X235193Y195364D02*
X244051D01*
X235193Y194774D02*
X243460D01*
X234602Y194183D02*
X243460D01*
X234602Y193593D02*
X242870D01*
X258417Y194144D02*
G03X258417I-4122D01*
G01X243311Y216250D02*
X252913D01*
X243311Y192939*
X233704*
X243311Y216250*
X217799D02*
X236008D01*
X226401Y192939*
X222701*
X224000Y193238*
X225201Y194140*
X227303Y197140*
X227901Y201242*
X227204Y203345*
X225701Y205242*
X217299Y213349*
X215897Y214648*
X215598Y215550*
X216299Y216050*
X217799Y216250*
X211795Y209144D02*
X210295Y210447D01*
X209094Y212349*
X208496Y214648*
X208397Y217050*
X209197Y219349*
X210795Y221349*
X213598Y222652*
X217598Y223152*
X255815Y223050*
X257913Y227853*
X211795*
X200193Y200144*
X218000*
X219401*
X220098Y200644*
X220201Y201542*
X219299Y202443*
X211795Y209144*
X807063Y17471D02*
X836638D01*
Y47372*
X13362Y17175D02*
X42153D01*
X13409Y1182825D02*
Y1153672D01*
Y1182805D02*
X37035D01*
X277815Y703891D02*
X277817D01*
X277815Y908616D02*
X277817D01*
X255315Y703891D02*
Y792004D01*
Y703891D02*
X252815Y713891D01*
X252815D02*
X257815D01*
X257815D02*
X255315Y703891D01*
Y908616D02*
Y820504D01*
Y908616D02*
X257815Y898616D01*
X252815*
X255315Y908616*
X272815Y703891D02*
X250315D01*
X272815Y908616D02*
X250315D01*
X252502Y797958D02*
Y795685D01*
X252502D02*
X255315Y795458D01*
X255315D02*
X255002Y795685D01*
X255002D02*
X254690Y796367D01*
X254690D02*
Y797049D01*
X255002Y797731*
X255002D02*
X255627Y798185D01*
X255627D02*
X256565Y798413D01*
X257190Y798185*
X257190D02*
X258127Y797958D01*
X258127D02*
X258752Y797504D01*
X258752D02*
X259065Y796822D01*
Y796140*
X258752Y795458*
X258752D02*
X258440Y795231D01*
X257815Y795004*
X254065Y800685D02*
X253752D01*
X253752D02*
X253127Y800913D01*
X253127D02*
X252815Y801140D01*
X252502Y801594*
X252502D02*
Y802504D01*
X252502D02*
X252815Y802958D01*
X252815D02*
X253127Y803185D01*
X253127D02*
X253752Y803413D01*
X253752D02*
X254377D01*
X254377D02*
X255002Y803185D01*
X255002D02*
X255940Y802731D01*
X259065Y800458*
X259065D02*
Y803640D01*
X258440Y805913D02*
X258752Y805685D01*
X258752D02*
X259065Y805913D01*
X258752Y806140*
X258752D02*
X258440Y805913D01*
X252502Y809549D02*
X252815Y808867D01*
X252815D02*
X253752Y808413D01*
X253752D02*
X255315Y808185D01*
X255315D02*
X256252D01*
X256252D02*
X257815Y808413D01*
X258752Y808867*
X258752D02*
X259065Y809549D01*
Y810004*
X258752Y810685*
X258752D02*
X257815Y811140D01*
X256252Y811367*
X256252D02*
X255315D01*
X255315D02*
X253752Y811140D01*
X253752D02*
X252815Y810685D01*
X252815D02*
X252502Y810004D01*
X252502D02*
Y809549D01*
Y814776D02*
X252815Y814094D01*
X252815D02*
X253752Y813640D01*
X253752D02*
X255315Y813413D01*
X256252*
X256252D02*
X257815Y813640D01*
X258752Y814094*
X258752D02*
X259065Y814776D01*
X259065D02*
Y815231D01*
X258752Y815913*
X258752D02*
X257815Y816367D01*
X257815D02*
X256252Y816594D01*
X256252D02*
X255315D01*
X255315D02*
X253752Y816367D01*
X253752D02*
X252815Y815913D01*
X252502Y815231*
X252502D02*
Y814776D01*
X553405Y908616D02*
X553408D01*
X277815D02*
X277817D01*
X553405Y926254D02*
X429746D01*
X553405D02*
X543405Y923754D01*
X543405D02*
Y928754D01*
X543405D02*
X553405Y926254D01*
X277815D02*
X401474D01*
X277815D02*
X287815Y928754D01*
Y923754*
X277815Y926254*
X553405Y913616D02*
Y931254D01*
X277815Y913616D02*
Y931254D01*
X407655Y929066D02*
X405383Y922504D01*
X404474Y929066D02*
X407655D01*
X411065D02*
X410383Y928754D01*
X409928Y927816*
X409928D02*
X409701Y926254D01*
Y925316*
X409701D02*
X409928Y923754D01*
X409928D02*
X410383Y922816D01*
X410383D02*
X411065Y922504D01*
X411519*
X411519D02*
X412201Y922816D01*
X412201D02*
X412655Y923754D01*
X412655D02*
X412883Y925316D01*
X412883D02*
Y926254D01*
X412655Y927816*
X412655D02*
X412201Y928754D01*
X411519Y929066*
X411519D02*
X411065D01*
X415155Y923129D02*
X414928Y922816D01*
X414928D02*
X415155Y922504D01*
X415155D02*
X415383Y922816D01*
X415383D02*
X415155Y923129D01*
X418792Y929066D02*
X418110Y928754D01*
X417655Y927816*
X417655D02*
X417428Y926254D01*
X417428D02*
Y925316D01*
X417428D02*
X417655Y923754D01*
X417655D02*
X418110Y922816D01*
X418110D02*
X418792Y922504D01*
X419246*
X419246D02*
X419928Y922816D01*
X419928D02*
X420383Y923754D01*
X420610Y925316*
X420610D02*
Y926254D01*
X420383Y927816*
X420383D02*
X419928Y928754D01*
X419928D02*
X419246Y929066D01*
X419246D02*
X418792D01*
X424019D02*
X423337Y928754D01*
X423337D02*
X422883Y927816D01*
X422883D02*
X422655Y926254D01*
X422655D02*
Y925316D01*
X422655D02*
X422883Y923754D01*
X423337Y922816*
X423337D02*
X424019Y922504D01*
X424019D02*
X424474D01*
X425155Y922816*
X425155D02*
X425610Y923754D01*
X425837Y925316*
X425837D02*
Y926254D01*
X425837D02*
X425610Y927816D01*
X425610D02*
X425155Y928754D01*
X425155D02*
X424474Y929066D01*
X424474D02*
X424019D01*
X584295Y713144D02*
Y653144D01*
X554295Y683144D02*
X614295D01*
X604295D02*
G03X604295I-20000D01*
G01X599295D02*
G03X599295I-15000D01*
G01X595475D02*
G03X595475I-11180D01*
G01X589295D02*
G03X589295I-5000D01*
G01X118299Y161546D02*
X116118Y153671D01*
X118299Y161546D02*
X120481Y153671D01*
X116936Y156296D02*
X119663D01*
X122936Y161546D02*
Y153671D01*
X126208*
X128663Y161546D02*
Y153671D01*
X131936*
X139299Y161546D02*
Y153671D01*
Y161546D02*
X141754D01*
X142572Y161171*
X142572D02*
X142845Y160796D01*
X143118Y160046*
Y159296*
X142845Y158546*
X142572Y158171*
X142572D02*
X141754Y157796D01*
X139299*
X141208D02*
X143118Y153671D01*
X145572Y161546D02*
Y153671D01*
X152118Y159671D02*
X151845Y160421D01*
X151299Y161171*
X151299D02*
X150754Y161546D01*
X149663*
X149118Y161171*
X148572Y160421*
X148572D02*
X148299Y159671D01*
X148299D02*
X148027Y158546D01*
Y156671*
X148299Y155546*
X148299D02*
X148572Y154796D01*
X148572D02*
X149118Y154046D01*
X149663Y153671*
X150754*
X151299Y154046*
X151299D02*
X151845Y154796D01*
X152118Y155546*
Y156671*
X150754D02*
X152118D01*
X154572Y161546D02*
Y153671D01*
X158390Y161546D02*
Y153671D01*
X154572Y157796D02*
X158390D01*
X162754Y161546D02*
Y153671D01*
X160845Y161546D02*
X164663D01*
X170936Y160421D02*
X170390Y161171D01*
X170390D02*
X169572Y161546D01*
X169572D02*
X168481D01*
X168481D02*
X167663Y161171D01*
X167118Y160421*
Y159671*
X167390Y158921*
X167390D02*
X167663Y158546D01*
X168208Y158171*
X168208D02*
X169845Y157421D01*
X170390Y157046*
X170390D02*
X170663Y156671D01*
X170936Y155921*
Y154796*
X170390Y154046*
X170390D02*
X169572Y153671D01*
X169572D02*
X168481D01*
X168481D02*
X167663Y154046D01*
X167118Y154796*
X182118Y160421D02*
X181572Y161171D01*
X181572D02*
X180754Y161546D01*
X179663*
X178845Y161171*
X178299Y160421*
X178299D02*
Y159671D01*
X178299D02*
X178572Y158921D01*
X178572D02*
X178845Y158546D01*
X179390Y158171*
X179390D02*
X181027Y157421D01*
X181572Y157046*
X181572D02*
X181845Y156671D01*
X182118Y155921*
Y154796*
X181572Y154046*
X181572D02*
X180754Y153671D01*
X179663*
X178845Y154046*
X178299Y154796*
X186481Y161546D02*
Y153671D01*
X184572Y161546D02*
X188390D01*
X190845D02*
Y153671D01*
Y161546D02*
X193299D01*
X193299D02*
X194118Y161171D01*
X194390Y160796*
X194390D02*
X194663Y160046D01*
Y159296*
X194390Y158546*
X194390D02*
X194118Y158171D01*
X193299Y157796*
X193299D02*
X190845D01*
X192754D02*
X194663Y153671D01*
X197118Y161546D02*
Y153671D01*
X203663Y159671D02*
X203390Y160421D01*
X203390D02*
X202845Y161171D01*
X202299Y161546*
X202299D02*
X201208D01*
X201208D02*
X200663Y161171D01*
X200118Y160421*
X199845Y159671*
X199572Y158546*
X199572D02*
Y156671D01*
X199572D02*
X199845Y155546D01*
X200118Y154796*
X200663Y154046*
X201208Y153671*
X201208D02*
X202299D01*
X202299D02*
X202845Y154046D01*
X203390Y154796*
X203390D02*
X203663Y155546D01*
X208027Y161546D02*
Y153671D01*
X206118Y161546D02*
X209936D01*
X212390D02*
Y153671D01*
X212390D02*
X215663D01*
X218118Y161546D02*
X220299Y157796D01*
X220299D02*
Y153671D01*
X222481Y161546D02*
X220299Y157796D01*
X229845Y161546D02*
Y153671D01*
Y161546D02*
X232299D01*
X232299D02*
X233118Y161171D01*
X233390Y160796*
X233390D02*
X233663Y160046D01*
Y159296*
X233390Y158546*
X233390D02*
X233118Y158171D01*
X232299Y157796*
X232299D02*
X229845D01*
X231754D02*
X233663Y153671D01*
X236118Y161546D02*
Y153671D01*
Y161546D02*
X239663D01*
X236118Y157796D02*
X238299D01*
X236118Y153671D02*
X239663D01*
X245936Y160421D02*
X245390Y161171D01*
X245390D02*
X244572Y161546D01*
X244572D02*
X243481D01*
X243481D02*
X242663Y161171D01*
X242118Y160421*
Y159671*
X242390Y158921*
X242390D02*
X242663Y158546D01*
X243208Y158171*
X243208D02*
X244845Y157421D01*
X245390Y157046*
X245390D02*
X245663Y156671D01*
X245936Y155921*
Y154796*
X245390Y154046*
X245390D02*
X244572Y153671D01*
X244572D02*
X243481D01*
X243481D02*
X242663Y154046D01*
X242118Y154796*
X248390Y161546D02*
Y153671D01*
Y161546D02*
X251936D01*
X248390Y157796D02*
X250572D01*
X248390Y153671D02*
X251936D01*
X254390Y161546D02*
Y153671D01*
Y161546D02*
X256845D01*
X257663Y161171*
X257936Y160796*
X258208Y160046*
X258208D02*
Y159296D01*
X258208D02*
X257936Y158546D01*
X257663Y158171*
X256845Y157796*
X254390*
X256299D02*
X258208Y153671D01*
X260663Y161546D02*
X262845Y153671D01*
X265027Y161546D02*
X262845Y153671D01*
X267481Y161546D02*
Y153671D01*
Y161546D02*
X271027D01*
X267481Y157796D02*
X269663D01*
X267481Y153671D02*
X271027D01*
X273481Y161546D02*
Y153671D01*
Y161546D02*
X275390D01*
X275390D02*
X276208Y161171D01*
X276208D02*
X276754Y160421D01*
X277027Y159671*
X277299Y158546*
X277299D02*
Y156671D01*
X277299D02*
X277027Y155546D01*
X276754Y154796*
X276208Y154046*
X276208D02*
X275390Y153671D01*
X275390D02*
X273481D01*
X280027Y154421D02*
X279754Y154046D01*
X280027Y153671*
X280299Y154046*
X280299D02*
X280027Y154421D01*
X282754Y161546D02*
Y153671D01*
Y161546D02*
X285208D01*
X285208D02*
X286027Y161171D01*
X286299Y160796*
X286299D02*
X286572Y160046D01*
X286572D02*
Y159296D01*
X286572D02*
X286299Y158546D01*
X286299D02*
X286027Y158171D01*
X285208Y157796*
X285208D02*
X282754D01*
X284663D02*
X286572Y153671D01*
X289027Y161546D02*
Y153671D01*
Y161546D02*
X292572D01*
X289027Y157796D02*
X291208D01*
X289027Y153671D02*
X292572D01*
X295027Y161546D02*
Y153671D01*
Y161546D02*
X297481D01*
X297481D02*
X298299Y161171D01*
X298299D02*
X298572Y160796D01*
X298572D02*
X298845Y160046D01*
Y158921*
X298572Y158171*
X298572D02*
X298299Y157796D01*
X298299D02*
X297481Y157421D01*
X297481D02*
X295027D01*
X301299Y161546D02*
Y153671D01*
Y161546D02*
X303754D01*
X304572Y161171*
X304572D02*
X304845Y160796D01*
X305118Y160046*
Y159296*
X304845Y158546*
X304572Y158171*
X304572D02*
X303754Y157796D01*
X301299*
X303208D02*
X305118Y153671D01*
X309208Y161546D02*
X308663Y161171D01*
X308118Y160421*
X307845Y159671*
X307572Y158546*
X307572D02*
Y156671D01*
X307572D02*
X307845Y155546D01*
X308118Y154796*
X308663Y154046*
X309208Y153671*
X309208D02*
X310299D01*
X310299D02*
X310845Y154046D01*
X311390Y154796*
X311390D02*
X311663Y155546D01*
X311936Y156671*
Y158546*
X311663Y159671*
X311390Y160421*
X311390D02*
X310845Y161171D01*
X310299Y161546*
X310299D02*
X309208D01*
X314390Y157046D02*
X319299D01*
X116118Y149735D02*
Y141860D01*
Y149735D02*
X118027D01*
X118845Y149360*
X119390Y148610*
X119390D02*
X119663Y147860D01*
X119936Y146735*
Y144860*
X119663Y143735*
X119390Y142985*
X119390D02*
X118845Y142235D01*
X118027Y141860*
X116118*
X122390Y149735D02*
Y144110D01*
X122390D02*
X122663Y142985D01*
X123208Y142235*
X123208D02*
X124027Y141860D01*
X124572*
X124572D02*
X125390Y142235D01*
X125390D02*
X125936Y142985D01*
X126208Y144110*
X126208D02*
Y149735D01*
X132754Y147860D02*
X132481Y148610D01*
X132481D02*
X131936Y149360D01*
X131390Y149735*
X131390D02*
X130299D01*
X130299D02*
X129754Y149360D01*
X129208Y148610*
X129208D02*
X128936Y147860D01*
X128663Y146735*
Y144860*
X128936Y143735*
X129208Y142985*
X129208D02*
X129754Y142235D01*
X130299Y141860*
X130299D02*
X131390D01*
X131390D02*
X131936Y142235D01*
X132481Y142985*
X132481D02*
X132754Y143735D01*
X137118Y149735D02*
Y141860D01*
X135208Y149735D02*
X139027D01*
X141481D02*
Y141860D01*
X145572Y149735D02*
X145027Y149360D01*
X144481Y148610*
X144481D02*
X144208Y147860D01*
X144208D02*
X143936Y146735D01*
Y144860*
X144208Y143735*
X144208D02*
X144481Y142985D01*
X144481D02*
X145027Y142235D01*
X145572Y141860*
X145572D02*
X146663D01*
X147208Y142235*
X147208D02*
X147754Y142985D01*
X148027Y143735*
X148299Y144860*
X148299D02*
Y146735D01*
X148299D02*
X148027Y147860D01*
X147754Y148610*
X147208Y149360*
X147208D02*
X146663Y149735D01*
X145572*
X150754D02*
Y141860D01*
Y149735D02*
X154572Y141860D01*
Y149735D02*
Y141860D01*
X163572Y149735D02*
X163027Y149360D01*
X162481Y148610*
X162481D02*
X162208Y147860D01*
X162208D02*
X161936Y146735D01*
Y144860*
X162208Y143735*
X162208D02*
X162481Y142985D01*
X162481D02*
X163027Y142235D01*
X163572Y141860*
X163572D02*
X164663D01*
X165208Y142235*
X165208D02*
X165754Y142985D01*
X166027Y143735*
X166299Y144860*
X166299D02*
Y146735D01*
X166299D02*
X166027Y147860D01*
X165754Y148610*
X165208Y149360*
X165208D02*
X164663Y149735D01*
X163572*
X168754D02*
Y141860D01*
Y149735D02*
X171208D01*
X171208D02*
X172027Y149360D01*
X172299Y148985*
X172299D02*
X172572Y148235D01*
X172572D02*
Y147485D01*
X172572D02*
X172299Y146735D01*
X172299D02*
X172027Y146360D01*
X171208Y145985*
X171208D02*
X168754D01*
X170663D02*
X172572Y141860D01*
X179936Y149735D02*
Y141860D01*
X186208Y148610D02*
X185663Y149360D01*
X184845Y149735*
X183754*
X182936Y149360*
X182390Y148610*
X182390D02*
Y147860D01*
X182390D02*
X182663Y147110D01*
X182936Y146735*
X183481Y146360*
X183481D02*
X185118Y145610D01*
X185663Y145235*
X185936Y144860*
X186208Y144110*
X186208D02*
Y142985D01*
X186208D02*
X185663Y142235D01*
X184845Y141860*
X183754*
X182936Y142235*
X182390Y142985*
X192481Y148610D02*
X191936Y149360D01*
X191118Y149735*
X190027*
X189208Y149360*
X189208D02*
X188663Y148610D01*
Y147860*
X188936Y147110*
X189208Y146735*
X189208D02*
X189754Y146360D01*
X191390Y145610*
X191390D02*
X191936Y145235D01*
X192208Y144860*
X192208D02*
X192481Y144110D01*
X192481D02*
Y142985D01*
X192481D02*
X191936Y142235D01*
X191118Y141860*
X190027*
X189208Y142235*
X189208D02*
X188663Y142985D01*
X194936Y149735D02*
Y144110D01*
X195208Y142985*
X195208D02*
X195754Y142235D01*
X196572Y141860*
X196572D02*
X197118D01*
X197936Y142235*
X198481Y142985*
X198481D02*
X198754Y144110D01*
Y149735*
X201208D02*
Y141860D01*
Y149735D02*
X204754D01*
X201208Y145985D02*
X203390D01*
X201208Y141860D02*
X204754D01*
X214027Y149735D02*
Y141860D01*
X212118Y149735D02*
X215936D01*
X220027D02*
X219481Y149360D01*
X219481D02*
X218936Y148610D01*
X218663Y147860*
X218390Y146735*
X218390D02*
Y144860D01*
X218390D02*
X218663Y143735D01*
X218936Y142985*
X219481Y142235*
X219481D02*
X220027Y141860D01*
X221118*
X221663Y142235*
X222208Y142985*
X222208D02*
X222481Y143735D01*
X222481D02*
X222754Y144860D01*
Y146735*
X222481Y147860*
X222481D02*
X222208Y148610D01*
X222208D02*
X221663Y149360D01*
X221118Y149735*
X220027*
X232027D02*
Y141860D01*
X230118Y149735D02*
X233936D01*
X236390D02*
Y141860D01*
X240208Y149735D02*
Y141860D01*
X236390Y145985D02*
X240208D01*
X242663Y149735D02*
Y141860D01*
X245118Y149735D02*
Y141860D01*
Y149735D02*
X247572D01*
X247572D02*
X248390Y149360D01*
X248390D02*
X248663Y148985D01*
X248936Y148235*
Y147485*
X248663Y146735*
X248390Y146360*
X248390D02*
X247572Y145985D01*
X247572D02*
X245118D01*
X247027D02*
X248936Y141860D01*
X251390Y149735D02*
Y141860D01*
Y149735D02*
X253299D01*
X253299D02*
X254118Y149360D01*
X254663Y148610*
X254936Y147860*
X255208Y146735*
X255208D02*
Y144860D01*
X255208D02*
X254936Y143735D01*
X254663Y142985*
X254118Y142235*
X253299Y141860*
X253299D02*
X251390D01*
X262572Y149735D02*
Y141860D01*
Y149735D02*
X265027D01*
X265845Y149360*
X266118Y148985*
X266390Y148235*
X266390D02*
Y147110D01*
X266390D02*
X266118Y146360D01*
X265845Y145985*
X265027Y145610*
X262572*
X271027Y149735D02*
X268845Y141860D01*
X271027Y149735D02*
X273208Y141860D01*
X269663Y144485D02*
X272390D01*
X275663Y149735D02*
Y141860D01*
Y149735D02*
X278118D01*
X278936Y149360*
X279208Y148985*
X279208D02*
X279481Y148235D01*
X279481D02*
Y147485D01*
X279481D02*
X279208Y146735D01*
X279208D02*
X278936Y146360D01*
X278118Y145985*
X275663*
X277572D02*
X279481Y141860D01*
X283845Y149735D02*
Y141860D01*
X281936Y149735D02*
X285754D01*
X288208D02*
Y141860D01*
X290663Y149735D02*
Y141860D01*
Y149735D02*
X294208D01*
X290663Y145985D02*
X292845D01*
X290663Y141860D02*
X294208D01*
X300481Y148610D02*
X299936Y149360D01*
X299118Y149735*
X298027*
X297208Y149360*
X297208D02*
X296663Y148610D01*
Y147860*
X296936Y147110*
X297208Y146735*
X297208D02*
X297754Y146360D01*
X299390Y145610*
X299390D02*
X299936Y145235D01*
X300208Y144860*
X300208D02*
X300481Y144110D01*
X300481D02*
Y142985D01*
X300481D02*
X299936Y142235D01*
X299118Y141860*
X298027*
X297208Y142235*
X297208D02*
X296663Y142985D01*
X307845Y149735D02*
Y141860D01*
X310299Y149735D02*
Y141860D01*
Y149735D02*
X314118Y141860D01*
Y149735D02*
Y141860D01*
X117976Y138519D02*
X115795Y130644D01*
X117976Y138519D02*
X120158Y130644D01*
X116613Y133269D02*
X119340D01*
X122613Y138519D02*
Y130644D01*
Y138519D02*
X126431Y130644D01*
Y138519D02*
Y130644D01*
X128885Y138519D02*
X131067Y134769D01*
X131067D02*
Y130644D01*
X133249Y138519D02*
X131067Y134769D01*
X140613Y138519D02*
Y130644D01*
Y138519D02*
X144158D01*
X140613Y134769D02*
X142795D01*
X148249Y138519D02*
X147704Y138144D01*
X147158Y137394*
X147158D02*
X146885Y136644D01*
X146885D02*
X146613Y135519D01*
Y133644*
X146885Y132519*
X146885D02*
X147158Y131769D01*
X147158D02*
X147704Y131019D01*
X148249Y130644*
X148249D02*
X149340D01*
X149885Y131019*
X149885D02*
X150431Y131769D01*
X150704Y132519*
X150976Y133644*
X150976D02*
Y135519D01*
X150976D02*
X150704Y136644D01*
X150431Y137394*
X149885Y138144*
X149885D02*
X149340Y138519D01*
X148249*
X153431D02*
Y130644D01*
Y138519D02*
X155885D01*
X155885D02*
X156704Y138144D01*
X156976Y137769*
X156976D02*
X157249Y137019D01*
X157249D02*
Y136269D01*
X157249D02*
X156976Y135519D01*
X156976D02*
X156704Y135144D01*
X155885Y134769*
X155885D02*
X153431D01*
X155340D02*
X157249Y130644D01*
X159704Y138519D02*
Y130644D01*
Y138519D02*
X161885Y130644D01*
X164067Y138519D02*
X161885Y130644D01*
X164067Y138519D02*
Y130644D01*
X171431Y138519D02*
X172795Y130644D01*
X174158Y138519D02*
X172795Y130644D01*
X174158Y138519D02*
X175522Y130644D01*
X176885Y138519D02*
X175522Y130644D01*
X179340Y138519D02*
Y130644D01*
X183158Y138519D02*
Y130644D01*
X179340Y134769D02*
X183158D01*
X187795Y138519D02*
X185613Y130644D01*
X187795Y138519D02*
X189976Y130644D01*
X186431Y133269D02*
X189158D01*
X194340Y138519D02*
Y130644D01*
X192431Y138519D02*
X196249D01*
X198704D02*
Y130644D01*
Y138519D02*
X202249D01*
X198704Y134769D02*
X200885D01*
X198704Y130644D02*
X202249D01*
X204704Y138519D02*
X206885Y130644D01*
X209067Y138519D02*
X206885Y130644D01*
X211522Y138519D02*
Y130644D01*
Y138519D02*
X215067D01*
X211522Y134769D02*
X213704D01*
X211522Y130644D02*
X215067D01*
X217522Y138519D02*
Y130644D01*
Y138519D02*
X219976D01*
X219976D02*
X220795Y138144D01*
X221067Y137769*
X221067D02*
X221340Y137019D01*
Y136269*
X221067Y135519*
X221067D02*
X220795Y135144D01*
X219976Y134769*
X219976D02*
X217522D01*
X219431D02*
X221340Y130644D01*
X228704Y138519D02*
Y130644D01*
X234976Y137394D02*
X234431Y138144D01*
X233613Y138519*
X232522*
X231704Y138144*
X231158Y137394*
X231158D02*
Y136644D01*
X231158D02*
X231431Y135894D01*
X231704Y135519*
X232249Y135144*
X232249D02*
X233885Y134394D01*
X233885D02*
X234431Y134019D01*
X234704Y133644*
X234976Y132894*
X234976D02*
Y131769D01*
X234976D02*
X234431Y131019D01*
X233613Y130644*
X232522*
X231704Y131019*
X231158Y131769*
X242340Y138519D02*
Y130644D01*
Y138519D02*
X246158Y130644D01*
Y138519D02*
Y130644D01*
X250249Y138519D02*
X249704Y138144D01*
X249158Y137394*
X249158D02*
X248885Y136644D01*
X248885D02*
X248613Y135519D01*
Y133644*
X248885Y132519*
X248885D02*
X249158Y131769D01*
X249158D02*
X249704Y131019D01*
X250249Y130644*
X250249D02*
X251340D01*
X251885Y131019*
X251885D02*
X252431Y131769D01*
X252704Y132519*
X252976Y133644*
X252976D02*
Y135519D01*
X252976D02*
X252704Y136644D01*
X252431Y137394*
X251885Y138144*
X251885D02*
X251340Y138519D01*
X250249*
X257340D02*
Y130644D01*
X255431Y138519D02*
X259249D01*
X266613D02*
Y130644D01*
Y138519D02*
X269067D01*
X269067D02*
X269885Y138144D01*
X269885D02*
X270158Y137769D01*
X270158D02*
X270431Y137019D01*
Y135894*
X270158Y135144*
X270158D02*
X269885Y134769D01*
X269885D02*
X269067Y134394D01*
X269067D02*
X266613D01*
X272885Y138519D02*
Y130644D01*
Y138519D02*
X276431D01*
X272885Y134769D02*
X275067D01*
X272885Y130644D02*
X276431D01*
X278885Y138519D02*
Y130644D01*
Y138519D02*
X281340D01*
X282158Y138144*
X282158D02*
X282431Y137769D01*
X282704Y137019*
Y136269*
X282431Y135519*
X282158Y135144*
X282158D02*
X281340Y134769D01*
X278885*
X280795D02*
X282704Y130644D01*
X285158Y138519D02*
Y130644D01*
Y138519D02*
X287340Y130644D01*
X289522Y138519D02*
X287340Y130644D01*
X289522Y138519D02*
Y130644D01*
X291976Y138519D02*
Y130644D01*
X296340Y138519D02*
Y130644D01*
X294431Y138519D02*
X298249D01*
X302613D02*
Y130644D01*
X300704Y138519D02*
X304522D01*
X306976D02*
Y130644D01*
Y138519D02*
X310522D01*
X306976Y134769D02*
X309158D01*
X306976Y130644D02*
X310522D01*
X312976Y138519D02*
Y130644D01*
Y138519D02*
X314885D01*
X314885D02*
X315704Y138144D01*
X316249Y137394*
X316249D02*
X316522Y136644D01*
X316795Y135519*
Y133644*
X316522Y132519*
X316249Y131769*
X316249D02*
X315704Y131019D01*
X314885Y130644*
X314885D02*
X312976D01*
X115795Y126519D02*
X117158Y118644D01*
X118522Y126519D02*
X117158Y118644D01*
X118522Y126519D02*
X119885Y118644D01*
X121249Y126519D02*
X119885Y118644D01*
X123704Y126519D02*
Y118644D01*
X128067Y126519D02*
Y118644D01*
X126158Y126519D02*
X129976D01*
X132431D02*
Y118644D01*
X136249Y126519D02*
Y118644D01*
X132431Y122769D02*
X136249D01*
X140340Y126519D02*
X139795Y126144D01*
X139249Y125394*
X139249D02*
X138976Y124644D01*
X138976D02*
X138704Y123519D01*
Y121644*
X138976Y120519*
X138976D02*
X139249Y119769D01*
X139249D02*
X139795Y119019D01*
X140340Y118644*
X141431*
X141976Y119019*
X141976D02*
X142522Y119769D01*
X142795Y120519*
X143067Y121644*
X143067D02*
Y123519D01*
X143067D02*
X142795Y124644D01*
X142522Y125394*
X141976Y126144*
X141976D02*
X141431Y126519D01*
X140340*
X145522D02*
Y120894D01*
X145795Y119769*
X146340Y119019*
X147158Y118644*
X147158D02*
X147704D01*
X148522Y119019*
X149067Y119769*
X149067D02*
X149340Y120894D01*
Y126519*
X153704D02*
Y118644D01*
X151795Y126519D02*
X155613D01*
X162976D02*
X164340Y118644D01*
X165704Y126519D02*
X164340Y118644D01*
X165704Y126519D02*
X167067Y118644D01*
X168431Y126519D02*
X167067Y118644D01*
X170885Y126519D02*
Y118644D01*
Y126519D02*
X173340D01*
X174158Y126144*
X174158D02*
X174431Y125769D01*
X174704Y125019*
Y124269*
X174431Y123519*
X174158Y123144*
X174158D02*
X173340Y122769D01*
X170885*
X172795D02*
X174704Y118644D01*
X177158Y126519D02*
Y118644D01*
X181522Y126519D02*
Y118644D01*
X179613Y126519D02*
X183431D01*
X187795D02*
Y118644D01*
X185885Y126519D02*
X189704D01*
X192158D02*
Y118644D01*
Y126519D02*
X195704D01*
X192158Y122769D02*
X194340D01*
X192158Y118644D02*
X195704D01*
X198158Y126519D02*
Y118644D01*
Y126519D02*
X201976Y118644D01*
Y126519D02*
Y118644D01*
X211522Y126519D02*
X209340Y118644D01*
X211522Y126519D02*
X213704Y118644D01*
X210158Y121269D02*
X212885D01*
X216158Y126519D02*
Y120894D01*
X216158D02*
X216431Y119769D01*
X216976Y119019*
X216976D02*
X217795Y118644D01*
X218340*
X219158Y119019*
X219158D02*
X219704Y119769D01*
X219976Y120894*
X219976D02*
Y126519D01*
X224340D02*
Y118644D01*
X222431Y126519D02*
X226249D01*
X228704D02*
Y118644D01*
X232522Y126519D02*
Y118644D01*
X228704Y122769D02*
X232522D01*
X236613Y126519D02*
X236067Y126144D01*
X236067D02*
X235522Y125394D01*
X235249Y124644*
X235249D02*
X234976Y123519D01*
X234976D02*
Y121644D01*
X234976D02*
X235249Y120519D01*
X235249D02*
X235522Y119769D01*
X236067Y119019*
X236067D02*
X236613Y118644D01*
X237704*
X238249Y119019*
X238249D02*
X238795Y119769D01*
X239067Y120519*
X239067D02*
X239340Y121644D01*
Y123519*
X239067Y124644*
X239067D02*
X238795Y125394D01*
X238249Y126144*
X238249D02*
X237704Y126519D01*
X236613*
X241795D02*
Y118644D01*
Y126519D02*
X244249D01*
X244249D02*
X245067Y126144D01*
X245067D02*
X245340Y125769D01*
X245613Y125019*
Y124269*
X245340Y123519*
X245067Y123144*
X245067D02*
X244249Y122769D01*
X244249D02*
X241795D01*
X243704D02*
X245613Y118644D01*
X248067Y126519D02*
Y118644D01*
X254340Y126519D02*
X250522Y118644D01*
Y126519D02*
X254340D01*
X250522Y118644D02*
X254340D01*
X258976Y126519D02*
X256795Y118644D01*
X258976Y126519D02*
X261158Y118644D01*
X257613Y121269D02*
X260340D01*
X265522Y126519D02*
Y118644D01*
X263613Y126519D02*
X267431D01*
X269885D02*
Y118644D01*
X273976Y126519D02*
X273431Y126144D01*
X272885Y125394*
X272885D02*
X272613Y124644D01*
X272340Y123519*
Y121644*
X272613Y120519*
X272885Y119769*
X272885D02*
X273431Y119019D01*
X273976Y118644*
X273976D02*
X275067D01*
X275067D02*
X275613Y119019D01*
X276158Y119769*
X276158D02*
X276431Y120519D01*
X276704Y121644*
Y123519*
X276431Y124644*
X276158Y125394*
X276158D02*
X275613Y126144D01*
X275067Y126519*
X275067D02*
X273976D01*
X279158D02*
Y118644D01*
Y126519D02*
X282976Y118644D01*
Y126519D02*
Y118644D01*
X290340Y126519D02*
Y118644D01*
Y126519D02*
X293885D01*
X290340Y122769D02*
X292522D01*
X296340Y126519D02*
Y118644D01*
Y126519D02*
X298795D01*
X299613Y126144*
X299885Y125769*
X299885D02*
X300158Y125019D01*
X300158D02*
Y124269D01*
X300158D02*
X299885Y123519D01*
X299885D02*
X299613Y123144D01*
X298795Y122769*
X296340*
X298249D02*
X300158Y118644D01*
X304249Y126519D02*
X303704Y126144D01*
X303158Y125394*
X303158D02*
X302885Y124644D01*
X302885D02*
X302613Y123519D01*
Y121644*
X302885Y120519*
X302885D02*
X303158Y119769D01*
X303158D02*
X303704Y119019D01*
X304249Y118644*
X304249D02*
X305340D01*
X305885Y119019*
X305885D02*
X306431Y119769D01*
X306704Y120519*
X306976Y121644*
X306976D02*
Y123519D01*
X306976D02*
X306704Y124644D01*
X306431Y125394*
X305885Y126144*
X305885D02*
X305340Y126519D01*
X304249*
X309431D02*
Y118644D01*
Y126519D02*
X311613Y118644D01*
X313795Y126519D02*
X311613Y118644D01*
X313795Y126519D02*
Y118644D01*
G54D12*
X110545Y451894D02*
X819206D01*
Y274729*
X110545*
Y451894*
X421236Y35561D02*
Y130050D01*
X452732Y35561D02*
Y130050D01*
X488165Y35561D02*
Y130050D01*
X523598Y35561D02*
Y130050D01*
X555094Y35561D02*
Y130050D01*
X350370Y67057D02*
X598401D01*
X350370Y98553D02*
X598401D01*
X653519Y200916D02*
X818874D01*
X259819Y35561D02*
Y98553D01*
X110212D02*
X350370D01*
X110212Y67057D02*
X350370D01*
X677140Y145798D02*
G03X677140I-11810D01*
G01X669267D02*
G03X669267I-3937D01*
G01X116118Y178607D02*
Y169420D01*
X125345Y174670D02*
Y175107D01*
X125345D02*
X125027Y175545D01*
X124708*
X124708D02*
X124390Y175107D01*
X124390D02*
X124072Y174232D01*
X124072D02*
X123436Y172045D01*
X122799Y170732*
X122799D02*
X122163Y169857D01*
X122163D02*
X121527Y169420D01*
X120254*
X119618Y169857*
X119618D02*
X119299Y170295D01*
X119299D02*
X118981Y171170D01*
X118981D02*
Y172045D01*
X118981D02*
X119299Y172920D01*
X119299D02*
X119618Y173357D01*
X119618D02*
X121845Y175107D01*
X121845D02*
X122163Y175545D01*
X122481Y176420*
X122481D02*
Y177295D01*
X122481D02*
X122163Y178170D01*
X121527Y178607*
X121527D02*
X120890Y178170D01*
X120890D02*
X120572Y177295D01*
X120572D02*
Y176420D01*
X120572D02*
X120890Y175107D01*
X120890D02*
X121527Y173795D01*
X123118Y170732*
X123118D02*
X123754Y169857D01*
X123754D02*
X124390Y169420D01*
X124390D02*
X125027D01*
X125345Y169857*
X125345D02*
Y170295D01*
X128208Y178607D02*
Y169420D01*
Y178607D02*
X131072D01*
X131072D02*
X132027Y178170D01*
X132345Y177732*
X132345D02*
X132663Y176857D01*
X132663D02*
Y175545D01*
X132345Y174670*
X132027Y174232*
X132027D02*
X131072Y173795D01*
X131072D02*
X128208D01*
X139981Y177295D02*
X139345Y178170D01*
X138390Y178607*
X138390D02*
X137118D01*
X137118D02*
X136163Y178170D01*
X135527Y177295*
Y176420*
X135845Y175545*
X136163Y175107*
X136163D02*
X136799Y174670D01*
X136799D02*
X138708Y173795D01*
X138708D02*
X139345Y173357D01*
X139345D02*
X139663Y172920D01*
X139981Y172045*
X139981D02*
Y170732D01*
X139981D02*
X139345Y169857D01*
X139345D02*
X138390Y169420D01*
X138390D02*
X137118D01*
X136163Y169857*
X136163D02*
X135527Y170732D01*
X151118Y178607D02*
X148572Y169420D01*
X151118Y178607D02*
X153663Y169420D01*
X149527Y172482D02*
X152708D01*
X156527Y178607D02*
Y169420D01*
Y178607D02*
X159390D01*
X159390D02*
X160345Y178170D01*
X160663Y177732*
X160663D02*
X160981Y176857D01*
X160981D02*
Y175545D01*
X160981D02*
X160663Y174670D01*
X160345Y174232*
X160345D02*
X159390Y173795D01*
X159390D02*
X156527D01*
X163845Y178607D02*
Y169420D01*
Y178607D02*
X166708D01*
X166708D02*
X167663Y178170D01*
X167981Y177732*
X167981D02*
X168299Y176857D01*
X168299D02*
Y175545D01*
X168299D02*
X167981Y174670D01*
X167981D02*
X167663Y174232D01*
X167663D02*
X166708Y173795D01*
X166708D02*
X163845D01*
X171163Y178607D02*
Y169420D01*
X174981*
X177845Y178607D02*
Y169420D01*
X185481Y176420D02*
X185163Y177295D01*
X184527Y178170*
X183890Y178607*
X183890D02*
X182618D01*
X182618D02*
X181981Y178170D01*
X181981D02*
X181345Y177295D01*
X181027Y176420*
X180708Y175107*
X180708D02*
Y172920D01*
X180708D02*
X181027Y171607D01*
X181027D02*
X181345Y170732D01*
X181345D02*
X181981Y169857D01*
X181981D02*
X182618Y169420D01*
X183890*
X183890D02*
X184527Y169857D01*
X184527D02*
X185163Y170732D01*
X185163D02*
X185481Y171607D01*
X190890Y178607D02*
X188345Y169420D01*
X190890Y178607D02*
X193436Y169420D01*
X189299Y172482D02*
X192481D01*
X198527Y178607D02*
Y169420D01*
X196299Y178607D02*
X200754D01*
X203618D02*
Y169420D01*
X208390Y178607D02*
X207754Y178170D01*
X207118Y177295*
X206799Y176420*
X206799D02*
X206481Y175107D01*
X206481D02*
Y172920D01*
X206481D02*
X206799Y171607D01*
X206799D02*
X207118Y170732D01*
X207118D02*
X207754Y169857D01*
X207754D02*
X208390Y169420D01*
X208390D02*
X209663D01*
X210299Y169857*
X210299D02*
X210936Y170732D01*
X210936D02*
X211254Y171607D01*
X211254D02*
X211572Y172920D01*
X211572D02*
Y175107D01*
X211572D02*
X211254Y176420D01*
X210936Y177295*
X210299Y178170*
X210299D02*
X209663Y178607D01*
X209663D02*
X208390D01*
X214436D02*
Y169420D01*
Y178607D02*
X218890Y169420D01*
Y178607D02*
Y169420D01*
X227481Y178607D02*
Y169420D01*
X227481D02*
X231299D01*
X236708Y178607D02*
X234163Y169420D01*
X236708Y178607D02*
X239254Y169420D01*
X235118Y172482D02*
X238299D01*
X242118Y178607D02*
Y169420D01*
Y178607D02*
X244981D01*
X244981D02*
X245936Y178170D01*
X246254Y177732*
X246254D02*
X246572Y176857D01*
X246572D02*
Y175982D01*
X246572D02*
X246254Y175107D01*
X246254D02*
X245936Y174670D01*
X244981Y174232*
X242118D02*
X244981D01*
X244981D02*
X245936Y173795D01*
X246254Y173357*
X246254D02*
X246572Y172482D01*
X246572D02*
Y171170D01*
X246572D02*
X246254Y170295D01*
X245936Y169857*
X245936D02*
X244981Y169420D01*
X244981D02*
X242118D01*
X249754Y170295D02*
X249436Y169857D01*
X249436D02*
X249754Y169420D01*
X250072Y169857*
X250072D02*
X249754Y170295D01*
X263756Y63121D02*
Y55246D01*
Y63121D02*
X265665D01*
X266483Y62746*
X267028Y61996*
X267028D02*
X267301Y61246D01*
X267574Y60121*
Y58246*
X267301Y57121*
X267028Y56371*
X267028D02*
X266483Y55621D01*
X265665Y55246*
X263756*
X272210Y63121D02*
X270028Y55246D01*
X272210Y63121D02*
X274392Y55246D01*
X270846Y57871D02*
X273574D01*
X278756Y63121D02*
Y55246D01*
X276846Y63121D02*
X280665D01*
X283119D02*
Y55246D01*
Y63121D02*
X286665D01*
X283119Y59371D02*
X285301D01*
X283119Y55246D02*
X286665D01*
X263756Y94617D02*
Y86742D01*
Y94617D02*
X265665D01*
X266483Y94242*
X267028Y93492*
X267028D02*
X267301Y92742D01*
X267574Y91617*
Y89742*
X267301Y88617*
X267028Y87867*
X267028D02*
X266483Y87117D01*
X265665Y86742*
X263756*
X272210Y94617D02*
X270028Y86742D01*
X272210Y94617D02*
X274392Y86742D01*
X270846Y89367D02*
X273574D01*
X278756Y94617D02*
Y86742D01*
X276846Y94617D02*
X280665D01*
X283119D02*
Y86742D01*
Y94617D02*
X286665D01*
X283119Y90867D02*
X285301D01*
X283119Y86742D02*
X286665D01*
X116331Y63121D02*
X114150Y55246D01*
X116331Y63121D02*
X118513Y55246D01*
X114968Y57871D02*
X117695D01*
X120968Y63121D02*
Y55246D01*
Y63121D02*
X123422D01*
X123422D02*
X124240Y62746D01*
X124240D02*
X124513Y62371D01*
X124513D02*
X124786Y61621D01*
Y60496*
X124513Y59746*
X124513D02*
X124240Y59371D01*
X124240D02*
X123422Y58996D01*
X123422D02*
X120968D01*
X127240Y63121D02*
Y55246D01*
Y63121D02*
X129695D01*
X130513Y62746*
X130513D02*
X130786Y62371D01*
X131059Y61621*
Y60496*
X130786Y59746*
X130513Y59371*
X130513D02*
X129695Y58996D01*
X127240*
X133513Y63121D02*
Y55246D01*
Y63121D02*
X135968D01*
X136786Y62746*
X137059Y62371*
X137331Y61621*
X137331D02*
Y60871D01*
X137331D02*
X137059Y60121D01*
X136786Y59746*
X135968Y59371*
X133513*
X135422D02*
X137331Y55246D01*
X141422Y63121D02*
X140877Y62746D01*
X140331Y61996*
X140331D02*
X140059Y61246D01*
X139786Y60121*
Y58246*
X140059Y57121*
X140331Y56371*
X140331D02*
X140877Y55621D01*
X141422Y55246*
X141422D02*
X142513D01*
X142513D02*
X143059Y55621D01*
X143604Y56371*
X143604D02*
X143877Y57121D01*
X144150Y58246*
Y60121*
X143877Y61246*
X143604Y61996*
X143604D02*
X143059Y62746D01*
X142513Y63121*
X142513D02*
X141422D01*
X146604D02*
X148786Y55246D01*
X150968Y63121D02*
X148786Y55246D01*
X153422Y63121D02*
Y55246D01*
Y63121D02*
X156968D01*
X153422Y59371D02*
X155604D01*
X153422Y55246D02*
X156968D01*
X159422Y63121D02*
Y55246D01*
Y63121D02*
X161331D01*
X161331D02*
X162150Y62746D01*
X162695Y61996*
X162968Y61246*
X163240Y60121*
X163240D02*
Y58246D01*
X163240D02*
X162968Y57121D01*
X162695Y56371*
X162150Y55621*
X161331Y55246*
X161331D02*
X159422D01*
X114150Y94617D02*
Y86742D01*
Y94617D02*
X116059D01*
X116877Y94242*
X117422Y93492*
X117422D02*
X117695Y92742D01*
X117968Y91617*
Y89742*
X117695Y88617*
X117422Y87867*
X117422D02*
X116877Y87117D01*
X116059Y86742*
X114150*
X120422Y94617D02*
Y86742D01*
Y94617D02*
X122877D01*
X123695Y94242*
X123968Y93867*
X124240Y93117*
X124240D02*
Y92367D01*
X124240D02*
X123968Y91617D01*
X123695Y91242*
X122877Y90867*
X120422*
X122331D02*
X124240Y86742D01*
X128877Y94617D02*
X126695Y86742D01*
X128877Y94617D02*
X131059Y86742D01*
X127513Y89367D02*
X130240D01*
X133513Y94617D02*
X134877Y86742D01*
X136240Y94617D02*
X134877Y86742D01*
X136240Y94617D02*
X137604Y86742D01*
X138968Y94617D02*
X137604Y86742D01*
X141422Y94617D02*
Y86742D01*
Y94617D02*
X145240Y86742D01*
Y94617D02*
Y86742D01*
X261476Y177519D02*
X259295Y169644D01*
X261476Y177519D02*
X263658Y169644D01*
X260113Y172269D02*
X262840D01*
X270204Y175644D02*
X269931Y176394D01*
X269385Y177144*
X269385D02*
X268840Y177519D01*
X267749*
X267749D02*
X267204Y177144D01*
X266658Y176394*
X266658D02*
X266385Y175644D01*
X266385D02*
X266113Y174519D01*
Y172644*
X266385Y171519*
X266385D02*
X266658Y170769D01*
X266658D02*
X267204Y170019D01*
X267749Y169644*
X267749D02*
X268840D01*
X269385Y170019*
X269385D02*
X269931Y170769D01*
X270204Y171519*
Y172644*
X268840D02*
X270204D01*
X272658Y177519D02*
Y169644D01*
Y177519D02*
X275113D01*
X275931Y177144*
X276204Y176769*
X276476Y176019*
X276476D02*
Y175269D01*
X276476D02*
X276204Y174519D01*
X275931Y174144*
X275113Y173769*
X272658*
X274567D02*
X276476Y169644D01*
X281113Y177519D02*
X278931Y169644D01*
X281113Y177519D02*
X283295Y169644D01*
X279749Y172269D02*
X282476D01*
X287658Y177519D02*
Y169644D01*
X285749Y177519D02*
X289567D01*
X292022D02*
Y169644D01*
Y177519D02*
X295567D01*
X292022Y173769D02*
X294204D01*
X292022Y169644D02*
X295567D01*
X302931Y177519D02*
Y169644D01*
Y177519D02*
X305385D01*
X305385D02*
X306204Y177144D01*
X306476Y176769*
X306476D02*
X306749Y176019D01*
X306749D02*
Y175269D01*
X306749D02*
X306476Y174519D01*
X306476D02*
X306204Y174144D01*
X305385Y173769*
X302931D02*
X305385D01*
X305385D02*
X306204Y173394D01*
X306476Y173019*
X306476D02*
X306749Y172269D01*
X306749D02*
Y171144D01*
X306749D02*
X306476Y170394D01*
X306476D02*
X306204Y170019D01*
X305385Y169644*
X305385D02*
X302931D01*
X309476Y170394D02*
X309204Y170019D01*
X309476Y169644*
X309476D02*
X309749Y170019D01*
X309749D02*
X309476Y170394D01*
X317113Y177519D02*
Y169644D01*
X321476Y177519D02*
Y169644D01*
X319567Y177519D02*
X323385D01*
X328022D02*
X325840Y169644D01*
X328022Y177519D02*
X330204Y169644D01*
X326658Y172269D02*
X329385D01*
X332658Y177519D02*
Y169644D01*
X332658D02*
X335931D01*
X338385Y177519D02*
X340567Y173769D01*
X340567D02*
Y169644D01*
X342749Y177519D02*
X340567Y173769D01*
G54D14*
X110212Y35561D02*
Y1165483D01*
X818874*
Y35561*
X110212*
Y236349*
X818874*
X110212Y181231D02*
X350370D01*
X110212Y165483D02*
X350370D01*
Y35561D02*
Y236349D01*
Y165483D02*
X653519D01*
Y236349*
Y165483D02*
X818874D01*
X598401Y130050D02*
X818874D01*
X767693D02*
Y165483D01*
X598401D02*
Y35561D01*
X681078Y130050D02*
Y165483D01*
X350370Y130050D02*
X598401D01*
Y86742D02*
X818874D01*
G54D15*
X401315Y847254D02*
X409315Y855254D01*
X401315D02*
X409315Y847254D01*
X401315Y857254D02*
X409315Y865254D01*
X401315D02*
X409315Y857254D01*
X401315Y712254D02*
X409315Y720254D01*
X401315D02*
X409315Y712254D01*
X401315Y722254D02*
X409315Y730254D01*
X401315D02*
X409315Y722254D01*
X530315Y744596D02*
X534315Y748596D01*
X534315D02*
X530315Y752596D01*
X530315D02*
X526315Y748596D01*
X526315D02*
X530315Y744596D01*
Y748596D02*
Y752596D01*
Y724911D02*
X534315Y728911D01*
X530315Y732911*
X526315Y728911*
X530315Y724911*
Y728911D02*
Y732911D01*
X288815Y882254D02*
X296815Y890254D01*
X288815D02*
X296815Y882254D01*
X298815D02*
X306815Y890254D01*
X298815D02*
X306815Y882254D01*
X288815Y872254D02*
X296815Y880254D01*
X288815D02*
X296815Y872254D01*
X298815D02*
X306815Y880254D01*
X298815D02*
X306815Y872254D01*
X288815Y862254D02*
X296815Y870254D01*
X288815D02*
X296815Y862254D01*
X298815D02*
X306815Y870254D01*
X298815D02*
X306815Y862254D01*
X288815Y852254D02*
X296815Y860254D01*
X288815D02*
X296815Y852254D01*
X298815D02*
X306815Y860254D01*
X298815D02*
X306815Y852254D01*
X288815Y842254D02*
X296815Y850254D01*
X288815D02*
X296815Y842254D01*
X298815D02*
X306815Y850254D01*
X298815D02*
X306815Y842254D01*
X288815Y832254D02*
X296815Y840254D01*
X288815D02*
X296815Y832254D01*
X298815D02*
X306815Y840254D01*
X298815D02*
X306815Y832254D01*
X288815Y822254D02*
X296815Y830254D01*
X288815D02*
X296815Y822254D01*
X298815D02*
X306815Y830254D01*
X298815D02*
X306815Y822254D01*
X288815Y812254D02*
X296815Y820254D01*
X288815D02*
X296815Y812254D01*
X298815D02*
X306815Y820254D01*
X298815D02*
X306815Y812254D01*
X288815Y802254D02*
X296815Y810254D01*
X288815D02*
X296815Y802254D01*
X298815D02*
X306815Y810254D01*
X298815D02*
X306815Y802254D01*
X288815Y792254D02*
X296815Y800254D01*
X288815D02*
X296815Y792254D01*
X298815D02*
X306815Y800254D01*
X298815D02*
X306815Y792254D01*
X288815Y782254D02*
X296815Y790254D01*
X288815D02*
X296815Y782254D01*
X298815D02*
X306815Y790254D01*
X298815D02*
X306815Y782254D01*
X288815Y772254D02*
X296815Y780254D01*
X288815D02*
X296815Y772254D01*
X298815D02*
X306815Y780254D01*
X298815D02*
X306815Y772254D01*
X288815Y762254D02*
X296815Y770254D01*
X288815D02*
X296815Y762254D01*
X298815D02*
X306815Y770254D01*
X298815D02*
X306815Y762254D01*
X288815Y752254D02*
X296815Y760254D01*
X288815D02*
X296815Y752254D01*
X298815D02*
X306815Y760254D01*
X298815D02*
X306815Y752254D01*
X288815Y742254D02*
X296815Y750254D01*
X288815D02*
X296815Y742254D01*
X298815D02*
X306815Y750254D01*
X298815D02*
X306815Y742254D01*
X288815Y732254D02*
X296815Y740254D01*
X288815D02*
X296815Y732254D01*
X298815D02*
X306815Y740254D01*
X298815D02*
X306815Y732254D01*
X288815Y722254D02*
X296815Y730254D01*
X288815D02*
X296815Y722254D01*
X298815D02*
X306815Y730254D01*
X298815D02*
X306815Y722254D01*
X402972Y884754D02*
X406972Y888754D01*
X402972Y892754*
X398972Y888754*
X402972Y884754*
Y888754D02*
Y892754D01*
X422657Y884754D02*
X426657Y888754D01*
X426657D02*
X422657Y892754D01*
X422657D02*
X418657Y888754D01*
X418657D02*
X422657Y884754D01*
Y888754D02*
Y892754D01*
X530315Y844596D02*
X534315Y848596D01*
X534315D02*
X530315Y852596D01*
X530315D02*
X526315Y848596D01*
X526315D02*
X530315Y844596D01*
Y848596D02*
Y852596D01*
Y824911D02*
X534315Y828911D01*
X530315Y832911*
X526315Y828911*
X530315Y824911*
Y828911D02*
Y832911D01*
X480472Y884754D02*
X484472Y888754D01*
X480472Y892754*
X476472Y888754*
X480472Y884754*
Y888754D02*
Y892754D01*
X500157Y884754D02*
X504157Y888754D01*
X504157D02*
X500157Y892754D01*
X500157D02*
X496157Y888754D01*
X496157D02*
X500157Y884754D01*
Y888754D02*
Y892754D01*
X521315Y899754D02*
X529315Y907754D01*
X521315D02*
X529315Y899754D01*
X521315Y859754D02*
X529315Y867754D01*
X521315D02*
X529315Y859754D01*
X377315Y799754D02*
X385315Y807754D01*
X377315D02*
X385315Y799754D01*
X387315D02*
X395315Y807754D01*
X387315D02*
X395315Y799754D01*
X401315Y832254D02*
X409315Y840254D01*
X401315D02*
X409315Y832254D01*
X401315Y812254D02*
X409315Y820254D01*
X401315D02*
X409315Y812254D01*
X401315Y732254D02*
X409315Y740254D01*
X401315D02*
X409315Y732254D01*
X401315Y752254D02*
X409315Y760254D01*
X401315D02*
X409315Y752254D01*
X371815Y812254D02*
X379815Y820254D01*
X371815D02*
X379815Y812254D01*
X391815D02*
X399815Y820254D01*
X391815D02*
X399815Y812254D01*
X371815Y774754D02*
X379815Y782754D01*
X371815D02*
X379815Y774754D01*
X391815D02*
X399815Y782754D01*
X391815D02*
X399815Y774754D01*
X346315Y707754D02*
X354315Y715754D01*
X346315D02*
X354315Y707754D01*
X346315Y727754D02*
X354315Y735754D01*
X346315D02*
X354315Y727754D01*
X376315Y892254D02*
X384315Y900254D01*
X376315D02*
X384315Y892254D01*
X376315Y882254D02*
X384315Y890254D01*
X376315D02*
X384315Y882254D01*
X376315Y872254D02*
X384315Y880254D01*
X376315D02*
X384315Y872254D01*
X377315Y787254D02*
X385315Y795254D01*
X377315D02*
X385315Y787254D01*
X387315D02*
X395315Y795254D01*
X387315D02*
X395315Y787254D01*
X391315Y847175D02*
X399315Y855175D01*
X391315D02*
X399315Y847175D01*
X381315Y837332D02*
X389315Y845332D01*
X381315D02*
X389315Y837332D01*
X371315Y847175D02*
X379315Y855175D01*
X371315D02*
X379315Y847175D01*
X391315Y749675D02*
X399315Y757675D01*
X391315D02*
X399315Y749675D01*
X381315Y739832D02*
X389315Y747832D01*
X381315D02*
X389315Y739832D01*
X371315Y749675D02*
X379315Y757675D01*
X371315D02*
X379315Y749675D01*
X336315Y724675D02*
X344315Y732675D01*
X336315D02*
X344315Y724675D01*
X326315Y714832D02*
X334315Y722832D01*
X326315D02*
X334315Y714832D01*
X316315Y724675D02*
X324315Y732675D01*
X316315D02*
X324315Y724675D01*
X336315Y869675D02*
X344315Y877675D01*
X336315D02*
X344315Y869675D01*
X326315Y859832D02*
X334315Y867832D01*
X326315D02*
X334315Y859832D01*
X316315Y869675D02*
X324315Y877675D01*
X316315D02*
X324315Y869675D01*
X363815D02*
X371815Y877675D01*
X363815D02*
X371815Y869675D01*
X353815Y859832D02*
X361815Y867832D01*
X353815D02*
X361815Y859832D01*
X343815Y869675D02*
X351815Y877675D01*
X343815D02*
X351815Y869675D01*
X363315Y736254D02*
X371315Y744254D01*
X363315D02*
X371315Y736254D01*
X323315D02*
X331315Y744254D01*
X323315D02*
X331315Y736254D01*
X453815Y889754D02*
X461815Y897754D01*
X453815D02*
X461815Y889754D01*
X453815Y879754D02*
X461815Y887754D01*
X453815D02*
X461815Y879754D01*
X448815Y827254D02*
X456815Y835254D01*
X448815D02*
X456815Y827254D01*
X448815Y837254D02*
X456815Y845254D01*
X448815D02*
X456815Y837254D01*
X531315Y784754D02*
X539315Y792754D01*
X531315D02*
X539315Y784754D01*
X511315D02*
X519315Y792754D01*
X511315D02*
X519315Y784754D01*
X536315Y894754D02*
X544315Y902754D01*
X536315D02*
X544315Y894754D01*
X536315Y874754D02*
X544315Y882754D01*
X536315D02*
X544315Y874754D01*
X506315Y707254D02*
X514315Y715254D01*
X506315D02*
X514315Y707254D01*
X481315D02*
X489315Y715254D01*
X481315D02*
X489315Y707254D01*
X456315Y862254D02*
X464315Y870254D01*
X456315D02*
X464315Y862254D01*
X363815Y884754D02*
X371815Y892754D01*
X363815D02*
X371815Y884754D01*
X318815Y879754D02*
X326815Y887754D01*
X318815D02*
X326815Y879754D01*
X423815Y742254D02*
X431815Y750254D01*
X423815D02*
X431815Y742254D01*
X453815D02*
X461815Y750254D01*
X453815D02*
X461815Y742254D01*
X483815Y774754D02*
X491815Y782754D01*
X483815D02*
X491815Y774754D01*
X483815Y794754D02*
X491815Y802754D01*
X483815D02*
X491815Y794754D01*
X416315Y742254D02*
X424315Y750254D01*
X416315D02*
X424315Y742254D01*
X771630Y161546D02*
Y153671D01*
Y161546D02*
X774084D01*
X774084D02*
X774902Y161171D01*
X774902D02*
X775175Y160796D01*
X775448Y160046*
Y159296*
X775175Y158546*
X774902Y158171*
X774902D02*
X774084Y157796D01*
X774084D02*
X771630D01*
X773539D02*
X775448Y153671D01*
X777902Y161546D02*
Y153671D01*
Y161546D02*
X781448D01*
X777902Y157796D02*
X780084D01*
X777902Y153671D02*
X781448D01*
X783902Y161546D02*
X786084Y153671D01*
X788266Y161546D02*
X786084Y153671D01*
X688834Y160421D02*
X688288Y161171D01*
X688288D02*
X687470Y161546D01*
X687470D02*
X686379D01*
X686379D02*
X685561Y161171D01*
X685016Y160421*
Y159671*
X685288Y158921*
X685288D02*
X685561Y158546D01*
X686106Y158171*
X686106D02*
X687743Y157421D01*
X688288Y157046*
X688288D02*
X688561Y156671D01*
X688834Y155921*
Y154796*
X688288Y154046*
X688288D02*
X687470Y153671D01*
X687470D02*
X686379D01*
X686379D02*
X685561Y154046D01*
X685016Y154796*
X695379Y159671D02*
X695106Y160421D01*
X695106D02*
X694561Y161171D01*
X694016Y161546*
X692925*
X692379Y161171*
X692379D02*
X691834Y160421D01*
X691561Y159671*
X691288Y158546*
X691288D02*
Y156671D01*
X691288D02*
X691561Y155546D01*
X691834Y154796*
X692379Y154046*
X692379D02*
X692925Y153671D01*
X694016*
X694561Y154046*
X695106Y154796*
X695106D02*
X695379Y155546D01*
X700016Y161546D02*
X697834Y153671D01*
X700016Y161546D02*
X702197Y153671D01*
X698652Y156296D02*
X701379D01*
X704652Y161546D02*
Y153671D01*
X707925*
X710379Y161546D02*
Y153671D01*
Y161546D02*
X713925D01*
X710379Y157796D02*
X712561D01*
X710379Y153671D02*
X713925D01*
X661547Y195104D02*
X661275Y195854D01*
X660729Y196604*
X660729D02*
X660184Y196979D01*
X659093*
X658547Y196604*
X658547D02*
X658002Y195854D01*
X657729Y195104*
X657729D02*
X657457Y193979D01*
Y192104*
X657729Y190979*
X657729D02*
X658002Y190229D01*
X658547Y189479*
X658547D02*
X659093Y189104D01*
X660184*
X660729Y189479*
X660729D02*
X661275Y190229D01*
X661547Y190979*
X661547D02*
Y192104D01*
X660184D02*
X661547D01*
X664002Y196979D02*
Y189104D01*
Y196979D02*
X666457D01*
X667275Y196604*
X667547Y196229*
X667547D02*
X667820Y195479D01*
X667820D02*
Y194729D01*
X667820D02*
X667547Y193979D01*
X667547D02*
X667275Y193604D01*
X666457Y193229*
X664002*
X665911D02*
X667820Y189104D01*
X671911Y196979D02*
X671366Y196604D01*
X670820Y195854*
X670820D02*
X670547Y195104D01*
X670547D02*
X670275Y193979D01*
Y192104*
X670547Y190979*
X670547D02*
X670820Y190229D01*
X670820D02*
X671366Y189479D01*
X671911Y189104*
X671911D02*
X673002D01*
X673547Y189479*
X673547D02*
X674093Y190229D01*
X674366Y190979*
X674638Y192104*
X674638D02*
Y193979D01*
X674638D02*
X674366Y195104D01*
X674093Y195854*
X673547Y196604*
X673547D02*
X673002Y196979D01*
X671911*
X677093D02*
Y191354D01*
X677366Y190229*
X677911Y189479*
X677911D02*
X678729Y189104D01*
X678729D02*
X679275D01*
X680093Y189479*
X680638Y190229*
X680638D02*
X680911Y191354D01*
X680911D02*
Y196979D01*
X683366D02*
Y189104D01*
Y196979D02*
X685820D01*
X685820D02*
X686638Y196604D01*
X686638D02*
X686911Y196229D01*
X686911D02*
X687184Y195479D01*
Y194354*
X686911Y193604*
X686911D02*
X686638Y193229D01*
X686638D02*
X685820Y192854D01*
X685820D02*
X683366D01*
X661275Y231287D02*
X660729Y232037D01*
X660729D02*
X659911Y232412D01*
X659911D02*
X658820D01*
X658820D02*
X658002Y232037D01*
X657457Y231287*
Y230537*
X657729Y229787*
X657729D02*
X658002Y229412D01*
X658547Y229037*
X658547D02*
X660184Y228287D01*
X660729Y227912*
X660729D02*
X661002Y227537D01*
X661275Y226787*
Y225662*
X660729Y224912*
X660729D02*
X659911Y224537D01*
X659911D02*
X658820D01*
X658820D02*
X658002Y224912D01*
X657457Y225662*
X663729Y232412D02*
X665911Y228662D01*
X665911D02*
Y224537D01*
X668093Y232412D02*
X665911Y228662D01*
X670547Y232412D02*
Y224537D01*
Y232412D02*
X672729Y224537D01*
X674911Y232412D02*
X672729Y224537D01*
X674911Y232412D02*
Y224537D01*
X677366Y232412D02*
Y224537D01*
Y232412D02*
X679820D01*
X679820D02*
X680638Y232037D01*
X680638D02*
X680911Y231662D01*
X680911D02*
X681184Y230912D01*
Y230162*
X680911Y229412*
X680911D02*
X680638Y229037D01*
X680638D02*
X679820Y228662D01*
X677366D02*
X679820D01*
X679820D02*
X680638Y228287D01*
X680638D02*
X680911Y227912D01*
X680911D02*
X681184Y227162D01*
Y226037*
X680911Y225287*
X680911D02*
X680638Y224912D01*
X680638D02*
X679820Y224537D01*
X679820D02*
X677366D01*
X685275Y232412D02*
X684729Y232037D01*
X684729D02*
X684184Y231287D01*
X683911Y230537*
X683911D02*
X683638Y229412D01*
X683638D02*
Y227537D01*
X683638D02*
X683911Y226412D01*
X683911D02*
X684184Y225662D01*
X684729Y224912*
X684729D02*
X685275Y224537D01*
X686366*
X686911Y224912*
X686911D02*
X687457Y225662D01*
X687729Y226412*
X687729D02*
X688002Y227537D01*
Y229412*
X687729Y230537*
X687729D02*
X687457Y231287D01*
X686911Y232037*
X686911D02*
X686366Y232412D01*
X685275*
X690457D02*
Y224537D01*
X693729*
X602339Y161546D02*
Y153671D01*
X608611Y160421D02*
X608066Y161171D01*
X607248Y161546*
X606157*
X605339Y161171*
X604793Y160421*
X604793D02*
Y159671D01*
X604793D02*
X605066Y158921D01*
X605339Y158546*
X605884Y158171*
X607520Y157421*
X607520D02*
X608066Y157046D01*
X608339Y156671*
X608611Y155921*
X608611D02*
Y154796D01*
X608611D02*
X608066Y154046D01*
X607248Y153671*
X606157*
X605339Y154046*
X604793Y154796*
X612702Y161546D02*
X612157Y161171D01*
X611611Y160421*
X611611D02*
X611339Y159671D01*
X611066Y158546*
Y156671*
X611339Y155546*
X611611Y154796*
X611611D02*
X612157Y154046D01*
X612702Y153671*
X612702D02*
X613793D01*
X613793D02*
X614339Y154046D01*
X614884Y154796*
X615157Y155546*
X615429Y156671*
X615429D02*
Y158546D01*
X615429D02*
X615157Y159671D01*
X614884Y160421*
X614339Y161171*
X613793Y161546*
X613793D02*
X612702D01*
X602339Y126113D02*
Y118238D01*
Y126113D02*
X604520Y118238D01*
X606702Y126113D02*
X604520Y118238D01*
X606702Y126113D02*
Y118238D01*
X611339Y126113D02*
X609157Y118238D01*
X611339Y126113D02*
X613520Y118238D01*
X609975Y120863D02*
X612702D01*
X617884Y126113D02*
Y118238D01*
X615975Y126113D02*
X619793D01*
X622248D02*
Y118238D01*
Y126113D02*
X625793D01*
X622248Y122363D02*
X624429D01*
X622248Y118238D02*
X625793D01*
X628248Y126113D02*
Y118238D01*
Y126113D02*
X630702D01*
X630702D02*
X631520Y125738D01*
X631520D02*
X631793Y125363D01*
X631793D02*
X632066Y124613D01*
Y123863*
X631793Y123113*
X631793D02*
X631520Y122738D01*
X631520D02*
X630702Y122363D01*
X630702D02*
X628248D01*
X630157D02*
X632066Y118238D01*
X634520Y126113D02*
Y118238D01*
X639157Y126113D02*
X636975Y118238D01*
X639157Y126113D02*
X641339Y118238D01*
X637793Y120863D02*
X640520D01*
X643793Y126113D02*
Y118238D01*
X643793D02*
X647066D01*
X604248Y82806D02*
Y74931D01*
X602339Y82806D02*
X606157D01*
X608611D02*
Y74931D01*
Y82806D02*
X611066D01*
X611884Y82431*
X612157Y82056*
X612429Y81306*
X612429D02*
Y80556D01*
X612429D02*
X612157Y79806D01*
X611884Y79431*
X611066Y79056*
X608611*
X610520D02*
X612429Y74931D01*
X614884Y82806D02*
Y74931D01*
Y82806D02*
X618429D01*
X614884Y79056D02*
X617066D01*
X614884Y74931D02*
X618429D01*
X623066Y82806D02*
X620884Y74931D01*
X623066Y82806D02*
X625248Y74931D01*
X621702Y77556D02*
X624429D01*
X629611Y82806D02*
Y74931D01*
X627702Y82806D02*
X631520D01*
X633975D02*
Y74931D01*
Y82806D02*
X636157Y74931D01*
X638339Y82806D02*
X636157Y74931D01*
X638339Y82806D02*
Y74931D01*
X640793Y82806D02*
Y74931D01*
Y82806D02*
X644339D01*
X640793Y79056D02*
X642975D01*
X640793Y74931D02*
X644339D01*
X646793Y82806D02*
Y74931D01*
Y82806D02*
X650611Y74931D01*
Y82806D02*
Y74931D01*
X654975Y82806D02*
Y74931D01*
X653066Y82806D02*
X656884D01*
X666429D02*
X664248Y74931D01*
X666429Y82806D02*
X668611Y74931D01*
X665066Y77556D02*
X667793D01*
X671066Y82806D02*
Y74931D01*
Y82806D02*
X674884Y74931D01*
Y82806D02*
Y74931D01*
X677339Y82806D02*
Y74931D01*
Y82806D02*
X679248D01*
X680066Y82431*
X680611Y81681*
X680611D02*
X680884Y80931D01*
X681157Y79806*
Y77931*
X680884Y76806*
X680611Y76056*
X680611D02*
X680066Y75306D01*
X679248Y74931*
X677339*
X692339Y81681D02*
X691793Y82431D01*
X691793D02*
X690975Y82806D01*
X689884*
X689066Y82431*
X688520Y81681*
X688520D02*
Y80931D01*
X688520D02*
X688793Y80181D01*
X688793D02*
X689066Y79806D01*
X689611Y79431*
X689611D02*
X691248Y78681D01*
X691793Y78306*
X691793D02*
X692066Y77931D01*
X692339Y77181*
Y76056*
X691793Y75306*
X691793D02*
X690975Y74931D01*
X689884*
X689066Y75306*
X688520Y76056*
X694793Y82806D02*
Y77181D01*
X694793D02*
X695066Y76056D01*
X695611Y75306*
X695611D02*
X696429Y74931D01*
X696429D02*
X696975D01*
X697793Y75306*
X697793D02*
X698339Y76056D01*
X698611Y77181*
X698611D02*
Y82806D01*
X701066D02*
Y74931D01*
Y82806D02*
X703520D01*
X703520D02*
X704339Y82431D01*
X704611Y82056*
X704611D02*
X704884Y81306D01*
Y80556*
X704611Y79806*
X704611D02*
X704339Y79431D01*
X703520Y79056*
X703520D02*
X701066D01*
X702975D02*
X704884Y74931D01*
X707339Y82806D02*
Y74931D01*
Y82806D02*
X710884D01*
X707339Y79056D02*
X709520D01*
X715520Y82806D02*
X713339Y74931D01*
X715520Y82806D02*
X717702Y74931D01*
X714157Y77556D02*
X716884D01*
X724248Y80931D02*
X723975Y81681D01*
X723429Y82431*
X723429D02*
X722884Y82806D01*
X721793*
X721793D02*
X721248Y82431D01*
X720702Y81681*
X720702D02*
X720429Y80931D01*
X720429D02*
X720157Y79806D01*
Y77931*
X720429Y76806*
X720429D02*
X720702Y76056D01*
X720702D02*
X721248Y75306D01*
X721793Y74931*
X721793D02*
X722884D01*
X723429Y75306*
X723429D02*
X723975Y76056D01*
X724248Y76806*
X726702Y82806D02*
Y74931D01*
Y82806D02*
X730248D01*
X726702Y79056D02*
X728884D01*
X726702Y74931D02*
X730248D01*
X737611Y82806D02*
Y74931D01*
Y82806D02*
X741157D01*
X737611Y79056D02*
X739793D01*
X743611Y82806D02*
Y74931D01*
X746066Y82806D02*
Y74931D01*
Y82806D02*
X749884Y74931D01*
Y82806D02*
Y74931D01*
X752339Y82806D02*
Y74931D01*
X758611Y81681D02*
X758066Y82431D01*
X757248Y82806*
X756157*
X755339Y82431*
X754793Y81681*
X754793D02*
Y80931D01*
X754793D02*
X755066Y80181D01*
X755339Y79806*
X755884Y79431*
X757520Y78681*
X757520D02*
X758066Y78306D01*
X758339Y77931*
X758611Y77181*
X758611D02*
Y76056D01*
X758611D02*
X758066Y75306D01*
X757248Y74931*
X756157*
X755339Y75306*
X754793Y76056*
X761066Y82806D02*
Y74931D01*
X764884Y82806D02*
Y74931D01*
X761066Y79056D02*
X764884D01*
X767339Y82806D02*
Y74931D01*
X769793Y82806D02*
Y74931D01*
Y82806D02*
X773611Y74931D01*
Y82806D02*
Y74931D01*
X780157Y80931D02*
X779884Y81681D01*
X779339Y82431*
X778793Y82806*
X778793D02*
X777702D01*
X777702D02*
X777157Y82431D01*
X776611Y81681*
X776611D02*
X776339Y80931D01*
X776066Y79806*
Y77931*
X776339Y76806*
X776611Y76056*
X776611D02*
X777157Y75306D01*
X777702Y74931*
X777702D02*
X778793D01*
X778793D02*
X779339Y75306D01*
X779884Y76056*
X780157Y76806*
Y77931*
X778793D02*
X780157D01*
X564937Y46810D02*
X569846D01*
X567391Y56091D02*
Y49341D01*
X564937Y52716D02*
X569846D01*
X572846Y57216D02*
X575846D01*
X574209Y54216*
X574209D02*
X575027D01*
X575027D02*
X575573Y53841D01*
X575846Y53466*
X576118Y52341*
X576118D02*
Y51591D01*
X576118D02*
X575846Y50466D01*
X575300Y49716*
X575300D02*
X574482Y49341D01*
X573664*
X572846Y49716*
X572573Y50091*
X572300Y50841*
X580209Y57216D02*
X579391Y56841D01*
X579391D02*
X578846Y55716D01*
X578573Y53841*
Y52716*
X578846Y50841*
X579391Y49716*
X579391D02*
X580209Y49341D01*
X580209D02*
X580755D01*
X581573Y49716*
X582118Y50841*
X582118D02*
X582391Y52716D01*
X582391D02*
Y53841D01*
X582391D02*
X582118Y55716D01*
X582118D02*
X581573Y56841D01*
X580755Y57216*
X580209*
X584846D02*
Y54591D01*
X569360Y87587D02*
Y80837D01*
X566906Y84212D02*
X571815D01*
X574269Y87212D02*
X574815Y87587D01*
X575633Y88712*
Y80837*
X566906Y78306D02*
X571815D01*
X566906Y112334D02*
Y104459D01*
X570178*
X572633Y112334D02*
Y104459D01*
Y112334D02*
X576178D01*
X572633Y108584D02*
X574815D01*
X572633Y104459D02*
X576178D01*
X582451Y111209D02*
X581906Y111959D01*
X581087Y112334*
X581087D02*
X579996D01*
X579996D02*
X579178Y111959D01*
X579178D02*
X578633Y111209D01*
Y110459*
X578906Y109709*
X579178Y109334*
X579178D02*
X579724Y108959D01*
X581360Y108209*
X581360D02*
X581906Y107834D01*
X582178Y107459*
X582178D02*
X582451Y106709D01*
Y105584*
X581906Y104834*
X581087Y104459*
X581087D02*
X579996D01*
X579996D02*
X579178Y104834D01*
X579178D02*
X578633Y105584D01*
X585178Y105209D02*
X584906Y104834D01*
X585178Y104459*
X585178D02*
X585451Y104834D01*
X585178Y105209*
X569087Y126113D02*
X566906Y118238D01*
X569087Y126113D02*
X571269Y118238D01*
X567724Y120863D02*
X570451D01*
X573724Y126113D02*
Y118238D01*
Y126113D02*
X577542Y118238D01*
Y126113D02*
Y118238D01*
X584087Y124238D02*
X583815Y124988D01*
X583269Y125738*
X583269D02*
X582724Y126113D01*
X581633*
X581087Y125738*
X581087D02*
X580542Y124988D01*
X580269Y124238*
X580269D02*
X579996Y123113D01*
X579996D02*
Y121238D01*
X579996D02*
X580269Y120113D01*
X580269D02*
X580542Y119363D01*
X581087Y118613*
X581087D02*
X581633Y118238D01*
X582724*
X583269Y118613*
X583269D02*
X583815Y119363D01*
X584087Y120113*
X584087D02*
Y121238D01*
X582724D02*
X584087D01*
X586815Y118988D02*
X586542Y118613D01*
X586815Y118238*
X587087Y118613*
X587087D02*
X586815Y118988D01*
X531958Y85618D02*
Y78868D01*
X529504Y82243D02*
X534413D01*
X538504Y86743D02*
X537685Y86368D01*
X537685D02*
X537140Y85243D01*
X536867Y83368*
X536867D02*
Y82243D01*
X536867D02*
X537140Y80368D01*
X537685Y79243*
X537685D02*
X538504Y78868D01*
X539049*
X539867Y79243*
X539867D02*
X540413Y80368D01*
X540685Y82243*
X540685D02*
Y83368D01*
X540685D02*
X540413Y85243D01*
X539867Y86368*
X539867D02*
X539049Y86743D01*
X538504*
X543413Y79618D02*
X543140Y79243D01*
X543413Y78868*
X543685Y79243*
X543685D02*
X543413Y79618D01*
X549685Y86743D02*
X546958D01*
X546958D02*
X546685Y83368D01*
X546685D02*
X546958Y83743D01*
X546958D02*
X547776Y84118D01*
X547776D02*
X548594D01*
X548594D02*
X549413Y83743D01*
X549958Y82993*
X549958D02*
X550231Y81868D01*
X549958Y81118*
X549958D02*
X549685Y79993D01*
X549685D02*
X549140Y79243D01*
X548322Y78868*
X547504*
X546685Y79243*
X546685D02*
X546413Y79618D01*
X546140Y80368*
X529504Y76338D02*
X534413D01*
X525567Y44842D02*
X530476D01*
X528021Y54122D02*
Y47372D01*
X525567Y50747D02*
X530476D01*
X534567Y55247D02*
X533748Y54872D01*
X533748D02*
X533203Y53747D01*
X532930Y51872*
X532930D02*
Y50747D01*
X532930D02*
X533203Y48872D01*
X533748Y47747*
X533748D02*
X534567Y47372D01*
X535112*
X535930Y47747*
X535930D02*
X536476Y48872D01*
X536748Y50747*
X536748D02*
Y51872D01*
X536748D02*
X536476Y53747D01*
X535930Y54872*
X535930D02*
X535112Y55247D01*
X534567*
X539476Y48122D02*
X539203Y47747D01*
X539476Y47372*
X539748Y47747*
X539748D02*
X539476Y48122D01*
X542476Y53372D02*
Y53747D01*
X542748Y54497*
X542748D02*
X543021Y54872D01*
X543021D02*
X543567Y55247D01*
X544657*
X544657D02*
X545203Y54872D01*
X545476Y54497*
X545748Y53747*
X545748D02*
Y52997D01*
X545748D02*
X545476Y52247D01*
X544930Y51122*
X544930D02*
X542203Y47372D01*
X546021*
X552021Y55247D02*
X549294D01*
X549021Y51872*
X549021D02*
X549294Y52247D01*
X550112Y52622*
X550930*
X550930D02*
X551748Y52247D01*
X551748D02*
X552294Y51497D01*
X552567Y50372*
X552294Y49622*
X552021Y48497*
X552021D02*
X551476Y47747D01*
X550657Y47372*
X550657D02*
X549839D01*
X549839D02*
X549021Y47747D01*
X549021D02*
X548748Y48122D01*
X548748D02*
X548476Y48872D01*
X492102Y44842D02*
X497011D01*
X494556Y54122D02*
Y47372D01*
X492102Y50747D02*
X497011D01*
X501102Y55247D02*
X500283Y54872D01*
X500283D02*
X499738Y53747D01*
X499465Y51872*
X499465D02*
Y50747D01*
X499465D02*
X499738Y48872D01*
X500283Y47747*
X500283D02*
X501102Y47372D01*
X501647*
X502465Y47747*
X502465D02*
X503011Y48872D01*
X503283Y50747*
X503283D02*
Y51872D01*
X503283D02*
X503011Y53747D01*
X502465Y54872*
X502465D02*
X501647Y55247D01*
X501102*
X506011Y48122D02*
X505738Y47747D01*
X506011Y47372*
X506283Y47747*
X506283D02*
X506011Y48122D01*
X508738Y53747D02*
X509283Y54122D01*
X509283D02*
X510102Y55247D01*
Y47372*
X516102Y55247D02*
X513374D01*
X513374D02*
X513102Y51872D01*
X513374Y52247*
X513374D02*
X514192Y52622D01*
X514192D02*
X515011D01*
X515829Y52247*
X516374Y51497*
X516374D02*
X516647Y50372D01*
X516374Y49622*
X516374D02*
X516102Y48497D01*
X515556Y47747*
X515556D02*
X514738Y47372D01*
X513920*
X513102Y47747*
X512829Y48122*
X512556Y48872*
X496039Y76338D02*
X500948D01*
X498493Y85618D02*
Y78868D01*
X496039Y82243D02*
X500948D01*
X505039Y86743D02*
X504220Y86368D01*
X504220D02*
X503675Y85243D01*
X503402Y83368*
X503402D02*
Y82243D01*
X503402D02*
X503675Y80368D01*
X504220Y79243*
X504220D02*
X505039Y78868D01*
X505584*
X506402Y79243*
X506402D02*
X506948Y80368D01*
X507220Y82243*
X507220D02*
Y83368D01*
X507220D02*
X506948Y85243D01*
X506402Y86368*
X506402D02*
X505584Y86743D01*
X505039*
X509948Y79618D02*
X509675Y79243D01*
X509948Y78868*
X510220Y79243*
X510220D02*
X509948Y79618D01*
X513220Y86743D02*
X516220D01*
X516220D02*
X514584Y83743D01*
X515402*
X515402D02*
X515948Y83368D01*
X516220Y82993*
X516220D02*
X516493Y81868D01*
X516493D02*
Y81118D01*
X516493D02*
X516220Y79993D01*
X516220D02*
X515675Y79243D01*
X514857Y78868*
X514039*
X513220Y79243*
X513220D02*
X512948Y79618D01*
X512675Y80368*
X529504Y111209D02*
X533867Y108209D01*
X533867D02*
X529504Y104834D01*
X535504Y110459D02*
Y110834D01*
X535776Y111584*
X535776D02*
X536049Y111959D01*
X536594Y112334*
X536594D02*
X537685D01*
X537685D02*
X538231Y111959D01*
X538504Y111584*
X538776Y110834*
X538776D02*
Y110084D01*
X538776D02*
X538504Y109334D01*
X537958Y108209*
X537958D02*
X535231Y104459D01*
X539049*
X543140Y112334D02*
X542322Y111959D01*
X541776Y110834*
X541776D02*
X541504Y108959D01*
Y107834*
X541776Y105959*
X541776D02*
X542322Y104834D01*
X543140Y104459*
X543685*
X543685D02*
X544504Y104834D01*
X545049Y105959*
X545322Y107834*
Y108959*
X545049Y110834*
X544504Y111959*
X543685Y112334*
X543685D02*
X543140D01*
X549413D02*
X548594Y111959D01*
X548594D02*
X548049Y110834D01*
X547776Y108959*
X547776D02*
Y107834D01*
X547776D02*
X548049Y105959D01*
X548594Y104834*
X548594D02*
X549413Y104459D01*
X549958*
X549958D02*
X550776Y104834D01*
X550776D02*
X551322Y105959D01*
X551594Y107834*
X551594D02*
Y108959D01*
X551594D02*
X551322Y110834D01*
X550776Y111959*
X550776D02*
X549958Y112334D01*
X549958D02*
X549413D01*
X498434Y111209D02*
X494071Y108209D01*
X498434Y104834*
X500071Y110459D02*
Y110834D01*
X500343Y111584*
X500343D02*
X500616Y111959D01*
X501161Y112334*
X501161D02*
X502252D01*
X502252D02*
X502798Y111959D01*
X503071Y111584*
X503343Y110834*
X503343D02*
Y110084D01*
X503343D02*
X503071Y109334D01*
X502525Y108209*
X502525D02*
X499798Y104459D01*
X503616*
X507707Y112334D02*
X506889Y111959D01*
X506343Y110834*
X506343D02*
X506071Y108959D01*
Y107834*
X506343Y105959*
X506343D02*
X506889Y104834D01*
X507707Y104459*
X508252*
X508252D02*
X509071Y104834D01*
X509616Y105959*
X509889Y107834*
Y108959*
X509616Y110834*
X509071Y111959*
X508252Y112334*
X508252D02*
X507707D01*
X513980D02*
X513161Y111959D01*
X513161D02*
X512616Y110834D01*
X512343Y108959*
X512343D02*
Y107834D01*
X512343D02*
X512616Y105959D01*
X513161Y104834*
X513161D02*
X513980Y104459D01*
X514525*
X514525D02*
X515343Y104834D01*
X515343D02*
X515889Y105959D01*
X516161Y107834*
X516161D02*
Y108959D01*
X516161D02*
X515889Y110834D01*
X515343Y111959*
X515343D02*
X514525Y112334D01*
X514525D02*
X513980D01*
X494071Y103897D02*
X498980D01*
X498008Y124988D02*
X502371Y121988D01*
X502371D02*
X498008Y118613D01*
X507280Y126113D02*
X504553D01*
X504280Y122738*
X504280D02*
X504553Y123113D01*
X505371Y123488*
X505371D02*
X506189D01*
X506189D02*
X507008Y123113D01*
X507553Y122363*
X507826Y121238*
X507553Y120488*
X507280Y119363*
X507280D02*
X506735Y118613D01*
X505917Y118238*
X505098*
X505098D02*
X504280Y118613D01*
X504280D02*
X504008Y118988D01*
X503735Y119738*
X511917Y126113D02*
X511098Y125738D01*
X511098D02*
X510553Y124613D01*
X510280Y122738*
X510280D02*
Y121613D01*
X510280D02*
X510553Y119738D01*
X511098Y118613*
X511098D02*
X511917Y118238D01*
X512462*
X512462D02*
X513280Y118613D01*
X513280D02*
X513826Y119738D01*
X514098Y121613*
X514098D02*
Y122738D01*
X514098D02*
X513826Y124613D01*
X513280Y125738*
X513280D02*
X512462Y126113D01*
X512462D02*
X511917D01*
X462575Y124988D02*
X466938Y121988D01*
X466938D02*
X462575Y118613D01*
X468302Y124613D02*
X468847Y124988D01*
X468847D02*
X469665Y126113D01*
X469665D02*
Y118238D01*
X473756Y126113D02*
X472938Y125738D01*
X472938D02*
X472393Y124613D01*
X472120Y122738*
Y121613*
X472393Y119738*
X472938Y118613*
X472938D02*
X473756Y118238D01*
X473756D02*
X474302D01*
X475120Y118613*
X475665Y119738*
X475665D02*
X475938Y121613D01*
X475938D02*
Y122738D01*
X475938D02*
X475665Y124613D01*
X475665D02*
X475120Y125738D01*
X474302Y126113*
X473756*
X464969Y111209D02*
X460606Y108209D01*
X464969Y104834*
X469878Y112334D02*
X467151D01*
X466878Y108959*
X466878D02*
X467151Y109334D01*
X467969Y109709*
X467969D02*
X468787D01*
X468787D02*
X469606Y109334D01*
X470151Y108584*
X470424Y107459*
X470151Y106709*
X469878Y105584*
X469878D02*
X469333Y104834D01*
X468515Y104459*
X467696*
X467696D02*
X466878Y104834D01*
X466878D02*
X466606Y105209D01*
X466333Y105959*
X474515Y112334D02*
X473696Y111959D01*
X473696D02*
X473151Y110834D01*
X472878Y108959*
X472878D02*
Y107834D01*
X472878D02*
X473151Y105959D01*
X473696Y104834*
X473696D02*
X474515Y104459D01*
X475060*
X475060D02*
X475878Y104834D01*
X475878D02*
X476424Y105959D01*
X476696Y107834*
X476696D02*
Y108959D01*
X476696D02*
X476424Y110834D01*
X475878Y111959*
X475878D02*
X475060Y112334D01*
X475060D02*
X474515D01*
X460606Y103897D02*
X465515D01*
X463060Y54122D02*
Y47372D01*
X460606Y50747D02*
X465515D01*
X469606Y55247D02*
X468787Y54872D01*
X468787D02*
X468242Y53747D01*
X467969Y51872*
X467969D02*
Y50747D01*
X467969D02*
X468242Y48872D01*
X468787Y47747*
X468787D02*
X469606Y47372D01*
X470151*
X470969Y47747*
X470969D02*
X471515Y48872D01*
X471787Y50747*
X471787D02*
Y51872D01*
X471787D02*
X471515Y53747D01*
X470969Y54872*
X470969D02*
X470151Y55247D01*
X469606*
X474515Y48122D02*
X474242Y47747D01*
X474515Y47372*
X474787Y47747*
X474787D02*
X474515Y48122D01*
X477242Y53747D02*
X477787Y54122D01*
X477787D02*
X478606Y55247D01*
Y47372*
X460606Y44842D02*
X465515D01*
X458638Y76338D02*
X463547D01*
X461092Y85618D02*
Y78868D01*
X458638Y82243D02*
X463547D01*
X467638Y86743D02*
X466819Y86368D01*
X466819D02*
X466274Y85243D01*
X466001Y83368*
X466001D02*
Y82243D01*
X466001D02*
X466274Y80368D01*
X466819Y79243*
X466819D02*
X467638Y78868D01*
X468183*
X469001Y79243*
X469001D02*
X469547Y80368D01*
X469819Y82243*
X469819D02*
Y83368D01*
X469819D02*
X469547Y85243D01*
X469001Y86368*
X469001D02*
X468183Y86743D01*
X467638*
X472547Y79618D02*
X472274Y79243D01*
X472547Y78868*
X472819Y79243*
X472819D02*
X472547Y79618D01*
X475547Y84868D02*
Y85243D01*
X475819Y85993*
X475819D02*
X476092Y86368D01*
X476092D02*
X476638Y86743D01*
X477728*
X477728D02*
X478274Y86368D01*
X478547Y85993*
X478819Y85243*
X478819D02*
Y84493D01*
X478819D02*
X478547Y83743D01*
X478001Y82618*
X478001D02*
X475274Y78868D01*
X479092*
X427142Y44842D02*
X432051D01*
X429596Y85618D02*
Y78868D01*
X427142Y82243D02*
X432051D01*
X436142Y86743D02*
X435323Y86368D01*
X435323D02*
X434778Y85243D01*
X434505Y83368*
X434505D02*
Y82243D01*
X434505D02*
X434778Y80368D01*
X435323Y79243*
X435323D02*
X436142Y78868D01*
X436687*
X437505Y79243*
X437505D02*
X438051Y80368D01*
X438323Y82243*
X438323D02*
Y83368D01*
X438323D02*
X438051Y85243D01*
X437505Y86368*
X437505D02*
X436687Y86743D01*
X436142*
X441051Y79618D02*
X440778Y79243D01*
X441051Y78868*
X441323Y79243*
X441323D02*
X441051Y79618D01*
X443778Y85243D02*
X444323Y85618D01*
X444323D02*
X445142Y86743D01*
Y78868*
X433473Y111209D02*
X429110Y108209D01*
X433473Y104834*
X434837Y110834D02*
X435382Y111209D01*
X435382D02*
X436200Y112334D01*
X436200D02*
Y104459D01*
X440291Y112334D02*
X439473Y111959D01*
X439473D02*
X438928Y110834D01*
X438655Y108959*
Y107834*
X438928Y105959*
X439473Y104834*
X439473D02*
X440291Y104459D01*
X440291D02*
X440837D01*
X441655Y104834*
X442200Y105959*
X442200D02*
X442473Y107834D01*
X442473D02*
Y108959D01*
X442473D02*
X442200Y110834D01*
X442200D02*
X441655Y111959D01*
X440837Y112334*
X440291*
X429596Y54122D02*
Y47372D01*
X427142Y50747D02*
X432051D01*
X436142Y55247D02*
X435323Y54872D01*
X435323D02*
X434778Y53747D01*
X434505Y51872*
X434505D02*
Y50747D01*
X434505D02*
X434778Y48872D01*
X435323Y47747*
X435323D02*
X436142Y47372D01*
X436687*
X437505Y47747*
X437505D02*
X438051Y48872D01*
X438323Y50747*
X438323D02*
Y51872D01*
X438323D02*
X438051Y53747D01*
X437505Y54872*
X437505D02*
X436687Y55247D01*
X436142*
X441051Y48122D02*
X440778Y47747D01*
X441051Y47372*
X441323Y47747*
X441323D02*
X441051Y48122D01*
X447323Y55247D02*
X444596D01*
X444596D02*
X444323Y51872D01*
X444323D02*
X444596Y52247D01*
X444596D02*
X445414Y52622D01*
X445414D02*
X446232D01*
X446232D02*
X447051Y52247D01*
X447596Y51497*
X447596D02*
X447869Y50372D01*
X447596Y49622*
X447596D02*
X447323Y48497D01*
X447323D02*
X446778Y47747D01*
X445960Y47372*
X445142*
X444323Y47747*
X444323D02*
X444051Y48122D01*
X443778Y48872*
X427142Y76338D02*
X432051D01*
X429110Y103897D02*
X434019D01*
X436652Y126113D02*
X435834Y125738D01*
X435288Y124613*
X435288D02*
X435016Y122738D01*
Y121613*
X435288Y119738*
X435288D02*
X435834Y118613D01*
X436652Y118238*
X437197*
X437197D02*
X438016Y118613D01*
X438561Y119738*
X438834Y121613*
Y122738*
X438561Y124613*
X438016Y125738*
X437197Y126113*
X437197D02*
X436652D01*
X452732Y145798D02*
Y140173D01*
X453004Y139048*
X453004D02*
X453550Y138298D01*
X454368Y137923*
X454913*
X454913D02*
X455732Y138298D01*
X456277Y139048*
X456550Y140173*
Y145798*
X459004D02*
Y137923D01*
Y145798D02*
X462822Y137923D01*
Y145798D02*
Y137923D01*
X465277Y145798D02*
Y137923D01*
X469641Y145798D02*
Y137923D01*
X467732Y145798D02*
X471550D01*
X474004Y142423D02*
X478913D01*
X474004Y140173D02*
X478913D01*
X481368Y143173D02*
Y137923D01*
Y141673D02*
X482186Y142798D01*
X482186D02*
X482732Y143173D01*
X483550*
X484095Y142798*
X484095D02*
X484368Y141673D01*
Y137923*
Y141673D02*
X485186Y142798D01*
X485186D02*
X485732Y143173D01*
X486550*
X487095Y142798*
X487095D02*
X487368Y141673D01*
Y137923*
X489822Y143173D02*
Y137923D01*
Y141673D02*
X490641Y142798D01*
X491186Y143173*
X491186D02*
X492004D01*
X492004D02*
X492550Y142798D01*
X492822Y141673*
X492822D02*
Y137923D01*
Y141673D02*
X493641Y142798D01*
X494186Y143173*
X494186D02*
X495004D01*
X495004D02*
X495550Y142798D01*
X495822Y141673*
X495822D02*
Y137923D01*
X368299Y53279D02*
X366118Y45404D01*
X368299Y53279D02*
X370481Y45404D01*
X366936Y48029D02*
X369663D01*
X377027Y51404D02*
X376754Y52154D01*
X376208Y52904*
X376208D02*
X375663Y53279D01*
X374572*
X374572D02*
X374027Y52904D01*
X373481Y52154*
X373481D02*
X373208Y51404D01*
X373208D02*
X372936Y50279D01*
Y48404*
X373208Y47279*
X373208D02*
X373481Y46529D01*
X373481D02*
X374027Y45779D01*
X374572Y45404*
X374572D02*
X375663D01*
X376208Y45779*
X376208D02*
X376754Y46529D01*
X377027Y47279*
X383572Y51404D02*
X383299Y52154D01*
X383299D02*
X382754Y52904D01*
X382208Y53279*
X382208D02*
X381118D01*
X380572Y52904*
X380572D02*
X380027Y52154D01*
X379754Y51404*
X379481Y50279*
X379481D02*
Y48404D01*
X379481D02*
X379754Y47279D01*
X380027Y46529*
X380572Y45779*
X380572D02*
X381118Y45404D01*
X382208*
X382208D02*
X382754Y45779D01*
X383299Y46529*
X383299D02*
X383572Y47279D01*
X386027Y53279D02*
Y47654D01*
X386299Y46529*
X386299D02*
X386845Y45779D01*
X387663Y45404*
X388208*
X388208D02*
X389027Y45779D01*
X389572Y46529*
X389572D02*
X389845Y47654D01*
Y53279*
X392299D02*
Y45404D01*
Y53279D02*
X394754D01*
X395572Y52904*
X395572D02*
X395845Y52529D01*
X396118Y51779*
Y51029*
X395845Y50279*
X395572Y49904*
X395572D02*
X394754Y49529D01*
X392299*
X394208D02*
X396118Y45404D01*
X400754Y53279D02*
X398572Y45404D01*
X400754Y53279D02*
X402936Y45404D01*
X399390Y48029D02*
X402118D01*
X407299Y53279D02*
Y45404D01*
X405390Y53279D02*
X409208D01*
X411663D02*
Y45404D01*
Y53279D02*
X415208D01*
X411663Y49529D02*
X413845D01*
X411663Y45404D02*
X415208D01*
X372024Y86743D02*
Y78868D01*
Y86743D02*
X374205Y78868D01*
X376387Y86743D02*
X374205Y78868D01*
X376387Y86743D02*
Y78868D01*
X378842Y86743D02*
Y78868D01*
X381296Y86743D02*
Y78868D01*
Y86743D02*
X383205D01*
X383205D02*
X384024Y86368D01*
X384569Y85618*
X384842Y84868*
X385114Y83743*
X385114D02*
Y81868D01*
X385114D02*
X384842Y80743D01*
X384569Y79993*
X384024Y79243*
X383205Y78868*
X383205D02*
X381296D01*
X387569Y86743D02*
Y78868D01*
Y86743D02*
X389478D01*
X389478D02*
X390296Y86368D01*
X390296D02*
X390842Y85618D01*
X391114Y84868*
X391114D02*
X391387Y83743D01*
X391387D02*
Y81868D01*
X391387D02*
X391114Y80743D01*
X391114D02*
X390842Y79993D01*
X390296Y79243*
X390296D02*
X389478Y78868D01*
X389478D02*
X387569D01*
X393842Y86743D02*
Y78868D01*
X397114*
X399569Y86743D02*
Y78868D01*
Y86743D02*
X403114D01*
X399569Y82993D02*
X401751D01*
X399569Y78868D02*
X403114D01*
X370055Y118239D02*
Y110364D01*
X373327*
X375782Y118239D02*
Y110364D01*
X378236Y118239D02*
Y110364D01*
Y118239D02*
X382055Y110364D01*
Y118239D02*
Y110364D01*
X384509Y118239D02*
Y110364D01*
Y118239D02*
X388055D01*
X384509Y114489D02*
X386691D01*
X384509Y110364D02*
X388055D01*
X392691Y118239D02*
X390509Y110364D01*
X392691Y118239D02*
X394873Y110364D01*
X391327Y112989D02*
X394055D01*
X397327Y118239D02*
Y110364D01*
Y118239D02*
X399782D01*
X400600Y117864*
X400873Y117489*
X401145Y116739*
X401145D02*
Y115989D01*
X401145D02*
X400873Y115239D01*
X400600Y114864*
X399782Y114489*
X397327*
X399236D02*
X401145Y110364D01*
X411334Y161546D02*
Y153671D01*
X409425Y161546D02*
X413243D01*
X417334D02*
X416788Y161171D01*
X416788D02*
X416243Y160421D01*
X415970Y159671*
X415697Y158546*
X415697D02*
Y156671D01*
X415697D02*
X415970Y155546D01*
X416243Y154796*
X416788Y154046*
X416788D02*
X417334Y153671D01*
X418425*
X418970Y154046*
X419515Y154796*
X419515D02*
X419788Y155546D01*
X419788D02*
X420061Y156671D01*
Y158546*
X419788Y159671*
X419788D02*
X419515Y160421D01*
X419515D02*
X418970Y161171D01*
X418425Y161546*
X417334*
X422515D02*
Y153671D01*
X422515D02*
X425788D01*
X428243Y161546D02*
Y153671D01*
Y161546D02*
X431788D01*
X428243Y157796D02*
X430425D01*
X428243Y153671D02*
X431788D01*
X434243Y161546D02*
Y153671D01*
Y161546D02*
X436697D01*
X436697D02*
X437515Y161171D01*
X437515D02*
X437788Y160796D01*
X437788D02*
X438061Y160046D01*
Y159296*
X437788Y158546*
X437788D02*
X437515Y158171D01*
X437515D02*
X436697Y157796D01*
X436697D02*
X434243D01*
X436152D02*
X438061Y153671D01*
X442697Y161546D02*
X440515Y153671D01*
X442697Y161546D02*
X444879Y153671D01*
X441334Y156296D02*
X444061D01*
X447334Y161546D02*
Y153671D01*
Y161546D02*
X451152Y153671D01*
Y161546D02*
Y153671D01*
X457697Y159671D02*
X457425Y160421D01*
X456879Y161171*
X456879D02*
X456334Y161546D01*
X455243*
X454697Y161171*
X454697D02*
X454152Y160421D01*
X453879Y159671*
X453879D02*
X453606Y158546D01*
X453606D02*
Y156671D01*
X453606D02*
X453879Y155546D01*
X453879D02*
X454152Y154796D01*
X454697Y154046*
X454697D02*
X455243Y153671D01*
X456334*
X456879Y154046*
X456879D02*
X457425Y154796D01*
X457697Y155546*
X460152Y161546D02*
Y153671D01*
Y161546D02*
X463697D01*
X460152Y157796D02*
X462334D01*
X460152Y153671D02*
X463697D01*
X471061Y161546D02*
Y155921D01*
X471334Y154796*
X471879Y154046*
X471879D02*
X472697Y153671D01*
X472697D02*
X473243D01*
X474061Y154046*
X474606Y154796*
X474606D02*
X474879Y155921D01*
X474879D02*
Y161546D01*
X477334D02*
Y153671D01*
Y161546D02*
X481152Y153671D01*
Y161546D02*
Y153671D01*
X483606Y161546D02*
Y153671D01*
X483606D02*
X486879D01*
X489334Y161546D02*
Y153671D01*
Y161546D02*
X492879D01*
X489334Y157796D02*
X491515D01*
X489334Y153671D02*
X492879D01*
X499152Y160421D02*
X498606Y161171D01*
X498606D02*
X497788Y161546D01*
X497788D02*
X496697D01*
X496697D02*
X495879Y161171D01*
X495879D02*
X495334Y160421D01*
Y159671*
X495606Y158921*
X495606D02*
X495879Y158546D01*
X495879D02*
X496425Y158171D01*
X498061Y157421*
X498606Y157046*
X498606D02*
X498879Y156671D01*
X498879D02*
X499152Y155921D01*
Y154796*
X498606Y154046*
X498606D02*
X497788Y153671D01*
X497788D02*
X496697D01*
X496697D02*
X495879Y154046D01*
X495879D02*
X495334Y154796D01*
X505425Y160421D02*
X504879Y161171D01*
X504879D02*
X504061Y161546D01*
X502970*
X502152Y161171*
X501606Y160421*
X501606D02*
Y159671D01*
X501606D02*
X501879Y158921D01*
X501879D02*
X502152Y158546D01*
X502697Y158171*
X502697D02*
X504334Y157421D01*
X504879Y157046*
X504879D02*
X505152Y156671D01*
X505425Y155921*
Y154796*
X504879Y154046*
X504879D02*
X504061Y153671D01*
X502970*
X502152Y154046*
X501606Y154796*
X512788Y161546D02*
Y153671D01*
Y161546D02*
X516606Y153671D01*
Y161546D02*
Y153671D01*
X520697Y161546D02*
X520152Y161171D01*
X519606Y160421*
X519606D02*
X519334Y159671D01*
X519061Y158546*
Y156671*
X519334Y155546*
X519606Y154796*
X519606D02*
X520152Y154046D01*
X520697Y153671*
X520697D02*
X521788D01*
X521788D02*
X522334Y154046D01*
X522879Y154796*
X522879D02*
X523152Y155546D01*
X523425Y156671*
Y158546*
X523152Y159671*
X522879Y160421*
X522879D02*
X522334Y161171D01*
X521788Y161546*
X521788D02*
X520697D01*
X527788D02*
Y153671D01*
X525879Y161546D02*
X529697D01*
X532152D02*
Y153671D01*
Y161546D02*
X535697D01*
X532152Y157796D02*
X534334D01*
X532152Y153671D02*
X535697D01*
X538152Y161546D02*
Y153671D01*
Y161546D02*
X540061D01*
X540879Y161171*
X540879D02*
X541425Y160421D01*
X541697Y159671*
X541697D02*
X541970Y158546D01*
Y156671*
X541697Y155546*
X541697D02*
X541425Y154796D01*
X540879Y154046*
X540879D02*
X540061Y153671D01*
X538152*
X356276Y230444D02*
Y222569D01*
Y230444D02*
X358185D01*
X359003Y230069*
X359548Y229319*
X359548D02*
X359821Y228569D01*
X360094Y227444*
Y225569*
X359821Y224444*
X359548Y223694*
X359548D02*
X359003Y222944D01*
X358185Y222569*
X356276*
X362548Y230444D02*
Y222569D01*
Y230444D02*
X366094D01*
X362548Y226694D02*
X364730D01*
X362548Y222569D02*
X366094D01*
X372366Y229319D02*
X371821Y230069D01*
X371003Y230444*
X369912*
X369094Y230069*
X368548Y229319*
X368548D02*
Y228569D01*
X368548D02*
X368821Y227819D01*
X369094Y227444*
X369639Y227069*
X369639D02*
X371276Y226319D01*
X371821Y225944*
X372094Y225569*
X372366Y224819*
X372366D02*
Y223694D01*
X372366D02*
X371821Y222944D01*
X371003Y222569*
X369912*
X369094Y222944*
X368548Y223694*
X378912Y228569D02*
X378639Y229319D01*
X378639D02*
X378094Y230069D01*
X377548Y230444*
X377548D02*
X376457D01*
X376457D02*
X375912Y230069D01*
X375366Y229319*
X375366D02*
X375094Y228569D01*
X374821Y227444*
Y225569*
X375094Y224444*
X375366Y223694*
X375366D02*
X375912Y222944D01*
X376457Y222569*
X376457D02*
X377548D01*
X377548D02*
X378094Y222944D01*
X378639Y223694*
X378639D02*
X378912Y224444D01*
X381366Y230444D02*
Y222569D01*
Y230444D02*
X383821D01*
X384639Y230069*
X384639D02*
X384912Y229694D01*
X385185Y228944*
Y228194*
X384912Y227444*
X384639Y227069*
X384639D02*
X383821Y226694D01*
X381366*
X383276D02*
X385185Y222569D01*
X387639Y230444D02*
Y222569D01*
X390094Y230444D02*
Y222569D01*
Y230444D02*
X392548D01*
X392548D02*
X393366Y230069D01*
X393366D02*
X393639Y229694D01*
X393639D02*
X393912Y228944D01*
Y227819*
X393639Y227069*
X393639D02*
X393366Y226694D01*
X393366D02*
X392548Y226319D01*
X392548D02*
X390094D01*
X398276Y230444D02*
Y222569D01*
X396366Y230444D02*
X400185D01*
X402639D02*
Y222569D01*
X406730Y230444D02*
X406185Y230069D01*
X405639Y229319*
X405639D02*
X405366Y228569D01*
X405366D02*
X405094Y227444D01*
Y225569*
X405366Y224444*
X405366D02*
X405639Y223694D01*
X405639D02*
X406185Y222944D01*
X406730Y222569*
X406730D02*
X407821D01*
X408366Y222944*
X408366D02*
X408912Y223694D01*
X409185Y224444*
X409457Y225569*
X409457D02*
Y227444D01*
X409457D02*
X409185Y228569D01*
X408912Y229319*
X408366Y230069*
X408366D02*
X407821Y230444D01*
X406730*
X411912D02*
Y222569D01*
Y230444D02*
X415730Y222569D01*
Y230444D02*
Y222569D01*
X439815Y711754D02*
X447815D01*
X443815Y707754D02*
Y715754D01*
X373309Y738253D02*
X381309D01*
X377309Y734253D02*
Y742253D01*
X430815Y744754D02*
X438815D01*
X434815Y740754D02*
Y748754D01*
X430815Y739754D02*
X438815D01*
X434815Y735754D02*
Y743754D01*
X310815Y756254D02*
X318815D01*
X314815Y752254D02*
Y760254D01*
X364415Y761254D02*
X372415D01*
X368415Y757254D02*
Y765254D01*
X443815Y750254D02*
X451815D01*
X447815Y746254D02*
Y754254D01*
X445315Y745254D02*
X453315D01*
X449315Y741254D02*
Y749254D01*
X461315Y745254D02*
X469315D01*
X465315Y741254D02*
Y749254D01*
X461315Y750254D02*
X469315D01*
X465315Y746254D02*
Y754254D01*
X303815Y771254D02*
X311815D01*
X307815Y767254D02*
Y775254D01*
X348315Y781254D02*
X356315D01*
X352315Y777254D02*
Y785254D01*
X364315Y771254D02*
X372315D01*
X368315Y767254D02*
Y775254D01*
X364315Y766254D02*
X372315D01*
X368315Y762254D02*
Y770254D01*
X403615Y779454D02*
X411615D01*
X407615Y775454D02*
Y783454D01*
X422063Y779600D02*
X430063D01*
X426063Y775600D02*
Y783600D01*
X413215Y779254D02*
X421215D01*
X417215Y775254D02*
Y783254D01*
X439976Y770254D02*
X447976D01*
X443976Y766254D02*
Y774254D01*
X445094Y770533D02*
X453094D01*
X449094Y766533D02*
Y774533D01*
X441899Y779764D02*
X449899D01*
X445899Y775764D02*
Y783764D01*
X431921Y780091D02*
X439921D01*
X435921Y776091D02*
Y784091D01*
X462315Y779754D02*
X470315D01*
X466315Y775754D02*
Y783754D01*
X461915Y769754D02*
X469915D01*
X465915Y765754D02*
Y773754D01*
X457915Y769754D02*
X465915D01*
X461915Y765754D02*
Y773754D01*
X368315Y795754D02*
X376315D01*
X372315Y791754D02*
Y799754D01*
X365315Y788754D02*
X373315D01*
X369315Y784754D02*
Y792754D01*
X403615Y798054D02*
X411615D01*
X407615Y794054D02*
Y802054D01*
X403615Y789654D02*
X411615D01*
X407615Y785654D02*
Y793654D01*
X413215Y789054D02*
X421215D01*
X417215Y785054D02*
Y793054D01*
X422106Y788924D02*
X430106D01*
X426106Y784924D02*
Y792924D01*
X413215Y798054D02*
X421215D01*
X417215Y794054D02*
Y802054D01*
X422106Y798084D02*
X430106D01*
X426106Y794084D02*
Y802084D01*
X441867Y797754D02*
X449867D01*
X445867Y793754D02*
Y801754D01*
X441899Y789251D02*
X449899D01*
X445899Y785251D02*
Y793251D01*
X431965Y797754D02*
X439965D01*
X435965Y793754D02*
Y801754D01*
X431757Y788924D02*
X439757D01*
X435757Y784924D02*
Y792924D01*
X462315Y797754D02*
X470315D01*
X466315Y793754D02*
Y801754D01*
X462315Y788754D02*
X470315D01*
X466315Y784754D02*
Y792754D01*
X331815Y816254D02*
X339815D01*
X335815Y812254D02*
Y820254D01*
X348315Y816254D02*
X356315D01*
X352315Y812254D02*
Y820254D01*
X442815Y807254D02*
X450815D01*
X446815Y803254D02*
Y811254D01*
X433815Y822254D02*
X441815D01*
X437815Y818254D02*
Y826254D01*
X436315Y807254D02*
X444315D01*
X440315Y803254D02*
Y811254D01*
X442315Y823254D02*
X450315D01*
X446315Y819254D02*
Y827254D01*
X449315Y807254D02*
X457315D01*
X453315Y803254D02*
Y811254D01*
X463815Y822754D02*
X471815D01*
X467815Y818754D02*
Y826754D01*
X320815Y832254D02*
X328815D01*
X324815Y828254D02*
Y836254D01*
X427815Y839254D02*
X435815D01*
X431815Y835254D02*
Y843254D01*
X427815Y834254D02*
X435815D01*
X431815Y830254D02*
Y838254D01*
X463815Y826354D02*
X471815D01*
X467815Y822354D02*
Y830354D01*
X456315Y835254D02*
X464315D01*
X460315Y831254D02*
Y839254D01*
X456315Y830754D02*
X464315D01*
X460315Y826754D02*
Y834754D01*
X470215Y825654D02*
X478215D01*
X474215Y821654D02*
Y829654D01*
X308815Y852754D02*
X316815D01*
X312815Y848754D02*
Y856754D01*
Y849254D02*
X320815D01*
X316815Y845254D02*
Y853254D01*
X316315Y845754D02*
X324315D01*
X320315Y841754D02*
Y849754D01*
X331815Y845754D02*
X339815D01*
X335815Y841754D02*
Y849754D01*
X348315Y846754D02*
X356315D01*
X352315Y842754D02*
Y850754D01*
X375815Y857254D02*
X383815D01*
X379815Y853254D02*
Y861254D01*
X425815Y845254D02*
X433815D01*
X429815Y841254D02*
Y849254D01*
X406815Y868254D02*
X414815D01*
X410815Y864254D02*
Y872254D01*
X437315Y879254D02*
X445315D01*
X441315Y875254D02*
Y883254D01*
X577815Y870254D02*
X673815D01*
X577815Y854254D02*
X673815D01*
X577815Y838254D02*
X673815D01*
X577815Y822254D02*
X673815D01*
X577815Y806254D02*
X673815D01*
X577815Y870254D02*
Y806254D01*
X601815Y870254D02*
Y806254D01*
X625815Y870254D02*
Y806254D01*
X649815Y870254D02*
Y806254D01*
X673815Y870254D02*
Y806254D01*
X584360Y862754D02*
X583996Y863254D01*
X583996D02*
X583451Y863504D01*
X582724*
X582178Y863254*
X582178D02*
X581815Y862754D01*
Y862254*
X581996Y861754*
X581996D02*
X582178Y861504D01*
X582178D02*
X582542Y861254D01*
X583633Y860754*
X583996Y860504*
X583996D02*
X584178Y860254D01*
X584178D02*
X584360Y859754D01*
Y859004*
X583996Y858504*
X583996D02*
X583451Y858254D01*
X582724*
X582178Y858504*
X582178D02*
X581815Y859004D01*
X585996Y863504D02*
Y858254D01*
X590178Y863504D02*
X587633Y858254D01*
Y863504D02*
X590178D01*
X587633Y858254D02*
X590178D01*
X591815Y863504D02*
Y858254D01*
Y863504D02*
X594178D01*
X591815Y861004D02*
X593269D01*
X591815Y858254D02*
X594178D01*
X610178Y863504D02*
X609815Y863254D01*
X609451Y862754*
X609269Y862254*
X609269D02*
X609087Y861504D01*
X609087D02*
Y860254D01*
X609087D02*
X609269Y859504D01*
X609269D02*
X609451Y859004D01*
X609815Y858504*
X610178Y858254*
X610178D02*
X610905D01*
X610905D02*
X611269Y858504D01*
X611269D02*
X611633Y859004D01*
X611815Y859504*
X611996Y860254*
X611996D02*
Y861504D01*
X611996D02*
X611815Y862254D01*
X611633Y862754*
X611269Y863254*
X611269D02*
X610905Y863504D01*
X610905D02*
X610178D01*
X610724Y859254D02*
X611815Y857754D01*
X614905Y863504D02*
Y858254D01*
X613633Y863504D02*
X616178D01*
X617815D02*
X619269Y861004D01*
X619269D02*
Y858254D01*
X620724Y863504D02*
X619269Y861004D01*
X632360Y862754D02*
X631996Y863254D01*
X631996D02*
X631451Y863504D01*
X630724*
X630178Y863254*
X630178D02*
X629815Y862754D01*
Y862254*
X629996Y861754*
X629996D02*
X630178Y861504D01*
X630178D02*
X630542Y861254D01*
X631633Y860754*
X631996Y860504*
X631996D02*
X632178Y860254D01*
X632178D02*
X632360Y859754D01*
Y859004*
X631996Y858504*
X631996D02*
X631451Y858254D01*
X630724*
X630178Y858504*
X630178D02*
X629815Y859004D01*
X633996Y863504D02*
X635451Y861004D01*
Y858254*
X636905Y863504D02*
X635451Y861004D01*
X638542Y863504D02*
Y858254D01*
Y863504D02*
X639996Y858254D01*
X641451Y863504D02*
X639996Y858254D01*
X641451Y863504D02*
Y858254D01*
X653815Y863504D02*
Y858254D01*
Y863504D02*
X655451D01*
X655996Y863254*
X655996D02*
X656178Y863004D01*
X656178D02*
X656360Y862504D01*
Y861754*
X656178Y861254*
X656178D02*
X655996Y861004D01*
X655996D02*
X655451Y860754D01*
X653815*
X657996Y863504D02*
Y858254D01*
X657996D02*
X660178D01*
X663087Y863504D02*
Y858254D01*
X661815Y863504D02*
X664360D01*
X665996D02*
Y858254D01*
Y863504D02*
X667269D01*
X667269D02*
X667815Y863254D01*
X668178Y862754*
X668178D02*
X668360Y862254D01*
X668542Y861504*
Y860254*
X668360Y859504*
X668178Y859004*
X668178D02*
X667815Y858504D01*
X667269Y858254*
X667269D02*
X665996D01*
X585087Y846504D02*
X585451Y846754D01*
X585996Y847504*
X585996D02*
Y842254D01*
X589815Y846754D02*
X589633Y847254D01*
X589087Y847504*
X589087D02*
X588724D01*
X588178Y847254*
X588178D02*
X587815Y846504D01*
X587633Y845254*
Y844004*
X587815Y843004*
X588178Y842504*
X588178D02*
X588724Y842254D01*
X588905*
X588905D02*
X589451Y842504D01*
X589815Y843004*
X589996Y843754*
X589996D02*
Y844004D01*
X589996D02*
X589815Y844754D01*
X589451Y845254*
X588905Y845504*
X588905D02*
X588724D01*
X588178Y845254*
X588178D02*
X587815Y844754D01*
X587633Y844004*
X614542Y846754D02*
X614360Y847254D01*
X613815Y847504*
X613451*
X612905Y847254*
X612905D02*
X612542Y846504D01*
X612360Y845254*
Y844004*
X612542Y843004*
X612905Y842504*
X612905D02*
X613451Y842254D01*
X613633*
X614178Y842504*
X614178D02*
X614542Y843004D01*
X614724Y843754*
Y844004*
X614542Y844754*
X614178Y845254*
X614178D02*
X613633Y845504D01*
X613451*
X612905Y845254*
X612905D02*
X612542Y844754D01*
X612360Y844004*
X616542Y846254D02*
Y846504D01*
X616724Y847004*
X616905Y847254*
X616905D02*
X617269Y847504D01*
X617269D02*
X617996D01*
X617996D02*
X618360Y847254D01*
X618542Y847004*
X618724Y846504*
Y846004*
X618542Y845504*
X618178Y844754*
X618178D02*
X616360Y842254D01*
X618905*
X633815Y846254D02*
X641815D01*
X637815Y842254D02*
Y850254D01*
X653815Y847504D02*
Y842254D01*
Y847504D02*
X655451D01*
X655996Y847254*
X655996D02*
X656178Y847004D01*
X656178D02*
X656360Y846504D01*
Y845754*
X656178Y845254*
X656178D02*
X655996Y845004D01*
X655996D02*
X655451Y844754D01*
X653815*
X657996Y847504D02*
Y842254D01*
X657996D02*
X660178D01*
X663087Y847504D02*
Y842254D01*
X661815Y847504D02*
X664360D01*
X665996D02*
Y842254D01*
Y847504D02*
X667269D01*
X667269D02*
X667815Y847254D01*
X668178Y846754*
X668178D02*
X668360Y846254D01*
X668542Y845504*
Y844254*
X668360Y843504*
X668178Y843004*
X668178D02*
X667815Y842504D01*
X667269Y842254*
X667269D02*
X665996D01*
X585451Y831504D02*
X587451D01*
X586360Y829504*
X586905*
X586905D02*
X587269Y829254D01*
X587269D02*
X587451Y829004D01*
X587633Y828254*
Y827754*
X587451Y827004*
X587087Y826504*
X587087D02*
X586542Y826254D01*
X585996*
X585996D02*
X585451Y826504D01*
X585269Y826754*
X585269D02*
X585087Y827254D01*
X591633Y831504D02*
X589815D01*
X589633Y829254*
X589815Y829504*
X590360Y829754*
X590905*
X590905D02*
X591451Y829504D01*
X591815Y829004*
X591996Y828254*
X591996D02*
X591815Y827754D01*
X591633Y827004*
X591269Y826504*
X591269D02*
X590724Y826254D01*
X590178*
X590178D02*
X589633Y826504D01*
X589451Y826754*
X589269Y827254*
X614724Y829754D02*
X614542Y829004D01*
X614178Y828504*
X614178D02*
X613633Y828254D01*
X613451*
X612905Y828504*
X612905D02*
X612542Y829004D01*
X612360Y829754*
Y830004*
X612542Y830754*
X612905Y831254*
X612905D02*
X613451Y831504D01*
X613633*
X614178Y831254*
X614178D02*
X614542Y830754D01*
X614724Y829754*
Y828504*
X614542Y827254*
X614178Y826504*
X614178D02*
X613633Y826254D01*
X613269*
X613269D02*
X612724Y826504D01*
X612542Y827004*
X616542Y830254D02*
Y830504D01*
X616724Y831004*
X616905Y831254*
X616905D02*
X617269Y831504D01*
X617269D02*
X617996D01*
X617996D02*
X618360Y831254D01*
X618542Y831004*
X618724Y830504*
Y830004*
X618542Y829504*
X618178Y828754*
X618178D02*
X616360Y826254D01*
X618905*
X633815D02*
X641815Y834254D01*
X633815D02*
X641815Y826254D01*
X653815Y831504D02*
Y826254D01*
Y831504D02*
X655451D01*
X655996Y831254*
X655996D02*
X656178Y831004D01*
X656178D02*
X656360Y830504D01*
Y829754*
X656178Y829254*
X656178D02*
X655996Y829004D01*
X655996D02*
X655451Y828754D01*
X653815*
X657996Y831504D02*
Y826254D01*
X657996D02*
X660178D01*
X663087Y831504D02*
Y826254D01*
X661815Y831504D02*
X664360D01*
X665996D02*
Y826254D01*
Y831504D02*
X667269D01*
X667269D02*
X667815Y831254D01*
X668178Y830754*
X668178D02*
X668360Y830254D01*
X668542Y829504*
Y828254*
X668360Y827504*
X668178Y827004*
X668178D02*
X667815Y826504D01*
X667269Y826254*
X667269D02*
X665996D01*
X587451Y815504D02*
X585633D01*
X585451Y813254*
X585633Y813504*
X586178Y813754*
X586178D02*
X586724D01*
X587269Y813504*
X587269D02*
X587633Y813004D01*
X587815Y812254*
X587633Y811754*
X587451Y811004*
X587087Y810504*
X587087D02*
X586542Y810254D01*
X585996*
X585996D02*
X585451Y810504D01*
X585269Y810754*
X585269D02*
X585087Y811254D01*
X589451Y814504D02*
X589815Y814754D01*
X590360Y815504*
Y810254*
X616542Y815504D02*
X615996Y815254D01*
X615996D02*
X615815Y814754D01*
Y814254*
X615996Y813754*
X615996D02*
X616360Y813504D01*
X617087Y813254*
X617087D02*
X617633Y813004D01*
X617996Y812504*
X617996D02*
X618178Y812004D01*
X618178D02*
Y811254D01*
X618178D02*
X617996Y810754D01*
X617996D02*
X617815Y810504D01*
X617269Y810254*
X617269D02*
X616542D01*
X615996Y810504*
X615996D02*
X615815Y810754D01*
X615633Y811254*
Y812004*
X615815Y812504*
X616178Y813004*
X616178D02*
X616724Y813254D01*
X617451Y813504*
X617815Y813754*
X617996Y814254*
X617996D02*
Y814754D01*
X617996D02*
X617815Y815254D01*
X617269Y815504*
X617269D02*
X616542D01*
X637815Y810254D02*
X641815Y814254D01*
X637815Y818254*
X633815Y814254*
X637815Y810254*
Y814254D02*
Y818254D01*
X653815Y815504D02*
Y810254D01*
Y815504D02*
X655451D01*
X655996Y815254*
X655996D02*
X656178Y815004D01*
X656178D02*
X656360Y814504D01*
Y813754*
X656178Y813254*
X656178D02*
X655996Y813004D01*
X655996D02*
X655451Y812754D01*
X653815*
X657996Y815504D02*
Y810254D01*
X657996D02*
X660178D01*
X663087Y815504D02*
Y810254D01*
X661815Y815504D02*
X664360D01*
X665996D02*
Y810254D01*
Y815504D02*
X667269D01*
X667269D02*
X667815Y815254D01*
X668178Y814754*
X668178D02*
X668360Y814254D01*
X668542Y813504*
Y812254*
X668360Y811504*
X668178Y811004*
X668178D02*
X667815Y810504D01*
X667269Y810254*
X667269D02*
X665996D01*
G54D16*
X473045Y406737D02*
Y396894D01*
Y406737D02*
X477817Y396894D01*
Y406737D02*
Y396894D01*
X485999Y404394D02*
X485658Y405331D01*
X485658D02*
X484976Y406269D01*
X484976D02*
X484295Y406737D01*
X484295D02*
X482931D01*
X482931D02*
X482249Y406269D01*
X482249D02*
X481567Y405331D01*
X481567D02*
X481226Y404394D01*
X481226D02*
X480885Y402987D01*
X480885D02*
Y400644D01*
X480885D02*
X481226Y399237D01*
X481226D02*
X481567Y398300D01*
X481567D02*
X482249Y397362D01*
X482249D02*
X482931Y396894D01*
X484295*
X484976Y397362*
X484976D02*
X485658Y398300D01*
X485658D02*
X485999Y399237D01*
X489067Y406737D02*
Y396894D01*
Y406737D02*
X491454D01*
X491454D02*
X492476Y406269D01*
X492476D02*
X493158Y405331D01*
X493158D02*
X493499Y404394D01*
X493499D02*
X493840Y402987D01*
X493840D02*
Y400644D01*
X493499Y399237*
X493499D02*
X493158Y398300D01*
X493158D02*
X492476Y397362D01*
X492476D02*
X491454Y396894D01*
X489067*
X496908Y406737D02*
Y396894D01*
Y406737D02*
X499976D01*
X499976D02*
X500999Y406269D01*
X500999D02*
X501340Y405800D01*
X501681Y404862*
X501681D02*
Y403925D01*
X501340Y402987*
X501340D02*
X500999Y402519D01*
X500999D02*
X499976Y402050D01*
X499976D02*
X496908D01*
X499295D02*
X501681Y396894D01*
X504749Y406737D02*
Y396894D01*
X507817Y406737D02*
Y396894D01*
X507817D02*
X511908D01*
X514976Y406737D02*
Y396894D01*
X514976D02*
X519067D01*
X528272Y406737D02*
Y396894D01*
Y406737D02*
X532704D01*
X528272Y402050D02*
X530999D01*
X535772Y406737D02*
Y396894D01*
X538840Y406737D02*
Y396894D01*
X542931*
X545999Y406737D02*
Y396894D01*
Y406737D02*
X550431D01*
X545999Y402050D02*
X548726D01*
X545999Y396894D02*
X550431D01*
X559635Y406737D02*
Y396894D01*
Y406737D02*
X564067D01*
X559635Y402050D02*
X562363D01*
X569181Y406737D02*
X568499Y406269D01*
X568499D02*
X567817Y405331D01*
X567817D02*
X567476Y404394D01*
X567476D02*
X567135Y402987D01*
X567135D02*
Y400644D01*
X567135D02*
X567476Y399237D01*
X567476D02*
X567817Y398300D01*
X567817D02*
X568499Y397362D01*
X568499D02*
X569181Y396894D01*
X570545*
X571226Y397362*
X571226D02*
X571908Y398300D01*
X571908D02*
X572249Y399237D01*
X572249D02*
X572590Y400644D01*
Y402987*
X572590D02*
X572249Y404394D01*
X572249D02*
X571908Y405331D01*
X571908D02*
X571226Y406269D01*
X571226D02*
X570545Y406737D01*
X570545D02*
X569181D01*
X575658D02*
Y396894D01*
Y406737D02*
X578726D01*
X578726D02*
X579749Y406269D01*
X579749D02*
X580090Y405800D01*
X580431Y404862*
X580431D02*
Y403925D01*
X580090Y402987*
X580090D02*
X579749Y402519D01*
X579749D02*
X578726Y402050D01*
X578726D02*
X575658D01*
X578045D02*
X580431Y396894D01*
X583499Y406737D02*
Y396894D01*
Y406737D02*
X586226Y396894D01*
X588954Y406737D02*
X586226Y396894D01*
X588954Y406737D02*
Y396894D01*
X594749Y406737D02*
X592022Y396894D01*
X594749Y406737D02*
X597476Y396894D01*
X593045Y400175D02*
X596454D01*
X602931Y406737D02*
Y396894D01*
X600545Y406737D02*
X605317D01*
X608726Y403456D02*
X608385Y402987D01*
X608385D02*
X608726Y402519D01*
X608726D02*
X609067Y402987D01*
X609067D02*
X608726Y403456D01*
Y397831D02*
X608385Y397362D01*
X608385D02*
X608726Y396894D01*
X608726D02*
X609067Y397362D01*
X609067D02*
X608726Y397831D01*
X618272Y406737D02*
Y396894D01*
Y406737D02*
X622704D01*
X618272Y402050D02*
X620999D01*
X618272Y396894D02*
X622704D01*
X625772Y406737D02*
X630545Y396894D01*
Y406737D02*
X625772Y396894D01*
X638726Y404394D02*
X638385Y405331D01*
X638385D02*
X637704Y406269D01*
X637022Y406737*
X637022D02*
X635658D01*
X635658D02*
X634976Y406269D01*
X634976D02*
X634295Y405331D01*
X634295D02*
X633954Y404394D01*
X633613Y402987*
X633613D02*
Y400644D01*
X633954Y399237*
X633954D02*
X634295Y398300D01*
X634976Y397362*
X634976D02*
X635658Y396894D01*
X635658D02*
X637022D01*
X637704Y397362*
X637704D02*
X638385Y398300D01*
X638385D02*
X638726Y399237D01*
X641795Y406737D02*
Y396894D01*
Y406737D02*
X646226D01*
X641795Y402050D02*
X644522D01*
X641795Y396894D02*
X646226D01*
X649295Y406737D02*
Y396894D01*
X653385*
X656454Y406737D02*
Y396894D01*
X660545*
X665658Y406737D02*
X664976Y406269D01*
X664976D02*
X664295Y405331D01*
X664295D02*
X663954Y404394D01*
X663613Y402987*
X663613D02*
Y400644D01*
X663954Y399237*
X663954D02*
X664295Y398300D01*
X664976Y397362*
X664976D02*
X665658Y396894D01*
X665658D02*
X667022D01*
X667704Y397362*
X667704D02*
X668385Y398300D01*
X668385D02*
X668726Y399237D01*
X668726D02*
X669067Y400644D01*
X669067D02*
Y402987D01*
X669067D02*
X668726Y404394D01*
X668726D02*
X668385Y405331D01*
X668385D02*
X667704Y406269D01*
X667022Y406737*
X667022D02*
X665658D01*
X672135D02*
Y396894D01*
Y406737D02*
X676908Y396894D01*
Y406737D02*
Y396894D01*
X686795Y406737D02*
X690545D01*
X690545D02*
X688499Y402987D01*
X688499D02*
X689522D01*
X689522D02*
X690204Y402519D01*
X690545Y402050*
X690885Y400644*
X690885D02*
Y399706D01*
X690885D02*
X690545Y398300D01*
X689863Y397362*
X689863D02*
X688840Y396894D01*
X687817*
X687817D02*
X686795Y397362D01*
X686795D02*
X686454Y397831D01*
X686454D02*
X686113Y398769D01*
X694295Y397831D02*
X693954Y397362D01*
X693954D02*
X694295Y396894D01*
X694635Y397362*
X694635D02*
X694295Y397831D01*
X702135Y406737D02*
X698726D01*
X698726D02*
X698385Y402519D01*
X698385D02*
X698726Y402987D01*
X698726D02*
X699749Y403456D01*
X699749D02*
X700772D01*
X700772D02*
X701795Y402987D01*
X701795D02*
X702476Y402050D01*
X702476D02*
X702817Y400644D01*
X702817D02*
X702476Y399706D01*
X702476D02*
X702135Y398300D01*
X702135D02*
X701454Y397362D01*
X701454D02*
X700431Y396894D01*
X699408*
X699408D02*
X698385Y397362D01*
X698385D02*
X698045Y397831D01*
X698045D02*
X697704Y398769D01*
X473045Y386737D02*
Y376894D01*
Y386737D02*
X476113D01*
X476113D02*
X477135Y386269D01*
X477135D02*
X477476Y385800D01*
X477476D02*
X477817Y384862D01*
X477817D02*
Y383456D01*
X477817D02*
X477476Y382519D01*
X477476D02*
X477135Y382050D01*
X477135D02*
X476113Y381581D01*
X476113D02*
X473045D01*
X485999Y384394D02*
X485658Y385331D01*
X485658D02*
X484976Y386269D01*
X484976D02*
X484295Y386737D01*
X484295D02*
X482931D01*
X482931D02*
X482249Y386269D01*
X482249D02*
X481567Y385331D01*
X481567D02*
X481226Y384394D01*
X481226D02*
X480885Y382987D01*
X480885D02*
Y380644D01*
X480885D02*
X481226Y379237D01*
X481226D02*
X481567Y378300D01*
X481567D02*
X482249Y377362D01*
X482249D02*
X482931Y376894D01*
X484295*
X484976Y377362*
X484976D02*
X485658Y378300D01*
X485658D02*
X485999Y379237D01*
X489067Y386737D02*
Y376894D01*
Y386737D02*
X492135D01*
X492135D02*
X493158Y386269D01*
X493158D02*
X493499Y385800D01*
X493499D02*
X493840Y384862D01*
X493840D02*
Y383925D01*
X493499Y382987*
X493499D02*
X493158Y382519D01*
X493158D02*
X492135Y382050D01*
X489067D02*
X492135D01*
X492135D02*
X493158Y381581D01*
X493158D02*
X493499Y381112D01*
X493499D02*
X493840Y380175D01*
Y378769*
X493499Y377831*
X493499D02*
X493158Y377362D01*
X493158D02*
X492135Y376894D01*
X492135D02*
X489067D01*
X497249Y383456D02*
X496908Y382987D01*
X496908D02*
X497249Y382519D01*
X497249D02*
X497590Y382987D01*
X497590D02*
X497249Y383456D01*
Y377831D02*
X496908Y377362D01*
X496908D02*
X497249Y376894D01*
X497249D02*
X497590Y377362D01*
X497590D02*
X497249Y377831D01*
X507135Y384394D02*
Y384862D01*
X507135D02*
X507476Y385800D01*
X507476D02*
X507817Y386269D01*
X507817D02*
X508499Y386737D01*
X508499D02*
X509863D01*
X509863D02*
X510545Y386269D01*
X510885Y385800*
X510885D02*
X511226Y384862D01*
X511226D02*
Y383925D01*
X511226D02*
X510885Y382987D01*
X510885D02*
X510204Y381581D01*
X510204D02*
X506795Y376894D01*
X511567*
X520772Y386737D02*
Y376894D01*
X524863*
X530658Y386737D02*
X527931Y376894D01*
X530658Y386737D02*
X533385Y376894D01*
X528954Y380175D02*
X532363D01*
X536454Y386737D02*
X539181Y382050D01*
Y376894*
X541908Y386737D02*
X539181Y382050D01*
X544976Y386737D02*
Y376894D01*
Y386737D02*
X549408D01*
X544976Y382050D02*
X547704D01*
X544976Y376894D02*
X549408D01*
X552476Y386737D02*
Y376894D01*
Y386737D02*
X555545D01*
X555545D02*
X556567Y386269D01*
X556567D02*
X556908Y385800D01*
X556908D02*
X557249Y384862D01*
X557249D02*
Y383925D01*
X557249D02*
X556908Y382987D01*
X556908D02*
X556567Y382519D01*
X556567D02*
X555545Y382050D01*
X552476*
X554863D02*
X557249Y376894D01*
X473045Y366737D02*
Y356894D01*
Y366737D02*
X475772Y356894D01*
X478499Y366737D02*
X475772Y356894D01*
X478499Y366737D02*
Y356894D01*
X484295Y366737D02*
X481567Y356894D01*
X484295Y366737D02*
X487022Y356894D01*
X482590Y360175D02*
X485999D01*
X492476Y366737D02*
Y356894D01*
X490090Y366737D02*
X494863D01*
X497931D02*
Y356894D01*
Y366737D02*
X502363D01*
X497931Y362050D02*
X500658D01*
X497931Y356894D02*
X502363D01*
X505431Y366737D02*
Y356894D01*
Y366737D02*
X508499D01*
X508499D02*
X509522Y366269D01*
X509863Y365800*
X510204Y364862*
X510204D02*
Y363925D01*
X509863Y362987*
X509863D02*
X509522Y362519D01*
X508499Y362050*
X508499D02*
X505431D01*
X507817D02*
X510204Y356894D01*
X513272Y366737D02*
Y356894D01*
X519067Y366737D02*
X516340Y356894D01*
X519067Y366737D02*
X521795Y356894D01*
X517363Y360175D02*
X520772D01*
X524863Y366737D02*
Y356894D01*
X528954*
X538499Y363456D02*
X538158Y362987D01*
X538158D02*
X538499Y362519D01*
X538499D02*
X538840Y362987D01*
X538840D02*
X538499Y363456D01*
Y357831D02*
X538158Y357362D01*
X538158D02*
X538499Y356894D01*
X538499D02*
X538840Y357362D01*
X538840D02*
X538499Y357831D01*
X548045Y366737D02*
Y356894D01*
Y366737D02*
X552476D01*
X548045Y362050D02*
X550772D01*
X555545Y366737D02*
Y356894D01*
Y366737D02*
X558613D01*
X558613D02*
X559635Y366269D01*
X559635D02*
X559976Y365800D01*
X559976D02*
X560317Y364862D01*
X560317D02*
Y363925D01*
X560317D02*
X559976Y362987D01*
X559976D02*
X559635Y362519D01*
X559635D02*
X558613Y362050D01*
X555545*
X557931D02*
X560317Y356894D01*
X566795Y366737D02*
X563385Y360175D01*
X563385D02*
X568499D01*
X566795Y366737D02*
Y356894D01*
X578726Y366737D02*
Y358769D01*
X578726D02*
X579067Y357362D01*
X579067D02*
X579749Y356894D01*
X579749D02*
X580431D01*
X577704Y363456D02*
X580090D01*
X585204D02*
X584522Y362987D01*
X584522D02*
X583840Y362050D01*
X583499Y360644*
X583499D02*
Y359706D01*
X583499D02*
X583840Y358300D01*
X584522Y357362*
X584522D02*
X585204Y356894D01*
X586226*
X586226D02*
X586908Y357362D01*
X586908D02*
X587590Y358300D01*
X587931Y359706*
X587931D02*
Y360644D01*
X587590Y362050*
X586908Y362987*
X586908D02*
X586226Y363456D01*
X586226D02*
X585204D01*
X592022Y366737D02*
Y358769D01*
X592363Y357362*
X592363D02*
X593045Y356894D01*
X593726*
X590999Y363456D02*
X593385D01*
X597135Y357831D02*
X596795Y357362D01*
X596795D02*
X597135Y356894D01*
X597135D02*
X597476Y357362D01*
X597476D02*
X597135Y357831D01*
X607704Y366737D02*
Y358769D01*
X608045Y357362*
X608045D02*
X608726Y356894D01*
X608726D02*
X609408D01*
X606681Y363456D02*
X609067D01*
X612476Y366737D02*
Y356894D01*
Y361581D02*
X613499Y362987D01*
X613499D02*
X614181Y363456D01*
X614181D02*
X615204D01*
X615204D02*
X615885Y362987D01*
X615885D02*
X616226Y361581D01*
X616226D02*
Y356894D01*
X619635Y357831D02*
X619295Y357362D01*
X619295D02*
X619635Y356894D01*
X619635D02*
X619976Y357362D01*
X619976D02*
X619635Y357831D01*
X629181Y364862D02*
X629863Y365331D01*
X629863D02*
X630885Y366737D01*
X630885D02*
Y356894D01*
X634295Y357831D02*
X633954Y357362D01*
X633954D02*
X634295Y356894D01*
X634635Y357362*
X634635D02*
X634295Y357831D01*
X641795Y365331D02*
X641454Y366269D01*
X640431Y366737*
X640431D02*
X639749D01*
X639749D02*
X638726Y366269D01*
X638726D02*
X638045Y364862D01*
X638045D02*
X637704Y362519D01*
Y360175*
X638045Y358300*
X638726Y357362*
X638726D02*
X639749Y356894D01*
X639749D02*
X640090D01*
X641113Y357362*
X641113D02*
X641795Y358300D01*
X642135Y359706*
X642135D02*
Y360175D01*
X642135D02*
X641795Y361581D01*
X641795D02*
X641113Y362519D01*
X640090Y362987*
X640090D02*
X639749D01*
X639749D02*
X638726Y362519D01*
X638726D02*
X638045Y361581D01*
X638045D02*
X637704Y360175D01*
X645204Y363456D02*
Y356894D01*
Y361581D02*
X646226Y362987D01*
X646226D02*
X646908Y363456D01*
X646908D02*
X647931D01*
X647931D02*
X648613Y362987D01*
X648613D02*
X648954Y361581D01*
X648954D02*
Y356894D01*
Y361581D02*
X649976Y362987D01*
X649976D02*
X650658Y363456D01*
X650658D02*
X651681D01*
X651681D02*
X652363Y362987D01*
X652363D02*
X652704Y361581D01*
X652704D02*
Y356894D01*
X655772Y363456D02*
Y356894D01*
Y361581D02*
X656795Y362987D01*
X656795D02*
X657476Y363456D01*
X657476D02*
X658499D01*
X658499D02*
X659181Y362987D01*
X659181D02*
X659522Y361581D01*
X659522D02*
Y356894D01*
Y361581D02*
X660545Y362987D01*
X660545D02*
X661226Y363456D01*
X661226D02*
X662249D01*
X662249D02*
X662931Y362987D01*
X662931D02*
X663272Y361581D01*
X663272D02*
Y356894D01*
X478158Y346894D02*
X477817Y347831D01*
X477817D02*
X477135Y348769D01*
X477135D02*
X476454Y349237D01*
X476454D02*
X475090D01*
X475090D02*
X474408Y348769D01*
X474408D02*
X473726Y347831D01*
X473726D02*
X473385Y346894D01*
X473385D02*
X473045Y345487D01*
X473045D02*
Y343144D01*
X473385Y341737*
X473385D02*
X473726Y340800D01*
X473726D02*
X474408Y339862D01*
X474408D02*
X475090Y339394D01*
X476454*
X477135Y339862*
X477135D02*
X477817Y340800D01*
X477817D02*
X478158Y341737D01*
X481226Y349237D02*
Y339394D01*
X484295Y349237D02*
Y339394D01*
Y349237D02*
X487363D01*
X487363D02*
X488385Y348769D01*
X488385D02*
X488726Y348300D01*
X488726D02*
X489067Y347362D01*
X489067D02*
Y346425D01*
X489067D02*
X488726Y345487D01*
X488726D02*
X488385Y345019D01*
X488385D02*
X487363Y344550D01*
X484295*
X486681D02*
X489067Y339394D01*
X497249Y346894D02*
X496908Y347831D01*
X496908D02*
X496226Y348769D01*
X496226D02*
X495545Y349237D01*
X495545D02*
X494181D01*
X494181D02*
X493499Y348769D01*
X493499D02*
X492817Y347831D01*
X492817D02*
X492476Y346894D01*
X492476D02*
X492135Y345487D01*
X492135D02*
Y343144D01*
X492135D02*
X492476Y341737D01*
X492476D02*
X492817Y340800D01*
X492817D02*
X493499Y339862D01*
X493499D02*
X494181Y339394D01*
X495545*
X496226Y339862*
X496226D02*
X496908Y340800D01*
X496908D02*
X497249Y341737D01*
X500317Y349237D02*
Y342206D01*
X500317D02*
X500658Y340800D01*
X500658D02*
X501340Y339862D01*
X501340D02*
X502363Y339394D01*
X503045*
X504067Y339862*
X504067D02*
X504749Y340800D01*
X504749D02*
X505090Y342206D01*
X505090D02*
Y349237D01*
X508158D02*
Y339394D01*
X513613Y349237D02*
Y339394D01*
X511226Y349237D02*
X515999D01*
X525204D02*
Y339394D01*
X529976Y349237D02*
Y339394D01*
X525204Y344550D02*
X529976D01*
X533385Y340331D02*
X533045Y339862D01*
X533045D02*
X533385Y339394D01*
X533385D02*
X533726Y339862D01*
X533726D02*
X533385Y340331D01*
X539522Y349237D02*
X536795Y339394D01*
X539522Y349237D02*
X542249Y339394D01*
X537817Y342675D02*
X541226D01*
X545658Y340331D02*
X545317Y339862D01*
X545317D02*
X545658Y339394D01*
X545658D02*
X545999Y339862D01*
X545999D02*
X545658Y340331D01*
X549067Y349237D02*
Y339394D01*
X549067D02*
X553158D01*
X556567Y340331D02*
X556226Y339862D01*
X556226D02*
X556567Y339394D01*
X556567D02*
X556908Y339862D01*
X556908D02*
X556567Y340331D01*
X478158Y326894D02*
X477817Y327831D01*
X477817D02*
X477135Y328769D01*
X477135D02*
X476454Y329237D01*
X476454D02*
X475090D01*
X475090D02*
X474408Y328769D01*
X474408D02*
X473726Y327831D01*
X473726D02*
X473385Y326894D01*
X473385D02*
X473045Y325487D01*
X473045D02*
Y323144D01*
X473385Y321737*
X473385D02*
X473726Y320800D01*
X473726D02*
X474408Y319862D01*
X474408D02*
X475090Y319394D01*
X476454*
X477135Y319862*
X477135D02*
X477817Y320800D01*
X477817D02*
X478158Y321737D01*
X483272Y329237D02*
X482590Y328769D01*
X481908Y327831*
X481908D02*
X481567Y326894D01*
X481567D02*
X481226Y325487D01*
X481226D02*
Y323144D01*
X481226D02*
X481567Y321737D01*
X481567D02*
X481908Y320800D01*
X481908D02*
X482590Y319862D01*
X482590D02*
X483272Y319394D01*
X484635*
X484635D02*
X485317Y319862D01*
X485317D02*
X485999Y320800D01*
X485999D02*
X486340Y321737D01*
X486340D02*
X486681Y323144D01*
Y325487*
X486681D02*
X486340Y326894D01*
X485999Y327831*
X485999D02*
X485317Y328769D01*
X485317D02*
X484635Y329237D01*
X484635D02*
X483272D01*
X489749D02*
Y319394D01*
Y329237D02*
X492817D01*
X492817D02*
X493840Y328769D01*
X494181Y328300*
X494522Y327362*
X494522D02*
Y325956D01*
X494522D02*
X494181Y325019D01*
X493840Y324550*
X492817Y324081*
X492817D02*
X489749D01*
X497590Y329237D02*
Y319394D01*
Y329237D02*
X500658D01*
X500658D02*
X501681Y328769D01*
X502022Y328300*
X502363Y327362*
X502363D02*
Y325956D01*
X502363D02*
X502022Y325019D01*
X501681Y324550*
X500658Y324081*
X500658D02*
X497590D01*
X505431Y329237D02*
Y319394D01*
Y329237D02*
X509863D01*
X505431Y324550D02*
X508158D01*
X505431Y319394D02*
X509863D01*
X512931Y329237D02*
Y319394D01*
Y329237D02*
X515999D01*
X515999D02*
X517022Y328769D01*
X517363Y328300*
X517704Y327362*
X517704D02*
Y326425D01*
X517363Y325487*
X517363D02*
X517022Y325019D01*
X515999Y324550*
X515999D02*
X512931D01*
X515317D02*
X517704Y319394D01*
X529295Y329237D02*
Y319394D01*
X526908Y329237D02*
X531681D01*
X534749D02*
Y319394D01*
Y324081D02*
X535772Y325487D01*
X535772D02*
X536454Y325956D01*
X536454D02*
X537476D01*
X537476D02*
X538158Y325487D01*
X538158D02*
X538499Y324081D01*
X538499D02*
Y319394D01*
X541908Y320331D02*
X541567Y319862D01*
X541567D02*
X541908Y319394D01*
X541908D02*
X542249Y319862D01*
X542249D02*
X541908Y320331D01*
X556226Y329237D02*
X552817Y319394D01*
X551454Y329237D02*
X556226D01*
X561340D02*
X560317Y328769D01*
X560317D02*
X559635Y327362D01*
X559635D02*
X559295Y325019D01*
Y323612*
X559295D02*
X559635Y321269D01*
X559635D02*
X560317Y319862D01*
X560317D02*
X561340Y319394D01*
X562022*
X563045Y319862*
X563045D02*
X563726Y321269D01*
X563726D02*
X564067Y323612D01*
X564067D02*
Y325019D01*
X564067D02*
X563726Y327362D01*
X563726D02*
X563045Y328769D01*
X562022Y329237*
X562022D02*
X561340D01*
X567135Y325956D02*
Y321269D01*
X567135D02*
X567476Y319862D01*
X567476D02*
X568158Y319394D01*
X568158D02*
X569181D01*
X569863Y319862*
X569863D02*
X570885Y321269D01*
Y325956D02*
Y319394D01*
X582476Y331112D02*
X581795Y330175D01*
X581113Y328769*
X580431Y326894*
X580090Y324550*
Y322675*
X580431Y320331*
X580431D02*
X581113Y318456D01*
X581113D02*
X581795Y317050D01*
X582476Y316112*
X585885Y326894D02*
Y327362D01*
X585885D02*
X586226Y328300D01*
X586226D02*
X586567Y328769D01*
X586567D02*
X587249Y329237D01*
X587249D02*
X588613D01*
X588613D02*
X589295Y328769D01*
X589635Y328300*
X589635D02*
X589976Y327362D01*
X589976D02*
Y326425D01*
X589976D02*
X589635Y325487D01*
X589635D02*
X588954Y324081D01*
X588954D02*
X585545Y319394D01*
X590317*
X601567Y329237D02*
X600545Y328769D01*
X599863Y327362*
X599863D02*
X599522Y325019D01*
Y323612*
X599522D02*
X599863Y321269D01*
X600545Y319862*
X600545D02*
X601567Y319394D01*
X601567D02*
X602249D01*
X602249D02*
X603272Y319862D01*
X603272D02*
X603954Y321269D01*
X604295Y323612*
X604295D02*
Y325019D01*
X603954Y327362*
X603954D02*
X603272Y328769D01*
X602249Y329237*
X602249D02*
X601567D01*
X611113Y325956D02*
X607363Y319394D01*
Y325956D02*
X611113D01*
X607363Y319394D02*
X611113D01*
X614181Y331112D02*
X614863Y330175D01*
X615545Y328769*
X616226Y326894*
X616226D02*
X616567Y324550D01*
X616567D02*
Y322675D01*
X616567D02*
X616226Y320331D01*
X616226D02*
X615545Y318456D01*
X615545D02*
X614863Y317050D01*
X614181Y316112*
X175545Y447394D02*
Y436894D01*
Y447394D02*
X178090D01*
X179181Y446894*
X179908Y445894*
X179908D02*
X180272Y444894D01*
X180635Y443394*
X180635D02*
Y440894D01*
X180635D02*
X180272Y439394D01*
X179908Y438394*
X179908D02*
X179181Y437394D01*
X178090Y436894*
X175545*
X183908Y447394D02*
Y436894D01*
Y447394D02*
X188635D01*
X183908Y442394D02*
X186817D01*
X183908Y436894D02*
X188635D01*
X196999Y445894D02*
X196272Y446894D01*
X195181Y447394*
X193726*
X193726D02*
X192635Y446894D01*
X192635D02*
X191908Y445894D01*
X191908D02*
Y444894D01*
X191908D02*
X192272Y443894D01*
X192635Y443394*
X192635D02*
X193363Y442894D01*
X195545Y441894*
X196272Y441394*
X196635Y440894*
X196635D02*
X196999Y439894D01*
X196999D02*
Y438394D01*
X196999D02*
X196272Y437394D01*
X195181Y436894*
X193726*
X193726D02*
X192635Y437394D01*
X192635D02*
X191908Y438394D01*
X205726Y444894D02*
X205363Y445894D01*
X204635Y446894*
X204635D02*
X203908Y447394D01*
X203908D02*
X202454D01*
X201726Y446894*
X201726D02*
X200999Y445894D01*
X200999D02*
X200635Y444894D01*
X200635D02*
X200272Y443394D01*
Y440894*
X200635Y439394*
X200635D02*
X200999Y438394D01*
X200999D02*
X201726Y437394D01*
X201726D02*
X202454Y436894D01*
X203908*
X203908D02*
X204635Y437394D01*
X204635D02*
X205363Y438394D01*
X205726Y439394*
X208999Y447394D02*
Y436894D01*
Y447394D02*
X212272D01*
X213363Y446894*
X213726Y446394*
X213726D02*
X214090Y445394D01*
Y444394*
X213726Y443394*
X213726D02*
X213363Y442894D01*
X212272Y442394*
X208999*
X211545D02*
X214090Y436894D01*
X217363Y447394D02*
Y436894D01*
X220635Y447394D02*
Y436894D01*
Y447394D02*
X223908D01*
X223908D02*
X224999Y446894D01*
X224999D02*
X225363Y446394D01*
X225726Y445394*
X225726D02*
Y443894D01*
X225726D02*
X225363Y442894D01*
X224999Y442394*
X224999D02*
X223908Y441894D01*
X223908D02*
X220635D01*
X231545Y447394D02*
Y436894D01*
X228999Y447394D02*
X234090D01*
X237363D02*
Y436894D01*
X242817Y447394D02*
X242090Y446894D01*
X241363Y445894*
X240999Y444894*
X240999D02*
X240635Y443394D01*
X240635D02*
Y440894D01*
X240635D02*
X240999Y439394D01*
X240999D02*
X241363Y438394D01*
X242090Y437394*
X242817Y436894*
X242817D02*
X244272D01*
X244999Y437394*
X244999D02*
X245726Y438394D01*
X245726D02*
X246090Y439394D01*
X246454Y440894*
Y443394*
X246090Y444894*
X245726Y445894*
X245726D02*
X244999Y446894D01*
X244999D02*
X244272Y447394D01*
X242817*
X249726D02*
Y436894D01*
Y447394D02*
X254817Y436894D01*
Y447394D02*
Y436894D01*
X473045Y444237D02*
Y434394D01*
Y444237D02*
X477817Y434394D01*
Y444237D02*
Y434394D01*
X485999Y441894D02*
X485658Y442831D01*
X485658D02*
X484976Y443769D01*
X484976D02*
X484295Y444237D01*
X484295D02*
X482931D01*
X482931D02*
X482249Y443769D01*
X482249D02*
X481567Y442831D01*
X481567D02*
X481226Y441894D01*
X481226D02*
X480885Y440487D01*
X480885D02*
Y438144D01*
X480885D02*
X481226Y436737D01*
X481226D02*
X481567Y435800D01*
X481567D02*
X482249Y434862D01*
X482249D02*
X482931Y434394D01*
X484295*
X484976Y434862*
X484976D02*
X485658Y435800D01*
X485658D02*
X485999Y436737D01*
X489067Y444237D02*
Y434394D01*
Y444237D02*
X491454D01*
X491454D02*
X492476Y443769D01*
X492476D02*
X493158Y442831D01*
X493158D02*
X493499Y441894D01*
X493499D02*
X493840Y440487D01*
X493840D02*
Y438144D01*
X493499Y436737*
X493499D02*
X493158Y435800D01*
X493158D02*
X492476Y434862D01*
X492476D02*
X491454Y434394D01*
X489067*
X496908Y444237D02*
Y434394D01*
Y444237D02*
X499976D01*
X499976D02*
X500999Y443769D01*
X500999D02*
X501340Y443300D01*
X501681Y442362*
X501681D02*
Y441425D01*
X501340Y440487*
X501340D02*
X500999Y440019D01*
X500999D02*
X499976Y439550D01*
X499976D02*
X496908D01*
X499295D02*
X501681Y434394D01*
X504749Y444237D02*
Y434394D01*
X507817Y444237D02*
Y434394D01*
X507817D02*
X511908D01*
X514976Y444237D02*
Y434394D01*
X514976D02*
X519067D01*
X522135Y438612D02*
X528272D01*
X531340Y444237D02*
Y434394D01*
Y444237D02*
X533726D01*
X533726D02*
X534749Y443769D01*
X534749D02*
X535431Y442831D01*
X535431D02*
X535772Y441894D01*
X536113Y440487*
X536113D02*
Y438144D01*
X535772Y436737*
X535772D02*
X535431Y435800D01*
X534749Y434862*
X534749D02*
X533726Y434394D01*
X533726D02*
X531340D01*
X539181Y444237D02*
Y434394D01*
Y444237D02*
X542249D01*
X542249D02*
X543272Y443769D01*
X543613Y443300*
X543954Y442362*
X543954D02*
Y441425D01*
X543613Y440487*
X543613D02*
X543272Y440019D01*
X542249Y439550*
X542249D02*
X539181D01*
X541567D02*
X543954Y434394D01*
X547022Y444237D02*
X548726Y434394D01*
X550431Y444237D02*
X548726Y434394D01*
X550431Y444237D02*
X552135Y434394D01*
X553840Y444237D02*
X552135Y434394D01*
X565772Y444237D02*
X563045Y434394D01*
X565772Y444237D02*
X568499Y434394D01*
X564067Y437675D02*
X567476D01*
X571567Y444237D02*
Y434394D01*
Y444237D02*
X576340Y434394D01*
Y444237D02*
Y434394D01*
X579408Y444237D02*
Y434394D01*
Y444237D02*
X581795D01*
X581795D02*
X582817Y443769D01*
X582817D02*
X583499Y442831D01*
X583499D02*
X583840Y441894D01*
X584181Y440487*
X584181D02*
Y438144D01*
X583840Y436737*
X583840D02*
X583499Y435800D01*
X583499D02*
X582817Y434862D01*
X582817D02*
X581795Y434394D01*
X579408*
X593385Y444237D02*
Y434394D01*
Y444237D02*
X596454D01*
X596454D02*
X597476Y443769D01*
X597476D02*
X597817Y443300D01*
X597817D02*
X598158Y442362D01*
X598158D02*
Y440956D01*
X598158D02*
X597817Y440019D01*
X597817D02*
X597476Y439550D01*
X597476D02*
X596454Y439081D01*
X596454D02*
X593385D01*
X606340Y441894D02*
X605999Y442831D01*
X605999D02*
X605317Y443769D01*
X605317D02*
X604635Y444237D01*
X604635D02*
X603272D01*
X603272D02*
X602590Y443769D01*
X601908Y442831*
X601908D02*
X601567Y441894D01*
X601567D02*
X601226Y440487D01*
X601226D02*
Y438144D01*
X601226D02*
X601567Y436737D01*
X601567D02*
X601908Y435800D01*
X601908D02*
X602590Y434862D01*
X602590D02*
X603272Y434394D01*
X604635*
X604635D02*
X605317Y434862D01*
X605317D02*
X605999Y435800D01*
X605999D02*
X606340Y436737D01*
X609408Y444237D02*
Y434394D01*
Y444237D02*
X612476D01*
X612476D02*
X613499Y443769D01*
X613499D02*
X613840Y443300D01*
X614181Y442362*
X614181D02*
Y441425D01*
X613840Y440487*
X613840D02*
X613499Y440019D01*
X613499D02*
X612476Y439550D01*
X609408D02*
X612476D01*
X612476D02*
X613499Y439081D01*
X613499D02*
X613840Y438612D01*
X613840D02*
X614181Y437675D01*
Y436269*
X613840Y435331*
X613840D02*
X613499Y434862D01*
X613499D02*
X612476Y434394D01*
X612476D02*
X609408D01*
X623385Y444237D02*
Y434394D01*
Y444237D02*
X625772D01*
X625772D02*
X626795Y443769D01*
X627476Y442831*
X627476D02*
X627817Y441894D01*
X627817D02*
X628158Y440487D01*
X628158D02*
Y438144D01*
X628158D02*
X627817Y436737D01*
X627817D02*
X627476Y435800D01*
X627476D02*
X626795Y434862D01*
X626795D02*
X625772Y434394D01*
X623385*
X631226Y444237D02*
Y434394D01*
X634295Y444237D02*
Y434394D01*
Y444237D02*
X637022Y434394D01*
X639749Y444237D02*
X637022Y434394D01*
X639749Y444237D02*
Y434394D01*
X642817Y444237D02*
Y434394D01*
Y444237D02*
X647249D01*
X642817Y439550D02*
X645545D01*
X642817Y434394D02*
X647249D01*
X650317Y444237D02*
Y434394D01*
Y444237D02*
X655090Y434394D01*
Y444237D02*
Y434394D01*
X662931Y442831D02*
X662249Y443769D01*
X662249D02*
X661226Y444237D01*
X661226D02*
X659863D01*
X659863D02*
X658840Y443769D01*
X658158Y442831*
X658158D02*
Y441894D01*
X658158D02*
X658499Y440956D01*
X658499D02*
X658840Y440487D01*
X658840D02*
X659522Y440019D01*
X661567Y439081*
X661567D02*
X662249Y438612D01*
X662249D02*
X662590Y438144D01*
X662931Y437206*
X662931D02*
Y435800D01*
X662249Y434862*
X662249D02*
X661226Y434394D01*
X661226D02*
X659863D01*
X658840Y434862*
X658840D02*
X658158Y435800D01*
X665999Y444237D02*
Y434394D01*
X671113Y444237D02*
X670431Y443769D01*
X669749Y442831*
X669749D02*
X669408Y441894D01*
X669408D02*
X669067Y440487D01*
X669067D02*
Y438144D01*
X669067D02*
X669408Y436737D01*
X669408D02*
X669749Y435800D01*
X669749D02*
X670431Y434862D01*
X670431D02*
X671113Y434394D01*
X672476*
X672476D02*
X673158Y434862D01*
X673158D02*
X673840Y435800D01*
X674181Y436737*
X674181D02*
X674522Y438144D01*
Y440487*
X674522D02*
X674181Y441894D01*
X673840Y442831*
X673840D02*
X673158Y443769D01*
X673158D02*
X672476Y444237D01*
X672476D02*
X671113D01*
X677590D02*
Y434394D01*
Y444237D02*
X682363Y434394D01*
Y444237D02*
Y434394D01*
X473045Y426737D02*
Y416894D01*
Y426737D02*
X477817Y416894D01*
Y426737D02*
Y416894D01*
X485999Y424394D02*
X485658Y425331D01*
X485658D02*
X484976Y426269D01*
X484976D02*
X484295Y426737D01*
X484295D02*
X482931D01*
X482931D02*
X482249Y426269D01*
X482249D02*
X481567Y425331D01*
X481567D02*
X481226Y424394D01*
X481226D02*
X480885Y422987D01*
X480885D02*
Y420644D01*
X480885D02*
X481226Y419237D01*
X481226D02*
X481567Y418300D01*
X481567D02*
X482249Y417362D01*
X482249D02*
X482931Y416894D01*
X484295*
X484976Y417362*
X484976D02*
X485658Y418300D01*
X485658D02*
X485999Y419237D01*
X489067Y426737D02*
Y416894D01*
Y426737D02*
X491454D01*
X491454D02*
X492476Y426269D01*
X492476D02*
X493158Y425331D01*
X493158D02*
X493499Y424394D01*
X493499D02*
X493840Y422987D01*
X493840D02*
Y420644D01*
X493499Y419237*
X493499D02*
X493158Y418300D01*
X493158D02*
X492476Y417362D01*
X492476D02*
X491454Y416894D01*
X489067*
X496908Y426737D02*
Y416894D01*
Y426737D02*
X499976D01*
X499976D02*
X500999Y426269D01*
X500999D02*
X501340Y425800D01*
X501681Y424862*
X501681D02*
Y423925D01*
X501340Y422987*
X501340D02*
X500999Y422519D01*
X500999D02*
X499976Y422050D01*
X499976D02*
X496908D01*
X499295D02*
X501681Y416894D01*
X504749Y426737D02*
Y416894D01*
X507817Y426737D02*
Y416894D01*
X507817D02*
X511908D01*
X514976Y426737D02*
Y416894D01*
X514976D02*
X519067D01*
X530658Y426737D02*
Y416894D01*
X528272Y426737D02*
X533045D01*
X538840D02*
X536113Y416894D01*
X538840Y426737D02*
X541567Y416894D01*
X537135Y420175D02*
X540545D01*
X544635Y426737D02*
Y416894D01*
Y426737D02*
X547704D01*
X547704D02*
X548726Y426269D01*
X548726D02*
X549067Y425800D01*
X549067D02*
X549408Y424862D01*
X549408D02*
Y423456D01*
X549408D02*
X549067Y422519D01*
X549067D02*
X548726Y422050D01*
X548726D02*
X547704Y421581D01*
X547704D02*
X544635D01*
X552476Y426737D02*
Y416894D01*
Y426737D02*
X556908D01*
X552476Y422050D02*
X555204D01*
X552476Y416894D02*
X556908D01*
X560317Y423456D02*
X559976Y422987D01*
X559976D02*
X560317Y422519D01*
X560317D02*
X560658Y422987D01*
X560658D02*
X560317Y423456D01*
Y417831D02*
X559976Y417362D01*
X559976D02*
X560317Y416894D01*
X560317D02*
X560658Y417362D01*
X560658D02*
X560317Y417831D01*
X569863Y426737D02*
Y416894D01*
Y426737D02*
X572249D01*
X572249D02*
X573272Y426269D01*
X573954Y425331*
X573954D02*
X574295Y424394D01*
X574635Y422987*
X574635D02*
Y420644D01*
X574635D02*
X574295Y419237D01*
X574295D02*
X573954Y418300D01*
X573272Y417362*
X573272D02*
X572249Y416894D01*
X572249D02*
X569863D01*
X577704Y426737D02*
Y416894D01*
Y426737D02*
X580772D01*
X580772D02*
X581795Y426269D01*
X582135Y425800*
X582135D02*
X582476Y424862D01*
X582476D02*
Y423925D01*
X582476D02*
X582135Y422987D01*
X582135D02*
X581795Y422519D01*
X580772Y422050*
X577704*
X580090D02*
X582476Y416894D01*
X585545Y426737D02*
Y416894D01*
X588613Y426737D02*
Y416894D01*
X592704*
X595772Y426737D02*
Y416894D01*
X599863*
X603272Y417831D02*
X602931Y417362D01*
X602931D02*
X603272Y416894D01*
X603613Y417362*
X603613D02*
X603272Y417831D01*
X606681Y426737D02*
Y416894D01*
Y426737D02*
X609067D01*
X609067D02*
X610090Y426269D01*
X610772Y425331*
X610772D02*
X611113Y424394D01*
X611454Y422987*
X611454D02*
Y420644D01*
X611113Y419237*
X611113D02*
X610772Y418300D01*
X610090Y417362*
X610090D02*
X609067Y416894D01*
X609067D02*
X606681D01*
X614522Y426737D02*
Y416894D01*
Y426737D02*
X617590D01*
X617590D02*
X618613Y426269D01*
X618954Y425800*
X619295Y424862*
X619295D02*
Y423925D01*
X618954Y422987*
X618954D02*
X618613Y422519D01*
X617590Y422050*
X614522*
X616908D02*
X619295Y416894D01*
X622363Y426737D02*
Y416894D01*
X626454*
X284340Y82087D02*
X283317Y81619D01*
X283317D02*
X282635Y80212D01*
X282635D02*
X282295Y77869D01*
Y76462*
X282295D02*
X282635Y74119D01*
X282635D02*
X283317Y72712D01*
X283317D02*
X284340Y72244D01*
X285022*
X286045Y72712*
X286045D02*
X286726Y74119D01*
X286726D02*
X287067Y76462D01*
X287067D02*
Y77869D01*
X287067D02*
X286726Y80212D01*
X286726D02*
X286045Y81619D01*
X285022Y82087*
X285022D02*
X284340D01*
X293545D02*
X290135Y75525D01*
X290135D02*
X295249D01*
X293545Y82087D02*
Y72244D01*
X298658Y73181D02*
X298317Y72712D01*
X298317D02*
X298658Y72244D01*
X298658D02*
X298999Y72712D01*
X298999D02*
X298658Y73181D01*
X302067Y80212D02*
X302749Y80681D01*
X302749D02*
X303772Y82087D01*
X303772D02*
Y72244D01*
X308885Y82087D02*
X307863Y81619D01*
X307181Y80212*
X307181D02*
X306840Y77869D01*
Y76462*
X306840D02*
X307181Y74119D01*
X307863Y72712*
X307863D02*
X308885Y72244D01*
X308885D02*
X309567D01*
X309567D02*
X310590Y72712D01*
X310590D02*
X311272Y74119D01*
X311613Y76462*
X311613D02*
Y77869D01*
X311272Y80212*
X311272D02*
X310590Y81619D01*
X309567Y82087*
X309567D02*
X308885D01*
X315022Y73181D02*
X314681Y72712D01*
X314681D02*
X315022Y72244D01*
X315363Y72712*
X315363D02*
X315022Y73181D01*
X320476Y82087D02*
X319454Y81619D01*
X318772Y80212*
X318772D02*
X318431Y77869D01*
Y76462*
X318431D02*
X318772Y74119D01*
X319454Y72712*
X319454D02*
X320476Y72244D01*
X320476D02*
X321158D01*
X321158D02*
X322181Y72712D01*
X322181D02*
X322863Y74119D01*
X323204Y76462*
X323204D02*
Y77869D01*
X322863Y80212*
X322863D02*
X322181Y81619D01*
X321158Y82087*
X321158D02*
X320476D01*
X328317D02*
X327295Y81619D01*
X326613Y80212*
X326613D02*
X326272Y77869D01*
Y76462*
X326272D02*
X326613Y74119D01*
X327295Y72712*
X327295D02*
X328317Y72244D01*
X328317D02*
X328999D01*
X328999D02*
X330022Y72712D01*
X330022D02*
X330704Y74119D01*
X331045Y76462*
X331045D02*
Y77869D01*
X330704Y80212*
X330704D02*
X330022Y81619D01*
X328999Y82087*
X328999D02*
X328317D01*
X439795Y189587D02*
Y179744D01*
Y189587D02*
X442181D01*
X442181D02*
X443204Y189119D01*
X443885Y188181*
X443885D02*
X444226Y187244D01*
X444226D02*
X444567Y185837D01*
X444567D02*
Y183494D01*
X444567D02*
X444226Y182087D01*
X444226D02*
X443885Y181150D01*
X443885D02*
X443204Y180212D01*
X443204D02*
X442181Y179744D01*
X439795*
X447635Y189587D02*
Y179744D01*
Y189587D02*
X450704D01*
X450704D02*
X451726Y189119D01*
X451726D02*
X452067Y188650D01*
X452067D02*
X452408Y187712D01*
X452408D02*
Y186775D01*
X452408D02*
X452067Y185837D01*
X452067D02*
X451726Y185369D01*
X451726D02*
X450704Y184900D01*
X447635*
X450022D02*
X452408Y179744D01*
X455476Y189587D02*
Y179744D01*
X458545Y189587D02*
Y179744D01*
X462635*
X465704Y189587D02*
Y179744D01*
X469795*
X478999Y189587D02*
Y179744D01*
Y189587D02*
X481385D01*
X481385D02*
X482408Y189119D01*
X482408D02*
X483090Y188181D01*
X483090D02*
X483431Y187244D01*
X483772Y185837*
X483772D02*
Y183494D01*
X483431Y182087*
X483431D02*
X483090Y181150D01*
X482408Y180212*
X482408D02*
X481385Y179744D01*
X481385D02*
X478999D01*
X486840Y189587D02*
Y179744D01*
Y189587D02*
X489908D01*
X489908D02*
X490931Y189119D01*
X491272Y188650*
X491613Y187712*
X491613D02*
Y186775D01*
X491272Y185837*
X491272D02*
X490931Y185369D01*
X489908Y184900*
X489908D02*
X486840D01*
X489226D02*
X491613Y179744D01*
X497408Y189587D02*
X494681Y179744D01*
X497408Y189587D02*
X500135Y179744D01*
X495704Y183025D02*
X499113D01*
X503204Y189587D02*
X504908Y179744D01*
X506613Y189587D02*
X504908Y179744D01*
X506613Y189587D02*
X508317Y179744D01*
X510022Y189587D02*
X508317Y179744D01*
X513090Y189587D02*
Y179744D01*
X516158Y189587D02*
Y179744D01*
Y189587D02*
X520931Y179744D01*
Y189587D02*
Y179744D01*
X529113Y187244D02*
X528772Y188181D01*
X528772D02*
X528090Y189119D01*
X527408Y189587*
X527408D02*
X526045D01*
X526045D02*
X525363Y189119D01*
X524681Y188181*
X524681D02*
X524340Y187244D01*
X523999Y185837*
X523999D02*
Y183494D01*
X523999D02*
X524340Y182087D01*
X524340D02*
X524681Y181150D01*
X525363Y180212*
X525363D02*
X526045Y179744D01*
X527408*
X527408D02*
X528090Y180212D01*
X528090D02*
X528772Y181150D01*
X529113Y182087*
X529113D02*
Y183494D01*
X527408D02*
X529113D01*
X720226Y187487D02*
X716817D01*
X716817D02*
X716476Y183269D01*
X716476D02*
X716817Y183737D01*
X716817D02*
X717840Y184206D01*
X717840D02*
X718863D01*
X718863D02*
X719885Y183737D01*
X719885D02*
X720567Y182800D01*
X720567D02*
X720908Y181394D01*
X720908D02*
X720567Y180456D01*
X720567D02*
X720226Y179050D01*
X720226D02*
X719545Y178112D01*
X719545D02*
X718522Y177644D01*
X717499*
X717499D02*
X716476Y178112D01*
X716476D02*
X716135Y178581D01*
X716135D02*
X715795Y179519D01*
X724317Y178581D02*
X723976Y178112D01*
X723976D02*
X724317Y177644D01*
X724317D02*
X724658Y178112D01*
X724658D02*
X724317Y178581D01*
X727726Y185612D02*
X728408Y186081D01*
X728408D02*
X729431Y187487D01*
X729431D02*
Y177644D01*
X732840Y178581D02*
X732499Y178112D01*
X732499D02*
X732840Y177644D01*
X733181Y178112*
X733181D02*
X732840Y178581D01*
X738295Y187487D02*
X737272Y187019D01*
X736590Y185612*
X736590D02*
X736249Y183269D01*
X736249D02*
Y181862D01*
X736249D02*
X736590Y179519D01*
X737272Y178112*
X737272D02*
X738295Y177644D01*
X738976*
X738976D02*
X739999Y178112D01*
X739999D02*
X740681Y179519D01*
X741022Y181862*
X741022D02*
Y183269D01*
X740681Y185612*
X740681D02*
X739999Y187019D01*
X739999D02*
X738976Y187487D01*
X738976D02*
X738295D01*
X748863D02*
X745454Y177644D01*
X744090Y187487D02*
X748863D01*
X754658D02*
X751931Y177644D01*
X754658Y187487D02*
X757385Y177644D01*
X752954Y180925D02*
X756363D01*
X407295Y213987D02*
Y204144D01*
X411385*
X418545Y212581D02*
X418204Y213519D01*
X417181Y213987*
X417181D02*
X416499D01*
X416499D02*
X415476Y213519D01*
X415476D02*
X414795Y212112D01*
X414795D02*
X414454Y209769D01*
Y207425*
X414795Y205550*
X415476Y204612*
X415476D02*
X416499Y204144D01*
X416499D02*
X416840D01*
X417863Y204612*
X417863D02*
X418545Y205550D01*
X418885Y206956*
X418885D02*
Y207425D01*
X418885D02*
X418545Y208831D01*
X418545D02*
X417863Y209769D01*
X416840Y210237*
X416840D02*
X416499D01*
X416499D02*
X415476Y209769D01*
X415476D02*
X414795Y208831D01*
X414795D02*
X414454Y207425D01*
X422295Y211644D02*
Y212112D01*
X422295D02*
X422635Y213050D01*
X422635D02*
X422976Y213519D01*
X422976D02*
X423658Y213987D01*
X423658D02*
X425022D01*
X425022D02*
X425704Y213519D01*
X426045Y213050*
X426385Y212112*
X426385D02*
Y211175D01*
X426385D02*
X426045Y210237D01*
X426045D02*
X425363Y208831D01*
X425363D02*
X421954Y204144D01*
X426726*
X431840Y213987D02*
X430817Y213519D01*
X430817D02*
X430135Y212112D01*
X430135D02*
X429795Y209769D01*
Y208362*
X429795D02*
X430135Y206019D01*
X430135D02*
X430817Y204612D01*
X430817D02*
X431840Y204144D01*
X432522*
X433545Y204612*
X433545D02*
X434226Y206019D01*
X434226D02*
X434567Y208362D01*
X434567D02*
Y209769D01*
X434567D02*
X434226Y212112D01*
X434226D02*
X433545Y213519D01*
X432522Y213987*
X432522D02*
X431840D01*
X441726Y212581D02*
X441385Y213519D01*
X441385D02*
X440363Y213987D01*
X440363D02*
X439681D01*
X439681D02*
X438658Y213519D01*
X438658D02*
X437976Y212112D01*
X437976D02*
X437635Y209769D01*
X437635D02*
Y207425D01*
X437635D02*
X437976Y205550D01*
X437976D02*
X438658Y204612D01*
X438658D02*
X439681Y204144D01*
X440022*
X441045Y204612*
X441045D02*
X441726Y205550D01*
X441726D02*
X442067Y206956D01*
X442067D02*
Y207425D01*
X442067D02*
X441726Y208831D01*
X441726D02*
X441045Y209769D01*
X440022Y210237*
X440022D02*
X439681D01*
X439681D02*
X438658Y209769D01*
X438658D02*
X437976Y208831D01*
X437976D02*
X437635Y207425D01*
X457408Y213987D02*
Y204144D01*
Y213987D02*
X461840D01*
X457408Y209300D02*
X460135D01*
X457408Y204144D02*
X461840D01*
X464908Y213987D02*
X467635Y204144D01*
X470363Y213987D02*
X467635Y204144D01*
X476158Y213987D02*
X473431Y204144D01*
X476158Y213987D02*
X478885Y204144D01*
X474454Y207425D02*
X477863D01*
X481954Y213987D02*
Y204144D01*
X486045*
X489113Y213987D02*
Y206956D01*
X489113D02*
X489454Y205550D01*
X490135Y204612*
X490135D02*
X491158Y204144D01*
X491158D02*
X491840D01*
X492863Y204612*
X492863D02*
X493545Y205550D01*
X493885Y206956*
X493885D02*
Y213987D01*
X499681D02*
X496954Y204144D01*
X499681Y213987D02*
X502408Y204144D01*
X497976Y207425D02*
X501385D01*
X507863Y213987D02*
Y204144D01*
X505476Y213987D02*
X510249D01*
X513317D02*
Y204144D01*
X518431Y213987D02*
X517749Y213519D01*
X517749D02*
X517067Y212581D01*
X517067D02*
X516726Y211644D01*
X516726D02*
X516385Y210237D01*
X516385D02*
Y207894D01*
X516385D02*
X516726Y206487D01*
X516726D02*
X517067Y205550D01*
X517067D02*
X517749Y204612D01*
X517749D02*
X518431Y204144D01*
X519795*
X520476Y204612*
X520476D02*
X521158Y205550D01*
X521158D02*
X521499Y206487D01*
X521499D02*
X521840Y207894D01*
Y210237*
X521840D02*
X521499Y211644D01*
X521499D02*
X521158Y212581D01*
X521158D02*
X520476Y213519D01*
X520476D02*
X519795Y213987D01*
X519795D02*
X518431D01*
X524908D02*
Y204144D01*
Y213987D02*
X529681Y204144D01*
Y213987D02*
Y204144D01*
X538885Y213987D02*
Y204144D01*
Y213987D02*
X541954D01*
X541954D02*
X542976Y213519D01*
X542976D02*
X543317Y213050D01*
X543317D02*
X543658Y212112D01*
X543658D02*
Y211175D01*
X543658D02*
X543317Y210237D01*
X543317D02*
X542976Y209769D01*
X542976D02*
X541954Y209300D01*
X538885D02*
X541954D01*
X542976Y208831*
X542976D02*
X543317Y208362D01*
X543317D02*
X543658Y207425D01*
X543658D02*
Y206019D01*
X543658D02*
X543317Y205081D01*
X543317D02*
X542976Y204612D01*
X542976D02*
X541954Y204144D01*
X538885*
X548772Y213987D02*
X548090Y213519D01*
X547408Y212581*
X547408D02*
X547067Y211644D01*
X547067D02*
X546726Y210237D01*
X546726D02*
Y207894D01*
X546726D02*
X547067Y206487D01*
X547067D02*
X547408Y205550D01*
X547408D02*
X548090Y204612D01*
X548090D02*
X548772Y204144D01*
X550135*
X550135D02*
X550817Y204612D01*
X550817D02*
X551499Y205550D01*
X551499D02*
X551840Y206487D01*
X551840D02*
X552181Y207894D01*
Y210237*
X552181D02*
X551840Y211644D01*
X551499Y212581*
X551499D02*
X550817Y213519D01*
X550817D02*
X550135Y213987D01*
X550135D02*
X548772D01*
X557976D02*
X555249Y204144D01*
X557976Y213987D02*
X560704Y204144D01*
X556272Y207425D02*
X559681D01*
X563772Y213987D02*
Y204144D01*
Y213987D02*
X566840D01*
X566840D02*
X567863Y213519D01*
X568204Y213050*
X568545Y212112*
X568545D02*
Y211175D01*
X568204Y210237*
X568204D02*
X567863Y209769D01*
X566840Y209300*
X563772*
X566158D02*
X568545Y204144D01*
X571613Y213987D02*
Y204144D01*
Y213987D02*
X573999D01*
X573999D02*
X575022Y213519D01*
X575704Y212581*
X575704D02*
X576045Y211644D01*
X576385Y210237*
X576385D02*
Y207894D01*
X576385D02*
X576045Y206487D01*
X576045D02*
X575704Y205550D01*
X575022Y204612*
X575022D02*
X573999Y204144D01*
X573999D02*
X571613D01*
X579454Y208362D02*
X585590D01*
X593431Y212581D02*
X592749Y213519D01*
X592749D02*
X591726Y213987D01*
X591726D02*
X590363D01*
X590363D02*
X589340Y213519D01*
X588658Y212581*
X588658D02*
Y211644D01*
X588658D02*
X588999Y210706D01*
X588999D02*
X589340Y210237D01*
X589340D02*
X590022Y209769D01*
X592067Y208831*
X592067D02*
X592749Y208362D01*
X592749D02*
X593090Y207894D01*
X593431Y206956*
X593431D02*
Y205550D01*
X592749Y204612*
X592749D02*
X591726Y204144D01*
X591726D02*
X590363D01*
X589340Y204612*
X589340D02*
X588658Y205550D01*
X596499Y213987D02*
Y204144D01*
Y213987D02*
X599226Y204144D01*
X601954Y213987D02*
X599226Y204144D01*
X601954Y213987D02*
Y204144D01*
X605022Y213987D02*
Y204144D01*
Y213987D02*
X607408D01*
X607408D02*
X608431Y213519D01*
X609113Y212581*
X609113D02*
X609454Y211644D01*
X609795Y210237*
X609795D02*
Y207894D01*
X609454Y206487*
X609454D02*
X609113Y205550D01*
X608431Y204612*
X608431D02*
X607408Y204144D01*
X607408D02*
X605022D01*
X739976Y444237D02*
X736567D01*
X736567D02*
X736226Y440019D01*
X736226D02*
X736567Y440487D01*
X736567D02*
X737590Y440956D01*
X737590D02*
X738613D01*
X738613D02*
X739635Y440487D01*
X739635D02*
X740317Y439550D01*
X740317D02*
X740658Y438144D01*
X740658D02*
X740317Y437206D01*
X740317D02*
X739976Y435800D01*
X739976D02*
X739295Y434862D01*
X739295D02*
X738272Y434394D01*
X737249*
X737249D02*
X736226Y434862D01*
X736226D02*
X735885Y435331D01*
X735885D02*
X735545Y436269D01*
X744067Y435331D02*
X743726Y434862D01*
X743726D02*
X744067Y434394D01*
X744067D02*
X744408Y434862D01*
X744408D02*
X744067Y435331D01*
X747476Y442362D02*
X748158Y442831D01*
X748158D02*
X749181Y444237D01*
X749181D02*
Y434394D01*
X752590Y435331D02*
X752249Y434862D01*
X752249D02*
X752590Y434394D01*
X752931Y434862*
X752931D02*
X752590Y435331D01*
X758045Y444237D02*
X757022Y443769D01*
X756340Y442362*
X756340D02*
X755999Y440019D01*
X755999D02*
Y438612D01*
X755999D02*
X756340Y436269D01*
X757022Y434862*
X757022D02*
X758045Y434394D01*
X758726*
X758726D02*
X759749Y434862D01*
X759749D02*
X760431Y436269D01*
X760772Y438612*
X760772D02*
Y440019D01*
X760431Y442362*
X760431D02*
X759749Y443769D01*
X759749D02*
X758726Y444237D01*
X758726D02*
X758045D01*
X768613D02*
X765204Y434394D01*
X763840Y444237D02*
X768613D01*
X774408D02*
X771681Y434394D01*
X774408Y444237D02*
X777135Y434394D01*
X772704Y437675D02*
X776113D01*
X786340Y444237D02*
Y434394D01*
Y444237D02*
X790772D01*
X786340Y439550D02*
X789067D01*
X786340Y434394D02*
X790772D01*
X793840Y444237D02*
Y434394D01*
Y444237D02*
X796226D01*
X796226D02*
X797249Y443769D01*
X797249D02*
X797931Y442831D01*
X797931D02*
X798272Y441894D01*
X798613Y440487*
X798613D02*
Y438144D01*
X798272Y436737*
X798272D02*
X797931Y435800D01*
X797249Y434862*
X797249D02*
X796226Y434394D01*
X796226D02*
X793840D01*
X801681Y442362D02*
X802363Y442831D01*
X802363D02*
X803385Y444237D01*
X803385D02*
Y434394D01*
X474817Y306931D02*
X474135Y307869D01*
X474135D02*
X473113Y308337D01*
X473113D02*
X471749D01*
X471749D02*
X470726Y307869D01*
X470726D02*
X470045Y306931D01*
X470045D02*
Y305994D01*
X470385Y305056*
X470385D02*
X470726Y304587D01*
X470726D02*
X471408Y304119D01*
X471408D02*
X473454Y303181D01*
X473454D02*
X474135Y302712D01*
X474135D02*
X474476Y302244D01*
X474476D02*
X474817Y301306D01*
X474817D02*
Y299900D01*
X474817D02*
X474135Y298962D01*
X474135D02*
X473113Y298494D01*
X471749*
X471749D02*
X470726Y298962D01*
X470726D02*
X470045Y299900D01*
X477885Y308337D02*
Y298494D01*
Y308337D02*
X482317D01*
X477885Y303650D02*
X480613D01*
X477885Y298494D02*
X482317D01*
X485385Y308337D02*
Y298494D01*
Y308337D02*
X489817D01*
X485385Y303650D02*
X488113D01*
X485385Y298494D02*
X489817D01*
X499022Y308337D02*
Y298494D01*
Y308337D02*
X503454D01*
X499022Y303650D02*
X501749D01*
X506522Y308337D02*
Y298494D01*
X509590Y308337D02*
Y298494D01*
X513681*
X516749Y308337D02*
Y298494D01*
Y308337D02*
X519476Y298494D01*
X522204Y308337D02*
X519476Y298494D01*
X522204Y308337D02*
Y298494D01*
X530045Y306931D02*
X529363Y307869D01*
X528340Y308337*
X528340D02*
X526976D01*
X526976D02*
X525954Y307869D01*
X525272Y306931*
X525272D02*
Y305994D01*
X525613Y305056*
X525613D02*
X525954Y304587D01*
X525954D02*
X526635Y304119D01*
X526635D02*
X528681Y303181D01*
X528681D02*
X529363Y302712D01*
X529363D02*
X529704Y302244D01*
X530045Y301306*
X530045D02*
Y299900D01*
X529363Y298962*
X529363D02*
X528340Y298494D01*
X526976*
X526976D02*
X525954Y298962D01*
X525954D02*
X525272Y299900D01*
X539249Y308337D02*
Y298494D01*
Y308337D02*
X541635D01*
X541635D02*
X542658Y307869D01*
X542658D02*
X543340Y306931D01*
X543340D02*
X543681Y305994D01*
X544022Y304587*
X544022D02*
Y302244D01*
X543681Y300837*
X543681D02*
X543340Y299900D01*
X542658Y298962*
X542658D02*
X541635Y298494D01*
X541635D02*
X539249D01*
X549135Y308337D02*
X548454Y307869D01*
X547772Y306931*
X547772D02*
X547431Y305994D01*
X547090Y304587*
X547090D02*
Y302244D01*
X547431Y300837*
X547431D02*
X547772Y299900D01*
X548454Y298962*
X548454D02*
X549135Y298494D01*
X549135D02*
X550499D01*
X550499D02*
X551181Y298962D01*
X551181D02*
X551863Y299900D01*
X552204Y300837*
X552204D02*
X552545Y302244D01*
Y304587*
X552545D02*
X552204Y305994D01*
X551863Y306931*
X551863D02*
X551181Y307869D01*
X550499Y308337*
X550499D02*
X549135D01*
X560726Y305994D02*
X560385Y306931D01*
X560385D02*
X559704Y307869D01*
X559022Y308337*
X559022D02*
X557658D01*
X557658D02*
X556976Y307869D01*
X556976D02*
X556295Y306931D01*
X556295D02*
X555954Y305994D01*
X555613Y304587*
X555613D02*
Y302244D01*
X555954Y300837*
X555954D02*
X556295Y299900D01*
X556976Y298962*
X556976D02*
X557658Y298494D01*
X557658D02*
X559022D01*
X559704Y298962*
X559704D02*
X560385Y299900D01*
X560385D02*
X560726Y300837D01*
X563795Y308337D02*
Y301306D01*
X563795D02*
X564135Y299900D01*
X564135D02*
X564817Y298962D01*
X564817D02*
X565840Y298494D01*
X566522*
X567545Y298962*
X567545D02*
X568226Y299900D01*
X568226D02*
X568567Y301306D01*
X568567D02*
Y308337D01*
X571635D02*
Y298494D01*
Y308337D02*
X574363Y298494D01*
X577090Y308337D02*
X574363Y298494D01*
X577090Y308337D02*
Y298494D01*
X580158Y308337D02*
Y298494D01*
Y308337D02*
X584590D01*
X580158Y303650D02*
X582885D01*
X580158Y298494D02*
X584590D01*
X587658Y308337D02*
Y298494D01*
Y308337D02*
X592431Y298494D01*
Y308337D02*
Y298494D01*
X597885Y308337D02*
Y298494D01*
X595499Y308337D02*
X600272D01*
X606067D02*
X603340Y298494D01*
X606067Y308337D02*
X608795Y298494D01*
X604363Y301775D02*
X607772D01*
X614249Y308337D02*
Y298494D01*
X611863Y308337D02*
X616635D01*
X619704D02*
Y298494D01*
X624817Y308337D02*
X624135Y307869D01*
X624135D02*
X623454Y306931D01*
X623454D02*
X623113Y305994D01*
X622772Y304587*
X622772D02*
Y302244D01*
X623113Y300837*
X623113D02*
X623454Y299900D01*
X624135Y298962*
X624135D02*
X624817Y298494D01*
X624817D02*
X626181D01*
X626863Y298962*
X626863D02*
X627545Y299900D01*
X627885Y300837*
X627885D02*
X628226Y302244D01*
X628226D02*
Y304587D01*
X628226D02*
X627885Y305994D01*
X627885D02*
X627545Y306931D01*
X627545D02*
X626863Y307869D01*
X626181Y308337*
X626181D02*
X624817D01*
X631295D02*
Y298494D01*
Y308337D02*
X636067Y298494D01*
Y308337D02*
Y298494D01*
X645272Y308337D02*
Y298494D01*
Y308337D02*
X649704D01*
X645272Y303650D02*
X647999D01*
X654817Y308337D02*
X654135Y307869D01*
X654135D02*
X653454Y306931D01*
X653454D02*
X653113Y305994D01*
X652772Y304587*
X652772D02*
Y302244D01*
X653113Y300837*
X653113D02*
X653454Y299900D01*
X654135Y298962*
X654135D02*
X654817Y298494D01*
X654817D02*
X656181D01*
X656863Y298962*
X656863D02*
X657545Y299900D01*
X657885Y300837*
X657885D02*
X658226Y302244D01*
X658226D02*
Y304587D01*
X658226D02*
X657885Y305994D01*
X657885D02*
X657545Y306931D01*
X657545D02*
X656863Y307869D01*
X656181Y308337*
X656181D02*
X654817D01*
X661295D02*
Y298494D01*
Y308337D02*
X664363D01*
X664363D02*
X665385Y307869D01*
X665385D02*
X665726Y307400D01*
X665726D02*
X666067Y306462D01*
X666067D02*
Y305525D01*
X666067D02*
X665726Y304587D01*
X665726D02*
X665385Y304119D01*
X665385D02*
X664363Y303650D01*
X661295*
X663681D02*
X666067Y298494D01*
X675272Y308337D02*
Y298494D01*
X679363*
X685158Y308337D02*
X682431Y298494D01*
X685158Y308337D02*
X687885Y298494D01*
X683454Y301775D02*
X686863D01*
X690954Y308337D02*
X693681Y303650D01*
Y298494*
X696408Y308337D02*
X693681Y303650D01*
X699476Y302712D02*
X705613D01*
X708681Y308337D02*
Y301306D01*
X708681D02*
X709022Y299900D01*
X709704Y298962*
X709704D02*
X710726Y298494D01*
X710726D02*
X711408D01*
X711408D02*
X712431Y298962D01*
X712431D02*
X713113Y299900D01*
X713454Y301306*
X713454D02*
Y308337D01*
X716522D02*
Y298494D01*
Y308337D02*
X719590D01*
X719590D02*
X720613Y307869D01*
X720954Y307400*
X721295Y306462*
X721295D02*
Y305056D01*
X721295D02*
X720954Y304119D01*
X720613Y303650*
X719590Y303181*
X719590D02*
X716522D01*
X117931Y426737D02*
Y416894D01*
X115545Y426737D02*
X120317D01*
X125431D02*
X124749Y426269D01*
X124749D02*
X124067Y425331D01*
X124067D02*
X123726Y424394D01*
X123726D02*
X123385Y422987D01*
X123385D02*
Y420644D01*
X123385D02*
X123726Y419237D01*
X123726D02*
X124067Y418300D01*
X124067D02*
X124749Y417362D01*
X124749D02*
X125431Y416894D01*
X126795*
X127476Y417362*
X127476D02*
X128158Y418300D01*
X128158D02*
X128499Y419237D01*
X128499D02*
X128840Y420644D01*
Y422987*
X128840D02*
X128499Y424394D01*
X128499D02*
X128158Y425331D01*
X128158D02*
X127476Y426269D01*
X127476D02*
X126795Y426737D01*
X126795D02*
X125431D01*
X131908D02*
Y416894D01*
Y426737D02*
X134976D01*
X134976D02*
X135999Y426269D01*
X135999D02*
X136340Y425800D01*
X136681Y424862*
X136681D02*
Y423456D01*
X136681D02*
X136340Y422519D01*
X135999Y422050*
X135999D02*
X134976Y421581D01*
X134976D02*
X131908D01*
X150658Y425331D02*
X149976Y426269D01*
X149976D02*
X148954Y426737D01*
X148954D02*
X147590D01*
X147590D02*
X146567Y426269D01*
X146567D02*
X145885Y425331D01*
X145885D02*
Y424394D01*
X145885D02*
X146226Y423456D01*
X146226D02*
X146567Y422987D01*
X146567D02*
X147249Y422519D01*
X147249D02*
X149295Y421581D01*
X149295D02*
X149976Y421112D01*
X149976D02*
X150317Y420644D01*
X150317D02*
X150658Y419706D01*
X150658D02*
Y418300D01*
X150658D02*
X149976Y417362D01*
X149976D02*
X148954Y416894D01*
X147590*
X146567Y417362*
X146567D02*
X145885Y418300D01*
X153726Y426737D02*
Y416894D01*
X156795Y426737D02*
Y416894D01*
Y426737D02*
X159181D01*
X159181D02*
X160204Y426269D01*
X160885Y425331*
X160885D02*
X161226Y424394D01*
X161226D02*
X161567Y422987D01*
X161567D02*
Y420644D01*
X161567D02*
X161226Y419237D01*
X161226D02*
X160885Y418300D01*
X160885D02*
X160204Y417362D01*
X160204D02*
X159181Y416894D01*
X156795*
X164635Y426737D02*
Y416894D01*
Y426737D02*
X169067D01*
X164635Y422050D02*
X167363D01*
X164635Y416894D02*
X169067D01*
X115545Y406737D02*
Y396894D01*
Y406737D02*
X118613D01*
X118613D02*
X119635Y406269D01*
X119635D02*
X119976Y405800D01*
X119976D02*
X120317Y404862D01*
X120317D02*
Y403925D01*
X120317D02*
X119976Y402987D01*
X119976D02*
X119635Y402519D01*
X119635D02*
X118613Y402050D01*
X115545D02*
X118613D01*
X119635Y401581*
X119635D02*
X119976Y401112D01*
X119976D02*
X120317Y400175D01*
X120317D02*
Y398769D01*
X120317D02*
X119976Y397831D01*
X119976D02*
X119635Y397362D01*
X119635D02*
X118613Y396894D01*
X115545*
X125431Y406737D02*
X124749Y406269D01*
X124749D02*
X124067Y405331D01*
X124067D02*
X123726Y404394D01*
X123726D02*
X123385Y402987D01*
X123385D02*
Y400644D01*
X123385D02*
X123726Y399237D01*
X123726D02*
X124067Y398300D01*
X124067D02*
X124749Y397362D01*
X124749D02*
X125431Y396894D01*
X126795*
X127476Y397362*
X127476D02*
X128158Y398300D01*
X128158D02*
X128499Y399237D01*
X128499D02*
X128840Y400644D01*
Y402987*
X128840D02*
X128499Y404394D01*
X128499D02*
X128158Y405331D01*
X128158D02*
X127476Y406269D01*
X127476D02*
X126795Y406737D01*
X126795D02*
X125431D01*
X134295D02*
Y396894D01*
X131908Y406737D02*
X136681D01*
X150658Y405331D02*
X149976Y406269D01*
X149976D02*
X148954Y406737D01*
X148954D02*
X147590D01*
X147590D02*
X146567Y406269D01*
X146567D02*
X145885Y405331D01*
X145885D02*
Y404394D01*
X145885D02*
X146226Y403456D01*
X146226D02*
X146567Y402987D01*
X146567D02*
X147249Y402519D01*
X147249D02*
X149295Y401581D01*
X149295D02*
X149976Y401112D01*
X149976D02*
X150317Y400644D01*
X150317D02*
X150658Y399706D01*
X150658D02*
Y398300D01*
X150658D02*
X149976Y397362D01*
X149976D02*
X148954Y396894D01*
X147590*
X146567Y397362*
X146567D02*
X145885Y398300D01*
X153726Y406737D02*
Y396894D01*
X156795Y406737D02*
Y396894D01*
Y406737D02*
X159181D01*
X159181D02*
X160204Y406269D01*
X160885Y405331*
X160885D02*
X161226Y404394D01*
X161226D02*
X161567Y402987D01*
X161567D02*
Y400644D01*
X161567D02*
X161226Y399237D01*
X161226D02*
X160885Y398300D01*
X160885D02*
X160204Y397362D01*
X160204D02*
X159181Y396894D01*
X156795*
X164635Y406737D02*
Y396894D01*
Y406737D02*
X169067D01*
X164635Y402050D02*
X167363D01*
X164635Y396894D02*
X169067D01*
X120317Y385331D02*
X119635Y386269D01*
X119635D02*
X118613Y386737D01*
X118613D02*
X117249D01*
X117249D02*
X116226Y386269D01*
X116226D02*
X115545Y385331D01*
X115545D02*
Y384394D01*
X115885Y383456*
X115885D02*
X116226Y382987D01*
X116226D02*
X116908Y382519D01*
X116908D02*
X118954Y381581D01*
X118954D02*
X119635Y381112D01*
X119635D02*
X119976Y380644D01*
X119976D02*
X120317Y379706D01*
X120317D02*
Y378300D01*
X120317D02*
X119635Y377362D01*
X119635D02*
X118613Y376894D01*
X117249*
X117249D02*
X116226Y377362D01*
X116226D02*
X115545Y378300D01*
X125431Y386737D02*
X124749Y386269D01*
X124749D02*
X124067Y385331D01*
X124067D02*
X123726Y384394D01*
X123726D02*
X123385Y382987D01*
X123385D02*
Y380644D01*
X123385D02*
X123726Y379237D01*
X123726D02*
X124067Y378300D01*
X124067D02*
X124749Y377362D01*
X124749D02*
X125431Y376894D01*
X126795*
X127476Y377362*
X127476D02*
X128158Y378300D01*
X128158D02*
X128499Y379237D01*
X128499D02*
X128840Y380644D01*
Y382987*
X128840D02*
X128499Y384394D01*
X128499D02*
X128158Y385331D01*
X128158D02*
X127476Y386269D01*
X127476D02*
X126795Y386737D01*
X126795D02*
X125431D01*
X131908D02*
Y376894D01*
X131908D02*
X135999D01*
X139067Y386737D02*
Y376894D01*
Y386737D02*
X141454D01*
X141454D02*
X142476Y386269D01*
X142476D02*
X143158Y385331D01*
X143158D02*
X143499Y384394D01*
X143499D02*
X143840Y382987D01*
X143840D02*
Y380644D01*
X143499Y379237*
X143499D02*
X143158Y378300D01*
X143158D02*
X142476Y377362D01*
X142476D02*
X141454Y376894D01*
X139067*
X146908Y386737D02*
Y376894D01*
Y386737D02*
X151340D01*
X146908Y382050D02*
X149635D01*
X146908Y376894D02*
X151340D01*
X154408Y386737D02*
Y376894D01*
Y386737D02*
X157476D01*
X157476D02*
X158499Y386269D01*
X158499D02*
X158840Y385800D01*
X159181Y384862*
X159181D02*
Y383925D01*
X158840Y382987*
X158840D02*
X158499Y382519D01*
X158499D02*
X157476Y382050D01*
X157476D02*
X154408D01*
X156795D02*
X159181Y376894D01*
X162249Y381112D02*
X168385D01*
X171454Y386737D02*
Y376894D01*
Y386737D02*
X174181Y376894D01*
X176908Y386737D02*
X174181Y376894D01*
X176908Y386737D02*
Y376894D01*
X182704Y386737D02*
X179976Y376894D01*
X182704Y386737D02*
X185431Y376894D01*
X180999Y380175D02*
X184408D01*
X193272Y385331D02*
X192590Y386269D01*
X191567Y386737*
X191567D02*
X190204D01*
X190204D02*
X189181Y386269D01*
X188499Y385331*
X188499D02*
Y384394D01*
X188499D02*
X188840Y383456D01*
X188840D02*
X189181Y382987D01*
X189181D02*
X189863Y382519D01*
X191908Y381581*
X191908D02*
X192590Y381112D01*
X192590D02*
X192931Y380644D01*
X193272Y379706*
X193272D02*
Y378300D01*
X192590Y377362*
X192590D02*
X191567Y376894D01*
X191567D02*
X190204D01*
X189181Y377362*
X189181D02*
X188499Y378300D01*
X196340Y386737D02*
Y376894D01*
X201113Y386737D02*
X196340Y380175D01*
X198045Y382519D02*
X201113Y376894D01*
X212704Y386737D02*
Y376894D01*
X210317Y386737D02*
X215090D01*
X220204D02*
X219522Y386269D01*
X218840Y385331*
X218840D02*
X218499Y384394D01*
X218499D02*
X218158Y382987D01*
X218158D02*
Y380644D01*
X218158D02*
X218499Y379237D01*
X218499D02*
X218840Y378300D01*
X219522Y377362*
X219522D02*
X220204Y376894D01*
X221567*
X221567D02*
X222249Y377362D01*
X222249D02*
X222931Y378300D01*
X223272Y379237*
X223272D02*
X223613Y380644D01*
Y382987*
X223613D02*
X223272Y384394D01*
X222931Y385331*
X222931D02*
X222249Y386269D01*
X222249D02*
X221567Y386737D01*
X221567D02*
X220204D01*
X226681D02*
Y376894D01*
Y386737D02*
X229749D01*
X229749D02*
X230772Y386269D01*
X231113Y385800*
X231454Y384862*
X231454D02*
Y383456D01*
X231454D02*
X231113Y382519D01*
X230772Y382050*
X229749Y381581*
X229749D02*
X226681D01*
X245431Y385331D02*
X244749Y386269D01*
X244749D02*
X243726Y386737D01*
X243726D02*
X242363D01*
X242363D02*
X241340Y386269D01*
X240658Y385331*
X240658D02*
Y384394D01*
X240658D02*
X240999Y383456D01*
X240999D02*
X241340Y382987D01*
X241340D02*
X242022Y382519D01*
X244067Y381581*
X244067D02*
X244749Y381112D01*
X244749D02*
X245090Y380644D01*
X245431Y379706*
X245431D02*
Y378300D01*
X244749Y377362*
X244749D02*
X243726Y376894D01*
X243726D02*
X242363D01*
X241340Y377362*
X241340D02*
X240658Y378300D01*
X248499Y386737D02*
Y376894D01*
X251567Y386737D02*
Y376894D01*
Y386737D02*
X253954D01*
X253954D02*
X254976Y386269D01*
X254976D02*
X255658Y385331D01*
X255658D02*
X255999Y384394D01*
X255999D02*
X256340Y382987D01*
X256340D02*
Y380644D01*
X255999Y379237*
X255999D02*
X255658Y378300D01*
X255658D02*
X254976Y377362D01*
X254976D02*
X253954Y376894D01*
X251567*
X259408Y386737D02*
Y376894D01*
Y386737D02*
X263840D01*
X259408Y382050D02*
X262135D01*
X259408Y376894D02*
X263840D01*
X120067Y346581D02*
X119385Y347519D01*
X119385D02*
X118363Y347987D01*
X118363D02*
X116999D01*
X116999D02*
X115976Y347519D01*
X115976D02*
X115295Y346581D01*
X115295D02*
Y345644D01*
X115635Y344706*
X115635D02*
X115976Y344237D01*
X115976D02*
X116658Y343769D01*
X116658D02*
X118704Y342831D01*
X118704D02*
X119385Y342362D01*
X119385D02*
X119726Y341894D01*
X119726D02*
X120067Y340956D01*
X120067D02*
Y339550D01*
X120067D02*
X119385Y338612D01*
X119385D02*
X118363Y338144D01*
X116999*
X116999D02*
X115976Y338612D01*
X115976D02*
X115295Y339550D01*
X123135Y347987D02*
Y338144D01*
X126204Y347987D02*
Y338144D01*
X130295*
X133363Y347987D02*
Y338144D01*
X138135Y347987D02*
X133363Y341425D01*
X135067Y343769D02*
X138135Y338144D01*
X145976Y346581D02*
X145295Y347519D01*
X144272Y347987*
X144272D02*
X142908D01*
X142908D02*
X141885Y347519D01*
X141885D02*
X141204Y346581D01*
X141204D02*
Y345644D01*
X141545Y344706*
X141545D02*
X141885Y344237D01*
X141885D02*
X142567Y343769D01*
X142567D02*
X144613Y342831D01*
X144613D02*
X145295Y342362D01*
X145295D02*
X145635Y341894D01*
X145635D02*
X145976Y340956D01*
X145976D02*
Y339550D01*
X145976D02*
X145295Y338612D01*
X145295D02*
X144272Y338144D01*
X142908*
X142908D02*
X141885Y338612D01*
X141885D02*
X141204Y339550D01*
X154158Y345644D02*
X153817Y346581D01*
X153817D02*
X153135Y347519D01*
X153135D02*
X152454Y347987D01*
X152454D02*
X151090D01*
X151090D02*
X150408Y347519D01*
X150408D02*
X149726Y346581D01*
X149726D02*
X149385Y345644D01*
X149385D02*
X149045Y344237D01*
X149045D02*
Y341894D01*
X149385Y340487*
X149385D02*
X149726Y339550D01*
X149726D02*
X150408Y338612D01*
X150408D02*
X151090Y338144D01*
X152454*
X153135Y338612*
X153135D02*
X153817Y339550D01*
X153817D02*
X154158Y340487D01*
X157226Y347987D02*
Y338144D01*
Y347987D02*
X160295D01*
X160295D02*
X161317Y347519D01*
X161317D02*
X161658Y347050D01*
X161658D02*
X161999Y346112D01*
X161999D02*
Y345175D01*
X161999D02*
X161658Y344237D01*
X161658D02*
X161317Y343769D01*
X161317D02*
X160295Y343300D01*
X157226*
X159613D02*
X161999Y338144D01*
X165067Y347987D02*
Y338144D01*
Y347987D02*
X169499D01*
X165067Y343300D02*
X167795D01*
X165067Y338144D02*
X169499D01*
X172567Y347987D02*
Y338144D01*
Y347987D02*
X176999D01*
X172567Y343300D02*
X175295D01*
X172567Y338144D02*
X176999D01*
X180067Y347987D02*
Y338144D01*
Y347987D02*
X184840Y338144D01*
Y347987D02*
Y338144D01*
X196431Y347987D02*
Y338144D01*
X194045Y347987D02*
X198817D01*
X203931D02*
X203249Y347519D01*
X203249D02*
X202567Y346581D01*
X202567D02*
X202226Y345644D01*
X202226D02*
X201885Y344237D01*
X201885D02*
Y341894D01*
X201885D02*
X202226Y340487D01*
X202226D02*
X202567Y339550D01*
X202567D02*
X203249Y338612D01*
X203249D02*
X203931Y338144D01*
X205295*
X205976Y338612*
X205976D02*
X206658Y339550D01*
X206658D02*
X206999Y340487D01*
X206999D02*
X207340Y341894D01*
Y344237*
X207340D02*
X206999Y345644D01*
X206999D02*
X206658Y346581D01*
X206658D02*
X205976Y347519D01*
X205976D02*
X205295Y347987D01*
X205295D02*
X203931D01*
X210408D02*
Y338144D01*
Y347987D02*
X213476D01*
X213476D02*
X214499Y347519D01*
X214499D02*
X214840Y347050D01*
X215181Y346112*
X215181D02*
Y344706D01*
X215181D02*
X214840Y343769D01*
X214499Y343300*
X214499D02*
X213476Y342831D01*
X213476D02*
X210408D01*
X229158Y346581D02*
X228476Y347519D01*
X228476D02*
X227454Y347987D01*
X227454D02*
X226090D01*
X226090D02*
X225067Y347519D01*
X225067D02*
X224385Y346581D01*
X224385D02*
Y345644D01*
X224385D02*
X224726Y344706D01*
X224726D02*
X225067Y344237D01*
X225067D02*
X225749Y343769D01*
X225749D02*
X227795Y342831D01*
X227795D02*
X228476Y342362D01*
X228476D02*
X228817Y341894D01*
X228817D02*
X229158Y340956D01*
X229158D02*
Y339550D01*
X229158D02*
X228476Y338612D01*
X228476D02*
X227454Y338144D01*
X226090*
X225067Y338612*
X225067D02*
X224385Y339550D01*
X232226Y347987D02*
Y338144D01*
X235295Y347987D02*
Y338144D01*
Y347987D02*
X237681D01*
X237681D02*
X238704Y347519D01*
X239385Y346581*
X239385D02*
X239726Y345644D01*
X239726D02*
X240067Y344237D01*
X240067D02*
Y341894D01*
X240067D02*
X239726Y340487D01*
X239726D02*
X239385Y339550D01*
X239385D02*
X238704Y338612D01*
X238704D02*
X237681Y338144D01*
X235295*
X243135Y347987D02*
Y338144D01*
Y347987D02*
X247567D01*
X243135Y343300D02*
X245863D01*
X243135Y338144D02*
X247567D01*
X475772Y289237D02*
X473045Y279394D01*
X475772Y289237D02*
X478499Y279394D01*
X474067Y282675D02*
X477476D01*
X481567Y289237D02*
Y279394D01*
X481567D02*
X485658D01*
X488726Y289237D02*
Y279394D01*
X488726D02*
X492817D01*
X502022Y289237D02*
Y279394D01*
Y289237D02*
X504408D01*
X504408D02*
X505431Y288769D01*
X506113Y287831*
X506113D02*
X506454Y286894D01*
X506795Y285487*
X506795D02*
Y283144D01*
X506454Y281737*
X506454D02*
X506113Y280800D01*
X505431Y279862*
X505431D02*
X504408Y279394D01*
X504408D02*
X502022D01*
X509863Y289237D02*
Y279394D01*
X512931Y289237D02*
Y279394D01*
Y289237D02*
X515658Y279394D01*
X518385Y289237D02*
X515658Y279394D01*
X518385Y289237D02*
Y279394D01*
X521454Y289237D02*
Y279394D01*
Y289237D02*
X525885D01*
X521454Y284550D02*
X524181D01*
X521454Y279394D02*
X525885D01*
X528954Y289237D02*
Y279394D01*
Y289237D02*
X533726Y279394D01*
Y289237D02*
Y279394D01*
X541567Y287831D02*
X540885Y288769D01*
X540885D02*
X539863Y289237D01*
X539863D02*
X538499D01*
X538499D02*
X537476Y288769D01*
X537476D02*
X536795Y287831D01*
X536795D02*
Y286894D01*
X537135Y285956*
X537135D02*
X537476Y285487D01*
X537476D02*
X538158Y285019D01*
X538158D02*
X540204Y284081D01*
X540204D02*
X540885Y283612D01*
X540885D02*
X541226Y283144D01*
X541226D02*
X541567Y282206D01*
X541567D02*
Y280800D01*
X541567D02*
X540885Y279862D01*
X540885D02*
X539863Y279394D01*
X538499*
X538499D02*
X537476Y279862D01*
X537476D02*
X536795Y280800D01*
X544635Y289237D02*
Y279394D01*
X549749Y289237D02*
X549067Y288769D01*
X549067D02*
X548385Y287831D01*
X548385D02*
X548045Y286894D01*
X547704Y285487*
X547704D02*
Y283144D01*
X548045Y281737*
X548045D02*
X548385Y280800D01*
X548385D02*
X549067Y279862D01*
X549067D02*
X549749Y279394D01*
X549749D02*
X551113D01*
X551795Y279862*
X551795D02*
X552476Y280800D01*
X552476D02*
X552817Y281737D01*
X552817D02*
X553158Y283144D01*
X553158D02*
Y285487D01*
X553158D02*
X552817Y286894D01*
X552817D02*
X552476Y287831D01*
X552476D02*
X551795Y288769D01*
X551113Y289237*
X551113D02*
X549749D01*
X556226D02*
Y279394D01*
Y289237D02*
X560999Y279394D01*
Y289237D02*
Y279394D01*
X572931Y289237D02*
X570204Y279394D01*
X572931Y289237D02*
X575658Y279394D01*
X571226Y282675D02*
X574635D01*
X578726Y289237D02*
Y279394D01*
Y289237D02*
X583499Y279394D01*
Y289237D02*
Y279394D01*
X586567Y289237D02*
Y279394D01*
Y289237D02*
X588954D01*
X588954D02*
X589976Y288769D01*
X589976D02*
X590658Y287831D01*
X590658D02*
X590999Y286894D01*
X590999D02*
X591340Y285487D01*
X591340D02*
Y283144D01*
X590999Y281737*
X590999D02*
X590658Y280800D01*
X590658D02*
X589976Y279862D01*
X589976D02*
X588954Y279394D01*
X586567*
X600545Y289237D02*
Y279394D01*
Y289237D02*
X602931D01*
X602931D02*
X603954Y288769D01*
X604635Y287831*
X604635D02*
X604976Y286894D01*
X604976D02*
X605317Y285487D01*
X605317D02*
Y283144D01*
X605317D02*
X604976Y281737D01*
X604976D02*
X604635Y280800D01*
X604635D02*
X603954Y279862D01*
X603954D02*
X602931Y279394D01*
X600545*
X608385Y289237D02*
Y279394D01*
Y289237D02*
X611454D01*
X611454D02*
X612476Y288769D01*
X612476D02*
X612817Y288300D01*
X612817D02*
X613158Y287362D01*
X613158D02*
Y286425D01*
X613158D02*
X612817Y285487D01*
X612817D02*
X612476Y285019D01*
X612476D02*
X611454Y284550D01*
X608385*
X610772D02*
X613158Y279394D01*
X616226Y289237D02*
Y279394D01*
X619295Y289237D02*
Y279394D01*
X623385*
X626454Y289237D02*
Y279394D01*
X630545*
X639749Y289237D02*
Y279394D01*
Y289237D02*
X642135D01*
X642135D02*
X643158Y288769D01*
X643158D02*
X643840Y287831D01*
X643840D02*
X644181Y286894D01*
X644522Y285487*
X644522D02*
Y283144D01*
X644181Y281737*
X644181D02*
X643840Y280800D01*
X643158Y279862*
X643158D02*
X642135Y279394D01*
X642135D02*
X639749D01*
X647590Y289237D02*
Y279394D01*
X653385Y289237D02*
X650658Y279394D01*
X653385Y289237D02*
X656113Y279394D01*
X651681Y282675D02*
X655090D01*
X659181Y289237D02*
Y279394D01*
Y289237D02*
X661908Y279394D01*
X664635Y289237D02*
X661908Y279394D01*
X664635Y289237D02*
Y279394D01*
X667704Y289237D02*
Y279394D01*
Y289237D02*
X672135D01*
X667704Y284550D02*
X670431D01*
X667704Y279394D02*
X672135D01*
X677590Y289237D02*
Y279394D01*
X675204Y289237D02*
X679976D01*
X683045D02*
Y279394D01*
Y289237D02*
X687476D01*
X683045Y284550D02*
X685772D01*
X683045Y279394D02*
X687476D01*
X690545Y289237D02*
Y279394D01*
Y289237D02*
X693613D01*
X693613D02*
X694635Y288769D01*
X694635D02*
X694976Y288300D01*
X694976D02*
X695317Y287362D01*
X695317D02*
Y286425D01*
X695317D02*
X694976Y285487D01*
X694976D02*
X694635Y285019D01*
X694635D02*
X693613Y284550D01*
X690545*
X692931D02*
X695317Y279394D01*
X707249Y289237D02*
X704522Y279394D01*
X707249Y289237D02*
X709976Y279394D01*
X705545Y282675D02*
X708954D01*
X713045Y289237D02*
Y279394D01*
Y289237D02*
X716113D01*
X716113D02*
X717135Y288769D01*
X717135D02*
X717476Y288300D01*
X717476D02*
X717817Y287362D01*
X717817D02*
Y286425D01*
X717817D02*
X717476Y285487D01*
X717476D02*
X717135Y285019D01*
X717135D02*
X716113Y284550D01*
X713045*
X715431D02*
X717817Y279394D01*
X720885Y289237D02*
Y279394D01*
Y289237D02*
X725317D01*
X720885Y284550D02*
X723613D01*
X720885Y279394D02*
X725317D01*
X734522Y289237D02*
Y279394D01*
X737590Y289237D02*
Y279394D01*
Y289237D02*
X742363Y279394D01*
Y289237D02*
Y279394D01*
X751567Y289237D02*
Y279394D01*
Y289237D02*
X754295Y279394D01*
X757022Y289237D02*
X754295Y279394D01*
X757022Y289237D02*
Y279394D01*
X760090Y289237D02*
Y279394D01*
X763158Y289237D02*
Y279394D01*
X763158D02*
X767249D01*
X775090Y287831D02*
X774408Y288769D01*
X774408D02*
X773385Y289237D01*
X773385D02*
X772022D01*
X772022D02*
X770999Y288769D01*
X770999D02*
X770317Y287831D01*
X770317D02*
Y286894D01*
X770317D02*
X770658Y285956D01*
X770658D02*
X770999Y285487D01*
X770999D02*
X771681Y285019D01*
X773726Y284081*
X773726D02*
X774408Y283612D01*
X774408D02*
X774749Y283144D01*
X774749D02*
X775090Y282206D01*
X775090D02*
Y280800D01*
X774408Y279862*
X774408D02*
X773385Y279394D01*
X773385D02*
X772022D01*
X770999Y279862*
X770999D02*
X770317Y280800D01*
X337476Y369237D02*
X334067D01*
X334067D02*
X333726Y365019D01*
X333726D02*
X334067Y365487D01*
X334067D02*
X335090Y365956D01*
X335090D02*
X336113D01*
X336113D02*
X337135Y365487D01*
X337135D02*
X337817Y364550D01*
X337817D02*
X338158Y363144D01*
X338158D02*
X337817Y362206D01*
X337817D02*
X337476Y360800D01*
X337476D02*
X336795Y359862D01*
X336795D02*
X335772Y359394D01*
X334749*
X334749D02*
X333726Y359862D01*
X333726D02*
X333385Y360331D01*
X333385D02*
X333045Y361269D01*
X341567Y360331D02*
X341226Y359862D01*
X341226D02*
X341567Y359394D01*
X341567D02*
X341908Y359862D01*
X341908D02*
X341567Y360331D01*
X344976Y367362D02*
X345658Y367831D01*
X345658D02*
X346681Y369237D01*
X346681D02*
Y359394D01*
X350090Y360331D02*
X349749Y359862D01*
X349749D02*
X350090Y359394D01*
X350431Y359862*
X350431D02*
X350090Y360331D01*
X355545Y369237D02*
X354522Y368769D01*
X353840Y367362*
X353840D02*
X353499Y365019D01*
X353499D02*
Y363612D01*
X353499D02*
X353840Y361269D01*
X354522Y359862*
X354522D02*
X355545Y359394D01*
X356226*
X356226D02*
X357249Y359862D01*
X357249D02*
X357931Y361269D01*
X358272Y363612*
X358272D02*
Y365019D01*
X357931Y367362*
X357931D02*
X357249Y368769D01*
X357249D02*
X356226Y369237D01*
X356226D02*
X355545D01*
X364749D02*
X361340Y362675D01*
X366454*
X364749Y369237D02*
Y359394D01*
X372249Y369237D02*
X369522Y359394D01*
X372249Y369237D02*
X374976Y359394D01*
X370545Y362675D02*
X373954D01*
X337476Y389237D02*
X334067D01*
X334067D02*
X333726Y385019D01*
X333726D02*
X334067Y385487D01*
X334067D02*
X335090Y385956D01*
X335090D02*
X336113D01*
X336113D02*
X337135Y385487D01*
X337135D02*
X337817Y384550D01*
X337817D02*
X338158Y383144D01*
X338158D02*
X337817Y382206D01*
X337817D02*
X337476Y380800D01*
X337476D02*
X336795Y379862D01*
X336795D02*
X335772Y379394D01*
X334749*
X334749D02*
X333726Y379862D01*
X333726D02*
X333385Y380331D01*
X333385D02*
X333045Y381269D01*
X341567Y380331D02*
X341226Y379862D01*
X341226D02*
X341567Y379394D01*
X341567D02*
X341908Y379862D01*
X341908D02*
X341567Y380331D01*
X344976Y387362D02*
X345658Y387831D01*
X345658D02*
X346681Y389237D01*
X346681D02*
Y379394D01*
X350090Y380331D02*
X349749Y379862D01*
X349749D02*
X350090Y379394D01*
X350431Y379862*
X350431D02*
X350090Y380331D01*
X355545Y389237D02*
X354522Y388769D01*
X353840Y387362*
X353840D02*
X353499Y385019D01*
X353499D02*
Y383612D01*
X353499D02*
X353840Y381269D01*
X354522Y379862*
X354522D02*
X355545Y379394D01*
X356226*
X356226D02*
X357249Y379862D01*
X357249D02*
X357931Y381269D01*
X358272Y383612*
X358272D02*
Y385019D01*
X357931Y387362*
X357931D02*
X357249Y388769D01*
X357249D02*
X356226Y389237D01*
X356226D02*
X355545D01*
X362022D02*
X365772D01*
X365772D02*
X363726Y385487D01*
X363726D02*
X364749D01*
X364749D02*
X365431Y385019D01*
X365772Y384550*
X366113Y383144*
Y382206*
X366113D02*
X365772Y380800D01*
X365090Y379862*
X365090D02*
X364067Y379394D01*
X364067D02*
X363045D01*
X362022Y379862*
X362022D02*
X361681Y380331D01*
X361681D02*
X361340Y381269D01*
X371908Y389237D02*
X369181Y379394D01*
X371908Y389237D02*
X374635Y379394D01*
X370204Y382675D02*
X373613D01*
X337476Y406737D02*
X334067D01*
X334067D02*
X333726Y402519D01*
X333726D02*
X334067Y402987D01*
X334067D02*
X335090Y403456D01*
X335090D02*
X336113D01*
X336113D02*
X337135Y402987D01*
X337135D02*
X337817Y402050D01*
X337817D02*
X338158Y400644D01*
X338158D02*
X337817Y399706D01*
X337817D02*
X337476Y398300D01*
X337476D02*
X336795Y397362D01*
X336795D02*
X335772Y396894D01*
X334749*
X334749D02*
X333726Y397362D01*
X333726D02*
X333385Y397831D01*
X333385D02*
X333045Y398769D01*
X341567Y397831D02*
X341226Y397362D01*
X341226D02*
X341567Y396894D01*
X341567D02*
X341908Y397362D01*
X341908D02*
X341567Y397831D01*
X344976Y404862D02*
X345658Y405331D01*
X345658D02*
X346681Y406737D01*
X346681D02*
Y396894D01*
X350090Y397831D02*
X349749Y397362D01*
X349749D02*
X350090Y396894D01*
X350431Y397362*
X350431D02*
X350090Y397831D01*
X355545Y406737D02*
X354522Y406269D01*
X353840Y404862*
X353840D02*
X353499Y402519D01*
X353499D02*
Y401112D01*
X353499D02*
X353840Y398769D01*
X354522Y397362*
X354522D02*
X355545Y396894D01*
X356226*
X356226D02*
X357249Y397362D01*
X357249D02*
X357931Y398769D01*
X358272Y401112*
X358272D02*
Y402519D01*
X357931Y404862*
X357931D02*
X357249Y406269D01*
X357249D02*
X356226Y406737D01*
X356226D02*
X355545D01*
X361681Y404394D02*
Y404862D01*
X361681D02*
X362022Y405800D01*
X362363Y406269*
X363045Y406737*
X363045D02*
X364408D01*
X364408D02*
X365090Y406269D01*
X365431Y405800*
X365772Y404862*
X365772D02*
Y403925D01*
X365431Y402987*
X365431D02*
X364749Y401581D01*
X364749D02*
X361340Y396894D01*
X366113*
X371908Y406737D02*
X369181Y396894D01*
X371908Y406737D02*
X374635Y396894D01*
X370204Y400175D02*
X373613D01*
X337476Y424237D02*
X334067D01*
X334067D02*
X333726Y420019D01*
X333726D02*
X334067Y420487D01*
X334067D02*
X335090Y420956D01*
X335090D02*
X336113D01*
X336113D02*
X337135Y420487D01*
X337135D02*
X337817Y419550D01*
X337817D02*
X338158Y418144D01*
X338158D02*
X337817Y417206D01*
X337817D02*
X337476Y415800D01*
X337476D02*
X336795Y414862D01*
X336795D02*
X335772Y414394D01*
X334749*
X334749D02*
X333726Y414862D01*
X333726D02*
X333385Y415331D01*
X333385D02*
X333045Y416269D01*
X341567Y415331D02*
X341226Y414862D01*
X341226D02*
X341567Y414394D01*
X341567D02*
X341908Y414862D01*
X341908D02*
X341567Y415331D01*
X344976Y422362D02*
X345658Y422831D01*
X345658D02*
X346681Y424237D01*
X346681D02*
Y414394D01*
X350090Y415331D02*
X349749Y414862D01*
X349749D02*
X350090Y414394D01*
X350431Y414862*
X350431D02*
X350090Y415331D01*
X355545Y424237D02*
X354522Y423769D01*
X353840Y422362*
X353840D02*
X353499Y420019D01*
X353499D02*
Y418612D01*
X353499D02*
X353840Y416269D01*
X354522Y414862*
X354522D02*
X355545Y414394D01*
X356226*
X356226D02*
X357249Y414862D01*
X357249D02*
X357931Y416269D01*
X358272Y418612*
X358272D02*
Y420019D01*
X357931Y422362*
X357931D02*
X357249Y423769D01*
X357249D02*
X356226Y424237D01*
X356226D02*
X355545D01*
X361340Y422362D02*
X362022Y422831D01*
X362022D02*
X363045Y424237D01*
X363045D02*
Y414394D01*
X368840Y424237D02*
X366113Y414394D01*
X368840Y424237D02*
X371567Y414394D01*
X367135Y417675D02*
X370545D01*
X440545Y424237D02*
Y414394D01*
Y424237D02*
X444976D01*
X440545Y419550D02*
X443272D01*
X440545Y414394D02*
X444976D01*
X448045Y424237D02*
Y414394D01*
Y424237D02*
X450431D01*
X450431D02*
X451454Y423769D01*
X452135Y422831*
X452135D02*
X452476Y421894D01*
X452476D02*
X452817Y420487D01*
X452817D02*
Y418144D01*
X452817D02*
X452476Y416737D01*
X452476D02*
X452135Y415800D01*
X452135D02*
X451454Y414862D01*
X451454D02*
X450431Y414394D01*
X448045*
X455885Y422362D02*
X456567Y422831D01*
X456567D02*
X457590Y424237D01*
X457590D02*
Y414394D01*
X440545Y406737D02*
Y396894D01*
Y406737D02*
X444976D01*
X440545Y402050D02*
X443272D01*
X440545Y396894D02*
X444976D01*
X448045Y406737D02*
Y396894D01*
Y406737D02*
X450431D01*
X450431D02*
X451454Y406269D01*
X452135Y405331*
X452135D02*
X452476Y404394D01*
X452476D02*
X452817Y402987D01*
X452817D02*
Y400644D01*
X452817D02*
X452476Y399237D01*
X452476D02*
X452135Y398300D01*
X452135D02*
X451454Y397362D01*
X451454D02*
X450431Y396894D01*
X448045*
X455885Y404862D02*
X456567Y405331D01*
X456567D02*
X457590Y406737D01*
X457590D02*
Y396894D01*
X440545Y386737D02*
Y376894D01*
Y386737D02*
X444976D01*
X440545Y382050D02*
X443272D01*
X440545Y376894D02*
X444976D01*
X448045Y386737D02*
Y376894D01*
Y386737D02*
X450431D01*
X450431D02*
X451454Y386269D01*
X452135Y385331*
X452135D02*
X452476Y384394D01*
X452476D02*
X452817Y382987D01*
X452817D02*
Y380644D01*
X452817D02*
X452476Y379237D01*
X452476D02*
X452135Y378300D01*
X452135D02*
X451454Y377362D01*
X451454D02*
X450431Y376894D01*
X448045*
X455885Y384862D02*
X456567Y385331D01*
X456567D02*
X457590Y386737D01*
X457590D02*
Y376894D01*
X440545Y366737D02*
Y356894D01*
Y366737D02*
X444976D01*
X440545Y362050D02*
X443272D01*
X440545Y356894D02*
X444976D01*
X448045Y366737D02*
Y356894D01*
Y366737D02*
X450431D01*
X450431D02*
X451454Y366269D01*
X452135Y365331*
X452135D02*
X452476Y364394D01*
X452476D02*
X452817Y362987D01*
X452817D02*
Y360644D01*
X452817D02*
X452476Y359237D01*
X452476D02*
X452135Y358300D01*
X452135D02*
X451454Y357362D01*
X451454D02*
X450431Y356894D01*
X448045*
X455885Y364862D02*
X456567Y365331D01*
X456567D02*
X457590Y366737D01*
X457590D02*
Y356894D01*
X115295Y367987D02*
Y358144D01*
Y367987D02*
X118363D01*
X118363D02*
X119385Y367519D01*
X119385D02*
X119726Y367050D01*
X119726D02*
X120067Y366112D01*
X120067D02*
Y364706D01*
X120067D02*
X119726Y363769D01*
X119726D02*
X119385Y363300D01*
X119385D02*
X118363Y362831D01*
X118363D02*
X115295D01*
X125863Y367987D02*
X123135Y358144D01*
X125863Y367987D02*
X128590Y358144D01*
X124158Y361425D02*
X127567D01*
X136431Y366581D02*
X135749Y367519D01*
X135749D02*
X134726Y367987D01*
X134726D02*
X133363D01*
X133363D02*
X132340Y367519D01*
X131658Y366581*
X131658D02*
Y365644D01*
X131658D02*
X131999Y364706D01*
X131999D02*
X132340Y364237D01*
X132340D02*
X133022Y363769D01*
X135067Y362831*
X135067D02*
X135749Y362362D01*
X135749D02*
X136090Y361894D01*
X136431Y360956*
X136431D02*
Y359550D01*
X135749Y358612*
X135749D02*
X134726Y358144D01*
X134726D02*
X133363D01*
X132340Y358612*
X132340D02*
X131658Y359550D01*
X141885Y367987D02*
Y358144D01*
X139499Y367987D02*
X144272D01*
X147340D02*
Y358144D01*
Y367987D02*
X151772D01*
X147340Y363300D02*
X150067D01*
X147340Y358144D02*
X151772D01*
X160976Y367987D02*
Y358144D01*
Y367987D02*
X163704Y358144D01*
X166431Y367987D02*
X163704Y358144D01*
X166431Y367987D02*
Y358144D01*
X172226Y367987D02*
X169499Y358144D01*
X172226Y367987D02*
X174954Y358144D01*
X170522Y361425D02*
X173931D01*
X182795Y366581D02*
X182113Y367519D01*
X181090Y367987*
X181090D02*
X179726D01*
X179726D02*
X178704Y367519D01*
X178022Y366581*
X178022D02*
Y365644D01*
X178363Y364706*
X178363D02*
X178704Y364237D01*
X178704D02*
X179385Y363769D01*
X179385D02*
X181431Y362831D01*
X181431D02*
X182113Y362362D01*
X182113D02*
X182454Y361894D01*
X182795Y360956*
X182795D02*
Y359550D01*
X182113Y358612*
X182113D02*
X181090Y358144D01*
X179726*
X179726D02*
X178704Y358612D01*
X178704D02*
X178022Y359550D01*
X185863Y367987D02*
Y358144D01*
X190635Y367987D02*
X185863Y361425D01*
X187567Y363769D02*
X190635Y358144D01*
X202226Y367987D02*
Y358144D01*
X199840Y367987D02*
X204613D01*
X209726D02*
X209045Y367519D01*
X208363Y366581*
X208363D02*
X208022Y365644D01*
X207681Y364237*
X207681D02*
Y361894D01*
X208022Y360487*
X208022D02*
X208363Y359550D01*
X209045Y358612*
X209045D02*
X209726Y358144D01*
X209726D02*
X211090D01*
X211772Y358612*
X211772D02*
X212454Y359550D01*
X212795Y360487*
X212795D02*
X213135Y361894D01*
X213135D02*
Y364237D01*
X213135D02*
X212795Y365644D01*
X212454Y366581*
X212454D02*
X211772Y367519D01*
X211090Y367987*
X211090D02*
X209726D01*
X216204D02*
Y358144D01*
Y367987D02*
X219272D01*
X219272D02*
X220295Y367519D01*
X220635Y367050*
X220635D02*
X220976Y366112D01*
X220976D02*
Y364706D01*
X220976D02*
X220635Y363769D01*
X220635D02*
X220295Y363300D01*
X219272Y362831*
X219272D02*
X216204D01*
X234954Y366581D02*
X234272Y367519D01*
X233249Y367987*
X233249D02*
X231885D01*
X231885D02*
X230863Y367519D01*
X230181Y366581*
X230181D02*
Y365644D01*
X230522Y364706*
X230522D02*
X230863Y364237D01*
X230863D02*
X231545Y363769D01*
X233590Y362831*
X233590D02*
X234272Y362362D01*
X234272D02*
X234613Y361894D01*
X234954Y360956*
X234954D02*
Y359550D01*
X234272Y358612*
X234272D02*
X233249Y358144D01*
X233249D02*
X231885D01*
X231885D02*
X230863Y358612D01*
X230863D02*
X230181Y359550D01*
X238022Y367987D02*
Y358144D01*
X241090Y367987D02*
Y358144D01*
Y367987D02*
X243476D01*
X243476D02*
X244499Y367519D01*
X244499D02*
X245181Y366581D01*
X245181D02*
X245522Y365644D01*
X245863Y364237*
X245863D02*
Y361894D01*
X245522Y360487*
X245522D02*
X245181Y359550D01*
X244499Y358612*
X244499D02*
X243476Y358144D01*
X243476D02*
X241090D01*
X248931Y367987D02*
Y358144D01*
Y367987D02*
X253363D01*
X248931Y363300D02*
X251658D01*
X248931Y358144D02*
X253363D01*
X337476Y349237D02*
X334067D01*
X334067D02*
X333726Y345019D01*
X333726D02*
X334067Y345487D01*
X334067D02*
X335090Y345956D01*
X335090D02*
X336113D01*
X336113D02*
X337135Y345487D01*
X337135D02*
X337817Y344550D01*
X337817D02*
X338158Y343144D01*
X338158D02*
X337817Y342206D01*
X337817D02*
X337476Y340800D01*
X337476D02*
X336795Y339862D01*
X336795D02*
X335772Y339394D01*
X334749*
X334749D02*
X333726Y339862D01*
X333726D02*
X333385Y340331D01*
X333385D02*
X333045Y341269D01*
X341567Y340331D02*
X341226Y339862D01*
X341226D02*
X341567Y339394D01*
X341567D02*
X341908Y339862D01*
X341908D02*
X341567Y340331D01*
X344976Y347362D02*
X345658Y347831D01*
X345658D02*
X346681Y349237D01*
X346681D02*
Y339394D01*
X350090Y340331D02*
X349749Y339862D01*
X349749D02*
X350090Y339394D01*
X350431Y339862*
X350431D02*
X350090Y340331D01*
X355545Y349237D02*
X354522Y348769D01*
X353840Y347362*
X353840D02*
X353499Y345019D01*
X353499D02*
Y343612D01*
X353499D02*
X353840Y341269D01*
X354522Y339862*
X354522D02*
X355545Y339394D01*
X356226*
X356226D02*
X357249Y339862D01*
X357249D02*
X357931Y341269D01*
X358272Y343612*
X358272D02*
Y345019D01*
X357931Y347362*
X357931D02*
X357249Y348769D01*
X357249D02*
X356226Y349237D01*
X356226D02*
X355545D01*
X365772D02*
X362363D01*
X362363D02*
X362022Y345019D01*
X362363Y345487*
X362363D02*
X363385Y345956D01*
X363385D02*
X364408D01*
X364408D02*
X365431Y345487D01*
X365431D02*
X366113Y344550D01*
X366454Y343144*
X366113Y342206*
X366113D02*
X365772Y340800D01*
X365090Y339862*
X365090D02*
X364067Y339394D01*
X364067D02*
X363045D01*
X362022Y339862*
X362022D02*
X361681Y340331D01*
X361681D02*
X361340Y341269D01*
X372249Y349237D02*
X369522Y339394D01*
X372249Y349237D02*
X374976Y339394D01*
X370545Y342675D02*
X373954D01*
X337476Y326737D02*
X334067D01*
X334067D02*
X333726Y322519D01*
X333726D02*
X334067Y322987D01*
X334067D02*
X335090Y323456D01*
X335090D02*
X336113D01*
X336113D02*
X337135Y322987D01*
X337135D02*
X337817Y322050D01*
X337817D02*
X338158Y320644D01*
X338158D02*
X337817Y319706D01*
X337817D02*
X337476Y318300D01*
X337476D02*
X336795Y317362D01*
X336795D02*
X335772Y316894D01*
X334749*
X334749D02*
X333726Y317362D01*
X333726D02*
X333385Y317831D01*
X333385D02*
X333045Y318769D01*
X341567Y317831D02*
X341226Y317362D01*
X341226D02*
X341567Y316894D01*
X341567D02*
X341908Y317362D01*
X341908D02*
X341567Y317831D01*
X344976Y324862D02*
X345658Y325331D01*
X345658D02*
X346681Y326737D01*
X346681D02*
Y316894D01*
X350090Y317831D02*
X349749Y317362D01*
X349749D02*
X350090Y316894D01*
X350431Y317362*
X350431D02*
X350090Y317831D01*
X355545Y326737D02*
X354522Y326269D01*
X353840Y324862*
X353840D02*
X353499Y322519D01*
X353499D02*
Y321112D01*
X353499D02*
X353840Y318769D01*
X354522Y317362*
X354522D02*
X355545Y316894D01*
X356226*
X356226D02*
X357249Y317362D01*
X357249D02*
X357931Y318769D01*
X358272Y321112*
X358272D02*
Y322519D01*
X357931Y324862*
X357931D02*
X357249Y326269D01*
X357249D02*
X356226Y326737D01*
X356226D02*
X355545D01*
X365431Y325331D02*
X365090Y326269D01*
X364067Y326737*
X364067D02*
X363385D01*
X363385D02*
X362363Y326269D01*
X361681Y324862*
X361681D02*
X361340Y322519D01*
Y320175*
X361681Y318300*
X362363Y317362*
X362363D02*
X363385Y316894D01*
X363385D02*
X363726D01*
X363726D02*
X364749Y317362D01*
X364749D02*
X365431Y318300D01*
X365772Y319706*
X365772D02*
Y320175D01*
X365431Y321581*
X365431D02*
X364749Y322519D01*
X364749D02*
X363726Y322987D01*
X363726D02*
X363385D01*
X363385D02*
X362363Y322519D01*
X361681Y321581*
X361681D02*
X361340Y320175D01*
X371567Y326737D02*
X368840Y316894D01*
X371567Y326737D02*
X374295Y316894D01*
X369863Y320175D02*
X373272D01*
X440545Y346737D02*
Y336894D01*
Y346737D02*
X444976D01*
X440545Y342050D02*
X443272D01*
X440545Y336894D02*
X444976D01*
X448045Y346737D02*
Y336894D01*
Y346737D02*
X450431D01*
X450431D02*
X451454Y346269D01*
X452135Y345331*
X452135D02*
X452476Y344394D01*
X452476D02*
X452817Y342987D01*
X452817D02*
Y340644D01*
X452817D02*
X452476Y339237D01*
X452476D02*
X452135Y338300D01*
X452135D02*
X451454Y337362D01*
X451454D02*
X450431Y336894D01*
X448045*
X455885Y344862D02*
X456567Y345331D01*
X456567D02*
X457590Y346737D01*
X457590D02*
Y336894D01*
X440545Y326737D02*
Y316894D01*
Y326737D02*
X444976D01*
X440545Y322050D02*
X443272D01*
X440545Y316894D02*
X444976D01*
X448045Y326737D02*
Y316894D01*
Y326737D02*
X450431D01*
X450431D02*
X451454Y326269D01*
X452135Y325331*
X452135D02*
X452476Y324394D01*
X452476D02*
X452817Y322987D01*
X452817D02*
Y320644D01*
X452817D02*
X452476Y319237D01*
X452476D02*
X452135Y318300D01*
X452135D02*
X451454Y317362D01*
X451454D02*
X450431Y316894D01*
X448045*
X455885Y324862D02*
X456567Y325331D01*
X456567D02*
X457590Y326737D01*
X457590D02*
Y316894D01*
X120317Y327831D02*
X119635Y328769D01*
X119635D02*
X118613Y329237D01*
X118613D02*
X117249D01*
X117249D02*
X116226Y328769D01*
X116226D02*
X115545Y327831D01*
X115545D02*
Y326894D01*
X115885Y325956*
X115885D02*
X116226Y325487D01*
X116226D02*
X116908Y325019D01*
X116908D02*
X118954Y324081D01*
X118954D02*
X119635Y323612D01*
X119635D02*
X119976Y323144D01*
X119976D02*
X120317Y322206D01*
X120317D02*
Y320800D01*
X120317D02*
X119635Y319862D01*
X119635D02*
X118613Y319394D01*
X117249*
X117249D02*
X116226Y319862D01*
X116226D02*
X115545Y320800D01*
X125431Y329237D02*
X124749Y328769D01*
X124749D02*
X124067Y327831D01*
X124067D02*
X123726Y326894D01*
X123726D02*
X123385Y325487D01*
X123385D02*
Y323144D01*
X123385D02*
X123726Y321737D01*
X123726D02*
X124067Y320800D01*
X124067D02*
X124749Y319862D01*
X124749D02*
X125431Y319394D01*
X126795*
X127476Y319862*
X127476D02*
X128158Y320800D01*
X128158D02*
X128499Y321737D01*
X128499D02*
X128840Y323144D01*
Y325487*
X128840D02*
X128499Y326894D01*
X128499D02*
X128158Y327831D01*
X128158D02*
X127476Y328769D01*
X127476D02*
X126795Y329237D01*
X126795D02*
X125431D01*
X131908D02*
Y319394D01*
X131908D02*
X135999D01*
X139067Y329237D02*
Y319394D01*
Y329237D02*
X141454D01*
X141454D02*
X142476Y328769D01*
X142476D02*
X143158Y327831D01*
X143158D02*
X143499Y326894D01*
X143499D02*
X143840Y325487D01*
X143840D02*
Y323144D01*
X143499Y321737*
X143499D02*
X143158Y320800D01*
X143158D02*
X142476Y319862D01*
X142476D02*
X141454Y319394D01*
X139067*
X146908Y329237D02*
Y319394D01*
Y329237D02*
X151340D01*
X146908Y324550D02*
X149635D01*
X146908Y319394D02*
X151340D01*
X154408Y329237D02*
Y319394D01*
Y329237D02*
X157476D01*
X157476D02*
X158499Y328769D01*
X158499D02*
X158840Y328300D01*
X159181Y327362*
X159181D02*
Y326425D01*
X158840Y325487*
X158840D02*
X158499Y325019D01*
X158499D02*
X157476Y324550D01*
X157476D02*
X154408D01*
X156795D02*
X159181Y319394D01*
X162249Y323612D02*
X168385D01*
X171454Y329237D02*
Y319394D01*
Y329237D02*
X174181Y319394D01*
X176908Y329237D02*
X174181Y319394D01*
X176908Y329237D02*
Y319394D01*
X182704Y329237D02*
X179976Y319394D01*
X182704Y329237D02*
X185431Y319394D01*
X180999Y322675D02*
X184408D01*
X193272Y327831D02*
X192590Y328769D01*
X191567Y329237*
X191567D02*
X190204D01*
X190204D02*
X189181Y328769D01*
X188499Y327831*
X188499D02*
Y326894D01*
X188499D02*
X188840Y325956D01*
X188840D02*
X189181Y325487D01*
X189181D02*
X189863Y325019D01*
X191908Y324081*
X191908D02*
X192590Y323612D01*
X192590D02*
X192931Y323144D01*
X193272Y322206*
X193272D02*
Y320800D01*
X192590Y319862*
X192590D02*
X191567Y319394D01*
X191567D02*
X190204D01*
X189181Y319862*
X189181D02*
X188499Y320800D01*
X196340Y329237D02*
Y319394D01*
X201113Y329237D02*
X196340Y322675D01*
X198045Y325019D02*
X201113Y319394D01*
X210317Y329237D02*
Y319394D01*
Y329237D02*
X213385D01*
X213385D02*
X214408Y328769D01*
X214408D02*
X214749Y328300D01*
X214749D02*
X215090Y327362D01*
X215090D02*
Y326425D01*
X214749Y325487*
X214749D02*
X214408Y325019D01*
X214408D02*
X213385Y324550D01*
X210317D02*
X213385D01*
X213385D02*
X214408Y324081D01*
X214408D02*
X214749Y323612D01*
X214749D02*
X215090Y322675D01*
Y321269*
X214749Y320331*
X214749D02*
X214408Y319862D01*
X214408D02*
X213385Y319394D01*
X213385D02*
X210317D01*
X220204Y329237D02*
X219522Y328769D01*
X218840Y327831*
X218840D02*
X218499Y326894D01*
X218499D02*
X218158Y325487D01*
X218158D02*
Y323144D01*
X218158D02*
X218499Y321737D01*
X218499D02*
X218840Y320800D01*
X219522Y319862*
X219522D02*
X220204Y319394D01*
X221567*
X221567D02*
X222249Y319862D01*
X222249D02*
X222931Y320800D01*
X223272Y321737*
X223272D02*
X223613Y323144D01*
Y325487*
X223613D02*
X223272Y326894D01*
X222931Y327831*
X222931D02*
X222249Y328769D01*
X222249D02*
X221567Y329237D01*
X221567D02*
X220204D01*
X229067D02*
Y319394D01*
X226681Y329237D02*
X231454D01*
X245431Y327831D02*
X244749Y328769D01*
X244749D02*
X243726Y329237D01*
X243726D02*
X242363D01*
X242363D02*
X241340Y328769D01*
X240658Y327831*
X240658D02*
Y326894D01*
X240658D02*
X240999Y325956D01*
X240999D02*
X241340Y325487D01*
X241340D02*
X242022Y325019D01*
X244067Y324081*
X244067D02*
X244749Y323612D01*
X244749D02*
X245090Y323144D01*
X245431Y322206*
X245431D02*
Y320800D01*
X244749Y319862*
X244749D02*
X243726Y319394D01*
X243726D02*
X242363D01*
X241340Y319862*
X241340D02*
X240658Y320800D01*
X248499Y329237D02*
Y319394D01*
X251567Y329237D02*
Y319394D01*
Y329237D02*
X253954D01*
X253954D02*
X254976Y328769D01*
X254976D02*
X255658Y327831D01*
X255658D02*
X255999Y326894D01*
X255999D02*
X256340Y325487D01*
X256340D02*
Y323144D01*
X255999Y321737*
X255999D02*
X255658Y320800D01*
X255658D02*
X254976Y319862D01*
X254976D02*
X253954Y319394D01*
X251567*
X259408Y329237D02*
Y319394D01*
Y329237D02*
X263840D01*
X259408Y324550D02*
X262135D01*
X259408Y319394D02*
X263840D01*
X141795Y82144D02*
Y71644D01*
X145067Y82144D02*
Y71644D01*
Y82144D02*
X149795D01*
X145067Y77144D02*
X147976D01*
X155976Y82144D02*
X153067Y71644D01*
X155976Y82144D02*
X158885Y71644D01*
X154158Y75144D02*
X157795D01*
X162158Y82144D02*
Y71644D01*
Y82144D02*
X165431D01*
X166522Y81644*
X166885Y81144*
X166885D02*
X167249Y80144D01*
X167249D02*
Y79144D01*
X167249D02*
X166885Y78144D01*
X166885D02*
X166522Y77644D01*
X165431Y77144*
X162158*
X164704D02*
X167249Y71644D01*
X175976Y79644D02*
X175613Y80644D01*
X174885Y81644*
X174885D02*
X174158Y82144D01*
X174158D02*
X172704D01*
X171976Y81644*
X171976D02*
X171249Y80644D01*
X171249D02*
X170885Y79644D01*
X170885D02*
X170522Y78144D01*
Y75644*
X170885Y74144*
X170885D02*
X171249Y73144D01*
X171249D02*
X171976Y72144D01*
X171976D02*
X172704Y71644D01*
X174158*
X174158D02*
X174885Y72144D01*
X174885D02*
X175613Y73144D01*
X175976Y74144*
X182158Y82144D02*
X179249Y71644D01*
X182158Y82144D02*
X185067Y71644D01*
X180340Y75144D02*
X183976D01*
X188340Y82144D02*
Y71644D01*
Y82144D02*
X190885D01*
X190885D02*
X191976Y81644D01*
X191976D02*
X192704Y80644D01*
X193067Y79644*
X193067D02*
X193431Y78144D01*
Y75644*
X193067Y74144*
X193067D02*
X192704Y73144D01*
X191976Y72144*
X191976D02*
X190885Y71644D01*
X190885D02*
X188340D01*
X208340Y80644D02*
X207613Y81644D01*
X206522Y82144*
X205067*
X205067D02*
X203976Y81644D01*
X203976D02*
X203249Y80644D01*
X203249D02*
Y79644D01*
X203249D02*
X203613Y78644D01*
X203976Y78144*
X203976D02*
X204704Y77644D01*
X206885Y76644*
X206885D02*
X207613Y76144D01*
X207976Y75644*
X207976D02*
X208340Y74644D01*
Y73144*
X207613Y72144*
X206522Y71644*
X205067*
X205067D02*
X203976Y72144D01*
X203976D02*
X203249Y73144D01*
X214522Y82144D02*
X211613Y71644D01*
X214522Y82144D02*
X217431Y71644D01*
X212704Y75144D02*
X216340D01*
X225795Y80644D02*
X225067Y81644D01*
X225067D02*
X223976Y82144D01*
X223976D02*
X222522D01*
X221431Y81644*
X220704Y80644*
Y79644*
X221067Y78644*
X221067D02*
X221431Y78144D01*
X222158Y77644*
X222158D02*
X224340Y76644D01*
X225067Y76144*
X225067D02*
X225431Y75644D01*
X225795Y74644*
Y73144*
X225067Y72144*
X225067D02*
X223976Y71644D01*
X223976D02*
X222522D01*
X221431Y72144*
X220704Y73144*
X129295Y251487D02*
Y241644D01*
Y251487D02*
X132363D01*
X132363D02*
X133385Y251019D01*
X133385D02*
X133726Y250550D01*
X133726D02*
X134067Y249612D01*
X134067D02*
Y248675D01*
X134067D02*
X133726Y247737D01*
X133726D02*
X133385Y247269D01*
X133385D02*
X132363Y246800D01*
X129295*
X131681D02*
X134067Y241644D01*
X137135Y251487D02*
Y241644D01*
Y251487D02*
X141567D01*
X137135Y246800D02*
X139863D01*
X137135Y241644D02*
X141567D01*
X144635Y251487D02*
X147363Y241644D01*
X150090Y251487D02*
X147363Y241644D01*
X153158Y251487D02*
Y241644D01*
X160999Y250081D02*
X160317Y251019D01*
X160317D02*
X159295Y251487D01*
X159295D02*
X157931D01*
X157931D02*
X156908Y251019D01*
X156908D02*
X156226Y250081D01*
X156226D02*
Y249144D01*
X156226D02*
X156567Y248206D01*
X156567D02*
X156908Y247737D01*
X156908D02*
X157590Y247269D01*
X159635Y246331*
X159635D02*
X160317Y245862D01*
X160317D02*
X160658Y245394D01*
X160658D02*
X160999Y244456D01*
X160999D02*
Y243050D01*
X160999D02*
X160317Y242112D01*
X160317D02*
X159295Y241644D01*
X157931*
X156908Y242112*
X156908D02*
X156226Y243050D01*
X164067Y251487D02*
Y241644D01*
X169181Y251487D02*
X168499Y251019D01*
X168499D02*
X167817Y250081D01*
X167817D02*
X167476Y249144D01*
X167476D02*
X167135Y247737D01*
X167135D02*
Y245394D01*
X167135D02*
X167476Y243987D01*
X167476D02*
X167817Y243050D01*
X167817D02*
X168499Y242112D01*
X168499D02*
X169181Y241644D01*
X170545*
X171226Y242112*
X171226D02*
X171908Y243050D01*
X171908D02*
X172249Y243987D01*
X172249D02*
X172590Y245394D01*
Y247737*
X172590D02*
X172249Y249144D01*
X172249D02*
X171908Y250081D01*
X171908D02*
X171226Y251019D01*
X171226D02*
X170545Y251487D01*
X170545D02*
X169181D01*
X175658D02*
Y241644D01*
Y251487D02*
X180431Y241644D01*
Y251487D02*
Y241644D01*
X189635Y251487D02*
Y241644D01*
Y251487D02*
X192022D01*
X192022D02*
X193045Y251019D01*
X193726Y250081*
X193726D02*
X194067Y249144D01*
X194067D02*
X194408Y247737D01*
X194408D02*
Y245394D01*
X194408D02*
X194067Y243987D01*
X194067D02*
X193726Y243050D01*
X193726D02*
X193045Y242112D01*
X193045D02*
X192022Y241644D01*
X189635*
X200204Y251487D02*
X197476Y241644D01*
X200204Y251487D02*
X202931Y241644D01*
X198499Y244925D02*
X201908D01*
X208385Y251487D02*
Y241644D01*
X205999Y251487D02*
X210772D01*
X213840D02*
Y241644D01*
Y251487D02*
X218272D01*
X213840Y246800D02*
X216567D01*
X213840Y241644D02*
X218272D01*
X120890Y110927D02*
X120208Y111865D01*
X120208D02*
X119186Y112333D01*
X119186D02*
X117822D01*
X117822D02*
X116799Y111865D01*
X116799D02*
X116118Y110927D01*
X116118D02*
Y109990D01*
X116458Y109052*
X116458D02*
X116799Y108583D01*
X116799D02*
X117481Y108115D01*
X117481D02*
X119527Y107177D01*
X119527D02*
X120208Y106708D01*
X120208D02*
X120549Y106240D01*
X120549D02*
X120890Y105302D01*
X120890D02*
Y103896D01*
X120890D02*
X120208Y102958D01*
X120208D02*
X119186Y102490D01*
X117822*
X117822D02*
X116799Y102958D01*
X116799D02*
X116118Y103896D01*
X126345Y112333D02*
Y102490D01*
X123958Y112333D02*
X128731D01*
X131799D02*
Y102490D01*
Y112333D02*
X134527Y102490D01*
X137254Y112333D02*
X134527Y102490D01*
X137254Y112333D02*
Y102490D01*
X140322Y112333D02*
X140663Y111865D01*
X141004Y112333*
X141004D02*
X140663Y112802D01*
X140663D02*
X140322Y112333D01*
X140663Y109052D02*
Y102490D01*
X148163Y107646D02*
X147481Y108583D01*
X147481D02*
X146799Y109052D01*
X146799D02*
X145777D01*
X145777D02*
X145095Y108583D01*
X145095D02*
X144413Y107646D01*
X144072Y106240*
X144072D02*
Y105302D01*
X144072D02*
X144413Y103896D01*
X145095Y102958*
X145095D02*
X145777Y102490D01*
X146799*
X146799D02*
X147481Y102958D01*
X147481D02*
X148163Y103896D01*
X151231Y109052D02*
Y102490D01*
Y106240D02*
X151572Y107646D01*
X151572D02*
X152254Y108583D01*
X152254D02*
X152936Y109052D01*
X152936D02*
X153958D01*
X158731D02*
X158049Y108583D01*
X158049D02*
X157368Y107646D01*
X157027Y106240*
Y105302*
X157027D02*
X157368Y103896D01*
X158049Y102958*
X158049D02*
X158731Y102490D01*
X158731D02*
X159754D01*
X160436Y102958*
X160436D02*
X161118Y103896D01*
X161458Y105302*
X161458D02*
Y106240D01*
X161458D02*
X161118Y107646D01*
X160436Y108583*
X160436D02*
X159754Y109052D01*
X159754D02*
X158731D01*
X164527Y106240D02*
X168618D01*
Y107177*
X168618D02*
X168277Y108115D01*
X167936Y108583*
X167936D02*
X167254Y109052D01*
X167254D02*
X166231D01*
X166231D02*
X165549Y108583D01*
X165549D02*
X164868Y107646D01*
X164527Y106240*
Y105302*
X164527D02*
X164868Y103896D01*
X165549Y102958*
X165549D02*
X166231Y102490D01*
X166231D02*
X167254D01*
X167936Y102958*
X167936D02*
X168618Y103896D01*
X171686Y112333D02*
Y102490D01*
X174754Y106240D02*
X178845D01*
Y107177*
X178845D02*
X178504Y108115D01*
X178163Y108583*
X178163D02*
X177481Y109052D01*
X177481D02*
X176458D01*
X176458D02*
X175777Y108583D01*
X175777D02*
X175095Y107646D01*
X174754Y106240*
Y105302*
X174754D02*
X175095Y103896D01*
X175777Y102958*
X175777D02*
X176458Y102490D01*
X176458D02*
X177481D01*
X177481D02*
X178163Y102958D01*
X178163D02*
X178845Y103896D01*
X186004Y107646D02*
X185322Y108583D01*
X185322D02*
X184640Y109052D01*
X184640D02*
X183618D01*
X183618D02*
X182936Y108583D01*
X182936D02*
X182254Y107646D01*
X181913Y106240*
Y105302*
X181913D02*
X182254Y103896D01*
X182936Y102958*
X182936D02*
X183618Y102490D01*
X184640*
X184640D02*
X185322Y102958D01*
X185322D02*
X186004Y103896D01*
X190095Y112333D02*
Y104365D01*
X190436Y102958*
X190436D02*
X191118Y102490D01*
X191799*
X189072Y109052D02*
X191458D01*
X194868D02*
Y102490D01*
Y106240D02*
X195208Y107646D01*
X195208D02*
X195890Y108583D01*
X195890D02*
X196572Y109052D01*
X196572D02*
X197595D01*
X202368D02*
X201686Y108583D01*
X201686D02*
X201004Y107646D01*
X200663Y106240*
Y105302*
X200663D02*
X201004Y103896D01*
X201686Y102958*
X201686D02*
X202368Y102490D01*
X203390*
X203390D02*
X204072Y102958D01*
X204072D02*
X204754Y103896D01*
X205095Y105302*
X205095D02*
Y106240D01*
X204754Y107646*
X204072Y108583*
X204072D02*
X203390Y109052D01*
X203390D02*
X202368D01*
X208163D02*
Y102490D01*
Y107177D02*
X209186Y108583D01*
X209186D02*
X209868Y109052D01*
X209868D02*
X210890D01*
X210890D02*
X211572Y108583D01*
X211572D02*
X211913Y107177D01*
X211913D02*
Y102490D01*
X214981Y112333D02*
X215322Y111865D01*
X215322D02*
X215663Y112333D01*
X215663D02*
X215322Y112802D01*
X215322D02*
X214981Y112333D01*
X215322Y109052D02*
Y102490D01*
X222822Y107646D02*
X222140Y108583D01*
X222140D02*
X221458Y109052D01*
X221458D02*
X220436D01*
X220436D02*
X219754Y108583D01*
X219754D02*
X219072Y107646D01*
X219072D02*
X218731Y106240D01*
X218731D02*
Y105302D01*
X218731D02*
X219072Y103896D01*
X219072D02*
X219754Y102958D01*
X219754D02*
X220436Y102490D01*
X221458*
X221458D02*
X222140Y102958D01*
X222140D02*
X222822Y103896D01*
X229640Y107646D02*
X229299Y108583D01*
X229299D02*
X228277Y109052D01*
X228277D02*
X227254D01*
X227254D02*
X226231Y108583D01*
X226231D02*
X225890Y107646D01*
X225890D02*
X226231Y106708D01*
X226231D02*
X226913Y106240D01*
X228618Y105771*
X229299Y105302*
X229299D02*
X229640Y104365D01*
X229640D02*
Y103896D01*
X229640D02*
X229299Y102958D01*
X229299D02*
X228277Y102490D01*
X227254*
X226231Y102958*
X226231D02*
X225890Y103896D01*
G54D17*
X253295Y196737D02*
Y192144D01*
Y196737D02*
X254726D01*
X254726D02*
X255204Y196519D01*
X255363Y196300*
X255522Y195862*
X255522D02*
Y195425D01*
X255363Y194987*
X255363D02*
X255204Y194769D01*
X254726Y194550*
X254726D02*
X253295D01*
X254408D02*
X255522Y192144D01*
G54D18*
X581230Y91336D02*
X581048Y91211D01*
X581048D02*
X580866Y90961D01*
X580866D02*
X580775Y90711D01*
X580775D02*
X580685Y90336D01*
Y89711*
X580775Y89336*
X580775D02*
X580866Y89086D01*
X580866D02*
X581048Y88836D01*
X581048D02*
X581230Y88711D01*
X581594*
X581775Y88836*
X581775D02*
X581957Y89086D01*
X581957D02*
X582048Y89336D01*
X582048D02*
X582139Y89711D01*
X582139D02*
Y90336D01*
X582139D02*
X582048Y90711D01*
X582048D02*
X581957Y90961D01*
X581957D02*
X581775Y91211D01*
X581775D02*
X581594Y91336D01*
X581230*
G54D27*
X716795Y227831D02*
Y208144D01*
X724976*
X739295Y225019D02*
X738613Y226894D01*
X736567Y227831*
X736567D02*
X735204D01*
X735204D02*
X733158Y226894D01*
X733158D02*
X731795Y224081D01*
X731795D02*
X731113Y219394D01*
Y214706*
X731113D02*
X731795Y210956D01*
X731795D02*
X733158Y209081D01*
X733158D02*
X735204Y208144D01*
X735885*
X735885D02*
X737931Y209081D01*
X737931D02*
X739295Y210956D01*
X739295D02*
X739976Y213769D01*
X739976D02*
Y214706D01*
X739976D02*
X739295Y217519D01*
X737931Y219394*
X735885Y220331*
X735885D02*
X735204D01*
X735204D02*
X733158Y219394D01*
X733158D02*
X731795Y217519D01*
X731113Y214706*
X746795Y223144D02*
Y224081D01*
X746795D02*
X747476Y225956D01*
X747476D02*
X748158Y226894D01*
X748158D02*
X749522Y227831D01*
X749522D02*
X752249D01*
X752249D02*
X753613Y226894D01*
X754295Y225956*
X754295D02*
X754976Y224081D01*
X754976D02*
Y222206D01*
X754976D02*
X754295Y220331D01*
X754295D02*
X752931Y217519D01*
X746113Y208144*
X755658*
X765885Y227831D02*
X763840Y226894D01*
X762476Y224081*
X762476D02*
X761795Y219394D01*
Y216581*
X761795D02*
X762476Y211894D01*
X762476D02*
X763840Y209081D01*
X763840D02*
X765885Y208144D01*
X765885D02*
X767249D01*
X767249D02*
X769295Y209081D01*
X769295D02*
X770658Y211894D01*
X770658D02*
X771340Y216581D01*
X771340D02*
Y219394D01*
X770658Y224081*
X770658D02*
X769295Y226894D01*
X767249Y227831*
X767249D02*
X765885D01*
X785658Y225019D02*
X784976Y226894D01*
X784976D02*
X782931Y227831D01*
X782931D02*
X781567D01*
X781567D02*
X779522Y226894D01*
X778158Y224081*
X778158D02*
X777476Y219394D01*
X777476D02*
Y214706D01*
X777476D02*
X778158Y210956D01*
X778158D02*
X779522Y209081D01*
X779522D02*
X781567Y208144D01*
X781567D02*
X782249D01*
X782249D02*
X784295Y209081D01*
X784295D02*
X785658Y210956D01*
X785658D02*
X786340Y213769D01*
Y214706*
X786340D02*
X785658Y217519D01*
X785658D02*
X784295Y219394D01*
X782249Y220331*
X782249D02*
X781567D01*
X781567D02*
X779522Y219394D01*
X778158Y217519*
X778158D02*
X777476Y214706D01*
G54D28*
X719795Y153025D02*
X720931Y153806D01*
X720931D02*
X722635Y156150D01*
X722635D02*
Y139744D01*
X728317Y150681D02*
X727749Y149900D01*
X727749D02*
X728317Y149119D01*
X728317D02*
X728885Y149900D01*
X728885D02*
X728317Y150681D01*
Y141306D02*
X727749Y140525D01*
X727749D02*
X728317Y139744D01*
X728317D02*
X728885Y140525D01*
X728885D02*
X728317Y141306D01*
X733999Y153025D02*
X735135Y153806D01*
X735135D02*
X736840Y156150D01*
Y139744*
X789795Y153025D02*
X790931Y153806D01*
X790931D02*
X792635Y156150D01*
X792635D02*
Y139744D01*
G74*
X0Y0D02*
M02*
