*
*
G04 PowerPCB (Build Number [351.51 ]) generated Gerber (RS-274-X) file*
G04 PC Version=2.1*
*
%IN "L6206Pd-2.pcb"*%
*
%MOIN*%
*
%FSLAX35Y35*%
*
*
*
*
G04 PC Standard Apertures*
*
*
G04 Thermal Relief Aperture macro.*
%AMTER*
1,1,$1,0,0*
1,0,$1-$2,0,0*
21,0,$3,$4,0,0,45*
21,0,$3,$4,0,0,135*
%
*
*
G04 Annular Aperture macro.*
%AMANN*
1,1,$1,0,0*
1,0,$2,0,0*
%
*
*
G04 Odd Aperture macro.*
%AMODD*
1,1,$1,0,0*
1,0,$1-0.005,0,0*
%
*
*
G04 PC Custom Aperture Macros*
*
*
*
*
*
*
G04 PC Aperture Table*
*
%ADD010C,0.02*%
%ADD011C,0.01*%
%ADD012C,0.012*%
%ADD014C,0.024*%
%ADD015C,0.008*%
%ADD016C,0.015*%
%ADD017C,0.007*%
%ADD018C,0.004*%
%ADD019R,0.06X0.06*%
%ADD020C,0.06*%
%ADD023C,0.1*%
%ADD027C,0.03*%
%ADD028C,0.025*%
%ADD029C,0.05*%
%ADD030R,0.07X0.07*%
%ADD041C,0.04*%
%ADD050R,0.035X0.035*%
%ADD051R,0.015X0.015*%
%ADD052R,0.032X0.032*%
%ADD053R,0.044X0.044*%
%ADD054R,0.063X0.063*%
%ADD055C,0.036*%
*
*
*
*
G04 PC Custom Flashes*
G04 Layer Name L6206Pd-2.pcb - flashes*
%LPD*%
*
*
G04 PC Circuitry*
G04 Layer Name L6206Pd-2.pcb - circuitry*
%LPD*%
*
G54D10*
G01X734295Y236644D02*
Y254144D01*
X651795Y236644D02*
Y254144D01*
X569295Y236644D02*
Y254144D01*
X486795Y236644D02*
Y254144D01*
X404295Y236644D02*
Y254144D01*
X321795Y236644D02*
Y254144D01*
X239295Y236644D02*
Y254144D01*
X435826Y713754D02*
X441815D01*
X443815Y711754*
X510315Y711254D02*
X544315D01*
X547815Y714754*
Y777754*
X314815Y756254D02*
X324705D01*
X514815Y788254D02*
Y781254D01*
X544315*
X547815Y777754*
X514815Y788254D02*
X515315Y788754D01*
X352303Y808754D02*
Y823754D01*
X335815Y816254D02*
X335826Y823754D01*
X467815Y822754D02*
Y826354D01*
X466315Y828754D02*
X467315Y827754D01*
X467815Y826354*
X466315Y828754D02*
X466378Y832423D01*
X474215Y825654D02*
X474252Y832423D01*
X429815Y845254D02*
Y848754D01*
X429826Y851254*
X441315Y879254D02*
Y884754D01*
G54D11*
X220295Y1016144D02*
Y956144D01*
X190295Y986144D02*
X250295D01*
X240295D02*
G75*
G03X240295I-20000D01*
G01X235295D02*
G03X235295I-15000D01*
G01X231475D02*
G03X231475I-11180D01*
G01X225295D02*
G03X225295I-5000D01*
G01X649795Y997644D02*
Y937644D01*
X619795Y967644D02*
X679795D01*
X669795D02*
G03X669795I-20000D01*
G01X664795D02*
G03X664795I-15000D01*
G01X660975D02*
G03X660975I-11180D01*
G01X654795D02*
G03X654795I-5000D01*
G01X13409Y17471D02*
Y47372D01*
X836638Y1182825D02*
Y1153672D01*
Y1182825D02*
X807063D01*
X606275Y145798D02*
X649582D01*
X653519D02*
X677141D01*
X665330Y133987D02*
Y157609D01*
X645645D02*
Y133987D01*
X614149Y141861*
Y149735*
X645645Y157609*
X665330D02*
Y161546D01*
X653519Y145798D02*
X651551D01*
X677141D02*
X679110D01*
X665330Y133987D02*
Y132018D01*
X257043Y227254D02*
X212161D01*
X257043Y226664D02*
X212161D01*
X256452Y226073D02*
X211571D01*
X256452Y225483D02*
X211571D01*
X256452Y224892D02*
X210980D01*
X255862Y224301D02*
X210980D01*
X255271Y223711D02*
X215704D01*
Y223120*
X217476Y223711D02*
X210389D01*
X215114Y223120D02*
X210980D01*
X212161Y222530D02*
X209799D01*
X211571Y221939D02*
X209799D01*
X210980D02*
X209799D01*
X213342Y223120D02*
X210389D01*
Y221349D02*
X209208D01*
Y220168D02*
X210980Y221939D01*
X208027Y216624D02*
X207437D01*
X208027Y216034D02*
X207437D01*
X209208Y220168D02*
X210389Y221349D01*
X208027Y215443D02*
X206846D01*
X208027Y214853D02*
X206846D01*
X208027Y214262D02*
X206846D01*
X208027Y213672D02*
X206256D01*
X208618Y213081D02*
X206256D01*
X208618Y212490D02*
X205665D01*
X208618Y211900D02*
X205665D01*
X209208Y211309D02*
X205665D01*
X209799Y210719D02*
X205075D01*
X209799Y210128D02*
X205075D01*
X210389Y209538D02*
X204484D01*
X210980Y208947D02*
X204484D01*
X212161Y208357D02*
X204484D01*
X212752Y207766D02*
X203893D01*
X213342Y207175D02*
X203303D01*
X213933Y206585D02*
X203303D01*
X214523Y205994D02*
X203303D01*
X215114Y205404D02*
X202712D01*
X215704Y204813D02*
X202712D01*
X216295Y204223D02*
X202122D01*
X217476Y203632D02*
X202122D01*
X218067Y203042D02*
X202122D01*
X218657Y202451D02*
X201531D01*
X219248Y201861D02*
X201531D01*
X219838Y201270D02*
X201531D01*
X219838Y200679D02*
X200941D01*
X235193Y215443D02*
X216295D01*
Y214853*
X234602D02*
X216886D01*
X234602Y214262D02*
X216886D01*
X234602Y213672D02*
X217476D01*
X234012Y213081D02*
X218657D01*
X234012Y212490D02*
X218657D01*
X233421Y211900D02*
X219838D01*
X233421Y211309D02*
X220429D01*
X233421Y210719D02*
X221019D01*
X232830Y210128D02*
X221610D01*
X232830Y209538D02*
X222201D01*
X232240Y208947D02*
X222791D01*
X232240Y208357D02*
X223382D01*
X231649Y207766D02*
X223972D01*
X231649Y207175D02*
X224563D01*
X231649Y206585D02*
X224563D01*
X231059Y205994D02*
X225744D01*
X231059Y205404D02*
X226334D01*
X230468Y204813D02*
X226925D01*
X230468Y204223D02*
X226925D01*
X230468Y203632D02*
X227515D01*
X229878Y203042D02*
X228106D01*
X229878Y202451D02*
X228106D01*
X229287Y201861D02*
X228106D01*
X229287Y201270D02*
X228106D01*
X229287Y200679D02*
X228106D01*
X228697Y200089D02*
X228106D01*
X228697Y199498D02*
X228106D01*
Y198908D02*
Y197727D01*
X227515Y195955D02*
X226925D01*
Y195364D02*
X226334D01*
X226925Y194774D02*
X225744D01*
X226334Y194183D02*
X225744D01*
X226334Y193593D02*
X225153D01*
X243460Y215443D02*
X252319D01*
X243460Y214853D02*
X251728D01*
X242870Y214262D02*
X251728D01*
X242870Y213672D02*
X251138D01*
X242279Y213081D02*
X251138D01*
X242279Y212490D02*
X250547D01*
X242279Y211900D02*
X250547D01*
X241689Y211309D02*
X250547D01*
X241689Y210719D02*
X249956D01*
X241098Y210128D02*
X249956D01*
X241098Y209538D02*
X249366D01*
X240508Y208947D02*
X249366D01*
X240508Y208357D02*
X249366D01*
X240508Y207766D02*
X248775D01*
X239917Y207175D02*
X248775D01*
X239917Y206585D02*
X248185D01*
X239326Y205994D02*
X248185D01*
Y205404*
X239326D02*
X247594D01*
Y204813*
X238736Y204223D02*
X247594D01*
X238736Y204813D02*
X247004D01*
X238736Y203632D02*
X247004D01*
Y203042*
X238145D02*
X246413D01*
Y202451*
X238145D02*
X245823D01*
X237555Y201861D02*
X246413D01*
X237555Y201270D02*
X246413D01*
X237555Y200679D02*
X245823D01*
X236964Y200089D02*
X245823D01*
X236964Y199498D02*
X245232D01*
X236374Y198908D02*
X245232D01*
X236374Y198317D02*
X245232D01*
X235783Y197727D02*
X244641D01*
X235783Y197136D02*
X244641D01*
X235783Y196546D02*
X244051D01*
X235193Y195955D02*
X244051D01*
X235193Y195364D02*
X244051D01*
X235193Y194774D02*
X243460D01*
X234602Y194183D02*
X243460D01*
X234602Y193593D02*
X242870D01*
X258417Y194144D02*
G03X258417I-4122D01*
G01X243311Y216250D02*
X252913D01*
X243311Y192939*
X233704*
X243311Y216250*
X217799D02*
X236008D01*
X226401Y192939*
X222701*
X224000Y193238*
X225201Y194140*
X227303Y197140*
X227901Y201242*
X227204Y203345*
X225701Y205242*
X217299Y213349*
X215897Y214648*
X215598Y215550*
X216299Y216050*
X217799Y216250*
X211795Y209144D02*
X210295Y210447D01*
X209094Y212349*
X208496Y214648*
X208397Y217050*
X209197Y219349*
X210795Y221349*
X213598Y222652*
X217598Y223152*
X255815Y223050*
X257913Y227853*
X211795*
X200193Y200144*
X218000*
X219401*
X220098Y200644*
X220201Y201542*
X219299Y202443*
X211795Y209144*
X807063Y17471D02*
X836638D01*
Y47372*
X13362Y17175D02*
X42153D01*
X13409Y1182825D02*
Y1153672D01*
Y1182805D02*
X37035D01*
X584295Y713144D02*
Y653144D01*
X554295Y683144D02*
X614295D01*
X604295D02*
G03X604295I-20000D01*
G01X599295D02*
G03X599295I-15000D01*
G01X595475D02*
G03X595475I-11180D01*
G01X589295D02*
G03X589295I-5000D01*
G01X118299Y161546D02*
X116118Y153671D01*
X118299Y161546D02*
X120481Y153671D01*
X116936Y156296D02*
X119663D01*
X122936Y161546D02*
Y153671D01*
X126208*
X128663Y161546D02*
Y153671D01*
X131936*
X139299Y161546D02*
Y153671D01*
Y161546D02*
X141754D01*
X142572Y161171*
X142572D02*
X142845Y160796D01*
X143118Y160046*
Y159296*
X142845Y158546*
X142572Y158171*
X142572D02*
X141754Y157796D01*
X139299*
X141208D02*
X143118Y153671D01*
X145572Y161546D02*
Y153671D01*
X152118Y159671D02*
X151845Y160421D01*
X151299Y161171*
X151299D02*
X150754Y161546D01*
X149663*
X149118Y161171*
X148572Y160421*
X148572D02*
X148299Y159671D01*
X148299D02*
X148027Y158546D01*
Y156671*
X148299Y155546*
X148299D02*
X148572Y154796D01*
X148572D02*
X149118Y154046D01*
X149663Y153671*
X150754*
X151299Y154046*
X151299D02*
X151845Y154796D01*
X152118Y155546*
Y156671*
X150754D02*
X152118D01*
X154572Y161546D02*
Y153671D01*
X158390Y161546D02*
Y153671D01*
X154572Y157796D02*
X158390D01*
X162754Y161546D02*
Y153671D01*
X160845Y161546D02*
X164663D01*
X170936Y160421D02*
X170390Y161171D01*
X170390D02*
X169572Y161546D01*
X169572D02*
X168481D01*
X168481D02*
X167663Y161171D01*
X167118Y160421*
Y159671*
X167390Y158921*
X167390D02*
X167663Y158546D01*
X168208Y158171*
X168208D02*
X169845Y157421D01*
X170390Y157046*
X170390D02*
X170663Y156671D01*
X170936Y155921*
Y154796*
X170390Y154046*
X170390D02*
X169572Y153671D01*
X169572D02*
X168481D01*
X168481D02*
X167663Y154046D01*
X167118Y154796*
X182118Y160421D02*
X181572Y161171D01*
X181572D02*
X180754Y161546D01*
X179663*
X178845Y161171*
X178299Y160421*
X178299D02*
Y159671D01*
X178299D02*
X178572Y158921D01*
X178572D02*
X178845Y158546D01*
X179390Y158171*
X179390D02*
X181027Y157421D01*
X181572Y157046*
X181572D02*
X181845Y156671D01*
X182118Y155921*
Y154796*
X181572Y154046*
X181572D02*
X180754Y153671D01*
X179663*
X178845Y154046*
X178299Y154796*
X186481Y161546D02*
Y153671D01*
X184572Y161546D02*
X188390D01*
X190845D02*
Y153671D01*
Y161546D02*
X193299D01*
X193299D02*
X194118Y161171D01*
X194390Y160796*
X194390D02*
X194663Y160046D01*
Y159296*
X194390Y158546*
X194390D02*
X194118Y158171D01*
X193299Y157796*
X193299D02*
X190845D01*
X192754D02*
X194663Y153671D01*
X197118Y161546D02*
Y153671D01*
X203663Y159671D02*
X203390Y160421D01*
X203390D02*
X202845Y161171D01*
X202299Y161546*
X202299D02*
X201208D01*
X201208D02*
X200663Y161171D01*
X200118Y160421*
X199845Y159671*
X199572Y158546*
X199572D02*
Y156671D01*
X199572D02*
X199845Y155546D01*
X200118Y154796*
X200663Y154046*
X201208Y153671*
X201208D02*
X202299D01*
X202299D02*
X202845Y154046D01*
X203390Y154796*
X203390D02*
X203663Y155546D01*
X208027Y161546D02*
Y153671D01*
X206118Y161546D02*
X209936D01*
X212390D02*
Y153671D01*
X212390D02*
X215663D01*
X218118Y161546D02*
X220299Y157796D01*
X220299D02*
Y153671D01*
X222481Y161546D02*
X220299Y157796D01*
X229845Y161546D02*
Y153671D01*
Y161546D02*
X232299D01*
X232299D02*
X233118Y161171D01*
X233390Y160796*
X233390D02*
X233663Y160046D01*
Y159296*
X233390Y158546*
X233390D02*
X233118Y158171D01*
X232299Y157796*
X232299D02*
X229845D01*
X231754D02*
X233663Y153671D01*
X236118Y161546D02*
Y153671D01*
Y161546D02*
X239663D01*
X236118Y157796D02*
X238299D01*
X236118Y153671D02*
X239663D01*
X245936Y160421D02*
X245390Y161171D01*
X245390D02*
X244572Y161546D01*
X244572D02*
X243481D01*
X243481D02*
X242663Y161171D01*
X242118Y160421*
Y159671*
X242390Y158921*
X242390D02*
X242663Y158546D01*
X243208Y158171*
X243208D02*
X244845Y157421D01*
X245390Y157046*
X245390D02*
X245663Y156671D01*
X245936Y155921*
Y154796*
X245390Y154046*
X245390D02*
X244572Y153671D01*
X244572D02*
X243481D01*
X243481D02*
X242663Y154046D01*
X242118Y154796*
X248390Y161546D02*
Y153671D01*
Y161546D02*
X251936D01*
X248390Y157796D02*
X250572D01*
X248390Y153671D02*
X251936D01*
X254390Y161546D02*
Y153671D01*
Y161546D02*
X256845D01*
X257663Y161171*
X257936Y160796*
X258208Y160046*
X258208D02*
Y159296D01*
X258208D02*
X257936Y158546D01*
X257663Y158171*
X256845Y157796*
X254390*
X256299D02*
X258208Y153671D01*
X260663Y161546D02*
X262845Y153671D01*
X265027Y161546D02*
X262845Y153671D01*
X267481Y161546D02*
Y153671D01*
Y161546D02*
X271027D01*
X267481Y157796D02*
X269663D01*
X267481Y153671D02*
X271027D01*
X273481Y161546D02*
Y153671D01*
Y161546D02*
X275390D01*
X275390D02*
X276208Y161171D01*
X276208D02*
X276754Y160421D01*
X277027Y159671*
X277299Y158546*
X277299D02*
Y156671D01*
X277299D02*
X277027Y155546D01*
X276754Y154796*
X276208Y154046*
X276208D02*
X275390Y153671D01*
X275390D02*
X273481D01*
X280027Y154421D02*
X279754Y154046D01*
X280027Y153671*
X280299Y154046*
X280299D02*
X280027Y154421D01*
X282754Y161546D02*
Y153671D01*
Y161546D02*
X285208D01*
X285208D02*
X286027Y161171D01*
X286299Y160796*
X286299D02*
X286572Y160046D01*
X286572D02*
Y159296D01*
X286572D02*
X286299Y158546D01*
X286299D02*
X286027Y158171D01*
X285208Y157796*
X285208D02*
X282754D01*
X284663D02*
X286572Y153671D01*
X289027Y161546D02*
Y153671D01*
Y161546D02*
X292572D01*
X289027Y157796D02*
X291208D01*
X289027Y153671D02*
X292572D01*
X295027Y161546D02*
Y153671D01*
Y161546D02*
X297481D01*
X297481D02*
X298299Y161171D01*
X298299D02*
X298572Y160796D01*
X298572D02*
X298845Y160046D01*
Y158921*
X298572Y158171*
X298572D02*
X298299Y157796D01*
X298299D02*
X297481Y157421D01*
X297481D02*
X295027D01*
X301299Y161546D02*
Y153671D01*
Y161546D02*
X303754D01*
X304572Y161171*
X304572D02*
X304845Y160796D01*
X305118Y160046*
Y159296*
X304845Y158546*
X304572Y158171*
X304572D02*
X303754Y157796D01*
X301299*
X303208D02*
X305118Y153671D01*
X309208Y161546D02*
X308663Y161171D01*
X308118Y160421*
X307845Y159671*
X307572Y158546*
X307572D02*
Y156671D01*
X307572D02*
X307845Y155546D01*
X308118Y154796*
X308663Y154046*
X309208Y153671*
X309208D02*
X310299D01*
X310299D02*
X310845Y154046D01*
X311390Y154796*
X311390D02*
X311663Y155546D01*
X311936Y156671*
Y158546*
X311663Y159671*
X311390Y160421*
X311390D02*
X310845Y161171D01*
X310299Y161546*
X310299D02*
X309208D01*
X314390Y157046D02*
X319299D01*
X116118Y149735D02*
Y141860D01*
Y149735D02*
X118027D01*
X118845Y149360*
X119390Y148610*
X119390D02*
X119663Y147860D01*
X119936Y146735*
Y144860*
X119663Y143735*
X119390Y142985*
X119390D02*
X118845Y142235D01*
X118027Y141860*
X116118*
X122390Y149735D02*
Y144110D01*
X122390D02*
X122663Y142985D01*
X123208Y142235*
X123208D02*
X124027Y141860D01*
X124572*
X124572D02*
X125390Y142235D01*
X125390D02*
X125936Y142985D01*
X126208Y144110*
X126208D02*
Y149735D01*
X132754Y147860D02*
X132481Y148610D01*
X132481D02*
X131936Y149360D01*
X131390Y149735*
X131390D02*
X130299D01*
X130299D02*
X129754Y149360D01*
X129208Y148610*
X129208D02*
X128936Y147860D01*
X128663Y146735*
Y144860*
X128936Y143735*
X129208Y142985*
X129208D02*
X129754Y142235D01*
X130299Y141860*
X130299D02*
X131390D01*
X131390D02*
X131936Y142235D01*
X132481Y142985*
X132481D02*
X132754Y143735D01*
X137118Y149735D02*
Y141860D01*
X135208Y149735D02*
X139027D01*
X141481D02*
Y141860D01*
X145572Y149735D02*
X145027Y149360D01*
X144481Y148610*
X144481D02*
X144208Y147860D01*
X144208D02*
X143936Y146735D01*
Y144860*
X144208Y143735*
X144208D02*
X144481Y142985D01*
X144481D02*
X145027Y142235D01*
X145572Y141860*
X145572D02*
X146663D01*
X147208Y142235*
X147208D02*
X147754Y142985D01*
X148027Y143735*
X148299Y144860*
X148299D02*
Y146735D01*
X148299D02*
X148027Y147860D01*
X147754Y148610*
X147208Y149360*
X147208D02*
X146663Y149735D01*
X145572*
X150754D02*
Y141860D01*
Y149735D02*
X154572Y141860D01*
Y149735D02*
Y141860D01*
X163572Y149735D02*
X163027Y149360D01*
X162481Y148610*
X162481D02*
X162208Y147860D01*
X162208D02*
X161936Y146735D01*
Y144860*
X162208Y143735*
X162208D02*
X162481Y142985D01*
X162481D02*
X163027Y142235D01*
X163572Y141860*
X163572D02*
X164663D01*
X165208Y142235*
X165208D02*
X165754Y142985D01*
X166027Y143735*
X166299Y144860*
X166299D02*
Y146735D01*
X166299D02*
X166027Y147860D01*
X165754Y148610*
X165208Y149360*
X165208D02*
X164663Y149735D01*
X163572*
X168754D02*
Y141860D01*
Y149735D02*
X171208D01*
X171208D02*
X172027Y149360D01*
X172299Y148985*
X172299D02*
X172572Y148235D01*
X172572D02*
Y147485D01*
X172572D02*
X172299Y146735D01*
X172299D02*
X172027Y146360D01*
X171208Y145985*
X171208D02*
X168754D01*
X170663D02*
X172572Y141860D01*
X179936Y149735D02*
Y141860D01*
X186208Y148610D02*
X185663Y149360D01*
X184845Y149735*
X183754*
X182936Y149360*
X182390Y148610*
X182390D02*
Y147860D01*
X182390D02*
X182663Y147110D01*
X182936Y146735*
X183481Y146360*
X183481D02*
X185118Y145610D01*
X185663Y145235*
X185936Y144860*
X186208Y144110*
X186208D02*
Y142985D01*
X186208D02*
X185663Y142235D01*
X184845Y141860*
X183754*
X182936Y142235*
X182390Y142985*
X192481Y148610D02*
X191936Y149360D01*
X191118Y149735*
X190027*
X189208Y149360*
X189208D02*
X188663Y148610D01*
Y147860*
X188936Y147110*
X189208Y146735*
X189208D02*
X189754Y146360D01*
X191390Y145610*
X191390D02*
X191936Y145235D01*
X192208Y144860*
X192208D02*
X192481Y144110D01*
X192481D02*
Y142985D01*
X192481D02*
X191936Y142235D01*
X191118Y141860*
X190027*
X189208Y142235*
X189208D02*
X188663Y142985D01*
X194936Y149735D02*
Y144110D01*
X195208Y142985*
X195208D02*
X195754Y142235D01*
X196572Y141860*
X196572D02*
X197118D01*
X197936Y142235*
X198481Y142985*
X198481D02*
X198754Y144110D01*
Y149735*
X201208D02*
Y141860D01*
Y149735D02*
X204754D01*
X201208Y145985D02*
X203390D01*
X201208Y141860D02*
X204754D01*
X214027Y149735D02*
Y141860D01*
X212118Y149735D02*
X215936D01*
X220027D02*
X219481Y149360D01*
X219481D02*
X218936Y148610D01*
X218663Y147860*
X218390Y146735*
X218390D02*
Y144860D01*
X218390D02*
X218663Y143735D01*
X218936Y142985*
X219481Y142235*
X219481D02*
X220027Y141860D01*
X221118*
X221663Y142235*
X222208Y142985*
X222208D02*
X222481Y143735D01*
X222481D02*
X222754Y144860D01*
Y146735*
X222481Y147860*
X222481D02*
X222208Y148610D01*
X222208D02*
X221663Y149360D01*
X221118Y149735*
X220027*
X232027D02*
Y141860D01*
X230118Y149735D02*
X233936D01*
X236390D02*
Y141860D01*
X240208Y149735D02*
Y141860D01*
X236390Y145985D02*
X240208D01*
X242663Y149735D02*
Y141860D01*
X245118Y149735D02*
Y141860D01*
Y149735D02*
X247572D01*
X247572D02*
X248390Y149360D01*
X248390D02*
X248663Y148985D01*
X248936Y148235*
Y147485*
X248663Y146735*
X248390Y146360*
X248390D02*
X247572Y145985D01*
X247572D02*
X245118D01*
X247027D02*
X248936Y141860D01*
X251390Y149735D02*
Y141860D01*
Y149735D02*
X253299D01*
X253299D02*
X254118Y149360D01*
X254663Y148610*
X254936Y147860*
X255208Y146735*
X255208D02*
Y144860D01*
X255208D02*
X254936Y143735D01*
X254663Y142985*
X254118Y142235*
X253299Y141860*
X253299D02*
X251390D01*
X262572Y149735D02*
Y141860D01*
Y149735D02*
X265027D01*
X265845Y149360*
X266118Y148985*
X266390Y148235*
X266390D02*
Y147110D01*
X266390D02*
X266118Y146360D01*
X265845Y145985*
X265027Y145610*
X262572*
X271027Y149735D02*
X268845Y141860D01*
X271027Y149735D02*
X273208Y141860D01*
X269663Y144485D02*
X272390D01*
X275663Y149735D02*
Y141860D01*
Y149735D02*
X278118D01*
X278936Y149360*
X279208Y148985*
X279208D02*
X279481Y148235D01*
X279481D02*
Y147485D01*
X279481D02*
X279208Y146735D01*
X279208D02*
X278936Y146360D01*
X278118Y145985*
X275663*
X277572D02*
X279481Y141860D01*
X283845Y149735D02*
Y141860D01*
X281936Y149735D02*
X285754D01*
X288208D02*
Y141860D01*
X290663Y149735D02*
Y141860D01*
Y149735D02*
X294208D01*
X290663Y145985D02*
X292845D01*
X290663Y141860D02*
X294208D01*
X300481Y148610D02*
X299936Y149360D01*
X299118Y149735*
X298027*
X297208Y149360*
X297208D02*
X296663Y148610D01*
Y147860*
X296936Y147110*
X297208Y146735*
X297208D02*
X297754Y146360D01*
X299390Y145610*
X299390D02*
X299936Y145235D01*
X300208Y144860*
X300208D02*
X300481Y144110D01*
X300481D02*
Y142985D01*
X300481D02*
X299936Y142235D01*
X299118Y141860*
X298027*
X297208Y142235*
X297208D02*
X296663Y142985D01*
X307845Y149735D02*
Y141860D01*
X310299Y149735D02*
Y141860D01*
Y149735D02*
X314118Y141860D01*
Y149735D02*
Y141860D01*
X117976Y138519D02*
X115795Y130644D01*
X117976Y138519D02*
X120158Y130644D01*
X116613Y133269D02*
X119340D01*
X122613Y138519D02*
Y130644D01*
Y138519D02*
X126431Y130644D01*
Y138519D02*
Y130644D01*
X128885Y138519D02*
X131067Y134769D01*
X131067D02*
Y130644D01*
X133249Y138519D02*
X131067Y134769D01*
X140613Y138519D02*
Y130644D01*
Y138519D02*
X144158D01*
X140613Y134769D02*
X142795D01*
X148249Y138519D02*
X147704Y138144D01*
X147158Y137394*
X147158D02*
X146885Y136644D01*
X146885D02*
X146613Y135519D01*
Y133644*
X146885Y132519*
X146885D02*
X147158Y131769D01*
X147158D02*
X147704Y131019D01*
X148249Y130644*
X148249D02*
X149340D01*
X149885Y131019*
X149885D02*
X150431Y131769D01*
X150704Y132519*
X150976Y133644*
X150976D02*
Y135519D01*
X150976D02*
X150704Y136644D01*
X150431Y137394*
X149885Y138144*
X149885D02*
X149340Y138519D01*
X148249*
X153431D02*
Y130644D01*
Y138519D02*
X155885D01*
X155885D02*
X156704Y138144D01*
X156976Y137769*
X156976D02*
X157249Y137019D01*
X157249D02*
Y136269D01*
X157249D02*
X156976Y135519D01*
X156976D02*
X156704Y135144D01*
X155885Y134769*
X155885D02*
X153431D01*
X155340D02*
X157249Y130644D01*
X159704Y138519D02*
Y130644D01*
Y138519D02*
X161885Y130644D01*
X164067Y138519D02*
X161885Y130644D01*
X164067Y138519D02*
Y130644D01*
X171431Y138519D02*
X172795Y130644D01*
X174158Y138519D02*
X172795Y130644D01*
X174158Y138519D02*
X175522Y130644D01*
X176885Y138519D02*
X175522Y130644D01*
X179340Y138519D02*
Y130644D01*
X183158Y138519D02*
Y130644D01*
X179340Y134769D02*
X183158D01*
X187795Y138519D02*
X185613Y130644D01*
X187795Y138519D02*
X189976Y130644D01*
X186431Y133269D02*
X189158D01*
X194340Y138519D02*
Y130644D01*
X192431Y138519D02*
X196249D01*
X198704D02*
Y130644D01*
Y138519D02*
X202249D01*
X198704Y134769D02*
X200885D01*
X198704Y130644D02*
X202249D01*
X204704Y138519D02*
X206885Y130644D01*
X209067Y138519D02*
X206885Y130644D01*
X211522Y138519D02*
Y130644D01*
Y138519D02*
X215067D01*
X211522Y134769D02*
X213704D01*
X211522Y130644D02*
X215067D01*
X217522Y138519D02*
Y130644D01*
Y138519D02*
X219976D01*
X219976D02*
X220795Y138144D01*
X221067Y137769*
X221067D02*
X221340Y137019D01*
Y136269*
X221067Y135519*
X221067D02*
X220795Y135144D01*
X219976Y134769*
X219976D02*
X217522D01*
X219431D02*
X221340Y130644D01*
X228704Y138519D02*
Y130644D01*
X234976Y137394D02*
X234431Y138144D01*
X233613Y138519*
X232522*
X231704Y138144*
X231158Y137394*
X231158D02*
Y136644D01*
X231158D02*
X231431Y135894D01*
X231704Y135519*
X232249Y135144*
X232249D02*
X233885Y134394D01*
X233885D02*
X234431Y134019D01*
X234704Y133644*
X234976Y132894*
X234976D02*
Y131769D01*
X234976D02*
X234431Y131019D01*
X233613Y130644*
X232522*
X231704Y131019*
X231158Y131769*
X242340Y138519D02*
Y130644D01*
Y138519D02*
X246158Y130644D01*
Y138519D02*
Y130644D01*
X250249Y138519D02*
X249704Y138144D01*
X249158Y137394*
X249158D02*
X248885Y136644D01*
X248885D02*
X248613Y135519D01*
Y133644*
X248885Y132519*
X248885D02*
X249158Y131769D01*
X249158D02*
X249704Y131019D01*
X250249Y130644*
X250249D02*
X251340D01*
X251885Y131019*
X251885D02*
X252431Y131769D01*
X252704Y132519*
X252976Y133644*
X252976D02*
Y135519D01*
X252976D02*
X252704Y136644D01*
X252431Y137394*
X251885Y138144*
X251885D02*
X251340Y138519D01*
X250249*
X257340D02*
Y130644D01*
X255431Y138519D02*
X259249D01*
X266613D02*
Y130644D01*
Y138519D02*
X269067D01*
X269067D02*
X269885Y138144D01*
X269885D02*
X270158Y137769D01*
X270158D02*
X270431Y137019D01*
Y135894*
X270158Y135144*
X270158D02*
X269885Y134769D01*
X269885D02*
X269067Y134394D01*
X269067D02*
X266613D01*
X272885Y138519D02*
Y130644D01*
Y138519D02*
X276431D01*
X272885Y134769D02*
X275067D01*
X272885Y130644D02*
X276431D01*
X278885Y138519D02*
Y130644D01*
Y138519D02*
X281340D01*
X282158Y138144*
X282158D02*
X282431Y137769D01*
X282704Y137019*
Y136269*
X282431Y135519*
X282158Y135144*
X282158D02*
X281340Y134769D01*
X278885*
X280795D02*
X282704Y130644D01*
X285158Y138519D02*
Y130644D01*
Y138519D02*
X287340Y130644D01*
X289522Y138519D02*
X287340Y130644D01*
X289522Y138519D02*
Y130644D01*
X291976Y138519D02*
Y130644D01*
X296340Y138519D02*
Y130644D01*
X294431Y138519D02*
X298249D01*
X302613D02*
Y130644D01*
X300704Y138519D02*
X304522D01*
X306976D02*
Y130644D01*
Y138519D02*
X310522D01*
X306976Y134769D02*
X309158D01*
X306976Y130644D02*
X310522D01*
X312976Y138519D02*
Y130644D01*
Y138519D02*
X314885D01*
X314885D02*
X315704Y138144D01*
X316249Y137394*
X316249D02*
X316522Y136644D01*
X316795Y135519*
Y133644*
X316522Y132519*
X316249Y131769*
X316249D02*
X315704Y131019D01*
X314885Y130644*
X314885D02*
X312976D01*
X115795Y126519D02*
X117158Y118644D01*
X118522Y126519D02*
X117158Y118644D01*
X118522Y126519D02*
X119885Y118644D01*
X121249Y126519D02*
X119885Y118644D01*
X123704Y126519D02*
Y118644D01*
X128067Y126519D02*
Y118644D01*
X126158Y126519D02*
X129976D01*
X132431D02*
Y118644D01*
X136249Y126519D02*
Y118644D01*
X132431Y122769D02*
X136249D01*
X140340Y126519D02*
X139795Y126144D01*
X139249Y125394*
X139249D02*
X138976Y124644D01*
X138976D02*
X138704Y123519D01*
Y121644*
X138976Y120519*
X138976D02*
X139249Y119769D01*
X139249D02*
X139795Y119019D01*
X140340Y118644*
X141431*
X141976Y119019*
X141976D02*
X142522Y119769D01*
X142795Y120519*
X143067Y121644*
X143067D02*
Y123519D01*
X143067D02*
X142795Y124644D01*
X142522Y125394*
X141976Y126144*
X141976D02*
X141431Y126519D01*
X140340*
X145522D02*
Y120894D01*
X145795Y119769*
X146340Y119019*
X147158Y118644*
X147158D02*
X147704D01*
X148522Y119019*
X149067Y119769*
X149067D02*
X149340Y120894D01*
Y126519*
X153704D02*
Y118644D01*
X151795Y126519D02*
X155613D01*
X162976D02*
X164340Y118644D01*
X165704Y126519D02*
X164340Y118644D01*
X165704Y126519D02*
X167067Y118644D01*
X168431Y126519D02*
X167067Y118644D01*
X170885Y126519D02*
Y118644D01*
Y126519D02*
X173340D01*
X174158Y126144*
X174158D02*
X174431Y125769D01*
X174704Y125019*
Y124269*
X174431Y123519*
X174158Y123144*
X174158D02*
X173340Y122769D01*
X170885*
X172795D02*
X174704Y118644D01*
X177158Y126519D02*
Y118644D01*
X181522Y126519D02*
Y118644D01*
X179613Y126519D02*
X183431D01*
X187795D02*
Y118644D01*
X185885Y126519D02*
X189704D01*
X192158D02*
Y118644D01*
Y126519D02*
X195704D01*
X192158Y122769D02*
X194340D01*
X192158Y118644D02*
X195704D01*
X198158Y126519D02*
Y118644D01*
Y126519D02*
X201976Y118644D01*
Y126519D02*
Y118644D01*
X211522Y126519D02*
X209340Y118644D01*
X211522Y126519D02*
X213704Y118644D01*
X210158Y121269D02*
X212885D01*
X216158Y126519D02*
Y120894D01*
X216158D02*
X216431Y119769D01*
X216976Y119019*
X216976D02*
X217795Y118644D01*
X218340*
X219158Y119019*
X219158D02*
X219704Y119769D01*
X219976Y120894*
X219976D02*
Y126519D01*
X224340D02*
Y118644D01*
X222431Y126519D02*
X226249D01*
X228704D02*
Y118644D01*
X232522Y126519D02*
Y118644D01*
X228704Y122769D02*
X232522D01*
X236613Y126519D02*
X236067Y126144D01*
X236067D02*
X235522Y125394D01*
X235249Y124644*
X235249D02*
X234976Y123519D01*
X234976D02*
Y121644D01*
X234976D02*
X235249Y120519D01*
X235249D02*
X235522Y119769D01*
X236067Y119019*
X236067D02*
X236613Y118644D01*
X237704*
X238249Y119019*
X238249D02*
X238795Y119769D01*
X239067Y120519*
X239067D02*
X239340Y121644D01*
Y123519*
X239067Y124644*
X239067D02*
X238795Y125394D01*
X238249Y126144*
X238249D02*
X237704Y126519D01*
X236613*
X241795D02*
Y118644D01*
Y126519D02*
X244249D01*
X244249D02*
X245067Y126144D01*
X245067D02*
X245340Y125769D01*
X245613Y125019*
Y124269*
X245340Y123519*
X245067Y123144*
X245067D02*
X244249Y122769D01*
X244249D02*
X241795D01*
X243704D02*
X245613Y118644D01*
X248067Y126519D02*
Y118644D01*
X254340Y126519D02*
X250522Y118644D01*
Y126519D02*
X254340D01*
X250522Y118644D02*
X254340D01*
X258976Y126519D02*
X256795Y118644D01*
X258976Y126519D02*
X261158Y118644D01*
X257613Y121269D02*
X260340D01*
X265522Y126519D02*
Y118644D01*
X263613Y126519D02*
X267431D01*
X269885D02*
Y118644D01*
X273976Y126519D02*
X273431Y126144D01*
X272885Y125394*
X272885D02*
X272613Y124644D01*
X272340Y123519*
Y121644*
X272613Y120519*
X272885Y119769*
X272885D02*
X273431Y119019D01*
X273976Y118644*
X273976D02*
X275067D01*
X275067D02*
X275613Y119019D01*
X276158Y119769*
X276158D02*
X276431Y120519D01*
X276704Y121644*
Y123519*
X276431Y124644*
X276158Y125394*
X276158D02*
X275613Y126144D01*
X275067Y126519*
X275067D02*
X273976D01*
X279158D02*
Y118644D01*
Y126519D02*
X282976Y118644D01*
Y126519D02*
Y118644D01*
X290340Y126519D02*
Y118644D01*
Y126519D02*
X293885D01*
X290340Y122769D02*
X292522D01*
X296340Y126519D02*
Y118644D01*
Y126519D02*
X298795D01*
X299613Y126144*
X299885Y125769*
X299885D02*
X300158Y125019D01*
X300158D02*
Y124269D01*
X300158D02*
X299885Y123519D01*
X299885D02*
X299613Y123144D01*
X298795Y122769*
X296340*
X298249D02*
X300158Y118644D01*
X304249Y126519D02*
X303704Y126144D01*
X303158Y125394*
X303158D02*
X302885Y124644D01*
X302885D02*
X302613Y123519D01*
Y121644*
X302885Y120519*
X302885D02*
X303158Y119769D01*
X303158D02*
X303704Y119019D01*
X304249Y118644*
X304249D02*
X305340D01*
X305885Y119019*
X305885D02*
X306431Y119769D01*
X306704Y120519*
X306976Y121644*
X306976D02*
Y123519D01*
X306976D02*
X306704Y124644D01*
X306431Y125394*
X305885Y126144*
X305885D02*
X305340Y126519D01*
X304249*
X309431D02*
Y118644D01*
Y126519D02*
X311613Y118644D01*
X313795Y126519D02*
X311613Y118644D01*
X313795Y126519D02*
Y118644D01*
X341022Y839254D02*
X343022Y841254D01*
X344607*
X344607D02*
X346315Y839546D01*
X346315D02*
Y837961D01*
X344857Y836504*
X344857D02*
X343022D01*
X341190Y838336*
Y839254*
X341022*
X343772Y836504D02*
X346315Y839046D01*
X342760Y836765D02*
X345928Y839933D01*
X342124Y837401D02*
X345292Y840569D01*
X341487Y838038D02*
X344655Y841206D01*
X341190Y839013D02*
X343430Y841254D01*
X489815Y826754D02*
Y858546D01*
X489815D02*
X487607Y860754D01*
X487607D02*
X440522D01*
X438315Y858546*
X438315D02*
Y828961D01*
X440814Y826461*
X440814D02*
Y824056D01*
X441279Y821754D02*
G03X440814Y824056I-3464J500D01*
G01X441279Y821754D02*
X442315D01*
Y826461*
X447315Y831461*
Y846754*
X475522*
X478315Y843961*
Y828961*
X480522Y826754*
X489815*
X434815Y824056D02*
Y841254D01*
X428315*
Y826461*
X433022Y821754*
X434350*
X434815Y824056D02*
G03X434350Y821754I3000J-1802D01*
G01X462315Y826461D02*
Y837254D01*
X456815*
Y833721*
Y828786D02*
G03Y833721I-4000J2468D01*
G01Y828786D02*
Y822961D01*
X458022Y821754*
X459614*
X459614D02*
Y822046D01*
X459815Y822963D02*
G03X459614Y822046I2000J-916D01*
G01X459815Y822963D02*
Y823961D01*
X462315Y826461*
X489815Y721461D02*
Y750754D01*
X475522*
X473315Y748546*
X473315D02*
Y738546D01*
X473315D02*
X470522Y735754D01*
X450107*
X450107D02*
X443565Y742296D01*
X443565D02*
Y755754D01*
X441158*
Y735297*
X440814Y734088D02*
G03X441158Y735297I-1955J1209D01*
G01X440815Y734088D02*
Y733961D01*
X445815Y728961*
Y721461*
X448022Y719254*
X487607*
X487607D02*
X489815Y721461D01*
X467815Y742254D02*
Y751046D01*
X467815D02*
X463357Y755504D01*
X463357D02*
X460607D01*
X460607D02*
X459982Y756129D01*
X459982D02*
X458315D01*
Y752961*
X463065Y748211*
Y742254*
X467815*
X436558Y738254D02*
Y754803D01*
X436558D02*
X435857Y755504D01*
X435857D02*
X432815D01*
Y738254*
X436558*
X469315Y821961D02*
Y834754D01*
X464815*
Y825046*
X464815D02*
X462015Y822246D01*
X462015D02*
Y821754D01*
X461957Y821254D02*
G03X462015Y821754I-2142J500D01*
G01X461957Y821254D02*
X468607D01*
X468607D02*
X469315Y821961D01*
X358982Y881379D02*
X365596D01*
X365596D02*
X357109Y889754D01*
X357109D02*
X347315D01*
Y880254*
X350522*
X353272Y877504*
X355107*
X355107D02*
X358982Y881379D01*
X467114Y768136D02*
Y771785D01*
X467114D02*
X466815D01*
Y771754*
X460522*
X459815Y771046*
X459815D02*
Y768961D01*
X461272Y767504*
X462607*
X462607D02*
X462857Y767754D01*
X462857D02*
X463398D01*
X463698Y767780D02*
G03X463398Y767753I0J-1699D01*
G01X463698Y767780D02*
X465198D01*
X465499Y767753D02*
G03X465198Y767780I-300J-1672D01*
G01X465499Y767754D02*
X465957D01*
X466257Y767780D02*
G03X465957Y767753I0J-1699D01*
G01X466257Y767780D02*
X466759D01*
X466759D02*
X467114Y768136D01*
X547815Y798961D02*
Y816046D01*
X547815D02*
X545607Y818254D01*
X545607D02*
X527607D01*
X527607D02*
X522315Y823546D01*
X522315D02*
Y856046D01*
X522315D02*
X520107Y858254D01*
X520107D02*
X500815D01*
Y828961*
X510815Y818961*
Y795754*
X507607*
X507607D02*
X504815Y798546D01*
X504815D02*
Y818546D01*
X504815D02*
X502607Y820754D01*
X502607D02*
X471522D01*
X469457Y818689*
X469457D02*
Y811427D01*
X469314Y810744D02*
G03X469457Y811427I-1556J683D01*
G01X469315Y810744D02*
Y806046D01*
X469315D02*
X466522Y803254D01*
X429107*
X429107D02*
X426315Y806046D01*
X426315D02*
Y810744D01*
X426172Y811427D02*
G03X426315Y810744I1700J0D01*
G01X426172Y811427D02*
Y818689D01*
X426172D02*
X419107Y825754D01*
X419107D02*
X400315D01*
Y828060*
X400315D02*
X395593Y833254D01*
X395593D02*
X388022D01*
X387315Y832546*
X387315D02*
Y762461D01*
X390522Y759254*
X398022*
X400815Y756461*
Y746461*
X405522Y741754*
X428107*
X428107D02*
X430315Y743961D01*
Y748546*
X430315D02*
X426315Y752546D01*
X426315D02*
Y757398D01*
X426172Y758080D02*
G03X426315Y757398I1700J0D01*
G01X426172Y758080D02*
Y766080D01*
X426315Y766763D02*
G03X426172Y766080I1557J-682D01*
G01X426315Y766763D02*
Y771461D01*
X429107Y774254*
X429107D02*
X468522D01*
X469315Y773461*
Y772720*
X469315D02*
X469433Y772602D01*
X470077Y771046D02*
G03X469433Y772602I-2199J0D01*
G01X470077Y771046D02*
Y768898D01*
X469433Y767342D02*
G03X470077Y768898I-1555J1556D01*
G01X469433Y767342D02*
X469315Y767224D01*
X469315D02*
Y766763D01*
X469457Y766080D02*
G03X469314Y766763I-1699J0D01*
G01X469457Y766080D02*
Y758080D01*
X469314Y757398D02*
G03X469457Y758080I-1556J682D01*
G01X469315Y757398D02*
Y755504D01*
X501357*
X501357D02*
X504815Y758961D01*
Y778961*
X507607Y781754*
X507607D02*
X510815D01*
Y758546*
X510815D02*
X500815Y748546D01*
X500815D02*
Y719254D01*
X515107*
X515107D02*
X519815Y723961D01*
Y753961*
X522607Y756754*
X522607D02*
X542607D01*
X542607D02*
X544815Y758961D01*
Y773546*
X544815D02*
X542607Y775754D01*
X542607D02*
X527607D01*
X527607D02*
X524815Y778546D01*
X524815D02*
Y793961D01*
X527607Y796754*
X527607D02*
X545607D01*
X545607D02*
X547815Y798961D01*
X492515Y778754D02*
G03X492515I-4700D01*
G01X477350Y844925D02*
X489815Y857389D01*
X477987Y844288D02*
X489815Y856116D01*
X478315Y843343D02*
X489815Y854843D01*
X478315Y842071D02*
X489815Y853571D01*
X478315Y840798D02*
X489815Y852298D01*
X478315Y839525D02*
X489815Y851025D01*
X478315Y838252D02*
X489815Y849752D01*
X478315Y836979D02*
X489815Y848479D01*
X478315Y835707D02*
X489815Y847207D01*
X478315Y834434D02*
X489815Y845934D01*
X478315Y833161D02*
X489815Y844661D01*
X478315Y831888D02*
X489815Y843388D01*
X478315Y830616D02*
X489815Y842116D01*
X478315Y829343D02*
X489815Y840843D01*
X478760Y828515D02*
X489815Y839570D01*
X479396Y827879D02*
X489815Y838297D01*
X480033Y827242D02*
X489815Y837024D01*
X480816Y826754D02*
X489815Y835752D01*
X482089Y826754D02*
X489815Y834479D01*
X483362Y826754D02*
X489815Y833206D01*
X484635Y826754D02*
X489815Y831933D01*
X485908Y826754D02*
X489815Y830660D01*
X487180Y826754D02*
X489815Y829388D01*
X488453Y826754D02*
X489815Y828115D01*
X489726Y826754D02*
X489815Y826842D01*
X476714Y845561D02*
X489757Y858604D01*
X476078Y846198D02*
X489120Y859240D01*
X475361Y846754D02*
X488484Y859877D01*
X474088Y846754D02*
X487848Y860513D01*
X472815Y846754D02*
X486815Y860754D01*
X471542Y846754D02*
X485542Y860754D01*
X470269Y846754D02*
X484269Y860754D01*
X468997Y846754D02*
X482997Y860754D01*
X467724Y846754D02*
X481724Y860754D01*
X466451Y846754D02*
X480451Y860754D01*
X465178Y846754D02*
X479178Y860754D01*
X463906Y846754D02*
X477906Y860754D01*
X462633Y846754D02*
X476633Y860754D01*
X461360Y846754D02*
X475360Y860754D01*
X460087Y846754D02*
X474087Y860754D01*
X458814Y846754D02*
X472814Y860754D01*
X457542Y846754D02*
X471542Y860754D01*
X456269Y846754D02*
X470269Y860754D01*
X454996Y846754D02*
X468996Y860754D01*
X453723Y846754D02*
X467723Y860754D01*
X452450Y846754D02*
X466450Y860754D01*
X451178Y846754D02*
X465178Y860754D01*
X449905Y846754D02*
X463905Y860754D01*
X448632Y846754D02*
X462632Y860754D01*
X447359Y846754D02*
X461359Y860754D01*
X438315Y838982D02*
X460086Y860754D01*
X438315Y840254D02*
X458814Y860754D01*
X438315Y841527D02*
X457541Y860754D01*
X438315Y842800D02*
X456268Y860754D01*
X438315Y844073D02*
X454995Y860754D01*
X438315Y845346D02*
X453723Y860754D01*
X438315Y846618D02*
X452450Y860754D01*
X438315Y847891D02*
X451177Y860754D01*
X438315Y849164D02*
X449904Y860754D01*
X438315Y850437D02*
X448631Y860754D01*
X438315Y851709D02*
X447359Y860754D01*
X438315Y837709D02*
X447315Y846709D01*
X438315Y836436D02*
X447315Y845436D01*
X438315Y835163D02*
X447315Y844163D01*
X438315Y833890D02*
X447315Y842890D01*
X438315Y832618D02*
X447315Y841618D01*
X438315Y831345D02*
X447315Y840345D01*
X438315Y830072D02*
X447315Y839072D01*
X438395Y828880D02*
X447315Y837799D01*
X439032Y828244D02*
X447315Y836526D01*
X439668Y827607D02*
X447315Y835254D01*
X440304Y826971D02*
X447315Y833981D01*
X440814Y826208D02*
X447315Y832708D01*
X438315Y852982D02*
X446086Y860754D01*
X438315Y854255D02*
X444813Y860754D01*
X438315Y855528D02*
X443540Y860754D01*
X440815Y824935D02*
X442315Y826435D01*
X440954Y823802D02*
X442315Y825162D01*
X441265Y822840D02*
X442315Y823890D01*
X441451Y821754D02*
X442315Y822617D01*
X438315Y856801D02*
X442267Y860754D01*
X438315Y858073D02*
X440995Y860754D01*
X428315Y834343D02*
X434815Y840843D01*
X428315Y833070D02*
X434815Y839570D01*
X428315Y831797D02*
X434815Y838297D01*
X428315Y830524D02*
X434815Y837024D01*
X428315Y829252D02*
X434815Y835752D01*
X428315Y827979D02*
X434815Y834479D01*
X428315Y826706D02*
X434815Y833206D01*
X428828Y825947D02*
X434815Y831933D01*
X429465Y825311D02*
X434815Y830660D01*
X430101Y824674D02*
X434815Y829388D01*
X430737Y824038D02*
X434815Y828115D01*
X431374Y823401D02*
X434815Y826842D01*
X432010Y822765D02*
X434815Y825569D01*
X432647Y822129D02*
X434815Y824296D01*
X433544Y821754D02*
X434326Y822535D01*
X428315Y835616D02*
X433952Y841254D01*
X428315Y836888D02*
X432680Y841254D01*
X428315Y838161D02*
X431407Y841254D01*
X428315Y839434D02*
X430134Y841254D01*
X428315Y840707D02*
X428861Y841254D01*
X457430Y832140D02*
X462315Y837024D01*
X457504Y830941D02*
X462315Y835752D01*
X457048Y829213D02*
X462315Y834479D01*
X456815Y827706D02*
X462315Y833206D01*
X456815Y826433D02*
X462315Y831933D01*
X456815Y825160D02*
X462315Y830660D01*
X456815Y823888D02*
X462315Y829388D01*
X456987Y822788D02*
X462315Y828115D01*
X457624Y822151D02*
X462315Y826842D01*
X457131Y833113D02*
X461271Y837254D01*
X456815Y834070D02*
X459998Y837254D01*
X458499Y821754D02*
X459815Y823069D01*
X456815Y835343D02*
X458725Y837254D01*
X456815Y836616D02*
X457452Y837254D01*
X459270Y719254D02*
X489815Y749798D01*
X460543Y719254D02*
X489815Y748525D01*
X461816Y719254D02*
X489815Y747252D01*
X463089Y719254D02*
X489815Y745979D01*
X464361Y719254D02*
X489815Y744707D01*
X465634Y719254D02*
X489815Y743434D01*
X466907Y719254D02*
X489815Y742161D01*
X468180Y719254D02*
X489815Y740888D01*
X469452Y719254D02*
X489815Y739616D01*
X470725Y719254D02*
X489815Y738343D01*
X471998Y719254D02*
X489815Y737070D01*
X473271Y719254D02*
X489815Y735797D01*
X474544Y719254D02*
X489815Y734524D01*
X475816Y719254D02*
X489815Y733252D01*
X477089Y719254D02*
X489815Y731979D01*
X478362Y719254D02*
X489815Y730706D01*
X479635Y719254D02*
X489815Y729433D01*
X480908Y719254D02*
X489815Y728160D01*
X482180Y719254D02*
X489815Y726888D01*
X483453Y719254D02*
X489815Y725615D01*
X484726Y719254D02*
X489815Y724342D01*
X485999Y719254D02*
X489815Y723069D01*
X487272Y719254D02*
X489815Y721796D01*
X457997Y719254D02*
X489497Y750754D01*
X456725Y719254D02*
X488225Y750754D01*
X455452Y719254D02*
X486952Y750754D01*
X454179Y719254D02*
X485679Y750754D01*
X473315Y739662D02*
X484406Y750754D01*
X473315Y740935D02*
X483133Y750754D01*
X473315Y742207D02*
X481861Y750754D01*
X473315Y743480D02*
X480588Y750754D01*
X473315Y744753D02*
X479315Y750754D01*
X473315Y746026D02*
X478042Y750754D01*
X473315Y747299D02*
X476769Y750754D01*
X452906Y719254D02*
X469406Y735754D01*
X451633Y719254D02*
X468133Y735754D01*
X450361Y719254D02*
X466861Y735754D01*
X449088Y719254D02*
X465588Y735754D01*
X447918Y719357D02*
X464315Y735754D01*
X447282Y719993D02*
X463042Y735754D01*
X446646Y720630D02*
X461769Y735754D01*
X446009Y721266D02*
X460497Y735754D01*
X445815Y722344D02*
X459224Y735754D01*
X445815Y723617D02*
X457951Y735754D01*
X445815Y724890D02*
X456678Y735754D01*
X445815Y726162D02*
X455406Y735754D01*
X445815Y727435D02*
X454133Y735754D01*
X445815Y728708D02*
X452860Y735754D01*
X445304Y729471D02*
X451587Y735754D01*
X444668Y730107D02*
X450314Y735754D01*
X444032Y730744D02*
X449574Y736286D01*
X443395Y731380D02*
X448938Y736923D01*
X442759Y732016D02*
X448302Y737559D01*
X442122Y732653D02*
X447665Y738196D01*
X441486Y733289D02*
X447029Y738832D01*
X440850Y733925D02*
X446393Y739468D01*
X441158Y735507D02*
X445756Y740105D01*
X441158Y736779D02*
X445120Y740741D01*
X441158Y738052D02*
X444483Y741378D01*
X441158Y739325D02*
X443847Y742014D01*
X441158Y753326D02*
X443565Y755732D01*
X441158Y752053D02*
X443565Y754459D01*
X441158Y750780D02*
X443565Y753187D01*
X441158Y749507D02*
X443565Y751914D01*
X441158Y748234D02*
X443565Y750641D01*
X441158Y746962D02*
X443565Y749368D01*
X441158Y745689D02*
X443565Y748095D01*
X441158Y744416D02*
X443565Y746823D01*
X441158Y743143D02*
X443565Y745550D01*
X441158Y741870D02*
X443565Y744277D01*
X441158Y740598D02*
X443565Y743004D01*
X441158Y754598D02*
X442313Y755754D01*
X463065Y745138D02*
X467815Y749888D01*
X463065Y743865D02*
X467815Y748615D01*
X463065Y742592D02*
X467815Y747342D01*
X463999Y742254D02*
X467815Y746069D01*
X465272Y742254D02*
X467815Y744796D01*
X466544Y742254D02*
X467815Y743524D01*
X463065Y746410D02*
X467758Y751103D01*
X463065Y747683D02*
X467121Y751740D01*
X462692Y748583D02*
X466485Y752376D01*
X462055Y749220D02*
X465848Y753013D01*
X461419Y749856D02*
X465212Y753649D01*
X460783Y750492D02*
X464576Y754285D01*
X460146Y751129D02*
X463939Y754922D01*
X459510Y751765D02*
X463248Y755504D01*
X458873Y752402D02*
X461975Y755504D01*
X458315Y753116D02*
X460702Y755504D01*
X458315Y754388D02*
X460019Y756092D01*
X458315Y755661D02*
X458782Y756129D01*
X432815Y750797D02*
X436558Y754540D01*
X432815Y749524D02*
X436558Y753268D01*
X432815Y748252D02*
X436558Y751995D01*
X432815Y746979D02*
X436558Y750722D01*
X432815Y745706D02*
X436558Y749449D01*
X432815Y744433D02*
X436558Y748176D01*
X432815Y743160D02*
X436558Y746904D01*
X432815Y741888D02*
X436558Y745631D01*
X432815Y740615D02*
X436558Y744358D01*
X432815Y739342D02*
X436558Y743085D01*
X432999Y738254D02*
X436558Y741813D01*
X434272Y738254D02*
X436558Y740540D01*
X435544Y738254D02*
X436558Y739267D01*
X432815Y752070D02*
X436053Y755308D01*
X432815Y753343D02*
X434975Y755504D01*
X432815Y754616D02*
X433702Y755504D01*
X464815Y829479D02*
X469315Y833979D01*
X464815Y828206D02*
X469315Y832706D01*
X464815Y826933D02*
X469315Y831433D01*
X464815Y825660D02*
X469315Y830160D01*
X462008Y821581D02*
X469315Y828888D01*
X462953Y821254D02*
X469315Y827615D01*
X464226Y821254D02*
X469315Y826342D01*
X465499Y821254D02*
X469315Y825069D01*
X466772Y821254D02*
X469315Y823796D01*
X468044Y821254D02*
X469315Y822524D01*
X464815Y830752D02*
X468816Y834754D01*
X464815Y832024D02*
X467544Y834754D01*
X464815Y833297D02*
X466271Y834754D01*
X464815Y834570D02*
X464998Y834754D01*
X364382Y881379D02*
X364985Y881981D01*
X363110Y881379D02*
X364345Y882613D01*
X361837Y881379D02*
X363704Y883246D01*
X360564Y881379D02*
X363063Y883878D01*
X359291Y881379D02*
X362423Y884510D01*
X354144Y877504D02*
X361782Y885142D01*
X353071Y877704D02*
X361142Y885774D01*
X352435Y878340D02*
X360501Y886407D01*
X351798Y878977D02*
X359860Y887039D01*
X351162Y879613D02*
X359220Y887671D01*
X350526Y880250D02*
X358579Y888303D01*
X349257Y880254D02*
X357939Y888935D01*
X347984Y880254D02*
X357298Y889567D01*
X347315Y880857D02*
X356211Y889754D01*
X347315Y882130D02*
X354938Y889754D01*
X347315Y883402D02*
X353666Y889754D01*
X347315Y884675D02*
X352393Y889754D01*
X347315Y885948D02*
X351120Y889754D01*
X347315Y887221D02*
X349847Y889754D01*
X347315Y888494D02*
X348574Y889754D01*
X464338Y767780D02*
X467114Y770557D01*
X465584Y767754D02*
X467114Y769284D01*
X463038Y767754D02*
X467070Y771785D01*
X461516Y767504D02*
X465766Y771754D01*
X460757Y768018D02*
X464493Y771754D01*
X460121Y768654D02*
X463220Y771754D01*
X459815Y769621D02*
X461947Y771754D01*
X459815Y770894D02*
X460675Y771754D01*
X528585Y796754D02*
X547815Y815983D01*
X529858Y796754D02*
X547815Y814710D01*
X531131Y796754D02*
X547815Y813437D01*
X532403Y796754D02*
X547815Y812165D01*
X533676Y796754D02*
X547815Y810892D01*
X534949Y796754D02*
X547815Y809619D01*
X536222Y796754D02*
X547815Y808346D01*
X537495Y796754D02*
X547815Y807073D01*
X538767Y796754D02*
X547815Y805801D01*
X540040Y796754D02*
X547815Y804528D01*
X541313Y796754D02*
X547815Y803255D01*
X542586Y796754D02*
X547815Y801982D01*
X543859Y796754D02*
X547815Y800709D01*
X545131Y796754D02*
X547815Y799437D01*
X510815Y780256D02*
X547210Y816651D01*
X510815Y781528D02*
X546573Y817287D01*
X509767Y781754D02*
X545937Y817924D01*
X508494Y781754D02*
X544994Y818254D01*
X528042Y756754D02*
X544815Y773526D01*
X529314Y756754D02*
X544815Y772254D01*
X530587Y756754D02*
X544815Y770981D01*
X531860Y756754D02*
X544815Y769708D01*
X533133Y756754D02*
X544815Y768435D01*
X534406Y756754D02*
X544815Y767162D01*
X535678Y756754D02*
X544815Y765890D01*
X536951Y756754D02*
X544815Y764617D01*
X538224Y756754D02*
X544815Y763344D01*
X539497Y756754D02*
X544815Y762071D01*
X540769Y756754D02*
X544815Y760799D01*
X542042Y756754D02*
X544815Y759526D01*
X526769Y756754D02*
X544188Y774173D01*
X480971Y755504D02*
X543721Y818254D01*
X525496Y756754D02*
X543552Y774809D01*
X524223Y756754D02*
X542915Y775446D01*
X479698Y755504D02*
X542448Y818254D01*
X522950Y756754D02*
X541950Y775754D01*
X478426Y755504D02*
X541176Y818254D01*
X500815Y735890D02*
X540678Y775754D01*
X477153Y755504D02*
X539903Y818254D01*
X500815Y737163D02*
X539405Y775754D01*
X475880Y755504D02*
X538630Y818254D01*
X500815Y738436D02*
X538132Y775754D01*
X474607Y755504D02*
X537357Y818254D01*
X500815Y739709D02*
X536859Y775754D01*
X473334Y755504D02*
X536084Y818254D01*
X500815Y740982D02*
X535586Y775754D01*
X472062Y755504D02*
X534812Y818254D01*
X500815Y742254D02*
X534314Y775754D01*
X492093Y776807D02*
X533539Y818254D01*
X500815Y743527D02*
X533041Y775754D01*
X510815Y796802D02*
X532266Y818254D01*
X500815Y744800D02*
X531768Y775754D01*
X510815Y798075D02*
X530993Y818254D01*
X500815Y746073D02*
X530495Y775754D01*
X510815Y799348D02*
X529720Y818254D01*
X500815Y747345D02*
X529223Y775754D01*
X510815Y800620D02*
X528448Y818254D01*
X510815Y758618D02*
X527950Y775754D01*
X510815Y801893D02*
X527391Y818470D01*
X510815Y759891D02*
X527142Y776219D01*
X510815Y803166D02*
X526755Y819106D01*
X510815Y761164D02*
X526506Y776855D01*
X510815Y804439D02*
X526118Y819743D01*
X510815Y762437D02*
X525869Y777492D01*
X510815Y805712D02*
X525482Y820379D01*
X510815Y763709D02*
X525233Y778128D01*
X510815Y806984D02*
X524846Y821015D01*
X510815Y778983D02*
X524815Y792983D01*
X510815Y777710D02*
X524815Y791710D01*
X510815Y776437D02*
X524815Y790437D01*
X510815Y775165D02*
X524815Y789165D01*
X510815Y773892D02*
X524815Y787892D01*
X510815Y772619D02*
X524815Y786619D01*
X510815Y771346D02*
X524815Y785346D01*
X510815Y770073D02*
X524815Y784073D01*
X510815Y768801D02*
X524815Y782801D01*
X510815Y767528D02*
X524815Y781528D01*
X510815Y766255D02*
X524815Y780255D01*
X510815Y764982D02*
X524815Y778982D01*
X510815Y808257D02*
X524209Y821652D01*
X510815Y809530D02*
X523573Y822288D01*
X510815Y810803D02*
X522936Y822925D01*
X500815Y833895D02*
X522315Y855395D01*
X500815Y832622D02*
X522315Y854122D01*
X500815Y831350D02*
X522315Y852850D01*
X500815Y830077D02*
X522315Y851577D01*
X500893Y828882D02*
X522315Y850304D01*
X501529Y828246D02*
X522315Y849031D01*
X502166Y827610D02*
X522315Y847758D01*
X502802Y826973D02*
X522315Y846486D01*
X503438Y826337D02*
X522315Y845213D01*
X504075Y825700D02*
X522315Y843940D01*
X504711Y825064D02*
X522315Y842667D01*
X505348Y824428D02*
X522315Y841395D01*
X505984Y823791D02*
X522315Y840122D01*
X506620Y823155D02*
X522315Y838849D01*
X507257Y822518D02*
X522315Y837576D01*
X507893Y821882D02*
X522315Y836303D01*
X508530Y821246D02*
X522315Y835031D01*
X509166Y820609D02*
X522315Y833758D01*
X509802Y819973D02*
X522315Y832485D01*
X510439Y819336D02*
X522315Y831212D01*
X510815Y818439D02*
X522315Y829939D01*
X510815Y817167D02*
X522315Y828667D01*
X510815Y815894D02*
X522315Y827394D01*
X510815Y814621D02*
X522315Y826121D01*
X510815Y813348D02*
X522315Y824848D01*
X510815Y812075D02*
X522315Y823575D01*
X500815Y835168D02*
X522004Y856357D01*
X500815Y836441D02*
X521367Y856994D01*
X500815Y837714D02*
X520731Y857630D01*
X500815Y838986D02*
X520082Y858254D01*
X500815Y734618D02*
X519815Y753618D01*
X500815Y733345D02*
X519815Y752345D01*
X500815Y732072D02*
X519815Y751072D01*
X500815Y730799D02*
X519815Y749799D01*
X500815Y729526D02*
X519815Y748526D01*
X500815Y728254D02*
X519815Y747254D01*
X500815Y726981D02*
X519815Y745981D01*
X500815Y725708D02*
X519815Y744708D01*
X500815Y724435D02*
X519815Y743435D01*
X500815Y723162D02*
X519815Y742162D01*
X500815Y721890D02*
X519815Y740890D01*
X500815Y720617D02*
X519815Y739617D01*
X500815Y719344D02*
X519815Y738344D01*
X501997Y719254D02*
X519815Y737071D01*
X503269Y719254D02*
X519815Y735799D01*
X504542Y719254D02*
X519815Y734526D01*
X505815Y719254D02*
X519815Y733253D01*
X507088Y719254D02*
X519815Y731980D01*
X508361Y719254D02*
X519815Y730707D01*
X509633Y719254D02*
X519815Y729435D01*
X510906Y719254D02*
X519815Y728162D01*
X512179Y719254D02*
X519815Y726889D01*
X513452Y719254D02*
X519815Y725616D01*
X514725Y719254D02*
X519815Y724343D01*
X500815Y840259D02*
X518809Y858254D01*
X500815Y841532D02*
X517536Y858254D01*
X500815Y842805D02*
X516263Y858254D01*
X500815Y844078D02*
X514990Y858254D01*
X500815Y845350D02*
X513718Y858254D01*
X500815Y846623D02*
X512445Y858254D01*
X500815Y847896D02*
X511172Y858254D01*
X500815Y849169D02*
X509899Y858254D01*
X492507Y778495D02*
X509766Y795754D01*
X500815Y850441D02*
X508627Y858254D01*
X492422Y779682D02*
X508493Y795754D01*
X492116Y780649D02*
X507414Y795947D01*
X500815Y851714D02*
X507354Y858254D01*
X491656Y781462D02*
X506778Y796583D01*
X491067Y782146D02*
X506141Y797220D01*
X500815Y852987D02*
X506081Y858254D01*
X490356Y782707D02*
X505505Y797856D01*
X489512Y783136D02*
X504868Y798493D01*
X461537Y774254D02*
X504815Y817531D01*
X462810Y774254D02*
X504815Y816258D01*
X464083Y774254D02*
X504815Y814985D01*
X465356Y774254D02*
X504815Y813712D01*
X466629Y774254D02*
X504815Y812439D01*
X467901Y774254D02*
X504815Y811167D01*
X468848Y773927D02*
X504815Y809894D01*
X469315Y773121D02*
X504815Y808621D01*
X469718Y772251D02*
X504815Y807348D01*
X470060Y771321D02*
X504815Y806075D01*
X470077Y770065D02*
X504815Y804803D01*
X470074Y768790D02*
X504815Y803530D01*
X485249Y782692D02*
X504815Y802257D01*
X487250Y783419D02*
X504815Y800984D01*
X488505Y783402D02*
X504815Y799712D01*
X482244Y755504D02*
X504815Y778074D01*
X483517Y755504D02*
X504815Y776801D01*
X484790Y755504D02*
X504815Y775528D01*
X486062Y755504D02*
X504815Y774256D01*
X487335Y755504D02*
X504815Y772983D01*
X488608Y755504D02*
X504815Y771710D01*
X489881Y755504D02*
X504815Y770437D01*
X491153Y755504D02*
X504815Y769165D01*
X492426Y755504D02*
X504815Y767892D01*
X493699Y755504D02*
X504815Y766619D01*
X494972Y755504D02*
X504815Y765346D01*
X496245Y755504D02*
X504815Y764073D01*
X497517Y755504D02*
X504815Y762801D01*
X498790Y755504D02*
X504815Y761528D01*
X500063Y755504D02*
X504815Y760255D01*
X501336Y755504D02*
X504815Y758982D01*
X500815Y854260D02*
X504808Y858254D01*
X460265Y774254D02*
X504686Y818675D01*
X458992Y774254D02*
X504050Y819311D01*
X500815Y855533D02*
X503535Y858254D01*
X457719Y774254D02*
X503413Y819948D01*
X456446Y774254D02*
X502777Y820584D01*
X500815Y856805D02*
X502263Y858254D01*
X455173Y774254D02*
X501673Y820754D01*
X500815Y858078D02*
X500990Y858254D01*
X453901Y774254D02*
X500401Y820754D01*
X452628Y774254D02*
X499128Y820754D01*
X451355Y774254D02*
X497855Y820754D01*
X450082Y774254D02*
X496582Y820754D01*
X448810Y774254D02*
X495310Y820754D01*
X447537Y774254D02*
X494037Y820754D01*
X446264Y774254D02*
X492764Y820754D01*
X444991Y774254D02*
X491491Y820754D01*
X443718Y774254D02*
X490218Y820754D01*
X470789Y755504D02*
X489761Y774475D01*
X442446Y774254D02*
X488946Y820754D01*
X469516Y755504D02*
X488073Y774061D01*
X441173Y774254D02*
X487673Y820754D01*
X469315Y756575D02*
X486886Y774146D01*
X439900Y774254D02*
X486400Y820754D01*
X469455Y757988D02*
X485919Y774452D01*
X438627Y774254D02*
X485127Y820754D01*
X469457Y759263D02*
X485106Y774912D01*
X469457Y760536D02*
X484422Y775501D01*
X469316Y766759D02*
X483876Y781319D01*
X469457Y761809D02*
X483861Y776212D01*
X469315Y806214D02*
X483854Y820754D01*
X469457Y763082D02*
X483432Y777056D01*
X469457Y764354D02*
X483166Y778063D01*
X469457Y765627D02*
X483149Y779318D01*
X469315Y807486D02*
X482582Y820754D01*
X469315Y808759D02*
X481309Y820754D01*
X469315Y810032D02*
X480036Y820754D01*
X469457Y811448D02*
X478763Y820754D01*
X469457Y812720D02*
X477490Y820754D01*
X469457Y813993D02*
X476218Y820754D01*
X469457Y815266D02*
X474945Y820754D01*
X469457Y816539D02*
X473672Y820754D01*
X469457Y817812D02*
X472399Y820754D01*
X437354Y774254D02*
X466354Y803254D01*
X436082Y774254D02*
X465082Y803254D01*
X434809Y774254D02*
X463809Y803254D01*
X433536Y774254D02*
X462536Y803254D01*
X432263Y774254D02*
X461263Y803254D01*
X430990Y774254D02*
X459990Y803254D01*
X429718Y774254D02*
X458718Y803254D01*
X400815Y746623D02*
X457445Y803254D01*
X400815Y747896D02*
X456172Y803254D01*
X400815Y749169D02*
X454899Y803254D01*
X400815Y750441D02*
X453627Y803254D01*
X400815Y751714D02*
X452354Y803254D01*
X400815Y752987D02*
X451081Y803254D01*
X400815Y754260D02*
X449808Y803254D01*
X400815Y755533D02*
X448535Y803254D01*
X400642Y756633D02*
X447263Y803254D01*
X400006Y757269D02*
X445990Y803254D01*
X399369Y757906D02*
X444717Y803254D01*
X398733Y758542D02*
X443444Y803254D01*
X398097Y759179D02*
X442171Y803254D01*
X396899Y759254D02*
X440899Y803254D01*
X395626Y759254D02*
X439626Y803254D01*
X394353Y759254D02*
X438353Y803254D01*
X393080Y759254D02*
X437080Y803254D01*
X391807Y759254D02*
X435807Y803254D01*
X390535Y759254D02*
X434535Y803254D01*
X389892Y759883D02*
X433262Y803254D01*
X389255Y760520D02*
X431989Y803254D01*
X388619Y761156D02*
X430716Y803254D01*
X423946Y741754D02*
X430315Y748122D01*
X425219Y741754D02*
X430315Y746849D01*
X426492Y741754D02*
X430315Y745576D01*
X427765Y741754D02*
X430315Y744303D01*
X422673Y741754D02*
X429890Y748970D01*
X387983Y761793D02*
X429444Y803254D01*
X421401Y741754D02*
X429254Y749607D01*
X387346Y762429D02*
X428639Y803722D01*
X420128Y741754D02*
X428618Y750243D01*
X387315Y763670D02*
X428003Y804358D01*
X418855Y741754D02*
X427981Y750880D01*
X387315Y764943D02*
X427366Y804995D01*
X417582Y741754D02*
X427345Y751516D01*
X387315Y766216D02*
X426730Y805631D01*
X416310Y741754D02*
X426708Y752152D01*
X387315Y771307D02*
X426315Y810307D01*
X387315Y770034D02*
X426315Y809034D01*
X387315Y768761D02*
X426315Y807761D01*
X387315Y767488D02*
X426315Y806488D01*
X401370Y745905D02*
X426315Y770850D01*
X402006Y745269D02*
X426315Y769578D01*
X402642Y744633D02*
X426315Y768305D01*
X403279Y743996D02*
X426315Y767032D01*
X411218Y741754D02*
X426315Y756850D01*
X412491Y741754D02*
X426315Y755577D01*
X413764Y741754D02*
X426315Y754304D01*
X415037Y741754D02*
X426315Y753031D01*
X409946Y741754D02*
X426174Y757982D01*
X387315Y778944D02*
X426172Y817801D01*
X387315Y777671D02*
X426172Y816528D01*
X387315Y776398D02*
X426172Y815255D01*
X387315Y775125D02*
X426172Y813982D01*
X387315Y773852D02*
X426172Y812709D01*
X387315Y772580D02*
X426172Y811437D01*
X403915Y743360D02*
X426172Y765616D01*
X404552Y742723D02*
X426172Y764343D01*
X405188Y742087D02*
X426172Y763071D01*
X406127Y741754D02*
X426172Y761798D01*
X407400Y741754D02*
X426172Y760525D01*
X408673Y741754D02*
X426172Y759252D01*
X387315Y780216D02*
X425980Y818881D01*
X387315Y781489D02*
X425343Y819518D01*
X387315Y782762D02*
X424707Y820154D01*
X387315Y784035D02*
X424070Y820791D01*
X387315Y785308D02*
X423434Y821427D01*
X387315Y786580D02*
X422798Y822063D01*
X387315Y787853D02*
X422161Y822700D01*
X387315Y789126D02*
X421525Y823336D01*
X387315Y790399D02*
X420888Y823973D01*
X387315Y791671D02*
X420252Y824609D01*
X387315Y792944D02*
X419616Y825245D01*
X387315Y794217D02*
X418851Y825754D01*
X387315Y795490D02*
X417578Y825754D01*
X387315Y796763D02*
X416305Y825754D01*
X387315Y798035D02*
X415033Y825754D01*
X387315Y799308D02*
X413760Y825754D01*
X387315Y800581D02*
X412487Y825754D01*
X387315Y801854D02*
X411214Y825754D01*
X387315Y803127D02*
X409941Y825754D01*
X387315Y804399D02*
X408669Y825754D01*
X387315Y805672D02*
X407396Y825754D01*
X387315Y806945D02*
X406123Y825754D01*
X387315Y808218D02*
X404850Y825754D01*
X387315Y809491D02*
X403577Y825754D01*
X387315Y810763D02*
X402305Y825754D01*
X387315Y812036D02*
X401032Y825754D01*
X387315Y814582D02*
X400315Y827582D01*
X387315Y813309D02*
X400315Y826309D01*
X387315Y815854D02*
X399936Y828476D01*
X387315Y817127D02*
X399330Y829143D01*
X387315Y818400D02*
X398724Y829810D01*
X387315Y819673D02*
X398118Y830476D01*
X387315Y820946D02*
X397512Y831143D01*
X387315Y822218D02*
X396906Y831810D01*
X387315Y823491D02*
X396300Y832476D01*
X387315Y824764D02*
X395694Y833143D01*
X387315Y826037D02*
X394531Y833254D01*
X387315Y827310D02*
X393258Y833254D01*
X387315Y828582D02*
X391986Y833254D01*
X387315Y829855D02*
X390713Y833254D01*
X387315Y831128D02*
X389440Y833254D01*
X387315Y832401D02*
X388167Y833254D01*
G54D12*
X421236Y35561D02*
Y130050D01*
X452732Y35561D02*
Y130050D01*
X488165Y35561D02*
Y130050D01*
X523598Y35561D02*
Y130050D01*
X555094Y35561D02*
Y130050D01*
X350370Y67057D02*
X598401D01*
X350370Y98553D02*
X598401D01*
X653519Y200916D02*
X818874D01*
X259819Y35561D02*
Y98553D01*
X110212D02*
X350370D01*
X110212Y67057D02*
X350370D01*
X677140Y145798D02*
G03X677140I-11810D01*
G01X669267D02*
G03X669267I-3937D01*
G01X116118Y178607D02*
Y169420D01*
X125345Y174670D02*
Y175107D01*
X125345D02*
X125027Y175545D01*
X124708*
X124708D02*
X124390Y175107D01*
X124390D02*
X124072Y174232D01*
X124072D02*
X123436Y172045D01*
X122799Y170732*
X122799D02*
X122163Y169857D01*
X122163D02*
X121527Y169420D01*
X120254*
X119618Y169857*
X119618D02*
X119299Y170295D01*
X119299D02*
X118981Y171170D01*
X118981D02*
Y172045D01*
X118981D02*
X119299Y172920D01*
X119299D02*
X119618Y173357D01*
X119618D02*
X121845Y175107D01*
X121845D02*
X122163Y175545D01*
X122481Y176420*
X122481D02*
Y177295D01*
X122481D02*
X122163Y178170D01*
X121527Y178607*
X121527D02*
X120890Y178170D01*
X120890D02*
X120572Y177295D01*
X120572D02*
Y176420D01*
X120572D02*
X120890Y175107D01*
X120890D02*
X121527Y173795D01*
X123118Y170732*
X123118D02*
X123754Y169857D01*
X123754D02*
X124390Y169420D01*
X124390D02*
X125027D01*
X125345Y169857*
X125345D02*
Y170295D01*
X128208Y178607D02*
Y169420D01*
Y178607D02*
X131072D01*
X131072D02*
X132027Y178170D01*
X132345Y177732*
X132345D02*
X132663Y176857D01*
X132663D02*
Y175545D01*
X132345Y174670*
X132027Y174232*
X132027D02*
X131072Y173795D01*
X131072D02*
X128208D01*
X139981Y177295D02*
X139345Y178170D01*
X138390Y178607*
X138390D02*
X137118D01*
X137118D02*
X136163Y178170D01*
X135527Y177295*
Y176420*
X135845Y175545*
X136163Y175107*
X136163D02*
X136799Y174670D01*
X136799D02*
X138708Y173795D01*
X138708D02*
X139345Y173357D01*
X139345D02*
X139663Y172920D01*
X139981Y172045*
X139981D02*
Y170732D01*
X139981D02*
X139345Y169857D01*
X139345D02*
X138390Y169420D01*
X138390D02*
X137118D01*
X136163Y169857*
X136163D02*
X135527Y170732D01*
X151118Y178607D02*
X148572Y169420D01*
X151118Y178607D02*
X153663Y169420D01*
X149527Y172482D02*
X152708D01*
X156527Y178607D02*
Y169420D01*
Y178607D02*
X159390D01*
X159390D02*
X160345Y178170D01*
X160663Y177732*
X160663D02*
X160981Y176857D01*
X160981D02*
Y175545D01*
X160981D02*
X160663Y174670D01*
X160345Y174232*
X160345D02*
X159390Y173795D01*
X159390D02*
X156527D01*
X163845Y178607D02*
Y169420D01*
Y178607D02*
X166708D01*
X166708D02*
X167663Y178170D01*
X167981Y177732*
X167981D02*
X168299Y176857D01*
X168299D02*
Y175545D01*
X168299D02*
X167981Y174670D01*
X167981D02*
X167663Y174232D01*
X167663D02*
X166708Y173795D01*
X166708D02*
X163845D01*
X171163Y178607D02*
Y169420D01*
X174981*
X177845Y178607D02*
Y169420D01*
X185481Y176420D02*
X185163Y177295D01*
X184527Y178170*
X183890Y178607*
X183890D02*
X182618D01*
X182618D02*
X181981Y178170D01*
X181981D02*
X181345Y177295D01*
X181027Y176420*
X180708Y175107*
X180708D02*
Y172920D01*
X180708D02*
X181027Y171607D01*
X181027D02*
X181345Y170732D01*
X181345D02*
X181981Y169857D01*
X181981D02*
X182618Y169420D01*
X183890*
X183890D02*
X184527Y169857D01*
X184527D02*
X185163Y170732D01*
X185163D02*
X185481Y171607D01*
X190890Y178607D02*
X188345Y169420D01*
X190890Y178607D02*
X193436Y169420D01*
X189299Y172482D02*
X192481D01*
X198527Y178607D02*
Y169420D01*
X196299Y178607D02*
X200754D01*
X203618D02*
Y169420D01*
X208390Y178607D02*
X207754Y178170D01*
X207118Y177295*
X206799Y176420*
X206799D02*
X206481Y175107D01*
X206481D02*
Y172920D01*
X206481D02*
X206799Y171607D01*
X206799D02*
X207118Y170732D01*
X207118D02*
X207754Y169857D01*
X207754D02*
X208390Y169420D01*
X208390D02*
X209663D01*
X210299Y169857*
X210299D02*
X210936Y170732D01*
X210936D02*
X211254Y171607D01*
X211254D02*
X211572Y172920D01*
X211572D02*
Y175107D01*
X211572D02*
X211254Y176420D01*
X210936Y177295*
X210299Y178170*
X210299D02*
X209663Y178607D01*
X209663D02*
X208390D01*
X214436D02*
Y169420D01*
Y178607D02*
X218890Y169420D01*
Y178607D02*
Y169420D01*
X227481Y178607D02*
Y169420D01*
X227481D02*
X231299D01*
X236708Y178607D02*
X234163Y169420D01*
X236708Y178607D02*
X239254Y169420D01*
X235118Y172482D02*
X238299D01*
X242118Y178607D02*
Y169420D01*
Y178607D02*
X244981D01*
X244981D02*
X245936Y178170D01*
X246254Y177732*
X246254D02*
X246572Y176857D01*
X246572D02*
Y175982D01*
X246572D02*
X246254Y175107D01*
X246254D02*
X245936Y174670D01*
X244981Y174232*
X242118D02*
X244981D01*
X244981D02*
X245936Y173795D01*
X246254Y173357*
X246254D02*
X246572Y172482D01*
X246572D02*
Y171170D01*
X246572D02*
X246254Y170295D01*
X245936Y169857*
X245936D02*
X244981Y169420D01*
X244981D02*
X242118D01*
X249754Y170295D02*
X249436Y169857D01*
X249436D02*
X249754Y169420D01*
X250072Y169857*
X250072D02*
X249754Y170295D01*
X263756Y63121D02*
Y55246D01*
Y63121D02*
X265665D01*
X266483Y62746*
X267028Y61996*
X267028D02*
X267301Y61246D01*
X267574Y60121*
Y58246*
X267301Y57121*
X267028Y56371*
X267028D02*
X266483Y55621D01*
X265665Y55246*
X263756*
X272210Y63121D02*
X270028Y55246D01*
X272210Y63121D02*
X274392Y55246D01*
X270846Y57871D02*
X273574D01*
X278756Y63121D02*
Y55246D01*
X276846Y63121D02*
X280665D01*
X283119D02*
Y55246D01*
Y63121D02*
X286665D01*
X283119Y59371D02*
X285301D01*
X283119Y55246D02*
X286665D01*
X263756Y94617D02*
Y86742D01*
Y94617D02*
X265665D01*
X266483Y94242*
X267028Y93492*
X267028D02*
X267301Y92742D01*
X267574Y91617*
Y89742*
X267301Y88617*
X267028Y87867*
X267028D02*
X266483Y87117D01*
X265665Y86742*
X263756*
X272210Y94617D02*
X270028Y86742D01*
X272210Y94617D02*
X274392Y86742D01*
X270846Y89367D02*
X273574D01*
X278756Y94617D02*
Y86742D01*
X276846Y94617D02*
X280665D01*
X283119D02*
Y86742D01*
Y94617D02*
X286665D01*
X283119Y90867D02*
X285301D01*
X283119Y86742D02*
X286665D01*
X116331Y63121D02*
X114150Y55246D01*
X116331Y63121D02*
X118513Y55246D01*
X114968Y57871D02*
X117695D01*
X120968Y63121D02*
Y55246D01*
Y63121D02*
X123422D01*
X123422D02*
X124240Y62746D01*
X124240D02*
X124513Y62371D01*
X124513D02*
X124786Y61621D01*
Y60496*
X124513Y59746*
X124513D02*
X124240Y59371D01*
X124240D02*
X123422Y58996D01*
X123422D02*
X120968D01*
X127240Y63121D02*
Y55246D01*
Y63121D02*
X129695D01*
X130513Y62746*
X130513D02*
X130786Y62371D01*
X131059Y61621*
Y60496*
X130786Y59746*
X130513Y59371*
X130513D02*
X129695Y58996D01*
X127240*
X133513Y63121D02*
Y55246D01*
Y63121D02*
X135968D01*
X136786Y62746*
X137059Y62371*
X137331Y61621*
X137331D02*
Y60871D01*
X137331D02*
X137059Y60121D01*
X136786Y59746*
X135968Y59371*
X133513*
X135422D02*
X137331Y55246D01*
X141422Y63121D02*
X140877Y62746D01*
X140331Y61996*
X140331D02*
X140059Y61246D01*
X139786Y60121*
Y58246*
X140059Y57121*
X140331Y56371*
X140331D02*
X140877Y55621D01*
X141422Y55246*
X141422D02*
X142513D01*
X142513D02*
X143059Y55621D01*
X143604Y56371*
X143604D02*
X143877Y57121D01*
X144150Y58246*
Y60121*
X143877Y61246*
X143604Y61996*
X143604D02*
X143059Y62746D01*
X142513Y63121*
X142513D02*
X141422D01*
X146604D02*
X148786Y55246D01*
X150968Y63121D02*
X148786Y55246D01*
X153422Y63121D02*
Y55246D01*
Y63121D02*
X156968D01*
X153422Y59371D02*
X155604D01*
X153422Y55246D02*
X156968D01*
X159422Y63121D02*
Y55246D01*
Y63121D02*
X161331D01*
X161331D02*
X162150Y62746D01*
X162695Y61996*
X162968Y61246*
X163240Y60121*
X163240D02*
Y58246D01*
X163240D02*
X162968Y57121D01*
X162695Y56371*
X162150Y55621*
X161331Y55246*
X161331D02*
X159422D01*
X114150Y94617D02*
Y86742D01*
Y94617D02*
X116059D01*
X116877Y94242*
X117422Y93492*
X117422D02*
X117695Y92742D01*
X117968Y91617*
Y89742*
X117695Y88617*
X117422Y87867*
X117422D02*
X116877Y87117D01*
X116059Y86742*
X114150*
X120422Y94617D02*
Y86742D01*
Y94617D02*
X122877D01*
X123695Y94242*
X123968Y93867*
X124240Y93117*
X124240D02*
Y92367D01*
X124240D02*
X123968Y91617D01*
X123695Y91242*
X122877Y90867*
X120422*
X122331D02*
X124240Y86742D01*
X128877Y94617D02*
X126695Y86742D01*
X128877Y94617D02*
X131059Y86742D01*
X127513Y89367D02*
X130240D01*
X133513Y94617D02*
X134877Y86742D01*
X136240Y94617D02*
X134877Y86742D01*
X136240Y94617D02*
X137604Y86742D01*
X138968Y94617D02*
X137604Y86742D01*
X141422Y94617D02*
Y86742D01*
Y94617D02*
X145240Y86742D01*
Y94617D02*
Y86742D01*
X261476Y177519D02*
X259295Y169644D01*
X261476Y177519D02*
X263658Y169644D01*
X260113Y172269D02*
X262840D01*
X270204Y175644D02*
X269931Y176394D01*
X269385Y177144*
X269385D02*
X268840Y177519D01*
X267749*
X267749D02*
X267204Y177144D01*
X266658Y176394*
X266658D02*
X266385Y175644D01*
X266385D02*
X266113Y174519D01*
Y172644*
X266385Y171519*
X266385D02*
X266658Y170769D01*
X266658D02*
X267204Y170019D01*
X267749Y169644*
X267749D02*
X268840D01*
X269385Y170019*
X269385D02*
X269931Y170769D01*
X270204Y171519*
Y172644*
X268840D02*
X270204D01*
X272658Y177519D02*
Y169644D01*
Y177519D02*
X275113D01*
X275931Y177144*
X276204Y176769*
X276476Y176019*
X276476D02*
Y175269D01*
X276476D02*
X276204Y174519D01*
X275931Y174144*
X275113Y173769*
X272658*
X274567D02*
X276476Y169644D01*
X281113Y177519D02*
X278931Y169644D01*
X281113Y177519D02*
X283295Y169644D01*
X279749Y172269D02*
X282476D01*
X287658Y177519D02*
Y169644D01*
X285749Y177519D02*
X289567D01*
X292022D02*
Y169644D01*
Y177519D02*
X295567D01*
X292022Y173769D02*
X294204D01*
X292022Y169644D02*
X295567D01*
X302931Y177519D02*
Y169644D01*
Y177519D02*
X305385D01*
X305385D02*
X306204Y177144D01*
X306476Y176769*
X306476D02*
X306749Y176019D01*
X306749D02*
Y175269D01*
X306749D02*
X306476Y174519D01*
X306476D02*
X306204Y174144D01*
X305385Y173769*
X302931D02*
X305385D01*
X305385D02*
X306204Y173394D01*
X306476Y173019*
X306476D02*
X306749Y172269D01*
X306749D02*
Y171144D01*
X306749D02*
X306476Y170394D01*
X306476D02*
X306204Y170019D01*
X305385Y169644*
X305385D02*
X302931D01*
X309476Y170394D02*
X309204Y170019D01*
X309476Y169644*
X309476D02*
X309749Y170019D01*
X309749D02*
X309476Y170394D01*
X317113Y177519D02*
Y169644D01*
X321476Y177519D02*
Y169644D01*
X319567Y177519D02*
X323385D01*
X328022D02*
X325840Y169644D01*
X328022Y177519D02*
X330204Y169644D01*
X326658Y172269D02*
X329385D01*
X332658Y177519D02*
Y169644D01*
X332658D02*
X335931D01*
X338385Y177519D02*
X340567Y173769D01*
X340567D02*
Y169644D01*
X342749Y177519D02*
X340567Y173769D01*
X330315Y718832D02*
X330472D01*
X330472D02*
X340315Y728675D01*
X362815Y715742D02*
X363327Y716254D01*
X377303*
X388326D02*
X405315D01*
X424803Y713754D02*
Y726254D01*
X485315Y716254D02*
Y711254D01*
X281815Y738754D02*
X284315Y736254D01*
X292815*
X281815Y738754D02*
Y817254D01*
X285815Y821254*
X307815*
X309815Y823254*
Y850254*
X292815Y726254D02*
X297815Y731254D01*
Y738254*
X302815Y736254D02*
X309815Y729254D01*
Y712254*
X315315Y706754*
X360815*
X362815Y708754*
Y715742*
X320315Y728675D02*
Y733254D01*
X327315Y740254*
X340315Y728675D02*
Y728754D01*
X347315*
X350315Y731754*
Y735254*
X371815Y725254D02*
Y735754D01*
X373315Y737254*
X371815Y725254D02*
X372815Y724254D01*
X393041*
X400315Y731527*
X400315D02*
X410041D01*
X410041D02*
X415315Y726254D01*
X424803*
X377303Y731254D02*
X377309Y738253D01*
X388326Y731254D02*
Y735754D01*
X385315Y743832D02*
Y738766D01*
X388327Y735754*
X385315Y743832D02*
X391815D01*
X391815D02*
X395315Y747332D01*
X395315D02*
Y753675D01*
X405315Y736254D02*
X415315D01*
X418315Y733254*
X436815*
X438858Y735297*
Y762080*
X435826Y726254D02*
X440815D01*
X442815Y724254*
Y718754*
X445315Y716254*
X485315*
X434815Y739754D02*
Y744754D01*
X484291Y726254D02*
X485315Y725230D01*
Y716254*
X297815Y763254D02*
X299815Y761254D01*
X324705*
X297815Y763254D02*
Y781254D01*
X302815Y786254*
X360925Y761254D02*
X368415D01*
X360925Y756254D02*
X369715D01*
X372315Y758854*
Y774254*
X433740Y762080D02*
Y753828D01*
X433740D02*
X434815Y752754D01*
Y744754*
X426063Y762080D02*
Y779600D01*
X449315Y745254D02*
Y745415D01*
X451653Y747754*
X451653D02*
Y762080D01*
X441417Y754856D02*
Y762080D01*
X454212D02*
Y749856D01*
X454212D02*
X457815Y746254D01*
X449094Y762080D02*
Y770533D01*
X446535Y762080D02*
Y756254D01*
X447815Y754974*
Y750254*
X443976Y762080D02*
Y770254D01*
X465315Y745254D02*
Y750254D01*
X459315Y754254*
X459330Y762080*
X461889D02*
X461915Y769754D01*
X307815Y771254D02*
X324705D01*
X302815Y766254D02*
X324705D01*
X314815Y783754D02*
X317315Y781254D01*
X324705*
X314815Y783754D02*
Y805254D01*
X318315Y808754*
X324803*
X360925Y781254D02*
X352315D01*
Y749254*
X355315Y746254*
X370815*
X373315Y743754*
Y737254*
X370815Y781254D02*
Y775754D01*
X372315Y774254*
X370815Y781254D02*
X375815Y786254D01*
Y809254*
X360925Y776254D02*
X366815D01*
X368315Y777754*
Y782754*
X373315Y787754*
Y794749*
X360925Y771254D02*
X368315D01*
X360925Y766254D02*
X368315D01*
X379803D02*
X379815D01*
Y774754*
X379803Y766254D02*
X379817Y766239D01*
X379817D02*
Y759751D01*
X379817D02*
X385809Y753759D01*
X385809D02*
X395026D01*
X395315Y753675*
X379815Y774754D02*
X375815Y778754D01*
X381315Y784254*
Y791254*
X407615Y779454D02*
Y789654D01*
X426063Y779600D02*
X426106Y798084D01*
Y788924*
X426063Y779600D02*
X435921D01*
Y780091*
X417215Y779254D02*
Y789054D01*
X445899Y779764D02*
Y789251D01*
X435921Y780091D02*
Y779764D01*
X445899*
X466315Y779754D02*
X469566D01*
X469566D02*
Y762080D01*
X466315Y779754D02*
Y788754D01*
X461915Y769754D02*
X465915D01*
X286815Y799754D02*
Y765754D01*
X290815Y761254*
X294815*
X297815Y758254*
Y738254*
X286815Y799754D02*
X288315Y801254D01*
X306315*
X316815Y811754*
Y842254*
X320315Y845754*
X302815Y796254D02*
X310815Y788254D01*
Y778754*
X313315Y776254*
X324705*
X317315Y787254D02*
Y790254D01*
X318315Y791254*
X324705*
X317315Y787254D02*
X318315Y786254D01*
X324705*
Y796254D02*
X330815D01*
X333815Y793254*
Y751754*
X350315Y735254*
X373315Y794749D02*
X372311Y795752D01*
X372311D02*
X372315Y795754D01*
X360925Y791254D02*
X366815D01*
X368677Y793116*
Y812966*
X360925Y786254D02*
X366815D01*
X369315Y788754*
X417215Y798054D02*
X407615D01*
Y789654*
X417215Y789054D02*
Y798054D01*
X426106Y798084D02*
Y788924D01*
X435757*
X417215Y798054D02*
X417245Y798084D01*
X426106*
X435965Y797754D02*
X426063D01*
X426106Y798084*
X445899Y789251D02*
X445867Y797754D01*
X435965*
X435757Y788924D02*
X439645D01*
X445899Y789251*
X466315Y797754D02*
X475315D01*
Y815427*
X466315Y788754D02*
Y797754D01*
X284565Y809004D02*
X286815Y811254D01*
X306315*
X312815Y817754*
Y852754*
X284565Y809004D02*
Y749754D01*
X288065Y746254*
X292815*
X324803Y823754D02*
X324815Y832254D01*
X363326Y823754D02*
Y818316D01*
X363327D02*
X368677Y812966D01*
X363326Y823754D02*
Y838754D01*
X379815Y820254D02*
X375815Y816254D01*
X381049Y811019*
X381049D02*
Y810988D01*
X381049D02*
X381315Y810723D01*
Y803754*
X426063Y815427D02*
X426106Y798084D01*
X437815Y822254D02*
X438858Y821210D01*
X438858D02*
Y815427D01*
X440315Y807254D02*
X443976Y810915D01*
Y815427*
X446315Y823254D02*
X449094Y820474D01*
X449094D02*
Y815427D01*
X446535D02*
Y807533D01*
X446535D02*
X446815Y807254D01*
X451653Y815427D02*
Y808915D01*
X451653D02*
X453315Y807254D01*
X459330Y815427D02*
Y826254D01*
X459330D02*
X460315Y827238D01*
Y830754*
X461889Y815427D02*
Y821328D01*
X461889D02*
X463315Y822754D01*
X467815*
X469566Y815427D02*
X475315D01*
X287815Y842754D02*
Y896254D01*
X289815Y898254*
X316815*
X318315Y896754*
X339303*
X339803Y896254*
X287815Y842754D02*
X289315Y841254D01*
X296315*
X297815Y839754*
Y831254*
X302815Y826254*
X324815Y832254D02*
X324803Y838754D01*
Y853754*
X363326Y838754D02*
Y853754D01*
X369815Y843754D02*
Y815254D01*
X375815Y809254*
X369815Y843754D02*
X372315Y846254D01*
X398815*
X400315Y847754*
Y854754*
X401315Y856254*
X408815*
X413815Y851254*
X418803*
X379803Y828754D02*
X379815Y828742D01*
Y820254*
X385315Y841332D02*
X379803Y835820D01*
X379803D02*
Y828754D01*
X431815Y834254D02*
Y827679D01*
X433740Y825754*
Y815427*
X431815Y834254D02*
Y839254D01*
X441417Y827651D02*
Y815427D01*
X452815Y841254D02*
X470146D01*
X470315Y841085*
X452815Y831254D02*
X454212Y829856D01*
X454212D02*
Y815427D01*
X460315Y830754D02*
Y835254D01*
X506338Y833754D02*
X507815Y832277D01*
X507815D02*
Y826254D01*
X515315Y818754*
Y788754*
X309815Y850254D02*
X308315Y851754D01*
Y855254*
X309815Y856754*
X315815*
X316815Y855754*
Y849254*
X352303Y853754D02*
X352315Y853742D01*
Y846754*
X335815Y845754D02*
X335826Y853754D01*
X363326D02*
Y860754D01*
X363327D02*
X367815Y865242D01*
Y873675*
X379815Y857254D02*
X379803D01*
Y863754*
X395315Y851175D02*
X390315Y856175D01*
Y863242*
X390826Y863754*
X405315Y851254D02*
Y836254D01*
X418803Y851254D02*
Y864254D01*
X428327Y863754D02*
X435827D01*
X438327Y866254*
X460315*
X484291Y851254D02*
Y833754D01*
X324803Y868708D02*
X324825Y868731D01*
X324825D02*
X324904D01*
X329848Y873675*
X324803Y868708D02*
Y853754D01*
X329848Y873675D02*
X340315D01*
X322815Y883754D02*
X329848Y876720D01*
X329848D02*
Y873675D01*
X375315Y879754D02*
Y870754D01*
X376315Y869754*
X402315*
X405315Y866754*
Y861254*
X375315Y879754D02*
X376815Y881254D01*
X383815*
X385315Y882754*
Y889754*
X410815Y868254D02*
Y865254D01*
X411815Y864254*
X418803*
X460315Y866254D02*
X484291D01*
Y851254*
X350826Y896254D02*
X370315D01*
X375315Y891254*
X383815*
X385315Y889754*
X339803Y886254D02*
Y896254D01*
G54D14*
X110212Y35561D02*
Y1165483D01*
X818874*
Y35561*
X110212*
Y236349*
X818874*
X110212Y181231D02*
X350370D01*
X110212Y165483D02*
X350370D01*
Y35561D02*
Y236349D01*
Y165483D02*
X653519D01*
Y236349*
Y165483D02*
X818874D01*
X598401Y130050D02*
X818874D01*
X767693D02*
Y165483D01*
X598401D02*
Y35561D01*
X681078Y130050D02*
Y165483D01*
X350370Y130050D02*
X598401D01*
Y86742D02*
X818874D01*
G54D15*
X771630Y161546D02*
Y153671D01*
Y161546D02*
X774084D01*
X774084D02*
X774902Y161171D01*
X774902D02*
X775175Y160796D01*
X775448Y160046*
Y159296*
X775175Y158546*
X774902Y158171*
X774902D02*
X774084Y157796D01*
X774084D02*
X771630D01*
X773539D02*
X775448Y153671D01*
X777902Y161546D02*
Y153671D01*
Y161546D02*
X781448D01*
X777902Y157796D02*
X780084D01*
X777902Y153671D02*
X781448D01*
X783902Y161546D02*
X786084Y153671D01*
X788266Y161546D02*
X786084Y153671D01*
X688834Y160421D02*
X688288Y161171D01*
X688288D02*
X687470Y161546D01*
X687470D02*
X686379D01*
X686379D02*
X685561Y161171D01*
X685016Y160421*
Y159671*
X685288Y158921*
X685288D02*
X685561Y158546D01*
X686106Y158171*
X686106D02*
X687743Y157421D01*
X688288Y157046*
X688288D02*
X688561Y156671D01*
X688834Y155921*
Y154796*
X688288Y154046*
X688288D02*
X687470Y153671D01*
X687470D02*
X686379D01*
X686379D02*
X685561Y154046D01*
X685016Y154796*
X695379Y159671D02*
X695106Y160421D01*
X695106D02*
X694561Y161171D01*
X694016Y161546*
X692925*
X692379Y161171*
X692379D02*
X691834Y160421D01*
X691561Y159671*
X691288Y158546*
X691288D02*
Y156671D01*
X691288D02*
X691561Y155546D01*
X691834Y154796*
X692379Y154046*
X692379D02*
X692925Y153671D01*
X694016*
X694561Y154046*
X695106Y154796*
X695106D02*
X695379Y155546D01*
X700016Y161546D02*
X697834Y153671D01*
X700016Y161546D02*
X702197Y153671D01*
X698652Y156296D02*
X701379D01*
X704652Y161546D02*
Y153671D01*
X707925*
X710379Y161546D02*
Y153671D01*
Y161546D02*
X713925D01*
X710379Y157796D02*
X712561D01*
X710379Y153671D02*
X713925D01*
X661547Y195104D02*
X661275Y195854D01*
X660729Y196604*
X660729D02*
X660184Y196979D01*
X659093*
X658547Y196604*
X658547D02*
X658002Y195854D01*
X657729Y195104*
X657729D02*
X657457Y193979D01*
Y192104*
X657729Y190979*
X657729D02*
X658002Y190229D01*
X658547Y189479*
X658547D02*
X659093Y189104D01*
X660184*
X660729Y189479*
X660729D02*
X661275Y190229D01*
X661547Y190979*
X661547D02*
Y192104D01*
X660184D02*
X661547D01*
X664002Y196979D02*
Y189104D01*
Y196979D02*
X666457D01*
X667275Y196604*
X667547Y196229*
X667547D02*
X667820Y195479D01*
X667820D02*
Y194729D01*
X667820D02*
X667547Y193979D01*
X667547D02*
X667275Y193604D01*
X666457Y193229*
X664002*
X665911D02*
X667820Y189104D01*
X671911Y196979D02*
X671366Y196604D01*
X670820Y195854*
X670820D02*
X670547Y195104D01*
X670547D02*
X670275Y193979D01*
Y192104*
X670547Y190979*
X670547D02*
X670820Y190229D01*
X670820D02*
X671366Y189479D01*
X671911Y189104*
X671911D02*
X673002D01*
X673547Y189479*
X673547D02*
X674093Y190229D01*
X674366Y190979*
X674638Y192104*
X674638D02*
Y193979D01*
X674638D02*
X674366Y195104D01*
X674093Y195854*
X673547Y196604*
X673547D02*
X673002Y196979D01*
X671911*
X677093D02*
Y191354D01*
X677366Y190229*
X677911Y189479*
X677911D02*
X678729Y189104D01*
X678729D02*
X679275D01*
X680093Y189479*
X680638Y190229*
X680638D02*
X680911Y191354D01*
X680911D02*
Y196979D01*
X683366D02*
Y189104D01*
Y196979D02*
X685820D01*
X685820D02*
X686638Y196604D01*
X686638D02*
X686911Y196229D01*
X686911D02*
X687184Y195479D01*
Y194354*
X686911Y193604*
X686911D02*
X686638Y193229D01*
X686638D02*
X685820Y192854D01*
X685820D02*
X683366D01*
X661275Y231287D02*
X660729Y232037D01*
X660729D02*
X659911Y232412D01*
X659911D02*
X658820D01*
X658820D02*
X658002Y232037D01*
X657457Y231287*
Y230537*
X657729Y229787*
X657729D02*
X658002Y229412D01*
X658547Y229037*
X658547D02*
X660184Y228287D01*
X660729Y227912*
X660729D02*
X661002Y227537D01*
X661275Y226787*
Y225662*
X660729Y224912*
X660729D02*
X659911Y224537D01*
X659911D02*
X658820D01*
X658820D02*
X658002Y224912D01*
X657457Y225662*
X663729Y232412D02*
X665911Y228662D01*
X665911D02*
Y224537D01*
X668093Y232412D02*
X665911Y228662D01*
X670547Y232412D02*
Y224537D01*
Y232412D02*
X672729Y224537D01*
X674911Y232412D02*
X672729Y224537D01*
X674911Y232412D02*
Y224537D01*
X677366Y232412D02*
Y224537D01*
Y232412D02*
X679820D01*
X679820D02*
X680638Y232037D01*
X680638D02*
X680911Y231662D01*
X680911D02*
X681184Y230912D01*
Y230162*
X680911Y229412*
X680911D02*
X680638Y229037D01*
X680638D02*
X679820Y228662D01*
X677366D02*
X679820D01*
X679820D02*
X680638Y228287D01*
X680638D02*
X680911Y227912D01*
X680911D02*
X681184Y227162D01*
Y226037*
X680911Y225287*
X680911D02*
X680638Y224912D01*
X680638D02*
X679820Y224537D01*
X679820D02*
X677366D01*
X685275Y232412D02*
X684729Y232037D01*
X684729D02*
X684184Y231287D01*
X683911Y230537*
X683911D02*
X683638Y229412D01*
X683638D02*
Y227537D01*
X683638D02*
X683911Y226412D01*
X683911D02*
X684184Y225662D01*
X684729Y224912*
X684729D02*
X685275Y224537D01*
X686366*
X686911Y224912*
X686911D02*
X687457Y225662D01*
X687729Y226412*
X687729D02*
X688002Y227537D01*
Y229412*
X687729Y230537*
X687729D02*
X687457Y231287D01*
X686911Y232037*
X686911D02*
X686366Y232412D01*
X685275*
X690457D02*
Y224537D01*
X693729*
X602339Y161546D02*
Y153671D01*
X608611Y160421D02*
X608066Y161171D01*
X607248Y161546*
X606157*
X605339Y161171*
X604793Y160421*
X604793D02*
Y159671D01*
X604793D02*
X605066Y158921D01*
X605339Y158546*
X605884Y158171*
X607520Y157421*
X607520D02*
X608066Y157046D01*
X608339Y156671*
X608611Y155921*
X608611D02*
Y154796D01*
X608611D02*
X608066Y154046D01*
X607248Y153671*
X606157*
X605339Y154046*
X604793Y154796*
X612702Y161546D02*
X612157Y161171D01*
X611611Y160421*
X611611D02*
X611339Y159671D01*
X611066Y158546*
Y156671*
X611339Y155546*
X611611Y154796*
X611611D02*
X612157Y154046D01*
X612702Y153671*
X612702D02*
X613793D01*
X613793D02*
X614339Y154046D01*
X614884Y154796*
X615157Y155546*
X615429Y156671*
X615429D02*
Y158546D01*
X615429D02*
X615157Y159671D01*
X614884Y160421*
X614339Y161171*
X613793Y161546*
X613793D02*
X612702D01*
X602339Y126113D02*
Y118238D01*
Y126113D02*
X604520Y118238D01*
X606702Y126113D02*
X604520Y118238D01*
X606702Y126113D02*
Y118238D01*
X611339Y126113D02*
X609157Y118238D01*
X611339Y126113D02*
X613520Y118238D01*
X609975Y120863D02*
X612702D01*
X617884Y126113D02*
Y118238D01*
X615975Y126113D02*
X619793D01*
X622248D02*
Y118238D01*
Y126113D02*
X625793D01*
X622248Y122363D02*
X624429D01*
X622248Y118238D02*
X625793D01*
X628248Y126113D02*
Y118238D01*
Y126113D02*
X630702D01*
X630702D02*
X631520Y125738D01*
X631520D02*
X631793Y125363D01*
X631793D02*
X632066Y124613D01*
Y123863*
X631793Y123113*
X631793D02*
X631520Y122738D01*
X631520D02*
X630702Y122363D01*
X630702D02*
X628248D01*
X630157D02*
X632066Y118238D01*
X634520Y126113D02*
Y118238D01*
X639157Y126113D02*
X636975Y118238D01*
X639157Y126113D02*
X641339Y118238D01*
X637793Y120863D02*
X640520D01*
X643793Y126113D02*
Y118238D01*
X643793D02*
X647066D01*
X604248Y82806D02*
Y74931D01*
X602339Y82806D02*
X606157D01*
X608611D02*
Y74931D01*
Y82806D02*
X611066D01*
X611884Y82431*
X612157Y82056*
X612429Y81306*
X612429D02*
Y80556D01*
X612429D02*
X612157Y79806D01*
X611884Y79431*
X611066Y79056*
X608611*
X610520D02*
X612429Y74931D01*
X614884Y82806D02*
Y74931D01*
Y82806D02*
X618429D01*
X614884Y79056D02*
X617066D01*
X614884Y74931D02*
X618429D01*
X623066Y82806D02*
X620884Y74931D01*
X623066Y82806D02*
X625248Y74931D01*
X621702Y77556D02*
X624429D01*
X629611Y82806D02*
Y74931D01*
X627702Y82806D02*
X631520D01*
X633975D02*
Y74931D01*
Y82806D02*
X636157Y74931D01*
X638339Y82806D02*
X636157Y74931D01*
X638339Y82806D02*
Y74931D01*
X640793Y82806D02*
Y74931D01*
Y82806D02*
X644339D01*
X640793Y79056D02*
X642975D01*
X640793Y74931D02*
X644339D01*
X646793Y82806D02*
Y74931D01*
Y82806D02*
X650611Y74931D01*
Y82806D02*
Y74931D01*
X654975Y82806D02*
Y74931D01*
X653066Y82806D02*
X656884D01*
X666429D02*
X664248Y74931D01*
X666429Y82806D02*
X668611Y74931D01*
X665066Y77556D02*
X667793D01*
X671066Y82806D02*
Y74931D01*
Y82806D02*
X674884Y74931D01*
Y82806D02*
Y74931D01*
X677339Y82806D02*
Y74931D01*
Y82806D02*
X679248D01*
X680066Y82431*
X680611Y81681*
X680611D02*
X680884Y80931D01*
X681157Y79806*
Y77931*
X680884Y76806*
X680611Y76056*
X680611D02*
X680066Y75306D01*
X679248Y74931*
X677339*
X692339Y81681D02*
X691793Y82431D01*
X691793D02*
X690975Y82806D01*
X689884*
X689066Y82431*
X688520Y81681*
X688520D02*
Y80931D01*
X688520D02*
X688793Y80181D01*
X688793D02*
X689066Y79806D01*
X689611Y79431*
X689611D02*
X691248Y78681D01*
X691793Y78306*
X691793D02*
X692066Y77931D01*
X692339Y77181*
Y76056*
X691793Y75306*
X691793D02*
X690975Y74931D01*
X689884*
X689066Y75306*
X688520Y76056*
X694793Y82806D02*
Y77181D01*
X694793D02*
X695066Y76056D01*
X695611Y75306*
X695611D02*
X696429Y74931D01*
X696429D02*
X696975D01*
X697793Y75306*
X697793D02*
X698339Y76056D01*
X698611Y77181*
X698611D02*
Y82806D01*
X701066D02*
Y74931D01*
Y82806D02*
X703520D01*
X703520D02*
X704339Y82431D01*
X704611Y82056*
X704611D02*
X704884Y81306D01*
Y80556*
X704611Y79806*
X704611D02*
X704339Y79431D01*
X703520Y79056*
X703520D02*
X701066D01*
X702975D02*
X704884Y74931D01*
X707339Y82806D02*
Y74931D01*
Y82806D02*
X710884D01*
X707339Y79056D02*
X709520D01*
X715520Y82806D02*
X713339Y74931D01*
X715520Y82806D02*
X717702Y74931D01*
X714157Y77556D02*
X716884D01*
X724248Y80931D02*
X723975Y81681D01*
X723429Y82431*
X723429D02*
X722884Y82806D01*
X721793*
X721793D02*
X721248Y82431D01*
X720702Y81681*
X720702D02*
X720429Y80931D01*
X720429D02*
X720157Y79806D01*
Y77931*
X720429Y76806*
X720429D02*
X720702Y76056D01*
X720702D02*
X721248Y75306D01*
X721793Y74931*
X721793D02*
X722884D01*
X723429Y75306*
X723429D02*
X723975Y76056D01*
X724248Y76806*
X726702Y82806D02*
Y74931D01*
Y82806D02*
X730248D01*
X726702Y79056D02*
X728884D01*
X726702Y74931D02*
X730248D01*
X737611Y82806D02*
Y74931D01*
Y82806D02*
X741157D01*
X737611Y79056D02*
X739793D01*
X743611Y82806D02*
Y74931D01*
X746066Y82806D02*
Y74931D01*
Y82806D02*
X749884Y74931D01*
Y82806D02*
Y74931D01*
X752339Y82806D02*
Y74931D01*
X758611Y81681D02*
X758066Y82431D01*
X757248Y82806*
X756157*
X755339Y82431*
X754793Y81681*
X754793D02*
Y80931D01*
X754793D02*
X755066Y80181D01*
X755339Y79806*
X755884Y79431*
X757520Y78681*
X757520D02*
X758066Y78306D01*
X758339Y77931*
X758611Y77181*
X758611D02*
Y76056D01*
X758611D02*
X758066Y75306D01*
X757248Y74931*
X756157*
X755339Y75306*
X754793Y76056*
X761066Y82806D02*
Y74931D01*
X764884Y82806D02*
Y74931D01*
X761066Y79056D02*
X764884D01*
X767339Y82806D02*
Y74931D01*
X769793Y82806D02*
Y74931D01*
Y82806D02*
X773611Y74931D01*
Y82806D02*
Y74931D01*
X780157Y80931D02*
X779884Y81681D01*
X779339Y82431*
X778793Y82806*
X778793D02*
X777702D01*
X777702D02*
X777157Y82431D01*
X776611Y81681*
X776611D02*
X776339Y80931D01*
X776066Y79806*
Y77931*
X776339Y76806*
X776611Y76056*
X776611D02*
X777157Y75306D01*
X777702Y74931*
X777702D02*
X778793D01*
X778793D02*
X779339Y75306D01*
X779884Y76056*
X780157Y76806*
Y77931*
X778793D02*
X780157D01*
X564937Y46810D02*
X569846D01*
X567391Y56091D02*
Y49341D01*
X564937Y52716D02*
X569846D01*
X572846Y57216D02*
X575846D01*
X574209Y54216*
X574209D02*
X575027D01*
X575027D02*
X575573Y53841D01*
X575846Y53466*
X576118Y52341*
X576118D02*
Y51591D01*
X576118D02*
X575846Y50466D01*
X575300Y49716*
X575300D02*
X574482Y49341D01*
X573664*
X572846Y49716*
X572573Y50091*
X572300Y50841*
X580209Y57216D02*
X579391Y56841D01*
X579391D02*
X578846Y55716D01*
X578573Y53841*
Y52716*
X578846Y50841*
X579391Y49716*
X579391D02*
X580209Y49341D01*
X580209D02*
X580755D01*
X581573Y49716*
X582118Y50841*
X582118D02*
X582391Y52716D01*
X582391D02*
Y53841D01*
X582391D02*
X582118Y55716D01*
X582118D02*
X581573Y56841D01*
X580755Y57216*
X580209*
X584846D02*
Y54591D01*
X569360Y87587D02*
Y80837D01*
X566906Y84212D02*
X571815D01*
X574269Y87212D02*
X574815Y87587D01*
X575633Y88712*
Y80837*
X566906Y78306D02*
X571815D01*
X566906Y112334D02*
Y104459D01*
X570178*
X572633Y112334D02*
Y104459D01*
Y112334D02*
X576178D01*
X572633Y108584D02*
X574815D01*
X572633Y104459D02*
X576178D01*
X582451Y111209D02*
X581906Y111959D01*
X581087Y112334*
X581087D02*
X579996D01*
X579996D02*
X579178Y111959D01*
X579178D02*
X578633Y111209D01*
Y110459*
X578906Y109709*
X579178Y109334*
X579178D02*
X579724Y108959D01*
X581360Y108209*
X581360D02*
X581906Y107834D01*
X582178Y107459*
X582178D02*
X582451Y106709D01*
Y105584*
X581906Y104834*
X581087Y104459*
X581087D02*
X579996D01*
X579996D02*
X579178Y104834D01*
X579178D02*
X578633Y105584D01*
X585178Y105209D02*
X584906Y104834D01*
X585178Y104459*
X585178D02*
X585451Y104834D01*
X585178Y105209*
X569087Y126113D02*
X566906Y118238D01*
X569087Y126113D02*
X571269Y118238D01*
X567724Y120863D02*
X570451D01*
X573724Y126113D02*
Y118238D01*
Y126113D02*
X577542Y118238D01*
Y126113D02*
Y118238D01*
X584087Y124238D02*
X583815Y124988D01*
X583269Y125738*
X583269D02*
X582724Y126113D01*
X581633*
X581087Y125738*
X581087D02*
X580542Y124988D01*
X580269Y124238*
X580269D02*
X579996Y123113D01*
X579996D02*
Y121238D01*
X579996D02*
X580269Y120113D01*
X580269D02*
X580542Y119363D01*
X581087Y118613*
X581087D02*
X581633Y118238D01*
X582724*
X583269Y118613*
X583269D02*
X583815Y119363D01*
X584087Y120113*
X584087D02*
Y121238D01*
X582724D02*
X584087D01*
X586815Y118988D02*
X586542Y118613D01*
X586815Y118238*
X587087Y118613*
X587087D02*
X586815Y118988D01*
X531958Y85618D02*
Y78868D01*
X529504Y82243D02*
X534413D01*
X538504Y86743D02*
X537685Y86368D01*
X537685D02*
X537140Y85243D01*
X536867Y83368*
X536867D02*
Y82243D01*
X536867D02*
X537140Y80368D01*
X537685Y79243*
X537685D02*
X538504Y78868D01*
X539049*
X539867Y79243*
X539867D02*
X540413Y80368D01*
X540685Y82243*
X540685D02*
Y83368D01*
X540685D02*
X540413Y85243D01*
X539867Y86368*
X539867D02*
X539049Y86743D01*
X538504*
X543413Y79618D02*
X543140Y79243D01*
X543413Y78868*
X543685Y79243*
X543685D02*
X543413Y79618D01*
X549685Y86743D02*
X546958D01*
X546958D02*
X546685Y83368D01*
X546685D02*
X546958Y83743D01*
X546958D02*
X547776Y84118D01*
X547776D02*
X548594D01*
X548594D02*
X549413Y83743D01*
X549958Y82993*
X549958D02*
X550231Y81868D01*
X549958Y81118*
X549958D02*
X549685Y79993D01*
X549685D02*
X549140Y79243D01*
X548322Y78868*
X547504*
X546685Y79243*
X546685D02*
X546413Y79618D01*
X546140Y80368*
X529504Y76338D02*
X534413D01*
X525567Y44842D02*
X530476D01*
X528021Y54122D02*
Y47372D01*
X525567Y50747D02*
X530476D01*
X534567Y55247D02*
X533748Y54872D01*
X533748D02*
X533203Y53747D01*
X532930Y51872*
X532930D02*
Y50747D01*
X532930D02*
X533203Y48872D01*
X533748Y47747*
X533748D02*
X534567Y47372D01*
X535112*
X535930Y47747*
X535930D02*
X536476Y48872D01*
X536748Y50747*
X536748D02*
Y51872D01*
X536748D02*
X536476Y53747D01*
X535930Y54872*
X535930D02*
X535112Y55247D01*
X534567*
X539476Y48122D02*
X539203Y47747D01*
X539476Y47372*
X539748Y47747*
X539748D02*
X539476Y48122D01*
X542476Y53372D02*
Y53747D01*
X542748Y54497*
X542748D02*
X543021Y54872D01*
X543021D02*
X543567Y55247D01*
X544657*
X544657D02*
X545203Y54872D01*
X545476Y54497*
X545748Y53747*
X545748D02*
Y52997D01*
X545748D02*
X545476Y52247D01*
X544930Y51122*
X544930D02*
X542203Y47372D01*
X546021*
X552021Y55247D02*
X549294D01*
X549021Y51872*
X549021D02*
X549294Y52247D01*
X550112Y52622*
X550930*
X550930D02*
X551748Y52247D01*
X551748D02*
X552294Y51497D01*
X552567Y50372*
X552294Y49622*
X552021Y48497*
X552021D02*
X551476Y47747D01*
X550657Y47372*
X550657D02*
X549839D01*
X549839D02*
X549021Y47747D01*
X549021D02*
X548748Y48122D01*
X548748D02*
X548476Y48872D01*
X492102Y44842D02*
X497011D01*
X494556Y54122D02*
Y47372D01*
X492102Y50747D02*
X497011D01*
X501102Y55247D02*
X500283Y54872D01*
X500283D02*
X499738Y53747D01*
X499465Y51872*
X499465D02*
Y50747D01*
X499465D02*
X499738Y48872D01*
X500283Y47747*
X500283D02*
X501102Y47372D01*
X501647*
X502465Y47747*
X502465D02*
X503011Y48872D01*
X503283Y50747*
X503283D02*
Y51872D01*
X503283D02*
X503011Y53747D01*
X502465Y54872*
X502465D02*
X501647Y55247D01*
X501102*
X506011Y48122D02*
X505738Y47747D01*
X506011Y47372*
X506283Y47747*
X506283D02*
X506011Y48122D01*
X508738Y53747D02*
X509283Y54122D01*
X509283D02*
X510102Y55247D01*
Y47372*
X516102Y55247D02*
X513374D01*
X513374D02*
X513102Y51872D01*
X513374Y52247*
X513374D02*
X514192Y52622D01*
X514192D02*
X515011D01*
X515829Y52247*
X516374Y51497*
X516374D02*
X516647Y50372D01*
X516374Y49622*
X516374D02*
X516102Y48497D01*
X515556Y47747*
X515556D02*
X514738Y47372D01*
X513920*
X513102Y47747*
X512829Y48122*
X512556Y48872*
X496039Y76338D02*
X500948D01*
X498493Y85618D02*
Y78868D01*
X496039Y82243D02*
X500948D01*
X505039Y86743D02*
X504220Y86368D01*
X504220D02*
X503675Y85243D01*
X503402Y83368*
X503402D02*
Y82243D01*
X503402D02*
X503675Y80368D01*
X504220Y79243*
X504220D02*
X505039Y78868D01*
X505584*
X506402Y79243*
X506402D02*
X506948Y80368D01*
X507220Y82243*
X507220D02*
Y83368D01*
X507220D02*
X506948Y85243D01*
X506402Y86368*
X506402D02*
X505584Y86743D01*
X505039*
X509948Y79618D02*
X509675Y79243D01*
X509948Y78868*
X510220Y79243*
X510220D02*
X509948Y79618D01*
X513220Y86743D02*
X516220D01*
X516220D02*
X514584Y83743D01*
X515402*
X515402D02*
X515948Y83368D01*
X516220Y82993*
X516220D02*
X516493Y81868D01*
X516493D02*
Y81118D01*
X516493D02*
X516220Y79993D01*
X516220D02*
X515675Y79243D01*
X514857Y78868*
X514039*
X513220Y79243*
X513220D02*
X512948Y79618D01*
X512675Y80368*
X529504Y111209D02*
X533867Y108209D01*
X533867D02*
X529504Y104834D01*
X535504Y110459D02*
Y110834D01*
X535776Y111584*
X535776D02*
X536049Y111959D01*
X536594Y112334*
X536594D02*
X537685D01*
X537685D02*
X538231Y111959D01*
X538504Y111584*
X538776Y110834*
X538776D02*
Y110084D01*
X538776D02*
X538504Y109334D01*
X537958Y108209*
X537958D02*
X535231Y104459D01*
X539049*
X543140Y112334D02*
X542322Y111959D01*
X541776Y110834*
X541776D02*
X541504Y108959D01*
Y107834*
X541776Y105959*
X541776D02*
X542322Y104834D01*
X543140Y104459*
X543685*
X543685D02*
X544504Y104834D01*
X545049Y105959*
X545322Y107834*
Y108959*
X545049Y110834*
X544504Y111959*
X543685Y112334*
X543685D02*
X543140D01*
X549413D02*
X548594Y111959D01*
X548594D02*
X548049Y110834D01*
X547776Y108959*
X547776D02*
Y107834D01*
X547776D02*
X548049Y105959D01*
X548594Y104834*
X548594D02*
X549413Y104459D01*
X549958*
X549958D02*
X550776Y104834D01*
X550776D02*
X551322Y105959D01*
X551594Y107834*
X551594D02*
Y108959D01*
X551594D02*
X551322Y110834D01*
X550776Y111959*
X550776D02*
X549958Y112334D01*
X549958D02*
X549413D01*
X498434Y111209D02*
X494071Y108209D01*
X498434Y104834*
X500071Y110459D02*
Y110834D01*
X500343Y111584*
X500343D02*
X500616Y111959D01*
X501161Y112334*
X501161D02*
X502252D01*
X502252D02*
X502798Y111959D01*
X503071Y111584*
X503343Y110834*
X503343D02*
Y110084D01*
X503343D02*
X503071Y109334D01*
X502525Y108209*
X502525D02*
X499798Y104459D01*
X503616*
X507707Y112334D02*
X506889Y111959D01*
X506343Y110834*
X506343D02*
X506071Y108959D01*
Y107834*
X506343Y105959*
X506343D02*
X506889Y104834D01*
X507707Y104459*
X508252*
X508252D02*
X509071Y104834D01*
X509616Y105959*
X509889Y107834*
Y108959*
X509616Y110834*
X509071Y111959*
X508252Y112334*
X508252D02*
X507707D01*
X513980D02*
X513161Y111959D01*
X513161D02*
X512616Y110834D01*
X512343Y108959*
X512343D02*
Y107834D01*
X512343D02*
X512616Y105959D01*
X513161Y104834*
X513161D02*
X513980Y104459D01*
X514525*
X514525D02*
X515343Y104834D01*
X515343D02*
X515889Y105959D01*
X516161Y107834*
X516161D02*
Y108959D01*
X516161D02*
X515889Y110834D01*
X515343Y111959*
X515343D02*
X514525Y112334D01*
X514525D02*
X513980D01*
X494071Y103897D02*
X498980D01*
X498008Y124988D02*
X502371Y121988D01*
X502371D02*
X498008Y118613D01*
X507280Y126113D02*
X504553D01*
X504280Y122738*
X504280D02*
X504553Y123113D01*
X505371Y123488*
X505371D02*
X506189D01*
X506189D02*
X507008Y123113D01*
X507553Y122363*
X507826Y121238*
X507553Y120488*
X507280Y119363*
X507280D02*
X506735Y118613D01*
X505917Y118238*
X505098*
X505098D02*
X504280Y118613D01*
X504280D02*
X504008Y118988D01*
X503735Y119738*
X511917Y126113D02*
X511098Y125738D01*
X511098D02*
X510553Y124613D01*
X510280Y122738*
X510280D02*
Y121613D01*
X510280D02*
X510553Y119738D01*
X511098Y118613*
X511098D02*
X511917Y118238D01*
X512462*
X512462D02*
X513280Y118613D01*
X513280D02*
X513826Y119738D01*
X514098Y121613*
X514098D02*
Y122738D01*
X514098D02*
X513826Y124613D01*
X513280Y125738*
X513280D02*
X512462Y126113D01*
X512462D02*
X511917D01*
X462575Y124988D02*
X466938Y121988D01*
X466938D02*
X462575Y118613D01*
X468302Y124613D02*
X468847Y124988D01*
X468847D02*
X469665Y126113D01*
X469665D02*
Y118238D01*
X473756Y126113D02*
X472938Y125738D01*
X472938D02*
X472393Y124613D01*
X472120Y122738*
Y121613*
X472393Y119738*
X472938Y118613*
X472938D02*
X473756Y118238D01*
X473756D02*
X474302D01*
X475120Y118613*
X475665Y119738*
X475665D02*
X475938Y121613D01*
X475938D02*
Y122738D01*
X475938D02*
X475665Y124613D01*
X475665D02*
X475120Y125738D01*
X474302Y126113*
X473756*
X464969Y111209D02*
X460606Y108209D01*
X464969Y104834*
X469878Y112334D02*
X467151D01*
X466878Y108959*
X466878D02*
X467151Y109334D01*
X467969Y109709*
X467969D02*
X468787D01*
X468787D02*
X469606Y109334D01*
X470151Y108584*
X470424Y107459*
X470151Y106709*
X469878Y105584*
X469878D02*
X469333Y104834D01*
X468515Y104459*
X467696*
X467696D02*
X466878Y104834D01*
X466878D02*
X466606Y105209D01*
X466333Y105959*
X474515Y112334D02*
X473696Y111959D01*
X473696D02*
X473151Y110834D01*
X472878Y108959*
X472878D02*
Y107834D01*
X472878D02*
X473151Y105959D01*
X473696Y104834*
X473696D02*
X474515Y104459D01*
X475060*
X475060D02*
X475878Y104834D01*
X475878D02*
X476424Y105959D01*
X476696Y107834*
X476696D02*
Y108959D01*
X476696D02*
X476424Y110834D01*
X475878Y111959*
X475878D02*
X475060Y112334D01*
X475060D02*
X474515D01*
X460606Y103897D02*
X465515D01*
X463060Y54122D02*
Y47372D01*
X460606Y50747D02*
X465515D01*
X469606Y55247D02*
X468787Y54872D01*
X468787D02*
X468242Y53747D01*
X467969Y51872*
X467969D02*
Y50747D01*
X467969D02*
X468242Y48872D01*
X468787Y47747*
X468787D02*
X469606Y47372D01*
X470151*
X470969Y47747*
X470969D02*
X471515Y48872D01*
X471787Y50747*
X471787D02*
Y51872D01*
X471787D02*
X471515Y53747D01*
X470969Y54872*
X470969D02*
X470151Y55247D01*
X469606*
X474515Y48122D02*
X474242Y47747D01*
X474515Y47372*
X474787Y47747*
X474787D02*
X474515Y48122D01*
X477242Y53747D02*
X477787Y54122D01*
X477787D02*
X478606Y55247D01*
Y47372*
X460606Y44842D02*
X465515D01*
X458638Y76338D02*
X463547D01*
X461092Y85618D02*
Y78868D01*
X458638Y82243D02*
X463547D01*
X467638Y86743D02*
X466819Y86368D01*
X466819D02*
X466274Y85243D01*
X466001Y83368*
X466001D02*
Y82243D01*
X466001D02*
X466274Y80368D01*
X466819Y79243*
X466819D02*
X467638Y78868D01*
X468183*
X469001Y79243*
X469001D02*
X469547Y80368D01*
X469819Y82243*
X469819D02*
Y83368D01*
X469819D02*
X469547Y85243D01*
X469001Y86368*
X469001D02*
X468183Y86743D01*
X467638*
X472547Y79618D02*
X472274Y79243D01*
X472547Y78868*
X472819Y79243*
X472819D02*
X472547Y79618D01*
X475547Y84868D02*
Y85243D01*
X475819Y85993*
X475819D02*
X476092Y86368D01*
X476092D02*
X476638Y86743D01*
X477728*
X477728D02*
X478274Y86368D01*
X478547Y85993*
X478819Y85243*
X478819D02*
Y84493D01*
X478819D02*
X478547Y83743D01*
X478001Y82618*
X478001D02*
X475274Y78868D01*
X479092*
X427142Y44842D02*
X432051D01*
X429596Y85618D02*
Y78868D01*
X427142Y82243D02*
X432051D01*
X436142Y86743D02*
X435323Y86368D01*
X435323D02*
X434778Y85243D01*
X434505Y83368*
X434505D02*
Y82243D01*
X434505D02*
X434778Y80368D01*
X435323Y79243*
X435323D02*
X436142Y78868D01*
X436687*
X437505Y79243*
X437505D02*
X438051Y80368D01*
X438323Y82243*
X438323D02*
Y83368D01*
X438323D02*
X438051Y85243D01*
X437505Y86368*
X437505D02*
X436687Y86743D01*
X436142*
X441051Y79618D02*
X440778Y79243D01*
X441051Y78868*
X441323Y79243*
X441323D02*
X441051Y79618D01*
X443778Y85243D02*
X444323Y85618D01*
X444323D02*
X445142Y86743D01*
Y78868*
X433473Y111209D02*
X429110Y108209D01*
X433473Y104834*
X434837Y110834D02*
X435382Y111209D01*
X435382D02*
X436200Y112334D01*
X436200D02*
Y104459D01*
X440291Y112334D02*
X439473Y111959D01*
X439473D02*
X438928Y110834D01*
X438655Y108959*
Y107834*
X438928Y105959*
X439473Y104834*
X439473D02*
X440291Y104459D01*
X440291D02*
X440837D01*
X441655Y104834*
X442200Y105959*
X442200D02*
X442473Y107834D01*
X442473D02*
Y108959D01*
X442473D02*
X442200Y110834D01*
X442200D02*
X441655Y111959D01*
X440837Y112334*
X440291*
X429596Y54122D02*
Y47372D01*
X427142Y50747D02*
X432051D01*
X436142Y55247D02*
X435323Y54872D01*
X435323D02*
X434778Y53747D01*
X434505Y51872*
X434505D02*
Y50747D01*
X434505D02*
X434778Y48872D01*
X435323Y47747*
X435323D02*
X436142Y47372D01*
X436687*
X437505Y47747*
X437505D02*
X438051Y48872D01*
X438323Y50747*
X438323D02*
Y51872D01*
X438323D02*
X438051Y53747D01*
X437505Y54872*
X437505D02*
X436687Y55247D01*
X436142*
X441051Y48122D02*
X440778Y47747D01*
X441051Y47372*
X441323Y47747*
X441323D02*
X441051Y48122D01*
X447323Y55247D02*
X444596D01*
X444596D02*
X444323Y51872D01*
X444323D02*
X444596Y52247D01*
X444596D02*
X445414Y52622D01*
X445414D02*
X446232D01*
X446232D02*
X447051Y52247D01*
X447596Y51497*
X447596D02*
X447869Y50372D01*
X447596Y49622*
X447596D02*
X447323Y48497D01*
X447323D02*
X446778Y47747D01*
X445960Y47372*
X445142*
X444323Y47747*
X444323D02*
X444051Y48122D01*
X443778Y48872*
X427142Y76338D02*
X432051D01*
X429110Y103897D02*
X434019D01*
X436652Y126113D02*
X435834Y125738D01*
X435288Y124613*
X435288D02*
X435016Y122738D01*
Y121613*
X435288Y119738*
X435288D02*
X435834Y118613D01*
X436652Y118238*
X437197*
X437197D02*
X438016Y118613D01*
X438561Y119738*
X438834Y121613*
Y122738*
X438561Y124613*
X438016Y125738*
X437197Y126113*
X437197D02*
X436652D01*
X452732Y145798D02*
Y140173D01*
X453004Y139048*
X453004D02*
X453550Y138298D01*
X454368Y137923*
X454913*
X454913D02*
X455732Y138298D01*
X456277Y139048*
X456550Y140173*
Y145798*
X459004D02*
Y137923D01*
Y145798D02*
X462822Y137923D01*
Y145798D02*
Y137923D01*
X465277Y145798D02*
Y137923D01*
X469641Y145798D02*
Y137923D01*
X467732Y145798D02*
X471550D01*
X474004Y142423D02*
X478913D01*
X474004Y140173D02*
X478913D01*
X481368Y143173D02*
Y137923D01*
Y141673D02*
X482186Y142798D01*
X482186D02*
X482732Y143173D01*
X483550*
X484095Y142798*
X484095D02*
X484368Y141673D01*
Y137923*
Y141673D02*
X485186Y142798D01*
X485186D02*
X485732Y143173D01*
X486550*
X487095Y142798*
X487095D02*
X487368Y141673D01*
Y137923*
X489822Y143173D02*
Y137923D01*
Y141673D02*
X490641Y142798D01*
X491186Y143173*
X491186D02*
X492004D01*
X492004D02*
X492550Y142798D01*
X492822Y141673*
X492822D02*
Y137923D01*
Y141673D02*
X493641Y142798D01*
X494186Y143173*
X494186D02*
X495004D01*
X495004D02*
X495550Y142798D01*
X495822Y141673*
X495822D02*
Y137923D01*
X368299Y53279D02*
X366118Y45404D01*
X368299Y53279D02*
X370481Y45404D01*
X366936Y48029D02*
X369663D01*
X377027Y51404D02*
X376754Y52154D01*
X376208Y52904*
X376208D02*
X375663Y53279D01*
X374572*
X374572D02*
X374027Y52904D01*
X373481Y52154*
X373481D02*
X373208Y51404D01*
X373208D02*
X372936Y50279D01*
Y48404*
X373208Y47279*
X373208D02*
X373481Y46529D01*
X373481D02*
X374027Y45779D01*
X374572Y45404*
X374572D02*
X375663D01*
X376208Y45779*
X376208D02*
X376754Y46529D01*
X377027Y47279*
X383572Y51404D02*
X383299Y52154D01*
X383299D02*
X382754Y52904D01*
X382208Y53279*
X382208D02*
X381118D01*
X380572Y52904*
X380572D02*
X380027Y52154D01*
X379754Y51404*
X379481Y50279*
X379481D02*
Y48404D01*
X379481D02*
X379754Y47279D01*
X380027Y46529*
X380572Y45779*
X380572D02*
X381118Y45404D01*
X382208*
X382208D02*
X382754Y45779D01*
X383299Y46529*
X383299D02*
X383572Y47279D01*
X386027Y53279D02*
Y47654D01*
X386299Y46529*
X386299D02*
X386845Y45779D01*
X387663Y45404*
X388208*
X388208D02*
X389027Y45779D01*
X389572Y46529*
X389572D02*
X389845Y47654D01*
Y53279*
X392299D02*
Y45404D01*
Y53279D02*
X394754D01*
X395572Y52904*
X395572D02*
X395845Y52529D01*
X396118Y51779*
Y51029*
X395845Y50279*
X395572Y49904*
X395572D02*
X394754Y49529D01*
X392299*
X394208D02*
X396118Y45404D01*
X400754Y53279D02*
X398572Y45404D01*
X400754Y53279D02*
X402936Y45404D01*
X399390Y48029D02*
X402118D01*
X407299Y53279D02*
Y45404D01*
X405390Y53279D02*
X409208D01*
X411663D02*
Y45404D01*
Y53279D02*
X415208D01*
X411663Y49529D02*
X413845D01*
X411663Y45404D02*
X415208D01*
X372024Y86743D02*
Y78868D01*
Y86743D02*
X374205Y78868D01*
X376387Y86743D02*
X374205Y78868D01*
X376387Y86743D02*
Y78868D01*
X378842Y86743D02*
Y78868D01*
X381296Y86743D02*
Y78868D01*
Y86743D02*
X383205D01*
X383205D02*
X384024Y86368D01*
X384569Y85618*
X384842Y84868*
X385114Y83743*
X385114D02*
Y81868D01*
X385114D02*
X384842Y80743D01*
X384569Y79993*
X384024Y79243*
X383205Y78868*
X383205D02*
X381296D01*
X387569Y86743D02*
Y78868D01*
Y86743D02*
X389478D01*
X389478D02*
X390296Y86368D01*
X390296D02*
X390842Y85618D01*
X391114Y84868*
X391114D02*
X391387Y83743D01*
X391387D02*
Y81868D01*
X391387D02*
X391114Y80743D01*
X391114D02*
X390842Y79993D01*
X390296Y79243*
X390296D02*
X389478Y78868D01*
X389478D02*
X387569D01*
X393842Y86743D02*
Y78868D01*
X397114*
X399569Y86743D02*
Y78868D01*
Y86743D02*
X403114D01*
X399569Y82993D02*
X401751D01*
X399569Y78868D02*
X403114D01*
X370055Y118239D02*
Y110364D01*
X373327*
X375782Y118239D02*
Y110364D01*
X378236Y118239D02*
Y110364D01*
Y118239D02*
X382055Y110364D01*
Y118239D02*
Y110364D01*
X384509Y118239D02*
Y110364D01*
Y118239D02*
X388055D01*
X384509Y114489D02*
X386691D01*
X384509Y110364D02*
X388055D01*
X392691Y118239D02*
X390509Y110364D01*
X392691Y118239D02*
X394873Y110364D01*
X391327Y112989D02*
X394055D01*
X397327Y118239D02*
Y110364D01*
Y118239D02*
X399782D01*
X400600Y117864*
X400873Y117489*
X401145Y116739*
X401145D02*
Y115989D01*
X401145D02*
X400873Y115239D01*
X400600Y114864*
X399782Y114489*
X397327*
X399236D02*
X401145Y110364D01*
X411334Y161546D02*
Y153671D01*
X409425Y161546D02*
X413243D01*
X417334D02*
X416788Y161171D01*
X416788D02*
X416243Y160421D01*
X415970Y159671*
X415697Y158546*
X415697D02*
Y156671D01*
X415697D02*
X415970Y155546D01*
X416243Y154796*
X416788Y154046*
X416788D02*
X417334Y153671D01*
X418425*
X418970Y154046*
X419515Y154796*
X419515D02*
X419788Y155546D01*
X419788D02*
X420061Y156671D01*
Y158546*
X419788Y159671*
X419788D02*
X419515Y160421D01*
X419515D02*
X418970Y161171D01*
X418425Y161546*
X417334*
X422515D02*
Y153671D01*
X422515D02*
X425788D01*
X428243Y161546D02*
Y153671D01*
Y161546D02*
X431788D01*
X428243Y157796D02*
X430425D01*
X428243Y153671D02*
X431788D01*
X434243Y161546D02*
Y153671D01*
Y161546D02*
X436697D01*
X436697D02*
X437515Y161171D01*
X437515D02*
X437788Y160796D01*
X437788D02*
X438061Y160046D01*
Y159296*
X437788Y158546*
X437788D02*
X437515Y158171D01*
X437515D02*
X436697Y157796D01*
X436697D02*
X434243D01*
X436152D02*
X438061Y153671D01*
X442697Y161546D02*
X440515Y153671D01*
X442697Y161546D02*
X444879Y153671D01*
X441334Y156296D02*
X444061D01*
X447334Y161546D02*
Y153671D01*
Y161546D02*
X451152Y153671D01*
Y161546D02*
Y153671D01*
X457697Y159671D02*
X457425Y160421D01*
X456879Y161171*
X456879D02*
X456334Y161546D01*
X455243*
X454697Y161171*
X454697D02*
X454152Y160421D01*
X453879Y159671*
X453879D02*
X453606Y158546D01*
X453606D02*
Y156671D01*
X453606D02*
X453879Y155546D01*
X453879D02*
X454152Y154796D01*
X454697Y154046*
X454697D02*
X455243Y153671D01*
X456334*
X456879Y154046*
X456879D02*
X457425Y154796D01*
X457697Y155546*
X460152Y161546D02*
Y153671D01*
Y161546D02*
X463697D01*
X460152Y157796D02*
X462334D01*
X460152Y153671D02*
X463697D01*
X471061Y161546D02*
Y155921D01*
X471334Y154796*
X471879Y154046*
X471879D02*
X472697Y153671D01*
X472697D02*
X473243D01*
X474061Y154046*
X474606Y154796*
X474606D02*
X474879Y155921D01*
X474879D02*
Y161546D01*
X477334D02*
Y153671D01*
Y161546D02*
X481152Y153671D01*
Y161546D02*
Y153671D01*
X483606Y161546D02*
Y153671D01*
X483606D02*
X486879D01*
X489334Y161546D02*
Y153671D01*
Y161546D02*
X492879D01*
X489334Y157796D02*
X491515D01*
X489334Y153671D02*
X492879D01*
X499152Y160421D02*
X498606Y161171D01*
X498606D02*
X497788Y161546D01*
X497788D02*
X496697D01*
X496697D02*
X495879Y161171D01*
X495879D02*
X495334Y160421D01*
Y159671*
X495606Y158921*
X495606D02*
X495879Y158546D01*
X495879D02*
X496425Y158171D01*
X498061Y157421*
X498606Y157046*
X498606D02*
X498879Y156671D01*
X498879D02*
X499152Y155921D01*
Y154796*
X498606Y154046*
X498606D02*
X497788Y153671D01*
X497788D02*
X496697D01*
X496697D02*
X495879Y154046D01*
X495879D02*
X495334Y154796D01*
X505425Y160421D02*
X504879Y161171D01*
X504879D02*
X504061Y161546D01*
X502970*
X502152Y161171*
X501606Y160421*
X501606D02*
Y159671D01*
X501606D02*
X501879Y158921D01*
X501879D02*
X502152Y158546D01*
X502697Y158171*
X502697D02*
X504334Y157421D01*
X504879Y157046*
X504879D02*
X505152Y156671D01*
X505425Y155921*
Y154796*
X504879Y154046*
X504879D02*
X504061Y153671D01*
X502970*
X502152Y154046*
X501606Y154796*
X512788Y161546D02*
Y153671D01*
Y161546D02*
X516606Y153671D01*
Y161546D02*
Y153671D01*
X520697Y161546D02*
X520152Y161171D01*
X519606Y160421*
X519606D02*
X519334Y159671D01*
X519061Y158546*
Y156671*
X519334Y155546*
X519606Y154796*
X519606D02*
X520152Y154046D01*
X520697Y153671*
X520697D02*
X521788D01*
X521788D02*
X522334Y154046D01*
X522879Y154796*
X522879D02*
X523152Y155546D01*
X523425Y156671*
Y158546*
X523152Y159671*
X522879Y160421*
X522879D02*
X522334Y161171D01*
X521788Y161546*
X521788D02*
X520697D01*
X527788D02*
Y153671D01*
X525879Y161546D02*
X529697D01*
X532152D02*
Y153671D01*
Y161546D02*
X535697D01*
X532152Y157796D02*
X534334D01*
X532152Y153671D02*
X535697D01*
X538152Y161546D02*
Y153671D01*
Y161546D02*
X540061D01*
X540879Y161171*
X540879D02*
X541425Y160421D01*
X541697Y159671*
X541697D02*
X541970Y158546D01*
Y156671*
X541697Y155546*
X541697D02*
X541425Y154796D01*
X540879Y154046*
X540879D02*
X540061Y153671D01*
X538152*
X356276Y230444D02*
Y222569D01*
Y230444D02*
X358185D01*
X359003Y230069*
X359548Y229319*
X359548D02*
X359821Y228569D01*
X360094Y227444*
Y225569*
X359821Y224444*
X359548Y223694*
X359548D02*
X359003Y222944D01*
X358185Y222569*
X356276*
X362548Y230444D02*
Y222569D01*
Y230444D02*
X366094D01*
X362548Y226694D02*
X364730D01*
X362548Y222569D02*
X366094D01*
X372366Y229319D02*
X371821Y230069D01*
X371003Y230444*
X369912*
X369094Y230069*
X368548Y229319*
X368548D02*
Y228569D01*
X368548D02*
X368821Y227819D01*
X369094Y227444*
X369639Y227069*
X369639D02*
X371276Y226319D01*
X371821Y225944*
X372094Y225569*
X372366Y224819*
X372366D02*
Y223694D01*
X372366D02*
X371821Y222944D01*
X371003Y222569*
X369912*
X369094Y222944*
X368548Y223694*
X378912Y228569D02*
X378639Y229319D01*
X378639D02*
X378094Y230069D01*
X377548Y230444*
X377548D02*
X376457D01*
X376457D02*
X375912Y230069D01*
X375366Y229319*
X375366D02*
X375094Y228569D01*
X374821Y227444*
Y225569*
X375094Y224444*
X375366Y223694*
X375366D02*
X375912Y222944D01*
X376457Y222569*
X376457D02*
X377548D01*
X377548D02*
X378094Y222944D01*
X378639Y223694*
X378639D02*
X378912Y224444D01*
X381366Y230444D02*
Y222569D01*
Y230444D02*
X383821D01*
X384639Y230069*
X384639D02*
X384912Y229694D01*
X385185Y228944*
Y228194*
X384912Y227444*
X384639Y227069*
X384639D02*
X383821Y226694D01*
X381366*
X383276D02*
X385185Y222569D01*
X387639Y230444D02*
Y222569D01*
X390094Y230444D02*
Y222569D01*
Y230444D02*
X392548D01*
X392548D02*
X393366Y230069D01*
X393366D02*
X393639Y229694D01*
X393639D02*
X393912Y228944D01*
Y227819*
X393639Y227069*
X393639D02*
X393366Y226694D01*
X393366D02*
X392548Y226319D01*
X392548D02*
X390094D01*
X398276Y230444D02*
Y222569D01*
X396366Y230444D02*
X400185D01*
X402639D02*
Y222569D01*
X406730Y230444D02*
X406185Y230069D01*
X405639Y229319*
X405639D02*
X405366Y228569D01*
X405366D02*
X405094Y227444D01*
Y225569*
X405366Y224444*
X405366D02*
X405639Y223694D01*
X405639D02*
X406185Y222944D01*
X406730Y222569*
X406730D02*
X407821D01*
X408366Y222944*
X408366D02*
X408912Y223694D01*
X409185Y224444*
X409457Y225569*
X409457D02*
Y227444D01*
X409457D02*
X409185Y228569D01*
X408912Y229319*
X408366Y230069*
X408366D02*
X407821Y230444D01*
X406730*
X411912D02*
Y222569D01*
Y230444D02*
X415730Y222569D01*
Y230444D02*
Y222569D01*
X471315Y906504D02*
Y901254D01*
X472951Y906504D02*
Y901254D01*
Y906504D02*
X475496Y901254D01*
Y906504D02*
Y901254D01*
X477133Y906504D02*
Y901254D01*
Y906504D02*
X478405D01*
X478405D02*
X478951Y906254D01*
X479315Y905754*
X479496Y905254*
X479496D02*
X479678Y904504D01*
X479678D02*
Y903254D01*
X479678D02*
X479496Y902504D01*
X479496D02*
X479315Y902004D01*
X478951Y901504*
X478405Y901254*
X478405D02*
X477133D01*
X484951Y904254D02*
Y904504D01*
X484769Y904754*
X484769D02*
X484587D01*
X484587D02*
X484405Y904504D01*
X484405D02*
X484224Y904004D01*
X483860Y902754*
X483496Y902004*
X483496D02*
X483133Y901504D01*
X482769Y901254*
X482769D02*
X482042D01*
X481678Y901504*
X481678D02*
X481496Y901754D01*
X481496D02*
X481315Y902254D01*
Y902754*
X481496Y903254*
X481496D02*
X481678Y903504D01*
X481678D02*
X482951Y904504D01*
X483133Y904754*
X483315Y905254*
Y905754*
X483133Y906254*
X482769Y906504*
X482769D02*
X482405Y906254D01*
X482405D02*
X482224Y905754D01*
Y905254*
X482405Y904504*
X482405D02*
X482769Y903754D01*
X482769D02*
X483678Y902004D01*
X483678D02*
X484042Y901504D01*
X484405Y901254*
X484405D02*
X484769D01*
X484769D02*
X484951Y901504D01*
Y901754*
X486587Y906504D02*
Y901254D01*
Y906504D02*
X488224D01*
X488769Y906254*
X488769D02*
X488951Y906004D01*
X489133Y905504*
Y904754*
X488951Y904254*
X488769Y904004*
X488769D02*
X488224Y903754D01*
X486587*
X493315Y905754D02*
X492951Y906254D01*
X492405Y906504*
X492405D02*
X491678D01*
X491678D02*
X491133Y906254D01*
X490769Y905754*
X490769D02*
Y905254D01*
X490769D02*
X490951Y904754D01*
X491133Y904504*
X491496Y904254*
X491496D02*
X492587Y903754D01*
X492587D02*
X492951Y903504D01*
X493133Y903254*
X493315Y902754*
Y902004*
X492951Y901504*
X492405Y901254*
X492405D02*
X491678D01*
X491678D02*
X491133Y901504D01*
X490769Y902004*
X498224Y906504D02*
Y901254D01*
Y906504D02*
X499496D01*
X499496D02*
X500042Y906254D01*
X500405Y905754*
X500405D02*
X500587Y905254D01*
X500587D02*
X500769Y904504D01*
X500769D02*
Y903254D01*
X500769D02*
X500587Y902504D01*
X500587D02*
X500405Y902004D01*
X500405D02*
X500042Y901504D01*
X499496Y901254*
X499496D02*
X498224D01*
X502405Y906504D02*
Y901254D01*
X504042Y906504D02*
X505496Y901254D01*
X506951Y906504D02*
X505496Y901254D01*
X508769Y901754D02*
X508587Y901504D01*
X508587D02*
X508769Y901254D01*
X508769D02*
X508951Y901504D01*
X508769Y901754*
X545565Y885254D02*
X550815D01*
Y887435*
X550315Y889254D02*
X550565Y889072D01*
X550815Y889254*
X550565Y889435*
X550565D02*
X550315Y889254D01*
X546815Y893799D02*
X546315Y893617D01*
X546315D02*
X545815Y893254D01*
X545565Y892890*
Y892163*
X545815Y891799*
X546315Y891435*
X546315D02*
X546815Y891254D01*
X547565Y891072*
X548815*
X549565Y891254*
X550065Y891435*
X550065D02*
X550565Y891799D01*
X550815Y892163*
Y892890*
X550565Y893254*
X550065Y893617*
X550065D02*
X549565Y893799D01*
X550315Y895617D02*
X550565Y895435D01*
X550565D02*
X550815Y895617D01*
X550815D02*
X550565Y895799D01*
X550315Y895617*
X541565Y820754D02*
X546815D01*
Y822935*
X542315Y826754D02*
X541815Y826572D01*
X541565Y826026*
X541565D02*
Y825663D01*
X541815Y825117*
X541815D02*
X542565Y824754D01*
X543815Y824572*
X545065*
X546065Y824754*
X546565Y825117*
X546565D02*
X546815Y825663D01*
Y825844*
X546815D02*
X546565Y826390D01*
X546065Y826754*
X545315Y826935*
X545315D02*
X545065D01*
X545065D02*
X544315Y826754D01*
X543815Y826390*
X543565Y825844*
X543565D02*
Y825663D01*
X543815Y825117*
X543815D02*
X544315Y824754D01*
X545065Y824572*
X542815Y828754D02*
X542565D01*
X542065Y828935*
X542065D02*
X541815Y829117D01*
X541815D02*
X541565Y829481D01*
Y830208*
X541565D02*
X541815Y830572D01*
X542065Y830754*
X542565Y830935*
X542565D02*
X543065D01*
X543065D02*
X543565Y830754D01*
X544315Y830390*
X546815Y828572*
Y831117*
X541565Y833844D02*
X541815Y833299D01*
X542565Y832935*
X542565D02*
X543815Y832754D01*
X544565*
X545815Y832935*
X545815D02*
X546565Y833299D01*
X546815Y833844*
X546815D02*
Y834208D01*
X546815D02*
X546565Y834754D01*
X545815Y835117*
X545815D02*
X544565Y835299D01*
X543815*
X542565Y835117*
X542565D02*
X541815Y834754D01*
X541565Y834208*
X541565D02*
Y833844D01*
X542315Y839117D02*
X541815Y838935D01*
X541815D02*
X541565Y838390D01*
Y838026*
X541565D02*
X541815Y837481D01*
X542565Y837117*
X542565D02*
X543815Y836935D01*
X543815D02*
X545065D01*
X545065D02*
X546065Y837117D01*
X546065D02*
X546565Y837481D01*
X546815Y838026*
X546815D02*
Y838208D01*
X546815D02*
X546565Y838754D01*
X546065Y839117*
X546065D02*
X545315Y839299D01*
X545065*
X544315Y839117*
X544315D02*
X543815Y838754D01*
X543565Y838208*
X543565D02*
Y838026D01*
X543565D02*
X543815Y837481D01*
X544315Y837117*
X544315D02*
X545065Y836935D01*
X542315Y846754D02*
X541815Y846390D01*
X541565Y845844*
X541565D02*
Y845117D01*
X541565D02*
X541815Y844572D01*
X542315Y844208*
X542315D02*
X542815D01*
X542815D02*
X543315Y844390D01*
X543565Y844572*
X543815Y844935*
X543815D02*
X544315Y846026D01*
X544315D02*
X544565Y846390D01*
X544815Y846572*
X545315Y846754*
X546065*
X546565Y846390*
X546815Y845844*
X546815D02*
Y845117D01*
X546815D02*
X546565Y844572D01*
X546065Y844208*
X541565Y848390D02*
X546815D01*
X541565D02*
X546815Y849844D01*
X541565Y851299D02*
X546815Y849844D01*
X541565Y851299D02*
X546815D01*
X541565Y852935D02*
X546815D01*
X541565D02*
Y854208D01*
X541565D02*
X541815Y854754D01*
X542315Y855117*
X542315D02*
X542815Y855299D01*
X543565Y855481*
X544815*
X545565Y855299*
X546065Y855117*
X546065D02*
X546565Y854754D01*
X546815Y854208*
X546815D02*
Y852935D01*
G54D16*
X284340Y82087D02*
X283317Y81619D01*
X283317D02*
X282635Y80212D01*
X282635D02*
X282295Y77869D01*
Y76462*
X282295D02*
X282635Y74119D01*
X282635D02*
X283317Y72712D01*
X283317D02*
X284340Y72244D01*
X285022*
X286045Y72712*
X286045D02*
X286726Y74119D01*
X286726D02*
X287067Y76462D01*
X287067D02*
Y77869D01*
X287067D02*
X286726Y80212D01*
X286726D02*
X286045Y81619D01*
X285022Y82087*
X285022D02*
X284340D01*
X293545D02*
X290135Y75525D01*
X290135D02*
X295249D01*
X293545Y82087D02*
Y72244D01*
X298658Y73181D02*
X298317Y72712D01*
X298317D02*
X298658Y72244D01*
X298658D02*
X298999Y72712D01*
X298999D02*
X298658Y73181D01*
X302067Y80212D02*
X302749Y80681D01*
X302749D02*
X303772Y82087D01*
X303772D02*
Y72244D01*
X308885Y82087D02*
X307863Y81619D01*
X307181Y80212*
X307181D02*
X306840Y77869D01*
Y76462*
X306840D02*
X307181Y74119D01*
X307863Y72712*
X307863D02*
X308885Y72244D01*
X308885D02*
X309567D01*
X309567D02*
X310590Y72712D01*
X310590D02*
X311272Y74119D01*
X311613Y76462*
X311613D02*
Y77869D01*
X311272Y80212*
X311272D02*
X310590Y81619D01*
X309567Y82087*
X309567D02*
X308885D01*
X315022Y73181D02*
X314681Y72712D01*
X314681D02*
X315022Y72244D01*
X315363Y72712*
X315363D02*
X315022Y73181D01*
X320476Y82087D02*
X319454Y81619D01*
X318772Y80212*
X318772D02*
X318431Y77869D01*
Y76462*
X318431D02*
X318772Y74119D01*
X319454Y72712*
X319454D02*
X320476Y72244D01*
X320476D02*
X321158D01*
X321158D02*
X322181Y72712D01*
X322181D02*
X322863Y74119D01*
X323204Y76462*
X323204D02*
Y77869D01*
X322863Y80212*
X322863D02*
X322181Y81619D01*
X321158Y82087*
X321158D02*
X320476D01*
X328317D02*
X327295Y81619D01*
X326613Y80212*
X326613D02*
X326272Y77869D01*
Y76462*
X326272D02*
X326613Y74119D01*
X327295Y72712*
X327295D02*
X328317Y72244D01*
X328317D02*
X328999D01*
X328999D02*
X330022Y72712D01*
X330022D02*
X330704Y74119D01*
X331045Y76462*
X331045D02*
Y77869D01*
X330704Y80212*
X330704D02*
X330022Y81619D01*
X328999Y82087*
X328999D02*
X328317D01*
X467181Y189587D02*
Y179744D01*
X464795Y189587D02*
X469567D01*
X474681D02*
X473999Y189119D01*
X473999D02*
X473317Y188181D01*
X473317D02*
X472976Y187244D01*
X472976D02*
X472635Y185837D01*
X472635D02*
Y183494D01*
X472635D02*
X472976Y182087D01*
X472976D02*
X473317Y181150D01*
X473317D02*
X473999Y180212D01*
X473999D02*
X474681Y179744D01*
X476045*
X476726Y180212*
X476726D02*
X477408Y181150D01*
X477408D02*
X477749Y182087D01*
X477749D02*
X478090Y183494D01*
Y185837*
X478090D02*
X477749Y187244D01*
X477749D02*
X477408Y188181D01*
X477408D02*
X476726Y189119D01*
X476726D02*
X476045Y189587D01*
X476045D02*
X474681D01*
X481158D02*
Y179744D01*
Y189587D02*
X484226D01*
X484226D02*
X485249Y189119D01*
X485249D02*
X485590Y188650D01*
X485931Y187712*
X485931D02*
Y186306D01*
X485931D02*
X485590Y185369D01*
X485249Y184900*
X485249D02*
X484226Y184431D01*
X484226D02*
X481158D01*
X499908Y188181D02*
X499226Y189119D01*
X499226D02*
X498204Y189587D01*
X498204D02*
X496840D01*
X496840D02*
X495817Y189119D01*
X495817D02*
X495135Y188181D01*
X495135D02*
Y187244D01*
X495135D02*
X495476Y186306D01*
X495476D02*
X495817Y185837D01*
X495817D02*
X496499Y185369D01*
X496499D02*
X498545Y184431D01*
X498545D02*
X499226Y183962D01*
X499226D02*
X499567Y183494D01*
X499567D02*
X499908Y182556D01*
X499908D02*
Y181150D01*
X499908D02*
X499226Y180212D01*
X499226D02*
X498204Y179744D01*
X496840*
X495817Y180212*
X495817D02*
X495135Y181150D01*
X502976Y189587D02*
Y179744D01*
X506045Y189587D02*
Y179744D01*
Y189587D02*
X508431D01*
X508431D02*
X509454Y189119D01*
X510135Y188181*
X510135D02*
X510476Y187244D01*
X510476D02*
X510817Y185837D01*
X510817D02*
Y183494D01*
X510817D02*
X510476Y182087D01*
X510476D02*
X510135Y181150D01*
X510135D02*
X509454Y180212D01*
X509454D02*
X508431Y179744D01*
X506045*
X513885Y189587D02*
Y179744D01*
Y189587D02*
X518317D01*
X513885Y184900D02*
X516613D01*
X513885Y179744D02*
X518317D01*
X720226Y187487D02*
X716817D01*
X716817D02*
X716476Y183269D01*
X716476D02*
X716817Y183737D01*
X716817D02*
X717840Y184206D01*
X717840D02*
X718863D01*
X718863D02*
X719885Y183737D01*
X719885D02*
X720567Y182800D01*
X720567D02*
X720908Y181394D01*
X720908D02*
X720567Y180456D01*
X720567D02*
X720226Y179050D01*
X720226D02*
X719545Y178112D01*
X719545D02*
X718522Y177644D01*
X717499*
X717499D02*
X716476Y178112D01*
X716476D02*
X716135Y178581D01*
X716135D02*
X715795Y179519D01*
X724317Y178581D02*
X723976Y178112D01*
X723976D02*
X724317Y177644D01*
X724317D02*
X724658Y178112D01*
X724658D02*
X724317Y178581D01*
X727726Y185612D02*
X728408Y186081D01*
X728408D02*
X729431Y187487D01*
X729431D02*
Y177644D01*
X732840Y178581D02*
X732499Y178112D01*
X732499D02*
X732840Y177644D01*
X733181Y178112*
X733181D02*
X732840Y178581D01*
X738295Y187487D02*
X737272Y187019D01*
X736590Y185612*
X736590D02*
X736249Y183269D01*
X736249D02*
Y181862D01*
X736249D02*
X736590Y179519D01*
X737272Y178112*
X737272D02*
X738295Y177644D01*
X738976*
X738976D02*
X739999Y178112D01*
X739999D02*
X740681Y179519D01*
X741022Y181862*
X741022D02*
Y183269D01*
X740681Y185612*
X740681D02*
X739999Y187019D01*
X739999D02*
X738976Y187487D01*
X738976D02*
X738295D01*
X744090Y185612D02*
X744772Y186081D01*
X744772D02*
X745795Y187487D01*
X745795D02*
Y177644D01*
X751590Y187487D02*
X748863Y177644D01*
X751590Y187487D02*
X754317Y177644D01*
X749885Y180925D02*
X753295D01*
X407295Y213987D02*
Y204144D01*
X411385*
X418545Y212581D02*
X418204Y213519D01*
X417181Y213987*
X417181D02*
X416499D01*
X416499D02*
X415476Y213519D01*
X415476D02*
X414795Y212112D01*
X414795D02*
X414454Y209769D01*
Y207425*
X414795Y205550*
X415476Y204612*
X415476D02*
X416499Y204144D01*
X416499D02*
X416840D01*
X417863Y204612*
X417863D02*
X418545Y205550D01*
X418885Y206956*
X418885D02*
Y207425D01*
X418885D02*
X418545Y208831D01*
X418545D02*
X417863Y209769D01*
X416840Y210237*
X416840D02*
X416499D01*
X416499D02*
X415476Y209769D01*
X415476D02*
X414795Y208831D01*
X414795D02*
X414454Y207425D01*
X422295Y211644D02*
Y212112D01*
X422295D02*
X422635Y213050D01*
X422635D02*
X422976Y213519D01*
X422976D02*
X423658Y213987D01*
X423658D02*
X425022D01*
X425022D02*
X425704Y213519D01*
X426045Y213050*
X426385Y212112*
X426385D02*
Y211175D01*
X426385D02*
X426045Y210237D01*
X426045D02*
X425363Y208831D01*
X425363D02*
X421954Y204144D01*
X426726*
X431840Y213987D02*
X430817Y213519D01*
X430817D02*
X430135Y212112D01*
X430135D02*
X429795Y209769D01*
Y208362*
X429795D02*
X430135Y206019D01*
X430135D02*
X430817Y204612D01*
X430817D02*
X431840Y204144D01*
X432522*
X433545Y204612*
X433545D02*
X434226Y206019D01*
X434226D02*
X434567Y208362D01*
X434567D02*
Y209769D01*
X434567D02*
X434226Y212112D01*
X434226D02*
X433545Y213519D01*
X432522Y213987*
X432522D02*
X431840D01*
X441726Y212581D02*
X441385Y213519D01*
X441385D02*
X440363Y213987D01*
X440363D02*
X439681D01*
X439681D02*
X438658Y213519D01*
X438658D02*
X437976Y212112D01*
X437976D02*
X437635Y209769D01*
X437635D02*
Y207425D01*
X437635D02*
X437976Y205550D01*
X437976D02*
X438658Y204612D01*
X438658D02*
X439681Y204144D01*
X440022*
X441045Y204612*
X441045D02*
X441726Y205550D01*
X441726D02*
X442067Y206956D01*
X442067D02*
Y207425D01*
X442067D02*
X441726Y208831D01*
X441726D02*
X441045Y209769D01*
X440022Y210237*
X440022D02*
X439681D01*
X439681D02*
X438658Y209769D01*
X438658D02*
X437976Y208831D01*
X437976D02*
X437635Y207425D01*
X457408Y213987D02*
Y204144D01*
Y213987D02*
X461840D01*
X457408Y209300D02*
X460135D01*
X457408Y204144D02*
X461840D01*
X464908Y213987D02*
X467635Y204144D01*
X470363Y213987D02*
X467635Y204144D01*
X476158Y213987D02*
X473431Y204144D01*
X476158Y213987D02*
X478885Y204144D01*
X474454Y207425D02*
X477863D01*
X481954Y213987D02*
Y204144D01*
X486045*
X489113Y213987D02*
Y206956D01*
X489113D02*
X489454Y205550D01*
X490135Y204612*
X490135D02*
X491158Y204144D01*
X491158D02*
X491840D01*
X492863Y204612*
X492863D02*
X493545Y205550D01*
X493885Y206956*
X493885D02*
Y213987D01*
X499681D02*
X496954Y204144D01*
X499681Y213987D02*
X502408Y204144D01*
X497976Y207425D02*
X501385D01*
X507863Y213987D02*
Y204144D01*
X505476Y213987D02*
X510249D01*
X513317D02*
Y204144D01*
X518431Y213987D02*
X517749Y213519D01*
X517749D02*
X517067Y212581D01*
X517067D02*
X516726Y211644D01*
X516726D02*
X516385Y210237D01*
X516385D02*
Y207894D01*
X516385D02*
X516726Y206487D01*
X516726D02*
X517067Y205550D01*
X517067D02*
X517749Y204612D01*
X517749D02*
X518431Y204144D01*
X519795*
X520476Y204612*
X520476D02*
X521158Y205550D01*
X521158D02*
X521499Y206487D01*
X521499D02*
X521840Y207894D01*
Y210237*
X521840D02*
X521499Y211644D01*
X521499D02*
X521158Y212581D01*
X521158D02*
X520476Y213519D01*
X520476D02*
X519795Y213987D01*
X519795D02*
X518431D01*
X524908D02*
Y204144D01*
Y213987D02*
X529681Y204144D01*
Y213987D02*
Y204144D01*
X538885Y213987D02*
Y204144D01*
Y213987D02*
X541954D01*
X541954D02*
X542976Y213519D01*
X542976D02*
X543317Y213050D01*
X543317D02*
X543658Y212112D01*
X543658D02*
Y211175D01*
X543658D02*
X543317Y210237D01*
X543317D02*
X542976Y209769D01*
X542976D02*
X541954Y209300D01*
X538885D02*
X541954D01*
X542976Y208831*
X542976D02*
X543317Y208362D01*
X543317D02*
X543658Y207425D01*
X543658D02*
Y206019D01*
X543658D02*
X543317Y205081D01*
X543317D02*
X542976Y204612D01*
X542976D02*
X541954Y204144D01*
X538885*
X548772Y213987D02*
X548090Y213519D01*
X547408Y212581*
X547408D02*
X547067Y211644D01*
X547067D02*
X546726Y210237D01*
X546726D02*
Y207894D01*
X546726D02*
X547067Y206487D01*
X547067D02*
X547408Y205550D01*
X547408D02*
X548090Y204612D01*
X548090D02*
X548772Y204144D01*
X550135*
X550135D02*
X550817Y204612D01*
X550817D02*
X551499Y205550D01*
X551499D02*
X551840Y206487D01*
X551840D02*
X552181Y207894D01*
Y210237*
X552181D02*
X551840Y211644D01*
X551499Y212581*
X551499D02*
X550817Y213519D01*
X550817D02*
X550135Y213987D01*
X550135D02*
X548772D01*
X557976D02*
X555249Y204144D01*
X557976Y213987D02*
X560704Y204144D01*
X556272Y207425D02*
X559681D01*
X563772Y213987D02*
Y204144D01*
Y213987D02*
X566840D01*
X566840D02*
X567863Y213519D01*
X568204Y213050*
X568545Y212112*
X568545D02*
Y211175D01*
X568204Y210237*
X568204D02*
X567863Y209769D01*
X566840Y209300*
X563772*
X566158D02*
X568545Y204144D01*
X571613Y213987D02*
Y204144D01*
Y213987D02*
X573999D01*
X573999D02*
X575022Y213519D01*
X575704Y212581*
X575704D02*
X576045Y211644D01*
X576385Y210237*
X576385D02*
Y207894D01*
X576385D02*
X576045Y206487D01*
X576045D02*
X575704Y205550D01*
X575022Y204612*
X575022D02*
X573999Y204144D01*
X573999D02*
X571613D01*
X579454Y208362D02*
X585590D01*
X593431Y212581D02*
X592749Y213519D01*
X592749D02*
X591726Y213987D01*
X591726D02*
X590363D01*
X590363D02*
X589340Y213519D01*
X588658Y212581*
X588658D02*
Y211644D01*
X588658D02*
X588999Y210706D01*
X588999D02*
X589340Y210237D01*
X589340D02*
X590022Y209769D01*
X592067Y208831*
X592067D02*
X592749Y208362D01*
X592749D02*
X593090Y207894D01*
X593431Y206956*
X593431D02*
Y205550D01*
X592749Y204612*
X592749D02*
X591726Y204144D01*
X591726D02*
X590363D01*
X589340Y204612*
X589340D02*
X588658Y205550D01*
X596499Y213987D02*
Y204144D01*
Y213987D02*
X599226Y204144D01*
X601954Y213987D02*
X599226Y204144D01*
X601954Y213987D02*
Y204144D01*
X605022Y213987D02*
Y204144D01*
Y213987D02*
X607408D01*
X607408D02*
X608431Y213519D01*
X609113Y212581*
X609113D02*
X609454Y211644D01*
X609795Y210237*
X609795D02*
Y207894D01*
X609454Y206487*
X609454D02*
X609113Y205550D01*
X608431Y204612*
X608431D02*
X607408Y204144D01*
X607408D02*
X605022D01*
X141795Y82144D02*
Y71644D01*
X145067Y82144D02*
Y71644D01*
Y82144D02*
X149795D01*
X145067Y77144D02*
X147976D01*
X155976Y82144D02*
X153067Y71644D01*
X155976Y82144D02*
X158885Y71644D01*
X154158Y75144D02*
X157795D01*
X162158Y82144D02*
Y71644D01*
Y82144D02*
X165431D01*
X166522Y81644*
X166885Y81144*
X166885D02*
X167249Y80144D01*
X167249D02*
Y79144D01*
X167249D02*
X166885Y78144D01*
X166885D02*
X166522Y77644D01*
X165431Y77144*
X162158*
X164704D02*
X167249Y71644D01*
X175976Y79644D02*
X175613Y80644D01*
X174885Y81644*
X174885D02*
X174158Y82144D01*
X174158D02*
X172704D01*
X171976Y81644*
X171976D02*
X171249Y80644D01*
X171249D02*
X170885Y79644D01*
X170885D02*
X170522Y78144D01*
Y75644*
X170885Y74144*
X170885D02*
X171249Y73144D01*
X171249D02*
X171976Y72144D01*
X171976D02*
X172704Y71644D01*
X174158*
X174158D02*
X174885Y72144D01*
X174885D02*
X175613Y73144D01*
X175976Y74144*
X182158Y82144D02*
X179249Y71644D01*
X182158Y82144D02*
X185067Y71644D01*
X180340Y75144D02*
X183976D01*
X188340Y82144D02*
Y71644D01*
Y82144D02*
X190885D01*
X190885D02*
X191976Y81644D01*
X191976D02*
X192704Y80644D01*
X193067Y79644*
X193067D02*
X193431Y78144D01*
Y75644*
X193067Y74144*
X193067D02*
X192704Y73144D01*
X191976Y72144*
X191976D02*
X190885Y71644D01*
X190885D02*
X188340D01*
X208340Y80644D02*
X207613Y81644D01*
X206522Y82144*
X205067*
X205067D02*
X203976Y81644D01*
X203976D02*
X203249Y80644D01*
X203249D02*
Y79644D01*
X203249D02*
X203613Y78644D01*
X203976Y78144*
X203976D02*
X204704Y77644D01*
X206885Y76644*
X206885D02*
X207613Y76144D01*
X207976Y75644*
X207976D02*
X208340Y74644D01*
Y73144*
X207613Y72144*
X206522Y71644*
X205067*
X205067D02*
X203976Y72144D01*
X203976D02*
X203249Y73144D01*
X214522Y82144D02*
X211613Y71644D01*
X214522Y82144D02*
X217431Y71644D01*
X212704Y75144D02*
X216340D01*
X225795Y80644D02*
X225067Y81644D01*
X225067D02*
X223976Y82144D01*
X223976D02*
X222522D01*
X221431Y81644*
X220704Y80644*
Y79644*
X221067Y78644*
X221067D02*
X221431Y78144D01*
X222158Y77644*
X222158D02*
X224340Y76644D01*
X225067Y76144*
X225067D02*
X225431Y75644D01*
X225795Y74644*
Y73144*
X225067Y72144*
X225067D02*
X223976Y71644D01*
X223976D02*
X222522D01*
X221431Y72144*
X220704Y73144*
X129295Y251487D02*
Y241644D01*
Y251487D02*
X132363D01*
X132363D02*
X133385Y251019D01*
X133385D02*
X133726Y250550D01*
X133726D02*
X134067Y249612D01*
X134067D02*
Y248675D01*
X134067D02*
X133726Y247737D01*
X133726D02*
X133385Y247269D01*
X133385D02*
X132363Y246800D01*
X129295*
X131681D02*
X134067Y241644D01*
X137135Y251487D02*
Y241644D01*
Y251487D02*
X141567D01*
X137135Y246800D02*
X139863D01*
X137135Y241644D02*
X141567D01*
X144635Y251487D02*
X147363Y241644D01*
X150090Y251487D02*
X147363Y241644D01*
X153158Y251487D02*
Y241644D01*
X160999Y250081D02*
X160317Y251019D01*
X160317D02*
X159295Y251487D01*
X159295D02*
X157931D01*
X157931D02*
X156908Y251019D01*
X156908D02*
X156226Y250081D01*
X156226D02*
Y249144D01*
X156226D02*
X156567Y248206D01*
X156567D02*
X156908Y247737D01*
X156908D02*
X157590Y247269D01*
X159635Y246331*
X159635D02*
X160317Y245862D01*
X160317D02*
X160658Y245394D01*
X160658D02*
X160999Y244456D01*
X160999D02*
Y243050D01*
X160999D02*
X160317Y242112D01*
X160317D02*
X159295Y241644D01*
X157931*
X156908Y242112*
X156908D02*
X156226Y243050D01*
X164067Y251487D02*
Y241644D01*
X169181Y251487D02*
X168499Y251019D01*
X168499D02*
X167817Y250081D01*
X167817D02*
X167476Y249144D01*
X167476D02*
X167135Y247737D01*
X167135D02*
Y245394D01*
X167135D02*
X167476Y243987D01*
X167476D02*
X167817Y243050D01*
X167817D02*
X168499Y242112D01*
X168499D02*
X169181Y241644D01*
X170545*
X171226Y242112*
X171226D02*
X171908Y243050D01*
X171908D02*
X172249Y243987D01*
X172249D02*
X172590Y245394D01*
Y247737*
X172590D02*
X172249Y249144D01*
X172249D02*
X171908Y250081D01*
X171908D02*
X171226Y251019D01*
X171226D02*
X170545Y251487D01*
X170545D02*
X169181D01*
X175658D02*
Y241644D01*
Y251487D02*
X180431Y241644D01*
Y251487D02*
Y241644D01*
X189635Y251487D02*
Y241644D01*
Y251487D02*
X192022D01*
X192022D02*
X193045Y251019D01*
X193726Y250081*
X193726D02*
X194067Y249144D01*
X194067D02*
X194408Y247737D01*
X194408D02*
Y245394D01*
X194408D02*
X194067Y243987D01*
X194067D02*
X193726Y243050D01*
X193726D02*
X193045Y242112D01*
X193045D02*
X192022Y241644D01*
X189635*
X200204Y251487D02*
X197476Y241644D01*
X200204Y251487D02*
X202931Y241644D01*
X198499Y244925D02*
X201908D01*
X208385Y251487D02*
Y241644D01*
X205999Y251487D02*
X210772D01*
X213840D02*
Y241644D01*
Y251487D02*
X218272D01*
X213840Y246800D02*
X216567D01*
X213840Y241644D02*
X218272D01*
X120890Y110927D02*
X120208Y111865D01*
X120208D02*
X119186Y112333D01*
X119186D02*
X117822D01*
X117822D02*
X116799Y111865D01*
X116799D02*
X116118Y110927D01*
X116118D02*
Y109990D01*
X116458Y109052*
X116458D02*
X116799Y108583D01*
X116799D02*
X117481Y108115D01*
X117481D02*
X119527Y107177D01*
X119527D02*
X120208Y106708D01*
X120208D02*
X120549Y106240D01*
X120549D02*
X120890Y105302D01*
X120890D02*
Y103896D01*
X120890D02*
X120208Y102958D01*
X120208D02*
X119186Y102490D01*
X117822*
X117822D02*
X116799Y102958D01*
X116799D02*
X116118Y103896D01*
X126345Y112333D02*
Y102490D01*
X123958Y112333D02*
X128731D01*
X131799D02*
Y102490D01*
Y112333D02*
X134527Y102490D01*
X137254Y112333D02*
X134527Y102490D01*
X137254Y112333D02*
Y102490D01*
X140322Y112333D02*
X140663Y111865D01*
X141004Y112333*
X141004D02*
X140663Y112802D01*
X140663D02*
X140322Y112333D01*
X140663Y109052D02*
Y102490D01*
X148163Y107646D02*
X147481Y108583D01*
X147481D02*
X146799Y109052D01*
X146799D02*
X145777D01*
X145777D02*
X145095Y108583D01*
X145095D02*
X144413Y107646D01*
X144072Y106240*
X144072D02*
Y105302D01*
X144072D02*
X144413Y103896D01*
X145095Y102958*
X145095D02*
X145777Y102490D01*
X146799*
X146799D02*
X147481Y102958D01*
X147481D02*
X148163Y103896D01*
X151231Y109052D02*
Y102490D01*
Y106240D02*
X151572Y107646D01*
X151572D02*
X152254Y108583D01*
X152254D02*
X152936Y109052D01*
X152936D02*
X153958D01*
X158731D02*
X158049Y108583D01*
X158049D02*
X157368Y107646D01*
X157027Y106240*
Y105302*
X157027D02*
X157368Y103896D01*
X158049Y102958*
X158049D02*
X158731Y102490D01*
X158731D02*
X159754D01*
X160436Y102958*
X160436D02*
X161118Y103896D01*
X161458Y105302*
X161458D02*
Y106240D01*
X161458D02*
X161118Y107646D01*
X160436Y108583*
X160436D02*
X159754Y109052D01*
X159754D02*
X158731D01*
X164527Y106240D02*
X168618D01*
Y107177*
X168618D02*
X168277Y108115D01*
X167936Y108583*
X167936D02*
X167254Y109052D01*
X167254D02*
X166231D01*
X166231D02*
X165549Y108583D01*
X165549D02*
X164868Y107646D01*
X164527Y106240*
Y105302*
X164527D02*
X164868Y103896D01*
X165549Y102958*
X165549D02*
X166231Y102490D01*
X166231D02*
X167254D01*
X167936Y102958*
X167936D02*
X168618Y103896D01*
X171686Y112333D02*
Y102490D01*
X174754Y106240D02*
X178845D01*
Y107177*
X178845D02*
X178504Y108115D01*
X178163Y108583*
X178163D02*
X177481Y109052D01*
X177481D02*
X176458D01*
X176458D02*
X175777Y108583D01*
X175777D02*
X175095Y107646D01*
X174754Y106240*
Y105302*
X174754D02*
X175095Y103896D01*
X175777Y102958*
X175777D02*
X176458Y102490D01*
X176458D02*
X177481D01*
X177481D02*
X178163Y102958D01*
X178163D02*
X178845Y103896D01*
X186004Y107646D02*
X185322Y108583D01*
X185322D02*
X184640Y109052D01*
X184640D02*
X183618D01*
X183618D02*
X182936Y108583D01*
X182936D02*
X182254Y107646D01*
X181913Y106240*
Y105302*
X181913D02*
X182254Y103896D01*
X182936Y102958*
X182936D02*
X183618Y102490D01*
X184640*
X184640D02*
X185322Y102958D01*
X185322D02*
X186004Y103896D01*
X190095Y112333D02*
Y104365D01*
X190436Y102958*
X190436D02*
X191118Y102490D01*
X191799*
X189072Y109052D02*
X191458D01*
X194868D02*
Y102490D01*
Y106240D02*
X195208Y107646D01*
X195208D02*
X195890Y108583D01*
X195890D02*
X196572Y109052D01*
X196572D02*
X197595D01*
X202368D02*
X201686Y108583D01*
X201686D02*
X201004Y107646D01*
X200663Y106240*
Y105302*
X200663D02*
X201004Y103896D01*
X201686Y102958*
X201686D02*
X202368Y102490D01*
X203390*
X203390D02*
X204072Y102958D01*
X204072D02*
X204754Y103896D01*
X205095Y105302*
X205095D02*
Y106240D01*
X204754Y107646*
X204072Y108583*
X204072D02*
X203390Y109052D01*
X203390D02*
X202368D01*
X208163D02*
Y102490D01*
Y107177D02*
X209186Y108583D01*
X209186D02*
X209868Y109052D01*
X209868D02*
X210890D01*
X210890D02*
X211572Y108583D01*
X211572D02*
X211913Y107177D01*
X211913D02*
Y102490D01*
X214981Y112333D02*
X215322Y111865D01*
X215322D02*
X215663Y112333D01*
X215663D02*
X215322Y112802D01*
X215322D02*
X214981Y112333D01*
X215322Y109052D02*
Y102490D01*
X222822Y107646D02*
X222140Y108583D01*
X222140D02*
X221458Y109052D01*
X221458D02*
X220436D01*
X220436D02*
X219754Y108583D01*
X219754D02*
X219072Y107646D01*
X219072D02*
X218731Y106240D01*
X218731D02*
Y105302D01*
X218731D02*
X219072Y103896D01*
X219072D02*
X219754Y102958D01*
X219754D02*
X220436Y102490D01*
X221458*
X221458D02*
X222140Y102958D01*
X222140D02*
X222822Y103896D01*
X229640Y107646D02*
X229299Y108583D01*
X229299D02*
X228277Y109052D01*
X228277D02*
X227254D01*
X227254D02*
X226231Y108583D01*
X226231D02*
X225890Y107646D01*
X225890D02*
X226231Y106708D01*
X226231D02*
X226913Y106240D01*
X228618Y105771*
X229299Y105302*
X229299D02*
X229640Y104365D01*
X229640D02*
Y103896D01*
X229640D02*
X229299Y102958D01*
X229299D02*
X228277Y102490D01*
X227254*
X226231Y102958*
X226231D02*
X225890Y103896D01*
G54D17*
X253295Y196737D02*
Y192144D01*
Y196737D02*
X254726D01*
X254726D02*
X255204Y196519D01*
X255363Y196300*
X255522Y195862*
X255522D02*
Y195425D01*
X255363Y194987*
X255363D02*
X255204Y194769D01*
X254726Y194550*
X254726D02*
X253295D01*
X254408D02*
X255522Y192144D01*
G54D18*
X581230Y91336D02*
X581048Y91211D01*
X581048D02*
X580866Y90961D01*
X580866D02*
X580775Y90711D01*
X580775D02*
X580685Y90336D01*
Y89711*
X580775Y89336*
X580775D02*
X580866Y89086D01*
X580866D02*
X581048Y88836D01*
X581048D02*
X581230Y88711D01*
X581594*
X581775Y88836*
X581775D02*
X581957Y89086D01*
X581957D02*
X582048Y89336D01*
X582048D02*
X582139Y89711D01*
X582139D02*
Y90336D01*
X582139D02*
X582048Y90711D01*
X582048D02*
X581957Y90961D01*
X581957D02*
X581775Y91211D01*
X581775D02*
X581594Y91336D01*
X581230*
G54D19*
X405315Y851254D03*
Y716254D03*
X292815Y886254D03*
X381315Y803754D03*
X380315Y896254D03*
Y876254D03*
X381315Y791254D03*
X457815Y893754D03*
X535315Y788754D03*
G54D20*
X405315Y861254D03*
Y726254D03*
X302815Y886254D03*
X292815Y876254D03*
X302815D03*
X292815Y866254D03*
X302815D03*
X292815Y856254D03*
X302815D03*
X292815Y846254D03*
X302815D03*
X292815Y836254D03*
X302815D03*
X292815Y826254D03*
X302815D03*
X292815Y816254D03*
X302815D03*
X292815Y806254D03*
X302815D03*
X292815Y796254D03*
X302815D03*
X292815Y786254D03*
X302815D03*
X292815Y776254D03*
X302815D03*
X292815Y766254D03*
X302815D03*
X292815Y756254D03*
X302815D03*
X292815Y746254D03*
X302815D03*
X292815Y736254D03*
X302815D03*
X292815Y726254D03*
X302815D03*
X525315Y903754D03*
Y863754D03*
X391315Y803754D03*
X405315Y836254D03*
Y816254D03*
Y736254D03*
Y756254D03*
X375815Y816254D03*
X395815D03*
X375815Y778754D03*
X395815D03*
X350315Y711754D03*
Y731754D03*
X380315Y886254D03*
X391315Y791254D03*
X395315Y851175D03*
X385315Y841332D03*
X375315Y851175D03*
X395315Y753675D03*
X385315Y743832D03*
X375315Y753675D03*
X340315Y728675D03*
X330315Y718832D03*
X320315Y728675D03*
X340315Y873675D03*
X330315Y863832D03*
X320315Y873675D03*
X367815D03*
X357815Y863832D03*
X347815Y873675D03*
X367315Y740254D03*
X327315D03*
X457815Y883754D03*
X452815Y831254D03*
Y841254D03*
X515315Y788754D03*
X540315Y898754D03*
Y878754D03*
X510315Y711254D03*
X485315D03*
X460315Y866254D03*
X367815Y888754D03*
X322815Y883754D03*
X427815Y746254D03*
X457815D03*
X487815Y778754D03*
Y798754D03*
X420315Y746254D03*
G54D23*
X530315Y748596D03*
Y728911D03*
X402972Y888754D03*
X422657D03*
X530315Y848596D03*
Y828911D03*
X480472Y888754D03*
X500157D03*
G54D27*
X716795Y227831D02*
Y208144D01*
X724976*
X739295Y225019D02*
X738613Y226894D01*
X736567Y227831*
X736567D02*
X735204D01*
X735204D02*
X733158Y226894D01*
X733158D02*
X731795Y224081D01*
X731795D02*
X731113Y219394D01*
Y214706*
X731113D02*
X731795Y210956D01*
X731795D02*
X733158Y209081D01*
X733158D02*
X735204Y208144D01*
X735885*
X735885D02*
X737931Y209081D01*
X737931D02*
X739295Y210956D01*
X739295D02*
X739976Y213769D01*
X739976D02*
Y214706D01*
X739976D02*
X739295Y217519D01*
X737931Y219394*
X735885Y220331*
X735885D02*
X735204D01*
X735204D02*
X733158Y219394D01*
X733158D02*
X731795Y217519D01*
X731113Y214706*
X746795Y223144D02*
Y224081D01*
X746795D02*
X747476Y225956D01*
X747476D02*
X748158Y226894D01*
X748158D02*
X749522Y227831D01*
X749522D02*
X752249D01*
X752249D02*
X753613Y226894D01*
X754295Y225956*
X754295D02*
X754976Y224081D01*
X754976D02*
Y222206D01*
X754976D02*
X754295Y220331D01*
X754295D02*
X752931Y217519D01*
X746113Y208144*
X755658*
X765885Y227831D02*
X763840Y226894D01*
X762476Y224081*
X762476D02*
X761795Y219394D01*
Y216581*
X761795D02*
X762476Y211894D01*
X762476D02*
X763840Y209081D01*
X763840D02*
X765885Y208144D01*
X765885D02*
X767249D01*
X767249D02*
X769295Y209081D01*
X769295D02*
X770658Y211894D01*
X770658D02*
X771340Y216581D01*
X771340D02*
Y219394D01*
X770658Y224081*
X770658D02*
X769295Y226894D01*
X767249Y227831*
X767249D02*
X765885D01*
X785658Y225019D02*
X784976Y226894D01*
X784976D02*
X782931Y227831D01*
X782931D02*
X781567D01*
X781567D02*
X779522Y226894D01*
X778158Y224081*
X778158D02*
X777476Y219394D01*
X777476D02*
Y214706D01*
X777476D02*
X778158Y210956D01*
X778158D02*
X779522Y209081D01*
X779522D02*
X781567Y208144D01*
X781567D02*
X782249D01*
X782249D02*
X784295Y209081D01*
X784295D02*
X785658Y210956D01*
X785658D02*
X786340Y213769D01*
Y214706*
X786340D02*
X785658Y217519D01*
X785658D02*
X784295Y219394D01*
X782249Y220331*
X782249D02*
X781567D01*
X781567D02*
X779522Y219394D01*
X778158Y217519*
X778158D02*
X777476Y214706D01*
X362815Y726765D02*
X364315D01*
X364315D02*
Y732254D01*
X367315Y735254*
Y740254*
X360925Y796254D02*
X343815D01*
Y751754*
X355315Y740254*
X367315*
X360925Y796254D02*
X363327D01*
X335826Y808754D02*
X343815D01*
Y796254*
X363326Y808754D02*
Y796254D01*
X335826Y838754D02*
X343815D01*
Y808754*
Y838754D02*
Y860754D01*
X354071Y871010*
Y876010*
X343815Y838754D02*
X352303D01*
X390826Y828754D02*
X391326Y829254D01*
X391326D02*
X420315D01*
X423565Y832504*
Y842504*
X426315Y845254*
X429815*
X354071Y876010D02*
X358815Y880754D01*
X370815*
X376315Y886254*
X380315*
X350827Y879254D02*
X354071Y876010D01*
X292815Y886254D02*
X299315Y892754D01*
X328315*
X331315Y889754*
Y881254*
X333315Y879254*
X350827*
Y886254D02*
Y879254D01*
X441315Y893754D02*
Y901254D01*
G54D28*
X719795Y153025D02*
X720931Y153806D01*
X720931D02*
X722635Y156150D01*
X722635D02*
Y139744D01*
X728317Y150681D02*
X727749Y149900D01*
X727749D02*
X728317Y149119D01*
X728317D02*
X728885Y149900D01*
X728885D02*
X728317Y150681D01*
Y141306D02*
X727749Y140525D01*
X727749D02*
X728317Y139744D01*
X728317D02*
X728885Y140525D01*
X728885D02*
X728317Y141306D01*
X733999Y153025D02*
X735135Y153806D01*
X735135D02*
X736840Y156150D01*
Y139744*
X789795Y153025D02*
X790931Y153806D01*
X790931D02*
X792635Y156150D01*
X792635D02*
Y139744D01*
G54D29*
X525315Y863754D02*
Y873754D01*
X530315Y878754*
X540315*
X422657Y888754D02*
X422815Y891254D01*
Y898754*
X425315Y901254*
X441315*
X457815*
Y893754*
X463815*
X467815Y889754*
Y878754*
X472815Y873754*
X525315*
X500157Y888754D02*
X520315D01*
X525315Y893754*
Y903754*
X535315*
X540315Y898754*
G54D30*
X484291Y848454D02*
Y854054D01*
X506338Y848454D02*
Y854054D01*
X484291Y830954D02*
Y836554D01*
X506338Y830954D02*
Y836554D01*
X484291Y723454D02*
Y729054D01*
X506338Y723454D02*
Y729054D01*
X484291Y740954D02*
Y746554D01*
X506338Y740954D02*
Y746554D01*
G54D41*
X380315Y876254D02*
X417815D01*
X422657Y881096*
X422657D02*
Y888754D01*
X282815Y899254D02*
Y839254D01*
X285815Y836254*
X292815*
X282815Y899254D02*
X287315Y903754D01*
X372815*
X380315Y896254*
G54D50*
X466378Y831823D02*
Y833023D01*
X474252Y831823D02*
Y833023D01*
X470315Y840485D02*
Y841685D01*
G54D51*
X469566Y818677D02*
Y812177D01*
X467007Y818677D02*
Y812177D01*
X464448Y818677D02*
Y812177D01*
X461889Y818677D02*
Y812177D01*
X459330Y818677D02*
Y812177D01*
X456771Y818677D02*
Y812177D01*
X454212Y818677D02*
Y812177D01*
X451653Y818677D02*
Y812177D01*
X449094Y818677D02*
Y812177D01*
X446535Y818677D02*
Y812177D01*
X443976Y818677D02*
Y812177D01*
X441417Y818677D02*
Y812177D01*
X438858Y818677D02*
Y812177D01*
X436299Y818677D02*
Y812177D01*
X433740Y818677D02*
Y812177D01*
X431181Y818677D02*
Y812177D01*
X428622Y818677D02*
Y812177D01*
X426063Y818677D02*
Y812177D01*
Y765330D02*
Y758830D01*
X428622Y765330D02*
Y758830D01*
X431181Y765330D02*
Y758830D01*
X433740Y765330D02*
Y758830D01*
X436299Y765330D02*
Y758830D01*
X438858Y765330D02*
Y758830D01*
X441417Y765330D02*
Y758830D01*
X443976Y765330D02*
Y758830D01*
X446535Y765330D02*
Y758830D01*
X449094Y765330D02*
Y758830D01*
X451653Y765330D02*
Y758830D01*
X454212Y765330D02*
Y758830D01*
X456771Y765330D02*
Y758830D01*
X459330Y765330D02*
Y758830D01*
X461889Y765330D02*
Y758830D01*
X464448Y765330D02*
Y758830D01*
X467007Y765330D02*
Y758830D01*
X469566Y765330D02*
Y758830D01*
G54D52*
X321205Y796254D02*
X328205D01*
X321205Y791254D02*
X328205D01*
X321205Y786254D02*
X328205D01*
X321205Y781254D02*
X328205D01*
X321205Y776254D02*
X328205D01*
X321205Y771254D02*
X328205D01*
X321205Y766254D02*
X328205D01*
X321205Y761254D02*
X328205D01*
X321205Y756254D02*
X328205D01*
X321205Y751254D02*
X328205D01*
X357425D02*
X364425D01*
X357425Y756254D02*
X364425D01*
X357425Y761254D02*
X364425D01*
X357425Y766254D02*
X364425D01*
X357425Y771254D02*
X364425D01*
X357425Y776254D02*
X364425D01*
X357425Y781254D02*
X364425D01*
X357425Y786254D02*
X364425D01*
X357425Y791254D02*
X364425D01*
X357425Y796254D02*
X364425D01*
G54D53*
X441015Y893754D02*
X441615D01*
X441015Y884754D02*
X441615D01*
G54D54*
X324803Y823354D02*
Y824154D01*
X335826Y823354D02*
Y824154D01*
X339803Y885854D02*
Y886654D01*
X350826Y885854D02*
Y886654D01*
X363326Y809154D02*
Y808354D01*
X352303Y809154D02*
Y808354D01*
X363326Y824154D02*
Y823354D01*
X352303Y824154D02*
Y823354D01*
X418803Y850854D02*
Y851654D01*
X429826Y850854D02*
Y851654D01*
X424803Y713354D02*
Y714154D01*
X435826Y713354D02*
Y714154D01*
X363215Y715742D02*
X362415D01*
X363215Y726765D02*
X362415D01*
X324803Y808354D02*
Y809154D01*
X335826Y808354D02*
Y809154D01*
X377303Y715854D02*
Y716654D01*
X388326Y715854D02*
Y716654D01*
X339803Y895854D02*
Y896654D01*
X350826Y895854D02*
Y896654D01*
X324803Y838354D02*
Y839154D01*
X335826Y838354D02*
Y839154D01*
X363326D02*
Y838354D01*
X352303Y839154D02*
Y838354D01*
X390826Y864154D02*
Y863354D01*
X379803Y864154D02*
Y863354D01*
Y828354D02*
Y829154D01*
X390826Y828354D02*
Y829154D01*
X379803Y765854D02*
Y766654D01*
X390826Y765854D02*
Y766654D01*
X388326Y731654D02*
Y730854D01*
X377303Y731654D02*
Y730854D01*
X324803Y853354D02*
Y854154D01*
X335826Y853354D02*
Y854154D01*
X363326D02*
Y853354D01*
X352303Y854154D02*
Y853354D01*
X429826Y864654D02*
Y863854D01*
X418803Y864654D02*
Y863854D01*
X435826Y726654D02*
Y725854D01*
X424803Y726654D02*
Y725854D01*
G54D55*
X443815Y711754D03*
X377309Y738253D03*
X434815Y744754D03*
Y739754D03*
X314815Y756254D03*
X368415Y761254D03*
X447815Y750254D03*
X449315Y745254D03*
X465315D03*
Y750254D03*
X307815Y771254D03*
X352315Y781254D03*
X368315Y771254D03*
Y766254D03*
X407615Y779454D03*
X426063Y779600D03*
X417215Y779254D03*
X443976Y770254D03*
X449094Y770533D03*
X445899Y779764D03*
X435921Y780091D03*
X466315Y779754D03*
X465915Y769754D03*
X461915D03*
X372315Y795754D03*
X369315Y788754D03*
X407615Y798054D03*
Y789654D03*
X417215Y789054D03*
X426106Y788924D03*
X417215Y798054D03*
X426106Y798084D03*
X445867Y797754D03*
X445899Y789251D03*
X435965Y797754D03*
X435757Y788924D03*
X466315Y797754D03*
Y788754D03*
X335815Y816254D03*
X352315D03*
X446815Y807254D03*
X437815Y822254D03*
X440315Y807254D03*
X446315Y823254D03*
X453315Y807254D03*
X467815Y822754D03*
X324815Y832254D03*
X431815Y839254D03*
Y834254D03*
X467815Y826354D03*
X460315Y835254D03*
Y830754D03*
X474215Y825654D03*
X312815Y852754D03*
X316815Y849254D03*
X320315Y845754D03*
X335815D03*
X352315Y846754D03*
X379815Y857254D03*
X429815Y845254D03*
X410815Y868254D03*
X441315Y879254D03*
G74*
X0Y0D02*
M02*
