*
*
G04 PowerPCB (Build Number [351.51 ]) generated Gerber (RS-274-X) file*
G04 PC Version=2.1*
*
%IN "L6206Pd-2.pcb"*%
*
%MOIN*%
*
%FSLAX35Y35*%
*
*
*
*
G04 PC Standard Apertures*
*
*
G04 Thermal Relief Aperture macro.*
%AMTER*
1,1,$1,0,0*
1,0,$1-$2,0,0*
21,0,$3,$4,0,0,45*
21,0,$3,$4,0,0,135*
%
*
*
G04 Annular Aperture macro.*
%AMANN*
1,1,$1,0,0*
1,0,$2,0,0*
%
*
*
G04 Odd Aperture macro.*
%AMODD*
1,1,$1,0,0*
1,0,$1-0.005,0,0*
%
*
*
G04 PC Custom Aperture Macros*
*
*
*
*
*
*
G04 PC Aperture Table*
*
%ADD010C,0.02*%
%ADD011C,0.01*%
%ADD012C,0.012*%
%ADD014C,0.024*%
%ADD015C,0.008*%
%ADD016C,0.015*%
%ADD017C,0.007*%
%ADD018C,0.004*%
%ADD019R,0.06X0.06*%
%ADD020C,0.06*%
%ADD023C,0.1*%
%ADD027C,0.03*%
%ADD028C,0.025*%
%ADD029C,0.05*%
%ADD055C,0.036*%
*
*
*
*
G04 PC Custom Flashes*
G04 Layer Name L6206Pd-2.pcb - flashes*
%LPD*%
*
*
G04 PC Circuitry*
G04 Layer Name L6206Pd-2.pcb - circuitry*
%LPD*%
*
G54D10*
G01X734295Y236644D02*
Y254144D01*
X651795Y236644D02*
Y254144D01*
X569295Y236644D02*
Y254144D01*
X486795Y236644D02*
Y254144D01*
X404295Y236644D02*
Y254144D01*
X321795Y236644D02*
Y254144D01*
X239295Y236644D02*
Y254144D01*
X457815Y746254D02*
Y821754D01*
X467715Y831654*
X472315*
X284315Y811254D02*
X330815D01*
X335815Y816254*
X284315Y811254D02*
Y901254D01*
X333815*
X335815Y816254D02*
X352315D01*
X474215Y825654D02*
Y829754D01*
X472315Y831654*
X330315Y863832D02*
Y884254D01*
X333815Y887754*
Y901254*
X402972Y888754D02*
Y901254D01*
X333815*
G54D11*
X220295Y1016144D02*
Y956144D01*
X190295Y986144D02*
X250295D01*
X240295D02*
G75*
G03X240295I-20000D01*
G01X235295D02*
G03X235295I-15000D01*
G01X231475D02*
G03X231475I-11180D01*
G01X225295D02*
G03X225295I-5000D01*
G01X649795Y997644D02*
Y937644D01*
X619795Y967644D02*
X679795D01*
X669795D02*
G03X669795I-20000D01*
G01X664795D02*
G03X664795I-15000D01*
G01X660975D02*
G03X660975I-11180D01*
G01X654795D02*
G03X654795I-5000D01*
G01X13409Y17471D02*
Y47372D01*
X836638Y1182825D02*
Y1153672D01*
Y1182825D02*
X807063D01*
X606275Y145798D02*
X649582D01*
X653519D02*
X677141D01*
X665330Y133987D02*
Y157609D01*
X645645D02*
Y133987D01*
X614149Y141861*
Y149735*
X645645Y157609*
X665330D02*
Y161546D01*
X653519Y145798D02*
X651551D01*
X677141D02*
X679110D01*
X665330Y133987D02*
Y132018D01*
X257043Y227254D02*
X212161D01*
X257043Y226664D02*
X212161D01*
X256452Y226073D02*
X211571D01*
X256452Y225483D02*
X211571D01*
X256452Y224892D02*
X210980D01*
X255862Y224301D02*
X210980D01*
X255271Y223711D02*
X215704D01*
Y223120*
X217476Y223711D02*
X210389D01*
X215114Y223120D02*
X210980D01*
X212161Y222530D02*
X209799D01*
X211571Y221939D02*
X209799D01*
X210980D02*
X209799D01*
X213342Y223120D02*
X210389D01*
Y221349D02*
X209208D01*
Y220168D02*
X210980Y221939D01*
X208027Y216624D02*
X207437D01*
X208027Y216034D02*
X207437D01*
X209208Y220168D02*
X210389Y221349D01*
X208027Y215443D02*
X206846D01*
X208027Y214853D02*
X206846D01*
X208027Y214262D02*
X206846D01*
X208027Y213672D02*
X206256D01*
X208618Y213081D02*
X206256D01*
X208618Y212490D02*
X205665D01*
X208618Y211900D02*
X205665D01*
X209208Y211309D02*
X205665D01*
X209799Y210719D02*
X205075D01*
X209799Y210128D02*
X205075D01*
X210389Y209538D02*
X204484D01*
X210980Y208947D02*
X204484D01*
X212161Y208357D02*
X204484D01*
X212752Y207766D02*
X203893D01*
X213342Y207175D02*
X203303D01*
X213933Y206585D02*
X203303D01*
X214523Y205994D02*
X203303D01*
X215114Y205404D02*
X202712D01*
X215704Y204813D02*
X202712D01*
X216295Y204223D02*
X202122D01*
X217476Y203632D02*
X202122D01*
X218067Y203042D02*
X202122D01*
X218657Y202451D02*
X201531D01*
X219248Y201861D02*
X201531D01*
X219838Y201270D02*
X201531D01*
X219838Y200679D02*
X200941D01*
X235193Y215443D02*
X216295D01*
Y214853*
X234602D02*
X216886D01*
X234602Y214262D02*
X216886D01*
X234602Y213672D02*
X217476D01*
X234012Y213081D02*
X218657D01*
X234012Y212490D02*
X218657D01*
X233421Y211900D02*
X219838D01*
X233421Y211309D02*
X220429D01*
X233421Y210719D02*
X221019D01*
X232830Y210128D02*
X221610D01*
X232830Y209538D02*
X222201D01*
X232240Y208947D02*
X222791D01*
X232240Y208357D02*
X223382D01*
X231649Y207766D02*
X223972D01*
X231649Y207175D02*
X224563D01*
X231649Y206585D02*
X224563D01*
X231059Y205994D02*
X225744D01*
X231059Y205404D02*
X226334D01*
X230468Y204813D02*
X226925D01*
X230468Y204223D02*
X226925D01*
X230468Y203632D02*
X227515D01*
X229878Y203042D02*
X228106D01*
X229878Y202451D02*
X228106D01*
X229287Y201861D02*
X228106D01*
X229287Y201270D02*
X228106D01*
X229287Y200679D02*
X228106D01*
X228697Y200089D02*
X228106D01*
X228697Y199498D02*
X228106D01*
Y198908D02*
Y197727D01*
X227515Y195955D02*
X226925D01*
Y195364D02*
X226334D01*
X226925Y194774D02*
X225744D01*
X226334Y194183D02*
X225744D01*
X226334Y193593D02*
X225153D01*
X243460Y215443D02*
X252319D01*
X243460Y214853D02*
X251728D01*
X242870Y214262D02*
X251728D01*
X242870Y213672D02*
X251138D01*
X242279Y213081D02*
X251138D01*
X242279Y212490D02*
X250547D01*
X242279Y211900D02*
X250547D01*
X241689Y211309D02*
X250547D01*
X241689Y210719D02*
X249956D01*
X241098Y210128D02*
X249956D01*
X241098Y209538D02*
X249366D01*
X240508Y208947D02*
X249366D01*
X240508Y208357D02*
X249366D01*
X240508Y207766D02*
X248775D01*
X239917Y207175D02*
X248775D01*
X239917Y206585D02*
X248185D01*
X239326Y205994D02*
X248185D01*
Y205404*
X239326D02*
X247594D01*
Y204813*
X238736Y204223D02*
X247594D01*
X238736Y204813D02*
X247004D01*
X238736Y203632D02*
X247004D01*
Y203042*
X238145D02*
X246413D01*
Y202451*
X238145D02*
X245823D01*
X237555Y201861D02*
X246413D01*
X237555Y201270D02*
X246413D01*
X237555Y200679D02*
X245823D01*
X236964Y200089D02*
X245823D01*
X236964Y199498D02*
X245232D01*
X236374Y198908D02*
X245232D01*
X236374Y198317D02*
X245232D01*
X235783Y197727D02*
X244641D01*
X235783Y197136D02*
X244641D01*
X235783Y196546D02*
X244051D01*
X235193Y195955D02*
X244051D01*
X235193Y195364D02*
X244051D01*
X235193Y194774D02*
X243460D01*
X234602Y194183D02*
X243460D01*
X234602Y193593D02*
X242870D01*
X258417Y194144D02*
G03X258417I-4122D01*
G01X243311Y216250D02*
X252913D01*
X243311Y192939*
X233704*
X243311Y216250*
X217799D02*
X236008D01*
X226401Y192939*
X222701*
X224000Y193238*
X225201Y194140*
X227303Y197140*
X227901Y201242*
X227204Y203345*
X225701Y205242*
X217299Y213349*
X215897Y214648*
X215598Y215550*
X216299Y216050*
X217799Y216250*
X211795Y209144D02*
X210295Y210447D01*
X209094Y212349*
X208496Y214648*
X208397Y217050*
X209197Y219349*
X210795Y221349*
X213598Y222652*
X217598Y223152*
X255815Y223050*
X257913Y227853*
X211795*
X200193Y200144*
X218000*
X219401*
X220098Y200644*
X220201Y201542*
X219299Y202443*
X211795Y209144*
X807063Y17471D02*
X836638D01*
Y47372*
X13362Y17175D02*
X42153D01*
X13409Y1182825D02*
Y1153672D01*
Y1182805D02*
X37035D01*
X584295Y713144D02*
Y653144D01*
X554295Y683144D02*
X614295D01*
X604295D02*
G03X604295I-20000D01*
G01X599295D02*
G03X599295I-15000D01*
G01X595475D02*
G03X595475I-11180D01*
G01X589295D02*
G03X589295I-5000D01*
G01X118299Y161546D02*
X116118Y153671D01*
X118299Y161546D02*
X120481Y153671D01*
X116936Y156296D02*
X119663D01*
X122936Y161546D02*
Y153671D01*
X126208*
X128663Y161546D02*
Y153671D01*
X131936*
X139299Y161546D02*
Y153671D01*
Y161546D02*
X141754D01*
X142572Y161171*
X142572D02*
X142845Y160796D01*
X143118Y160046*
Y159296*
X142845Y158546*
X142572Y158171*
X142572D02*
X141754Y157796D01*
X139299*
X141208D02*
X143118Y153671D01*
X145572Y161546D02*
Y153671D01*
X152118Y159671D02*
X151845Y160421D01*
X151299Y161171*
X151299D02*
X150754Y161546D01*
X149663*
X149118Y161171*
X148572Y160421*
X148572D02*
X148299Y159671D01*
X148299D02*
X148027Y158546D01*
Y156671*
X148299Y155546*
X148299D02*
X148572Y154796D01*
X148572D02*
X149118Y154046D01*
X149663Y153671*
X150754*
X151299Y154046*
X151299D02*
X151845Y154796D01*
X152118Y155546*
Y156671*
X150754D02*
X152118D01*
X154572Y161546D02*
Y153671D01*
X158390Y161546D02*
Y153671D01*
X154572Y157796D02*
X158390D01*
X162754Y161546D02*
Y153671D01*
X160845Y161546D02*
X164663D01*
X170936Y160421D02*
X170390Y161171D01*
X170390D02*
X169572Y161546D01*
X169572D02*
X168481D01*
X168481D02*
X167663Y161171D01*
X167118Y160421*
Y159671*
X167390Y158921*
X167390D02*
X167663Y158546D01*
X168208Y158171*
X168208D02*
X169845Y157421D01*
X170390Y157046*
X170390D02*
X170663Y156671D01*
X170936Y155921*
Y154796*
X170390Y154046*
X170390D02*
X169572Y153671D01*
X169572D02*
X168481D01*
X168481D02*
X167663Y154046D01*
X167118Y154796*
X182118Y160421D02*
X181572Y161171D01*
X181572D02*
X180754Y161546D01*
X179663*
X178845Y161171*
X178299Y160421*
X178299D02*
Y159671D01*
X178299D02*
X178572Y158921D01*
X178572D02*
X178845Y158546D01*
X179390Y158171*
X179390D02*
X181027Y157421D01*
X181572Y157046*
X181572D02*
X181845Y156671D01*
X182118Y155921*
Y154796*
X181572Y154046*
X181572D02*
X180754Y153671D01*
X179663*
X178845Y154046*
X178299Y154796*
X186481Y161546D02*
Y153671D01*
X184572Y161546D02*
X188390D01*
X190845D02*
Y153671D01*
Y161546D02*
X193299D01*
X193299D02*
X194118Y161171D01*
X194390Y160796*
X194390D02*
X194663Y160046D01*
Y159296*
X194390Y158546*
X194390D02*
X194118Y158171D01*
X193299Y157796*
X193299D02*
X190845D01*
X192754D02*
X194663Y153671D01*
X197118Y161546D02*
Y153671D01*
X203663Y159671D02*
X203390Y160421D01*
X203390D02*
X202845Y161171D01*
X202299Y161546*
X202299D02*
X201208D01*
X201208D02*
X200663Y161171D01*
X200118Y160421*
X199845Y159671*
X199572Y158546*
X199572D02*
Y156671D01*
X199572D02*
X199845Y155546D01*
X200118Y154796*
X200663Y154046*
X201208Y153671*
X201208D02*
X202299D01*
X202299D02*
X202845Y154046D01*
X203390Y154796*
X203390D02*
X203663Y155546D01*
X208027Y161546D02*
Y153671D01*
X206118Y161546D02*
X209936D01*
X212390D02*
Y153671D01*
X212390D02*
X215663D01*
X218118Y161546D02*
X220299Y157796D01*
X220299D02*
Y153671D01*
X222481Y161546D02*
X220299Y157796D01*
X229845Y161546D02*
Y153671D01*
Y161546D02*
X232299D01*
X232299D02*
X233118Y161171D01*
X233390Y160796*
X233390D02*
X233663Y160046D01*
Y159296*
X233390Y158546*
X233390D02*
X233118Y158171D01*
X232299Y157796*
X232299D02*
X229845D01*
X231754D02*
X233663Y153671D01*
X236118Y161546D02*
Y153671D01*
Y161546D02*
X239663D01*
X236118Y157796D02*
X238299D01*
X236118Y153671D02*
X239663D01*
X245936Y160421D02*
X245390Y161171D01*
X245390D02*
X244572Y161546D01*
X244572D02*
X243481D01*
X243481D02*
X242663Y161171D01*
X242118Y160421*
Y159671*
X242390Y158921*
X242390D02*
X242663Y158546D01*
X243208Y158171*
X243208D02*
X244845Y157421D01*
X245390Y157046*
X245390D02*
X245663Y156671D01*
X245936Y155921*
Y154796*
X245390Y154046*
X245390D02*
X244572Y153671D01*
X244572D02*
X243481D01*
X243481D02*
X242663Y154046D01*
X242118Y154796*
X248390Y161546D02*
Y153671D01*
Y161546D02*
X251936D01*
X248390Y157796D02*
X250572D01*
X248390Y153671D02*
X251936D01*
X254390Y161546D02*
Y153671D01*
Y161546D02*
X256845D01*
X257663Y161171*
X257936Y160796*
X258208Y160046*
X258208D02*
Y159296D01*
X258208D02*
X257936Y158546D01*
X257663Y158171*
X256845Y157796*
X254390*
X256299D02*
X258208Y153671D01*
X260663Y161546D02*
X262845Y153671D01*
X265027Y161546D02*
X262845Y153671D01*
X267481Y161546D02*
Y153671D01*
Y161546D02*
X271027D01*
X267481Y157796D02*
X269663D01*
X267481Y153671D02*
X271027D01*
X273481Y161546D02*
Y153671D01*
Y161546D02*
X275390D01*
X275390D02*
X276208Y161171D01*
X276208D02*
X276754Y160421D01*
X277027Y159671*
X277299Y158546*
X277299D02*
Y156671D01*
X277299D02*
X277027Y155546D01*
X276754Y154796*
X276208Y154046*
X276208D02*
X275390Y153671D01*
X275390D02*
X273481D01*
X280027Y154421D02*
X279754Y154046D01*
X280027Y153671*
X280299Y154046*
X280299D02*
X280027Y154421D01*
X282754Y161546D02*
Y153671D01*
Y161546D02*
X285208D01*
X285208D02*
X286027Y161171D01*
X286299Y160796*
X286299D02*
X286572Y160046D01*
X286572D02*
Y159296D01*
X286572D02*
X286299Y158546D01*
X286299D02*
X286027Y158171D01*
X285208Y157796*
X285208D02*
X282754D01*
X284663D02*
X286572Y153671D01*
X289027Y161546D02*
Y153671D01*
Y161546D02*
X292572D01*
X289027Y157796D02*
X291208D01*
X289027Y153671D02*
X292572D01*
X295027Y161546D02*
Y153671D01*
Y161546D02*
X297481D01*
X297481D02*
X298299Y161171D01*
X298299D02*
X298572Y160796D01*
X298572D02*
X298845Y160046D01*
Y158921*
X298572Y158171*
X298572D02*
X298299Y157796D01*
X298299D02*
X297481Y157421D01*
X297481D02*
X295027D01*
X301299Y161546D02*
Y153671D01*
Y161546D02*
X303754D01*
X304572Y161171*
X304572D02*
X304845Y160796D01*
X305118Y160046*
Y159296*
X304845Y158546*
X304572Y158171*
X304572D02*
X303754Y157796D01*
X301299*
X303208D02*
X305118Y153671D01*
X309208Y161546D02*
X308663Y161171D01*
X308118Y160421*
X307845Y159671*
X307572Y158546*
X307572D02*
Y156671D01*
X307572D02*
X307845Y155546D01*
X308118Y154796*
X308663Y154046*
X309208Y153671*
X309208D02*
X310299D01*
X310299D02*
X310845Y154046D01*
X311390Y154796*
X311390D02*
X311663Y155546D01*
X311936Y156671*
Y158546*
X311663Y159671*
X311390Y160421*
X311390D02*
X310845Y161171D01*
X310299Y161546*
X310299D02*
X309208D01*
X314390Y157046D02*
X319299D01*
X116118Y149735D02*
Y141860D01*
Y149735D02*
X118027D01*
X118845Y149360*
X119390Y148610*
X119390D02*
X119663Y147860D01*
X119936Y146735*
Y144860*
X119663Y143735*
X119390Y142985*
X119390D02*
X118845Y142235D01*
X118027Y141860*
X116118*
X122390Y149735D02*
Y144110D01*
X122390D02*
X122663Y142985D01*
X123208Y142235*
X123208D02*
X124027Y141860D01*
X124572*
X124572D02*
X125390Y142235D01*
X125390D02*
X125936Y142985D01*
X126208Y144110*
X126208D02*
Y149735D01*
X132754Y147860D02*
X132481Y148610D01*
X132481D02*
X131936Y149360D01*
X131390Y149735*
X131390D02*
X130299D01*
X130299D02*
X129754Y149360D01*
X129208Y148610*
X129208D02*
X128936Y147860D01*
X128663Y146735*
Y144860*
X128936Y143735*
X129208Y142985*
X129208D02*
X129754Y142235D01*
X130299Y141860*
X130299D02*
X131390D01*
X131390D02*
X131936Y142235D01*
X132481Y142985*
X132481D02*
X132754Y143735D01*
X137118Y149735D02*
Y141860D01*
X135208Y149735D02*
X139027D01*
X141481D02*
Y141860D01*
X145572Y149735D02*
X145027Y149360D01*
X144481Y148610*
X144481D02*
X144208Y147860D01*
X144208D02*
X143936Y146735D01*
Y144860*
X144208Y143735*
X144208D02*
X144481Y142985D01*
X144481D02*
X145027Y142235D01*
X145572Y141860*
X145572D02*
X146663D01*
X147208Y142235*
X147208D02*
X147754Y142985D01*
X148027Y143735*
X148299Y144860*
X148299D02*
Y146735D01*
X148299D02*
X148027Y147860D01*
X147754Y148610*
X147208Y149360*
X147208D02*
X146663Y149735D01*
X145572*
X150754D02*
Y141860D01*
Y149735D02*
X154572Y141860D01*
Y149735D02*
Y141860D01*
X163572Y149735D02*
X163027Y149360D01*
X162481Y148610*
X162481D02*
X162208Y147860D01*
X162208D02*
X161936Y146735D01*
Y144860*
X162208Y143735*
X162208D02*
X162481Y142985D01*
X162481D02*
X163027Y142235D01*
X163572Y141860*
X163572D02*
X164663D01*
X165208Y142235*
X165208D02*
X165754Y142985D01*
X166027Y143735*
X166299Y144860*
X166299D02*
Y146735D01*
X166299D02*
X166027Y147860D01*
X165754Y148610*
X165208Y149360*
X165208D02*
X164663Y149735D01*
X163572*
X168754D02*
Y141860D01*
Y149735D02*
X171208D01*
X171208D02*
X172027Y149360D01*
X172299Y148985*
X172299D02*
X172572Y148235D01*
X172572D02*
Y147485D01*
X172572D02*
X172299Y146735D01*
X172299D02*
X172027Y146360D01*
X171208Y145985*
X171208D02*
X168754D01*
X170663D02*
X172572Y141860D01*
X179936Y149735D02*
Y141860D01*
X186208Y148610D02*
X185663Y149360D01*
X184845Y149735*
X183754*
X182936Y149360*
X182390Y148610*
X182390D02*
Y147860D01*
X182390D02*
X182663Y147110D01*
X182936Y146735*
X183481Y146360*
X183481D02*
X185118Y145610D01*
X185663Y145235*
X185936Y144860*
X186208Y144110*
X186208D02*
Y142985D01*
X186208D02*
X185663Y142235D01*
X184845Y141860*
X183754*
X182936Y142235*
X182390Y142985*
X192481Y148610D02*
X191936Y149360D01*
X191118Y149735*
X190027*
X189208Y149360*
X189208D02*
X188663Y148610D01*
Y147860*
X188936Y147110*
X189208Y146735*
X189208D02*
X189754Y146360D01*
X191390Y145610*
X191390D02*
X191936Y145235D01*
X192208Y144860*
X192208D02*
X192481Y144110D01*
X192481D02*
Y142985D01*
X192481D02*
X191936Y142235D01*
X191118Y141860*
X190027*
X189208Y142235*
X189208D02*
X188663Y142985D01*
X194936Y149735D02*
Y144110D01*
X195208Y142985*
X195208D02*
X195754Y142235D01*
X196572Y141860*
X196572D02*
X197118D01*
X197936Y142235*
X198481Y142985*
X198481D02*
X198754Y144110D01*
Y149735*
X201208D02*
Y141860D01*
Y149735D02*
X204754D01*
X201208Y145985D02*
X203390D01*
X201208Y141860D02*
X204754D01*
X214027Y149735D02*
Y141860D01*
X212118Y149735D02*
X215936D01*
X220027D02*
X219481Y149360D01*
X219481D02*
X218936Y148610D01*
X218663Y147860*
X218390Y146735*
X218390D02*
Y144860D01*
X218390D02*
X218663Y143735D01*
X218936Y142985*
X219481Y142235*
X219481D02*
X220027Y141860D01*
X221118*
X221663Y142235*
X222208Y142985*
X222208D02*
X222481Y143735D01*
X222481D02*
X222754Y144860D01*
Y146735*
X222481Y147860*
X222481D02*
X222208Y148610D01*
X222208D02*
X221663Y149360D01*
X221118Y149735*
X220027*
X232027D02*
Y141860D01*
X230118Y149735D02*
X233936D01*
X236390D02*
Y141860D01*
X240208Y149735D02*
Y141860D01*
X236390Y145985D02*
X240208D01*
X242663Y149735D02*
Y141860D01*
X245118Y149735D02*
Y141860D01*
Y149735D02*
X247572D01*
X247572D02*
X248390Y149360D01*
X248390D02*
X248663Y148985D01*
X248936Y148235*
Y147485*
X248663Y146735*
X248390Y146360*
X248390D02*
X247572Y145985D01*
X247572D02*
X245118D01*
X247027D02*
X248936Y141860D01*
X251390Y149735D02*
Y141860D01*
Y149735D02*
X253299D01*
X253299D02*
X254118Y149360D01*
X254663Y148610*
X254936Y147860*
X255208Y146735*
X255208D02*
Y144860D01*
X255208D02*
X254936Y143735D01*
X254663Y142985*
X254118Y142235*
X253299Y141860*
X253299D02*
X251390D01*
X262572Y149735D02*
Y141860D01*
Y149735D02*
X265027D01*
X265845Y149360*
X266118Y148985*
X266390Y148235*
X266390D02*
Y147110D01*
X266390D02*
X266118Y146360D01*
X265845Y145985*
X265027Y145610*
X262572*
X271027Y149735D02*
X268845Y141860D01*
X271027Y149735D02*
X273208Y141860D01*
X269663Y144485D02*
X272390D01*
X275663Y149735D02*
Y141860D01*
Y149735D02*
X278118D01*
X278936Y149360*
X279208Y148985*
X279208D02*
X279481Y148235D01*
X279481D02*
Y147485D01*
X279481D02*
X279208Y146735D01*
X279208D02*
X278936Y146360D01*
X278118Y145985*
X275663*
X277572D02*
X279481Y141860D01*
X283845Y149735D02*
Y141860D01*
X281936Y149735D02*
X285754D01*
X288208D02*
Y141860D01*
X290663Y149735D02*
Y141860D01*
Y149735D02*
X294208D01*
X290663Y145985D02*
X292845D01*
X290663Y141860D02*
X294208D01*
X300481Y148610D02*
X299936Y149360D01*
X299118Y149735*
X298027*
X297208Y149360*
X297208D02*
X296663Y148610D01*
Y147860*
X296936Y147110*
X297208Y146735*
X297208D02*
X297754Y146360D01*
X299390Y145610*
X299390D02*
X299936Y145235D01*
X300208Y144860*
X300208D02*
X300481Y144110D01*
X300481D02*
Y142985D01*
X300481D02*
X299936Y142235D01*
X299118Y141860*
X298027*
X297208Y142235*
X297208D02*
X296663Y142985D01*
X307845Y149735D02*
Y141860D01*
X310299Y149735D02*
Y141860D01*
Y149735D02*
X314118Y141860D01*
Y149735D02*
Y141860D01*
X117976Y138519D02*
X115795Y130644D01*
X117976Y138519D02*
X120158Y130644D01*
X116613Y133269D02*
X119340D01*
X122613Y138519D02*
Y130644D01*
Y138519D02*
X126431Y130644D01*
Y138519D02*
Y130644D01*
X128885Y138519D02*
X131067Y134769D01*
X131067D02*
Y130644D01*
X133249Y138519D02*
X131067Y134769D01*
X140613Y138519D02*
Y130644D01*
Y138519D02*
X144158D01*
X140613Y134769D02*
X142795D01*
X148249Y138519D02*
X147704Y138144D01*
X147158Y137394*
X147158D02*
X146885Y136644D01*
X146885D02*
X146613Y135519D01*
Y133644*
X146885Y132519*
X146885D02*
X147158Y131769D01*
X147158D02*
X147704Y131019D01*
X148249Y130644*
X148249D02*
X149340D01*
X149885Y131019*
X149885D02*
X150431Y131769D01*
X150704Y132519*
X150976Y133644*
X150976D02*
Y135519D01*
X150976D02*
X150704Y136644D01*
X150431Y137394*
X149885Y138144*
X149885D02*
X149340Y138519D01*
X148249*
X153431D02*
Y130644D01*
Y138519D02*
X155885D01*
X155885D02*
X156704Y138144D01*
X156976Y137769*
X156976D02*
X157249Y137019D01*
X157249D02*
Y136269D01*
X157249D02*
X156976Y135519D01*
X156976D02*
X156704Y135144D01*
X155885Y134769*
X155885D02*
X153431D01*
X155340D02*
X157249Y130644D01*
X159704Y138519D02*
Y130644D01*
Y138519D02*
X161885Y130644D01*
X164067Y138519D02*
X161885Y130644D01*
X164067Y138519D02*
Y130644D01*
X171431Y138519D02*
X172795Y130644D01*
X174158Y138519D02*
X172795Y130644D01*
X174158Y138519D02*
X175522Y130644D01*
X176885Y138519D02*
X175522Y130644D01*
X179340Y138519D02*
Y130644D01*
X183158Y138519D02*
Y130644D01*
X179340Y134769D02*
X183158D01*
X187795Y138519D02*
X185613Y130644D01*
X187795Y138519D02*
X189976Y130644D01*
X186431Y133269D02*
X189158D01*
X194340Y138519D02*
Y130644D01*
X192431Y138519D02*
X196249D01*
X198704D02*
Y130644D01*
Y138519D02*
X202249D01*
X198704Y134769D02*
X200885D01*
X198704Y130644D02*
X202249D01*
X204704Y138519D02*
X206885Y130644D01*
X209067Y138519D02*
X206885Y130644D01*
X211522Y138519D02*
Y130644D01*
Y138519D02*
X215067D01*
X211522Y134769D02*
X213704D01*
X211522Y130644D02*
X215067D01*
X217522Y138519D02*
Y130644D01*
Y138519D02*
X219976D01*
X219976D02*
X220795Y138144D01*
X221067Y137769*
X221067D02*
X221340Y137019D01*
Y136269*
X221067Y135519*
X221067D02*
X220795Y135144D01*
X219976Y134769*
X219976D02*
X217522D01*
X219431D02*
X221340Y130644D01*
X228704Y138519D02*
Y130644D01*
X234976Y137394D02*
X234431Y138144D01*
X233613Y138519*
X232522*
X231704Y138144*
X231158Y137394*
X231158D02*
Y136644D01*
X231158D02*
X231431Y135894D01*
X231704Y135519*
X232249Y135144*
X232249D02*
X233885Y134394D01*
X233885D02*
X234431Y134019D01*
X234704Y133644*
X234976Y132894*
X234976D02*
Y131769D01*
X234976D02*
X234431Y131019D01*
X233613Y130644*
X232522*
X231704Y131019*
X231158Y131769*
X242340Y138519D02*
Y130644D01*
Y138519D02*
X246158Y130644D01*
Y138519D02*
Y130644D01*
X250249Y138519D02*
X249704Y138144D01*
X249158Y137394*
X249158D02*
X248885Y136644D01*
X248885D02*
X248613Y135519D01*
Y133644*
X248885Y132519*
X248885D02*
X249158Y131769D01*
X249158D02*
X249704Y131019D01*
X250249Y130644*
X250249D02*
X251340D01*
X251885Y131019*
X251885D02*
X252431Y131769D01*
X252704Y132519*
X252976Y133644*
X252976D02*
Y135519D01*
X252976D02*
X252704Y136644D01*
X252431Y137394*
X251885Y138144*
X251885D02*
X251340Y138519D01*
X250249*
X257340D02*
Y130644D01*
X255431Y138519D02*
X259249D01*
X266613D02*
Y130644D01*
Y138519D02*
X269067D01*
X269067D02*
X269885Y138144D01*
X269885D02*
X270158Y137769D01*
X270158D02*
X270431Y137019D01*
Y135894*
X270158Y135144*
X270158D02*
X269885Y134769D01*
X269885D02*
X269067Y134394D01*
X269067D02*
X266613D01*
X272885Y138519D02*
Y130644D01*
Y138519D02*
X276431D01*
X272885Y134769D02*
X275067D01*
X272885Y130644D02*
X276431D01*
X278885Y138519D02*
Y130644D01*
Y138519D02*
X281340D01*
X282158Y138144*
X282158D02*
X282431Y137769D01*
X282704Y137019*
Y136269*
X282431Y135519*
X282158Y135144*
X282158D02*
X281340Y134769D01*
X278885*
X280795D02*
X282704Y130644D01*
X285158Y138519D02*
Y130644D01*
Y138519D02*
X287340Y130644D01*
X289522Y138519D02*
X287340Y130644D01*
X289522Y138519D02*
Y130644D01*
X291976Y138519D02*
Y130644D01*
X296340Y138519D02*
Y130644D01*
X294431Y138519D02*
X298249D01*
X302613D02*
Y130644D01*
X300704Y138519D02*
X304522D01*
X306976D02*
Y130644D01*
Y138519D02*
X310522D01*
X306976Y134769D02*
X309158D01*
X306976Y130644D02*
X310522D01*
X312976Y138519D02*
Y130644D01*
Y138519D02*
X314885D01*
X314885D02*
X315704Y138144D01*
X316249Y137394*
X316249D02*
X316522Y136644D01*
X316795Y135519*
Y133644*
X316522Y132519*
X316249Y131769*
X316249D02*
X315704Y131019D01*
X314885Y130644*
X314885D02*
X312976D01*
X115795Y126519D02*
X117158Y118644D01*
X118522Y126519D02*
X117158Y118644D01*
X118522Y126519D02*
X119885Y118644D01*
X121249Y126519D02*
X119885Y118644D01*
X123704Y126519D02*
Y118644D01*
X128067Y126519D02*
Y118644D01*
X126158Y126519D02*
X129976D01*
X132431D02*
Y118644D01*
X136249Y126519D02*
Y118644D01*
X132431Y122769D02*
X136249D01*
X140340Y126519D02*
X139795Y126144D01*
X139249Y125394*
X139249D02*
X138976Y124644D01*
X138976D02*
X138704Y123519D01*
Y121644*
X138976Y120519*
X138976D02*
X139249Y119769D01*
X139249D02*
X139795Y119019D01*
X140340Y118644*
X141431*
X141976Y119019*
X141976D02*
X142522Y119769D01*
X142795Y120519*
X143067Y121644*
X143067D02*
Y123519D01*
X143067D02*
X142795Y124644D01*
X142522Y125394*
X141976Y126144*
X141976D02*
X141431Y126519D01*
X140340*
X145522D02*
Y120894D01*
X145795Y119769*
X146340Y119019*
X147158Y118644*
X147158D02*
X147704D01*
X148522Y119019*
X149067Y119769*
X149067D02*
X149340Y120894D01*
Y126519*
X153704D02*
Y118644D01*
X151795Y126519D02*
X155613D01*
X162976D02*
X164340Y118644D01*
X165704Y126519D02*
X164340Y118644D01*
X165704Y126519D02*
X167067Y118644D01*
X168431Y126519D02*
X167067Y118644D01*
X170885Y126519D02*
Y118644D01*
Y126519D02*
X173340D01*
X174158Y126144*
X174158D02*
X174431Y125769D01*
X174704Y125019*
Y124269*
X174431Y123519*
X174158Y123144*
X174158D02*
X173340Y122769D01*
X170885*
X172795D02*
X174704Y118644D01*
X177158Y126519D02*
Y118644D01*
X181522Y126519D02*
Y118644D01*
X179613Y126519D02*
X183431D01*
X187795D02*
Y118644D01*
X185885Y126519D02*
X189704D01*
X192158D02*
Y118644D01*
Y126519D02*
X195704D01*
X192158Y122769D02*
X194340D01*
X192158Y118644D02*
X195704D01*
X198158Y126519D02*
Y118644D01*
Y126519D02*
X201976Y118644D01*
Y126519D02*
Y118644D01*
X211522Y126519D02*
X209340Y118644D01*
X211522Y126519D02*
X213704Y118644D01*
X210158Y121269D02*
X212885D01*
X216158Y126519D02*
Y120894D01*
X216158D02*
X216431Y119769D01*
X216976Y119019*
X216976D02*
X217795Y118644D01*
X218340*
X219158Y119019*
X219158D02*
X219704Y119769D01*
X219976Y120894*
X219976D02*
Y126519D01*
X224340D02*
Y118644D01*
X222431Y126519D02*
X226249D01*
X228704D02*
Y118644D01*
X232522Y126519D02*
Y118644D01*
X228704Y122769D02*
X232522D01*
X236613Y126519D02*
X236067Y126144D01*
X236067D02*
X235522Y125394D01*
X235249Y124644*
X235249D02*
X234976Y123519D01*
X234976D02*
Y121644D01*
X234976D02*
X235249Y120519D01*
X235249D02*
X235522Y119769D01*
X236067Y119019*
X236067D02*
X236613Y118644D01*
X237704*
X238249Y119019*
X238249D02*
X238795Y119769D01*
X239067Y120519*
X239067D02*
X239340Y121644D01*
Y123519*
X239067Y124644*
X239067D02*
X238795Y125394D01*
X238249Y126144*
X238249D02*
X237704Y126519D01*
X236613*
X241795D02*
Y118644D01*
Y126519D02*
X244249D01*
X244249D02*
X245067Y126144D01*
X245067D02*
X245340Y125769D01*
X245613Y125019*
Y124269*
X245340Y123519*
X245067Y123144*
X245067D02*
X244249Y122769D01*
X244249D02*
X241795D01*
X243704D02*
X245613Y118644D01*
X248067Y126519D02*
Y118644D01*
X254340Y126519D02*
X250522Y118644D01*
Y126519D02*
X254340D01*
X250522Y118644D02*
X254340D01*
X258976Y126519D02*
X256795Y118644D01*
X258976Y126519D02*
X261158Y118644D01*
X257613Y121269D02*
X260340D01*
X265522Y126519D02*
Y118644D01*
X263613Y126519D02*
X267431D01*
X269885D02*
Y118644D01*
X273976Y126519D02*
X273431Y126144D01*
X272885Y125394*
X272885D02*
X272613Y124644D01*
X272340Y123519*
Y121644*
X272613Y120519*
X272885Y119769*
X272885D02*
X273431Y119019D01*
X273976Y118644*
X273976D02*
X275067D01*
X275067D02*
X275613Y119019D01*
X276158Y119769*
X276158D02*
X276431Y120519D01*
X276704Y121644*
Y123519*
X276431Y124644*
X276158Y125394*
X276158D02*
X275613Y126144D01*
X275067Y126519*
X275067D02*
X273976D01*
X279158D02*
Y118644D01*
Y126519D02*
X282976Y118644D01*
Y126519D02*
Y118644D01*
X290340Y126519D02*
Y118644D01*
Y126519D02*
X293885D01*
X290340Y122769D02*
X292522D01*
X296340Y126519D02*
Y118644D01*
Y126519D02*
X298795D01*
X299613Y126144*
X299885Y125769*
X299885D02*
X300158Y125019D01*
X300158D02*
Y124269D01*
X300158D02*
X299885Y123519D01*
X299885D02*
X299613Y123144D01*
X298795Y122769*
X296340*
X298249D02*
X300158Y118644D01*
X304249Y126519D02*
X303704Y126144D01*
X303158Y125394*
X303158D02*
X302885Y124644D01*
X302885D02*
X302613Y123519D01*
Y121644*
X302885Y120519*
X302885D02*
X303158Y119769D01*
X303158D02*
X303704Y119019D01*
X304249Y118644*
X304249D02*
X305340D01*
X305885Y119019*
X305885D02*
X306431Y119769D01*
X306704Y120519*
X306976Y121644*
X306976D02*
Y123519D01*
X306976D02*
X306704Y124644D01*
X306431Y125394*
X305885Y126144*
X305885D02*
X305340Y126519D01*
X304249*
X309431D02*
Y118644D01*
Y126519D02*
X311613Y118644D01*
X313795Y126519D02*
X311613Y118644D01*
X313795Y126519D02*
Y118644D01*
X535315Y824254D02*
Y833754D01*
X489107*
X489107D02*
X481107Y841754D01*
X481107D02*
X460022D01*
X458315Y840046*
X458315D02*
Y829254D01*
X461496*
X461496D02*
X465805Y833563D01*
X466319Y833965D02*
G03X465805Y833563I1396J-2311D01*
G01X466319Y833965D02*
X467107Y834754D01*
X467107D02*
X475022D01*
X485522Y824254*
X535315*
X534815Y843754D02*
Y853754D01*
X441522*
X438315Y850546*
X438315D02*
Y842546D01*
X438315D02*
X437022Y841254D01*
X428315*
Y832254*
X444607*
X444607D02*
X445815Y833461D01*
Y844961*
X447607Y846754*
X447607D02*
X488022D01*
X491022Y843754*
X534815*
X535315Y742754D02*
Y754254D01*
X462815*
Y742754*
X535315*
X534815Y723754D02*
Y734254D01*
X449607*
X449607D02*
X436607Y747254D01*
X436607D02*
X432815D01*
Y735961*
X445022Y723754*
X534815*
X472815Y776961D02*
Y800796D01*
X472815D02*
X471357Y802254D01*
X471357D02*
X460815D01*
Y775254*
X471107*
X471107D02*
X472815Y776961D01*
X467315Y861461D02*
Y903547D01*
X467315D02*
X465107Y905754D01*
X465107D02*
X283021D01*
X283021D02*
X280813Y903546D01*
X280813D02*
Y708959D01*
X280813D02*
X283022Y706751D01*
X283022D02*
X445110D01*
X445110D02*
X447314Y708955D01*
X447308Y716051*
X447308D02*
X445108Y718245D01*
X410559*
X410015Y717701*
Y713254*
X408315Y711553D02*
G03X410015Y713254I0J1701D01*
G01X408315Y711553D02*
X402315D01*
X400614Y713254D02*
G03X402315Y711553I1701J0D01*
G01X400614Y713254D02*
Y718245D01*
X400614D02*
X334978D01*
X325651D02*
G03X334978I4664J587D01*
G01X325651D02*
X292605D01*
X287815Y723120*
Y889382*
X287815D02*
X288192Y889760D01*
X289308Y890876D02*
G03X288192Y889760I507J-1622D01*
G01X289308Y890876D02*
X290186Y891754D01*
X305022*
X313093Y883682*
X313093D02*
Y863182D01*
X313093D02*
X314632Y861643D01*
X314632D02*
X368977D01*
X379024Y871553*
X379024D02*
X377315D01*
X375614Y873254D02*
G03X377315Y871553I1701J0D01*
G01X375614Y873254D02*
Y879254D01*
X377315Y880954D02*
G03X375614Y879254I0J-1700D01*
G01X377315Y880954D02*
X383315D01*
X385015Y879254D02*
G03X383315Y880954I-1700J0D01*
G01X385015Y879254D02*
Y873254D01*
X384115Y871754D02*
G03X385015Y873254I-800J1500D01*
G01X384115Y871754D02*
X410802D01*
X410827D02*
G03X410802I-12J-3500D01*
G01X410827D02*
X419272D01*
X423315Y867711*
Y845961*
X425522Y843754*
X432107*
X432107D02*
X434815Y846461D01*
Y856461*
X437607Y859254*
X437607D02*
X465107D01*
X465107D02*
X467315Y861461D01*
X355315Y744254D02*
Y778903D01*
X355315D02*
X354908D01*
X354934Y783575D02*
G03X354908Y778903I-2619J-2321D01*
G01X354934Y783575D02*
X355014Y783656D01*
X355014D02*
Y821346D01*
X355014D02*
X353107Y823254D01*
X353107D02*
X307607D01*
X307607D02*
X306911Y823950D01*
X298835Y828754D02*
G03X306911Y823950I3980J-2500D01*
G01X298835Y828754D02*
X296794D01*
X288835D02*
G03X296794I3980J-2500D01*
G01X288835D02*
X285315D01*
Y744254*
X288561*
X295514Y750101D02*
G03X288561Y744254I-2699J-3847D01*
G01X295514Y750101D02*
Y750301D01*
X295514D02*
X294086Y751729D01*
X297339Y754982D02*
G03X294086Y751729I-4524J1272D01*
G01X297339Y754982D02*
X299441Y752880D01*
X300115Y751254D02*
G03X299441Y752880I-2300J0D01*
G01X300115Y751254D02*
Y750754D01*
Y750101*
X307068Y744254D02*
G03X300115Y750101I-4253J2000D01*
G01X307068Y744254D02*
X324847D01*
X329782D02*
G03X324847I-2467J-4000D01*
G01X329782D02*
X355315D01*
X454315Y775961D02*
Y802046D01*
X454315D02*
X452607Y803754D01*
X452607D02*
X446827D01*
X446802D02*
G03X446827I13J3500D01*
G01X446802D02*
X440327D01*
X440302D02*
G03X440327I13J3500D01*
G01X440302D02*
X438357D01*
X438357D02*
X434357Y807754D01*
X434357D02*
X392022D01*
X389815Y805546*
X389815D02*
Y766461D01*
X392022Y764254*
X433107*
X433107D02*
X441095Y772241D01*
X441988Y773134D02*
G03X441095Y772241I1988J-2880D01*
G01X441988Y773134D02*
X443107Y774254D01*
X443107D02*
X452607D01*
X452607D02*
X454315Y775961D01*
X549815Y761461D02*
Y815754D01*
X545522*
X540522Y810754*
X525522*
X520815Y806046*
X520815D02*
Y783546D01*
X520815D02*
X518022Y780754D01*
X512607*
X512607D02*
X509815Y783546D01*
X509815D02*
Y816046D01*
X509815D02*
X507607Y818254D01*
X507607D02*
X472607D01*
X472607D02*
X469815Y821046D01*
X469815D02*
Y827754D01*
X468022*
X464815Y824546*
X464815D02*
Y807461D01*
X467022Y805254*
X473522*
X476315Y802461*
Y775046*
X476315D02*
X473522Y772254D01*
X461315*
Y761461*
X463522Y759254*
X547607*
X547607D02*
X549815Y761461D01*
X465015Y866254D02*
G03X465015I-4700D01*
G01X462515Y896754D02*
Y890754D01*
X460815Y889053D02*
G03X462515Y890754I0J1701D01*
G01X460815Y889053D02*
X454815D01*
X453114Y890754D02*
G03X454815Y889053I1701J0D01*
G01X453114Y890754D02*
Y896754D01*
X454815Y898454D02*
G03X453114Y896754I0J-1700D01*
G01X454815Y898454D02*
X460815D01*
X462515Y896754D02*
G03X460815Y898454I-1700J0D01*
G01X429357Y888754D02*
G03X429357I-6699D01*
G01X385015Y886254D02*
G03X385015I-4700D01*
G01Y899254D02*
Y893254D01*
X383315Y891553D02*
G03X385015Y893254I0J1701D01*
G01X383315Y891553D02*
X377315D01*
X375614Y893254D02*
G03X377315Y891553I1701J0D01*
G01X375614Y893254D02*
Y899254D01*
X377315Y900954D02*
G03X375614Y899254I0J-1700D01*
G01X377315Y900954D02*
X383315D01*
X385015Y899254D02*
G03X383315Y900954I-1700J0D01*
G01X370115Y884655D02*
G03X365514I-2300J4099D01*
G01X370115D02*
Y877774D01*
X365514D02*
G03X370115I2301J-4098D01*
G01X365514D02*
Y884655D01*
X345015Y873675D02*
G03X345015I-4700D01*
G01X327515Y883754D02*
G03X327515I-4700D01*
G01X310115Y768615D02*
G03X307253Y774708I-2300J2639D01*
G01X310115Y768615D02*
Y761254D01*
X309441Y759627D02*
G03X310115Y761254I-1626J1627D01*
G01X309441Y759627D02*
X307339Y757525D01*
X304086Y760778D02*
G03X307339Y757525I-1271J-4524D01*
G01X304086Y760778D02*
X305514Y762206D01*
X305514D02*
Y762406D01*
X304360Y770692D02*
G03X305514Y762406I-1545J-4438D01*
G01X304360Y771815D02*
G03Y770692I3455J-561D01*
G01X307253Y774708D02*
G03X304360Y771815I-4438J1546D01*
G01X307515Y786254D02*
G03X307515I-4700D01*
G01Y796254D02*
G03X307515I-4700D01*
G01Y806254D02*
G03X307515I-4700D01*
G01Y816254D02*
G03X307515I-4700D01*
G01X297515Y766254D02*
G03X297515I-4700D01*
G01Y786254D02*
G03X297515I-4700D01*
G01Y796254D02*
G03X297515I-4700D01*
G01Y806254D02*
G03X297515I-4700D01*
G01Y816254D02*
G03X297515I-4700D01*
G01X492515Y798754D02*
G03X492515I-4700D01*
G01X526408Y824254D02*
X535315Y833160D01*
X527680Y824254D02*
X535315Y831888D01*
X528953Y824254D02*
X535315Y830615D01*
X530226Y824254D02*
X535315Y829342D01*
X531499Y824254D02*
X535315Y828069D01*
X532772Y824254D02*
X535315Y826796D01*
X534044Y824254D02*
X535315Y825524D01*
X525135Y824254D02*
X534635Y833754D01*
X523862Y824254D02*
X533362Y833754D01*
X522589Y824254D02*
X532089Y833754D01*
X521316Y824254D02*
X530816Y833754D01*
X520044Y824254D02*
X529544Y833754D01*
X518771Y824254D02*
X528271Y833754D01*
X517498Y824254D02*
X526998Y833754D01*
X516225Y824254D02*
X525725Y833754D01*
X514952Y824254D02*
X524452Y833754D01*
X513680Y824254D02*
X523180Y833754D01*
X512407Y824254D02*
X521907Y833754D01*
X511134Y824254D02*
X520634Y833754D01*
X509861Y824254D02*
X519361Y833754D01*
X508589Y824254D02*
X518089Y833754D01*
X507316Y824254D02*
X516816Y833754D01*
X506043Y824254D02*
X515543Y833754D01*
X504770Y824254D02*
X514270Y833754D01*
X503497Y824254D02*
X512997Y833754D01*
X502225Y824254D02*
X511725Y833754D01*
X500952Y824254D02*
X510452Y833754D01*
X499679Y824254D02*
X509179Y833754D01*
X498406Y824254D02*
X507906Y833754D01*
X497133Y824254D02*
X506633Y833754D01*
X495861Y824254D02*
X505361Y833754D01*
X494588Y824254D02*
X504088Y833754D01*
X493315Y824254D02*
X502815Y833754D01*
X492042Y824254D02*
X501542Y833754D01*
X490769Y824254D02*
X500269Y833754D01*
X489497Y824254D02*
X498997Y833754D01*
X488224Y824254D02*
X497724Y833754D01*
X486951Y824254D02*
X496451Y833754D01*
X485678Y824254D02*
X495178Y833754D01*
X484964Y824812D02*
X493906Y833754D01*
X484327Y825448D02*
X492633Y833754D01*
X483691Y826084D02*
X491360Y833754D01*
X483054Y826721D02*
X490087Y833754D01*
X482418Y827357D02*
X488961Y833900D01*
X481782Y827994D02*
X488324Y834536D01*
X481145Y828630D02*
X487688Y835173D01*
X480509Y829266D02*
X487052Y835809D01*
X479872Y829903D02*
X486415Y836446D01*
X479236Y830539D02*
X485779Y837082D01*
X478600Y831175D02*
X485143Y837718D01*
X477963Y831812D02*
X484506Y838355D01*
X477327Y832448D02*
X483870Y838991D01*
X476690Y833085D02*
X483233Y839628D01*
X476054Y833721D02*
X482597Y840264D01*
X475418Y834357D02*
X481961Y840900D01*
X474541Y834754D02*
X481324Y841537D01*
X473268Y834754D02*
X480268Y841754D01*
X471995Y834754D02*
X478995Y841754D01*
X470723Y834754D02*
X477723Y841754D01*
X469450Y834754D02*
X476450Y841754D01*
X468177Y834754D02*
X475177Y841754D01*
X461404Y829254D02*
X473904Y841754D01*
X460131Y829254D02*
X472631Y841754D01*
X458859Y829254D02*
X471359Y841754D01*
X458315Y829982D02*
X470086Y841754D01*
X458315Y831255D02*
X468813Y841754D01*
X458315Y832528D02*
X467540Y841754D01*
X458315Y833801D02*
X466267Y841754D01*
X458315Y835073D02*
X464995Y841754D01*
X458315Y836346D02*
X463722Y841754D01*
X458315Y837619D02*
X462449Y841754D01*
X458315Y838892D02*
X461176Y841754D01*
X525952Y843754D02*
X534815Y852616D01*
X527225Y843754D02*
X534815Y851343D01*
X528498Y843754D02*
X534815Y850070D01*
X529771Y843754D02*
X534815Y848797D01*
X531044Y843754D02*
X534815Y847524D01*
X532316Y843754D02*
X534815Y846252D01*
X533589Y843754D02*
X534815Y844979D01*
X524680Y843754D02*
X534680Y853754D01*
X523407Y843754D02*
X533407Y853754D01*
X522134Y843754D02*
X532134Y853754D01*
X520861Y843754D02*
X530861Y853754D01*
X519589Y843754D02*
X529589Y853754D01*
X518316Y843754D02*
X528316Y853754D01*
X517043Y843754D02*
X527043Y853754D01*
X515770Y843754D02*
X525770Y853754D01*
X514497Y843754D02*
X524497Y853754D01*
X513225Y843754D02*
X523225Y853754D01*
X511952Y843754D02*
X521952Y853754D01*
X510679Y843754D02*
X520679Y853754D01*
X509406Y843754D02*
X519406Y853754D01*
X508133Y843754D02*
X518133Y853754D01*
X506861Y843754D02*
X516861Y853754D01*
X505588Y843754D02*
X515588Y853754D01*
X504315Y843754D02*
X514315Y853754D01*
X503042Y843754D02*
X513042Y853754D01*
X501769Y843754D02*
X511769Y853754D01*
X500497Y843754D02*
X510497Y853754D01*
X499224Y843754D02*
X509224Y853754D01*
X497951Y843754D02*
X507951Y853754D01*
X496678Y843754D02*
X506678Y853754D01*
X495406Y843754D02*
X505406Y853754D01*
X494133Y843754D02*
X504133Y853754D01*
X492860Y843754D02*
X502860Y853754D01*
X491587Y843754D02*
X501587Y853754D01*
X490668Y844107D02*
X500314Y853754D01*
X490032Y844744D02*
X499042Y853754D01*
X489395Y845380D02*
X497769Y853754D01*
X488759Y846016D02*
X496496Y853754D01*
X488122Y846653D02*
X495223Y853754D01*
X486950Y846754D02*
X493950Y853754D01*
X485678Y846754D02*
X492678Y853754D01*
X484405Y846754D02*
X491405Y853754D01*
X483132Y846754D02*
X490132Y853754D01*
X481859Y846754D02*
X488859Y853754D01*
X480586Y846754D02*
X487586Y853754D01*
X479314Y846754D02*
X486314Y853754D01*
X478041Y846754D02*
X485041Y853754D01*
X476768Y846754D02*
X483768Y853754D01*
X475495Y846754D02*
X482495Y853754D01*
X474223Y846754D02*
X481223Y853754D01*
X472950Y846754D02*
X479950Y853754D01*
X471677Y846754D02*
X478677Y853754D01*
X470404Y846754D02*
X477404Y853754D01*
X469131Y846754D02*
X476131Y853754D01*
X467859Y846754D02*
X474859Y853754D01*
X466586Y846754D02*
X473586Y853754D01*
X465313Y846754D02*
X472313Y853754D01*
X464040Y846754D02*
X471040Y853754D01*
X462767Y846754D02*
X469767Y853754D01*
X461495Y846754D02*
X468495Y853754D01*
X460222Y846754D02*
X467222Y853754D01*
X458949Y846754D02*
X465949Y853754D01*
X457676Y846754D02*
X464676Y853754D01*
X456403Y846754D02*
X463403Y853754D01*
X455131Y846754D02*
X462131Y853754D01*
X453858Y846754D02*
X460858Y853754D01*
X452585Y846754D02*
X459585Y853754D01*
X451312Y846754D02*
X458312Y853754D01*
X450039Y846754D02*
X457039Y853754D01*
X448767Y846754D02*
X455767Y853754D01*
X432994Y832254D02*
X454494Y853754D01*
X431721Y832254D02*
X453221Y853754D01*
X430448Y832254D02*
X451948Y853754D01*
X429176Y832254D02*
X450676Y853754D01*
X438315Y842665D02*
X449403Y853754D01*
X438315Y843938D02*
X448130Y853754D01*
X438315Y845211D02*
X446857Y853754D01*
X434267Y832254D02*
X445815Y843801D01*
X435539Y832254D02*
X445815Y842529D01*
X436812Y832254D02*
X445815Y841256D01*
X438085Y832254D02*
X445815Y839983D01*
X439358Y832254D02*
X445815Y838710D01*
X440631Y832254D02*
X445815Y837437D01*
X441903Y832254D02*
X445815Y836165D01*
X443176Y832254D02*
X445815Y834892D01*
X444449Y832254D02*
X445815Y833619D01*
X438315Y846484D02*
X445584Y853754D01*
X438315Y847756D02*
X444312Y853754D01*
X438315Y849029D02*
X443039Y853754D01*
X438315Y850302D02*
X441766Y853754D01*
X428315Y832665D02*
X436903Y841254D01*
X428315Y833938D02*
X435630Y841254D01*
X428315Y835211D02*
X434357Y841254D01*
X428315Y836484D02*
X433084Y841254D01*
X428315Y837756D02*
X431812Y841254D01*
X428315Y839029D02*
X430539Y841254D01*
X428315Y840302D02*
X429266Y841254D01*
X523862Y742754D02*
X535315Y754206D01*
X525135Y742754D02*
X535315Y752933D01*
X526408Y742754D02*
X535315Y751660D01*
X527680Y742754D02*
X535315Y750388D01*
X528953Y742754D02*
X535315Y749115D01*
X530226Y742754D02*
X535315Y747842D01*
X531499Y742754D02*
X535315Y746569D01*
X532772Y742754D02*
X535315Y745296D01*
X534044Y742754D02*
X535315Y744024D01*
X522589Y742754D02*
X534089Y754254D01*
X521316Y742754D02*
X532816Y754254D01*
X520044Y742754D02*
X531544Y754254D01*
X518771Y742754D02*
X530271Y754254D01*
X517498Y742754D02*
X528998Y754254D01*
X516225Y742754D02*
X527725Y754254D01*
X514952Y742754D02*
X526452Y754254D01*
X513680Y742754D02*
X525180Y754254D01*
X512407Y742754D02*
X523907Y754254D01*
X511134Y742754D02*
X522634Y754254D01*
X509861Y742754D02*
X521361Y754254D01*
X508589Y742754D02*
X520089Y754254D01*
X507316Y742754D02*
X518816Y754254D01*
X506043Y742754D02*
X517543Y754254D01*
X504770Y742754D02*
X516270Y754254D01*
X503497Y742754D02*
X514997Y754254D01*
X502225Y742754D02*
X513725Y754254D01*
X500952Y742754D02*
X512452Y754254D01*
X499679Y742754D02*
X511179Y754254D01*
X498406Y742754D02*
X509906Y754254D01*
X497133Y742754D02*
X508633Y754254D01*
X495861Y742754D02*
X507361Y754254D01*
X494588Y742754D02*
X506088Y754254D01*
X493315Y742754D02*
X504815Y754254D01*
X492042Y742754D02*
X503542Y754254D01*
X490769Y742754D02*
X502269Y754254D01*
X489497Y742754D02*
X500997Y754254D01*
X488224Y742754D02*
X499724Y754254D01*
X486951Y742754D02*
X498451Y754254D01*
X485678Y742754D02*
X497178Y754254D01*
X484406Y742754D02*
X495906Y754254D01*
X483133Y742754D02*
X494633Y754254D01*
X481860Y742754D02*
X493360Y754254D01*
X480587Y742754D02*
X492087Y754254D01*
X479314Y742754D02*
X490814Y754254D01*
X478042Y742754D02*
X489542Y754254D01*
X476769Y742754D02*
X488269Y754254D01*
X475496Y742754D02*
X486996Y754254D01*
X474223Y742754D02*
X485723Y754254D01*
X472950Y742754D02*
X484450Y754254D01*
X471678Y742754D02*
X483178Y754254D01*
X470405Y742754D02*
X481905Y754254D01*
X469132Y742754D02*
X480632Y754254D01*
X467859Y742754D02*
X479359Y754254D01*
X466586Y742754D02*
X478086Y754254D01*
X465314Y742754D02*
X476814Y754254D01*
X464041Y742754D02*
X475541Y754254D01*
X462815Y742800D02*
X474268Y754254D01*
X462815Y744073D02*
X472995Y754254D01*
X462815Y745346D02*
X471723Y754254D01*
X462815Y746618D02*
X470450Y754254D01*
X462815Y747891D02*
X469177Y754254D01*
X462815Y749164D02*
X467904Y754254D01*
X462815Y750437D02*
X466631Y754254D01*
X462815Y751709D02*
X465359Y754254D01*
X462815Y752982D02*
X464086Y754254D01*
X524635Y723754D02*
X534815Y733933D01*
X525908Y723754D02*
X534815Y732660D01*
X527180Y723754D02*
X534815Y731388D01*
X528453Y723754D02*
X534815Y730115D01*
X529726Y723754D02*
X534815Y728842D01*
X530999Y723754D02*
X534815Y727569D01*
X532272Y723754D02*
X534815Y726296D01*
X533544Y723754D02*
X534815Y725024D01*
X523362Y723754D02*
X533862Y734254D01*
X522089Y723754D02*
X532589Y734254D01*
X520816Y723754D02*
X531316Y734254D01*
X519544Y723754D02*
X530044Y734254D01*
X518271Y723754D02*
X528771Y734254D01*
X516998Y723754D02*
X527498Y734254D01*
X515725Y723754D02*
X526225Y734254D01*
X514452Y723754D02*
X524952Y734254D01*
X513180Y723754D02*
X523680Y734254D01*
X511907Y723754D02*
X522407Y734254D01*
X510634Y723754D02*
X521134Y734254D01*
X509361Y723754D02*
X519861Y734254D01*
X508089Y723754D02*
X518589Y734254D01*
X506816Y723754D02*
X517316Y734254D01*
X505543Y723754D02*
X516043Y734254D01*
X504270Y723754D02*
X514770Y734254D01*
X502997Y723754D02*
X513497Y734254D01*
X501725Y723754D02*
X512225Y734254D01*
X500452Y723754D02*
X510952Y734254D01*
X499179Y723754D02*
X509679Y734254D01*
X497906Y723754D02*
X508406Y734254D01*
X496633Y723754D02*
X507133Y734254D01*
X495361Y723754D02*
X505861Y734254D01*
X494088Y723754D02*
X504588Y734254D01*
X492815Y723754D02*
X503315Y734254D01*
X491542Y723754D02*
X502042Y734254D01*
X490269Y723754D02*
X500769Y734254D01*
X488997Y723754D02*
X499497Y734254D01*
X487724Y723754D02*
X498224Y734254D01*
X486451Y723754D02*
X496951Y734254D01*
X485178Y723754D02*
X495678Y734254D01*
X483906Y723754D02*
X494406Y734254D01*
X482633Y723754D02*
X493133Y734254D01*
X481360Y723754D02*
X491860Y734254D01*
X480087Y723754D02*
X490587Y734254D01*
X478814Y723754D02*
X489314Y734254D01*
X477542Y723754D02*
X488042Y734254D01*
X476269Y723754D02*
X486769Y734254D01*
X474996Y723754D02*
X485496Y734254D01*
X473723Y723754D02*
X484223Y734254D01*
X472450Y723754D02*
X482950Y734254D01*
X471178Y723754D02*
X481678Y734254D01*
X469905Y723754D02*
X480405Y734254D01*
X468632Y723754D02*
X479132Y734254D01*
X467359Y723754D02*
X477859Y734254D01*
X466086Y723754D02*
X476586Y734254D01*
X464814Y723754D02*
X475314Y734254D01*
X463541Y723754D02*
X474041Y734254D01*
X462268Y723754D02*
X472768Y734254D01*
X460995Y723754D02*
X471495Y734254D01*
X459723Y723754D02*
X470223Y734254D01*
X458450Y723754D02*
X468950Y734254D01*
X457177Y723754D02*
X467677Y734254D01*
X455904Y723754D02*
X466404Y734254D01*
X454631Y723754D02*
X465131Y734254D01*
X453359Y723754D02*
X463859Y734254D01*
X452086Y723754D02*
X462586Y734254D01*
X450813Y723754D02*
X461313Y734254D01*
X449540Y723754D02*
X460040Y734254D01*
X448267Y723754D02*
X458767Y734254D01*
X446995Y723754D02*
X457495Y734254D01*
X445722Y723754D02*
X456222Y734254D01*
X444735Y724040D02*
X454949Y734254D01*
X444099Y724676D02*
X453676Y734254D01*
X443463Y725313D02*
X452403Y734254D01*
X442826Y725949D02*
X451131Y734254D01*
X442190Y726585D02*
X449858Y734254D01*
X441553Y727222D02*
X449096Y734765D01*
X440917Y727858D02*
X448460Y735401D01*
X440281Y728495D02*
X447823Y736037D01*
X439644Y729131D02*
X447187Y736674D01*
X439008Y729767D02*
X446551Y737310D01*
X438371Y730404D02*
X445914Y737947D01*
X437735Y731040D02*
X445278Y738583D01*
X437099Y731677D02*
X444641Y739219D01*
X436462Y732313D02*
X444005Y739856D01*
X435826Y732949D02*
X443369Y740492D01*
X435189Y733586D02*
X442732Y741129D01*
X434553Y734222D02*
X442096Y741765D01*
X433917Y734859D02*
X441459Y742401D01*
X433280Y735495D02*
X440823Y743038D01*
X432815Y736302D02*
X440187Y743674D01*
X432815Y737575D02*
X439550Y744311D01*
X432815Y738848D02*
X438914Y744947D01*
X432815Y740120D02*
X438278Y745583D01*
X432815Y741393D02*
X437641Y746220D01*
X432815Y742666D02*
X437005Y746856D01*
X432815Y743939D02*
X436129Y747254D01*
X432815Y745212D02*
X434856Y747254D01*
X432815Y746484D02*
X433584Y747254D01*
X460815Y788707D02*
X472815Y800707D01*
X460815Y787434D02*
X472815Y799434D01*
X460815Y786161D02*
X472815Y798161D01*
X460815Y784888D02*
X472815Y796888D01*
X460815Y783616D02*
X472815Y795616D01*
X460815Y782343D02*
X472815Y794343D01*
X460815Y781070D02*
X472815Y793070D01*
X460815Y779797D02*
X472815Y791797D01*
X460815Y778524D02*
X472815Y790524D01*
X460815Y777252D02*
X472815Y789252D01*
X460815Y775979D02*
X472815Y787979D01*
X461362Y775254D02*
X472815Y786706D01*
X462635Y775254D02*
X472815Y785433D01*
X463908Y775254D02*
X472815Y784160D01*
X465180Y775254D02*
X472815Y782888D01*
X466453Y775254D02*
X472815Y781615D01*
X467726Y775254D02*
X472815Y780342D01*
X468999Y775254D02*
X472815Y779069D01*
X470272Y775254D02*
X472815Y777796D01*
X460815Y789979D02*
X472223Y801388D01*
X460815Y791252D02*
X471587Y802024D01*
X460815Y792525D02*
X470543Y802254D01*
X460815Y793798D02*
X469270Y802254D01*
X460815Y795071D02*
X467997Y802254D01*
X460815Y796343D02*
X466725Y802254D01*
X460815Y797616D02*
X465452Y802254D01*
X460815Y798889D02*
X464179Y802254D01*
X460815Y800162D02*
X462906Y802254D01*
X460815Y801435D02*
X461633Y802254D01*
X462239Y897682D02*
X467315Y902758D01*
X462515Y896685D02*
X467315Y901485D01*
X462515Y895413D02*
X467315Y900213D01*
X462515Y894140D02*
X467315Y898940D01*
X462515Y892867D02*
X467315Y897667D01*
X462515Y891594D02*
X467315Y896394D01*
X462436Y890243D02*
X467315Y895121D01*
X423315Y849849D02*
X467315Y893849D01*
X423315Y848576D02*
X467315Y892576D01*
X423315Y847303D02*
X467315Y891303D01*
X423315Y846030D02*
X467315Y890030D01*
X437811Y859254D02*
X467315Y888757D01*
X439083Y859254D02*
X467315Y887485D01*
X440356Y859254D02*
X467315Y886212D01*
X441629Y859254D02*
X467315Y884939D01*
X442902Y859254D02*
X467315Y883666D01*
X444175Y859254D02*
X467315Y882393D01*
X445447Y859254D02*
X467315Y881121D01*
X457434Y869967D02*
X467315Y879848D01*
X459645Y870906D02*
X467315Y878575D01*
X460926Y870914D02*
X467315Y877302D01*
X461946Y870661D02*
X467315Y876029D01*
X462800Y870242D02*
X467315Y874757D01*
X463521Y869690D02*
X467315Y873484D01*
X464118Y869015D02*
X467315Y872211D01*
X464587Y868211D02*
X467315Y870938D01*
X464906Y867257D02*
X467315Y869666D01*
X465012Y866090D02*
X467315Y868393D01*
X464662Y864467D02*
X467315Y867120D01*
X460721Y859254D02*
X467315Y865847D01*
X461994Y859254D02*
X467315Y864574D01*
X463266Y859254D02*
X467315Y863302D01*
X464539Y859254D02*
X467315Y862029D01*
X461563Y898280D02*
X467073Y903789D01*
X460464Y898454D02*
X466436Y904425D01*
X459192Y898454D02*
X465800Y905062D01*
X457919Y898454D02*
X465163Y905698D01*
X456646Y898454D02*
X463947Y905754D01*
X455373Y898454D02*
X462674Y905754D01*
X459448Y859254D02*
X462101Y861906D01*
X423315Y867668D02*
X461401Y905754D01*
X423315Y851121D02*
X461325Y889132D01*
X458175Y859254D02*
X460478Y861556D01*
X422700Y868326D02*
X460128Y905754D01*
X423315Y852394D02*
X459974Y889053D01*
X456902Y859254D02*
X459311Y861662D01*
X422063Y868962D02*
X458855Y905754D01*
X423315Y853667D02*
X458701Y889053D01*
X455630Y859254D02*
X458357Y861981D01*
X421427Y869598D02*
X457583Y905754D01*
X454357Y859254D02*
X457553Y862450D01*
X423315Y854940D02*
X457428Y889053D01*
X453084Y859254D02*
X456878Y863047D01*
X446720Y859254D02*
X456601Y869134D01*
X451811Y859254D02*
X456326Y863768D01*
X420790Y870235D02*
X456310Y905754D01*
X423315Y856213D02*
X456155Y889053D01*
X450539Y859254D02*
X455907Y864622D01*
X447993Y859254D02*
X455662Y866923D01*
X449266Y859254D02*
X455654Y865642D01*
X420154Y870871D02*
X455037Y905754D01*
X423315Y857485D02*
X454883Y889053D01*
X423315Y858758D02*
X453886Y889329D01*
X419518Y871507D02*
X453764Y905754D01*
X423315Y860031D02*
X453288Y890005D01*
X423315Y866395D02*
X453114Y896195D01*
X423315Y865122D02*
X453114Y894922D01*
X423315Y863849D02*
X453114Y893649D01*
X423315Y862576D02*
X453114Y892376D01*
X423315Y861304D02*
X453114Y891104D01*
X418491Y871754D02*
X452491Y905754D01*
X417218Y871754D02*
X451219Y905754D01*
X415945Y871754D02*
X449946Y905754D01*
X428623Y885704D02*
X448673Y905754D01*
X429259Y887613D02*
X447400Y905754D01*
X444407Y706751D02*
X447313Y709657D01*
X443134Y706751D02*
X447312Y710929D01*
X441861Y706751D02*
X447311Y712201D01*
X440589Y706751D02*
X447310Y713473D01*
X439316Y706751D02*
X447309Y714745D01*
X438043Y706751D02*
X447309Y716017D01*
X436770Y706751D02*
X446688Y716669D01*
X429353Y888980D02*
X446128Y905754D01*
X435497Y706751D02*
X446051Y717305D01*
X434225Y706751D02*
X445414Y717940D01*
X429217Y890116D02*
X444855Y905754D01*
X432952Y706751D02*
X444446Y718245D01*
X428931Y891104D02*
X443582Y905754D01*
X431679Y706751D02*
X443173Y718245D01*
X428531Y891976D02*
X442309Y905754D01*
X430406Y706751D02*
X441900Y718245D01*
X428034Y892751D02*
X441036Y905754D01*
X429133Y706751D02*
X440627Y718245D01*
X427447Y893438D02*
X439764Y905754D01*
X427861Y706751D02*
X439354Y718245D01*
X426775Y894039D02*
X438491Y905754D01*
X426588Y706751D02*
X438082Y718245D01*
X426015Y894551D02*
X437218Y905754D01*
X425315Y706751D02*
X436809Y718245D01*
X425160Y894969D02*
X435945Y905754D01*
X424042Y706751D02*
X435536Y718245D01*
X423916Y845359D02*
X434815Y856257D01*
X424552Y844723D02*
X434815Y854985D01*
X425189Y844086D02*
X434815Y853712D01*
X426129Y843754D02*
X434815Y852439D01*
X427402Y843754D02*
X434815Y851166D01*
X428675Y843754D02*
X434815Y849893D01*
X429947Y843754D02*
X434815Y848621D01*
X431220Y843754D02*
X434815Y847348D01*
X424193Y895275D02*
X434672Y905754D01*
X422769Y706751D02*
X434263Y718245D01*
X423085Y895440D02*
X433400Y905754D01*
X421497Y706751D02*
X432990Y718245D01*
X421767Y895394D02*
X432127Y905754D01*
X420224Y706751D02*
X431718Y718245D01*
X420007Y894907D02*
X430854Y905754D01*
X418951Y706751D02*
X430445Y718245D01*
X395581Y871754D02*
X429581Y905754D01*
X417678Y706751D02*
X429172Y718245D01*
X394308Y871754D02*
X428308Y905754D01*
X416406Y706751D02*
X427899Y718245D01*
X393035Y871754D02*
X427036Y905754D01*
X415133Y706751D02*
X426627Y718245D01*
X391762Y871754D02*
X425763Y905754D01*
X414672Y871754D02*
X425707Y882788D01*
X413860Y706751D02*
X425354Y718245D01*
X390489Y871754D02*
X424490Y905754D01*
X412587Y706751D02*
X424081Y718245D01*
X413400Y871754D02*
X423797Y882151D01*
X389217Y871754D02*
X423217Y905754D01*
X411314Y706751D02*
X422808Y718245D01*
X412127Y871754D02*
X422431Y882057D01*
X387944Y871754D02*
X421945Y905754D01*
X410042Y706751D02*
X421535Y718245D01*
X410854Y871754D02*
X421294Y882194D01*
X386671Y871754D02*
X420672Y905754D01*
X409581Y871754D02*
X420307Y882479D01*
X408769Y706751D02*
X420263Y718245D01*
X408309Y871754D02*
X419434Y882879D01*
X385398Y871754D02*
X419399Y905754D01*
X407496Y706751D02*
X418990Y718245D01*
X407036Y871754D02*
X418659Y883377D01*
X384801Y872429D02*
X418126Y905754D01*
X405763Y871754D02*
X417973Y883963D01*
X406223Y706751D02*
X417717Y718245D01*
X404490Y871754D02*
X417372Y884635D01*
X403217Y871754D02*
X416859Y885395D01*
X385015Y873915D02*
X416853Y905754D01*
X396853Y871754D02*
X416503Y891403D01*
X404950Y706751D02*
X416444Y718245D01*
X401945Y871754D02*
X416442Y886251D01*
X400672Y871754D02*
X416136Y887217D01*
X398126Y871754D02*
X416016Y889644D01*
X399399Y871754D02*
X415971Y888325D01*
X385015Y875188D02*
X415581Y905754D01*
X410006Y713079D02*
X415171Y718245D01*
X385015Y876461D02*
X414308Y905754D01*
X410015Y714361D02*
X413899Y718245D01*
X385015Y877734D02*
X413035Y905754D01*
X410015Y715634D02*
X412626Y718245D01*
X385015Y879006D02*
X411762Y905754D01*
X410015Y716906D02*
X411353Y718245D01*
X384805Y880070D02*
X410489Y905754D01*
X384179Y880717D02*
X409217Y905754D01*
X403678Y706751D02*
X408489Y711562D01*
X383143Y880954D02*
X407944Y905754D01*
X402405Y706751D02*
X407207Y711553D01*
X381870Y880954D02*
X406671Y905754D01*
X401132Y706751D02*
X405934Y711553D01*
X384909Y885265D02*
X405398Y905754D01*
X399859Y706751D02*
X404662Y711553D01*
X385000Y886628D02*
X404125Y905754D01*
X398586Y706751D02*
X403389Y711553D01*
X384789Y887691D02*
X402853Y905754D01*
X397314Y706751D02*
X402127Y711564D01*
X384401Y888575D02*
X401580Y905754D01*
X396041Y706751D02*
X401232Y711942D01*
X394768Y706751D02*
X400710Y712693D01*
X389677Y706751D02*
X400614Y717689D01*
X390950Y706751D02*
X400614Y716416D01*
X392223Y706751D02*
X400614Y715143D01*
X393495Y706751D02*
X400614Y713870D01*
X383875Y889322D02*
X400307Y905754D01*
X388404Y706751D02*
X399898Y718245D01*
X383224Y889944D02*
X399034Y905754D01*
X387131Y706751D02*
X398625Y718245D01*
X384993Y892986D02*
X397761Y905754D01*
X385859Y706751D02*
X397352Y718245D01*
X385015Y894280D02*
X396489Y905754D01*
X384586Y706751D02*
X396080Y718245D01*
X385015Y895553D02*
X395216Y905754D01*
X383313Y706751D02*
X394807Y718245D01*
X385015Y896826D02*
X393943Y905754D01*
X382040Y706751D02*
X393534Y718245D01*
X385015Y898098D02*
X392670Y905754D01*
X380767Y706751D02*
X392261Y718245D01*
X385011Y899367D02*
X391398Y905754D01*
X379495Y706751D02*
X390988Y718245D01*
X384661Y900291D02*
X390125Y905754D01*
X378222Y706751D02*
X389716Y718245D01*
X383934Y900836D02*
X388852Y905754D01*
X376949Y706751D02*
X388443Y718245D01*
X382779Y900954D02*
X387579Y905754D01*
X375676Y706751D02*
X387170Y718245D01*
X381506Y900954D02*
X386306Y905754D01*
X374403Y706751D02*
X385897Y718245D01*
X380233Y900954D02*
X385034Y905754D01*
X373131Y706751D02*
X384624Y718245D01*
X384126Y871754D02*
X384139Y871767D01*
X378960Y900954D02*
X383761Y905754D01*
X382449Y890441D02*
X383582Y891575D01*
X371858Y706751D02*
X383352Y718245D01*
X377687Y900954D02*
X382488Y905754D01*
X381529Y890794D02*
X382288Y891553D01*
X370585Y706751D02*
X382079Y718245D01*
X380598Y880954D02*
X381303Y881659D01*
X368808Y893347D02*
X381215Y905754D01*
X380414Y890952D02*
X381015Y891553D01*
X369312Y706751D02*
X380806Y718245D01*
X367639Y893450D02*
X379942Y905754D01*
X379325Y880954D02*
X379940Y881568D01*
X378936Y890747D02*
X379742Y891553D01*
X368040Y706751D02*
X379533Y718245D01*
X378052Y880954D02*
X378877Y881779D01*
X368924Y861643D02*
X378834Y871553D01*
X366008Y893092D02*
X378670Y905754D01*
X370115Y883198D02*
X378470Y891553D01*
X366767Y706751D02*
X378261Y718245D01*
X376640Y880814D02*
X377993Y882167D01*
X367651Y861643D02*
X377562Y871553D01*
X345004Y873361D02*
X377397Y905754D01*
X371338Y876785D02*
X377246Y882693D01*
X371567Y885924D02*
X377201Y891557D01*
X365494Y706751D02*
X376988Y718245D01*
X370680Y877400D02*
X376624Y883344D01*
X366378Y861643D02*
X376498Y871763D01*
X372469Y888098D02*
X376277Y891907D01*
X370115Y878107D02*
X376127Y884120D01*
X344930Y874560D02*
X376124Y905754D01*
X365105Y861643D02*
X375851Y872389D01*
X370115Y881926D02*
X375821Y887632D01*
X370115Y879380D02*
X375774Y885039D01*
X371872Y876046D02*
X375754Y879928D01*
X372473Y889375D02*
X375732Y892634D01*
X364221Y706751D02*
X375715Y718245D01*
X370115Y880653D02*
X375616Y886154D01*
X369764Y893030D02*
X375614Y898881D01*
X370569Y892562D02*
X375614Y897608D01*
X371245Y891966D02*
X375614Y896335D01*
X371799Y891247D02*
X375614Y895062D01*
X372219Y890394D02*
X375614Y893789D01*
X372270Y875171D02*
X375614Y878516D01*
X372493Y874122D02*
X375614Y877243D01*
X372430Y872786D02*
X375614Y875970D01*
X362560Y861643D02*
X375614Y874698D01*
X363833Y861643D02*
X375614Y873425D01*
X344631Y875534D02*
X374851Y905754D01*
X362948Y706751D02*
X374442Y718245D01*
X344177Y876353D02*
X373578Y905754D01*
X361676Y706751D02*
X373169Y718245D01*
X343594Y877042D02*
X372306Y905754D01*
X360403Y706751D02*
X371897Y718245D01*
X342887Y877608D02*
X371033Y905754D01*
X370115Y884471D02*
X370644Y885001D01*
X359130Y706751D02*
X370624Y718245D01*
X342049Y878043D02*
X369760Y905754D01*
X357857Y706751D02*
X369351Y718245D01*
X361287Y861643D02*
X368704Y869060D01*
X341050Y878317D02*
X368487Y905754D01*
X356584Y706751D02*
X368078Y718245D01*
X360014Y861643D02*
X367367Y868996D01*
X339808Y878347D02*
X367215Y905754D01*
X355312Y706751D02*
X366805Y718245D01*
X358741Y861643D02*
X366318Y869219D01*
X337887Y877699D02*
X365942Y905754D01*
X354039Y706751D02*
X365533Y718245D01*
X343468Y861643D02*
X365514Y883689D01*
X344741Y861643D02*
X365514Y882417D01*
X346014Y861643D02*
X365514Y881144D01*
X347286Y861643D02*
X365514Y879871D01*
X348559Y861643D02*
X365514Y878598D01*
X357469Y861643D02*
X365443Y869617D01*
X342195Y861643D02*
X365321Y884769D01*
X356196Y861643D02*
X364704Y870151D01*
X320558Y861643D02*
X364669Y905754D01*
X340922Y861643D02*
X364602Y885323D01*
X352766Y706751D02*
X364260Y718245D01*
X354923Y861643D02*
X364089Y870809D01*
X339650Y861643D02*
X364006Y885999D01*
X353650Y861643D02*
X363601Y871593D01*
X338377Y861643D02*
X363538Y886804D01*
X344547Y871632D02*
X363476Y890560D01*
X319285Y861643D02*
X363396Y905754D01*
X349832Y861643D02*
X363358Y875170D01*
X352378Y861643D02*
X363258Y872523D01*
X337104Y861643D02*
X363221Y887760D01*
X335831Y861643D02*
X363118Y888929D01*
X351105Y861643D02*
X363115Y873653D01*
X351493Y706751D02*
X362987Y718245D01*
X318012Y861643D02*
X362123Y905754D01*
X350220Y706751D02*
X361714Y718245D01*
X316739Y861643D02*
X360851Y905754D01*
X348948Y706751D02*
X360441Y718245D01*
X315467Y861643D02*
X359578Y905754D01*
X347675Y706751D02*
X359169Y718245D01*
X314413Y861862D02*
X358305Y905754D01*
X346402Y706751D02*
X357896Y718245D01*
X313777Y862499D02*
X357032Y905754D01*
X345129Y706751D02*
X356623Y718245D01*
X313140Y863135D02*
X355759Y905754D01*
X343856Y706751D02*
X355350Y718245D01*
X313093Y864361D02*
X354487Y905754D01*
X342584Y706751D02*
X354077Y718245D01*
X313093Y865634D02*
X353214Y905754D01*
X341311Y706751D02*
X352805Y718245D01*
X313093Y866906D02*
X351941Y905754D01*
X340038Y706751D02*
X351532Y718245D01*
X327316Y882402D02*
X350668Y905754D01*
X338765Y706751D02*
X350259Y718245D01*
X327513Y883872D02*
X349395Y905754D01*
X337493Y706751D02*
X348986Y718245D01*
X327351Y884982D02*
X348123Y905754D01*
X336220Y706751D02*
X347714Y718245D01*
X326996Y885900D02*
X346850Y905754D01*
X334947Y706751D02*
X346441Y718245D01*
X326497Y886674D02*
X345577Y905754D01*
X333674Y706751D02*
X345168Y718245D01*
X325873Y887322D02*
X344304Y905754D01*
X332401Y706751D02*
X343895Y718245D01*
X325124Y887847D02*
X343032Y905754D01*
X331129Y706751D02*
X342622Y718245D01*
X334558Y861643D02*
X342358Y869442D01*
X324238Y888233D02*
X341759Y905754D01*
X329856Y706751D02*
X341350Y718245D01*
X333286Y861643D02*
X340628Y868985D01*
X323172Y888440D02*
X340486Y905754D01*
X328583Y706751D02*
X340077Y718245D01*
X332013Y861643D02*
X339429Y869059D01*
X321802Y888343D02*
X339213Y905754D01*
X327310Y706751D02*
X338804Y718245D01*
X330740Y861643D02*
X338455Y869358D01*
X313093Y880907D02*
X337940Y905754D01*
X329467Y861643D02*
X337637Y869812D01*
X326037Y706751D02*
X337531Y718245D01*
X328194Y861643D02*
X336947Y870396D01*
X313093Y882180D02*
X336668Y905754D01*
X326922Y861643D02*
X336381Y871102D01*
X321831Y861643D02*
X336290Y876102D01*
X334197Y716183D02*
X336258Y718245D01*
X325649Y861643D02*
X335946Y871940D01*
X324376Y861643D02*
X335672Y872939D01*
X323103Y861643D02*
X335642Y874181D01*
X313093Y883453D02*
X335395Y905754D01*
X334977Y718236D02*
X334986Y718245D01*
X312571Y884204D02*
X334122Y905754D01*
X324765Y706751D02*
X332963Y714950D01*
X311935Y884840D02*
X332849Y905754D01*
X311299Y885476D02*
X331576Y905754D01*
X323492Y706751D02*
X330911Y714170D01*
X310662Y886113D02*
X330304Y905754D01*
X322219Y706751D02*
X329648Y714180D01*
X310026Y886749D02*
X329031Y905754D01*
X320946Y706751D02*
X328637Y714442D01*
X319673Y706751D02*
X327790Y714868D01*
X309390Y887386D02*
X327758Y905754D01*
X318401Y706751D02*
X327076Y715426D01*
X308753Y888022D02*
X326485Y905754D01*
X317128Y706751D02*
X326485Y716108D01*
X315855Y706751D02*
X326022Y716918D01*
X314582Y706751D02*
X325712Y717881D01*
X308117Y888658D02*
X325212Y905754D01*
X313310Y706751D02*
X324803Y718245D01*
X313093Y868179D02*
X324166Y879252D01*
X307480Y889295D02*
X323940Y905754D01*
X312037Y706751D02*
X323531Y718245D01*
X313093Y869452D02*
X322696Y879055D01*
X306844Y889931D02*
X322667Y905754D01*
X310764Y706751D02*
X322258Y718245D01*
X313093Y870725D02*
X321586Y879217D01*
X306208Y890568D02*
X321394Y905754D01*
X309491Y706751D02*
X320985Y718245D01*
X313093Y871998D02*
X320668Y879572D01*
X305571Y891204D02*
X320121Y905754D01*
X313093Y873270D02*
X319894Y880071D01*
X308218Y706751D02*
X319712Y718245D01*
X313093Y874543D02*
X319246Y880695D01*
X304848Y891754D02*
X318848Y905754D01*
X313093Y875816D02*
X318721Y881444D01*
X306946Y706751D02*
X318439Y718245D01*
X313093Y877089D02*
X318335Y882330D01*
X313093Y879634D02*
X318225Y884766D01*
X313093Y878362D02*
X318128Y883396D01*
X303575Y891754D02*
X317576Y905754D01*
X305673Y706751D02*
X317167Y718245D01*
X302302Y891754D02*
X316303Y905754D01*
X304400Y706751D02*
X315894Y718245D01*
X301030Y891754D02*
X315030Y905754D01*
X303127Y706751D02*
X314621Y718245D01*
X299757Y891754D02*
X313757Y905754D01*
X301854Y706751D02*
X313348Y718245D01*
X298484Y891754D02*
X312485Y905754D01*
X300582Y706751D02*
X312075Y718245D01*
X297211Y891754D02*
X311212Y905754D01*
X299309Y706751D02*
X310803Y718245D01*
X295938Y891754D02*
X309939Y905754D01*
X298036Y706751D02*
X309530Y718245D01*
X294666Y891754D02*
X308666Y905754D01*
X296763Y706751D02*
X308257Y718245D01*
X293393Y891754D02*
X307393Y905754D01*
X295490Y706751D02*
X306984Y718245D01*
X292120Y891754D02*
X306121Y905754D01*
X294218Y706751D02*
X305711Y718245D01*
X290847Y891754D02*
X304848Y905754D01*
X292945Y706751D02*
X304439Y718245D01*
X280813Y882992D02*
X303575Y905754D01*
X291672Y706751D02*
X303166Y718245D01*
X280813Y884265D02*
X302302Y905754D01*
X290399Y706751D02*
X301893Y718245D01*
X280813Y885538D02*
X301029Y905754D01*
X289127Y706751D02*
X300620Y718245D01*
X280813Y886811D02*
X299757Y905754D01*
X287854Y706751D02*
X299348Y718245D01*
X280813Y888084D02*
X298484Y905754D01*
X286581Y706751D02*
X298075Y718245D01*
X280813Y889356D02*
X297211Y905754D01*
X285308Y706751D02*
X296802Y718245D01*
X280813Y890629D02*
X295938Y905754D01*
X284035Y706751D02*
X295529Y718245D01*
X280813Y891902D02*
X294665Y905754D01*
X282892Y706881D02*
X294256Y718245D01*
X280813Y893175D02*
X293393Y905754D01*
X282256Y707517D02*
X292984Y718245D01*
X281619Y708153D02*
X292162Y718696D01*
X280813Y894447D02*
X292120Y905754D01*
X280983Y708790D02*
X291531Y719338D01*
X280813Y709893D02*
X290900Y719980D01*
X280813Y895720D02*
X290847Y905754D01*
X280813Y711166D02*
X290269Y720622D01*
X280813Y712439D02*
X289638Y721264D01*
X280813Y896993D02*
X289574Y905754D01*
X280813Y713711D02*
X289008Y721906D01*
X280813Y714984D02*
X288377Y722548D01*
X280813Y898266D02*
X288302Y905754D01*
X280813Y881720D02*
X287815Y888721D01*
X280813Y880447D02*
X287815Y887448D01*
X280813Y879174D02*
X287815Y886175D01*
X280813Y877901D02*
X287815Y884902D01*
X280813Y876628D02*
X287815Y883630D01*
X280813Y875356D02*
X287815Y882357D01*
X280813Y874083D02*
X287815Y881084D01*
X280813Y872810D02*
X287815Y879811D01*
X280813Y871537D02*
X287815Y878538D01*
X280813Y870264D02*
X287815Y877266D01*
X280813Y868992D02*
X287815Y875993D01*
X280813Y867719D02*
X287815Y874720D01*
X280813Y866446D02*
X287815Y873447D01*
X280813Y865173D02*
X287815Y872175D01*
X280813Y863901D02*
X287815Y870902D01*
X280813Y862628D02*
X287815Y869629D01*
X280813Y861355D02*
X287815Y868356D01*
X280813Y860082D02*
X287815Y867083D01*
X280813Y858809D02*
X287815Y865811D01*
X280813Y857537D02*
X287815Y864538D01*
X280813Y856264D02*
X287815Y863265D01*
X280813Y854991D02*
X287815Y861992D01*
X280813Y853718D02*
X287815Y860719D01*
X280813Y852445D02*
X287815Y859447D01*
X280813Y851173D02*
X287815Y858174D01*
X280813Y849900D02*
X287815Y856901D01*
X280813Y848627D02*
X287815Y855628D01*
X280813Y847354D02*
X287815Y854355D01*
X280813Y846081D02*
X287815Y853083D01*
X280813Y844809D02*
X287815Y851810D01*
X280813Y843536D02*
X287815Y850537D01*
X280813Y842263D02*
X287815Y849264D01*
X280813Y840990D02*
X287815Y847992D01*
X280813Y839718D02*
X287815Y846719D01*
X280813Y838445D02*
X287815Y845446D01*
X280813Y837172D02*
X287815Y844173D01*
X280813Y835899D02*
X287815Y842900D01*
X280813Y834626D02*
X287815Y841628D01*
X280813Y833354D02*
X287815Y840355D01*
X280813Y832081D02*
X287815Y839082D01*
X280813Y830808D02*
X287815Y837809D01*
X280813Y829535D02*
X287815Y836536D01*
X280813Y828262D02*
X287815Y835264D01*
X280813Y826990D02*
X287815Y833991D01*
X280813Y825717D02*
X287815Y832718D01*
X280813Y824444D02*
X287815Y831445D01*
X280813Y823171D02*
X287815Y830172D01*
X280813Y821898D02*
X287815Y828900D01*
X280813Y820626D02*
X287815Y827627D01*
X280813Y819353D02*
X287815Y826354D01*
X280813Y818080D02*
X287815Y825081D01*
X280813Y816807D02*
X287815Y823809D01*
X280813Y815535D02*
X287815Y822536D01*
X280813Y814262D02*
X287815Y821263D01*
X280813Y812989D02*
X287815Y819990D01*
X280813Y811716D02*
X287815Y818717D01*
X280813Y810443D02*
X287815Y817445D01*
X280813Y809171D02*
X287815Y816172D01*
X280813Y807898D02*
X287815Y814899D01*
X280813Y806625D02*
X287815Y813626D01*
X280813Y805352D02*
X287815Y812353D01*
X280813Y804079D02*
X287815Y811081D01*
X280813Y802807D02*
X287815Y809808D01*
X280813Y801534D02*
X287815Y808535D01*
X280813Y800261D02*
X287815Y807262D01*
X280813Y798988D02*
X287815Y805989D01*
X280813Y797715D02*
X287815Y804717D01*
X280813Y796443D02*
X287815Y803444D01*
X280813Y795170D02*
X287815Y802171D01*
X280813Y793897D02*
X287815Y800898D01*
X280813Y792624D02*
X287815Y799626D01*
X280813Y791352D02*
X287815Y798353D01*
X280813Y790079D02*
X287815Y797080D01*
X280813Y788806D02*
X287815Y795807D01*
X280813Y787533D02*
X287815Y794534D01*
X280813Y786260D02*
X287815Y793262D01*
X280813Y784988D02*
X287815Y791989D01*
X280813Y783715D02*
X287815Y790716D01*
X280813Y782442D02*
X287815Y789443D01*
X280813Y781169D02*
X287815Y788170D01*
X280813Y779896D02*
X287815Y786898D01*
X280813Y778624D02*
X287815Y785625D01*
X280813Y777351D02*
X287815Y784352D01*
X280813Y776078D02*
X287815Y783079D01*
X280813Y774805D02*
X287815Y781806D01*
X280813Y773532D02*
X287815Y780534D01*
X280813Y772260D02*
X287815Y779261D01*
X280813Y770987D02*
X287815Y777988D01*
X280813Y769714D02*
X287815Y776715D01*
X280813Y768441D02*
X287815Y775443D01*
X280813Y767168D02*
X287815Y774170D01*
X280813Y765896D02*
X287815Y772897D01*
X280813Y764623D02*
X287815Y771624D01*
X280813Y763350D02*
X287815Y770351D01*
X280813Y762077D02*
X287815Y769079D01*
X280813Y760805D02*
X287815Y767806D01*
X280813Y759532D02*
X287815Y766533D01*
X280813Y758259D02*
X287815Y765260D01*
X280813Y756986D02*
X287815Y763987D01*
X280813Y755713D02*
X287815Y762715D01*
X280813Y754441D02*
X287815Y761442D01*
X280813Y753168D02*
X287815Y760169D01*
X280813Y751895D02*
X287815Y758896D01*
X280813Y750622D02*
X287815Y757623D01*
X280813Y749349D02*
X287815Y756351D01*
X280813Y748077D02*
X287815Y755078D01*
X280813Y746804D02*
X287815Y753805D01*
X280813Y745531D02*
X287815Y752532D01*
X280813Y744258D02*
X287815Y751259D01*
X280813Y742985D02*
X287815Y749987D01*
X280813Y741713D02*
X287815Y748714D01*
X280813Y740440D02*
X287815Y747441D01*
X280813Y739167D02*
X287815Y746168D01*
X280813Y737894D02*
X287815Y744896D01*
X280813Y736622D02*
X287815Y743623D01*
X280813Y735349D02*
X287815Y742350D01*
X280813Y734076D02*
X287815Y741077D01*
X280813Y732803D02*
X287815Y739804D01*
X280813Y731530D02*
X287815Y738532D01*
X280813Y730258D02*
X287815Y737259D01*
X280813Y728985D02*
X287815Y735986D01*
X280813Y727712D02*
X287815Y734713D01*
X280813Y726439D02*
X287815Y733440D01*
X280813Y725166D02*
X287815Y732168D01*
X280813Y723894D02*
X287815Y730895D01*
X280813Y722621D02*
X287815Y729622D01*
X280813Y721348D02*
X287815Y728349D01*
X280813Y720075D02*
X287815Y727076D01*
X280813Y718802D02*
X287815Y725804D01*
X280813Y717530D02*
X287815Y724531D01*
X280813Y716257D02*
X287815Y723258D01*
X280813Y899539D02*
X287029Y905754D01*
X280813Y900811D02*
X285756Y905754D01*
X280813Y902084D02*
X284483Y905754D01*
X280813Y903357D02*
X283210Y905754D01*
X320952Y744254D02*
X355315Y778616D01*
X322225Y744254D02*
X355315Y777343D01*
X323497Y744254D02*
X355315Y776071D01*
X324770Y744254D02*
X355315Y774798D01*
X326703Y744914D02*
X355315Y773525D01*
X327970Y744908D02*
X355315Y772252D01*
X328983Y744648D02*
X355315Y770979D01*
X329861Y744254D02*
X355315Y769707D01*
X331134Y744254D02*
X355315Y768434D01*
X332407Y744254D02*
X355315Y767161D01*
X333680Y744254D02*
X355315Y765888D01*
X334952Y744254D02*
X355315Y764616D01*
X336225Y744254D02*
X355315Y763343D01*
X337498Y744254D02*
X355315Y762070D01*
X338771Y744254D02*
X355315Y760797D01*
X340044Y744254D02*
X355315Y759524D01*
X341316Y744254D02*
X355315Y758252D01*
X342589Y744254D02*
X355315Y756979D01*
X343862Y744254D02*
X355315Y755706D01*
X345135Y744254D02*
X355315Y754433D01*
X346408Y744254D02*
X355315Y753160D01*
X347680Y744254D02*
X355315Y751888D01*
X348953Y744254D02*
X355315Y750615D01*
X350226Y744254D02*
X355315Y749342D01*
X351499Y744254D02*
X355315Y748069D01*
X352772Y744254D02*
X355315Y746796D01*
X354044Y744254D02*
X355315Y745524D01*
X309175Y774478D02*
X355014Y820318D01*
X309976Y774007D02*
X355014Y819045D01*
X310606Y773364D02*
X355014Y817773D01*
X311065Y772551D02*
X355014Y816500D01*
X311305Y771517D02*
X355014Y815227D01*
X311096Y770036D02*
X355014Y813954D01*
X310115Y767782D02*
X355014Y812682D01*
X310115Y766509D02*
X355014Y811409D01*
X310115Y765236D02*
X355014Y810136D01*
X310115Y763963D02*
X355014Y808863D01*
X310115Y762690D02*
X355014Y807590D01*
X310115Y761418D02*
X355014Y806318D01*
X307372Y757402D02*
X355014Y805045D01*
X307514Y756272D02*
X355014Y803772D01*
X307269Y754753D02*
X355014Y802499D01*
X304448Y750660D02*
X355014Y801226D01*
X305302Y750241D02*
X355014Y799954D01*
X306022Y749689D02*
X355014Y798681D01*
X306619Y749013D02*
X355014Y797408D01*
X307088Y748209D02*
X355014Y796135D01*
X307407Y747255D02*
X355014Y794862D01*
X307512Y746087D02*
X355014Y793590D01*
X307160Y744462D02*
X355014Y792317D01*
X308224Y744254D02*
X355014Y791044D01*
X309497Y744254D02*
X355014Y789771D01*
X351022Y784506D02*
X355014Y788498D01*
X352535Y784747D02*
X355014Y787226D01*
X353579Y784517D02*
X355014Y785953D01*
X354399Y784065D02*
X355014Y784680D01*
X308160Y774736D02*
X354892Y821469D01*
X307408Y775257D02*
X354256Y822105D01*
X307500Y776622D02*
X353619Y822742D01*
X319679Y744254D02*
X353329Y777904D01*
X307291Y777686D02*
X352859Y823254D01*
X318406Y744254D02*
X351928Y777775D01*
X306903Y778571D02*
X351586Y823254D01*
X317133Y744254D02*
X350922Y778042D01*
X306378Y779318D02*
X350313Y823254D01*
X315861Y744254D02*
X350128Y778521D01*
X314588Y744254D02*
X349503Y779169D01*
X310769Y744254D02*
X349062Y782546D01*
X313315Y744254D02*
X349051Y779989D01*
X305728Y779941D02*
X349040Y823254D01*
X312042Y744254D02*
X348821Y781033D01*
X304953Y780439D02*
X347767Y823254D01*
X304034Y780793D02*
X346495Y823254D01*
X307451Y785483D02*
X345222Y823254D01*
X307484Y786788D02*
X343949Y823254D01*
X307245Y787822D02*
X342676Y823254D01*
X306836Y788686D02*
X341403Y823254D01*
X306292Y789415D02*
X340131Y823254D01*
X305625Y790021D02*
X338858Y823254D01*
X304831Y790499D02*
X337585Y823254D01*
X306763Y793704D02*
X336312Y823254D01*
X307481Y795695D02*
X335040Y823254D01*
X307463Y796949D02*
X333767Y823254D01*
X307196Y797955D02*
X332494Y823254D01*
X306766Y798798D02*
X331221Y823254D01*
X306204Y799509D02*
X329948Y823254D01*
X305519Y800097D02*
X328676Y823254D01*
X304706Y800556D02*
X327403Y823254D01*
X307008Y804132D02*
X326130Y823254D01*
X307501Y805897D02*
X324857Y823254D01*
X307437Y807106D02*
X323584Y823254D01*
X307143Y808085D02*
X322312Y823254D01*
X306693Y808908D02*
X321039Y823254D01*
X306114Y809601D02*
X319766Y823254D01*
X305411Y810171D02*
X318493Y823254D01*
X304577Y810610D02*
X317220Y823254D01*
X307162Y814468D02*
X315948Y823254D01*
X307512Y816090D02*
X314675Y823254D01*
X307406Y817257D02*
X313402Y823254D01*
X307087Y818211D02*
X312129Y823254D01*
X306618Y819015D02*
X310856Y823254D01*
X306021Y819690D02*
X309584Y823254D01*
X305300Y820243D02*
X308311Y823254D01*
X304446Y820661D02*
X307323Y823538D01*
X303888Y790829D02*
X305364Y792305D01*
X303738Y800862D02*
X304936Y802060D01*
X303584Y810890D02*
X304600Y811906D01*
X304176Y770752D02*
X304332Y770908D01*
X303429Y750913D02*
X304315Y751799D01*
X303425Y820914D02*
X304309Y821798D01*
X303265Y760932D02*
X304052Y761719D01*
X303096Y770945D02*
X303811Y771660D01*
X302921Y780952D02*
X303585Y781617D01*
X302739Y790953D02*
X303373Y791587D01*
X302550Y800946D02*
X303171Y801567D01*
X302352Y810931D02*
X302978Y811556D01*
X302149Y750906D02*
X302796Y751554D01*
X302145Y820906D02*
X302793Y821554D01*
X301930Y760869D02*
X302618Y761558D01*
X301696Y770819D02*
X302446Y771568D01*
X301445Y780750D02*
X302280Y781584D01*
X301169Y790656D02*
X302119Y791605D01*
X300858Y800527D02*
X301962Y801631D01*
X300483Y810335D02*
X301811Y811662D01*
X300115Y750145D02*
X301666Y751696D01*
X299932Y819966D02*
X301663Y821697D01*
X297333Y757546D02*
X301522Y761735D01*
X297291Y767686D02*
X301382Y771777D01*
X285315Y765892D02*
X301246Y781823D01*
X297196Y787955D02*
X301113Y791872D01*
X297143Y798085D02*
X300983Y801925D01*
X297087Y808211D02*
X300857Y811981D01*
X300109Y751412D02*
X300735Y752038D01*
X297028Y818335D02*
X300733Y822040D01*
X296968Y758453D02*
X300615Y762100D01*
X296903Y768571D02*
X300497Y772165D01*
X285315Y767165D02*
X300382Y782232D01*
X296766Y788798D02*
X300270Y792302D01*
X296693Y798908D02*
X300160Y802375D01*
X296618Y809015D02*
X300053Y812450D01*
X299814Y752390D02*
X299951Y752527D01*
X296540Y819119D02*
X299949Y822528D01*
X296461Y759219D02*
X299849Y762607D01*
X296378Y769318D02*
X299750Y772690D01*
X285315Y768437D02*
X299653Y782776D01*
X296204Y789509D02*
X299559Y792864D01*
X296114Y799601D02*
X299467Y802954D01*
X296021Y809690D02*
X299378Y813047D01*
X299236Y753085D02*
X299293Y753141D01*
X295925Y819777D02*
X299291Y823143D01*
X295829Y759860D02*
X299208Y763239D01*
X295728Y769941D02*
X299127Y773340D01*
X297371Y817405D02*
X299102Y819136D01*
X285315Y769710D02*
X299047Y783443D01*
X295519Y790097D02*
X298971Y793549D01*
X295411Y800171D02*
X298897Y803657D01*
X295300Y810243D02*
X298825Y813768D01*
X298600Y753721D02*
X298758Y753880D01*
X295186Y820311D02*
X298757Y823882D01*
X297406Y807257D02*
X298733Y808585D01*
X295072Y760376D02*
X298692Y763996D01*
X294953Y770439D02*
X298629Y774115D01*
X285315Y770983D02*
X298569Y784237D01*
X297437Y797106D02*
X298541Y798210D01*
X297333Y827549D02*
X298537Y828754D01*
X294706Y790556D02*
X298512Y794362D01*
X294577Y800610D02*
X298458Y804491D01*
X297463Y786950D02*
X298412Y787899D01*
X294446Y810661D02*
X298407Y814622D01*
X297963Y754357D02*
X298360Y754754D01*
X294311Y820709D02*
X298359Y824757D01*
X291445Y770750D02*
X298318Y777623D01*
X294176Y760752D02*
X298316Y764892D01*
X294034Y770793D02*
X298275Y775034D01*
X297500Y766622D02*
X298249Y767372D01*
X296763Y783704D02*
X298239Y785180D01*
X297008Y794132D02*
X298206Y795330D01*
X297510Y826454D02*
X298199Y827143D01*
X297510Y756450D02*
X298199Y757138D01*
X297162Y804468D02*
X298178Y805484D01*
X297514Y816275D02*
X298162Y816923D01*
X297270Y814759D02*
X298154Y815643D01*
X297512Y806090D02*
X298137Y806716D01*
X297349Y755016D02*
X298136Y755803D01*
X297350Y825020D02*
X298136Y825806D01*
X297408Y765257D02*
X298123Y765972D01*
X297501Y795897D02*
X298122Y796518D01*
X292921Y770952D02*
X298116Y776147D01*
X297481Y785695D02*
X298115Y786329D01*
X296967Y828456D02*
X297265Y828754D01*
X285315Y772256D02*
X295364Y782305D01*
X295188Y750310D02*
X295347Y750468D01*
X293738Y790862D02*
X294936Y792060D01*
X294314Y750708D02*
X294711Y751105D01*
X293584Y800890D02*
X294600Y801906D01*
X293425Y810914D02*
X294309Y811798D01*
X293265Y750932D02*
X294052Y751719D01*
X293262Y820932D02*
X294048Y821718D01*
X293096Y760945D02*
X293811Y761660D01*
X285315Y773529D02*
X293373Y781587D01*
X292550Y790946D02*
X293171Y791567D01*
X292352Y800931D02*
X292978Y801556D01*
X292145Y810906D02*
X292793Y811554D01*
X291930Y750869D02*
X292618Y751558D01*
X291925Y820869D02*
X292614Y821558D01*
X291696Y760819D02*
X292446Y761568D01*
X285315Y774801D02*
X292118Y781605D01*
X290858Y790527D02*
X291962Y791631D01*
X290483Y800335D02*
X291811Y801662D01*
X289932Y809966D02*
X291663Y811697D01*
X285315Y745527D02*
X291522Y751735D01*
X285315Y815531D02*
X291519Y821735D01*
X285315Y755709D02*
X291382Y761777D01*
X285315Y776074D02*
X291113Y781872D01*
X285315Y786256D02*
X290983Y791925D01*
X285315Y796439D02*
X290857Y801981D01*
X285315Y806621D02*
X290733Y812040D01*
X285315Y746800D02*
X290615Y752100D01*
X285315Y816803D02*
X290612Y822101D01*
X285315Y756982D02*
X290497Y762165D01*
X285315Y777347D02*
X290270Y782302D01*
X285315Y787529D02*
X290160Y792375D01*
X285315Y797712D02*
X290053Y802450D01*
X285315Y807894D02*
X289949Y812528D01*
X285315Y748073D02*
X289849Y752607D01*
X285315Y818076D02*
X289847Y822609D01*
X285315Y758255D02*
X289750Y762690D01*
X285315Y778620D02*
X289559Y782864D01*
X285315Y788802D02*
X289467Y792954D01*
X285315Y798984D02*
X289378Y803047D01*
X285315Y809167D02*
X289291Y813143D01*
X285315Y749346D02*
X289208Y753239D01*
X285315Y819349D02*
X289207Y823241D01*
X285315Y759528D02*
X289127Y763340D01*
X285315Y805348D02*
X289102Y809136D01*
X285315Y779892D02*
X288971Y783549D01*
X285315Y790075D02*
X288897Y793657D01*
X285315Y800257D02*
X288825Y803768D01*
X285315Y810439D02*
X288757Y813882D01*
X285315Y795166D02*
X288733Y798585D01*
X285315Y750618D02*
X288692Y753996D01*
X285315Y820622D02*
X288691Y823998D01*
X285315Y760801D02*
X288629Y764115D01*
X285315Y784984D02*
X288541Y788210D01*
X285315Y781165D02*
X288512Y784362D01*
X285315Y791348D02*
X288458Y794491D01*
X285315Y801530D02*
X288407Y804622D01*
X287859Y744254D02*
X288360Y744754D01*
X285315Y811712D02*
X288359Y814757D01*
X285315Y825713D02*
X288355Y828754D01*
X285315Y764619D02*
X288318Y767623D01*
X285315Y751891D02*
X288316Y754892D01*
X285315Y821895D02*
X288315Y824895D01*
X285315Y762073D02*
X288275Y765034D01*
X285315Y824440D02*
X288251Y827376D01*
X285315Y754437D02*
X288249Y757372D01*
X285315Y782438D02*
X288206Y785330D01*
X285315Y814258D02*
X288199Y817143D01*
X285315Y744254D02*
X288199Y747138D01*
X285315Y792620D02*
X288178Y795484D01*
X285315Y804075D02*
X288162Y806923D01*
X285315Y802803D02*
X288154Y805643D01*
X285315Y793893D02*
X288137Y796716D01*
X286586Y744254D02*
X288136Y745803D01*
X285315Y812985D02*
X288136Y815806D01*
X285315Y753164D02*
X288123Y755972D01*
X285315Y823167D02*
X288123Y825976D01*
X285315Y783711D02*
X288122Y786518D01*
X285315Y763346D02*
X288116Y766147D01*
X285315Y826986D02*
X287082Y828754D01*
X285315Y828258D02*
X285810Y828754D01*
X417406Y764254D02*
X454315Y801162D01*
X418679Y764254D02*
X454315Y799889D01*
X419952Y764254D02*
X454315Y798616D01*
X421225Y764254D02*
X454315Y797343D01*
X422497Y764254D02*
X454315Y796071D01*
X423770Y764254D02*
X454315Y794798D01*
X425043Y764254D02*
X454315Y793525D01*
X426316Y764254D02*
X454315Y792252D01*
X427589Y764254D02*
X454315Y790979D01*
X428861Y764254D02*
X454315Y789707D01*
X430134Y764254D02*
X454315Y788434D01*
X431407Y764254D02*
X454315Y787161D01*
X432680Y764254D02*
X454315Y785888D01*
X443952Y774254D02*
X454315Y784616D01*
X445225Y774254D02*
X454315Y783343D01*
X446498Y774254D02*
X454315Y782070D01*
X447771Y774254D02*
X454315Y780797D01*
X449044Y774254D02*
X454315Y779524D01*
X450316Y774254D02*
X454315Y778252D01*
X451589Y774254D02*
X454315Y776979D01*
X416133Y764254D02*
X454120Y802240D01*
X414861Y764254D02*
X453484Y802877D01*
X413588Y764254D02*
X452848Y803513D01*
X412315Y764254D02*
X451815Y803754D01*
X411042Y764254D02*
X450542Y803754D01*
X409769Y764254D02*
X449269Y803754D01*
X408497Y764254D02*
X447997Y803754D01*
X407224Y764254D02*
X446724Y803754D01*
X405951Y764254D02*
X445451Y803754D01*
X404678Y764254D02*
X444178Y803754D01*
X403406Y764254D02*
X442906Y803754D01*
X402133Y764254D02*
X441633Y803754D01*
X400860Y764254D02*
X440360Y803754D01*
X399587Y764254D02*
X439087Y803754D01*
X398314Y764254D02*
X438086Y804025D01*
X397042Y764254D02*
X437449Y804661D01*
X395769Y764254D02*
X436813Y805298D01*
X394496Y764254D02*
X436177Y805934D01*
X393223Y764254D02*
X435540Y806571D01*
X391986Y764289D02*
X434904Y807207D01*
X391350Y764925D02*
X434178Y807754D01*
X390713Y765562D02*
X432905Y807754D01*
X390077Y766198D02*
X431632Y807754D01*
X389815Y767209D02*
X430359Y807754D01*
X389815Y768482D02*
X429086Y807754D01*
X389815Y769754D02*
X427814Y807754D01*
X389815Y771027D02*
X426541Y807754D01*
X389815Y772300D02*
X425268Y807754D01*
X389815Y773573D02*
X423995Y807754D01*
X389815Y774846D02*
X422723Y807754D01*
X389815Y776118D02*
X421450Y807754D01*
X389815Y777391D02*
X420177Y807754D01*
X389815Y778664D02*
X418904Y807754D01*
X389815Y779937D02*
X417631Y807754D01*
X389815Y781209D02*
X416359Y807754D01*
X389815Y782482D02*
X415086Y807754D01*
X389815Y783755D02*
X413813Y807754D01*
X389815Y785028D02*
X412540Y807754D01*
X389815Y786301D02*
X411267Y807754D01*
X389815Y787573D02*
X409995Y807754D01*
X389815Y788846D02*
X408722Y807754D01*
X389815Y790119D02*
X407449Y807754D01*
X389815Y791392D02*
X406176Y807754D01*
X389815Y792665D02*
X404903Y807754D01*
X389815Y793937D02*
X403631Y807754D01*
X389815Y795210D02*
X402358Y807754D01*
X389815Y796483D02*
X401085Y807754D01*
X389815Y797756D02*
X399812Y807754D01*
X389815Y799029D02*
X398539Y807754D01*
X389815Y800301D02*
X397267Y807754D01*
X389815Y801574D02*
X395994Y807754D01*
X389815Y802847D02*
X394721Y807754D01*
X389815Y804120D02*
X393448Y807754D01*
X389815Y805392D02*
X392176Y807754D01*
X520815Y786254D02*
X549815Y815254D01*
X520815Y784981D02*
X549815Y813981D01*
X520815Y783708D02*
X549815Y812708D01*
X497633Y759254D02*
X549815Y811435D01*
X498906Y759254D02*
X549815Y810162D01*
X500178Y759254D02*
X549815Y808890D01*
X501451Y759254D02*
X549815Y807617D01*
X502724Y759254D02*
X549815Y806344D01*
X503997Y759254D02*
X549815Y805071D01*
X505269Y759254D02*
X549815Y803799D01*
X506542Y759254D02*
X549815Y802526D01*
X507815Y759254D02*
X549815Y801253D01*
X509088Y759254D02*
X549815Y799980D01*
X510361Y759254D02*
X549815Y798707D01*
X511633Y759254D02*
X549815Y797435D01*
X512906Y759254D02*
X549815Y796162D01*
X514179Y759254D02*
X549815Y794889D01*
X515452Y759254D02*
X549815Y793616D01*
X516725Y759254D02*
X549815Y792343D01*
X517997Y759254D02*
X549815Y791071D01*
X519270Y759254D02*
X549815Y789798D01*
X520543Y759254D02*
X549815Y788525D01*
X521816Y759254D02*
X549815Y787252D01*
X523089Y759254D02*
X549815Y785979D01*
X524361Y759254D02*
X549815Y784707D01*
X525634Y759254D02*
X549815Y783434D01*
X526907Y759254D02*
X549815Y782161D01*
X528180Y759254D02*
X549815Y780888D01*
X529452Y759254D02*
X549815Y779616D01*
X530725Y759254D02*
X549815Y778343D01*
X531998Y759254D02*
X549815Y777070D01*
X533271Y759254D02*
X549815Y775797D01*
X534544Y759254D02*
X549815Y774524D01*
X535816Y759254D02*
X549815Y773252D01*
X537089Y759254D02*
X549815Y771979D01*
X538362Y759254D02*
X549815Y770706D01*
X539635Y759254D02*
X549815Y769433D01*
X540908Y759254D02*
X549815Y768160D01*
X542180Y759254D02*
X549815Y766888D01*
X543453Y759254D02*
X549815Y765615D01*
X544726Y759254D02*
X549815Y764342D01*
X545999Y759254D02*
X549815Y763069D01*
X547272Y759254D02*
X549815Y761796D01*
X520815Y787526D02*
X549042Y815754D01*
X520815Y788799D02*
X547769Y815754D01*
X520815Y790072D02*
X546496Y815754D01*
X520815Y791345D02*
X540223Y810754D01*
X520815Y792618D02*
X538950Y810754D01*
X520815Y793890D02*
X537678Y810754D01*
X520815Y795163D02*
X536405Y810754D01*
X520815Y796436D02*
X535132Y810754D01*
X520815Y797709D02*
X533859Y810754D01*
X520815Y798982D02*
X532586Y810754D01*
X520815Y800254D02*
X531314Y810754D01*
X520815Y801527D02*
X530041Y810754D01*
X520815Y802800D02*
X528768Y810754D01*
X520815Y804073D02*
X527495Y810754D01*
X520815Y805345D02*
X526223Y810754D01*
X496360Y759254D02*
X517860Y780754D01*
X495087Y759254D02*
X516587Y780754D01*
X493814Y759254D02*
X515314Y780754D01*
X492542Y759254D02*
X514042Y780754D01*
X491269Y759254D02*
X512769Y780754D01*
X489996Y759254D02*
X512052Y781309D01*
X488723Y759254D02*
X511415Y781946D01*
X487450Y759254D02*
X510779Y782582D01*
X486178Y759254D02*
X510143Y783218D01*
X492514Y798682D02*
X509815Y815983D01*
X492220Y797115D02*
X509815Y814710D01*
X476315Y779937D02*
X509815Y813437D01*
X476315Y778665D02*
X509815Y812165D01*
X476315Y777392D02*
X509815Y810892D01*
X476315Y776119D02*
X509815Y809619D01*
X462122Y760653D02*
X509815Y808346D01*
X462758Y760017D02*
X509815Y807073D01*
X463394Y759381D02*
X509815Y805801D01*
X464540Y759254D02*
X509815Y804528D01*
X465813Y759254D02*
X509815Y803255D01*
X467086Y759254D02*
X509815Y801982D01*
X468359Y759254D02*
X509815Y800709D01*
X469631Y759254D02*
X509815Y799437D01*
X470904Y759254D02*
X509815Y798164D01*
X472177Y759254D02*
X509815Y796891D01*
X473450Y759254D02*
X509815Y795618D01*
X474723Y759254D02*
X509815Y794345D01*
X475995Y759254D02*
X509815Y793073D01*
X477268Y759254D02*
X509815Y791800D01*
X478541Y759254D02*
X509815Y790527D01*
X479814Y759254D02*
X509815Y789254D01*
X481086Y759254D02*
X509815Y787982D01*
X482359Y759254D02*
X509815Y786709D01*
X483632Y759254D02*
X509815Y785436D01*
X484905Y759254D02*
X509815Y784163D01*
X492389Y799831D02*
X509210Y816651D01*
X492059Y800773D02*
X508573Y817287D01*
X491580Y801567D02*
X507937Y817924D01*
X490974Y802233D02*
X506994Y818254D01*
X490244Y802777D02*
X505721Y818254D01*
X489380Y803185D02*
X504448Y818254D01*
X488345Y803423D02*
X503176Y818254D01*
X487038Y803389D02*
X501903Y818254D01*
X476315Y793938D02*
X500630Y818254D01*
X476315Y795211D02*
X499357Y818254D01*
X476315Y796484D02*
X498084Y818254D01*
X476315Y797756D02*
X496812Y818254D01*
X476315Y799029D02*
X495539Y818254D01*
X476315Y800302D02*
X494266Y818254D01*
X476315Y801575D02*
X492993Y818254D01*
X476121Y802654D02*
X491720Y818254D01*
X475485Y803290D02*
X490448Y818254D01*
X476315Y781210D02*
X489453Y794348D01*
X474848Y803927D02*
X489175Y818254D01*
X474212Y804563D02*
X487902Y818254D01*
X476315Y782483D02*
X487886Y794054D01*
X476315Y783756D02*
X486737Y794179D01*
X473575Y805200D02*
X486629Y818254D01*
X476315Y785029D02*
X485795Y794509D01*
X472356Y805254D02*
X485356Y818254D01*
X476315Y786301D02*
X485001Y794988D01*
X476315Y787574D02*
X484335Y795594D01*
X471084Y805254D02*
X484084Y818254D01*
X476315Y788847D02*
X483791Y796324D01*
X476315Y790120D02*
X483383Y797188D01*
X476315Y792665D02*
X483179Y799530D01*
X476315Y791392D02*
X483145Y798223D01*
X469811Y805254D02*
X482811Y818254D01*
X468538Y805254D02*
X481538Y818254D01*
X467265Y805254D02*
X480265Y818254D01*
X466507Y805768D02*
X478993Y818254D01*
X465871Y806404D02*
X477720Y818254D01*
X465234Y807041D02*
X476447Y818254D01*
X464815Y807894D02*
X475174Y818254D01*
X464815Y809167D02*
X473901Y818254D01*
X464815Y810439D02*
X472629Y818254D01*
X461485Y761290D02*
X472449Y772254D01*
X464815Y811712D02*
X471982Y818879D01*
X464815Y812985D02*
X471345Y819516D01*
X461315Y762392D02*
X471176Y772254D01*
X464815Y814258D02*
X470709Y820152D01*
X464815Y815531D02*
X470072Y820788D01*
X461315Y763665D02*
X469903Y772254D01*
X464815Y821895D02*
X469815Y826895D01*
X464815Y820622D02*
X469815Y825622D01*
X464815Y819349D02*
X469815Y824349D01*
X464815Y818076D02*
X469815Y823076D01*
X464815Y816803D02*
X469815Y821803D01*
X464815Y823167D02*
X469401Y827754D01*
X461315Y764937D02*
X468631Y772254D01*
X464815Y824440D02*
X468128Y827754D01*
X461315Y766210D02*
X467358Y772254D01*
X461315Y767483D02*
X466085Y772254D01*
X461315Y768756D02*
X464812Y772254D01*
X461315Y770029D02*
X463539Y772254D01*
X461315Y771301D02*
X462267Y772254D01*
G54D12*
X421236Y35561D02*
Y130050D01*
X452732Y35561D02*
Y130050D01*
X488165Y35561D02*
Y130050D01*
X523598Y35561D02*
Y130050D01*
X555094Y35561D02*
Y130050D01*
X350370Y67057D02*
X598401D01*
X350370Y98553D02*
X598401D01*
X653519Y200916D02*
X818874D01*
X259819Y35561D02*
Y98553D01*
X110212D02*
X350370D01*
X110212Y67057D02*
X350370D01*
X677140Y145798D02*
G03X677140I-11810D01*
G01X669267D02*
G03X669267I-3937D01*
G01X116118Y178607D02*
Y169420D01*
X125345Y174670D02*
Y175107D01*
X125345D02*
X125027Y175545D01*
X124708*
X124708D02*
X124390Y175107D01*
X124390D02*
X124072Y174232D01*
X124072D02*
X123436Y172045D01*
X122799Y170732*
X122799D02*
X122163Y169857D01*
X122163D02*
X121527Y169420D01*
X120254*
X119618Y169857*
X119618D02*
X119299Y170295D01*
X119299D02*
X118981Y171170D01*
X118981D02*
Y172045D01*
X118981D02*
X119299Y172920D01*
X119299D02*
X119618Y173357D01*
X119618D02*
X121845Y175107D01*
X121845D02*
X122163Y175545D01*
X122481Y176420*
X122481D02*
Y177295D01*
X122481D02*
X122163Y178170D01*
X121527Y178607*
X121527D02*
X120890Y178170D01*
X120890D02*
X120572Y177295D01*
X120572D02*
Y176420D01*
X120572D02*
X120890Y175107D01*
X120890D02*
X121527Y173795D01*
X123118Y170732*
X123118D02*
X123754Y169857D01*
X123754D02*
X124390Y169420D01*
X124390D02*
X125027D01*
X125345Y169857*
X125345D02*
Y170295D01*
X128208Y178607D02*
Y169420D01*
Y178607D02*
X131072D01*
X131072D02*
X132027Y178170D01*
X132345Y177732*
X132345D02*
X132663Y176857D01*
X132663D02*
Y175545D01*
X132345Y174670*
X132027Y174232*
X132027D02*
X131072Y173795D01*
X131072D02*
X128208D01*
X139981Y177295D02*
X139345Y178170D01*
X138390Y178607*
X138390D02*
X137118D01*
X137118D02*
X136163Y178170D01*
X135527Y177295*
Y176420*
X135845Y175545*
X136163Y175107*
X136163D02*
X136799Y174670D01*
X136799D02*
X138708Y173795D01*
X138708D02*
X139345Y173357D01*
X139345D02*
X139663Y172920D01*
X139981Y172045*
X139981D02*
Y170732D01*
X139981D02*
X139345Y169857D01*
X139345D02*
X138390Y169420D01*
X138390D02*
X137118D01*
X136163Y169857*
X136163D02*
X135527Y170732D01*
X151118Y178607D02*
X148572Y169420D01*
X151118Y178607D02*
X153663Y169420D01*
X149527Y172482D02*
X152708D01*
X156527Y178607D02*
Y169420D01*
Y178607D02*
X159390D01*
X159390D02*
X160345Y178170D01*
X160663Y177732*
X160663D02*
X160981Y176857D01*
X160981D02*
Y175545D01*
X160981D02*
X160663Y174670D01*
X160345Y174232*
X160345D02*
X159390Y173795D01*
X159390D02*
X156527D01*
X163845Y178607D02*
Y169420D01*
Y178607D02*
X166708D01*
X166708D02*
X167663Y178170D01*
X167981Y177732*
X167981D02*
X168299Y176857D01*
X168299D02*
Y175545D01*
X168299D02*
X167981Y174670D01*
X167981D02*
X167663Y174232D01*
X167663D02*
X166708Y173795D01*
X166708D02*
X163845D01*
X171163Y178607D02*
Y169420D01*
X174981*
X177845Y178607D02*
Y169420D01*
X185481Y176420D02*
X185163Y177295D01*
X184527Y178170*
X183890Y178607*
X183890D02*
X182618D01*
X182618D02*
X181981Y178170D01*
X181981D02*
X181345Y177295D01*
X181027Y176420*
X180708Y175107*
X180708D02*
Y172920D01*
X180708D02*
X181027Y171607D01*
X181027D02*
X181345Y170732D01*
X181345D02*
X181981Y169857D01*
X181981D02*
X182618Y169420D01*
X183890*
X183890D02*
X184527Y169857D01*
X184527D02*
X185163Y170732D01*
X185163D02*
X185481Y171607D01*
X190890Y178607D02*
X188345Y169420D01*
X190890Y178607D02*
X193436Y169420D01*
X189299Y172482D02*
X192481D01*
X198527Y178607D02*
Y169420D01*
X196299Y178607D02*
X200754D01*
X203618D02*
Y169420D01*
X208390Y178607D02*
X207754Y178170D01*
X207118Y177295*
X206799Y176420*
X206799D02*
X206481Y175107D01*
X206481D02*
Y172920D01*
X206481D02*
X206799Y171607D01*
X206799D02*
X207118Y170732D01*
X207118D02*
X207754Y169857D01*
X207754D02*
X208390Y169420D01*
X208390D02*
X209663D01*
X210299Y169857*
X210299D02*
X210936Y170732D01*
X210936D02*
X211254Y171607D01*
X211254D02*
X211572Y172920D01*
X211572D02*
Y175107D01*
X211572D02*
X211254Y176420D01*
X210936Y177295*
X210299Y178170*
X210299D02*
X209663Y178607D01*
X209663D02*
X208390D01*
X214436D02*
Y169420D01*
Y178607D02*
X218890Y169420D01*
Y178607D02*
Y169420D01*
X227481Y178607D02*
Y169420D01*
X227481D02*
X231299D01*
X236708Y178607D02*
X234163Y169420D01*
X236708Y178607D02*
X239254Y169420D01*
X235118Y172482D02*
X238299D01*
X242118Y178607D02*
Y169420D01*
Y178607D02*
X244981D01*
X244981D02*
X245936Y178170D01*
X246254Y177732*
X246254D02*
X246572Y176857D01*
X246572D02*
Y175982D01*
X246572D02*
X246254Y175107D01*
X246254D02*
X245936Y174670D01*
X244981Y174232*
X242118D02*
X244981D01*
X244981D02*
X245936Y173795D01*
X246254Y173357*
X246254D02*
X246572Y172482D01*
X246572D02*
Y171170D01*
X246572D02*
X246254Y170295D01*
X245936Y169857*
X245936D02*
X244981Y169420D01*
X244981D02*
X242118D01*
X249754Y170295D02*
X249436Y169857D01*
X249436D02*
X249754Y169420D01*
X250072Y169857*
X250072D02*
X249754Y170295D01*
X263756Y63121D02*
Y55246D01*
Y63121D02*
X265665D01*
X266483Y62746*
X267028Y61996*
X267028D02*
X267301Y61246D01*
X267574Y60121*
Y58246*
X267301Y57121*
X267028Y56371*
X267028D02*
X266483Y55621D01*
X265665Y55246*
X263756*
X272210Y63121D02*
X270028Y55246D01*
X272210Y63121D02*
X274392Y55246D01*
X270846Y57871D02*
X273574D01*
X278756Y63121D02*
Y55246D01*
X276846Y63121D02*
X280665D01*
X283119D02*
Y55246D01*
Y63121D02*
X286665D01*
X283119Y59371D02*
X285301D01*
X283119Y55246D02*
X286665D01*
X263756Y94617D02*
Y86742D01*
Y94617D02*
X265665D01*
X266483Y94242*
X267028Y93492*
X267028D02*
X267301Y92742D01*
X267574Y91617*
Y89742*
X267301Y88617*
X267028Y87867*
X267028D02*
X266483Y87117D01*
X265665Y86742*
X263756*
X272210Y94617D02*
X270028Y86742D01*
X272210Y94617D02*
X274392Y86742D01*
X270846Y89367D02*
X273574D01*
X278756Y94617D02*
Y86742D01*
X276846Y94617D02*
X280665D01*
X283119D02*
Y86742D01*
Y94617D02*
X286665D01*
X283119Y90867D02*
X285301D01*
X283119Y86742D02*
X286665D01*
X116331Y63121D02*
X114150Y55246D01*
X116331Y63121D02*
X118513Y55246D01*
X114968Y57871D02*
X117695D01*
X120968Y63121D02*
Y55246D01*
Y63121D02*
X123422D01*
X123422D02*
X124240Y62746D01*
X124240D02*
X124513Y62371D01*
X124513D02*
X124786Y61621D01*
Y60496*
X124513Y59746*
X124513D02*
X124240Y59371D01*
X124240D02*
X123422Y58996D01*
X123422D02*
X120968D01*
X127240Y63121D02*
Y55246D01*
Y63121D02*
X129695D01*
X130513Y62746*
X130513D02*
X130786Y62371D01*
X131059Y61621*
Y60496*
X130786Y59746*
X130513Y59371*
X130513D02*
X129695Y58996D01*
X127240*
X133513Y63121D02*
Y55246D01*
Y63121D02*
X135968D01*
X136786Y62746*
X137059Y62371*
X137331Y61621*
X137331D02*
Y60871D01*
X137331D02*
X137059Y60121D01*
X136786Y59746*
X135968Y59371*
X133513*
X135422D02*
X137331Y55246D01*
X141422Y63121D02*
X140877Y62746D01*
X140331Y61996*
X140331D02*
X140059Y61246D01*
X139786Y60121*
Y58246*
X140059Y57121*
X140331Y56371*
X140331D02*
X140877Y55621D01*
X141422Y55246*
X141422D02*
X142513D01*
X142513D02*
X143059Y55621D01*
X143604Y56371*
X143604D02*
X143877Y57121D01*
X144150Y58246*
Y60121*
X143877Y61246*
X143604Y61996*
X143604D02*
X143059Y62746D01*
X142513Y63121*
X142513D02*
X141422D01*
X146604D02*
X148786Y55246D01*
X150968Y63121D02*
X148786Y55246D01*
X153422Y63121D02*
Y55246D01*
Y63121D02*
X156968D01*
X153422Y59371D02*
X155604D01*
X153422Y55246D02*
X156968D01*
X159422Y63121D02*
Y55246D01*
Y63121D02*
X161331D01*
X161331D02*
X162150Y62746D01*
X162695Y61996*
X162968Y61246*
X163240Y60121*
X163240D02*
Y58246D01*
X163240D02*
X162968Y57121D01*
X162695Y56371*
X162150Y55621*
X161331Y55246*
X161331D02*
X159422D01*
X114150Y94617D02*
Y86742D01*
Y94617D02*
X116059D01*
X116877Y94242*
X117422Y93492*
X117422D02*
X117695Y92742D01*
X117968Y91617*
Y89742*
X117695Y88617*
X117422Y87867*
X117422D02*
X116877Y87117D01*
X116059Y86742*
X114150*
X120422Y94617D02*
Y86742D01*
Y94617D02*
X122877D01*
X123695Y94242*
X123968Y93867*
X124240Y93117*
X124240D02*
Y92367D01*
X124240D02*
X123968Y91617D01*
X123695Y91242*
X122877Y90867*
X120422*
X122331D02*
X124240Y86742D01*
X128877Y94617D02*
X126695Y86742D01*
X128877Y94617D02*
X131059Y86742D01*
X127513Y89367D02*
X130240D01*
X133513Y94617D02*
X134877Y86742D01*
X136240Y94617D02*
X134877Y86742D01*
X136240Y94617D02*
X137604Y86742D01*
X138968Y94617D02*
X137604Y86742D01*
X141422Y94617D02*
Y86742D01*
Y94617D02*
X145240Y86742D01*
Y94617D02*
Y86742D01*
X261476Y177519D02*
X259295Y169644D01*
X261476Y177519D02*
X263658Y169644D01*
X260113Y172269D02*
X262840D01*
X270204Y175644D02*
X269931Y176394D01*
X269385Y177144*
X269385D02*
X268840Y177519D01*
X267749*
X267749D02*
X267204Y177144D01*
X266658Y176394*
X266658D02*
X266385Y175644D01*
X266385D02*
X266113Y174519D01*
Y172644*
X266385Y171519*
X266385D02*
X266658Y170769D01*
X266658D02*
X267204Y170019D01*
X267749Y169644*
X267749D02*
X268840D01*
X269385Y170019*
X269385D02*
X269931Y170769D01*
X270204Y171519*
Y172644*
X268840D02*
X270204D01*
X272658Y177519D02*
Y169644D01*
Y177519D02*
X275113D01*
X275931Y177144*
X276204Y176769*
X276476Y176019*
X276476D02*
Y175269D01*
X276476D02*
X276204Y174519D01*
X275931Y174144*
X275113Y173769*
X272658*
X274567D02*
X276476Y169644D01*
X281113Y177519D02*
X278931Y169644D01*
X281113Y177519D02*
X283295Y169644D01*
X279749Y172269D02*
X282476D01*
X287658Y177519D02*
Y169644D01*
X285749Y177519D02*
X289567D01*
X292022D02*
Y169644D01*
Y177519D02*
X295567D01*
X292022Y173769D02*
X294204D01*
X292022Y169644D02*
X295567D01*
X302931Y177519D02*
Y169644D01*
Y177519D02*
X305385D01*
X305385D02*
X306204Y177144D01*
X306476Y176769*
X306476D02*
X306749Y176019D01*
X306749D02*
Y175269D01*
X306749D02*
X306476Y174519D01*
X306476D02*
X306204Y174144D01*
X305385Y173769*
X302931D02*
X305385D01*
X305385D02*
X306204Y173394D01*
X306476Y173019*
X306476D02*
X306749Y172269D01*
X306749D02*
Y171144D01*
X306749D02*
X306476Y170394D01*
X306476D02*
X306204Y170019D01*
X305385Y169644*
X305385D02*
X302931D01*
X309476Y170394D02*
X309204Y170019D01*
X309476Y169644*
X309476D02*
X309749Y170019D01*
X309749D02*
X309476Y170394D01*
X317113Y177519D02*
Y169644D01*
X321476Y177519D02*
Y169644D01*
X319567Y177519D02*
X323385D01*
X328022D02*
X325840Y169644D01*
X328022Y177519D02*
X330204Y169644D01*
X326658Y172269D02*
X329385D01*
X332658Y177519D02*
Y169644D01*
X332658D02*
X335931D01*
X338385Y177519D02*
X340567Y173769D01*
X340567D02*
Y169644D01*
X342749Y177519D02*
X340567Y173769D01*
X405315Y716254D02*
X410815Y721754D01*
Y746254*
X417315Y752754*
X437315*
X316815Y734254D02*
X340815D01*
X344815Y738254*
X316815Y734254D02*
X309815Y741254D01*
X299315*
X297815Y742754*
Y750754*
Y751254*
X292815Y756254*
X358315Y733754D02*
X372810D01*
X372810D02*
X377309Y738253D01*
X358315Y733754D02*
X353815Y738254D01*
X344815*
X403815Y743254D02*
X393815D01*
X388315Y748754*
X370915*
X368415Y751254*
Y761254*
X403815Y743254D02*
X416815Y756254D01*
X441815*
X405315Y736254D02*
X385328D01*
X375828Y745754*
X362815*
X360315Y748254*
Y824754*
X356315Y828754*
X312315*
X310815Y830254*
Y841254*
X307815Y844254*
Y848254*
X304815Y851254*
X300815*
X297815Y854254*
Y871254*
X302815Y876254*
X405315Y726254D02*
Y736254D01*
X302815Y756254D02*
X307815Y761254D01*
Y771254*
X377815Y761254D02*
X434976D01*
X443976Y770254*
X377815Y761254D02*
X372815Y766254D01*
X368315*
X375315Y753675D02*
X387736D01*
X387815Y753754*
X404315Y747254D02*
X394315D01*
X387815Y753754*
X404315Y747254D02*
X415815Y759004D01*
X439594*
X439594D02*
X449094Y768504D01*
X449094D02*
Y770533D01*
X447815Y750254D02*
X441815Y756254D01*
X449315Y745254D02*
X444815D01*
X437315Y752754*
X355815Y781204D02*
X352365D01*
X352315Y781254*
X355815Y781204D02*
X357315Y782704D01*
Y823254*
X354815Y825754*
X309815*
X307815Y827754*
Y839754*
X306315Y841254*
X299815*
X297815Y843254*
Y848254*
X292815Y853254*
Y856254*
X368315Y771254D02*
X382915D01*
X386315Y774654*
Y809454*
X388115Y811254*
X436315*
X372315Y795754D02*
Y803754D01*
X389815Y821254*
X432815*
X369315Y788754D02*
X362815Y795254D01*
Y826754*
X357315Y832254*
X324815*
X446815Y807254D02*
X432815Y821254D01*
X437815Y822254D02*
X436315Y823754D01*
X408315*
X405315Y826754*
Y836254*
X440315Y807254D02*
X436315Y811254D01*
X446315Y823254D02*
X443315Y826254D01*
X414815*
X411315Y829754*
Y838754*
X408815Y841254*
X453315Y807254D02*
Y821254D01*
X445315Y829254*
X417315*
X414315Y832254*
Y852254*
X405315Y861254*
X361815Y833754D02*
X395315D01*
X397815Y836254*
X405315*
X361815Y833754D02*
X359315Y836254D01*
X316315*
X313315Y839254*
Y842754*
X310315Y845754*
Y850254*
X304315Y856254*
X302815*
X392815Y836254D02*
X377315D01*
X375315Y838254*
Y851175*
X392815Y836254D02*
X393290D01*
X398277Y841241*
X398277D02*
X398301D01*
X398301D02*
X398315Y841254D01*
X408815*
X385315Y841332D02*
X385472D01*
X385472D02*
X395315Y851175D01*
X312815Y852754D02*
X368815D01*
X373315Y857254*
X379815*
X316315Y855254D02*
X367315D01*
X380315Y868254*
X410815*
X316315Y855254D02*
X309815Y861754D01*
Y877254*
X305815Y881254*
X297815*
X320315Y845754D02*
X335815D01*
X352315Y846754D02*
X349815Y849254D01*
X316815*
X292815Y876254D02*
X297815Y881254D01*
X367815Y873675D02*
Y888754D01*
G54D14*
X110212Y35561D02*
Y1165483D01*
X818874*
Y35561*
X110212*
Y236349*
X818874*
X110212Y181231D02*
X350370D01*
X110212Y165483D02*
X350370D01*
Y35561D02*
Y236349D01*
Y165483D02*
X653519D01*
Y236349*
Y165483D02*
X818874D01*
X598401Y130050D02*
X818874D01*
X767693D02*
Y165483D01*
X598401D02*
Y35561D01*
X681078Y130050D02*
Y165483D01*
X350370Y130050D02*
X598401D01*
Y86742D02*
X818874D01*
G54D15*
X771630Y161546D02*
Y153671D01*
Y161546D02*
X774084D01*
X774084D02*
X774902Y161171D01*
X774902D02*
X775175Y160796D01*
X775448Y160046*
Y159296*
X775175Y158546*
X774902Y158171*
X774902D02*
X774084Y157796D01*
X774084D02*
X771630D01*
X773539D02*
X775448Y153671D01*
X777902Y161546D02*
Y153671D01*
Y161546D02*
X781448D01*
X777902Y157796D02*
X780084D01*
X777902Y153671D02*
X781448D01*
X783902Y161546D02*
X786084Y153671D01*
X788266Y161546D02*
X786084Y153671D01*
X688834Y160421D02*
X688288Y161171D01*
X688288D02*
X687470Y161546D01*
X687470D02*
X686379D01*
X686379D02*
X685561Y161171D01*
X685016Y160421*
Y159671*
X685288Y158921*
X685288D02*
X685561Y158546D01*
X686106Y158171*
X686106D02*
X687743Y157421D01*
X688288Y157046*
X688288D02*
X688561Y156671D01*
X688834Y155921*
Y154796*
X688288Y154046*
X688288D02*
X687470Y153671D01*
X687470D02*
X686379D01*
X686379D02*
X685561Y154046D01*
X685016Y154796*
X695379Y159671D02*
X695106Y160421D01*
X695106D02*
X694561Y161171D01*
X694016Y161546*
X692925*
X692379Y161171*
X692379D02*
X691834Y160421D01*
X691561Y159671*
X691288Y158546*
X691288D02*
Y156671D01*
X691288D02*
X691561Y155546D01*
X691834Y154796*
X692379Y154046*
X692379D02*
X692925Y153671D01*
X694016*
X694561Y154046*
X695106Y154796*
X695106D02*
X695379Y155546D01*
X700016Y161546D02*
X697834Y153671D01*
X700016Y161546D02*
X702197Y153671D01*
X698652Y156296D02*
X701379D01*
X704652Y161546D02*
Y153671D01*
X707925*
X710379Y161546D02*
Y153671D01*
Y161546D02*
X713925D01*
X710379Y157796D02*
X712561D01*
X710379Y153671D02*
X713925D01*
X661547Y195104D02*
X661275Y195854D01*
X660729Y196604*
X660729D02*
X660184Y196979D01*
X659093*
X658547Y196604*
X658547D02*
X658002Y195854D01*
X657729Y195104*
X657729D02*
X657457Y193979D01*
Y192104*
X657729Y190979*
X657729D02*
X658002Y190229D01*
X658547Y189479*
X658547D02*
X659093Y189104D01*
X660184*
X660729Y189479*
X660729D02*
X661275Y190229D01*
X661547Y190979*
X661547D02*
Y192104D01*
X660184D02*
X661547D01*
X664002Y196979D02*
Y189104D01*
Y196979D02*
X666457D01*
X667275Y196604*
X667547Y196229*
X667547D02*
X667820Y195479D01*
X667820D02*
Y194729D01*
X667820D02*
X667547Y193979D01*
X667547D02*
X667275Y193604D01*
X666457Y193229*
X664002*
X665911D02*
X667820Y189104D01*
X671911Y196979D02*
X671366Y196604D01*
X670820Y195854*
X670820D02*
X670547Y195104D01*
X670547D02*
X670275Y193979D01*
Y192104*
X670547Y190979*
X670547D02*
X670820Y190229D01*
X670820D02*
X671366Y189479D01*
X671911Y189104*
X671911D02*
X673002D01*
X673547Y189479*
X673547D02*
X674093Y190229D01*
X674366Y190979*
X674638Y192104*
X674638D02*
Y193979D01*
X674638D02*
X674366Y195104D01*
X674093Y195854*
X673547Y196604*
X673547D02*
X673002Y196979D01*
X671911*
X677093D02*
Y191354D01*
X677366Y190229*
X677911Y189479*
X677911D02*
X678729Y189104D01*
X678729D02*
X679275D01*
X680093Y189479*
X680638Y190229*
X680638D02*
X680911Y191354D01*
X680911D02*
Y196979D01*
X683366D02*
Y189104D01*
Y196979D02*
X685820D01*
X685820D02*
X686638Y196604D01*
X686638D02*
X686911Y196229D01*
X686911D02*
X687184Y195479D01*
Y194354*
X686911Y193604*
X686911D02*
X686638Y193229D01*
X686638D02*
X685820Y192854D01*
X685820D02*
X683366D01*
X661275Y231287D02*
X660729Y232037D01*
X660729D02*
X659911Y232412D01*
X659911D02*
X658820D01*
X658820D02*
X658002Y232037D01*
X657457Y231287*
Y230537*
X657729Y229787*
X657729D02*
X658002Y229412D01*
X658547Y229037*
X658547D02*
X660184Y228287D01*
X660729Y227912*
X660729D02*
X661002Y227537D01*
X661275Y226787*
Y225662*
X660729Y224912*
X660729D02*
X659911Y224537D01*
X659911D02*
X658820D01*
X658820D02*
X658002Y224912D01*
X657457Y225662*
X663729Y232412D02*
X665911Y228662D01*
X665911D02*
Y224537D01*
X668093Y232412D02*
X665911Y228662D01*
X670547Y232412D02*
Y224537D01*
Y232412D02*
X672729Y224537D01*
X674911Y232412D02*
X672729Y224537D01*
X674911Y232412D02*
Y224537D01*
X677366Y232412D02*
Y224537D01*
Y232412D02*
X679820D01*
X679820D02*
X680638Y232037D01*
X680638D02*
X680911Y231662D01*
X680911D02*
X681184Y230912D01*
Y230162*
X680911Y229412*
X680911D02*
X680638Y229037D01*
X680638D02*
X679820Y228662D01*
X677366D02*
X679820D01*
X679820D02*
X680638Y228287D01*
X680638D02*
X680911Y227912D01*
X680911D02*
X681184Y227162D01*
Y226037*
X680911Y225287*
X680911D02*
X680638Y224912D01*
X680638D02*
X679820Y224537D01*
X679820D02*
X677366D01*
X685275Y232412D02*
X684729Y232037D01*
X684729D02*
X684184Y231287D01*
X683911Y230537*
X683911D02*
X683638Y229412D01*
X683638D02*
Y227537D01*
X683638D02*
X683911Y226412D01*
X683911D02*
X684184Y225662D01*
X684729Y224912*
X684729D02*
X685275Y224537D01*
X686366*
X686911Y224912*
X686911D02*
X687457Y225662D01*
X687729Y226412*
X687729D02*
X688002Y227537D01*
Y229412*
X687729Y230537*
X687729D02*
X687457Y231287D01*
X686911Y232037*
X686911D02*
X686366Y232412D01*
X685275*
X690457D02*
Y224537D01*
X693729*
X602339Y161546D02*
Y153671D01*
X608611Y160421D02*
X608066Y161171D01*
X607248Y161546*
X606157*
X605339Y161171*
X604793Y160421*
X604793D02*
Y159671D01*
X604793D02*
X605066Y158921D01*
X605339Y158546*
X605884Y158171*
X607520Y157421*
X607520D02*
X608066Y157046D01*
X608339Y156671*
X608611Y155921*
X608611D02*
Y154796D01*
X608611D02*
X608066Y154046D01*
X607248Y153671*
X606157*
X605339Y154046*
X604793Y154796*
X612702Y161546D02*
X612157Y161171D01*
X611611Y160421*
X611611D02*
X611339Y159671D01*
X611066Y158546*
Y156671*
X611339Y155546*
X611611Y154796*
X611611D02*
X612157Y154046D01*
X612702Y153671*
X612702D02*
X613793D01*
X613793D02*
X614339Y154046D01*
X614884Y154796*
X615157Y155546*
X615429Y156671*
X615429D02*
Y158546D01*
X615429D02*
X615157Y159671D01*
X614884Y160421*
X614339Y161171*
X613793Y161546*
X613793D02*
X612702D01*
X602339Y126113D02*
Y118238D01*
Y126113D02*
X604520Y118238D01*
X606702Y126113D02*
X604520Y118238D01*
X606702Y126113D02*
Y118238D01*
X611339Y126113D02*
X609157Y118238D01*
X611339Y126113D02*
X613520Y118238D01*
X609975Y120863D02*
X612702D01*
X617884Y126113D02*
Y118238D01*
X615975Y126113D02*
X619793D01*
X622248D02*
Y118238D01*
Y126113D02*
X625793D01*
X622248Y122363D02*
X624429D01*
X622248Y118238D02*
X625793D01*
X628248Y126113D02*
Y118238D01*
Y126113D02*
X630702D01*
X630702D02*
X631520Y125738D01*
X631520D02*
X631793Y125363D01*
X631793D02*
X632066Y124613D01*
Y123863*
X631793Y123113*
X631793D02*
X631520Y122738D01*
X631520D02*
X630702Y122363D01*
X630702D02*
X628248D01*
X630157D02*
X632066Y118238D01*
X634520Y126113D02*
Y118238D01*
X639157Y126113D02*
X636975Y118238D01*
X639157Y126113D02*
X641339Y118238D01*
X637793Y120863D02*
X640520D01*
X643793Y126113D02*
Y118238D01*
X643793D02*
X647066D01*
X604248Y82806D02*
Y74931D01*
X602339Y82806D02*
X606157D01*
X608611D02*
Y74931D01*
Y82806D02*
X611066D01*
X611884Y82431*
X612157Y82056*
X612429Y81306*
X612429D02*
Y80556D01*
X612429D02*
X612157Y79806D01*
X611884Y79431*
X611066Y79056*
X608611*
X610520D02*
X612429Y74931D01*
X614884Y82806D02*
Y74931D01*
Y82806D02*
X618429D01*
X614884Y79056D02*
X617066D01*
X614884Y74931D02*
X618429D01*
X623066Y82806D02*
X620884Y74931D01*
X623066Y82806D02*
X625248Y74931D01*
X621702Y77556D02*
X624429D01*
X629611Y82806D02*
Y74931D01*
X627702Y82806D02*
X631520D01*
X633975D02*
Y74931D01*
Y82806D02*
X636157Y74931D01*
X638339Y82806D02*
X636157Y74931D01*
X638339Y82806D02*
Y74931D01*
X640793Y82806D02*
Y74931D01*
Y82806D02*
X644339D01*
X640793Y79056D02*
X642975D01*
X640793Y74931D02*
X644339D01*
X646793Y82806D02*
Y74931D01*
Y82806D02*
X650611Y74931D01*
Y82806D02*
Y74931D01*
X654975Y82806D02*
Y74931D01*
X653066Y82806D02*
X656884D01*
X666429D02*
X664248Y74931D01*
X666429Y82806D02*
X668611Y74931D01*
X665066Y77556D02*
X667793D01*
X671066Y82806D02*
Y74931D01*
Y82806D02*
X674884Y74931D01*
Y82806D02*
Y74931D01*
X677339Y82806D02*
Y74931D01*
Y82806D02*
X679248D01*
X680066Y82431*
X680611Y81681*
X680611D02*
X680884Y80931D01*
X681157Y79806*
Y77931*
X680884Y76806*
X680611Y76056*
X680611D02*
X680066Y75306D01*
X679248Y74931*
X677339*
X692339Y81681D02*
X691793Y82431D01*
X691793D02*
X690975Y82806D01*
X689884*
X689066Y82431*
X688520Y81681*
X688520D02*
Y80931D01*
X688520D02*
X688793Y80181D01*
X688793D02*
X689066Y79806D01*
X689611Y79431*
X689611D02*
X691248Y78681D01*
X691793Y78306*
X691793D02*
X692066Y77931D01*
X692339Y77181*
Y76056*
X691793Y75306*
X691793D02*
X690975Y74931D01*
X689884*
X689066Y75306*
X688520Y76056*
X694793Y82806D02*
Y77181D01*
X694793D02*
X695066Y76056D01*
X695611Y75306*
X695611D02*
X696429Y74931D01*
X696429D02*
X696975D01*
X697793Y75306*
X697793D02*
X698339Y76056D01*
X698611Y77181*
X698611D02*
Y82806D01*
X701066D02*
Y74931D01*
Y82806D02*
X703520D01*
X703520D02*
X704339Y82431D01*
X704611Y82056*
X704611D02*
X704884Y81306D01*
Y80556*
X704611Y79806*
X704611D02*
X704339Y79431D01*
X703520Y79056*
X703520D02*
X701066D01*
X702975D02*
X704884Y74931D01*
X707339Y82806D02*
Y74931D01*
Y82806D02*
X710884D01*
X707339Y79056D02*
X709520D01*
X715520Y82806D02*
X713339Y74931D01*
X715520Y82806D02*
X717702Y74931D01*
X714157Y77556D02*
X716884D01*
X724248Y80931D02*
X723975Y81681D01*
X723429Y82431*
X723429D02*
X722884Y82806D01*
X721793*
X721793D02*
X721248Y82431D01*
X720702Y81681*
X720702D02*
X720429Y80931D01*
X720429D02*
X720157Y79806D01*
Y77931*
X720429Y76806*
X720429D02*
X720702Y76056D01*
X720702D02*
X721248Y75306D01*
X721793Y74931*
X721793D02*
X722884D01*
X723429Y75306*
X723429D02*
X723975Y76056D01*
X724248Y76806*
X726702Y82806D02*
Y74931D01*
Y82806D02*
X730248D01*
X726702Y79056D02*
X728884D01*
X726702Y74931D02*
X730248D01*
X737611Y82806D02*
Y74931D01*
Y82806D02*
X741157D01*
X737611Y79056D02*
X739793D01*
X743611Y82806D02*
Y74931D01*
X746066Y82806D02*
Y74931D01*
Y82806D02*
X749884Y74931D01*
Y82806D02*
Y74931D01*
X752339Y82806D02*
Y74931D01*
X758611Y81681D02*
X758066Y82431D01*
X757248Y82806*
X756157*
X755339Y82431*
X754793Y81681*
X754793D02*
Y80931D01*
X754793D02*
X755066Y80181D01*
X755339Y79806*
X755884Y79431*
X757520Y78681*
X757520D02*
X758066Y78306D01*
X758339Y77931*
X758611Y77181*
X758611D02*
Y76056D01*
X758611D02*
X758066Y75306D01*
X757248Y74931*
X756157*
X755339Y75306*
X754793Y76056*
X761066Y82806D02*
Y74931D01*
X764884Y82806D02*
Y74931D01*
X761066Y79056D02*
X764884D01*
X767339Y82806D02*
Y74931D01*
X769793Y82806D02*
Y74931D01*
Y82806D02*
X773611Y74931D01*
Y82806D02*
Y74931D01*
X780157Y80931D02*
X779884Y81681D01*
X779339Y82431*
X778793Y82806*
X778793D02*
X777702D01*
X777702D02*
X777157Y82431D01*
X776611Y81681*
X776611D02*
X776339Y80931D01*
X776066Y79806*
Y77931*
X776339Y76806*
X776611Y76056*
X776611D02*
X777157Y75306D01*
X777702Y74931*
X777702D02*
X778793D01*
X778793D02*
X779339Y75306D01*
X779884Y76056*
X780157Y76806*
Y77931*
X778793D02*
X780157D01*
X564937Y46810D02*
X569846D01*
X567391Y56091D02*
Y49341D01*
X564937Y52716D02*
X569846D01*
X572846Y57216D02*
X575846D01*
X574209Y54216*
X574209D02*
X575027D01*
X575027D02*
X575573Y53841D01*
X575846Y53466*
X576118Y52341*
X576118D02*
Y51591D01*
X576118D02*
X575846Y50466D01*
X575300Y49716*
X575300D02*
X574482Y49341D01*
X573664*
X572846Y49716*
X572573Y50091*
X572300Y50841*
X580209Y57216D02*
X579391Y56841D01*
X579391D02*
X578846Y55716D01*
X578573Y53841*
Y52716*
X578846Y50841*
X579391Y49716*
X579391D02*
X580209Y49341D01*
X580209D02*
X580755D01*
X581573Y49716*
X582118Y50841*
X582118D02*
X582391Y52716D01*
X582391D02*
Y53841D01*
X582391D02*
X582118Y55716D01*
X582118D02*
X581573Y56841D01*
X580755Y57216*
X580209*
X584846D02*
Y54591D01*
X569360Y87587D02*
Y80837D01*
X566906Y84212D02*
X571815D01*
X574269Y87212D02*
X574815Y87587D01*
X575633Y88712*
Y80837*
X566906Y78306D02*
X571815D01*
X566906Y112334D02*
Y104459D01*
X570178*
X572633Y112334D02*
Y104459D01*
Y112334D02*
X576178D01*
X572633Y108584D02*
X574815D01*
X572633Y104459D02*
X576178D01*
X582451Y111209D02*
X581906Y111959D01*
X581087Y112334*
X581087D02*
X579996D01*
X579996D02*
X579178Y111959D01*
X579178D02*
X578633Y111209D01*
Y110459*
X578906Y109709*
X579178Y109334*
X579178D02*
X579724Y108959D01*
X581360Y108209*
X581360D02*
X581906Y107834D01*
X582178Y107459*
X582178D02*
X582451Y106709D01*
Y105584*
X581906Y104834*
X581087Y104459*
X581087D02*
X579996D01*
X579996D02*
X579178Y104834D01*
X579178D02*
X578633Y105584D01*
X585178Y105209D02*
X584906Y104834D01*
X585178Y104459*
X585178D02*
X585451Y104834D01*
X585178Y105209*
X569087Y126113D02*
X566906Y118238D01*
X569087Y126113D02*
X571269Y118238D01*
X567724Y120863D02*
X570451D01*
X573724Y126113D02*
Y118238D01*
Y126113D02*
X577542Y118238D01*
Y126113D02*
Y118238D01*
X584087Y124238D02*
X583815Y124988D01*
X583269Y125738*
X583269D02*
X582724Y126113D01*
X581633*
X581087Y125738*
X581087D02*
X580542Y124988D01*
X580269Y124238*
X580269D02*
X579996Y123113D01*
X579996D02*
Y121238D01*
X579996D02*
X580269Y120113D01*
X580269D02*
X580542Y119363D01*
X581087Y118613*
X581087D02*
X581633Y118238D01*
X582724*
X583269Y118613*
X583269D02*
X583815Y119363D01*
X584087Y120113*
X584087D02*
Y121238D01*
X582724D02*
X584087D01*
X586815Y118988D02*
X586542Y118613D01*
X586815Y118238*
X587087Y118613*
X587087D02*
X586815Y118988D01*
X531958Y85618D02*
Y78868D01*
X529504Y82243D02*
X534413D01*
X538504Y86743D02*
X537685Y86368D01*
X537685D02*
X537140Y85243D01*
X536867Y83368*
X536867D02*
Y82243D01*
X536867D02*
X537140Y80368D01*
X537685Y79243*
X537685D02*
X538504Y78868D01*
X539049*
X539867Y79243*
X539867D02*
X540413Y80368D01*
X540685Y82243*
X540685D02*
Y83368D01*
X540685D02*
X540413Y85243D01*
X539867Y86368*
X539867D02*
X539049Y86743D01*
X538504*
X543413Y79618D02*
X543140Y79243D01*
X543413Y78868*
X543685Y79243*
X543685D02*
X543413Y79618D01*
X549685Y86743D02*
X546958D01*
X546958D02*
X546685Y83368D01*
X546685D02*
X546958Y83743D01*
X546958D02*
X547776Y84118D01*
X547776D02*
X548594D01*
X548594D02*
X549413Y83743D01*
X549958Y82993*
X549958D02*
X550231Y81868D01*
X549958Y81118*
X549958D02*
X549685Y79993D01*
X549685D02*
X549140Y79243D01*
X548322Y78868*
X547504*
X546685Y79243*
X546685D02*
X546413Y79618D01*
X546140Y80368*
X529504Y76338D02*
X534413D01*
X525567Y44842D02*
X530476D01*
X528021Y54122D02*
Y47372D01*
X525567Y50747D02*
X530476D01*
X534567Y55247D02*
X533748Y54872D01*
X533748D02*
X533203Y53747D01*
X532930Y51872*
X532930D02*
Y50747D01*
X532930D02*
X533203Y48872D01*
X533748Y47747*
X533748D02*
X534567Y47372D01*
X535112*
X535930Y47747*
X535930D02*
X536476Y48872D01*
X536748Y50747*
X536748D02*
Y51872D01*
X536748D02*
X536476Y53747D01*
X535930Y54872*
X535930D02*
X535112Y55247D01*
X534567*
X539476Y48122D02*
X539203Y47747D01*
X539476Y47372*
X539748Y47747*
X539748D02*
X539476Y48122D01*
X542476Y53372D02*
Y53747D01*
X542748Y54497*
X542748D02*
X543021Y54872D01*
X543021D02*
X543567Y55247D01*
X544657*
X544657D02*
X545203Y54872D01*
X545476Y54497*
X545748Y53747*
X545748D02*
Y52997D01*
X545748D02*
X545476Y52247D01*
X544930Y51122*
X544930D02*
X542203Y47372D01*
X546021*
X552021Y55247D02*
X549294D01*
X549021Y51872*
X549021D02*
X549294Y52247D01*
X550112Y52622*
X550930*
X550930D02*
X551748Y52247D01*
X551748D02*
X552294Y51497D01*
X552567Y50372*
X552294Y49622*
X552021Y48497*
X552021D02*
X551476Y47747D01*
X550657Y47372*
X550657D02*
X549839D01*
X549839D02*
X549021Y47747D01*
X549021D02*
X548748Y48122D01*
X548748D02*
X548476Y48872D01*
X492102Y44842D02*
X497011D01*
X494556Y54122D02*
Y47372D01*
X492102Y50747D02*
X497011D01*
X501102Y55247D02*
X500283Y54872D01*
X500283D02*
X499738Y53747D01*
X499465Y51872*
X499465D02*
Y50747D01*
X499465D02*
X499738Y48872D01*
X500283Y47747*
X500283D02*
X501102Y47372D01*
X501647*
X502465Y47747*
X502465D02*
X503011Y48872D01*
X503283Y50747*
X503283D02*
Y51872D01*
X503283D02*
X503011Y53747D01*
X502465Y54872*
X502465D02*
X501647Y55247D01*
X501102*
X506011Y48122D02*
X505738Y47747D01*
X506011Y47372*
X506283Y47747*
X506283D02*
X506011Y48122D01*
X508738Y53747D02*
X509283Y54122D01*
X509283D02*
X510102Y55247D01*
Y47372*
X516102Y55247D02*
X513374D01*
X513374D02*
X513102Y51872D01*
X513374Y52247*
X513374D02*
X514192Y52622D01*
X514192D02*
X515011D01*
X515829Y52247*
X516374Y51497*
X516374D02*
X516647Y50372D01*
X516374Y49622*
X516374D02*
X516102Y48497D01*
X515556Y47747*
X515556D02*
X514738Y47372D01*
X513920*
X513102Y47747*
X512829Y48122*
X512556Y48872*
X496039Y76338D02*
X500948D01*
X498493Y85618D02*
Y78868D01*
X496039Y82243D02*
X500948D01*
X505039Y86743D02*
X504220Y86368D01*
X504220D02*
X503675Y85243D01*
X503402Y83368*
X503402D02*
Y82243D01*
X503402D02*
X503675Y80368D01*
X504220Y79243*
X504220D02*
X505039Y78868D01*
X505584*
X506402Y79243*
X506402D02*
X506948Y80368D01*
X507220Y82243*
X507220D02*
Y83368D01*
X507220D02*
X506948Y85243D01*
X506402Y86368*
X506402D02*
X505584Y86743D01*
X505039*
X509948Y79618D02*
X509675Y79243D01*
X509948Y78868*
X510220Y79243*
X510220D02*
X509948Y79618D01*
X513220Y86743D02*
X516220D01*
X516220D02*
X514584Y83743D01*
X515402*
X515402D02*
X515948Y83368D01*
X516220Y82993*
X516220D02*
X516493Y81868D01*
X516493D02*
Y81118D01*
X516493D02*
X516220Y79993D01*
X516220D02*
X515675Y79243D01*
X514857Y78868*
X514039*
X513220Y79243*
X513220D02*
X512948Y79618D01*
X512675Y80368*
X529504Y111209D02*
X533867Y108209D01*
X533867D02*
X529504Y104834D01*
X535504Y110459D02*
Y110834D01*
X535776Y111584*
X535776D02*
X536049Y111959D01*
X536594Y112334*
X536594D02*
X537685D01*
X537685D02*
X538231Y111959D01*
X538504Y111584*
X538776Y110834*
X538776D02*
Y110084D01*
X538776D02*
X538504Y109334D01*
X537958Y108209*
X537958D02*
X535231Y104459D01*
X539049*
X543140Y112334D02*
X542322Y111959D01*
X541776Y110834*
X541776D02*
X541504Y108959D01*
Y107834*
X541776Y105959*
X541776D02*
X542322Y104834D01*
X543140Y104459*
X543685*
X543685D02*
X544504Y104834D01*
X545049Y105959*
X545322Y107834*
Y108959*
X545049Y110834*
X544504Y111959*
X543685Y112334*
X543685D02*
X543140D01*
X549413D02*
X548594Y111959D01*
X548594D02*
X548049Y110834D01*
X547776Y108959*
X547776D02*
Y107834D01*
X547776D02*
X548049Y105959D01*
X548594Y104834*
X548594D02*
X549413Y104459D01*
X549958*
X549958D02*
X550776Y104834D01*
X550776D02*
X551322Y105959D01*
X551594Y107834*
X551594D02*
Y108959D01*
X551594D02*
X551322Y110834D01*
X550776Y111959*
X550776D02*
X549958Y112334D01*
X549958D02*
X549413D01*
X498434Y111209D02*
X494071Y108209D01*
X498434Y104834*
X500071Y110459D02*
Y110834D01*
X500343Y111584*
X500343D02*
X500616Y111959D01*
X501161Y112334*
X501161D02*
X502252D01*
X502252D02*
X502798Y111959D01*
X503071Y111584*
X503343Y110834*
X503343D02*
Y110084D01*
X503343D02*
X503071Y109334D01*
X502525Y108209*
X502525D02*
X499798Y104459D01*
X503616*
X507707Y112334D02*
X506889Y111959D01*
X506343Y110834*
X506343D02*
X506071Y108959D01*
Y107834*
X506343Y105959*
X506343D02*
X506889Y104834D01*
X507707Y104459*
X508252*
X508252D02*
X509071Y104834D01*
X509616Y105959*
X509889Y107834*
Y108959*
X509616Y110834*
X509071Y111959*
X508252Y112334*
X508252D02*
X507707D01*
X513980D02*
X513161Y111959D01*
X513161D02*
X512616Y110834D01*
X512343Y108959*
X512343D02*
Y107834D01*
X512343D02*
X512616Y105959D01*
X513161Y104834*
X513161D02*
X513980Y104459D01*
X514525*
X514525D02*
X515343Y104834D01*
X515343D02*
X515889Y105959D01*
X516161Y107834*
X516161D02*
Y108959D01*
X516161D02*
X515889Y110834D01*
X515343Y111959*
X515343D02*
X514525Y112334D01*
X514525D02*
X513980D01*
X494071Y103897D02*
X498980D01*
X498008Y124988D02*
X502371Y121988D01*
X502371D02*
X498008Y118613D01*
X507280Y126113D02*
X504553D01*
X504280Y122738*
X504280D02*
X504553Y123113D01*
X505371Y123488*
X505371D02*
X506189D01*
X506189D02*
X507008Y123113D01*
X507553Y122363*
X507826Y121238*
X507553Y120488*
X507280Y119363*
X507280D02*
X506735Y118613D01*
X505917Y118238*
X505098*
X505098D02*
X504280Y118613D01*
X504280D02*
X504008Y118988D01*
X503735Y119738*
X511917Y126113D02*
X511098Y125738D01*
X511098D02*
X510553Y124613D01*
X510280Y122738*
X510280D02*
Y121613D01*
X510280D02*
X510553Y119738D01*
X511098Y118613*
X511098D02*
X511917Y118238D01*
X512462*
X512462D02*
X513280Y118613D01*
X513280D02*
X513826Y119738D01*
X514098Y121613*
X514098D02*
Y122738D01*
X514098D02*
X513826Y124613D01*
X513280Y125738*
X513280D02*
X512462Y126113D01*
X512462D02*
X511917D01*
X462575Y124988D02*
X466938Y121988D01*
X466938D02*
X462575Y118613D01*
X468302Y124613D02*
X468847Y124988D01*
X468847D02*
X469665Y126113D01*
X469665D02*
Y118238D01*
X473756Y126113D02*
X472938Y125738D01*
X472938D02*
X472393Y124613D01*
X472120Y122738*
Y121613*
X472393Y119738*
X472938Y118613*
X472938D02*
X473756Y118238D01*
X473756D02*
X474302D01*
X475120Y118613*
X475665Y119738*
X475665D02*
X475938Y121613D01*
X475938D02*
Y122738D01*
X475938D02*
X475665Y124613D01*
X475665D02*
X475120Y125738D01*
X474302Y126113*
X473756*
X464969Y111209D02*
X460606Y108209D01*
X464969Y104834*
X469878Y112334D02*
X467151D01*
X466878Y108959*
X466878D02*
X467151Y109334D01*
X467969Y109709*
X467969D02*
X468787D01*
X468787D02*
X469606Y109334D01*
X470151Y108584*
X470424Y107459*
X470151Y106709*
X469878Y105584*
X469878D02*
X469333Y104834D01*
X468515Y104459*
X467696*
X467696D02*
X466878Y104834D01*
X466878D02*
X466606Y105209D01*
X466333Y105959*
X474515Y112334D02*
X473696Y111959D01*
X473696D02*
X473151Y110834D01*
X472878Y108959*
X472878D02*
Y107834D01*
X472878D02*
X473151Y105959D01*
X473696Y104834*
X473696D02*
X474515Y104459D01*
X475060*
X475060D02*
X475878Y104834D01*
X475878D02*
X476424Y105959D01*
X476696Y107834*
X476696D02*
Y108959D01*
X476696D02*
X476424Y110834D01*
X475878Y111959*
X475878D02*
X475060Y112334D01*
X475060D02*
X474515D01*
X460606Y103897D02*
X465515D01*
X463060Y54122D02*
Y47372D01*
X460606Y50747D02*
X465515D01*
X469606Y55247D02*
X468787Y54872D01*
X468787D02*
X468242Y53747D01*
X467969Y51872*
X467969D02*
Y50747D01*
X467969D02*
X468242Y48872D01*
X468787Y47747*
X468787D02*
X469606Y47372D01*
X470151*
X470969Y47747*
X470969D02*
X471515Y48872D01*
X471787Y50747*
X471787D02*
Y51872D01*
X471787D02*
X471515Y53747D01*
X470969Y54872*
X470969D02*
X470151Y55247D01*
X469606*
X474515Y48122D02*
X474242Y47747D01*
X474515Y47372*
X474787Y47747*
X474787D02*
X474515Y48122D01*
X477242Y53747D02*
X477787Y54122D01*
X477787D02*
X478606Y55247D01*
Y47372*
X460606Y44842D02*
X465515D01*
X458638Y76338D02*
X463547D01*
X461092Y85618D02*
Y78868D01*
X458638Y82243D02*
X463547D01*
X467638Y86743D02*
X466819Y86368D01*
X466819D02*
X466274Y85243D01*
X466001Y83368*
X466001D02*
Y82243D01*
X466001D02*
X466274Y80368D01*
X466819Y79243*
X466819D02*
X467638Y78868D01*
X468183*
X469001Y79243*
X469001D02*
X469547Y80368D01*
X469819Y82243*
X469819D02*
Y83368D01*
X469819D02*
X469547Y85243D01*
X469001Y86368*
X469001D02*
X468183Y86743D01*
X467638*
X472547Y79618D02*
X472274Y79243D01*
X472547Y78868*
X472819Y79243*
X472819D02*
X472547Y79618D01*
X475547Y84868D02*
Y85243D01*
X475819Y85993*
X475819D02*
X476092Y86368D01*
X476092D02*
X476638Y86743D01*
X477728*
X477728D02*
X478274Y86368D01*
X478547Y85993*
X478819Y85243*
X478819D02*
Y84493D01*
X478819D02*
X478547Y83743D01*
X478001Y82618*
X478001D02*
X475274Y78868D01*
X479092*
X427142Y44842D02*
X432051D01*
X429596Y85618D02*
Y78868D01*
X427142Y82243D02*
X432051D01*
X436142Y86743D02*
X435323Y86368D01*
X435323D02*
X434778Y85243D01*
X434505Y83368*
X434505D02*
Y82243D01*
X434505D02*
X434778Y80368D01*
X435323Y79243*
X435323D02*
X436142Y78868D01*
X436687*
X437505Y79243*
X437505D02*
X438051Y80368D01*
X438323Y82243*
X438323D02*
Y83368D01*
X438323D02*
X438051Y85243D01*
X437505Y86368*
X437505D02*
X436687Y86743D01*
X436142*
X441051Y79618D02*
X440778Y79243D01*
X441051Y78868*
X441323Y79243*
X441323D02*
X441051Y79618D01*
X443778Y85243D02*
X444323Y85618D01*
X444323D02*
X445142Y86743D01*
Y78868*
X433473Y111209D02*
X429110Y108209D01*
X433473Y104834*
X434837Y110834D02*
X435382Y111209D01*
X435382D02*
X436200Y112334D01*
X436200D02*
Y104459D01*
X440291Y112334D02*
X439473Y111959D01*
X439473D02*
X438928Y110834D01*
X438655Y108959*
Y107834*
X438928Y105959*
X439473Y104834*
X439473D02*
X440291Y104459D01*
X440291D02*
X440837D01*
X441655Y104834*
X442200Y105959*
X442200D02*
X442473Y107834D01*
X442473D02*
Y108959D01*
X442473D02*
X442200Y110834D01*
X442200D02*
X441655Y111959D01*
X440837Y112334*
X440291*
X429596Y54122D02*
Y47372D01*
X427142Y50747D02*
X432051D01*
X436142Y55247D02*
X435323Y54872D01*
X435323D02*
X434778Y53747D01*
X434505Y51872*
X434505D02*
Y50747D01*
X434505D02*
X434778Y48872D01*
X435323Y47747*
X435323D02*
X436142Y47372D01*
X436687*
X437505Y47747*
X437505D02*
X438051Y48872D01*
X438323Y50747*
X438323D02*
Y51872D01*
X438323D02*
X438051Y53747D01*
X437505Y54872*
X437505D02*
X436687Y55247D01*
X436142*
X441051Y48122D02*
X440778Y47747D01*
X441051Y47372*
X441323Y47747*
X441323D02*
X441051Y48122D01*
X447323Y55247D02*
X444596D01*
X444596D02*
X444323Y51872D01*
X444323D02*
X444596Y52247D01*
X444596D02*
X445414Y52622D01*
X445414D02*
X446232D01*
X446232D02*
X447051Y52247D01*
X447596Y51497*
X447596D02*
X447869Y50372D01*
X447596Y49622*
X447596D02*
X447323Y48497D01*
X447323D02*
X446778Y47747D01*
X445960Y47372*
X445142*
X444323Y47747*
X444323D02*
X444051Y48122D01*
X443778Y48872*
X427142Y76338D02*
X432051D01*
X429110Y103897D02*
X434019D01*
X436652Y126113D02*
X435834Y125738D01*
X435288Y124613*
X435288D02*
X435016Y122738D01*
Y121613*
X435288Y119738*
X435288D02*
X435834Y118613D01*
X436652Y118238*
X437197*
X437197D02*
X438016Y118613D01*
X438561Y119738*
X438834Y121613*
Y122738*
X438561Y124613*
X438016Y125738*
X437197Y126113*
X437197D02*
X436652D01*
X452732Y145798D02*
Y140173D01*
X453004Y139048*
X453004D02*
X453550Y138298D01*
X454368Y137923*
X454913*
X454913D02*
X455732Y138298D01*
X456277Y139048*
X456550Y140173*
Y145798*
X459004D02*
Y137923D01*
Y145798D02*
X462822Y137923D01*
Y145798D02*
Y137923D01*
X465277Y145798D02*
Y137923D01*
X469641Y145798D02*
Y137923D01*
X467732Y145798D02*
X471550D01*
X474004Y142423D02*
X478913D01*
X474004Y140173D02*
X478913D01*
X481368Y143173D02*
Y137923D01*
Y141673D02*
X482186Y142798D01*
X482186D02*
X482732Y143173D01*
X483550*
X484095Y142798*
X484095D02*
X484368Y141673D01*
Y137923*
Y141673D02*
X485186Y142798D01*
X485186D02*
X485732Y143173D01*
X486550*
X487095Y142798*
X487095D02*
X487368Y141673D01*
Y137923*
X489822Y143173D02*
Y137923D01*
Y141673D02*
X490641Y142798D01*
X491186Y143173*
X491186D02*
X492004D01*
X492004D02*
X492550Y142798D01*
X492822Y141673*
X492822D02*
Y137923D01*
Y141673D02*
X493641Y142798D01*
X494186Y143173*
X494186D02*
X495004D01*
X495004D02*
X495550Y142798D01*
X495822Y141673*
X495822D02*
Y137923D01*
X368299Y53279D02*
X366118Y45404D01*
X368299Y53279D02*
X370481Y45404D01*
X366936Y48029D02*
X369663D01*
X377027Y51404D02*
X376754Y52154D01*
X376208Y52904*
X376208D02*
X375663Y53279D01*
X374572*
X374572D02*
X374027Y52904D01*
X373481Y52154*
X373481D02*
X373208Y51404D01*
X373208D02*
X372936Y50279D01*
Y48404*
X373208Y47279*
X373208D02*
X373481Y46529D01*
X373481D02*
X374027Y45779D01*
X374572Y45404*
X374572D02*
X375663D01*
X376208Y45779*
X376208D02*
X376754Y46529D01*
X377027Y47279*
X383572Y51404D02*
X383299Y52154D01*
X383299D02*
X382754Y52904D01*
X382208Y53279*
X382208D02*
X381118D01*
X380572Y52904*
X380572D02*
X380027Y52154D01*
X379754Y51404*
X379481Y50279*
X379481D02*
Y48404D01*
X379481D02*
X379754Y47279D01*
X380027Y46529*
X380572Y45779*
X380572D02*
X381118Y45404D01*
X382208*
X382208D02*
X382754Y45779D01*
X383299Y46529*
X383299D02*
X383572Y47279D01*
X386027Y53279D02*
Y47654D01*
X386299Y46529*
X386299D02*
X386845Y45779D01*
X387663Y45404*
X388208*
X388208D02*
X389027Y45779D01*
X389572Y46529*
X389572D02*
X389845Y47654D01*
Y53279*
X392299D02*
Y45404D01*
Y53279D02*
X394754D01*
X395572Y52904*
X395572D02*
X395845Y52529D01*
X396118Y51779*
Y51029*
X395845Y50279*
X395572Y49904*
X395572D02*
X394754Y49529D01*
X392299*
X394208D02*
X396118Y45404D01*
X400754Y53279D02*
X398572Y45404D01*
X400754Y53279D02*
X402936Y45404D01*
X399390Y48029D02*
X402118D01*
X407299Y53279D02*
Y45404D01*
X405390Y53279D02*
X409208D01*
X411663D02*
Y45404D01*
Y53279D02*
X415208D01*
X411663Y49529D02*
X413845D01*
X411663Y45404D02*
X415208D01*
X372024Y86743D02*
Y78868D01*
Y86743D02*
X374205Y78868D01*
X376387Y86743D02*
X374205Y78868D01*
X376387Y86743D02*
Y78868D01*
X378842Y86743D02*
Y78868D01*
X381296Y86743D02*
Y78868D01*
Y86743D02*
X383205D01*
X383205D02*
X384024Y86368D01*
X384569Y85618*
X384842Y84868*
X385114Y83743*
X385114D02*
Y81868D01*
X385114D02*
X384842Y80743D01*
X384569Y79993*
X384024Y79243*
X383205Y78868*
X383205D02*
X381296D01*
X387569Y86743D02*
Y78868D01*
Y86743D02*
X389478D01*
X389478D02*
X390296Y86368D01*
X390296D02*
X390842Y85618D01*
X391114Y84868*
X391114D02*
X391387Y83743D01*
X391387D02*
Y81868D01*
X391387D02*
X391114Y80743D01*
X391114D02*
X390842Y79993D01*
X390296Y79243*
X390296D02*
X389478Y78868D01*
X389478D02*
X387569D01*
X393842Y86743D02*
Y78868D01*
X397114*
X399569Y86743D02*
Y78868D01*
Y86743D02*
X403114D01*
X399569Y82993D02*
X401751D01*
X399569Y78868D02*
X403114D01*
X370055Y118239D02*
Y110364D01*
X373327*
X375782Y118239D02*
Y110364D01*
X378236Y118239D02*
Y110364D01*
Y118239D02*
X382055Y110364D01*
Y118239D02*
Y110364D01*
X384509Y118239D02*
Y110364D01*
Y118239D02*
X388055D01*
X384509Y114489D02*
X386691D01*
X384509Y110364D02*
X388055D01*
X392691Y118239D02*
X390509Y110364D01*
X392691Y118239D02*
X394873Y110364D01*
X391327Y112989D02*
X394055D01*
X397327Y118239D02*
Y110364D01*
Y118239D02*
X399782D01*
X400600Y117864*
X400873Y117489*
X401145Y116739*
X401145D02*
Y115989D01*
X401145D02*
X400873Y115239D01*
X400600Y114864*
X399782Y114489*
X397327*
X399236D02*
X401145Y110364D01*
X411334Y161546D02*
Y153671D01*
X409425Y161546D02*
X413243D01*
X417334D02*
X416788Y161171D01*
X416788D02*
X416243Y160421D01*
X415970Y159671*
X415697Y158546*
X415697D02*
Y156671D01*
X415697D02*
X415970Y155546D01*
X416243Y154796*
X416788Y154046*
X416788D02*
X417334Y153671D01*
X418425*
X418970Y154046*
X419515Y154796*
X419515D02*
X419788Y155546D01*
X419788D02*
X420061Y156671D01*
Y158546*
X419788Y159671*
X419788D02*
X419515Y160421D01*
X419515D02*
X418970Y161171D01*
X418425Y161546*
X417334*
X422515D02*
Y153671D01*
X422515D02*
X425788D01*
X428243Y161546D02*
Y153671D01*
Y161546D02*
X431788D01*
X428243Y157796D02*
X430425D01*
X428243Y153671D02*
X431788D01*
X434243Y161546D02*
Y153671D01*
Y161546D02*
X436697D01*
X436697D02*
X437515Y161171D01*
X437515D02*
X437788Y160796D01*
X437788D02*
X438061Y160046D01*
Y159296*
X437788Y158546*
X437788D02*
X437515Y158171D01*
X437515D02*
X436697Y157796D01*
X436697D02*
X434243D01*
X436152D02*
X438061Y153671D01*
X442697Y161546D02*
X440515Y153671D01*
X442697Y161546D02*
X444879Y153671D01*
X441334Y156296D02*
X444061D01*
X447334Y161546D02*
Y153671D01*
Y161546D02*
X451152Y153671D01*
Y161546D02*
Y153671D01*
X457697Y159671D02*
X457425Y160421D01*
X456879Y161171*
X456879D02*
X456334Y161546D01*
X455243*
X454697Y161171*
X454697D02*
X454152Y160421D01*
X453879Y159671*
X453879D02*
X453606Y158546D01*
X453606D02*
Y156671D01*
X453606D02*
X453879Y155546D01*
X453879D02*
X454152Y154796D01*
X454697Y154046*
X454697D02*
X455243Y153671D01*
X456334*
X456879Y154046*
X456879D02*
X457425Y154796D01*
X457697Y155546*
X460152Y161546D02*
Y153671D01*
Y161546D02*
X463697D01*
X460152Y157796D02*
X462334D01*
X460152Y153671D02*
X463697D01*
X471061Y161546D02*
Y155921D01*
X471334Y154796*
X471879Y154046*
X471879D02*
X472697Y153671D01*
X472697D02*
X473243D01*
X474061Y154046*
X474606Y154796*
X474606D02*
X474879Y155921D01*
X474879D02*
Y161546D01*
X477334D02*
Y153671D01*
Y161546D02*
X481152Y153671D01*
Y161546D02*
Y153671D01*
X483606Y161546D02*
Y153671D01*
X483606D02*
X486879D01*
X489334Y161546D02*
Y153671D01*
Y161546D02*
X492879D01*
X489334Y157796D02*
X491515D01*
X489334Y153671D02*
X492879D01*
X499152Y160421D02*
X498606Y161171D01*
X498606D02*
X497788Y161546D01*
X497788D02*
X496697D01*
X496697D02*
X495879Y161171D01*
X495879D02*
X495334Y160421D01*
Y159671*
X495606Y158921*
X495606D02*
X495879Y158546D01*
X495879D02*
X496425Y158171D01*
X498061Y157421*
X498606Y157046*
X498606D02*
X498879Y156671D01*
X498879D02*
X499152Y155921D01*
Y154796*
X498606Y154046*
X498606D02*
X497788Y153671D01*
X497788D02*
X496697D01*
X496697D02*
X495879Y154046D01*
X495879D02*
X495334Y154796D01*
X505425Y160421D02*
X504879Y161171D01*
X504879D02*
X504061Y161546D01*
X502970*
X502152Y161171*
X501606Y160421*
X501606D02*
Y159671D01*
X501606D02*
X501879Y158921D01*
X501879D02*
X502152Y158546D01*
X502697Y158171*
X502697D02*
X504334Y157421D01*
X504879Y157046*
X504879D02*
X505152Y156671D01*
X505425Y155921*
Y154796*
X504879Y154046*
X504879D02*
X504061Y153671D01*
X502970*
X502152Y154046*
X501606Y154796*
X512788Y161546D02*
Y153671D01*
Y161546D02*
X516606Y153671D01*
Y161546D02*
Y153671D01*
X520697Y161546D02*
X520152Y161171D01*
X519606Y160421*
X519606D02*
X519334Y159671D01*
X519061Y158546*
Y156671*
X519334Y155546*
X519606Y154796*
X519606D02*
X520152Y154046D01*
X520697Y153671*
X520697D02*
X521788D01*
X521788D02*
X522334Y154046D01*
X522879Y154796*
X522879D02*
X523152Y155546D01*
X523425Y156671*
Y158546*
X523152Y159671*
X522879Y160421*
X522879D02*
X522334Y161171D01*
X521788Y161546*
X521788D02*
X520697D01*
X527788D02*
Y153671D01*
X525879Y161546D02*
X529697D01*
X532152D02*
Y153671D01*
Y161546D02*
X535697D01*
X532152Y157796D02*
X534334D01*
X532152Y153671D02*
X535697D01*
X538152Y161546D02*
Y153671D01*
Y161546D02*
X540061D01*
X540879Y161171*
X540879D02*
X541425Y160421D01*
X541697Y159671*
X541697D02*
X541970Y158546D01*
Y156671*
X541697Y155546*
X541697D02*
X541425Y154796D01*
X540879Y154046*
X540879D02*
X540061Y153671D01*
X538152*
X356276Y230444D02*
Y222569D01*
Y230444D02*
X358185D01*
X359003Y230069*
X359548Y229319*
X359548D02*
X359821Y228569D01*
X360094Y227444*
Y225569*
X359821Y224444*
X359548Y223694*
X359548D02*
X359003Y222944D01*
X358185Y222569*
X356276*
X362548Y230444D02*
Y222569D01*
Y230444D02*
X366094D01*
X362548Y226694D02*
X364730D01*
X362548Y222569D02*
X366094D01*
X372366Y229319D02*
X371821Y230069D01*
X371003Y230444*
X369912*
X369094Y230069*
X368548Y229319*
X368548D02*
Y228569D01*
X368548D02*
X368821Y227819D01*
X369094Y227444*
X369639Y227069*
X369639D02*
X371276Y226319D01*
X371821Y225944*
X372094Y225569*
X372366Y224819*
X372366D02*
Y223694D01*
X372366D02*
X371821Y222944D01*
X371003Y222569*
X369912*
X369094Y222944*
X368548Y223694*
X378912Y228569D02*
X378639Y229319D01*
X378639D02*
X378094Y230069D01*
X377548Y230444*
X377548D02*
X376457D01*
X376457D02*
X375912Y230069D01*
X375366Y229319*
X375366D02*
X375094Y228569D01*
X374821Y227444*
Y225569*
X375094Y224444*
X375366Y223694*
X375366D02*
X375912Y222944D01*
X376457Y222569*
X376457D02*
X377548D01*
X377548D02*
X378094Y222944D01*
X378639Y223694*
X378639D02*
X378912Y224444D01*
X381366Y230444D02*
Y222569D01*
Y230444D02*
X383821D01*
X384639Y230069*
X384639D02*
X384912Y229694D01*
X385185Y228944*
Y228194*
X384912Y227444*
X384639Y227069*
X384639D02*
X383821Y226694D01*
X381366*
X383276D02*
X385185Y222569D01*
X387639Y230444D02*
Y222569D01*
X390094Y230444D02*
Y222569D01*
Y230444D02*
X392548D01*
X392548D02*
X393366Y230069D01*
X393366D02*
X393639Y229694D01*
X393639D02*
X393912Y228944D01*
Y227819*
X393639Y227069*
X393639D02*
X393366Y226694D01*
X393366D02*
X392548Y226319D01*
X392548D02*
X390094D01*
X398276Y230444D02*
Y222569D01*
X396366Y230444D02*
X400185D01*
X402639D02*
Y222569D01*
X406730Y230444D02*
X406185Y230069D01*
X405639Y229319*
X405639D02*
X405366Y228569D01*
X405366D02*
X405094Y227444D01*
Y225569*
X405366Y224444*
X405366D02*
X405639Y223694D01*
X405639D02*
X406185Y222944D01*
X406730Y222569*
X406730D02*
X407821D01*
X408366Y222944*
X408366D02*
X408912Y223694D01*
X409185Y224444*
X409457Y225569*
X409457D02*
Y227444D01*
X409457D02*
X409185Y228569D01*
X408912Y229319*
X408366Y230069*
X408366D02*
X407821Y230444D01*
X406730*
X411912D02*
Y222569D01*
Y230444D02*
X415730Y222569D01*
Y230444D02*
Y222569D01*
X508315Y906504D02*
Y901254D01*
X506133*
X502315Y905754D02*
X502496Y906254D01*
X502496D02*
X503042Y906504D01*
X503405*
X503405D02*
X503951Y906254D01*
X504315Y905504*
X504496Y904254*
X504496D02*
Y903004D01*
X504496D02*
X504315Y902004D01*
X503951Y901504*
X503405Y901254*
X503405D02*
X503224D01*
X502678Y901504*
X502678D02*
X502315Y902004D01*
X502133Y902754*
Y903004*
X502315Y903754*
X502678Y904254*
X502678D02*
X503224Y904504D01*
X503405*
X503405D02*
X503951Y904254D01*
X504315Y903754*
X504496Y903004*
X500315Y905254D02*
Y905504D01*
X500133Y906004*
X499951Y906254*
X499587Y906504*
X499587D02*
X498860D01*
X498496Y906254*
X498496D02*
X498315Y906004D01*
X498133Y905504*
Y905004*
X498315Y904504*
X498678Y903754*
X498678D02*
X500496Y901254D01*
X500496D02*
X497951D01*
X495224Y906504D02*
X495769Y906254D01*
X495769D02*
X496133Y905504D01*
X496315Y904254*
Y903504*
X496133Y902254*
X495769Y901504*
X495769D02*
X495224Y901254D01*
X494860*
X494315Y901504*
X493951Y902254*
X493769Y903504*
X493769D02*
Y904254D01*
X493769D02*
X493951Y905504D01*
X494315Y906254*
X494860Y906504*
X495224*
X489951Y905754D02*
X490133Y906254D01*
X490678Y906504*
X490678D02*
X491042D01*
X491587Y906254*
X491587D02*
X491951Y905504D01*
X492133Y904254*
Y903004*
X491951Y902004*
X491587Y901504*
X491587D02*
X491042Y901254D01*
X490860*
X490315Y901504*
X489951Y902004*
X489769Y902754*
X489769D02*
Y903004D01*
X489769D02*
X489951Y903754D01*
X490315Y904254*
X490860Y904504*
X491042*
X491587Y904254*
X491587D02*
X491951Y903754D01*
X492133Y903004*
X482315Y905754D02*
X482678Y906254D01*
X482678D02*
X483224Y906504D01*
X483951*
X484496Y906254*
X484496D02*
X484860Y905754D01*
Y905254*
X484678Y904754*
X484678D02*
X484496Y904504D01*
X484496D02*
X484133Y904254D01*
X483042Y903754*
X482678Y903504*
X482678D02*
X482496Y903254D01*
X482496D02*
X482315Y902754D01*
Y902004*
X482678Y901504*
X482678D02*
X483224Y901254D01*
X483951*
X484496Y901504*
X484496D02*
X484860Y902004D01*
X480678Y906504D02*
Y901254D01*
Y906504D02*
X479224Y901254D01*
X477769Y906504D02*
X479224Y901254D01*
X477769Y906504D02*
Y901254D01*
X476133Y906504D02*
Y901254D01*
Y906504D02*
X474860D01*
X474315Y906254*
X473951Y905754*
X473769Y905254*
X473769D02*
X473587Y904504D01*
X473587D02*
Y903254D01*
X473587D02*
X473769Y902504D01*
X473769D02*
X473951Y902004D01*
X474315Y901504*
X474860Y901254*
X476133*
X542315Y711504D02*
Y706254D01*
X540133*
X538315Y706754D02*
X538496Y706504D01*
X538496D02*
X538315Y706254D01*
X538133Y706504*
X538315Y706754*
X533951Y710754D02*
X534315Y711254D01*
X534860Y711504*
X535587*
X535587D02*
X536133Y711254D01*
X536496Y710754*
X536496D02*
Y710254D01*
X536496D02*
X536315Y709754D01*
X536133Y709504*
X535769Y709254*
X535769D02*
X534678Y708754D01*
X534678D02*
X534315Y708504D01*
X534133Y708254*
X533951Y707754*
Y707004*
X534315Y706504*
X534860Y706254*
X535587*
X535587D02*
X536133Y706504D01*
X536496Y707004*
X532133Y706754D02*
X532315Y706504D01*
X532133Y706254*
X531951Y706504*
X532133Y706754*
G54D16*
X284340Y82087D02*
X283317Y81619D01*
X283317D02*
X282635Y80212D01*
X282635D02*
X282295Y77869D01*
Y76462*
X282295D02*
X282635Y74119D01*
X282635D02*
X283317Y72712D01*
X283317D02*
X284340Y72244D01*
X285022*
X286045Y72712*
X286045D02*
X286726Y74119D01*
X286726D02*
X287067Y76462D01*
X287067D02*
Y77869D01*
X287067D02*
X286726Y80212D01*
X286726D02*
X286045Y81619D01*
X285022Y82087*
X285022D02*
X284340D01*
X293545D02*
X290135Y75525D01*
X290135D02*
X295249D01*
X293545Y82087D02*
Y72244D01*
X298658Y73181D02*
X298317Y72712D01*
X298317D02*
X298658Y72244D01*
X298658D02*
X298999Y72712D01*
X298999D02*
X298658Y73181D01*
X302067Y80212D02*
X302749Y80681D01*
X302749D02*
X303772Y82087D01*
X303772D02*
Y72244D01*
X308885Y82087D02*
X307863Y81619D01*
X307181Y80212*
X307181D02*
X306840Y77869D01*
Y76462*
X306840D02*
X307181Y74119D01*
X307863Y72712*
X307863D02*
X308885Y72244D01*
X308885D02*
X309567D01*
X309567D02*
X310590Y72712D01*
X310590D02*
X311272Y74119D01*
X311613Y76462*
X311613D02*
Y77869D01*
X311272Y80212*
X311272D02*
X310590Y81619D01*
X309567Y82087*
X309567D02*
X308885D01*
X315022Y73181D02*
X314681Y72712D01*
X314681D02*
X315022Y72244D01*
X315363Y72712*
X315363D02*
X315022Y73181D01*
X320476Y82087D02*
X319454Y81619D01*
X318772Y80212*
X318772D02*
X318431Y77869D01*
Y76462*
X318431D02*
X318772Y74119D01*
X319454Y72712*
X319454D02*
X320476Y72244D01*
X320476D02*
X321158D01*
X321158D02*
X322181Y72712D01*
X322181D02*
X322863Y74119D01*
X323204Y76462*
X323204D02*
Y77869D01*
X322863Y80212*
X322863D02*
X322181Y81619D01*
X321158Y82087*
X321158D02*
X320476D01*
X328317D02*
X327295Y81619D01*
X326613Y80212*
X326613D02*
X326272Y77869D01*
Y76462*
X326272D02*
X326613Y74119D01*
X327295Y72712*
X327295D02*
X328317Y72244D01*
X328317D02*
X328999D01*
X328999D02*
X330022Y72712D01*
X330022D02*
X330704Y74119D01*
X331045Y76462*
X331045D02*
Y77869D01*
X330704Y80212*
X330704D02*
X330022Y81619D01*
X328999Y82087*
X328999D02*
X328317D01*
X464795Y189587D02*
Y179744D01*
Y189587D02*
X467863D01*
X467863D02*
X468885Y189119D01*
X468885D02*
X469226Y188650D01*
X469226D02*
X469567Y187712D01*
X469567D02*
Y186775D01*
X469567D02*
X469226Y185837D01*
X469226D02*
X468885Y185369D01*
X468885D02*
X467863Y184900D01*
X464795D02*
X467863D01*
X468885Y184431*
X468885D02*
X469226Y183962D01*
X469226D02*
X469567Y183025D01*
X469567D02*
Y181619D01*
X469567D02*
X469226Y180681D01*
X469226D02*
X468885Y180212D01*
X468885D02*
X467863Y179744D01*
X464795*
X474681Y189587D02*
X473999Y189119D01*
X473999D02*
X473317Y188181D01*
X473317D02*
X472976Y187244D01*
X472976D02*
X472635Y185837D01*
X472635D02*
Y183494D01*
X472635D02*
X472976Y182087D01*
X472976D02*
X473317Y181150D01*
X473317D02*
X473999Y180212D01*
X473999D02*
X474681Y179744D01*
X476045*
X476726Y180212*
X476726D02*
X477408Y181150D01*
X477408D02*
X477749Y182087D01*
X477749D02*
X478090Y183494D01*
Y185837*
X478090D02*
X477749Y187244D01*
X477749D02*
X477408Y188181D01*
X477408D02*
X476726Y189119D01*
X476726D02*
X476045Y189587D01*
X476045D02*
X474681D01*
X483545D02*
Y179744D01*
X481158Y189587D02*
X485931D01*
X499908Y188181D02*
X499226Y189119D01*
X499226D02*
X498204Y189587D01*
X498204D02*
X496840D01*
X496840D02*
X495817Y189119D01*
X495817D02*
X495135Y188181D01*
X495135D02*
Y187244D01*
X495135D02*
X495476Y186306D01*
X495476D02*
X495817Y185837D01*
X495817D02*
X496499Y185369D01*
X496499D02*
X498545Y184431D01*
X498545D02*
X499226Y183962D01*
X499226D02*
X499567Y183494D01*
X499567D02*
X499908Y182556D01*
X499908D02*
Y181150D01*
X499908D02*
X499226Y180212D01*
X499226D02*
X498204Y179744D01*
X496840*
X495817Y180212*
X495817D02*
X495135Y181150D01*
X502976Y189587D02*
Y179744D01*
X506045Y189587D02*
Y179744D01*
Y189587D02*
X508431D01*
X508431D02*
X509454Y189119D01*
X510135Y188181*
X510135D02*
X510476Y187244D01*
X510476D02*
X510817Y185837D01*
X510817D02*
Y183494D01*
X510817D02*
X510476Y182087D01*
X510476D02*
X510135Y181150D01*
X510135D02*
X509454Y180212D01*
X509454D02*
X508431Y179744D01*
X506045*
X513885Y189587D02*
Y179744D01*
Y189587D02*
X518317D01*
X513885Y184900D02*
X516613D01*
X513885Y179744D02*
X518317D01*
X720226Y187487D02*
X716817D01*
X716817D02*
X716476Y183269D01*
X716476D02*
X716817Y183737D01*
X716817D02*
X717840Y184206D01*
X717840D02*
X718863D01*
X718863D02*
X719885Y183737D01*
X719885D02*
X720567Y182800D01*
X720567D02*
X720908Y181394D01*
X720908D02*
X720567Y180456D01*
X720567D02*
X720226Y179050D01*
X720226D02*
X719545Y178112D01*
X719545D02*
X718522Y177644D01*
X717499*
X717499D02*
X716476Y178112D01*
X716476D02*
X716135Y178581D01*
X716135D02*
X715795Y179519D01*
X724317Y178581D02*
X723976Y178112D01*
X723976D02*
X724317Y177644D01*
X724317D02*
X724658Y178112D01*
X724658D02*
X724317Y178581D01*
X727726Y185612D02*
X728408Y186081D01*
X728408D02*
X729431Y187487D01*
X729431D02*
Y177644D01*
X732840Y178581D02*
X732499Y178112D01*
X732499D02*
X732840Y177644D01*
X733181Y178112*
X733181D02*
X732840Y178581D01*
X738295Y187487D02*
X737272Y187019D01*
X736590Y185612*
X736590D02*
X736249Y183269D01*
X736249D02*
Y181862D01*
X736249D02*
X736590Y179519D01*
X737272Y178112*
X737272D02*
X738295Y177644D01*
X738976*
X738976D02*
X739999Y178112D01*
X739999D02*
X740681Y179519D01*
X741022Y181862*
X741022D02*
Y183269D01*
X740681Y185612*
X740681D02*
X739999Y187019D01*
X739999D02*
X738976Y187487D01*
X738976D02*
X738295D01*
X744431Y185144D02*
Y185612D01*
X744431D02*
X744772Y186550D01*
X745113Y187019*
X745795Y187487*
X745795D02*
X747158D01*
X747158D02*
X747840Y187019D01*
X748181Y186550*
X748522Y185612*
X748522D02*
Y184675D01*
X748181Y183737*
X748181D02*
X747499Y182331D01*
X747499D02*
X744090Y177644D01*
X748863*
X754658Y187487D02*
X751931Y177644D01*
X754658Y187487D02*
X757385Y177644D01*
X752954Y180925D02*
X756363D01*
X407295Y213987D02*
Y204144D01*
X411385*
X418545Y212581D02*
X418204Y213519D01*
X417181Y213987*
X417181D02*
X416499D01*
X416499D02*
X415476Y213519D01*
X415476D02*
X414795Y212112D01*
X414795D02*
X414454Y209769D01*
Y207425*
X414795Y205550*
X415476Y204612*
X415476D02*
X416499Y204144D01*
X416499D02*
X416840D01*
X417863Y204612*
X417863D02*
X418545Y205550D01*
X418885Y206956*
X418885D02*
Y207425D01*
X418885D02*
X418545Y208831D01*
X418545D02*
X417863Y209769D01*
X416840Y210237*
X416840D02*
X416499D01*
X416499D02*
X415476Y209769D01*
X415476D02*
X414795Y208831D01*
X414795D02*
X414454Y207425D01*
X422295Y211644D02*
Y212112D01*
X422295D02*
X422635Y213050D01*
X422635D02*
X422976Y213519D01*
X422976D02*
X423658Y213987D01*
X423658D02*
X425022D01*
X425022D02*
X425704Y213519D01*
X426045Y213050*
X426385Y212112*
X426385D02*
Y211175D01*
X426385D02*
X426045Y210237D01*
X426045D02*
X425363Y208831D01*
X425363D02*
X421954Y204144D01*
X426726*
X431840Y213987D02*
X430817Y213519D01*
X430817D02*
X430135Y212112D01*
X430135D02*
X429795Y209769D01*
Y208362*
X429795D02*
X430135Y206019D01*
X430135D02*
X430817Y204612D01*
X430817D02*
X431840Y204144D01*
X432522*
X433545Y204612*
X433545D02*
X434226Y206019D01*
X434226D02*
X434567Y208362D01*
X434567D02*
Y209769D01*
X434567D02*
X434226Y212112D01*
X434226D02*
X433545Y213519D01*
X432522Y213987*
X432522D02*
X431840D01*
X441726Y212581D02*
X441385Y213519D01*
X441385D02*
X440363Y213987D01*
X440363D02*
X439681D01*
X439681D02*
X438658Y213519D01*
X438658D02*
X437976Y212112D01*
X437976D02*
X437635Y209769D01*
X437635D02*
Y207425D01*
X437635D02*
X437976Y205550D01*
X437976D02*
X438658Y204612D01*
X438658D02*
X439681Y204144D01*
X440022*
X441045Y204612*
X441045D02*
X441726Y205550D01*
X441726D02*
X442067Y206956D01*
X442067D02*
Y207425D01*
X442067D02*
X441726Y208831D01*
X441726D02*
X441045Y209769D01*
X440022Y210237*
X440022D02*
X439681D01*
X439681D02*
X438658Y209769D01*
X438658D02*
X437976Y208831D01*
X437976D02*
X437635Y207425D01*
X457408Y213987D02*
Y204144D01*
Y213987D02*
X461840D01*
X457408Y209300D02*
X460135D01*
X457408Y204144D02*
X461840D01*
X464908Y213987D02*
X467635Y204144D01*
X470363Y213987D02*
X467635Y204144D01*
X476158Y213987D02*
X473431Y204144D01*
X476158Y213987D02*
X478885Y204144D01*
X474454Y207425D02*
X477863D01*
X481954Y213987D02*
Y204144D01*
X486045*
X489113Y213987D02*
Y206956D01*
X489113D02*
X489454Y205550D01*
X490135Y204612*
X490135D02*
X491158Y204144D01*
X491158D02*
X491840D01*
X492863Y204612*
X492863D02*
X493545Y205550D01*
X493885Y206956*
X493885D02*
Y213987D01*
X499681D02*
X496954Y204144D01*
X499681Y213987D02*
X502408Y204144D01*
X497976Y207425D02*
X501385D01*
X507863Y213987D02*
Y204144D01*
X505476Y213987D02*
X510249D01*
X513317D02*
Y204144D01*
X518431Y213987D02*
X517749Y213519D01*
X517749D02*
X517067Y212581D01*
X517067D02*
X516726Y211644D01*
X516726D02*
X516385Y210237D01*
X516385D02*
Y207894D01*
X516385D02*
X516726Y206487D01*
X516726D02*
X517067Y205550D01*
X517067D02*
X517749Y204612D01*
X517749D02*
X518431Y204144D01*
X519795*
X520476Y204612*
X520476D02*
X521158Y205550D01*
X521158D02*
X521499Y206487D01*
X521499D02*
X521840Y207894D01*
Y210237*
X521840D02*
X521499Y211644D01*
X521499D02*
X521158Y212581D01*
X521158D02*
X520476Y213519D01*
X520476D02*
X519795Y213987D01*
X519795D02*
X518431D01*
X524908D02*
Y204144D01*
Y213987D02*
X529681Y204144D01*
Y213987D02*
Y204144D01*
X538885Y213987D02*
Y204144D01*
Y213987D02*
X541954D01*
X541954D02*
X542976Y213519D01*
X542976D02*
X543317Y213050D01*
X543317D02*
X543658Y212112D01*
X543658D02*
Y211175D01*
X543658D02*
X543317Y210237D01*
X543317D02*
X542976Y209769D01*
X542976D02*
X541954Y209300D01*
X538885D02*
X541954D01*
X542976Y208831*
X542976D02*
X543317Y208362D01*
X543317D02*
X543658Y207425D01*
X543658D02*
Y206019D01*
X543658D02*
X543317Y205081D01*
X543317D02*
X542976Y204612D01*
X542976D02*
X541954Y204144D01*
X538885*
X548772Y213987D02*
X548090Y213519D01*
X547408Y212581*
X547408D02*
X547067Y211644D01*
X547067D02*
X546726Y210237D01*
X546726D02*
Y207894D01*
X546726D02*
X547067Y206487D01*
X547067D02*
X547408Y205550D01*
X547408D02*
X548090Y204612D01*
X548090D02*
X548772Y204144D01*
X550135*
X550135D02*
X550817Y204612D01*
X550817D02*
X551499Y205550D01*
X551499D02*
X551840Y206487D01*
X551840D02*
X552181Y207894D01*
Y210237*
X552181D02*
X551840Y211644D01*
X551499Y212581*
X551499D02*
X550817Y213519D01*
X550817D02*
X550135Y213987D01*
X550135D02*
X548772D01*
X557976D02*
X555249Y204144D01*
X557976Y213987D02*
X560704Y204144D01*
X556272Y207425D02*
X559681D01*
X563772Y213987D02*
Y204144D01*
Y213987D02*
X566840D01*
X566840D02*
X567863Y213519D01*
X568204Y213050*
X568545Y212112*
X568545D02*
Y211175D01*
X568204Y210237*
X568204D02*
X567863Y209769D01*
X566840Y209300*
X563772*
X566158D02*
X568545Y204144D01*
X571613Y213987D02*
Y204144D01*
Y213987D02*
X573999D01*
X573999D02*
X575022Y213519D01*
X575704Y212581*
X575704D02*
X576045Y211644D01*
X576385Y210237*
X576385D02*
Y207894D01*
X576385D02*
X576045Y206487D01*
X576045D02*
X575704Y205550D01*
X575022Y204612*
X575022D02*
X573999Y204144D01*
X573999D02*
X571613D01*
X579454Y208362D02*
X585590D01*
X593431Y212581D02*
X592749Y213519D01*
X592749D02*
X591726Y213987D01*
X591726D02*
X590363D01*
X590363D02*
X589340Y213519D01*
X588658Y212581*
X588658D02*
Y211644D01*
X588658D02*
X588999Y210706D01*
X588999D02*
X589340Y210237D01*
X589340D02*
X590022Y209769D01*
X592067Y208831*
X592067D02*
X592749Y208362D01*
X592749D02*
X593090Y207894D01*
X593431Y206956*
X593431D02*
Y205550D01*
X592749Y204612*
X592749D02*
X591726Y204144D01*
X591726D02*
X590363D01*
X589340Y204612*
X589340D02*
X588658Y205550D01*
X596499Y213987D02*
Y204144D01*
Y213987D02*
X599226Y204144D01*
X601954Y213987D02*
X599226Y204144D01*
X601954Y213987D02*
Y204144D01*
X605022Y213987D02*
Y204144D01*
Y213987D02*
X607408D01*
X607408D02*
X608431Y213519D01*
X609113Y212581*
X609113D02*
X609454Y211644D01*
X609795Y210237*
X609795D02*
Y207894D01*
X609454Y206487*
X609454D02*
X609113Y205550D01*
X608431Y204612*
X608431D02*
X607408Y204144D01*
X607408D02*
X605022D01*
X141795Y82144D02*
Y71644D01*
X145067Y82144D02*
Y71644D01*
Y82144D02*
X149795D01*
X145067Y77144D02*
X147976D01*
X155976Y82144D02*
X153067Y71644D01*
X155976Y82144D02*
X158885Y71644D01*
X154158Y75144D02*
X157795D01*
X162158Y82144D02*
Y71644D01*
Y82144D02*
X165431D01*
X166522Y81644*
X166885Y81144*
X166885D02*
X167249Y80144D01*
X167249D02*
Y79144D01*
X167249D02*
X166885Y78144D01*
X166885D02*
X166522Y77644D01*
X165431Y77144*
X162158*
X164704D02*
X167249Y71644D01*
X175976Y79644D02*
X175613Y80644D01*
X174885Y81644*
X174885D02*
X174158Y82144D01*
X174158D02*
X172704D01*
X171976Y81644*
X171976D02*
X171249Y80644D01*
X171249D02*
X170885Y79644D01*
X170885D02*
X170522Y78144D01*
Y75644*
X170885Y74144*
X170885D02*
X171249Y73144D01*
X171249D02*
X171976Y72144D01*
X171976D02*
X172704Y71644D01*
X174158*
X174158D02*
X174885Y72144D01*
X174885D02*
X175613Y73144D01*
X175976Y74144*
X182158Y82144D02*
X179249Y71644D01*
X182158Y82144D02*
X185067Y71644D01*
X180340Y75144D02*
X183976D01*
X188340Y82144D02*
Y71644D01*
Y82144D02*
X190885D01*
X190885D02*
X191976Y81644D01*
X191976D02*
X192704Y80644D01*
X193067Y79644*
X193067D02*
X193431Y78144D01*
Y75644*
X193067Y74144*
X193067D02*
X192704Y73144D01*
X191976Y72144*
X191976D02*
X190885Y71644D01*
X190885D02*
X188340D01*
X208340Y80644D02*
X207613Y81644D01*
X206522Y82144*
X205067*
X205067D02*
X203976Y81644D01*
X203976D02*
X203249Y80644D01*
X203249D02*
Y79644D01*
X203249D02*
X203613Y78644D01*
X203976Y78144*
X203976D02*
X204704Y77644D01*
X206885Y76644*
X206885D02*
X207613Y76144D01*
X207976Y75644*
X207976D02*
X208340Y74644D01*
Y73144*
X207613Y72144*
X206522Y71644*
X205067*
X205067D02*
X203976Y72144D01*
X203976D02*
X203249Y73144D01*
X214522Y82144D02*
X211613Y71644D01*
X214522Y82144D02*
X217431Y71644D01*
X212704Y75144D02*
X216340D01*
X225795Y80644D02*
X225067Y81644D01*
X225067D02*
X223976Y82144D01*
X223976D02*
X222522D01*
X221431Y81644*
X220704Y80644*
Y79644*
X221067Y78644*
X221067D02*
X221431Y78144D01*
X222158Y77644*
X222158D02*
X224340Y76644D01*
X225067Y76144*
X225067D02*
X225431Y75644D01*
X225795Y74644*
Y73144*
X225067Y72144*
X225067D02*
X223976Y71644D01*
X223976D02*
X222522D01*
X221431Y72144*
X220704Y73144*
X129295Y251487D02*
Y241644D01*
Y251487D02*
X132363D01*
X132363D02*
X133385Y251019D01*
X133385D02*
X133726Y250550D01*
X133726D02*
X134067Y249612D01*
X134067D02*
Y248675D01*
X134067D02*
X133726Y247737D01*
X133726D02*
X133385Y247269D01*
X133385D02*
X132363Y246800D01*
X129295*
X131681D02*
X134067Y241644D01*
X137135Y251487D02*
Y241644D01*
Y251487D02*
X141567D01*
X137135Y246800D02*
X139863D01*
X137135Y241644D02*
X141567D01*
X144635Y251487D02*
X147363Y241644D01*
X150090Y251487D02*
X147363Y241644D01*
X153158Y251487D02*
Y241644D01*
X160999Y250081D02*
X160317Y251019D01*
X160317D02*
X159295Y251487D01*
X159295D02*
X157931D01*
X157931D02*
X156908Y251019D01*
X156908D02*
X156226Y250081D01*
X156226D02*
Y249144D01*
X156226D02*
X156567Y248206D01*
X156567D02*
X156908Y247737D01*
X156908D02*
X157590Y247269D01*
X159635Y246331*
X159635D02*
X160317Y245862D01*
X160317D02*
X160658Y245394D01*
X160658D02*
X160999Y244456D01*
X160999D02*
Y243050D01*
X160999D02*
X160317Y242112D01*
X160317D02*
X159295Y241644D01*
X157931*
X156908Y242112*
X156908D02*
X156226Y243050D01*
X164067Y251487D02*
Y241644D01*
X169181Y251487D02*
X168499Y251019D01*
X168499D02*
X167817Y250081D01*
X167817D02*
X167476Y249144D01*
X167476D02*
X167135Y247737D01*
X167135D02*
Y245394D01*
X167135D02*
X167476Y243987D01*
X167476D02*
X167817Y243050D01*
X167817D02*
X168499Y242112D01*
X168499D02*
X169181Y241644D01*
X170545*
X171226Y242112*
X171226D02*
X171908Y243050D01*
X171908D02*
X172249Y243987D01*
X172249D02*
X172590Y245394D01*
Y247737*
X172590D02*
X172249Y249144D01*
X172249D02*
X171908Y250081D01*
X171908D02*
X171226Y251019D01*
X171226D02*
X170545Y251487D01*
X170545D02*
X169181D01*
X175658D02*
Y241644D01*
Y251487D02*
X180431Y241644D01*
Y251487D02*
Y241644D01*
X189635Y251487D02*
Y241644D01*
Y251487D02*
X192022D01*
X192022D02*
X193045Y251019D01*
X193726Y250081*
X193726D02*
X194067Y249144D01*
X194067D02*
X194408Y247737D01*
X194408D02*
Y245394D01*
X194408D02*
X194067Y243987D01*
X194067D02*
X193726Y243050D01*
X193726D02*
X193045Y242112D01*
X193045D02*
X192022Y241644D01*
X189635*
X200204Y251487D02*
X197476Y241644D01*
X200204Y251487D02*
X202931Y241644D01*
X198499Y244925D02*
X201908D01*
X208385Y251487D02*
Y241644D01*
X205999Y251487D02*
X210772D01*
X213840D02*
Y241644D01*
Y251487D02*
X218272D01*
X213840Y246800D02*
X216567D01*
X213840Y241644D02*
X218272D01*
X120890Y110927D02*
X120208Y111865D01*
X120208D02*
X119186Y112333D01*
X119186D02*
X117822D01*
X117822D02*
X116799Y111865D01*
X116799D02*
X116118Y110927D01*
X116118D02*
Y109990D01*
X116458Y109052*
X116458D02*
X116799Y108583D01*
X116799D02*
X117481Y108115D01*
X117481D02*
X119527Y107177D01*
X119527D02*
X120208Y106708D01*
X120208D02*
X120549Y106240D01*
X120549D02*
X120890Y105302D01*
X120890D02*
Y103896D01*
X120890D02*
X120208Y102958D01*
X120208D02*
X119186Y102490D01*
X117822*
X117822D02*
X116799Y102958D01*
X116799D02*
X116118Y103896D01*
X126345Y112333D02*
Y102490D01*
X123958Y112333D02*
X128731D01*
X131799D02*
Y102490D01*
Y112333D02*
X134527Y102490D01*
X137254Y112333D02*
X134527Y102490D01*
X137254Y112333D02*
Y102490D01*
X140322Y112333D02*
X140663Y111865D01*
X141004Y112333*
X141004D02*
X140663Y112802D01*
X140663D02*
X140322Y112333D01*
X140663Y109052D02*
Y102490D01*
X148163Y107646D02*
X147481Y108583D01*
X147481D02*
X146799Y109052D01*
X146799D02*
X145777D01*
X145777D02*
X145095Y108583D01*
X145095D02*
X144413Y107646D01*
X144072Y106240*
X144072D02*
Y105302D01*
X144072D02*
X144413Y103896D01*
X145095Y102958*
X145095D02*
X145777Y102490D01*
X146799*
X146799D02*
X147481Y102958D01*
X147481D02*
X148163Y103896D01*
X151231Y109052D02*
Y102490D01*
Y106240D02*
X151572Y107646D01*
X151572D02*
X152254Y108583D01*
X152254D02*
X152936Y109052D01*
X152936D02*
X153958D01*
X158731D02*
X158049Y108583D01*
X158049D02*
X157368Y107646D01*
X157027Y106240*
Y105302*
X157027D02*
X157368Y103896D01*
X158049Y102958*
X158049D02*
X158731Y102490D01*
X158731D02*
X159754D01*
X160436Y102958*
X160436D02*
X161118Y103896D01*
X161458Y105302*
X161458D02*
Y106240D01*
X161458D02*
X161118Y107646D01*
X160436Y108583*
X160436D02*
X159754Y109052D01*
X159754D02*
X158731D01*
X164527Y106240D02*
X168618D01*
Y107177*
X168618D02*
X168277Y108115D01*
X167936Y108583*
X167936D02*
X167254Y109052D01*
X167254D02*
X166231D01*
X166231D02*
X165549Y108583D01*
X165549D02*
X164868Y107646D01*
X164527Y106240*
Y105302*
X164527D02*
X164868Y103896D01*
X165549Y102958*
X165549D02*
X166231Y102490D01*
X166231D02*
X167254D01*
X167936Y102958*
X167936D02*
X168618Y103896D01*
X171686Y112333D02*
Y102490D01*
X174754Y106240D02*
X178845D01*
Y107177*
X178845D02*
X178504Y108115D01*
X178163Y108583*
X178163D02*
X177481Y109052D01*
X177481D02*
X176458D01*
X176458D02*
X175777Y108583D01*
X175777D02*
X175095Y107646D01*
X174754Y106240*
Y105302*
X174754D02*
X175095Y103896D01*
X175777Y102958*
X175777D02*
X176458Y102490D01*
X176458D02*
X177481D01*
X177481D02*
X178163Y102958D01*
X178163D02*
X178845Y103896D01*
X186004Y107646D02*
X185322Y108583D01*
X185322D02*
X184640Y109052D01*
X184640D02*
X183618D01*
X183618D02*
X182936Y108583D01*
X182936D02*
X182254Y107646D01*
X181913Y106240*
Y105302*
X181913D02*
X182254Y103896D01*
X182936Y102958*
X182936D02*
X183618Y102490D01*
X184640*
X184640D02*
X185322Y102958D01*
X185322D02*
X186004Y103896D01*
X190095Y112333D02*
Y104365D01*
X190436Y102958*
X190436D02*
X191118Y102490D01*
X191799*
X189072Y109052D02*
X191458D01*
X194868D02*
Y102490D01*
Y106240D02*
X195208Y107646D01*
X195208D02*
X195890Y108583D01*
X195890D02*
X196572Y109052D01*
X196572D02*
X197595D01*
X202368D02*
X201686Y108583D01*
X201686D02*
X201004Y107646D01*
X200663Y106240*
Y105302*
X200663D02*
X201004Y103896D01*
X201686Y102958*
X201686D02*
X202368Y102490D01*
X203390*
X203390D02*
X204072Y102958D01*
X204072D02*
X204754Y103896D01*
X205095Y105302*
X205095D02*
Y106240D01*
X204754Y107646*
X204072Y108583*
X204072D02*
X203390Y109052D01*
X203390D02*
X202368D01*
X208163D02*
Y102490D01*
Y107177D02*
X209186Y108583D01*
X209186D02*
X209868Y109052D01*
X209868D02*
X210890D01*
X210890D02*
X211572Y108583D01*
X211572D02*
X211913Y107177D01*
X211913D02*
Y102490D01*
X214981Y112333D02*
X215322Y111865D01*
X215322D02*
X215663Y112333D01*
X215663D02*
X215322Y112802D01*
X215322D02*
X214981Y112333D01*
X215322Y109052D02*
Y102490D01*
X222822Y107646D02*
X222140Y108583D01*
X222140D02*
X221458Y109052D01*
X221458D02*
X220436D01*
X220436D02*
X219754Y108583D01*
X219754D02*
X219072Y107646D01*
X219072D02*
X218731Y106240D01*
X218731D02*
Y105302D01*
X218731D02*
X219072Y103896D01*
X219072D02*
X219754Y102958D01*
X219754D02*
X220436Y102490D01*
X221458*
X221458D02*
X222140Y102958D01*
X222140D02*
X222822Y103896D01*
X229640Y107646D02*
X229299Y108583D01*
X229299D02*
X228277Y109052D01*
X228277D02*
X227254D01*
X227254D02*
X226231Y108583D01*
X226231D02*
X225890Y107646D01*
X225890D02*
X226231Y106708D01*
X226231D02*
X226913Y106240D01*
X228618Y105771*
X229299Y105302*
X229299D02*
X229640Y104365D01*
X229640D02*
Y103896D01*
X229640D02*
X229299Y102958D01*
X229299D02*
X228277Y102490D01*
X227254*
X226231Y102958*
X226231D02*
X225890Y103896D01*
G54D17*
X253295Y196737D02*
Y192144D01*
Y196737D02*
X254726D01*
X254726D02*
X255204Y196519D01*
X255363Y196300*
X255522Y195862*
X255522D02*
Y195425D01*
X255363Y194987*
X255363D02*
X255204Y194769D01*
X254726Y194550*
X254726D02*
X253295D01*
X254408D02*
X255522Y192144D01*
G54D18*
X581230Y91336D02*
X581048Y91211D01*
X581048D02*
X580866Y90961D01*
X580866D02*
X580775Y90711D01*
X580775D02*
X580685Y90336D01*
Y89711*
X580775Y89336*
X580775D02*
X580866Y89086D01*
X580866D02*
X581048Y88836D01*
X581048D02*
X581230Y88711D01*
X581594*
X581775Y88836*
X581775D02*
X581957Y89086D01*
X581957D02*
X582048Y89336D01*
X582048D02*
X582139Y89711D01*
X582139D02*
Y90336D01*
X582139D02*
X582048Y90711D01*
X582048D02*
X581957Y90961D01*
X581957D02*
X581775Y91211D01*
X581775D02*
X581594Y91336D01*
X581230*
G54D19*
X405315Y851254D03*
Y716254D03*
X292815Y886254D03*
X381315Y803754D03*
X380315Y896254D03*
Y876254D03*
X381315Y791254D03*
X457815Y893754D03*
X535315Y788754D03*
G54D20*
X405315Y861254D03*
Y726254D03*
X302815Y886254D03*
X292815Y876254D03*
X302815D03*
X292815Y866254D03*
X302815D03*
X292815Y856254D03*
X302815D03*
X292815Y846254D03*
X302815D03*
X292815Y836254D03*
X302815D03*
X292815Y826254D03*
X302815D03*
X292815Y816254D03*
X302815D03*
X292815Y806254D03*
X302815D03*
X292815Y796254D03*
X302815D03*
X292815Y786254D03*
X302815D03*
X292815Y776254D03*
X302815D03*
X292815Y766254D03*
X302815D03*
X292815Y756254D03*
X302815D03*
X292815Y746254D03*
X302815D03*
X292815Y736254D03*
X302815D03*
X292815Y726254D03*
X302815D03*
X525315Y903754D03*
Y863754D03*
X391315Y803754D03*
X405315Y836254D03*
Y816254D03*
Y736254D03*
Y756254D03*
X375815Y816254D03*
X395815D03*
X375815Y778754D03*
X395815D03*
X350315Y711754D03*
Y731754D03*
X380315Y886254D03*
X391315Y791254D03*
X395315Y851175D03*
X385315Y841332D03*
X375315Y851175D03*
X395315Y753675D03*
X385315Y743832D03*
X375315Y753675D03*
X340315Y728675D03*
X330315Y718832D03*
X320315Y728675D03*
X340315Y873675D03*
X330315Y863832D03*
X320315Y873675D03*
X367815D03*
X357815Y863832D03*
X347815Y873675D03*
X367315Y740254D03*
X327315D03*
X457815Y883754D03*
X452815Y831254D03*
Y841254D03*
X515315Y788754D03*
X540315Y898754D03*
Y878754D03*
X510315Y711254D03*
X485315D03*
X460315Y866254D03*
X367815Y888754D03*
X322815Y883754D03*
X427815Y746254D03*
X457815D03*
X487815Y778754D03*
Y798754D03*
X420315Y746254D03*
G54D23*
X530315Y748596D03*
Y728911D03*
X402972Y888754D03*
X422657D03*
X530315Y848596D03*
Y828911D03*
X480472Y888754D03*
X500157D03*
G54D27*
X716795Y227831D02*
Y208144D01*
X724976*
X739295Y225019D02*
X738613Y226894D01*
X736567Y227831*
X736567D02*
X735204D01*
X735204D02*
X733158Y226894D01*
X733158D02*
X731795Y224081D01*
X731795D02*
X731113Y219394D01*
Y214706*
X731113D02*
X731795Y210956D01*
X731795D02*
X733158Y209081D01*
X733158D02*
X735204Y208144D01*
X735885*
X735885D02*
X737931Y209081D01*
X737931D02*
X739295Y210956D01*
X739295D02*
X739976Y213769D01*
X739976D02*
Y214706D01*
X739976D02*
X739295Y217519D01*
X737931Y219394*
X735885Y220331*
X735885D02*
X735204D01*
X735204D02*
X733158Y219394D01*
X733158D02*
X731795Y217519D01*
X731113Y214706*
X746795Y223144D02*
Y224081D01*
X746795D02*
X747476Y225956D01*
X747476D02*
X748158Y226894D01*
X748158D02*
X749522Y227831D01*
X749522D02*
X752249D01*
X752249D02*
X753613Y226894D01*
X754295Y225956*
X754295D02*
X754976Y224081D01*
X754976D02*
Y222206D01*
X754976D02*
X754295Y220331D01*
X754295D02*
X752931Y217519D01*
X746113Y208144*
X755658*
X765885Y227831D02*
X763840Y226894D01*
X762476Y224081*
X762476D02*
X761795Y219394D01*
Y216581*
X761795D02*
X762476Y211894D01*
X762476D02*
X763840Y209081D01*
X763840D02*
X765885Y208144D01*
X765885D02*
X767249D01*
X767249D02*
X769295Y209081D01*
X769295D02*
X770658Y211894D01*
X770658D02*
X771340Y216581D01*
X771340D02*
Y219394D01*
X770658Y224081*
X770658D02*
X769295Y226894D01*
X767249Y227831*
X767249D02*
X765885D01*
X785658Y225019D02*
X784976Y226894D01*
X784976D02*
X782931Y227831D01*
X782931D02*
X781567D01*
X781567D02*
X779522Y226894D01*
X778158Y224081*
X778158D02*
X777476Y219394D01*
X777476D02*
Y214706D01*
X777476D02*
X778158Y210956D01*
X778158D02*
X779522Y209081D01*
X779522D02*
X781567Y208144D01*
X781567D02*
X782249D01*
X782249D02*
X784295Y209081D01*
X784295D02*
X785658Y210956D01*
X785658D02*
X786340Y213769D01*
Y214706*
X786340D02*
X785658Y217519D01*
X785658D02*
X784295Y219394D01*
X782249Y220331*
X782249D02*
X781567D01*
X781567D02*
X779522Y219394D01*
X778158Y217519*
X778158D02*
X777476Y214706D01*
G54D28*
X719795Y153025D02*
X720931Y153806D01*
X720931D02*
X722635Y156150D01*
X722635D02*
Y139744D01*
X728317Y150681D02*
X727749Y149900D01*
X727749D02*
X728317Y149119D01*
X728317D02*
X728885Y149900D01*
X728885D02*
X728317Y150681D01*
Y141306D02*
X727749Y140525D01*
X727749D02*
X728317Y139744D01*
X728317D02*
X728885Y140525D01*
X728885D02*
X728317Y141306D01*
X733999Y153025D02*
X735135Y153806D01*
X735135D02*
X736840Y156150D01*
Y139744*
X789795Y153025D02*
X790931Y153806D01*
X790931D02*
X792635Y156150D01*
X792635D02*
Y139744D01*
G54D29*
X283815Y776254D02*
X292815D01*
X515315Y788754D02*
Y811254D01*
X520315Y816254*
X537815*
X540315Y818754*
Y866254*
X535315Y871254*
X485315*
X480472Y876096*
X480472D02*
Y888754D01*
X535315Y788754D02*
X548315D01*
Y885254*
X544815Y888754*
X500157*
G54D55*
X443815Y711754D03*
X377309Y738253D03*
X434815Y744754D03*
Y739754D03*
X314815Y756254D03*
X368415Y761254D03*
X447815Y750254D03*
X449315Y745254D03*
X465315D03*
Y750254D03*
X307815Y771254D03*
X352315Y781254D03*
X368315Y771254D03*
Y766254D03*
X407615Y779454D03*
X426063Y779600D03*
X417215Y779254D03*
X443976Y770254D03*
X449094Y770533D03*
X445899Y779764D03*
X435921Y780091D03*
X466315Y779754D03*
X465915Y769754D03*
X461915D03*
X372315Y795754D03*
X369315Y788754D03*
X407615Y798054D03*
Y789654D03*
X417215Y789054D03*
X426106Y788924D03*
X417215Y798054D03*
X426106Y798084D03*
X445867Y797754D03*
X445899Y789251D03*
X435965Y797754D03*
X435757Y788924D03*
X466315Y797754D03*
Y788754D03*
X335815Y816254D03*
X352315D03*
X446815Y807254D03*
X437815Y822254D03*
X440315Y807254D03*
X446315Y823254D03*
X453315Y807254D03*
X467815Y822754D03*
X324815Y832254D03*
X431815Y839254D03*
Y834254D03*
X467815Y826354D03*
X460315Y835254D03*
Y830754D03*
X474215Y825654D03*
X312815Y852754D03*
X316815Y849254D03*
X320315Y845754D03*
X335815D03*
X352315Y846754D03*
X379815Y857254D03*
X429815Y845254D03*
X410815Y868254D03*
X441315Y879254D03*
G74*
X0Y0D02*
M02*
