*
*
G04 PowerPCB (Build Number [351.51 ]) generated Gerber (RS-274-X) file*
G04 PC Version=2.1*
*
%IN "L6206Pd-2.pcb"*%
*
%MOIN*%
*
%FSLAX35Y35*%
*
*
*
*
G04 PC Standard Apertures*
*
*
G04 Thermal Relief Aperture macro.*
%AMTER*
1,1,$1,0,0*
1,0,$1-$2,0,0*
21,0,$3,$4,0,0,45*
21,0,$3,$4,0,0,135*
%
*
*
G04 Annular Aperture macro.*
%AMANN*
1,1,$1,0,0*
1,0,$2,0,0*
%
*
*
G04 Odd Aperture macro.*
%AMODD*
1,1,$1,0,0*
1,0,$1-0.005,0,0*
%
*
*
G04 PC Custom Aperture Macros*
*
*
*
*
*
*
G04 PC Aperture Table*
*
%ADD010C,0.02*%
%ADD011C,0.01*%
%ADD012C,0.012*%
%ADD014C,0.024*%
%ADD015C,0.008*%
%ADD016C,0.015*%
%ADD017C,0.007*%
%ADD018C,0.004*%
%ADD027C,0.03*%
%ADD028C,0.025*%
%ADD042R,0.064X0.064*%
%ADD043C,0.064*%
%ADD056C,0.104*%
*
*
*
*
G04 PC Custom Flashes*
G04 Layer Name L6206Pd-2.pcb - flashes*
%LPD*%
*
*
G04 PC Circuitry*
G04 Layer Name L6206Pd-2.pcb - circuitry*
%LPD*%
*
G54D10*
G01X734295Y236644D02*
Y254144D01*
X651795Y236644D02*
Y254144D01*
X569295Y236644D02*
Y254144D01*
X486795Y236644D02*
Y254144D01*
X404295Y236644D02*
Y254144D01*
X321795Y236644D02*
Y254144D01*
X239295Y236644D02*
Y254144D01*
G54D11*
X220295Y1016144D02*
Y956144D01*
X190295Y986144D02*
X250295D01*
X240295D02*
G75*
G03X240295I-20000D01*
G01X235295D02*
G03X235295I-15000D01*
G01X231475D02*
G03X231475I-11180D01*
G01X225295D02*
G03X225295I-5000D01*
G01X649795Y997644D02*
Y937644D01*
X619795Y967644D02*
X679795D01*
X669795D02*
G03X669795I-20000D01*
G01X664795D02*
G03X664795I-15000D01*
G01X660975D02*
G03X660975I-11180D01*
G01X654795D02*
G03X654795I-5000D01*
G01X13409Y17471D02*
Y47372D01*
X836638Y1182825D02*
Y1153672D01*
Y1182825D02*
X807063D01*
X606275Y145798D02*
X649582D01*
X653519D02*
X677141D01*
X665330Y133987D02*
Y157609D01*
X645645D02*
Y133987D01*
X614149Y141861*
Y149735*
X645645Y157609*
X665330D02*
Y161546D01*
X653519Y145798D02*
X651551D01*
X677141D02*
X679110D01*
X665330Y133987D02*
Y132018D01*
X257043Y227254D02*
X212161D01*
X257043Y226664D02*
X212161D01*
X256452Y226073D02*
X211571D01*
X256452Y225483D02*
X211571D01*
X256452Y224892D02*
X210980D01*
X255862Y224301D02*
X210980D01*
X255271Y223711D02*
X215704D01*
Y223120*
X217476Y223711D02*
X210389D01*
X215114Y223120D02*
X210980D01*
X212161Y222530D02*
X209799D01*
X211571Y221939D02*
X209799D01*
X210980D02*
X209799D01*
X213342Y223120D02*
X210389D01*
Y221349D02*
X209208D01*
Y220168D02*
X210980Y221939D01*
X208027Y216624D02*
X207437D01*
X208027Y216034D02*
X207437D01*
X209208Y220168D02*
X210389Y221349D01*
X208027Y215443D02*
X206846D01*
X208027Y214853D02*
X206846D01*
X208027Y214262D02*
X206846D01*
X208027Y213672D02*
X206256D01*
X208618Y213081D02*
X206256D01*
X208618Y212490D02*
X205665D01*
X208618Y211900D02*
X205665D01*
X209208Y211309D02*
X205665D01*
X209799Y210719D02*
X205075D01*
X209799Y210128D02*
X205075D01*
X210389Y209538D02*
X204484D01*
X210980Y208947D02*
X204484D01*
X212161Y208357D02*
X204484D01*
X212752Y207766D02*
X203893D01*
X213342Y207175D02*
X203303D01*
X213933Y206585D02*
X203303D01*
X214523Y205994D02*
X203303D01*
X215114Y205404D02*
X202712D01*
X215704Y204813D02*
X202712D01*
X216295Y204223D02*
X202122D01*
X217476Y203632D02*
X202122D01*
X218067Y203042D02*
X202122D01*
X218657Y202451D02*
X201531D01*
X219248Y201861D02*
X201531D01*
X219838Y201270D02*
X201531D01*
X219838Y200679D02*
X200941D01*
X235193Y215443D02*
X216295D01*
Y214853*
X234602D02*
X216886D01*
X234602Y214262D02*
X216886D01*
X234602Y213672D02*
X217476D01*
X234012Y213081D02*
X218657D01*
X234012Y212490D02*
X218657D01*
X233421Y211900D02*
X219838D01*
X233421Y211309D02*
X220429D01*
X233421Y210719D02*
X221019D01*
X232830Y210128D02*
X221610D01*
X232830Y209538D02*
X222201D01*
X232240Y208947D02*
X222791D01*
X232240Y208357D02*
X223382D01*
X231649Y207766D02*
X223972D01*
X231649Y207175D02*
X224563D01*
X231649Y206585D02*
X224563D01*
X231059Y205994D02*
X225744D01*
X231059Y205404D02*
X226334D01*
X230468Y204813D02*
X226925D01*
X230468Y204223D02*
X226925D01*
X230468Y203632D02*
X227515D01*
X229878Y203042D02*
X228106D01*
X229878Y202451D02*
X228106D01*
X229287Y201861D02*
X228106D01*
X229287Y201270D02*
X228106D01*
X229287Y200679D02*
X228106D01*
X228697Y200089D02*
X228106D01*
X228697Y199498D02*
X228106D01*
Y198908D02*
Y197727D01*
X227515Y195955D02*
X226925D01*
Y195364D02*
X226334D01*
X226925Y194774D02*
X225744D01*
X226334Y194183D02*
X225744D01*
X226334Y193593D02*
X225153D01*
X243460Y215443D02*
X252319D01*
X243460Y214853D02*
X251728D01*
X242870Y214262D02*
X251728D01*
X242870Y213672D02*
X251138D01*
X242279Y213081D02*
X251138D01*
X242279Y212490D02*
X250547D01*
X242279Y211900D02*
X250547D01*
X241689Y211309D02*
X250547D01*
X241689Y210719D02*
X249956D01*
X241098Y210128D02*
X249956D01*
X241098Y209538D02*
X249366D01*
X240508Y208947D02*
X249366D01*
X240508Y208357D02*
X249366D01*
X240508Y207766D02*
X248775D01*
X239917Y207175D02*
X248775D01*
X239917Y206585D02*
X248185D01*
X239326Y205994D02*
X248185D01*
Y205404*
X239326D02*
X247594D01*
Y204813*
X238736Y204223D02*
X247594D01*
X238736Y204813D02*
X247004D01*
X238736Y203632D02*
X247004D01*
Y203042*
X238145D02*
X246413D01*
Y202451*
X238145D02*
X245823D01*
X237555Y201861D02*
X246413D01*
X237555Y201270D02*
X246413D01*
X237555Y200679D02*
X245823D01*
X236964Y200089D02*
X245823D01*
X236964Y199498D02*
X245232D01*
X236374Y198908D02*
X245232D01*
X236374Y198317D02*
X245232D01*
X235783Y197727D02*
X244641D01*
X235783Y197136D02*
X244641D01*
X235783Y196546D02*
X244051D01*
X235193Y195955D02*
X244051D01*
X235193Y195364D02*
X244051D01*
X235193Y194774D02*
X243460D01*
X234602Y194183D02*
X243460D01*
X234602Y193593D02*
X242870D01*
X258417Y194144D02*
G03X258417I-4122D01*
G01X243311Y216250D02*
X252913D01*
X243311Y192939*
X233704*
X243311Y216250*
X217799D02*
X236008D01*
X226401Y192939*
X222701*
X224000Y193238*
X225201Y194140*
X227303Y197140*
X227901Y201242*
X227204Y203345*
X225701Y205242*
X217299Y213349*
X215897Y214648*
X215598Y215550*
X216299Y216050*
X217799Y216250*
X211795Y209144D02*
X210295Y210447D01*
X209094Y212349*
X208496Y214648*
X208397Y217050*
X209197Y219349*
X210795Y221349*
X213598Y222652*
X217598Y223152*
X255815Y223050*
X257913Y227853*
X211795*
X200193Y200144*
X218000*
X219401*
X220098Y200644*
X220201Y201542*
X219299Y202443*
X211795Y209144*
X807063Y17471D02*
X836638D01*
Y47372*
X13362Y17175D02*
X42153D01*
X13409Y1182825D02*
Y1153672D01*
Y1182805D02*
X37035D01*
X584295Y713144D02*
Y653144D01*
X554295Y683144D02*
X614295D01*
X604295D02*
G03X604295I-20000D01*
G01X599295D02*
G03X599295I-15000D01*
G01X595475D02*
G03X595475I-11180D01*
G01X589295D02*
G03X589295I-5000D01*
G01X118299Y161546D02*
X116118Y153671D01*
X118299Y161546D02*
X120481Y153671D01*
X116936Y156296D02*
X119663D01*
X122936Y161546D02*
Y153671D01*
X126208*
X128663Y161546D02*
Y153671D01*
X131936*
X139299Y161546D02*
Y153671D01*
Y161546D02*
X141754D01*
X142572Y161171*
X142572D02*
X142845Y160796D01*
X143118Y160046*
Y159296*
X142845Y158546*
X142572Y158171*
X142572D02*
X141754Y157796D01*
X139299*
X141208D02*
X143118Y153671D01*
X145572Y161546D02*
Y153671D01*
X152118Y159671D02*
X151845Y160421D01*
X151299Y161171*
X151299D02*
X150754Y161546D01*
X149663*
X149118Y161171*
X148572Y160421*
X148572D02*
X148299Y159671D01*
X148299D02*
X148027Y158546D01*
Y156671*
X148299Y155546*
X148299D02*
X148572Y154796D01*
X148572D02*
X149118Y154046D01*
X149663Y153671*
X150754*
X151299Y154046*
X151299D02*
X151845Y154796D01*
X152118Y155546*
Y156671*
X150754D02*
X152118D01*
X154572Y161546D02*
Y153671D01*
X158390Y161546D02*
Y153671D01*
X154572Y157796D02*
X158390D01*
X162754Y161546D02*
Y153671D01*
X160845Y161546D02*
X164663D01*
X170936Y160421D02*
X170390Y161171D01*
X170390D02*
X169572Y161546D01*
X169572D02*
X168481D01*
X168481D02*
X167663Y161171D01*
X167118Y160421*
Y159671*
X167390Y158921*
X167390D02*
X167663Y158546D01*
X168208Y158171*
X168208D02*
X169845Y157421D01*
X170390Y157046*
X170390D02*
X170663Y156671D01*
X170936Y155921*
Y154796*
X170390Y154046*
X170390D02*
X169572Y153671D01*
X169572D02*
X168481D01*
X168481D02*
X167663Y154046D01*
X167118Y154796*
X182118Y160421D02*
X181572Y161171D01*
X181572D02*
X180754Y161546D01*
X179663*
X178845Y161171*
X178299Y160421*
X178299D02*
Y159671D01*
X178299D02*
X178572Y158921D01*
X178572D02*
X178845Y158546D01*
X179390Y158171*
X179390D02*
X181027Y157421D01*
X181572Y157046*
X181572D02*
X181845Y156671D01*
X182118Y155921*
Y154796*
X181572Y154046*
X181572D02*
X180754Y153671D01*
X179663*
X178845Y154046*
X178299Y154796*
X186481Y161546D02*
Y153671D01*
X184572Y161546D02*
X188390D01*
X190845D02*
Y153671D01*
Y161546D02*
X193299D01*
X193299D02*
X194118Y161171D01*
X194390Y160796*
X194390D02*
X194663Y160046D01*
Y159296*
X194390Y158546*
X194390D02*
X194118Y158171D01*
X193299Y157796*
X193299D02*
X190845D01*
X192754D02*
X194663Y153671D01*
X197118Y161546D02*
Y153671D01*
X203663Y159671D02*
X203390Y160421D01*
X203390D02*
X202845Y161171D01*
X202299Y161546*
X202299D02*
X201208D01*
X201208D02*
X200663Y161171D01*
X200118Y160421*
X199845Y159671*
X199572Y158546*
X199572D02*
Y156671D01*
X199572D02*
X199845Y155546D01*
X200118Y154796*
X200663Y154046*
X201208Y153671*
X201208D02*
X202299D01*
X202299D02*
X202845Y154046D01*
X203390Y154796*
X203390D02*
X203663Y155546D01*
X208027Y161546D02*
Y153671D01*
X206118Y161546D02*
X209936D01*
X212390D02*
Y153671D01*
X212390D02*
X215663D01*
X218118Y161546D02*
X220299Y157796D01*
X220299D02*
Y153671D01*
X222481Y161546D02*
X220299Y157796D01*
X229845Y161546D02*
Y153671D01*
Y161546D02*
X232299D01*
X232299D02*
X233118Y161171D01*
X233390Y160796*
X233390D02*
X233663Y160046D01*
Y159296*
X233390Y158546*
X233390D02*
X233118Y158171D01*
X232299Y157796*
X232299D02*
X229845D01*
X231754D02*
X233663Y153671D01*
X236118Y161546D02*
Y153671D01*
Y161546D02*
X239663D01*
X236118Y157796D02*
X238299D01*
X236118Y153671D02*
X239663D01*
X245936Y160421D02*
X245390Y161171D01*
X245390D02*
X244572Y161546D01*
X244572D02*
X243481D01*
X243481D02*
X242663Y161171D01*
X242118Y160421*
Y159671*
X242390Y158921*
X242390D02*
X242663Y158546D01*
X243208Y158171*
X243208D02*
X244845Y157421D01*
X245390Y157046*
X245390D02*
X245663Y156671D01*
X245936Y155921*
Y154796*
X245390Y154046*
X245390D02*
X244572Y153671D01*
X244572D02*
X243481D01*
X243481D02*
X242663Y154046D01*
X242118Y154796*
X248390Y161546D02*
Y153671D01*
Y161546D02*
X251936D01*
X248390Y157796D02*
X250572D01*
X248390Y153671D02*
X251936D01*
X254390Y161546D02*
Y153671D01*
Y161546D02*
X256845D01*
X257663Y161171*
X257936Y160796*
X258208Y160046*
X258208D02*
Y159296D01*
X258208D02*
X257936Y158546D01*
X257663Y158171*
X256845Y157796*
X254390*
X256299D02*
X258208Y153671D01*
X260663Y161546D02*
X262845Y153671D01*
X265027Y161546D02*
X262845Y153671D01*
X267481Y161546D02*
Y153671D01*
Y161546D02*
X271027D01*
X267481Y157796D02*
X269663D01*
X267481Y153671D02*
X271027D01*
X273481Y161546D02*
Y153671D01*
Y161546D02*
X275390D01*
X275390D02*
X276208Y161171D01*
X276208D02*
X276754Y160421D01*
X277027Y159671*
X277299Y158546*
X277299D02*
Y156671D01*
X277299D02*
X277027Y155546D01*
X276754Y154796*
X276208Y154046*
X276208D02*
X275390Y153671D01*
X275390D02*
X273481D01*
X280027Y154421D02*
X279754Y154046D01*
X280027Y153671*
X280299Y154046*
X280299D02*
X280027Y154421D01*
X282754Y161546D02*
Y153671D01*
Y161546D02*
X285208D01*
X285208D02*
X286027Y161171D01*
X286299Y160796*
X286299D02*
X286572Y160046D01*
X286572D02*
Y159296D01*
X286572D02*
X286299Y158546D01*
X286299D02*
X286027Y158171D01*
X285208Y157796*
X285208D02*
X282754D01*
X284663D02*
X286572Y153671D01*
X289027Y161546D02*
Y153671D01*
Y161546D02*
X292572D01*
X289027Y157796D02*
X291208D01*
X289027Y153671D02*
X292572D01*
X295027Y161546D02*
Y153671D01*
Y161546D02*
X297481D01*
X297481D02*
X298299Y161171D01*
X298299D02*
X298572Y160796D01*
X298572D02*
X298845Y160046D01*
Y158921*
X298572Y158171*
X298572D02*
X298299Y157796D01*
X298299D02*
X297481Y157421D01*
X297481D02*
X295027D01*
X301299Y161546D02*
Y153671D01*
Y161546D02*
X303754D01*
X304572Y161171*
X304572D02*
X304845Y160796D01*
X305118Y160046*
Y159296*
X304845Y158546*
X304572Y158171*
X304572D02*
X303754Y157796D01*
X301299*
X303208D02*
X305118Y153671D01*
X309208Y161546D02*
X308663Y161171D01*
X308118Y160421*
X307845Y159671*
X307572Y158546*
X307572D02*
Y156671D01*
X307572D02*
X307845Y155546D01*
X308118Y154796*
X308663Y154046*
X309208Y153671*
X309208D02*
X310299D01*
X310299D02*
X310845Y154046D01*
X311390Y154796*
X311390D02*
X311663Y155546D01*
X311936Y156671*
Y158546*
X311663Y159671*
X311390Y160421*
X311390D02*
X310845Y161171D01*
X310299Y161546*
X310299D02*
X309208D01*
X314390Y157046D02*
X319299D01*
X116118Y149735D02*
Y141860D01*
Y149735D02*
X118027D01*
X118845Y149360*
X119390Y148610*
X119390D02*
X119663Y147860D01*
X119936Y146735*
Y144860*
X119663Y143735*
X119390Y142985*
X119390D02*
X118845Y142235D01*
X118027Y141860*
X116118*
X122390Y149735D02*
Y144110D01*
X122390D02*
X122663Y142985D01*
X123208Y142235*
X123208D02*
X124027Y141860D01*
X124572*
X124572D02*
X125390Y142235D01*
X125390D02*
X125936Y142985D01*
X126208Y144110*
X126208D02*
Y149735D01*
X132754Y147860D02*
X132481Y148610D01*
X132481D02*
X131936Y149360D01*
X131390Y149735*
X131390D02*
X130299D01*
X130299D02*
X129754Y149360D01*
X129208Y148610*
X129208D02*
X128936Y147860D01*
X128663Y146735*
Y144860*
X128936Y143735*
X129208Y142985*
X129208D02*
X129754Y142235D01*
X130299Y141860*
X130299D02*
X131390D01*
X131390D02*
X131936Y142235D01*
X132481Y142985*
X132481D02*
X132754Y143735D01*
X137118Y149735D02*
Y141860D01*
X135208Y149735D02*
X139027D01*
X141481D02*
Y141860D01*
X145572Y149735D02*
X145027Y149360D01*
X144481Y148610*
X144481D02*
X144208Y147860D01*
X144208D02*
X143936Y146735D01*
Y144860*
X144208Y143735*
X144208D02*
X144481Y142985D01*
X144481D02*
X145027Y142235D01*
X145572Y141860*
X145572D02*
X146663D01*
X147208Y142235*
X147208D02*
X147754Y142985D01*
X148027Y143735*
X148299Y144860*
X148299D02*
Y146735D01*
X148299D02*
X148027Y147860D01*
X147754Y148610*
X147208Y149360*
X147208D02*
X146663Y149735D01*
X145572*
X150754D02*
Y141860D01*
Y149735D02*
X154572Y141860D01*
Y149735D02*
Y141860D01*
X163572Y149735D02*
X163027Y149360D01*
X162481Y148610*
X162481D02*
X162208Y147860D01*
X162208D02*
X161936Y146735D01*
Y144860*
X162208Y143735*
X162208D02*
X162481Y142985D01*
X162481D02*
X163027Y142235D01*
X163572Y141860*
X163572D02*
X164663D01*
X165208Y142235*
X165208D02*
X165754Y142985D01*
X166027Y143735*
X166299Y144860*
X166299D02*
Y146735D01*
X166299D02*
X166027Y147860D01*
X165754Y148610*
X165208Y149360*
X165208D02*
X164663Y149735D01*
X163572*
X168754D02*
Y141860D01*
Y149735D02*
X171208D01*
X171208D02*
X172027Y149360D01*
X172299Y148985*
X172299D02*
X172572Y148235D01*
X172572D02*
Y147485D01*
X172572D02*
X172299Y146735D01*
X172299D02*
X172027Y146360D01*
X171208Y145985*
X171208D02*
X168754D01*
X170663D02*
X172572Y141860D01*
X179936Y149735D02*
Y141860D01*
X186208Y148610D02*
X185663Y149360D01*
X184845Y149735*
X183754*
X182936Y149360*
X182390Y148610*
X182390D02*
Y147860D01*
X182390D02*
X182663Y147110D01*
X182936Y146735*
X183481Y146360*
X183481D02*
X185118Y145610D01*
X185663Y145235*
X185936Y144860*
X186208Y144110*
X186208D02*
Y142985D01*
X186208D02*
X185663Y142235D01*
X184845Y141860*
X183754*
X182936Y142235*
X182390Y142985*
X192481Y148610D02*
X191936Y149360D01*
X191118Y149735*
X190027*
X189208Y149360*
X189208D02*
X188663Y148610D01*
Y147860*
X188936Y147110*
X189208Y146735*
X189208D02*
X189754Y146360D01*
X191390Y145610*
X191390D02*
X191936Y145235D01*
X192208Y144860*
X192208D02*
X192481Y144110D01*
X192481D02*
Y142985D01*
X192481D02*
X191936Y142235D01*
X191118Y141860*
X190027*
X189208Y142235*
X189208D02*
X188663Y142985D01*
X194936Y149735D02*
Y144110D01*
X195208Y142985*
X195208D02*
X195754Y142235D01*
X196572Y141860*
X196572D02*
X197118D01*
X197936Y142235*
X198481Y142985*
X198481D02*
X198754Y144110D01*
Y149735*
X201208D02*
Y141860D01*
Y149735D02*
X204754D01*
X201208Y145985D02*
X203390D01*
X201208Y141860D02*
X204754D01*
X214027Y149735D02*
Y141860D01*
X212118Y149735D02*
X215936D01*
X220027D02*
X219481Y149360D01*
X219481D02*
X218936Y148610D01*
X218663Y147860*
X218390Y146735*
X218390D02*
Y144860D01*
X218390D02*
X218663Y143735D01*
X218936Y142985*
X219481Y142235*
X219481D02*
X220027Y141860D01*
X221118*
X221663Y142235*
X222208Y142985*
X222208D02*
X222481Y143735D01*
X222481D02*
X222754Y144860D01*
Y146735*
X222481Y147860*
X222481D02*
X222208Y148610D01*
X222208D02*
X221663Y149360D01*
X221118Y149735*
X220027*
X232027D02*
Y141860D01*
X230118Y149735D02*
X233936D01*
X236390D02*
Y141860D01*
X240208Y149735D02*
Y141860D01*
X236390Y145985D02*
X240208D01*
X242663Y149735D02*
Y141860D01*
X245118Y149735D02*
Y141860D01*
Y149735D02*
X247572D01*
X247572D02*
X248390Y149360D01*
X248390D02*
X248663Y148985D01*
X248936Y148235*
Y147485*
X248663Y146735*
X248390Y146360*
X248390D02*
X247572Y145985D01*
X247572D02*
X245118D01*
X247027D02*
X248936Y141860D01*
X251390Y149735D02*
Y141860D01*
Y149735D02*
X253299D01*
X253299D02*
X254118Y149360D01*
X254663Y148610*
X254936Y147860*
X255208Y146735*
X255208D02*
Y144860D01*
X255208D02*
X254936Y143735D01*
X254663Y142985*
X254118Y142235*
X253299Y141860*
X253299D02*
X251390D01*
X262572Y149735D02*
Y141860D01*
Y149735D02*
X265027D01*
X265845Y149360*
X266118Y148985*
X266390Y148235*
X266390D02*
Y147110D01*
X266390D02*
X266118Y146360D01*
X265845Y145985*
X265027Y145610*
X262572*
X271027Y149735D02*
X268845Y141860D01*
X271027Y149735D02*
X273208Y141860D01*
X269663Y144485D02*
X272390D01*
X275663Y149735D02*
Y141860D01*
Y149735D02*
X278118D01*
X278936Y149360*
X279208Y148985*
X279208D02*
X279481Y148235D01*
X279481D02*
Y147485D01*
X279481D02*
X279208Y146735D01*
X279208D02*
X278936Y146360D01*
X278118Y145985*
X275663*
X277572D02*
X279481Y141860D01*
X283845Y149735D02*
Y141860D01*
X281936Y149735D02*
X285754D01*
X288208D02*
Y141860D01*
X290663Y149735D02*
Y141860D01*
Y149735D02*
X294208D01*
X290663Y145985D02*
X292845D01*
X290663Y141860D02*
X294208D01*
X300481Y148610D02*
X299936Y149360D01*
X299118Y149735*
X298027*
X297208Y149360*
X297208D02*
X296663Y148610D01*
Y147860*
X296936Y147110*
X297208Y146735*
X297208D02*
X297754Y146360D01*
X299390Y145610*
X299390D02*
X299936Y145235D01*
X300208Y144860*
X300208D02*
X300481Y144110D01*
X300481D02*
Y142985D01*
X300481D02*
X299936Y142235D01*
X299118Y141860*
X298027*
X297208Y142235*
X297208D02*
X296663Y142985D01*
X307845Y149735D02*
Y141860D01*
X310299Y149735D02*
Y141860D01*
Y149735D02*
X314118Y141860D01*
Y149735D02*
Y141860D01*
X117976Y138519D02*
X115795Y130644D01*
X117976Y138519D02*
X120158Y130644D01*
X116613Y133269D02*
X119340D01*
X122613Y138519D02*
Y130644D01*
Y138519D02*
X126431Y130644D01*
Y138519D02*
Y130644D01*
X128885Y138519D02*
X131067Y134769D01*
X131067D02*
Y130644D01*
X133249Y138519D02*
X131067Y134769D01*
X140613Y138519D02*
Y130644D01*
Y138519D02*
X144158D01*
X140613Y134769D02*
X142795D01*
X148249Y138519D02*
X147704Y138144D01*
X147158Y137394*
X147158D02*
X146885Y136644D01*
X146885D02*
X146613Y135519D01*
Y133644*
X146885Y132519*
X146885D02*
X147158Y131769D01*
X147158D02*
X147704Y131019D01*
X148249Y130644*
X148249D02*
X149340D01*
X149885Y131019*
X149885D02*
X150431Y131769D01*
X150704Y132519*
X150976Y133644*
X150976D02*
Y135519D01*
X150976D02*
X150704Y136644D01*
X150431Y137394*
X149885Y138144*
X149885D02*
X149340Y138519D01*
X148249*
X153431D02*
Y130644D01*
Y138519D02*
X155885D01*
X155885D02*
X156704Y138144D01*
X156976Y137769*
X156976D02*
X157249Y137019D01*
X157249D02*
Y136269D01*
X157249D02*
X156976Y135519D01*
X156976D02*
X156704Y135144D01*
X155885Y134769*
X155885D02*
X153431D01*
X155340D02*
X157249Y130644D01*
X159704Y138519D02*
Y130644D01*
Y138519D02*
X161885Y130644D01*
X164067Y138519D02*
X161885Y130644D01*
X164067Y138519D02*
Y130644D01*
X171431Y138519D02*
X172795Y130644D01*
X174158Y138519D02*
X172795Y130644D01*
X174158Y138519D02*
X175522Y130644D01*
X176885Y138519D02*
X175522Y130644D01*
X179340Y138519D02*
Y130644D01*
X183158Y138519D02*
Y130644D01*
X179340Y134769D02*
X183158D01*
X187795Y138519D02*
X185613Y130644D01*
X187795Y138519D02*
X189976Y130644D01*
X186431Y133269D02*
X189158D01*
X194340Y138519D02*
Y130644D01*
X192431Y138519D02*
X196249D01*
X198704D02*
Y130644D01*
Y138519D02*
X202249D01*
X198704Y134769D02*
X200885D01*
X198704Y130644D02*
X202249D01*
X204704Y138519D02*
X206885Y130644D01*
X209067Y138519D02*
X206885Y130644D01*
X211522Y138519D02*
Y130644D01*
Y138519D02*
X215067D01*
X211522Y134769D02*
X213704D01*
X211522Y130644D02*
X215067D01*
X217522Y138519D02*
Y130644D01*
Y138519D02*
X219976D01*
X219976D02*
X220795Y138144D01*
X221067Y137769*
X221067D02*
X221340Y137019D01*
Y136269*
X221067Y135519*
X221067D02*
X220795Y135144D01*
X219976Y134769*
X219976D02*
X217522D01*
X219431D02*
X221340Y130644D01*
X228704Y138519D02*
Y130644D01*
X234976Y137394D02*
X234431Y138144D01*
X233613Y138519*
X232522*
X231704Y138144*
X231158Y137394*
X231158D02*
Y136644D01*
X231158D02*
X231431Y135894D01*
X231704Y135519*
X232249Y135144*
X232249D02*
X233885Y134394D01*
X233885D02*
X234431Y134019D01*
X234704Y133644*
X234976Y132894*
X234976D02*
Y131769D01*
X234976D02*
X234431Y131019D01*
X233613Y130644*
X232522*
X231704Y131019*
X231158Y131769*
X242340Y138519D02*
Y130644D01*
Y138519D02*
X246158Y130644D01*
Y138519D02*
Y130644D01*
X250249Y138519D02*
X249704Y138144D01*
X249158Y137394*
X249158D02*
X248885Y136644D01*
X248885D02*
X248613Y135519D01*
Y133644*
X248885Y132519*
X248885D02*
X249158Y131769D01*
X249158D02*
X249704Y131019D01*
X250249Y130644*
X250249D02*
X251340D01*
X251885Y131019*
X251885D02*
X252431Y131769D01*
X252704Y132519*
X252976Y133644*
X252976D02*
Y135519D01*
X252976D02*
X252704Y136644D01*
X252431Y137394*
X251885Y138144*
X251885D02*
X251340Y138519D01*
X250249*
X257340D02*
Y130644D01*
X255431Y138519D02*
X259249D01*
X266613D02*
Y130644D01*
Y138519D02*
X269067D01*
X269067D02*
X269885Y138144D01*
X269885D02*
X270158Y137769D01*
X270158D02*
X270431Y137019D01*
Y135894*
X270158Y135144*
X270158D02*
X269885Y134769D01*
X269885D02*
X269067Y134394D01*
X269067D02*
X266613D01*
X272885Y138519D02*
Y130644D01*
Y138519D02*
X276431D01*
X272885Y134769D02*
X275067D01*
X272885Y130644D02*
X276431D01*
X278885Y138519D02*
Y130644D01*
Y138519D02*
X281340D01*
X282158Y138144*
X282158D02*
X282431Y137769D01*
X282704Y137019*
Y136269*
X282431Y135519*
X282158Y135144*
X282158D02*
X281340Y134769D01*
X278885*
X280795D02*
X282704Y130644D01*
X285158Y138519D02*
Y130644D01*
Y138519D02*
X287340Y130644D01*
X289522Y138519D02*
X287340Y130644D01*
X289522Y138519D02*
Y130644D01*
X291976Y138519D02*
Y130644D01*
X296340Y138519D02*
Y130644D01*
X294431Y138519D02*
X298249D01*
X302613D02*
Y130644D01*
X300704Y138519D02*
X304522D01*
X306976D02*
Y130644D01*
Y138519D02*
X310522D01*
X306976Y134769D02*
X309158D01*
X306976Y130644D02*
X310522D01*
X312976Y138519D02*
Y130644D01*
Y138519D02*
X314885D01*
X314885D02*
X315704Y138144D01*
X316249Y137394*
X316249D02*
X316522Y136644D01*
X316795Y135519*
Y133644*
X316522Y132519*
X316249Y131769*
X316249D02*
X315704Y131019D01*
X314885Y130644*
X314885D02*
X312976D01*
X115795Y126519D02*
X117158Y118644D01*
X118522Y126519D02*
X117158Y118644D01*
X118522Y126519D02*
X119885Y118644D01*
X121249Y126519D02*
X119885Y118644D01*
X123704Y126519D02*
Y118644D01*
X128067Y126519D02*
Y118644D01*
X126158Y126519D02*
X129976D01*
X132431D02*
Y118644D01*
X136249Y126519D02*
Y118644D01*
X132431Y122769D02*
X136249D01*
X140340Y126519D02*
X139795Y126144D01*
X139249Y125394*
X139249D02*
X138976Y124644D01*
X138976D02*
X138704Y123519D01*
Y121644*
X138976Y120519*
X138976D02*
X139249Y119769D01*
X139249D02*
X139795Y119019D01*
X140340Y118644*
X141431*
X141976Y119019*
X141976D02*
X142522Y119769D01*
X142795Y120519*
X143067Y121644*
X143067D02*
Y123519D01*
X143067D02*
X142795Y124644D01*
X142522Y125394*
X141976Y126144*
X141976D02*
X141431Y126519D01*
X140340*
X145522D02*
Y120894D01*
X145795Y119769*
X146340Y119019*
X147158Y118644*
X147158D02*
X147704D01*
X148522Y119019*
X149067Y119769*
X149067D02*
X149340Y120894D01*
Y126519*
X153704D02*
Y118644D01*
X151795Y126519D02*
X155613D01*
X162976D02*
X164340Y118644D01*
X165704Y126519D02*
X164340Y118644D01*
X165704Y126519D02*
X167067Y118644D01*
X168431Y126519D02*
X167067Y118644D01*
X170885Y126519D02*
Y118644D01*
Y126519D02*
X173340D01*
X174158Y126144*
X174158D02*
X174431Y125769D01*
X174704Y125019*
Y124269*
X174431Y123519*
X174158Y123144*
X174158D02*
X173340Y122769D01*
X170885*
X172795D02*
X174704Y118644D01*
X177158Y126519D02*
Y118644D01*
X181522Y126519D02*
Y118644D01*
X179613Y126519D02*
X183431D01*
X187795D02*
Y118644D01*
X185885Y126519D02*
X189704D01*
X192158D02*
Y118644D01*
Y126519D02*
X195704D01*
X192158Y122769D02*
X194340D01*
X192158Y118644D02*
X195704D01*
X198158Y126519D02*
Y118644D01*
Y126519D02*
X201976Y118644D01*
Y126519D02*
Y118644D01*
X211522Y126519D02*
X209340Y118644D01*
X211522Y126519D02*
X213704Y118644D01*
X210158Y121269D02*
X212885D01*
X216158Y126519D02*
Y120894D01*
X216158D02*
X216431Y119769D01*
X216976Y119019*
X216976D02*
X217795Y118644D01*
X218340*
X219158Y119019*
X219158D02*
X219704Y119769D01*
X219976Y120894*
X219976D02*
Y126519D01*
X224340D02*
Y118644D01*
X222431Y126519D02*
X226249D01*
X228704D02*
Y118644D01*
X232522Y126519D02*
Y118644D01*
X228704Y122769D02*
X232522D01*
X236613Y126519D02*
X236067Y126144D01*
X236067D02*
X235522Y125394D01*
X235249Y124644*
X235249D02*
X234976Y123519D01*
X234976D02*
Y121644D01*
X234976D02*
X235249Y120519D01*
X235249D02*
X235522Y119769D01*
X236067Y119019*
X236067D02*
X236613Y118644D01*
X237704*
X238249Y119019*
X238249D02*
X238795Y119769D01*
X239067Y120519*
X239067D02*
X239340Y121644D01*
Y123519*
X239067Y124644*
X239067D02*
X238795Y125394D01*
X238249Y126144*
X238249D02*
X237704Y126519D01*
X236613*
X241795D02*
Y118644D01*
Y126519D02*
X244249D01*
X244249D02*
X245067Y126144D01*
X245067D02*
X245340Y125769D01*
X245613Y125019*
Y124269*
X245340Y123519*
X245067Y123144*
X245067D02*
X244249Y122769D01*
X244249D02*
X241795D01*
X243704D02*
X245613Y118644D01*
X248067Y126519D02*
Y118644D01*
X254340Y126519D02*
X250522Y118644D01*
Y126519D02*
X254340D01*
X250522Y118644D02*
X254340D01*
X258976Y126519D02*
X256795Y118644D01*
X258976Y126519D02*
X261158Y118644D01*
X257613Y121269D02*
X260340D01*
X265522Y126519D02*
Y118644D01*
X263613Y126519D02*
X267431D01*
X269885D02*
Y118644D01*
X273976Y126519D02*
X273431Y126144D01*
X272885Y125394*
X272885D02*
X272613Y124644D01*
X272340Y123519*
Y121644*
X272613Y120519*
X272885Y119769*
X272885D02*
X273431Y119019D01*
X273976Y118644*
X273976D02*
X275067D01*
X275067D02*
X275613Y119019D01*
X276158Y119769*
X276158D02*
X276431Y120519D01*
X276704Y121644*
Y123519*
X276431Y124644*
X276158Y125394*
X276158D02*
X275613Y126144D01*
X275067Y126519*
X275067D02*
X273976D01*
X279158D02*
Y118644D01*
Y126519D02*
X282976Y118644D01*
Y126519D02*
Y118644D01*
X290340Y126519D02*
Y118644D01*
Y126519D02*
X293885D01*
X290340Y122769D02*
X292522D01*
X296340Y126519D02*
Y118644D01*
Y126519D02*
X298795D01*
X299613Y126144*
X299885Y125769*
X299885D02*
X300158Y125019D01*
X300158D02*
Y124269D01*
X300158D02*
X299885Y123519D01*
X299885D02*
X299613Y123144D01*
X298795Y122769*
X296340*
X298249D02*
X300158Y118644D01*
X304249Y126519D02*
X303704Y126144D01*
X303158Y125394*
X303158D02*
X302885Y124644D01*
X302885D02*
X302613Y123519D01*
Y121644*
X302885Y120519*
X302885D02*
X303158Y119769D01*
X303158D02*
X303704Y119019D01*
X304249Y118644*
X304249D02*
X305340D01*
X305885Y119019*
X305885D02*
X306431Y119769D01*
X306704Y120519*
X306976Y121644*
X306976D02*
Y123519D01*
X306976D02*
X306704Y124644D01*
X306431Y125394*
X305885Y126144*
X305885D02*
X305340Y126519D01*
X304249*
X309431D02*
Y118644D01*
Y126519D02*
X311613Y118644D01*
X313795Y126519D02*
X311613Y118644D01*
X313795Y126519D02*
Y118644D01*
G54D12*
X421236Y35561D02*
Y130050D01*
X452732Y35561D02*
Y130050D01*
X488165Y35561D02*
Y130050D01*
X523598Y35561D02*
Y130050D01*
X555094Y35561D02*
Y130050D01*
X350370Y67057D02*
X598401D01*
X350370Y98553D02*
X598401D01*
X653519Y200916D02*
X818874D01*
X259819Y35561D02*
Y98553D01*
X110212D02*
X350370D01*
X110212Y67057D02*
X350370D01*
X677140Y145798D02*
G03X677140I-11810D01*
G01X669267D02*
G03X669267I-3937D01*
G01X116118Y178607D02*
Y169420D01*
X125345Y174670D02*
Y175107D01*
X125345D02*
X125027Y175545D01*
X124708*
X124708D02*
X124390Y175107D01*
X124390D02*
X124072Y174232D01*
X124072D02*
X123436Y172045D01*
X122799Y170732*
X122799D02*
X122163Y169857D01*
X122163D02*
X121527Y169420D01*
X120254*
X119618Y169857*
X119618D02*
X119299Y170295D01*
X119299D02*
X118981Y171170D01*
X118981D02*
Y172045D01*
X118981D02*
X119299Y172920D01*
X119299D02*
X119618Y173357D01*
X119618D02*
X121845Y175107D01*
X121845D02*
X122163Y175545D01*
X122481Y176420*
X122481D02*
Y177295D01*
X122481D02*
X122163Y178170D01*
X121527Y178607*
X121527D02*
X120890Y178170D01*
X120890D02*
X120572Y177295D01*
X120572D02*
Y176420D01*
X120572D02*
X120890Y175107D01*
X120890D02*
X121527Y173795D01*
X123118Y170732*
X123118D02*
X123754Y169857D01*
X123754D02*
X124390Y169420D01*
X124390D02*
X125027D01*
X125345Y169857*
X125345D02*
Y170295D01*
X128208Y178607D02*
Y169420D01*
Y178607D02*
X131072D01*
X131072D02*
X132027Y178170D01*
X132345Y177732*
X132345D02*
X132663Y176857D01*
X132663D02*
Y175545D01*
X132345Y174670*
X132027Y174232*
X132027D02*
X131072Y173795D01*
X131072D02*
X128208D01*
X139981Y177295D02*
X139345Y178170D01*
X138390Y178607*
X138390D02*
X137118D01*
X137118D02*
X136163Y178170D01*
X135527Y177295*
Y176420*
X135845Y175545*
X136163Y175107*
X136163D02*
X136799Y174670D01*
X136799D02*
X138708Y173795D01*
X138708D02*
X139345Y173357D01*
X139345D02*
X139663Y172920D01*
X139981Y172045*
X139981D02*
Y170732D01*
X139981D02*
X139345Y169857D01*
X139345D02*
X138390Y169420D01*
X138390D02*
X137118D01*
X136163Y169857*
X136163D02*
X135527Y170732D01*
X151118Y178607D02*
X148572Y169420D01*
X151118Y178607D02*
X153663Y169420D01*
X149527Y172482D02*
X152708D01*
X156527Y178607D02*
Y169420D01*
Y178607D02*
X159390D01*
X159390D02*
X160345Y178170D01*
X160663Y177732*
X160663D02*
X160981Y176857D01*
X160981D02*
Y175545D01*
X160981D02*
X160663Y174670D01*
X160345Y174232*
X160345D02*
X159390Y173795D01*
X159390D02*
X156527D01*
X163845Y178607D02*
Y169420D01*
Y178607D02*
X166708D01*
X166708D02*
X167663Y178170D01*
X167981Y177732*
X167981D02*
X168299Y176857D01*
X168299D02*
Y175545D01*
X168299D02*
X167981Y174670D01*
X167981D02*
X167663Y174232D01*
X167663D02*
X166708Y173795D01*
X166708D02*
X163845D01*
X171163Y178607D02*
Y169420D01*
X174981*
X177845Y178607D02*
Y169420D01*
X185481Y176420D02*
X185163Y177295D01*
X184527Y178170*
X183890Y178607*
X183890D02*
X182618D01*
X182618D02*
X181981Y178170D01*
X181981D02*
X181345Y177295D01*
X181027Y176420*
X180708Y175107*
X180708D02*
Y172920D01*
X180708D02*
X181027Y171607D01*
X181027D02*
X181345Y170732D01*
X181345D02*
X181981Y169857D01*
X181981D02*
X182618Y169420D01*
X183890*
X183890D02*
X184527Y169857D01*
X184527D02*
X185163Y170732D01*
X185163D02*
X185481Y171607D01*
X190890Y178607D02*
X188345Y169420D01*
X190890Y178607D02*
X193436Y169420D01*
X189299Y172482D02*
X192481D01*
X198527Y178607D02*
Y169420D01*
X196299Y178607D02*
X200754D01*
X203618D02*
Y169420D01*
X208390Y178607D02*
X207754Y178170D01*
X207118Y177295*
X206799Y176420*
X206799D02*
X206481Y175107D01*
X206481D02*
Y172920D01*
X206481D02*
X206799Y171607D01*
X206799D02*
X207118Y170732D01*
X207118D02*
X207754Y169857D01*
X207754D02*
X208390Y169420D01*
X208390D02*
X209663D01*
X210299Y169857*
X210299D02*
X210936Y170732D01*
X210936D02*
X211254Y171607D01*
X211254D02*
X211572Y172920D01*
X211572D02*
Y175107D01*
X211572D02*
X211254Y176420D01*
X210936Y177295*
X210299Y178170*
X210299D02*
X209663Y178607D01*
X209663D02*
X208390D01*
X214436D02*
Y169420D01*
Y178607D02*
X218890Y169420D01*
Y178607D02*
Y169420D01*
X227481Y178607D02*
Y169420D01*
X227481D02*
X231299D01*
X236708Y178607D02*
X234163Y169420D01*
X236708Y178607D02*
X239254Y169420D01*
X235118Y172482D02*
X238299D01*
X242118Y178607D02*
Y169420D01*
Y178607D02*
X244981D01*
X244981D02*
X245936Y178170D01*
X246254Y177732*
X246254D02*
X246572Y176857D01*
X246572D02*
Y175982D01*
X246572D02*
X246254Y175107D01*
X246254D02*
X245936Y174670D01*
X244981Y174232*
X242118D02*
X244981D01*
X244981D02*
X245936Y173795D01*
X246254Y173357*
X246254D02*
X246572Y172482D01*
X246572D02*
Y171170D01*
X246572D02*
X246254Y170295D01*
X245936Y169857*
X245936D02*
X244981Y169420D01*
X244981D02*
X242118D01*
X249754Y170295D02*
X249436Y169857D01*
X249436D02*
X249754Y169420D01*
X250072Y169857*
X250072D02*
X249754Y170295D01*
X263756Y63121D02*
Y55246D01*
Y63121D02*
X265665D01*
X266483Y62746*
X267028Y61996*
X267028D02*
X267301Y61246D01*
X267574Y60121*
Y58246*
X267301Y57121*
X267028Y56371*
X267028D02*
X266483Y55621D01*
X265665Y55246*
X263756*
X272210Y63121D02*
X270028Y55246D01*
X272210Y63121D02*
X274392Y55246D01*
X270846Y57871D02*
X273574D01*
X278756Y63121D02*
Y55246D01*
X276846Y63121D02*
X280665D01*
X283119D02*
Y55246D01*
Y63121D02*
X286665D01*
X283119Y59371D02*
X285301D01*
X283119Y55246D02*
X286665D01*
X263756Y94617D02*
Y86742D01*
Y94617D02*
X265665D01*
X266483Y94242*
X267028Y93492*
X267028D02*
X267301Y92742D01*
X267574Y91617*
Y89742*
X267301Y88617*
X267028Y87867*
X267028D02*
X266483Y87117D01*
X265665Y86742*
X263756*
X272210Y94617D02*
X270028Y86742D01*
X272210Y94617D02*
X274392Y86742D01*
X270846Y89367D02*
X273574D01*
X278756Y94617D02*
Y86742D01*
X276846Y94617D02*
X280665D01*
X283119D02*
Y86742D01*
Y94617D02*
X286665D01*
X283119Y90867D02*
X285301D01*
X283119Y86742D02*
X286665D01*
X116331Y63121D02*
X114150Y55246D01*
X116331Y63121D02*
X118513Y55246D01*
X114968Y57871D02*
X117695D01*
X120968Y63121D02*
Y55246D01*
Y63121D02*
X123422D01*
X123422D02*
X124240Y62746D01*
X124240D02*
X124513Y62371D01*
X124513D02*
X124786Y61621D01*
Y60496*
X124513Y59746*
X124513D02*
X124240Y59371D01*
X124240D02*
X123422Y58996D01*
X123422D02*
X120968D01*
X127240Y63121D02*
Y55246D01*
Y63121D02*
X129695D01*
X130513Y62746*
X130513D02*
X130786Y62371D01*
X131059Y61621*
Y60496*
X130786Y59746*
X130513Y59371*
X130513D02*
X129695Y58996D01*
X127240*
X133513Y63121D02*
Y55246D01*
Y63121D02*
X135968D01*
X136786Y62746*
X137059Y62371*
X137331Y61621*
X137331D02*
Y60871D01*
X137331D02*
X137059Y60121D01*
X136786Y59746*
X135968Y59371*
X133513*
X135422D02*
X137331Y55246D01*
X141422Y63121D02*
X140877Y62746D01*
X140331Y61996*
X140331D02*
X140059Y61246D01*
X139786Y60121*
Y58246*
X140059Y57121*
X140331Y56371*
X140331D02*
X140877Y55621D01*
X141422Y55246*
X141422D02*
X142513D01*
X142513D02*
X143059Y55621D01*
X143604Y56371*
X143604D02*
X143877Y57121D01*
X144150Y58246*
Y60121*
X143877Y61246*
X143604Y61996*
X143604D02*
X143059Y62746D01*
X142513Y63121*
X142513D02*
X141422D01*
X146604D02*
X148786Y55246D01*
X150968Y63121D02*
X148786Y55246D01*
X153422Y63121D02*
Y55246D01*
Y63121D02*
X156968D01*
X153422Y59371D02*
X155604D01*
X153422Y55246D02*
X156968D01*
X159422Y63121D02*
Y55246D01*
Y63121D02*
X161331D01*
X161331D02*
X162150Y62746D01*
X162695Y61996*
X162968Y61246*
X163240Y60121*
X163240D02*
Y58246D01*
X163240D02*
X162968Y57121D01*
X162695Y56371*
X162150Y55621*
X161331Y55246*
X161331D02*
X159422D01*
X114150Y94617D02*
Y86742D01*
Y94617D02*
X116059D01*
X116877Y94242*
X117422Y93492*
X117422D02*
X117695Y92742D01*
X117968Y91617*
Y89742*
X117695Y88617*
X117422Y87867*
X117422D02*
X116877Y87117D01*
X116059Y86742*
X114150*
X120422Y94617D02*
Y86742D01*
Y94617D02*
X122877D01*
X123695Y94242*
X123968Y93867*
X124240Y93117*
X124240D02*
Y92367D01*
X124240D02*
X123968Y91617D01*
X123695Y91242*
X122877Y90867*
X120422*
X122331D02*
X124240Y86742D01*
X128877Y94617D02*
X126695Y86742D01*
X128877Y94617D02*
X131059Y86742D01*
X127513Y89367D02*
X130240D01*
X133513Y94617D02*
X134877Y86742D01*
X136240Y94617D02*
X134877Y86742D01*
X136240Y94617D02*
X137604Y86742D01*
X138968Y94617D02*
X137604Y86742D01*
X141422Y94617D02*
Y86742D01*
Y94617D02*
X145240Y86742D01*
Y94617D02*
Y86742D01*
X261476Y177519D02*
X259295Y169644D01*
X261476Y177519D02*
X263658Y169644D01*
X260113Y172269D02*
X262840D01*
X270204Y175644D02*
X269931Y176394D01*
X269385Y177144*
X269385D02*
X268840Y177519D01*
X267749*
X267749D02*
X267204Y177144D01*
X266658Y176394*
X266658D02*
X266385Y175644D01*
X266385D02*
X266113Y174519D01*
Y172644*
X266385Y171519*
X266385D02*
X266658Y170769D01*
X266658D02*
X267204Y170019D01*
X267749Y169644*
X267749D02*
X268840D01*
X269385Y170019*
X269385D02*
X269931Y170769D01*
X270204Y171519*
Y172644*
X268840D02*
X270204D01*
X272658Y177519D02*
Y169644D01*
Y177519D02*
X275113D01*
X275931Y177144*
X276204Y176769*
X276476Y176019*
X276476D02*
Y175269D01*
X276476D02*
X276204Y174519D01*
X275931Y174144*
X275113Y173769*
X272658*
X274567D02*
X276476Y169644D01*
X281113Y177519D02*
X278931Y169644D01*
X281113Y177519D02*
X283295Y169644D01*
X279749Y172269D02*
X282476D01*
X287658Y177519D02*
Y169644D01*
X285749Y177519D02*
X289567D01*
X292022D02*
Y169644D01*
Y177519D02*
X295567D01*
X292022Y173769D02*
X294204D01*
X292022Y169644D02*
X295567D01*
X302931Y177519D02*
Y169644D01*
Y177519D02*
X305385D01*
X305385D02*
X306204Y177144D01*
X306476Y176769*
X306476D02*
X306749Y176019D01*
X306749D02*
Y175269D01*
X306749D02*
X306476Y174519D01*
X306476D02*
X306204Y174144D01*
X305385Y173769*
X302931D02*
X305385D01*
X305385D02*
X306204Y173394D01*
X306476Y173019*
X306476D02*
X306749Y172269D01*
X306749D02*
Y171144D01*
X306749D02*
X306476Y170394D01*
X306476D02*
X306204Y170019D01*
X305385Y169644*
X305385D02*
X302931D01*
X309476Y170394D02*
X309204Y170019D01*
X309476Y169644*
X309476D02*
X309749Y170019D01*
X309749D02*
X309476Y170394D01*
X317113Y177519D02*
Y169644D01*
X321476Y177519D02*
Y169644D01*
X319567Y177519D02*
X323385D01*
X328022D02*
X325840Y169644D01*
X328022Y177519D02*
X330204Y169644D01*
X326658Y172269D02*
X329385D01*
X332658Y177519D02*
Y169644D01*
X332658D02*
X335931D01*
X338385Y177519D02*
X340567Y173769D01*
X340567D02*
Y169644D01*
X342749Y177519D02*
X340567Y173769D01*
G54D14*
X110212Y35561D02*
Y1165483D01*
X818874*
Y35561*
X110212*
Y236349*
X818874*
X110212Y181231D02*
X350370D01*
X110212Y165483D02*
X350370D01*
Y35561D02*
Y236349D01*
Y165483D02*
X653519D01*
Y236349*
Y165483D02*
X818874D01*
X598401Y130050D02*
X818874D01*
X767693D02*
Y165483D01*
X598401D02*
Y35561D01*
X681078Y130050D02*
Y165483D01*
X350370Y130050D02*
X598401D01*
Y86742D02*
X818874D01*
G54D15*
X771630Y161546D02*
Y153671D01*
Y161546D02*
X774084D01*
X774084D02*
X774902Y161171D01*
X774902D02*
X775175Y160796D01*
X775448Y160046*
Y159296*
X775175Y158546*
X774902Y158171*
X774902D02*
X774084Y157796D01*
X774084D02*
X771630D01*
X773539D02*
X775448Y153671D01*
X777902Y161546D02*
Y153671D01*
Y161546D02*
X781448D01*
X777902Y157796D02*
X780084D01*
X777902Y153671D02*
X781448D01*
X783902Y161546D02*
X786084Y153671D01*
X788266Y161546D02*
X786084Y153671D01*
X688834Y160421D02*
X688288Y161171D01*
X688288D02*
X687470Y161546D01*
X687470D02*
X686379D01*
X686379D02*
X685561Y161171D01*
X685016Y160421*
Y159671*
X685288Y158921*
X685288D02*
X685561Y158546D01*
X686106Y158171*
X686106D02*
X687743Y157421D01*
X688288Y157046*
X688288D02*
X688561Y156671D01*
X688834Y155921*
Y154796*
X688288Y154046*
X688288D02*
X687470Y153671D01*
X687470D02*
X686379D01*
X686379D02*
X685561Y154046D01*
X685016Y154796*
X695379Y159671D02*
X695106Y160421D01*
X695106D02*
X694561Y161171D01*
X694016Y161546*
X692925*
X692379Y161171*
X692379D02*
X691834Y160421D01*
X691561Y159671*
X691288Y158546*
X691288D02*
Y156671D01*
X691288D02*
X691561Y155546D01*
X691834Y154796*
X692379Y154046*
X692379D02*
X692925Y153671D01*
X694016*
X694561Y154046*
X695106Y154796*
X695106D02*
X695379Y155546D01*
X700016Y161546D02*
X697834Y153671D01*
X700016Y161546D02*
X702197Y153671D01*
X698652Y156296D02*
X701379D01*
X704652Y161546D02*
Y153671D01*
X707925*
X710379Y161546D02*
Y153671D01*
Y161546D02*
X713925D01*
X710379Y157796D02*
X712561D01*
X710379Y153671D02*
X713925D01*
X661547Y195104D02*
X661275Y195854D01*
X660729Y196604*
X660729D02*
X660184Y196979D01*
X659093*
X658547Y196604*
X658547D02*
X658002Y195854D01*
X657729Y195104*
X657729D02*
X657457Y193979D01*
Y192104*
X657729Y190979*
X657729D02*
X658002Y190229D01*
X658547Y189479*
X658547D02*
X659093Y189104D01*
X660184*
X660729Y189479*
X660729D02*
X661275Y190229D01*
X661547Y190979*
X661547D02*
Y192104D01*
X660184D02*
X661547D01*
X664002Y196979D02*
Y189104D01*
Y196979D02*
X666457D01*
X667275Y196604*
X667547Y196229*
X667547D02*
X667820Y195479D01*
X667820D02*
Y194729D01*
X667820D02*
X667547Y193979D01*
X667547D02*
X667275Y193604D01*
X666457Y193229*
X664002*
X665911D02*
X667820Y189104D01*
X671911Y196979D02*
X671366Y196604D01*
X670820Y195854*
X670820D02*
X670547Y195104D01*
X670547D02*
X670275Y193979D01*
Y192104*
X670547Y190979*
X670547D02*
X670820Y190229D01*
X670820D02*
X671366Y189479D01*
X671911Y189104*
X671911D02*
X673002D01*
X673547Y189479*
X673547D02*
X674093Y190229D01*
X674366Y190979*
X674638Y192104*
X674638D02*
Y193979D01*
X674638D02*
X674366Y195104D01*
X674093Y195854*
X673547Y196604*
X673547D02*
X673002Y196979D01*
X671911*
X677093D02*
Y191354D01*
X677366Y190229*
X677911Y189479*
X677911D02*
X678729Y189104D01*
X678729D02*
X679275D01*
X680093Y189479*
X680638Y190229*
X680638D02*
X680911Y191354D01*
X680911D02*
Y196979D01*
X683366D02*
Y189104D01*
Y196979D02*
X685820D01*
X685820D02*
X686638Y196604D01*
X686638D02*
X686911Y196229D01*
X686911D02*
X687184Y195479D01*
Y194354*
X686911Y193604*
X686911D02*
X686638Y193229D01*
X686638D02*
X685820Y192854D01*
X685820D02*
X683366D01*
X661275Y231287D02*
X660729Y232037D01*
X660729D02*
X659911Y232412D01*
X659911D02*
X658820D01*
X658820D02*
X658002Y232037D01*
X657457Y231287*
Y230537*
X657729Y229787*
X657729D02*
X658002Y229412D01*
X658547Y229037*
X658547D02*
X660184Y228287D01*
X660729Y227912*
X660729D02*
X661002Y227537D01*
X661275Y226787*
Y225662*
X660729Y224912*
X660729D02*
X659911Y224537D01*
X659911D02*
X658820D01*
X658820D02*
X658002Y224912D01*
X657457Y225662*
X663729Y232412D02*
X665911Y228662D01*
X665911D02*
Y224537D01*
X668093Y232412D02*
X665911Y228662D01*
X670547Y232412D02*
Y224537D01*
Y232412D02*
X672729Y224537D01*
X674911Y232412D02*
X672729Y224537D01*
X674911Y232412D02*
Y224537D01*
X677366Y232412D02*
Y224537D01*
Y232412D02*
X679820D01*
X679820D02*
X680638Y232037D01*
X680638D02*
X680911Y231662D01*
X680911D02*
X681184Y230912D01*
Y230162*
X680911Y229412*
X680911D02*
X680638Y229037D01*
X680638D02*
X679820Y228662D01*
X677366D02*
X679820D01*
X679820D02*
X680638Y228287D01*
X680638D02*
X680911Y227912D01*
X680911D02*
X681184Y227162D01*
Y226037*
X680911Y225287*
X680911D02*
X680638Y224912D01*
X680638D02*
X679820Y224537D01*
X679820D02*
X677366D01*
X685275Y232412D02*
X684729Y232037D01*
X684729D02*
X684184Y231287D01*
X683911Y230537*
X683911D02*
X683638Y229412D01*
X683638D02*
Y227537D01*
X683638D02*
X683911Y226412D01*
X683911D02*
X684184Y225662D01*
X684729Y224912*
X684729D02*
X685275Y224537D01*
X686366*
X686911Y224912*
X686911D02*
X687457Y225662D01*
X687729Y226412*
X687729D02*
X688002Y227537D01*
Y229412*
X687729Y230537*
X687729D02*
X687457Y231287D01*
X686911Y232037*
X686911D02*
X686366Y232412D01*
X685275*
X690457D02*
Y224537D01*
X693729*
X602339Y161546D02*
Y153671D01*
X608611Y160421D02*
X608066Y161171D01*
X607248Y161546*
X606157*
X605339Y161171*
X604793Y160421*
X604793D02*
Y159671D01*
X604793D02*
X605066Y158921D01*
X605339Y158546*
X605884Y158171*
X607520Y157421*
X607520D02*
X608066Y157046D01*
X608339Y156671*
X608611Y155921*
X608611D02*
Y154796D01*
X608611D02*
X608066Y154046D01*
X607248Y153671*
X606157*
X605339Y154046*
X604793Y154796*
X612702Y161546D02*
X612157Y161171D01*
X611611Y160421*
X611611D02*
X611339Y159671D01*
X611066Y158546*
Y156671*
X611339Y155546*
X611611Y154796*
X611611D02*
X612157Y154046D01*
X612702Y153671*
X612702D02*
X613793D01*
X613793D02*
X614339Y154046D01*
X614884Y154796*
X615157Y155546*
X615429Y156671*
X615429D02*
Y158546D01*
X615429D02*
X615157Y159671D01*
X614884Y160421*
X614339Y161171*
X613793Y161546*
X613793D02*
X612702D01*
X602339Y126113D02*
Y118238D01*
Y126113D02*
X604520Y118238D01*
X606702Y126113D02*
X604520Y118238D01*
X606702Y126113D02*
Y118238D01*
X611339Y126113D02*
X609157Y118238D01*
X611339Y126113D02*
X613520Y118238D01*
X609975Y120863D02*
X612702D01*
X617884Y126113D02*
Y118238D01*
X615975Y126113D02*
X619793D01*
X622248D02*
Y118238D01*
Y126113D02*
X625793D01*
X622248Y122363D02*
X624429D01*
X622248Y118238D02*
X625793D01*
X628248Y126113D02*
Y118238D01*
Y126113D02*
X630702D01*
X630702D02*
X631520Y125738D01*
X631520D02*
X631793Y125363D01*
X631793D02*
X632066Y124613D01*
Y123863*
X631793Y123113*
X631793D02*
X631520Y122738D01*
X631520D02*
X630702Y122363D01*
X630702D02*
X628248D01*
X630157D02*
X632066Y118238D01*
X634520Y126113D02*
Y118238D01*
X639157Y126113D02*
X636975Y118238D01*
X639157Y126113D02*
X641339Y118238D01*
X637793Y120863D02*
X640520D01*
X643793Y126113D02*
Y118238D01*
X643793D02*
X647066D01*
X604248Y82806D02*
Y74931D01*
X602339Y82806D02*
X606157D01*
X608611D02*
Y74931D01*
Y82806D02*
X611066D01*
X611884Y82431*
X612157Y82056*
X612429Y81306*
X612429D02*
Y80556D01*
X612429D02*
X612157Y79806D01*
X611884Y79431*
X611066Y79056*
X608611*
X610520D02*
X612429Y74931D01*
X614884Y82806D02*
Y74931D01*
Y82806D02*
X618429D01*
X614884Y79056D02*
X617066D01*
X614884Y74931D02*
X618429D01*
X623066Y82806D02*
X620884Y74931D01*
X623066Y82806D02*
X625248Y74931D01*
X621702Y77556D02*
X624429D01*
X629611Y82806D02*
Y74931D01*
X627702Y82806D02*
X631520D01*
X633975D02*
Y74931D01*
Y82806D02*
X636157Y74931D01*
X638339Y82806D02*
X636157Y74931D01*
X638339Y82806D02*
Y74931D01*
X640793Y82806D02*
Y74931D01*
Y82806D02*
X644339D01*
X640793Y79056D02*
X642975D01*
X640793Y74931D02*
X644339D01*
X646793Y82806D02*
Y74931D01*
Y82806D02*
X650611Y74931D01*
Y82806D02*
Y74931D01*
X654975Y82806D02*
Y74931D01*
X653066Y82806D02*
X656884D01*
X666429D02*
X664248Y74931D01*
X666429Y82806D02*
X668611Y74931D01*
X665066Y77556D02*
X667793D01*
X671066Y82806D02*
Y74931D01*
Y82806D02*
X674884Y74931D01*
Y82806D02*
Y74931D01*
X677339Y82806D02*
Y74931D01*
Y82806D02*
X679248D01*
X680066Y82431*
X680611Y81681*
X680611D02*
X680884Y80931D01*
X681157Y79806*
Y77931*
X680884Y76806*
X680611Y76056*
X680611D02*
X680066Y75306D01*
X679248Y74931*
X677339*
X692339Y81681D02*
X691793Y82431D01*
X691793D02*
X690975Y82806D01*
X689884*
X689066Y82431*
X688520Y81681*
X688520D02*
Y80931D01*
X688520D02*
X688793Y80181D01*
X688793D02*
X689066Y79806D01*
X689611Y79431*
X689611D02*
X691248Y78681D01*
X691793Y78306*
X691793D02*
X692066Y77931D01*
X692339Y77181*
Y76056*
X691793Y75306*
X691793D02*
X690975Y74931D01*
X689884*
X689066Y75306*
X688520Y76056*
X694793Y82806D02*
Y77181D01*
X694793D02*
X695066Y76056D01*
X695611Y75306*
X695611D02*
X696429Y74931D01*
X696429D02*
X696975D01*
X697793Y75306*
X697793D02*
X698339Y76056D01*
X698611Y77181*
X698611D02*
Y82806D01*
X701066D02*
Y74931D01*
Y82806D02*
X703520D01*
X703520D02*
X704339Y82431D01*
X704611Y82056*
X704611D02*
X704884Y81306D01*
Y80556*
X704611Y79806*
X704611D02*
X704339Y79431D01*
X703520Y79056*
X703520D02*
X701066D01*
X702975D02*
X704884Y74931D01*
X707339Y82806D02*
Y74931D01*
Y82806D02*
X710884D01*
X707339Y79056D02*
X709520D01*
X715520Y82806D02*
X713339Y74931D01*
X715520Y82806D02*
X717702Y74931D01*
X714157Y77556D02*
X716884D01*
X724248Y80931D02*
X723975Y81681D01*
X723429Y82431*
X723429D02*
X722884Y82806D01*
X721793*
X721793D02*
X721248Y82431D01*
X720702Y81681*
X720702D02*
X720429Y80931D01*
X720429D02*
X720157Y79806D01*
Y77931*
X720429Y76806*
X720429D02*
X720702Y76056D01*
X720702D02*
X721248Y75306D01*
X721793Y74931*
X721793D02*
X722884D01*
X723429Y75306*
X723429D02*
X723975Y76056D01*
X724248Y76806*
X726702Y82806D02*
Y74931D01*
Y82806D02*
X730248D01*
X726702Y79056D02*
X728884D01*
X726702Y74931D02*
X730248D01*
X737611Y82806D02*
Y74931D01*
Y82806D02*
X741157D01*
X737611Y79056D02*
X739793D01*
X743611Y82806D02*
Y74931D01*
X746066Y82806D02*
Y74931D01*
Y82806D02*
X749884Y74931D01*
Y82806D02*
Y74931D01*
X752339Y82806D02*
Y74931D01*
X758611Y81681D02*
X758066Y82431D01*
X757248Y82806*
X756157*
X755339Y82431*
X754793Y81681*
X754793D02*
Y80931D01*
X754793D02*
X755066Y80181D01*
X755339Y79806*
X755884Y79431*
X757520Y78681*
X757520D02*
X758066Y78306D01*
X758339Y77931*
X758611Y77181*
X758611D02*
Y76056D01*
X758611D02*
X758066Y75306D01*
X757248Y74931*
X756157*
X755339Y75306*
X754793Y76056*
X761066Y82806D02*
Y74931D01*
X764884Y82806D02*
Y74931D01*
X761066Y79056D02*
X764884D01*
X767339Y82806D02*
Y74931D01*
X769793Y82806D02*
Y74931D01*
Y82806D02*
X773611Y74931D01*
Y82806D02*
Y74931D01*
X780157Y80931D02*
X779884Y81681D01*
X779339Y82431*
X778793Y82806*
X778793D02*
X777702D01*
X777702D02*
X777157Y82431D01*
X776611Y81681*
X776611D02*
X776339Y80931D01*
X776066Y79806*
Y77931*
X776339Y76806*
X776611Y76056*
X776611D02*
X777157Y75306D01*
X777702Y74931*
X777702D02*
X778793D01*
X778793D02*
X779339Y75306D01*
X779884Y76056*
X780157Y76806*
Y77931*
X778793D02*
X780157D01*
X564937Y46810D02*
X569846D01*
X567391Y56091D02*
Y49341D01*
X564937Y52716D02*
X569846D01*
X572846Y57216D02*
X575846D01*
X574209Y54216*
X574209D02*
X575027D01*
X575027D02*
X575573Y53841D01*
X575846Y53466*
X576118Y52341*
X576118D02*
Y51591D01*
X576118D02*
X575846Y50466D01*
X575300Y49716*
X575300D02*
X574482Y49341D01*
X573664*
X572846Y49716*
X572573Y50091*
X572300Y50841*
X580209Y57216D02*
X579391Y56841D01*
X579391D02*
X578846Y55716D01*
X578573Y53841*
Y52716*
X578846Y50841*
X579391Y49716*
X579391D02*
X580209Y49341D01*
X580209D02*
X580755D01*
X581573Y49716*
X582118Y50841*
X582118D02*
X582391Y52716D01*
X582391D02*
Y53841D01*
X582391D02*
X582118Y55716D01*
X582118D02*
X581573Y56841D01*
X580755Y57216*
X580209*
X584846D02*
Y54591D01*
X569360Y87587D02*
Y80837D01*
X566906Y84212D02*
X571815D01*
X574269Y87212D02*
X574815Y87587D01*
X575633Y88712*
Y80837*
X566906Y78306D02*
X571815D01*
X566906Y112334D02*
Y104459D01*
X570178*
X572633Y112334D02*
Y104459D01*
Y112334D02*
X576178D01*
X572633Y108584D02*
X574815D01*
X572633Y104459D02*
X576178D01*
X582451Y111209D02*
X581906Y111959D01*
X581087Y112334*
X581087D02*
X579996D01*
X579996D02*
X579178Y111959D01*
X579178D02*
X578633Y111209D01*
Y110459*
X578906Y109709*
X579178Y109334*
X579178D02*
X579724Y108959D01*
X581360Y108209*
X581360D02*
X581906Y107834D01*
X582178Y107459*
X582178D02*
X582451Y106709D01*
Y105584*
X581906Y104834*
X581087Y104459*
X581087D02*
X579996D01*
X579996D02*
X579178Y104834D01*
X579178D02*
X578633Y105584D01*
X585178Y105209D02*
X584906Y104834D01*
X585178Y104459*
X585178D02*
X585451Y104834D01*
X585178Y105209*
X569087Y126113D02*
X566906Y118238D01*
X569087Y126113D02*
X571269Y118238D01*
X567724Y120863D02*
X570451D01*
X573724Y126113D02*
Y118238D01*
Y126113D02*
X577542Y118238D01*
Y126113D02*
Y118238D01*
X584087Y124238D02*
X583815Y124988D01*
X583269Y125738*
X583269D02*
X582724Y126113D01*
X581633*
X581087Y125738*
X581087D02*
X580542Y124988D01*
X580269Y124238*
X580269D02*
X579996Y123113D01*
X579996D02*
Y121238D01*
X579996D02*
X580269Y120113D01*
X580269D02*
X580542Y119363D01*
X581087Y118613*
X581087D02*
X581633Y118238D01*
X582724*
X583269Y118613*
X583269D02*
X583815Y119363D01*
X584087Y120113*
X584087D02*
Y121238D01*
X582724D02*
X584087D01*
X586815Y118988D02*
X586542Y118613D01*
X586815Y118238*
X587087Y118613*
X587087D02*
X586815Y118988D01*
X531958Y85618D02*
Y78868D01*
X529504Y82243D02*
X534413D01*
X538504Y86743D02*
X537685Y86368D01*
X537685D02*
X537140Y85243D01*
X536867Y83368*
X536867D02*
Y82243D01*
X536867D02*
X537140Y80368D01*
X537685Y79243*
X537685D02*
X538504Y78868D01*
X539049*
X539867Y79243*
X539867D02*
X540413Y80368D01*
X540685Y82243*
X540685D02*
Y83368D01*
X540685D02*
X540413Y85243D01*
X539867Y86368*
X539867D02*
X539049Y86743D01*
X538504*
X543413Y79618D02*
X543140Y79243D01*
X543413Y78868*
X543685Y79243*
X543685D02*
X543413Y79618D01*
X549685Y86743D02*
X546958D01*
X546958D02*
X546685Y83368D01*
X546685D02*
X546958Y83743D01*
X546958D02*
X547776Y84118D01*
X547776D02*
X548594D01*
X548594D02*
X549413Y83743D01*
X549958Y82993*
X549958D02*
X550231Y81868D01*
X549958Y81118*
X549958D02*
X549685Y79993D01*
X549685D02*
X549140Y79243D01*
X548322Y78868*
X547504*
X546685Y79243*
X546685D02*
X546413Y79618D01*
X546140Y80368*
X529504Y76338D02*
X534413D01*
X525567Y44842D02*
X530476D01*
X528021Y54122D02*
Y47372D01*
X525567Y50747D02*
X530476D01*
X534567Y55247D02*
X533748Y54872D01*
X533748D02*
X533203Y53747D01*
X532930Y51872*
X532930D02*
Y50747D01*
X532930D02*
X533203Y48872D01*
X533748Y47747*
X533748D02*
X534567Y47372D01*
X535112*
X535930Y47747*
X535930D02*
X536476Y48872D01*
X536748Y50747*
X536748D02*
Y51872D01*
X536748D02*
X536476Y53747D01*
X535930Y54872*
X535930D02*
X535112Y55247D01*
X534567*
X539476Y48122D02*
X539203Y47747D01*
X539476Y47372*
X539748Y47747*
X539748D02*
X539476Y48122D01*
X542476Y53372D02*
Y53747D01*
X542748Y54497*
X542748D02*
X543021Y54872D01*
X543021D02*
X543567Y55247D01*
X544657*
X544657D02*
X545203Y54872D01*
X545476Y54497*
X545748Y53747*
X545748D02*
Y52997D01*
X545748D02*
X545476Y52247D01*
X544930Y51122*
X544930D02*
X542203Y47372D01*
X546021*
X552021Y55247D02*
X549294D01*
X549021Y51872*
X549021D02*
X549294Y52247D01*
X550112Y52622*
X550930*
X550930D02*
X551748Y52247D01*
X551748D02*
X552294Y51497D01*
X552567Y50372*
X552294Y49622*
X552021Y48497*
X552021D02*
X551476Y47747D01*
X550657Y47372*
X550657D02*
X549839D01*
X549839D02*
X549021Y47747D01*
X549021D02*
X548748Y48122D01*
X548748D02*
X548476Y48872D01*
X492102Y44842D02*
X497011D01*
X494556Y54122D02*
Y47372D01*
X492102Y50747D02*
X497011D01*
X501102Y55247D02*
X500283Y54872D01*
X500283D02*
X499738Y53747D01*
X499465Y51872*
X499465D02*
Y50747D01*
X499465D02*
X499738Y48872D01*
X500283Y47747*
X500283D02*
X501102Y47372D01*
X501647*
X502465Y47747*
X502465D02*
X503011Y48872D01*
X503283Y50747*
X503283D02*
Y51872D01*
X503283D02*
X503011Y53747D01*
X502465Y54872*
X502465D02*
X501647Y55247D01*
X501102*
X506011Y48122D02*
X505738Y47747D01*
X506011Y47372*
X506283Y47747*
X506283D02*
X506011Y48122D01*
X508738Y53747D02*
X509283Y54122D01*
X509283D02*
X510102Y55247D01*
Y47372*
X516102Y55247D02*
X513374D01*
X513374D02*
X513102Y51872D01*
X513374Y52247*
X513374D02*
X514192Y52622D01*
X514192D02*
X515011D01*
X515829Y52247*
X516374Y51497*
X516374D02*
X516647Y50372D01*
X516374Y49622*
X516374D02*
X516102Y48497D01*
X515556Y47747*
X515556D02*
X514738Y47372D01*
X513920*
X513102Y47747*
X512829Y48122*
X512556Y48872*
X496039Y76338D02*
X500948D01*
X498493Y85618D02*
Y78868D01*
X496039Y82243D02*
X500948D01*
X505039Y86743D02*
X504220Y86368D01*
X504220D02*
X503675Y85243D01*
X503402Y83368*
X503402D02*
Y82243D01*
X503402D02*
X503675Y80368D01*
X504220Y79243*
X504220D02*
X505039Y78868D01*
X505584*
X506402Y79243*
X506402D02*
X506948Y80368D01*
X507220Y82243*
X507220D02*
Y83368D01*
X507220D02*
X506948Y85243D01*
X506402Y86368*
X506402D02*
X505584Y86743D01*
X505039*
X509948Y79618D02*
X509675Y79243D01*
X509948Y78868*
X510220Y79243*
X510220D02*
X509948Y79618D01*
X513220Y86743D02*
X516220D01*
X516220D02*
X514584Y83743D01*
X515402*
X515402D02*
X515948Y83368D01*
X516220Y82993*
X516220D02*
X516493Y81868D01*
X516493D02*
Y81118D01*
X516493D02*
X516220Y79993D01*
X516220D02*
X515675Y79243D01*
X514857Y78868*
X514039*
X513220Y79243*
X513220D02*
X512948Y79618D01*
X512675Y80368*
X529504Y111209D02*
X533867Y108209D01*
X533867D02*
X529504Y104834D01*
X535504Y110459D02*
Y110834D01*
X535776Y111584*
X535776D02*
X536049Y111959D01*
X536594Y112334*
X536594D02*
X537685D01*
X537685D02*
X538231Y111959D01*
X538504Y111584*
X538776Y110834*
X538776D02*
Y110084D01*
X538776D02*
X538504Y109334D01*
X537958Y108209*
X537958D02*
X535231Y104459D01*
X539049*
X543140Y112334D02*
X542322Y111959D01*
X541776Y110834*
X541776D02*
X541504Y108959D01*
Y107834*
X541776Y105959*
X541776D02*
X542322Y104834D01*
X543140Y104459*
X543685*
X543685D02*
X544504Y104834D01*
X545049Y105959*
X545322Y107834*
Y108959*
X545049Y110834*
X544504Y111959*
X543685Y112334*
X543685D02*
X543140D01*
X549413D02*
X548594Y111959D01*
X548594D02*
X548049Y110834D01*
X547776Y108959*
X547776D02*
Y107834D01*
X547776D02*
X548049Y105959D01*
X548594Y104834*
X548594D02*
X549413Y104459D01*
X549958*
X549958D02*
X550776Y104834D01*
X550776D02*
X551322Y105959D01*
X551594Y107834*
X551594D02*
Y108959D01*
X551594D02*
X551322Y110834D01*
X550776Y111959*
X550776D02*
X549958Y112334D01*
X549958D02*
X549413D01*
X498434Y111209D02*
X494071Y108209D01*
X498434Y104834*
X500071Y110459D02*
Y110834D01*
X500343Y111584*
X500343D02*
X500616Y111959D01*
X501161Y112334*
X501161D02*
X502252D01*
X502252D02*
X502798Y111959D01*
X503071Y111584*
X503343Y110834*
X503343D02*
Y110084D01*
X503343D02*
X503071Y109334D01*
X502525Y108209*
X502525D02*
X499798Y104459D01*
X503616*
X507707Y112334D02*
X506889Y111959D01*
X506343Y110834*
X506343D02*
X506071Y108959D01*
Y107834*
X506343Y105959*
X506343D02*
X506889Y104834D01*
X507707Y104459*
X508252*
X508252D02*
X509071Y104834D01*
X509616Y105959*
X509889Y107834*
Y108959*
X509616Y110834*
X509071Y111959*
X508252Y112334*
X508252D02*
X507707D01*
X513980D02*
X513161Y111959D01*
X513161D02*
X512616Y110834D01*
X512343Y108959*
X512343D02*
Y107834D01*
X512343D02*
X512616Y105959D01*
X513161Y104834*
X513161D02*
X513980Y104459D01*
X514525*
X514525D02*
X515343Y104834D01*
X515343D02*
X515889Y105959D01*
X516161Y107834*
X516161D02*
Y108959D01*
X516161D02*
X515889Y110834D01*
X515343Y111959*
X515343D02*
X514525Y112334D01*
X514525D02*
X513980D01*
X494071Y103897D02*
X498980D01*
X498008Y124988D02*
X502371Y121988D01*
X502371D02*
X498008Y118613D01*
X507280Y126113D02*
X504553D01*
X504280Y122738*
X504280D02*
X504553Y123113D01*
X505371Y123488*
X505371D02*
X506189D01*
X506189D02*
X507008Y123113D01*
X507553Y122363*
X507826Y121238*
X507553Y120488*
X507280Y119363*
X507280D02*
X506735Y118613D01*
X505917Y118238*
X505098*
X505098D02*
X504280Y118613D01*
X504280D02*
X504008Y118988D01*
X503735Y119738*
X511917Y126113D02*
X511098Y125738D01*
X511098D02*
X510553Y124613D01*
X510280Y122738*
X510280D02*
Y121613D01*
X510280D02*
X510553Y119738D01*
X511098Y118613*
X511098D02*
X511917Y118238D01*
X512462*
X512462D02*
X513280Y118613D01*
X513280D02*
X513826Y119738D01*
X514098Y121613*
X514098D02*
Y122738D01*
X514098D02*
X513826Y124613D01*
X513280Y125738*
X513280D02*
X512462Y126113D01*
X512462D02*
X511917D01*
X462575Y124988D02*
X466938Y121988D01*
X466938D02*
X462575Y118613D01*
X468302Y124613D02*
X468847Y124988D01*
X468847D02*
X469665Y126113D01*
X469665D02*
Y118238D01*
X473756Y126113D02*
X472938Y125738D01*
X472938D02*
X472393Y124613D01*
X472120Y122738*
Y121613*
X472393Y119738*
X472938Y118613*
X472938D02*
X473756Y118238D01*
X473756D02*
X474302D01*
X475120Y118613*
X475665Y119738*
X475665D02*
X475938Y121613D01*
X475938D02*
Y122738D01*
X475938D02*
X475665Y124613D01*
X475665D02*
X475120Y125738D01*
X474302Y126113*
X473756*
X464969Y111209D02*
X460606Y108209D01*
X464969Y104834*
X469878Y112334D02*
X467151D01*
X466878Y108959*
X466878D02*
X467151Y109334D01*
X467969Y109709*
X467969D02*
X468787D01*
X468787D02*
X469606Y109334D01*
X470151Y108584*
X470424Y107459*
X470151Y106709*
X469878Y105584*
X469878D02*
X469333Y104834D01*
X468515Y104459*
X467696*
X467696D02*
X466878Y104834D01*
X466878D02*
X466606Y105209D01*
X466333Y105959*
X474515Y112334D02*
X473696Y111959D01*
X473696D02*
X473151Y110834D01*
X472878Y108959*
X472878D02*
Y107834D01*
X472878D02*
X473151Y105959D01*
X473696Y104834*
X473696D02*
X474515Y104459D01*
X475060*
X475060D02*
X475878Y104834D01*
X475878D02*
X476424Y105959D01*
X476696Y107834*
X476696D02*
Y108959D01*
X476696D02*
X476424Y110834D01*
X475878Y111959*
X475878D02*
X475060Y112334D01*
X475060D02*
X474515D01*
X460606Y103897D02*
X465515D01*
X463060Y54122D02*
Y47372D01*
X460606Y50747D02*
X465515D01*
X469606Y55247D02*
X468787Y54872D01*
X468787D02*
X468242Y53747D01*
X467969Y51872*
X467969D02*
Y50747D01*
X467969D02*
X468242Y48872D01*
X468787Y47747*
X468787D02*
X469606Y47372D01*
X470151*
X470969Y47747*
X470969D02*
X471515Y48872D01*
X471787Y50747*
X471787D02*
Y51872D01*
X471787D02*
X471515Y53747D01*
X470969Y54872*
X470969D02*
X470151Y55247D01*
X469606*
X474515Y48122D02*
X474242Y47747D01*
X474515Y47372*
X474787Y47747*
X474787D02*
X474515Y48122D01*
X477242Y53747D02*
X477787Y54122D01*
X477787D02*
X478606Y55247D01*
Y47372*
X460606Y44842D02*
X465515D01*
X458638Y76338D02*
X463547D01*
X461092Y85618D02*
Y78868D01*
X458638Y82243D02*
X463547D01*
X467638Y86743D02*
X466819Y86368D01*
X466819D02*
X466274Y85243D01*
X466001Y83368*
X466001D02*
Y82243D01*
X466001D02*
X466274Y80368D01*
X466819Y79243*
X466819D02*
X467638Y78868D01*
X468183*
X469001Y79243*
X469001D02*
X469547Y80368D01*
X469819Y82243*
X469819D02*
Y83368D01*
X469819D02*
X469547Y85243D01*
X469001Y86368*
X469001D02*
X468183Y86743D01*
X467638*
X472547Y79618D02*
X472274Y79243D01*
X472547Y78868*
X472819Y79243*
X472819D02*
X472547Y79618D01*
X475547Y84868D02*
Y85243D01*
X475819Y85993*
X475819D02*
X476092Y86368D01*
X476092D02*
X476638Y86743D01*
X477728*
X477728D02*
X478274Y86368D01*
X478547Y85993*
X478819Y85243*
X478819D02*
Y84493D01*
X478819D02*
X478547Y83743D01*
X478001Y82618*
X478001D02*
X475274Y78868D01*
X479092*
X427142Y44842D02*
X432051D01*
X429596Y85618D02*
Y78868D01*
X427142Y82243D02*
X432051D01*
X436142Y86743D02*
X435323Y86368D01*
X435323D02*
X434778Y85243D01*
X434505Y83368*
X434505D02*
Y82243D01*
X434505D02*
X434778Y80368D01*
X435323Y79243*
X435323D02*
X436142Y78868D01*
X436687*
X437505Y79243*
X437505D02*
X438051Y80368D01*
X438323Y82243*
X438323D02*
Y83368D01*
X438323D02*
X438051Y85243D01*
X437505Y86368*
X437505D02*
X436687Y86743D01*
X436142*
X441051Y79618D02*
X440778Y79243D01*
X441051Y78868*
X441323Y79243*
X441323D02*
X441051Y79618D01*
X443778Y85243D02*
X444323Y85618D01*
X444323D02*
X445142Y86743D01*
Y78868*
X433473Y111209D02*
X429110Y108209D01*
X433473Y104834*
X434837Y110834D02*
X435382Y111209D01*
X435382D02*
X436200Y112334D01*
X436200D02*
Y104459D01*
X440291Y112334D02*
X439473Y111959D01*
X439473D02*
X438928Y110834D01*
X438655Y108959*
Y107834*
X438928Y105959*
X439473Y104834*
X439473D02*
X440291Y104459D01*
X440291D02*
X440837D01*
X441655Y104834*
X442200Y105959*
X442200D02*
X442473Y107834D01*
X442473D02*
Y108959D01*
X442473D02*
X442200Y110834D01*
X442200D02*
X441655Y111959D01*
X440837Y112334*
X440291*
X429596Y54122D02*
Y47372D01*
X427142Y50747D02*
X432051D01*
X436142Y55247D02*
X435323Y54872D01*
X435323D02*
X434778Y53747D01*
X434505Y51872*
X434505D02*
Y50747D01*
X434505D02*
X434778Y48872D01*
X435323Y47747*
X435323D02*
X436142Y47372D01*
X436687*
X437505Y47747*
X437505D02*
X438051Y48872D01*
X438323Y50747*
X438323D02*
Y51872D01*
X438323D02*
X438051Y53747D01*
X437505Y54872*
X437505D02*
X436687Y55247D01*
X436142*
X441051Y48122D02*
X440778Y47747D01*
X441051Y47372*
X441323Y47747*
X441323D02*
X441051Y48122D01*
X447323Y55247D02*
X444596D01*
X444596D02*
X444323Y51872D01*
X444323D02*
X444596Y52247D01*
X444596D02*
X445414Y52622D01*
X445414D02*
X446232D01*
X446232D02*
X447051Y52247D01*
X447596Y51497*
X447596D02*
X447869Y50372D01*
X447596Y49622*
X447596D02*
X447323Y48497D01*
X447323D02*
X446778Y47747D01*
X445960Y47372*
X445142*
X444323Y47747*
X444323D02*
X444051Y48122D01*
X443778Y48872*
X427142Y76338D02*
X432051D01*
X429110Y103897D02*
X434019D01*
X436652Y126113D02*
X435834Y125738D01*
X435288Y124613*
X435288D02*
X435016Y122738D01*
Y121613*
X435288Y119738*
X435288D02*
X435834Y118613D01*
X436652Y118238*
X437197*
X437197D02*
X438016Y118613D01*
X438561Y119738*
X438834Y121613*
Y122738*
X438561Y124613*
X438016Y125738*
X437197Y126113*
X437197D02*
X436652D01*
X452732Y145798D02*
Y140173D01*
X453004Y139048*
X453004D02*
X453550Y138298D01*
X454368Y137923*
X454913*
X454913D02*
X455732Y138298D01*
X456277Y139048*
X456550Y140173*
Y145798*
X459004D02*
Y137923D01*
Y145798D02*
X462822Y137923D01*
Y145798D02*
Y137923D01*
X465277Y145798D02*
Y137923D01*
X469641Y145798D02*
Y137923D01*
X467732Y145798D02*
X471550D01*
X474004Y142423D02*
X478913D01*
X474004Y140173D02*
X478913D01*
X481368Y143173D02*
Y137923D01*
Y141673D02*
X482186Y142798D01*
X482186D02*
X482732Y143173D01*
X483550*
X484095Y142798*
X484095D02*
X484368Y141673D01*
Y137923*
Y141673D02*
X485186Y142798D01*
X485186D02*
X485732Y143173D01*
X486550*
X487095Y142798*
X487095D02*
X487368Y141673D01*
Y137923*
X489822Y143173D02*
Y137923D01*
Y141673D02*
X490641Y142798D01*
X491186Y143173*
X491186D02*
X492004D01*
X492004D02*
X492550Y142798D01*
X492822Y141673*
X492822D02*
Y137923D01*
Y141673D02*
X493641Y142798D01*
X494186Y143173*
X494186D02*
X495004D01*
X495004D02*
X495550Y142798D01*
X495822Y141673*
X495822D02*
Y137923D01*
X368299Y53279D02*
X366118Y45404D01*
X368299Y53279D02*
X370481Y45404D01*
X366936Y48029D02*
X369663D01*
X377027Y51404D02*
X376754Y52154D01*
X376208Y52904*
X376208D02*
X375663Y53279D01*
X374572*
X374572D02*
X374027Y52904D01*
X373481Y52154*
X373481D02*
X373208Y51404D01*
X373208D02*
X372936Y50279D01*
Y48404*
X373208Y47279*
X373208D02*
X373481Y46529D01*
X373481D02*
X374027Y45779D01*
X374572Y45404*
X374572D02*
X375663D01*
X376208Y45779*
X376208D02*
X376754Y46529D01*
X377027Y47279*
X383572Y51404D02*
X383299Y52154D01*
X383299D02*
X382754Y52904D01*
X382208Y53279*
X382208D02*
X381118D01*
X380572Y52904*
X380572D02*
X380027Y52154D01*
X379754Y51404*
X379481Y50279*
X379481D02*
Y48404D01*
X379481D02*
X379754Y47279D01*
X380027Y46529*
X380572Y45779*
X380572D02*
X381118Y45404D01*
X382208*
X382208D02*
X382754Y45779D01*
X383299Y46529*
X383299D02*
X383572Y47279D01*
X386027Y53279D02*
Y47654D01*
X386299Y46529*
X386299D02*
X386845Y45779D01*
X387663Y45404*
X388208*
X388208D02*
X389027Y45779D01*
X389572Y46529*
X389572D02*
X389845Y47654D01*
Y53279*
X392299D02*
Y45404D01*
Y53279D02*
X394754D01*
X395572Y52904*
X395572D02*
X395845Y52529D01*
X396118Y51779*
Y51029*
X395845Y50279*
X395572Y49904*
X395572D02*
X394754Y49529D01*
X392299*
X394208D02*
X396118Y45404D01*
X400754Y53279D02*
X398572Y45404D01*
X400754Y53279D02*
X402936Y45404D01*
X399390Y48029D02*
X402118D01*
X407299Y53279D02*
Y45404D01*
X405390Y53279D02*
X409208D01*
X411663D02*
Y45404D01*
Y53279D02*
X415208D01*
X411663Y49529D02*
X413845D01*
X411663Y45404D02*
X415208D01*
X372024Y86743D02*
Y78868D01*
Y86743D02*
X374205Y78868D01*
X376387Y86743D02*
X374205Y78868D01*
X376387Y86743D02*
Y78868D01*
X378842Y86743D02*
Y78868D01*
X381296Y86743D02*
Y78868D01*
Y86743D02*
X383205D01*
X383205D02*
X384024Y86368D01*
X384569Y85618*
X384842Y84868*
X385114Y83743*
X385114D02*
Y81868D01*
X385114D02*
X384842Y80743D01*
X384569Y79993*
X384024Y79243*
X383205Y78868*
X383205D02*
X381296D01*
X387569Y86743D02*
Y78868D01*
Y86743D02*
X389478D01*
X389478D02*
X390296Y86368D01*
X390296D02*
X390842Y85618D01*
X391114Y84868*
X391114D02*
X391387Y83743D01*
X391387D02*
Y81868D01*
X391387D02*
X391114Y80743D01*
X391114D02*
X390842Y79993D01*
X390296Y79243*
X390296D02*
X389478Y78868D01*
X389478D02*
X387569D01*
X393842Y86743D02*
Y78868D01*
X397114*
X399569Y86743D02*
Y78868D01*
Y86743D02*
X403114D01*
X399569Y82993D02*
X401751D01*
X399569Y78868D02*
X403114D01*
X370055Y118239D02*
Y110364D01*
X373327*
X375782Y118239D02*
Y110364D01*
X378236Y118239D02*
Y110364D01*
Y118239D02*
X382055Y110364D01*
Y118239D02*
Y110364D01*
X384509Y118239D02*
Y110364D01*
Y118239D02*
X388055D01*
X384509Y114489D02*
X386691D01*
X384509Y110364D02*
X388055D01*
X392691Y118239D02*
X390509Y110364D01*
X392691Y118239D02*
X394873Y110364D01*
X391327Y112989D02*
X394055D01*
X397327Y118239D02*
Y110364D01*
Y118239D02*
X399782D01*
X400600Y117864*
X400873Y117489*
X401145Y116739*
X401145D02*
Y115989D01*
X401145D02*
X400873Y115239D01*
X400600Y114864*
X399782Y114489*
X397327*
X399236D02*
X401145Y110364D01*
X411334Y161546D02*
Y153671D01*
X409425Y161546D02*
X413243D01*
X417334D02*
X416788Y161171D01*
X416788D02*
X416243Y160421D01*
X415970Y159671*
X415697Y158546*
X415697D02*
Y156671D01*
X415697D02*
X415970Y155546D01*
X416243Y154796*
X416788Y154046*
X416788D02*
X417334Y153671D01*
X418425*
X418970Y154046*
X419515Y154796*
X419515D02*
X419788Y155546D01*
X419788D02*
X420061Y156671D01*
Y158546*
X419788Y159671*
X419788D02*
X419515Y160421D01*
X419515D02*
X418970Y161171D01*
X418425Y161546*
X417334*
X422515D02*
Y153671D01*
X422515D02*
X425788D01*
X428243Y161546D02*
Y153671D01*
Y161546D02*
X431788D01*
X428243Y157796D02*
X430425D01*
X428243Y153671D02*
X431788D01*
X434243Y161546D02*
Y153671D01*
Y161546D02*
X436697D01*
X436697D02*
X437515Y161171D01*
X437515D02*
X437788Y160796D01*
X437788D02*
X438061Y160046D01*
Y159296*
X437788Y158546*
X437788D02*
X437515Y158171D01*
X437515D02*
X436697Y157796D01*
X436697D02*
X434243D01*
X436152D02*
X438061Y153671D01*
X442697Y161546D02*
X440515Y153671D01*
X442697Y161546D02*
X444879Y153671D01*
X441334Y156296D02*
X444061D01*
X447334Y161546D02*
Y153671D01*
Y161546D02*
X451152Y153671D01*
Y161546D02*
Y153671D01*
X457697Y159671D02*
X457425Y160421D01*
X456879Y161171*
X456879D02*
X456334Y161546D01*
X455243*
X454697Y161171*
X454697D02*
X454152Y160421D01*
X453879Y159671*
X453879D02*
X453606Y158546D01*
X453606D02*
Y156671D01*
X453606D02*
X453879Y155546D01*
X453879D02*
X454152Y154796D01*
X454697Y154046*
X454697D02*
X455243Y153671D01*
X456334*
X456879Y154046*
X456879D02*
X457425Y154796D01*
X457697Y155546*
X460152Y161546D02*
Y153671D01*
Y161546D02*
X463697D01*
X460152Y157796D02*
X462334D01*
X460152Y153671D02*
X463697D01*
X471061Y161546D02*
Y155921D01*
X471334Y154796*
X471879Y154046*
X471879D02*
X472697Y153671D01*
X472697D02*
X473243D01*
X474061Y154046*
X474606Y154796*
X474606D02*
X474879Y155921D01*
X474879D02*
Y161546D01*
X477334D02*
Y153671D01*
Y161546D02*
X481152Y153671D01*
Y161546D02*
Y153671D01*
X483606Y161546D02*
Y153671D01*
X483606D02*
X486879D01*
X489334Y161546D02*
Y153671D01*
Y161546D02*
X492879D01*
X489334Y157796D02*
X491515D01*
X489334Y153671D02*
X492879D01*
X499152Y160421D02*
X498606Y161171D01*
X498606D02*
X497788Y161546D01*
X497788D02*
X496697D01*
X496697D02*
X495879Y161171D01*
X495879D02*
X495334Y160421D01*
Y159671*
X495606Y158921*
X495606D02*
X495879Y158546D01*
X495879D02*
X496425Y158171D01*
X498061Y157421*
X498606Y157046*
X498606D02*
X498879Y156671D01*
X498879D02*
X499152Y155921D01*
Y154796*
X498606Y154046*
X498606D02*
X497788Y153671D01*
X497788D02*
X496697D01*
X496697D02*
X495879Y154046D01*
X495879D02*
X495334Y154796D01*
X505425Y160421D02*
X504879Y161171D01*
X504879D02*
X504061Y161546D01*
X502970*
X502152Y161171*
X501606Y160421*
X501606D02*
Y159671D01*
X501606D02*
X501879Y158921D01*
X501879D02*
X502152Y158546D01*
X502697Y158171*
X502697D02*
X504334Y157421D01*
X504879Y157046*
X504879D02*
X505152Y156671D01*
X505425Y155921*
Y154796*
X504879Y154046*
X504879D02*
X504061Y153671D01*
X502970*
X502152Y154046*
X501606Y154796*
X512788Y161546D02*
Y153671D01*
Y161546D02*
X516606Y153671D01*
Y161546D02*
Y153671D01*
X520697Y161546D02*
X520152Y161171D01*
X519606Y160421*
X519606D02*
X519334Y159671D01*
X519061Y158546*
Y156671*
X519334Y155546*
X519606Y154796*
X519606D02*
X520152Y154046D01*
X520697Y153671*
X520697D02*
X521788D01*
X521788D02*
X522334Y154046D01*
X522879Y154796*
X522879D02*
X523152Y155546D01*
X523425Y156671*
Y158546*
X523152Y159671*
X522879Y160421*
X522879D02*
X522334Y161171D01*
X521788Y161546*
X521788D02*
X520697D01*
X527788D02*
Y153671D01*
X525879Y161546D02*
X529697D01*
X532152D02*
Y153671D01*
Y161546D02*
X535697D01*
X532152Y157796D02*
X534334D01*
X532152Y153671D02*
X535697D01*
X538152Y161546D02*
Y153671D01*
Y161546D02*
X540061D01*
X540879Y161171*
X540879D02*
X541425Y160421D01*
X541697Y159671*
X541697D02*
X541970Y158546D01*
Y156671*
X541697Y155546*
X541697D02*
X541425Y154796D01*
X540879Y154046*
X540879D02*
X540061Y153671D01*
X538152*
X356276Y230444D02*
Y222569D01*
Y230444D02*
X358185D01*
X359003Y230069*
X359548Y229319*
X359548D02*
X359821Y228569D01*
X360094Y227444*
Y225569*
X359821Y224444*
X359548Y223694*
X359548D02*
X359003Y222944D01*
X358185Y222569*
X356276*
X362548Y230444D02*
Y222569D01*
Y230444D02*
X366094D01*
X362548Y226694D02*
X364730D01*
X362548Y222569D02*
X366094D01*
X372366Y229319D02*
X371821Y230069D01*
X371003Y230444*
X369912*
X369094Y230069*
X368548Y229319*
X368548D02*
Y228569D01*
X368548D02*
X368821Y227819D01*
X369094Y227444*
X369639Y227069*
X369639D02*
X371276Y226319D01*
X371821Y225944*
X372094Y225569*
X372366Y224819*
X372366D02*
Y223694D01*
X372366D02*
X371821Y222944D01*
X371003Y222569*
X369912*
X369094Y222944*
X368548Y223694*
X378912Y228569D02*
X378639Y229319D01*
X378639D02*
X378094Y230069D01*
X377548Y230444*
X377548D02*
X376457D01*
X376457D02*
X375912Y230069D01*
X375366Y229319*
X375366D02*
X375094Y228569D01*
X374821Y227444*
Y225569*
X375094Y224444*
X375366Y223694*
X375366D02*
X375912Y222944D01*
X376457Y222569*
X376457D02*
X377548D01*
X377548D02*
X378094Y222944D01*
X378639Y223694*
X378639D02*
X378912Y224444D01*
X381366Y230444D02*
Y222569D01*
Y230444D02*
X383821D01*
X384639Y230069*
X384639D02*
X384912Y229694D01*
X385185Y228944*
Y228194*
X384912Y227444*
X384639Y227069*
X384639D02*
X383821Y226694D01*
X381366*
X383276D02*
X385185Y222569D01*
X387639Y230444D02*
Y222569D01*
X390094Y230444D02*
Y222569D01*
Y230444D02*
X392548D01*
X392548D02*
X393366Y230069D01*
X393366D02*
X393639Y229694D01*
X393639D02*
X393912Y228944D01*
Y227819*
X393639Y227069*
X393639D02*
X393366Y226694D01*
X393366D02*
X392548Y226319D01*
X392548D02*
X390094D01*
X398276Y230444D02*
Y222569D01*
X396366Y230444D02*
X400185D01*
X402639D02*
Y222569D01*
X406730Y230444D02*
X406185Y230069D01*
X405639Y229319*
X405639D02*
X405366Y228569D01*
X405366D02*
X405094Y227444D01*
Y225569*
X405366Y224444*
X405366D02*
X405639Y223694D01*
X405639D02*
X406185Y222944D01*
X406730Y222569*
X406730D02*
X407821D01*
X408366Y222944*
X408366D02*
X408912Y223694D01*
X409185Y224444*
X409457Y225569*
X409457D02*
Y227444D01*
X409457D02*
X409185Y228569D01*
X408912Y229319*
X408366Y230069*
X408366D02*
X407821Y230444D01*
X406730*
X411912D02*
Y222569D01*
Y230444D02*
X415730Y222569D01*
Y230444D02*
Y222569D01*
G54D16*
X284340Y82087D02*
X283317Y81619D01*
X283317D02*
X282635Y80212D01*
X282635D02*
X282295Y77869D01*
Y76462*
X282295D02*
X282635Y74119D01*
X282635D02*
X283317Y72712D01*
X283317D02*
X284340Y72244D01*
X285022*
X286045Y72712*
X286045D02*
X286726Y74119D01*
X286726D02*
X287067Y76462D01*
X287067D02*
Y77869D01*
X287067D02*
X286726Y80212D01*
X286726D02*
X286045Y81619D01*
X285022Y82087*
X285022D02*
X284340D01*
X293545D02*
X290135Y75525D01*
X290135D02*
X295249D01*
X293545Y82087D02*
Y72244D01*
X298658Y73181D02*
X298317Y72712D01*
X298317D02*
X298658Y72244D01*
X298658D02*
X298999Y72712D01*
X298999D02*
X298658Y73181D01*
X302067Y80212D02*
X302749Y80681D01*
X302749D02*
X303772Y82087D01*
X303772D02*
Y72244D01*
X308885Y82087D02*
X307863Y81619D01*
X307181Y80212*
X307181D02*
X306840Y77869D01*
Y76462*
X306840D02*
X307181Y74119D01*
X307863Y72712*
X307863D02*
X308885Y72244D01*
X308885D02*
X309567D01*
X309567D02*
X310590Y72712D01*
X310590D02*
X311272Y74119D01*
X311613Y76462*
X311613D02*
Y77869D01*
X311272Y80212*
X311272D02*
X310590Y81619D01*
X309567Y82087*
X309567D02*
X308885D01*
X315022Y73181D02*
X314681Y72712D01*
X314681D02*
X315022Y72244D01*
X315363Y72712*
X315363D02*
X315022Y73181D01*
X320476Y82087D02*
X319454Y81619D01*
X318772Y80212*
X318772D02*
X318431Y77869D01*
Y76462*
X318431D02*
X318772Y74119D01*
X319454Y72712*
X319454D02*
X320476Y72244D01*
X320476D02*
X321158D01*
X321158D02*
X322181Y72712D01*
X322181D02*
X322863Y74119D01*
X323204Y76462*
X323204D02*
Y77869D01*
X322863Y80212*
X322863D02*
X322181Y81619D01*
X321158Y82087*
X321158D02*
X320476D01*
X328317D02*
X327295Y81619D01*
X326613Y80212*
X326613D02*
X326272Y77869D01*
Y76462*
X326272D02*
X326613Y74119D01*
X327295Y72712*
X327295D02*
X328317Y72244D01*
X328317D02*
X328999D01*
X328999D02*
X330022Y72712D01*
X330022D02*
X330704Y74119D01*
X331045Y76462*
X331045D02*
Y77869D01*
X330704Y80212*
X330704D02*
X330022Y81619D01*
X328999Y82087*
X328999D02*
X328317D01*
X407295Y213987D02*
Y204144D01*
X411385*
X418545Y212581D02*
X418204Y213519D01*
X417181Y213987*
X417181D02*
X416499D01*
X416499D02*
X415476Y213519D01*
X415476D02*
X414795Y212112D01*
X414795D02*
X414454Y209769D01*
Y207425*
X414795Y205550*
X415476Y204612*
X415476D02*
X416499Y204144D01*
X416499D02*
X416840D01*
X417863Y204612*
X417863D02*
X418545Y205550D01*
X418885Y206956*
X418885D02*
Y207425D01*
X418885D02*
X418545Y208831D01*
X418545D02*
X417863Y209769D01*
X416840Y210237*
X416840D02*
X416499D01*
X416499D02*
X415476Y209769D01*
X415476D02*
X414795Y208831D01*
X414795D02*
X414454Y207425D01*
X422295Y211644D02*
Y212112D01*
X422295D02*
X422635Y213050D01*
X422635D02*
X422976Y213519D01*
X422976D02*
X423658Y213987D01*
X423658D02*
X425022D01*
X425022D02*
X425704Y213519D01*
X426045Y213050*
X426385Y212112*
X426385D02*
Y211175D01*
X426385D02*
X426045Y210237D01*
X426045D02*
X425363Y208831D01*
X425363D02*
X421954Y204144D01*
X426726*
X431840Y213987D02*
X430817Y213519D01*
X430817D02*
X430135Y212112D01*
X430135D02*
X429795Y209769D01*
Y208362*
X429795D02*
X430135Y206019D01*
X430135D02*
X430817Y204612D01*
X430817D02*
X431840Y204144D01*
X432522*
X433545Y204612*
X433545D02*
X434226Y206019D01*
X434226D02*
X434567Y208362D01*
X434567D02*
Y209769D01*
X434567D02*
X434226Y212112D01*
X434226D02*
X433545Y213519D01*
X432522Y213987*
X432522D02*
X431840D01*
X441726Y212581D02*
X441385Y213519D01*
X441385D02*
X440363Y213987D01*
X440363D02*
X439681D01*
X439681D02*
X438658Y213519D01*
X438658D02*
X437976Y212112D01*
X437976D02*
X437635Y209769D01*
X437635D02*
Y207425D01*
X437635D02*
X437976Y205550D01*
X437976D02*
X438658Y204612D01*
X438658D02*
X439681Y204144D01*
X440022*
X441045Y204612*
X441045D02*
X441726Y205550D01*
X441726D02*
X442067Y206956D01*
X442067D02*
Y207425D01*
X442067D02*
X441726Y208831D01*
X441726D02*
X441045Y209769D01*
X440022Y210237*
X440022D02*
X439681D01*
X439681D02*
X438658Y209769D01*
X438658D02*
X437976Y208831D01*
X437976D02*
X437635Y207425D01*
X457408Y213987D02*
Y204144D01*
Y213987D02*
X461840D01*
X457408Y209300D02*
X460135D01*
X457408Y204144D02*
X461840D01*
X464908Y213987D02*
X467635Y204144D01*
X470363Y213987D02*
X467635Y204144D01*
X476158Y213987D02*
X473431Y204144D01*
X476158Y213987D02*
X478885Y204144D01*
X474454Y207425D02*
X477863D01*
X481954Y213987D02*
Y204144D01*
X486045*
X489113Y213987D02*
Y206956D01*
X489113D02*
X489454Y205550D01*
X490135Y204612*
X490135D02*
X491158Y204144D01*
X491158D02*
X491840D01*
X492863Y204612*
X492863D02*
X493545Y205550D01*
X493885Y206956*
X493885D02*
Y213987D01*
X499681D02*
X496954Y204144D01*
X499681Y213987D02*
X502408Y204144D01*
X497976Y207425D02*
X501385D01*
X507863Y213987D02*
Y204144D01*
X505476Y213987D02*
X510249D01*
X513317D02*
Y204144D01*
X518431Y213987D02*
X517749Y213519D01*
X517749D02*
X517067Y212581D01*
X517067D02*
X516726Y211644D01*
X516726D02*
X516385Y210237D01*
X516385D02*
Y207894D01*
X516385D02*
X516726Y206487D01*
X516726D02*
X517067Y205550D01*
X517067D02*
X517749Y204612D01*
X517749D02*
X518431Y204144D01*
X519795*
X520476Y204612*
X520476D02*
X521158Y205550D01*
X521158D02*
X521499Y206487D01*
X521499D02*
X521840Y207894D01*
Y210237*
X521840D02*
X521499Y211644D01*
X521499D02*
X521158Y212581D01*
X521158D02*
X520476Y213519D01*
X520476D02*
X519795Y213987D01*
X519795D02*
X518431D01*
X524908D02*
Y204144D01*
Y213987D02*
X529681Y204144D01*
Y213987D02*
Y204144D01*
X538885Y213987D02*
Y204144D01*
Y213987D02*
X541954D01*
X541954D02*
X542976Y213519D01*
X542976D02*
X543317Y213050D01*
X543317D02*
X543658Y212112D01*
X543658D02*
Y211175D01*
X543658D02*
X543317Y210237D01*
X543317D02*
X542976Y209769D01*
X542976D02*
X541954Y209300D01*
X538885D02*
X541954D01*
X542976Y208831*
X542976D02*
X543317Y208362D01*
X543317D02*
X543658Y207425D01*
X543658D02*
Y206019D01*
X543658D02*
X543317Y205081D01*
X543317D02*
X542976Y204612D01*
X542976D02*
X541954Y204144D01*
X538885*
X548772Y213987D02*
X548090Y213519D01*
X547408Y212581*
X547408D02*
X547067Y211644D01*
X547067D02*
X546726Y210237D01*
X546726D02*
Y207894D01*
X546726D02*
X547067Y206487D01*
X547067D02*
X547408Y205550D01*
X547408D02*
X548090Y204612D01*
X548090D02*
X548772Y204144D01*
X550135*
X550135D02*
X550817Y204612D01*
X550817D02*
X551499Y205550D01*
X551499D02*
X551840Y206487D01*
X551840D02*
X552181Y207894D01*
Y210237*
X552181D02*
X551840Y211644D01*
X551499Y212581*
X551499D02*
X550817Y213519D01*
X550817D02*
X550135Y213987D01*
X550135D02*
X548772D01*
X557976D02*
X555249Y204144D01*
X557976Y213987D02*
X560704Y204144D01*
X556272Y207425D02*
X559681D01*
X563772Y213987D02*
Y204144D01*
Y213987D02*
X566840D01*
X566840D02*
X567863Y213519D01*
X568204Y213050*
X568545Y212112*
X568545D02*
Y211175D01*
X568204Y210237*
X568204D02*
X567863Y209769D01*
X566840Y209300*
X563772*
X566158D02*
X568545Y204144D01*
X571613Y213987D02*
Y204144D01*
Y213987D02*
X573999D01*
X573999D02*
X575022Y213519D01*
X575704Y212581*
X575704D02*
X576045Y211644D01*
X576385Y210237*
X576385D02*
Y207894D01*
X576385D02*
X576045Y206487D01*
X576045D02*
X575704Y205550D01*
X575022Y204612*
X575022D02*
X573999Y204144D01*
X573999D02*
X571613D01*
X579454Y208362D02*
X585590D01*
X593431Y212581D02*
X592749Y213519D01*
X592749D02*
X591726Y213987D01*
X591726D02*
X590363D01*
X590363D02*
X589340Y213519D01*
X588658Y212581*
X588658D02*
Y211644D01*
X588658D02*
X588999Y210706D01*
X588999D02*
X589340Y210237D01*
X589340D02*
X590022Y209769D01*
X592067Y208831*
X592067D02*
X592749Y208362D01*
X592749D02*
X593090Y207894D01*
X593431Y206956*
X593431D02*
Y205550D01*
X592749Y204612*
X592749D02*
X591726Y204144D01*
X591726D02*
X590363D01*
X589340Y204612*
X589340D02*
X588658Y205550D01*
X596499Y213987D02*
Y204144D01*
Y213987D02*
X599226Y204144D01*
X601954Y213987D02*
X599226Y204144D01*
X601954Y213987D02*
Y204144D01*
X605022Y213987D02*
Y204144D01*
Y213987D02*
X607408D01*
X607408D02*
X608431Y213519D01*
X609113Y212581*
X609113D02*
X609454Y211644D01*
X609795Y210237*
X609795D02*
Y207894D01*
X609454Y206487*
X609454D02*
X609113Y205550D01*
X608431Y204612*
X608431D02*
X607408Y204144D01*
X607408D02*
X605022D01*
X424567Y188181D02*
X423885Y189119D01*
X423885D02*
X422863Y189587D01*
X422863D02*
X421499D01*
X421499D02*
X420476Y189119D01*
X420476D02*
X419795Y188181D01*
X419795D02*
Y187244D01*
X420135Y186306*
X420135D02*
X420476Y185837D01*
X420476D02*
X421158Y185369D01*
X421158D02*
X423204Y184431D01*
X423204D02*
X423885Y183962D01*
X423885D02*
X424226Y183494D01*
X424226D02*
X424567Y182556D01*
X424567D02*
Y181150D01*
X424567D02*
X423885Y180212D01*
X423885D02*
X422863Y179744D01*
X421499*
X421499D02*
X420476Y180212D01*
X420476D02*
X419795Y181150D01*
X429681Y189587D02*
X428999Y189119D01*
X428999D02*
X428317Y188181D01*
X428317D02*
X427976Y187244D01*
X427976D02*
X427635Y185837D01*
X427635D02*
Y183494D01*
X427635D02*
X427976Y182087D01*
X427976D02*
X428317Y181150D01*
X428317D02*
X428999Y180212D01*
X428999D02*
X429681Y179744D01*
X431045*
X431726Y180212*
X431726D02*
X432408Y181150D01*
X432408D02*
X432749Y182087D01*
X432749D02*
X433090Y183494D01*
Y185837*
X433090D02*
X432749Y187244D01*
X432749D02*
X432408Y188181D01*
X432408D02*
X431726Y189119D01*
X431726D02*
X431045Y189587D01*
X431045D02*
X429681D01*
X436158D02*
Y179744D01*
X436158D02*
X440249D01*
X443317Y189587D02*
Y179744D01*
Y189587D02*
X445704D01*
X445704D02*
X446726Y189119D01*
X446726D02*
X447408Y188181D01*
X447408D02*
X447749Y187244D01*
X447749D02*
X448090Y185837D01*
X448090D02*
Y183494D01*
X447749Y182087*
X447749D02*
X447408Y181150D01*
X447408D02*
X446726Y180212D01*
X446726D02*
X445704Y179744D01*
X443317*
X451158Y189587D02*
Y179744D01*
Y189587D02*
X455590D01*
X451158Y184900D02*
X453885D01*
X451158Y179744D02*
X455590D01*
X458658Y189587D02*
Y179744D01*
Y189587D02*
X461726D01*
X461726D02*
X462749Y189119D01*
X462749D02*
X463090Y188650D01*
X463431Y187712*
X463431D02*
Y186775D01*
X463090Y185837*
X463090D02*
X462749Y185369D01*
X462749D02*
X461726Y184900D01*
X461726D02*
X458658D01*
X461045D02*
X463431Y179744D01*
X466499Y183962D02*
X472635D01*
X475704Y189587D02*
Y179744D01*
Y189587D02*
X478431Y179744D01*
X481158Y189587D02*
X478431Y179744D01*
X481158Y189587D02*
Y179744D01*
X486954Y189587D02*
X484226Y179744D01*
X486954Y189587D02*
X489681Y179744D01*
X485249Y183025D02*
X488658D01*
X497522Y188181D02*
X496840Y189119D01*
X495817Y189587*
X495817D02*
X494454D01*
X494454D02*
X493431Y189119D01*
X492749Y188181*
X492749D02*
Y187244D01*
X492749D02*
X493090Y186306D01*
X493090D02*
X493431Y185837D01*
X493431D02*
X494113Y185369D01*
X496158Y184431*
X496158D02*
X496840Y183962D01*
X496840D02*
X497181Y183494D01*
X497522Y182556*
X497522D02*
Y181150D01*
X496840Y180212*
X496840D02*
X495817Y179744D01*
X495817D02*
X494454D01*
X493431Y180212*
X493431D02*
X492749Y181150D01*
X500590Y189587D02*
Y179744D01*
X505363Y189587D02*
X500590Y183025D01*
X502295Y185369D02*
X505363Y179744D01*
X514567Y189587D02*
Y179744D01*
Y189587D02*
X517635D01*
X517635D02*
X518658Y189119D01*
X518658D02*
X518999Y188650D01*
X518999D02*
X519340Y187712D01*
X519340D02*
Y186775D01*
X518999Y185837*
X518999D02*
X518658Y185369D01*
X518658D02*
X517635Y184900D01*
X514567D02*
X517635D01*
X517635D02*
X518658Y184431D01*
X518658D02*
X518999Y183962D01*
X518999D02*
X519340Y183025D01*
Y181619*
X518999Y180681*
X518999D02*
X518658Y180212D01*
X518658D02*
X517635Y179744D01*
X517635D02*
X514567D01*
X524454Y189587D02*
X523772Y189119D01*
X523090Y188181*
X523090D02*
X522749Y187244D01*
X522749D02*
X522408Y185837D01*
X522408D02*
Y183494D01*
X522408D02*
X522749Y182087D01*
X522749D02*
X523090Y181150D01*
X523772Y180212*
X523772D02*
X524454Y179744D01*
X525817*
X525817D02*
X526499Y180212D01*
X526499D02*
X527181Y181150D01*
X527522Y182087*
X527522D02*
X527863Y183494D01*
Y185837*
X527863D02*
X527522Y187244D01*
X527181Y188181*
X527181D02*
X526499Y189119D01*
X526499D02*
X525817Y189587D01*
X525817D02*
X524454D01*
X533317D02*
Y179744D01*
X530931Y189587D02*
X535704D01*
X549681Y188181D02*
X548999Y189119D01*
X548999D02*
X547976Y189587D01*
X547976D02*
X546613D01*
X546613D02*
X545590Y189119D01*
X544908Y188181*
X544908D02*
Y187244D01*
X544908D02*
X545249Y186306D01*
X545249D02*
X545590Y185837D01*
X545590D02*
X546272Y185369D01*
X548317Y184431*
X548317D02*
X548999Y183962D01*
X548999D02*
X549340Y183494D01*
X549681Y182556*
X549681D02*
Y181150D01*
X548999Y180212*
X548999D02*
X547976Y179744D01*
X547976D02*
X546613D01*
X545590Y180212*
X545590D02*
X544908Y181150D01*
X552749Y189587D02*
Y179744D01*
X555817Y189587D02*
Y179744D01*
Y189587D02*
X558204D01*
X558204D02*
X559226Y189119D01*
X559226D02*
X559908Y188181D01*
X559908D02*
X560249Y187244D01*
X560249D02*
X560590Y185837D01*
X560590D02*
Y183494D01*
X560249Y182087*
X560249D02*
X559908Y181150D01*
X559908D02*
X559226Y180212D01*
X559226D02*
X558204Y179744D01*
X555817*
X563658Y189587D02*
Y179744D01*
Y189587D02*
X568090D01*
X563658Y184900D02*
X566385D01*
X563658Y179744D02*
X568090D01*
X141795Y82144D02*
Y71644D01*
X145067Y82144D02*
Y71644D01*
Y82144D02*
X149795D01*
X145067Y77144D02*
X147976D01*
X155976Y82144D02*
X153067Y71644D01*
X155976Y82144D02*
X158885Y71644D01*
X154158Y75144D02*
X157795D01*
X162158Y82144D02*
Y71644D01*
Y82144D02*
X165431D01*
X166522Y81644*
X166885Y81144*
X166885D02*
X167249Y80144D01*
X167249D02*
Y79144D01*
X167249D02*
X166885Y78144D01*
X166885D02*
X166522Y77644D01*
X165431Y77144*
X162158*
X164704D02*
X167249Y71644D01*
X175976Y79644D02*
X175613Y80644D01*
X174885Y81644*
X174885D02*
X174158Y82144D01*
X174158D02*
X172704D01*
X171976Y81644*
X171976D02*
X171249Y80644D01*
X171249D02*
X170885Y79644D01*
X170885D02*
X170522Y78144D01*
Y75644*
X170885Y74144*
X170885D02*
X171249Y73144D01*
X171249D02*
X171976Y72144D01*
X171976D02*
X172704Y71644D01*
X174158*
X174158D02*
X174885Y72144D01*
X174885D02*
X175613Y73144D01*
X175976Y74144*
X182158Y82144D02*
X179249Y71644D01*
X182158Y82144D02*
X185067Y71644D01*
X180340Y75144D02*
X183976D01*
X188340Y82144D02*
Y71644D01*
Y82144D02*
X190885D01*
X190885D02*
X191976Y81644D01*
X191976D02*
X192704Y80644D01*
X193067Y79644*
X193067D02*
X193431Y78144D01*
Y75644*
X193067Y74144*
X193067D02*
X192704Y73144D01*
X191976Y72144*
X191976D02*
X190885Y71644D01*
X190885D02*
X188340D01*
X208340Y80644D02*
X207613Y81644D01*
X206522Y82144*
X205067*
X205067D02*
X203976Y81644D01*
X203976D02*
X203249Y80644D01*
X203249D02*
Y79644D01*
X203249D02*
X203613Y78644D01*
X203976Y78144*
X203976D02*
X204704Y77644D01*
X206885Y76644*
X206885D02*
X207613Y76144D01*
X207976Y75644*
X207976D02*
X208340Y74644D01*
Y73144*
X207613Y72144*
X206522Y71644*
X205067*
X205067D02*
X203976Y72144D01*
X203976D02*
X203249Y73144D01*
X214522Y82144D02*
X211613Y71644D01*
X214522Y82144D02*
X217431Y71644D01*
X212704Y75144D02*
X216340D01*
X225795Y80644D02*
X225067Y81644D01*
X225067D02*
X223976Y82144D01*
X223976D02*
X222522D01*
X221431Y81644*
X220704Y80644*
Y79644*
X221067Y78644*
X221067D02*
X221431Y78144D01*
X222158Y77644*
X222158D02*
X224340Y76644D01*
X225067Y76144*
X225067D02*
X225431Y75644D01*
X225795Y74644*
Y73144*
X225067Y72144*
X225067D02*
X223976Y71644D01*
X223976D02*
X222522D01*
X221431Y72144*
X220704Y73144*
X129295Y251487D02*
Y241644D01*
Y251487D02*
X132363D01*
X132363D02*
X133385Y251019D01*
X133385D02*
X133726Y250550D01*
X133726D02*
X134067Y249612D01*
X134067D02*
Y248675D01*
X134067D02*
X133726Y247737D01*
X133726D02*
X133385Y247269D01*
X133385D02*
X132363Y246800D01*
X129295*
X131681D02*
X134067Y241644D01*
X137135Y251487D02*
Y241644D01*
Y251487D02*
X141567D01*
X137135Y246800D02*
X139863D01*
X137135Y241644D02*
X141567D01*
X144635Y251487D02*
X147363Y241644D01*
X150090Y251487D02*
X147363Y241644D01*
X153158Y251487D02*
Y241644D01*
X160999Y250081D02*
X160317Y251019D01*
X160317D02*
X159295Y251487D01*
X159295D02*
X157931D01*
X157931D02*
X156908Y251019D01*
X156908D02*
X156226Y250081D01*
X156226D02*
Y249144D01*
X156226D02*
X156567Y248206D01*
X156567D02*
X156908Y247737D01*
X156908D02*
X157590Y247269D01*
X159635Y246331*
X159635D02*
X160317Y245862D01*
X160317D02*
X160658Y245394D01*
X160658D02*
X160999Y244456D01*
X160999D02*
Y243050D01*
X160999D02*
X160317Y242112D01*
X160317D02*
X159295Y241644D01*
X157931*
X156908Y242112*
X156908D02*
X156226Y243050D01*
X164067Y251487D02*
Y241644D01*
X169181Y251487D02*
X168499Y251019D01*
X168499D02*
X167817Y250081D01*
X167817D02*
X167476Y249144D01*
X167476D02*
X167135Y247737D01*
X167135D02*
Y245394D01*
X167135D02*
X167476Y243987D01*
X167476D02*
X167817Y243050D01*
X167817D02*
X168499Y242112D01*
X168499D02*
X169181Y241644D01*
X170545*
X171226Y242112*
X171226D02*
X171908Y243050D01*
X171908D02*
X172249Y243987D01*
X172249D02*
X172590Y245394D01*
Y247737*
X172590D02*
X172249Y249144D01*
X172249D02*
X171908Y250081D01*
X171908D02*
X171226Y251019D01*
X171226D02*
X170545Y251487D01*
X170545D02*
X169181D01*
X175658D02*
Y241644D01*
Y251487D02*
X180431Y241644D01*
Y251487D02*
Y241644D01*
X189635Y251487D02*
Y241644D01*
Y251487D02*
X192022D01*
X192022D02*
X193045Y251019D01*
X193726Y250081*
X193726D02*
X194067Y249144D01*
X194067D02*
X194408Y247737D01*
X194408D02*
Y245394D01*
X194408D02*
X194067Y243987D01*
X194067D02*
X193726Y243050D01*
X193726D02*
X193045Y242112D01*
X193045D02*
X192022Y241644D01*
X189635*
X200204Y251487D02*
X197476Y241644D01*
X200204Y251487D02*
X202931Y241644D01*
X198499Y244925D02*
X201908D01*
X208385Y251487D02*
Y241644D01*
X205999Y251487D02*
X210772D01*
X213840D02*
Y241644D01*
Y251487D02*
X218272D01*
X213840Y246800D02*
X216567D01*
X213840Y241644D02*
X218272D01*
X120890Y110927D02*
X120208Y111865D01*
X120208D02*
X119186Y112333D01*
X119186D02*
X117822D01*
X117822D02*
X116799Y111865D01*
X116799D02*
X116118Y110927D01*
X116118D02*
Y109990D01*
X116458Y109052*
X116458D02*
X116799Y108583D01*
X116799D02*
X117481Y108115D01*
X117481D02*
X119527Y107177D01*
X119527D02*
X120208Y106708D01*
X120208D02*
X120549Y106240D01*
X120549D02*
X120890Y105302D01*
X120890D02*
Y103896D01*
X120890D02*
X120208Y102958D01*
X120208D02*
X119186Y102490D01*
X117822*
X117822D02*
X116799Y102958D01*
X116799D02*
X116118Y103896D01*
X126345Y112333D02*
Y102490D01*
X123958Y112333D02*
X128731D01*
X131799D02*
Y102490D01*
Y112333D02*
X134527Y102490D01*
X137254Y112333D02*
X134527Y102490D01*
X137254Y112333D02*
Y102490D01*
X140322Y112333D02*
X140663Y111865D01*
X141004Y112333*
X141004D02*
X140663Y112802D01*
X140663D02*
X140322Y112333D01*
X140663Y109052D02*
Y102490D01*
X148163Y107646D02*
X147481Y108583D01*
X147481D02*
X146799Y109052D01*
X146799D02*
X145777D01*
X145777D02*
X145095Y108583D01*
X145095D02*
X144413Y107646D01*
X144072Y106240*
X144072D02*
Y105302D01*
X144072D02*
X144413Y103896D01*
X145095Y102958*
X145095D02*
X145777Y102490D01*
X146799*
X146799D02*
X147481Y102958D01*
X147481D02*
X148163Y103896D01*
X151231Y109052D02*
Y102490D01*
Y106240D02*
X151572Y107646D01*
X151572D02*
X152254Y108583D01*
X152254D02*
X152936Y109052D01*
X152936D02*
X153958D01*
X158731D02*
X158049Y108583D01*
X158049D02*
X157368Y107646D01*
X157027Y106240*
Y105302*
X157027D02*
X157368Y103896D01*
X158049Y102958*
X158049D02*
X158731Y102490D01*
X158731D02*
X159754D01*
X160436Y102958*
X160436D02*
X161118Y103896D01*
X161458Y105302*
X161458D02*
Y106240D01*
X161458D02*
X161118Y107646D01*
X160436Y108583*
X160436D02*
X159754Y109052D01*
X159754D02*
X158731D01*
X164527Y106240D02*
X168618D01*
Y107177*
X168618D02*
X168277Y108115D01*
X167936Y108583*
X167936D02*
X167254Y109052D01*
X167254D02*
X166231D01*
X166231D02*
X165549Y108583D01*
X165549D02*
X164868Y107646D01*
X164527Y106240*
Y105302*
X164527D02*
X164868Y103896D01*
X165549Y102958*
X165549D02*
X166231Y102490D01*
X166231D02*
X167254D01*
X167936Y102958*
X167936D02*
X168618Y103896D01*
X171686Y112333D02*
Y102490D01*
X174754Y106240D02*
X178845D01*
Y107177*
X178845D02*
X178504Y108115D01*
X178163Y108583*
X178163D02*
X177481Y109052D01*
X177481D02*
X176458D01*
X176458D02*
X175777Y108583D01*
X175777D02*
X175095Y107646D01*
X174754Y106240*
Y105302*
X174754D02*
X175095Y103896D01*
X175777Y102958*
X175777D02*
X176458Y102490D01*
X176458D02*
X177481D01*
X177481D02*
X178163Y102958D01*
X178163D02*
X178845Y103896D01*
X186004Y107646D02*
X185322Y108583D01*
X185322D02*
X184640Y109052D01*
X184640D02*
X183618D01*
X183618D02*
X182936Y108583D01*
X182936D02*
X182254Y107646D01*
X181913Y106240*
Y105302*
X181913D02*
X182254Y103896D01*
X182936Y102958*
X182936D02*
X183618Y102490D01*
X184640*
X184640D02*
X185322Y102958D01*
X185322D02*
X186004Y103896D01*
X190095Y112333D02*
Y104365D01*
X190436Y102958*
X190436D02*
X191118Y102490D01*
X191799*
X189072Y109052D02*
X191458D01*
X194868D02*
Y102490D01*
Y106240D02*
X195208Y107646D01*
X195208D02*
X195890Y108583D01*
X195890D02*
X196572Y109052D01*
X196572D02*
X197595D01*
X202368D02*
X201686Y108583D01*
X201686D02*
X201004Y107646D01*
X200663Y106240*
Y105302*
X200663D02*
X201004Y103896D01*
X201686Y102958*
X201686D02*
X202368Y102490D01*
X203390*
X203390D02*
X204072Y102958D01*
X204072D02*
X204754Y103896D01*
X205095Y105302*
X205095D02*
Y106240D01*
X204754Y107646*
X204072Y108583*
X204072D02*
X203390Y109052D01*
X203390D02*
X202368D01*
X208163D02*
Y102490D01*
Y107177D02*
X209186Y108583D01*
X209186D02*
X209868Y109052D01*
X209868D02*
X210890D01*
X210890D02*
X211572Y108583D01*
X211572D02*
X211913Y107177D01*
X211913D02*
Y102490D01*
X214981Y112333D02*
X215322Y111865D01*
X215322D02*
X215663Y112333D01*
X215663D02*
X215322Y112802D01*
X215322D02*
X214981Y112333D01*
X215322Y109052D02*
Y102490D01*
X222822Y107646D02*
X222140Y108583D01*
X222140D02*
X221458Y109052D01*
X221458D02*
X220436D01*
X220436D02*
X219754Y108583D01*
X219754D02*
X219072Y107646D01*
X219072D02*
X218731Y106240D01*
X218731D02*
Y105302D01*
X218731D02*
X219072Y103896D01*
X219072D02*
X219754Y102958D01*
X219754D02*
X220436Y102490D01*
X221458*
X221458D02*
X222140Y102958D01*
X222140D02*
X222822Y103896D01*
X229640Y107646D02*
X229299Y108583D01*
X229299D02*
X228277Y109052D01*
X228277D02*
X227254D01*
X227254D02*
X226231Y108583D01*
X226231D02*
X225890Y107646D01*
X225890D02*
X226231Y106708D01*
X226231D02*
X226913Y106240D01*
X228618Y105771*
X229299Y105302*
X229299D02*
X229640Y104365D01*
X229640D02*
Y103896D01*
X229640D02*
X229299Y102958D01*
X229299D02*
X228277Y102490D01*
X227254*
X226231Y102958*
X226231D02*
X225890Y103896D01*
G54D17*
X253295Y196737D02*
Y192144D01*
Y196737D02*
X254726D01*
X254726D02*
X255204Y196519D01*
X255363Y196300*
X255522Y195862*
X255522D02*
Y195425D01*
X255363Y194987*
X255363D02*
X255204Y194769D01*
X254726Y194550*
X254726D02*
X253295D01*
X254408D02*
X255522Y192144D01*
G54D18*
X581230Y91336D02*
X581048Y91211D01*
X581048D02*
X580866Y90961D01*
X580866D02*
X580775Y90711D01*
X580775D02*
X580685Y90336D01*
Y89711*
X580775Y89336*
X580775D02*
X580866Y89086D01*
X580866D02*
X581048Y88836D01*
X581048D02*
X581230Y88711D01*
X581594*
X581775Y88836*
X581775D02*
X581957Y89086D01*
X581957D02*
X582048Y89336D01*
X582048D02*
X582139Y89711D01*
X582139D02*
Y90336D01*
X582139D02*
X582048Y90711D01*
X582048D02*
X581957Y90961D01*
X581957D02*
X581775Y91211D01*
X581775D02*
X581594Y91336D01*
X581230*
G54D27*
X716795Y227831D02*
Y208144D01*
X724976*
X739295Y225019D02*
X738613Y226894D01*
X736567Y227831*
X736567D02*
X735204D01*
X735204D02*
X733158Y226894D01*
X733158D02*
X731795Y224081D01*
X731795D02*
X731113Y219394D01*
Y214706*
X731113D02*
X731795Y210956D01*
X731795D02*
X733158Y209081D01*
X733158D02*
X735204Y208144D01*
X735885*
X735885D02*
X737931Y209081D01*
X737931D02*
X739295Y210956D01*
X739295D02*
X739976Y213769D01*
X739976D02*
Y214706D01*
X739976D02*
X739295Y217519D01*
X737931Y219394*
X735885Y220331*
X735885D02*
X735204D01*
X735204D02*
X733158Y219394D01*
X733158D02*
X731795Y217519D01*
X731113Y214706*
X746795Y223144D02*
Y224081D01*
X746795D02*
X747476Y225956D01*
X747476D02*
X748158Y226894D01*
X748158D02*
X749522Y227831D01*
X749522D02*
X752249D01*
X752249D02*
X753613Y226894D01*
X754295Y225956*
X754295D02*
X754976Y224081D01*
X754976D02*
Y222206D01*
X754976D02*
X754295Y220331D01*
X754295D02*
X752931Y217519D01*
X746113Y208144*
X755658*
X765885Y227831D02*
X763840Y226894D01*
X762476Y224081*
X762476D02*
X761795Y219394D01*
Y216581*
X761795D02*
X762476Y211894D01*
X762476D02*
X763840Y209081D01*
X763840D02*
X765885Y208144D01*
X765885D02*
X767249D01*
X767249D02*
X769295Y209081D01*
X769295D02*
X770658Y211894D01*
X770658D02*
X771340Y216581D01*
X771340D02*
Y219394D01*
X770658Y224081*
X770658D02*
X769295Y226894D01*
X767249Y227831*
X767249D02*
X765885D01*
X785658Y225019D02*
X784976Y226894D01*
X784976D02*
X782931Y227831D01*
X782931D02*
X781567D01*
X781567D02*
X779522Y226894D01*
X778158Y224081*
X778158D02*
X777476Y219394D01*
X777476D02*
Y214706D01*
X777476D02*
X778158Y210956D01*
X778158D02*
X779522Y209081D01*
X779522D02*
X781567Y208144D01*
X781567D02*
X782249D01*
X782249D02*
X784295Y209081D01*
X784295D02*
X785658Y210956D01*
X785658D02*
X786340Y213769D01*
Y214706*
X786340D02*
X785658Y217519D01*
X785658D02*
X784295Y219394D01*
X782249Y220331*
X782249D02*
X781567D01*
X781567D02*
X779522Y219394D01*
X778158Y217519*
X778158D02*
X777476Y214706D01*
G54D28*
X719795Y153025D02*
X720931Y153806D01*
X720931D02*
X722635Y156150D01*
X722635D02*
Y139744D01*
X728317Y150681D02*
X727749Y149900D01*
X727749D02*
X728317Y149119D01*
X728317D02*
X728885Y149900D01*
X728885D02*
X728317Y150681D01*
Y141306D02*
X727749Y140525D01*
X727749D02*
X728317Y139744D01*
X728317D02*
X728885Y140525D01*
X728885D02*
X728317Y141306D01*
X733999Y153025D02*
X735135Y153806D01*
X735135D02*
X736840Y156150D01*
Y139744*
X789795Y153025D02*
X790931Y153806D01*
X790931D02*
X792635Y156150D01*
X792635D02*
Y139744D01*
G54D42*
X405315Y851254D03*
Y716254D03*
X292815Y886254D03*
X381315Y803754D03*
X380315Y896254D03*
Y876254D03*
X381315Y791254D03*
X457815Y893754D03*
X535315Y788754D03*
G54D43*
X405315Y861254D03*
Y726254D03*
X302815Y886254D03*
X292815Y876254D03*
X302815D03*
X292815Y866254D03*
X302815D03*
X292815Y856254D03*
X302815D03*
X292815Y846254D03*
X302815D03*
X292815Y836254D03*
X302815D03*
X292815Y826254D03*
X302815D03*
X292815Y816254D03*
X302815D03*
X292815Y806254D03*
X302815D03*
X292815Y796254D03*
X302815D03*
X292815Y786254D03*
X302815D03*
X292815Y776254D03*
X302815D03*
X292815Y766254D03*
X302815D03*
X292815Y756254D03*
X302815D03*
X292815Y746254D03*
X302815D03*
X292815Y736254D03*
X302815D03*
X292815Y726254D03*
X302815D03*
X525315Y903754D03*
Y863754D03*
X391315Y803754D03*
X405315Y836254D03*
Y816254D03*
Y736254D03*
Y756254D03*
X375815Y816254D03*
X395815D03*
X375815Y778754D03*
X395815D03*
X350315Y711754D03*
Y731754D03*
X380315Y886254D03*
X391315Y791254D03*
X395315Y851175D03*
X385315Y841332D03*
X375315Y851175D03*
X395315Y753675D03*
X385315Y743832D03*
X375315Y753675D03*
X340315Y728675D03*
X330315Y718832D03*
X320315Y728675D03*
X340315Y873675D03*
X330315Y863832D03*
X320315Y873675D03*
X367815D03*
X357815Y863832D03*
X347815Y873675D03*
X367315Y740254D03*
X327315D03*
X457815Y883754D03*
X452815Y831254D03*
Y841254D03*
X515315Y788754D03*
X540315Y898754D03*
Y878754D03*
X510315Y711254D03*
X485315D03*
X460315Y866254D03*
X367815Y888754D03*
X322815Y883754D03*
X427815Y746254D03*
X457815D03*
X487815Y778754D03*
Y798754D03*
X420315Y746254D03*
G54D56*
X530315Y748596D03*
Y728911D03*
X402972Y888754D03*
X422657D03*
X530315Y848596D03*
Y828911D03*
X480472Y888754D03*
X500157D03*
G74*
X0Y0D02*
M02*
